<?xml version="1.0" encoding="utf-8"?>
<!-- Generator: Adobe Illustrator 21.0.0, SVG Export Plug-In . SVG Version: 6.00 Build 0)  -->
<svg version="1.1" xmlns="http://www.w3.org/2000/svg" xmlns:xlink="http://www.w3.org/1999/xlink" x="0px" y="0px" width="64px"
	 height="64px" viewBox="0 0 64 64" enable-background="new 0 0 64 64" xml:space="preserve">
<g id="Layer_1">
</g>
<g id="Layer_2">
</g>
<g id="messages">
</g>
<g id="messages_x5F_hover">
</g>
<g id="profile">
</g>
<g id="profile_x5F_hover">
</g>
<g id="view_x5F_hover">
</g>
<g id="view_x5F_feedback">
</g>
<g id="no_x5F_feedback_x5F_to_x5F_view">
</g>
<g id="download_x5F_hover">
</g>
<g id="download">
</g>
<g id="no_x5F_feedback_x5F_download">
</g>
<g id="link_x5F_hover">
</g>
<g id="assignment_x5F_link_copy">
</g>
<g id="Layer_21">
</g>
<g id="home_x5F_hover">
</g>
<g id="home_1_">
</g>
<g id="edit_x5F_profile">
</g>
<g id="preferences">
</g>
<g id="notifications">
</g>
<g id="my_x5F_posts">
</g>
<g id="logout">
</g>
<g id="assignment">
</g>
<g id="coursework">
</g>
<g id="forum">
</g>
<g id="quiz">
</g>
<g id="book">
</g>
<g id="database">
</g>
<g id="wiki">
</g>
<g id="choice">
</g>
<g id="workshop">
</g>
<g id="certificate">
</g>
<g id="scheduler">
</g>
<g id="equella">
</g>
<g id="file">
</g>
<g id="folder">
</g>
<g id="ims_x5F_content_x5F_package">
</g>
<g id="label">
</g>
<g id="lightbox_x5F_gallery">
</g>
<g id="nln_x5F_learning_x5F_object">
</g>
<g id="page">
</g>
<g id="subpage">
</g>
<g id="tab_x5F_display">
</g>
<g id="new_x5F_label">
</g>
<g id="url">
</g>
<g id="_x33_60_x5F_degree_x5F_diagnostics">
</g>
<g id="adobe_x5F_connect">
</g>
<g id="attendance_x5F_register">
</g>
<g id="booking">
</g>
<g id="chat">
</g>
<g id="checklist">
</g>
<g id="external_x5F_tool">
</g>
<g id="face_x5F_to_x5F_face">
</g>
<g id="forumNG">
</g>
<g id="glossary">
</g>
<g id="group_x5F_choice">
</g>
<g id="journal">
</g>
<g id="mediasite_x5F_content">
</g>
<g id="nanogong_x5F_voice">
</g>
<g id="questionnaire">
</g>
<g id="scorm_x5F_package">
</g>
<g id="survey">
</g>
<g id="tutorship">
</g>
<g id="advanced_x5F_forum">
</g>
<g id="subcourse">
</g>
<g id="lesson_1_">
</g>
<g id="adaptive_x5F_quiz">
</g>
<g id="ou_x5F_wiki">
	<g>
		<g>
			<path fill="#FFFFFF" d="M60.3087578,9.2874346h-5.5947266V6.4899087V6.0512695
				c0-1.3027344-1.0561523-2.3587239-2.3587265-2.3587239h-9.0416641c-1.3027344,0-2.3587265,1.0559895-2.3587265,2.3587239
				v3.236165H30.1300449V3.6925457c0-1.3027344-1.0561523-2.3587241-2.3587227-2.3587241h-9.0415039
				c-1.3027344,0-2.3587246,1.0559896-2.3587246,2.3587241v5.5948887h-2.7975264h-0.4386387
				c-1.3027344,0-2.3587246,1.0559902-2.3587246,2.3587246v9.041503c0,1.3027344,1.0559902,2.3587246,2.3587246,2.3587246h3.236165
				v4.7159824H4.0009766c-1.4728191,0-2.6666665,1.1938477-2.6666665,2.6666679v17.8492832
				c0,7.9467773,6.4420571,14.3888359,14.388835,14.3888359s14.388834-6.4420586,14.388834-14.3888359v-0.6479492h10.8429356
				v5.5948906c0,1.3025703,1.0561523,2.3585587,2.3587265,2.3585587h9.0416641c1.3027344,0,2.3587265-1.0559883,2.3587265-2.3585587
				v-5.5948906h2.7973633h0.4388008c1.3027344,0,2.3585625-1.0561523,2.3585625-2.3587227v-9.041832
				c0-1.3025703-1.0558281-2.3585587-2.3585625-2.3585587h-3.2361641V23.0463867h5.5947266
				c1.3027344,0,2.3587227-1.0559902,2.3587227-2.3587246v-9.041503
				C62.6674805,10.3434248,61.6114922,9.2874346,60.3087578,9.2874346z M12.3121748,44.750164
				c-3.5898438,0-6.5000005-2.9101563-6.5000005-6.5s2.9101567-6.5000019,6.5000005-6.5000019
				s6.499999,2.9101582,6.499999,6.5000019S15.9020185,44.750164,12.3121748,44.750164z M40.9549141,33.8712578H30.1300449
				h-0.0180664v-0.0079765l0.0180664,0.0079765V23.0463867h10.8248692V33.8712578z"/>
		</g>
		<g opacity="0.3">
			<g>
				<path fill="#32548C" d="M27.4452591,27.7623463H4.0009222c-1.4728189,0-2.6666665,1.1938477-2.6666665,2.666666v17.8492851
					c0,7.9467773,6.4420571,14.3888321,14.388834,14.3888321s14.388835-6.4420547,14.388835-14.3888321V30.4290123
					C30.1119251,28.9561939,28.9180775,27.7623463,27.4452591,27.7623463z M12.3121204,44.7501373
					c-3.5898438,0-6.5-2.9101563-6.5-6.5s2.9101563-6.4999981,6.5-6.4999981s6.5,2.9101543,6.5,6.4999981
					S15.9019642,44.7501373,12.3121204,44.7501373z"/>
			</g>
		</g>
		<g>
			<path fill="#32548C" d="M18.812479,36.9166679c-0.7369385,0-1.333313,0.5963745-1.333313,1.333313
				c0,2.848999-2.317687,5.166687-5.1666861,5.166687c-2.848938,0-5.1666265-2.317688-5.1666265-5.166687
				c0-2.848938,2.3176885-5.166626,5.1666265-5.166626c1.2318115,0,2.4244995,0.4414063,3.3619995,1.2434692
				c0.5573111,0.4804688,1.3984365,0.4179688,1.880187-0.1445313c0.479187-0.5585938,0.4140625-1.3997192-0.145813-1.8789063
				c-1.4192495-1.2174683-3.2291861-1.8867188-5.0963736-1.8867188c-4.320313,0-7.8333135,3.5143433-7.8333135,7.833313
				c0,4.3190308,3.5130005,7.833374,7.8333135,7.833374s7.8333731-3.5143433,7.8333731-7.833374
				C20.145853,37.5130424,19.5494785,36.9166679,18.812479,36.9166679z"/>
			<path fill="#32548C" d="M60.3099174,7.9544492h-18.020874V6.0507627c0-0.5650635,0.458374-1.0247192,1.0234375-1.0247192
				h9.041687c0.5651245,0,1.026062,0.4596558,1.026062,1.0247192c0,0.7369995,0.5963135,1.333374,1.333313,1.333374
				s1.333313-0.5963745,1.333313-1.333374c0-2.0351563-1.65625-3.6914065-3.692688-3.6914065h-9.041687
				c-2.0338135,0-3.6900635,1.6562502-3.6900635,3.6914065v1.9036865H31.463541V3.6927302
				c0-2.036499-1.65625-3.692749-3.692688-3.692749h-9.041687c-2.036438,0-3.692687,1.65625-3.692687,3.692749v18.020813h-1.901062
				c-0.5651245,0-1.026062-0.4609375-1.026062-1.026062v-9.041626c0-0.5651245,0.4609375-1.0247803,1.026062-1.0247803
				c0.7369995,0,1.333313-0.5963135,1.333313-1.333313s-0.5963135-1.3333125-1.333313-1.3333125
				c-2.036438,0-3.692688,1.6562495-3.692688,3.6914058v9.041626c0,2.036499,1.65625,3.692749,3.692688,3.692749h1.901062v2.0481567
				H3.9999797c-2.2056885,0-4,1.7942505-4,4v17.8502808c0,8.6692505,7.0546875,15.7213135,15.723999,15.7213135
				c8.6692495,0,15.7213125-7.052063,15.7213125-15.7213135V33.9615898
				c0.0021973-0.0315552,0.0182495-0.0584106,0.0182495-0.0905151v-9.4908447h8.1588764v8.1575317h-5.6224365
				c-0.7369385,0-1.333313,0.5963745-1.333313,1.333313c0,0.7369995,0.5963745,1.333374,1.333313,1.333374h5.6224365v1.994751
				h-5.546875c-0.7369995,0-1.333374,0.5963745-1.333374,1.333374c0,0.7369385,0.5963745,1.333313,1.333374,1.333313h5.546875
				v6.4309692h-5.6224365c-0.7369385,0-1.333313,0.5963745-1.333313,1.333374c0,0.7369385,0.5963745,1.333313,1.333313,1.333313
				h5.6224365v4.2617188c0,2.0351563,1.65625,3.6914063,3.6900635,3.6914063h9.041687
				c2.036438,0,3.692688-1.65625,3.692688-3.6914063v-18.020813h1.9036865c0.5650635,0,1.026001,0.4609375,1.026001,1.026001
				v9.041687c0,0.5651245-0.4609375,1.0247192-1.026001,1.0247192c-0.7369995,0-1.333374,0.5963745-1.333374,1.333374
				c0,0.7369385,0.5963745,1.333313,1.333374,1.333313c2.036438,0,3.692688-1.65625,3.692688-3.6914063v-9.041687
				c0-2.036438-1.65625-3.692688-3.692688-3.692688h-1.9036865v-8.1575317h4.2630615
				c2.0338135,0,3.6900635-1.65625,3.6900635-3.692749v-9.041626C63.9999809,9.6106987,62.3437309,7.9544492,60.3099174,7.9544492z
				 M17.703104,3.6927302c0-0.5664063,0.4609375-1.026062,1.026062-1.026062h9.041687
				c0.5650635,0,1.026001,0.4596558,1.026001,1.026062v22.9869995c-0.4241333-0.1535034-0.875061-0.2513428-1.3515625-0.2513428
				H26.744791V7.2304502c0-0.7369385-0.5963745-1.333313-1.333313-1.333313h-4.322937
				c-0.7369995,0-1.333313,0.5963745-1.333313,1.333313v19.197937h-2.052124V3.6927302z M22.421854,26.4283867V8.5638237h1.65625
				v17.864563H22.421854z M28.7786655,48.2786674c0,7.197876-5.8568115,13.0546875-13.0546865,13.0546875
				c-7.2005615,0-13.057312-5.8568115-13.057312-13.0546875V30.4283867c0-0.7356567,0.598938-1.333313,1.333313-1.333313h23.4453125
				c0.734375,0,1.333374,0.5976563,1.333374,1.333313V48.2786674z M53.3802299,53.2252617
				c0,0.5651245-0.4609375,1.0247192-1.026062,1.0247192h-9.041687c-0.5650635,0-1.0234375-0.4595947-1.0234375-1.0247192
				V24.3802299h2.0494995v25.4192505c0,0.7369995,0.5963745,1.333313,1.333313,1.333313h4.3255615
				c0.7369385,0,1.333313-0.5963135,1.333313-1.333313V27.8763237c0-0.7369995-0.5963745-1.333374-1.333313-1.333374
				c-0.7369995,0-1.333374,0.5963745-1.333374,1.333374v20.5898438h-1.6588135V24.3802299h6.375V53.2252617z M61.3333549,20.6874809
				c0,0.5651245-0.458374,1.026062-1.0234375,1.026062H31.463541v-2.1080933h25.3645649
				c0.7369995,0,1.333374-0.5963135,1.333374-1.333313v-4.322937c0-0.7369385-0.5963745-1.333313-1.333374-1.333313H34.9036674
				c-0.7369995,0-1.333374,0.5963745-1.333374,1.333313c0,0.7369995,0.5963745,1.333374,1.333374,1.333374h20.5911255v1.65625
				H31.463541v-6.317749h28.8463764c0.5650635,0,1.0234375,0.4596558,1.0234375,1.0247803V20.6874809z"/>
			<path fill="#32548C" d="M34.0755424,44.1901054h2.1067505c0.7369995,0,1.333313-0.5963745,1.333313-1.333313
				c0-0.7369995-0.5963135-1.333374-1.333313-1.333374h-2.1067505c-0.7369995,0-1.333374,0.5963745-1.333374,1.333374
				C32.7421684,43.5937309,33.3385429,44.1901054,34.0755424,44.1901054z"/>
		</g>
	</g>
</g>
<g id="support_x5F_tracker">
</g>
<g id="view_x5F_comments">
</g>
<g id="no_x5F_comment">
</g>
<g id="attention">
</g>
<g id="search">
</g>
<g id="submitted">
</g>
<g id="feedback">
</g>
<g id="T_x5F_I_x5F_N">
</g>
</svg>
