<?xml version="1.0" encoding="UTF-8"?>
<svg width="32px" height="32px" viewBox="0 0 32 32" version="1.1" xmlns="http://www.w3.org/2000/svg" xmlns:xlink="http://www.w3.org/1999/xlink">
    <!-- Generator: Sketch 46.1 (44463) - http://www.bohemiancoding.com/sketch -->
    <title>reading-list</title>
    <desc>Created with Sketch.</desc>
    <defs></defs>
    <g id="Page-1" stroke="none" stroke-width="1" fill="none" fill-rule="evenodd">
        <g id="reading-list">
            <circle id="Oval" fill="#03A9F4" cx="16" cy="16" r="16"></circle>
            <path d="M25.0922877,11.2850264 C25.3828269,11.7034028 25.4641779,12.2496165 25.3014759,12.7842087 L22.1055447,23.3133493 C21.8150055,24.3011826 20.7923075,25.0682061 19.7928527,25.0682061 L9.06614537,25.0682061 C7.88074543,25.0682061 6.61399451,24.1268591 6.18399649,22.918216 C5.9980514,22.3952454 5.9980514,21.8838964 6.16075336,21.4422768 C6.18399649,21.2098455 6.23048277,20.9774141 6.24210433,20.6984965 C6.2537259,20.5125514 6.14913179,20.361471 6.17237493,20.2220122 C6.2188612,19.9430946 6.46291413,19.7455279 6.64885922,19.4317456 C6.99750626,18.8506672 7.39263957,17.9093202 7.52047682,17.3049986 C7.57858466,17.0841888 7.46236898,16.8285143 7.52047682,16.6309477 C7.57858466,16.4101379 7.79939445,16.2474359 7.91561013,16.0382477 C8.22939247,15.5036556 8.63614735,14.469336 8.69425519,13.9231223 C8.71749833,13.6790694 8.60128265,13.4117733 8.67101205,13.2258282 C8.75236303,12.9585322 9.00803753,12.8423165 9.18236105,12.6098851 C9.46127868,12.2263734 9.9261414,11.1223244 9.99587081,10.5063813 C10.0191139,10.3088147 9.90289827,10.111248 9.93776297,9.90205978 C9.98424924,9.68124998 10.2631669,9.44881862 10.449112,9.18152256 C10.9372178,8.46098534 11.0301904,6.86883052 12.5061295,7.28720697 L12.4945079,7.32207167 C12.6920746,7.2755854 12.8896413,7.21747756 13.0872079,7.21747756 L21.9312212,7.21747756 C22.4774349,7.21747756 22.9655407,7.46153049 23.2560799,7.86828537 C23.5582407,8.28666182 23.6279701,8.83287552 23.4652682,9.37908922 L20.2809585,19.9082299 C19.7347448,21.6979513 19.4325841,22.0930847 17.9566449,22.0930847 L7.85750229,22.0930847 C7.70642191,22.0930847 7.52047682,22.1279494 7.41588271,22.2674082 C7.32291016,22.406867 7.31128859,22.5114611 7.40426114,22.7671356 C7.6366925,23.4411865 8.43858069,23.5806454 9.07776694,23.5806454 L19.8044742,23.5806454 C20.2344723,23.5806454 20.7341997,23.3365924 20.8620369,22.918216 L24.3485073,11.4477283 C24.4182368,11.2269185 24.4182368,10.9944872 24.4066152,10.7852989 C24.6739112,10.8898931 24.9179642,11.052595 25.0922877,11.2850264 Z M12.7269393,11.3082695 C12.6572099,11.5174577 12.7734256,11.6801597 12.9826138,11.6801597 L20.0485272,11.6801597 C20.2460938,11.6801597 20.4669036,11.5174577 20.536633,11.3082695 L20.780686,10.5644892 C20.8504154,10.3553009 20.7341997,10.192599 20.5250115,10.192599 L13.4590981,10.192599 C13.2615314,10.192599 13.0407216,10.3553009 12.9709922,10.5644892 L12.7269393,11.3082695 Z M11.7623492,14.2833909 C11.6926197,14.4925792 11.8088354,14.6552811 12.0180237,14.6552811 L19.083937,14.6552811 C19.2815037,14.6552811 19.5023135,14.4925792 19.5720429,14.2833909 L19.8160958,13.5396106 C19.8858252,13.3304223 19.7696095,13.1677204 19.5604213,13.1677204 L12.4945079,13.1677204 C12.2969413,13.1677204 12.0761315,13.3304223 12.0064021,13.5396106 L11.7623492,14.2833909 Z" id="" fill="#FFFFFF"></path>
        </g>
    </g>
</svg>