<?xml version="1.0" encoding="UTF-8"?>
<svg width="32px" height="32px" viewBox="0 0 32 32" version="1.1" xmlns="http://www.w3.org/2000/svg" xmlns:xlink="http://www.w3.org/1999/xlink">
    <!-- Generator: Sketch 46.1 (44463) - http://www.bohemiancoding.com/sketch -->
    <title>h5p</title>
    <desc>Created with Sketch.</desc>
    <defs></defs>
    <g id="Page-1" stroke="none" stroke-width="1" fill="none" fill-rule="evenodd">
        <g id="h5p">
            <circle id="Oval" fill="#003B67" cx="16" cy="16" r="16"></circle>
            <g id="ZIP" transform="translate(8.000000, 5.000000)" fill-rule="nonzero" fill="#FFFFFF">
                <path d="M0,0 L0,0.792159763 L0,5.54511834 L1.6,5.54511834 L1.6,1.58431953 L14.4,1.58431953 L14.4,5.54511834 L16,5.54511834 L16,0.792159763 L16,0 L15.2,0 L0.8,0 L0,0 Z M0,15.0510355 L0,19.8039941 L0,20.5961538 L0.8,20.5961538 L15.2,20.5961538 L16,20.5961538 L16,19.8039941 L16,15.0510355 L14.4,15.0510355 L14.4,19.0118343 L1.6,19.0118343 L1.6,15.0510355 L0,15.0510355 Z" id="Shape"></path>
            </g>
            <path d="M10,13 L11.2789464,13 L11.2789464,15.0323185 L12.6764706,15.0323185 L12.6764706,13 L13.9610635,13 L13.9610635,18.8077563 L12.6764706,18.8077563 L12.6764706,16.458507 L11.2789464,16.458507 L11.2789464,18.8077563 L10,18.8077563 L10,13 Z M15.5033817,13 L18.2334947,13 L18.2334947,14.2875312 L16.3842455,14.2875312 L16.2854306,15.1590909 C16.41342,15.0745756 16.5399959,15.01119 16.665162,14.9689324 C16.790328,14.9266747 16.9140806,14.9055462 17.0364234,14.9055462 C17.4505067,14.9055462 17.7864738,15.0811769 18.0443348,15.4324436 C18.3021958,15.7837103 18.4311243,16.2260884 18.4311243,16.7595912 C18.4311243,17.1346278 18.3647779,17.495133 18.232083,17.8411175 C18.0993881,18.187102 17.9111713,18.4512083 17.6674268,18.6334444 C17.4236823,18.8156805 17.1117128,18.9067972 16.7315091,18.9067972 C16.4585905,18.9067972 16.2247311,18.8704826 16.0299237,18.7978522 C15.8351163,18.7252219 15.6694855,18.6169383 15.5330262,18.4729982 C15.3965669,18.3290581 15.2859895,18.1659724 15.2012906,17.9837363 C15.1165918,17.8015002 15.0460105,17.5743688 14.9895446,17.3023352 L16.1527364,17.1240616 C16.1809694,17.3855308 16.2468453,17.5842708 16.3503661,17.7202876 C16.4538869,17.8563044 16.577169,17.9243118 16.7202159,17.9243118 C16.8802027,17.9243118 17.012425,17.8391375 17.1168869,17.6687864 C17.2213489,17.4984352 17.2735791,17.2442329 17.2735791,16.9061717 C17.2735791,16.5601872 17.2208783,16.3066451 17.1154753,16.1455379 C17.0100723,15.9844306 16.8698507,15.9038782 16.6948064,15.9038782 C16.5837568,15.9038782 16.4764732,15.9421736 16.3729523,16.0187656 C16.2957823,16.0742287 16.2110847,16.1745891 16.118857,16.3198498 L15.1391785,16.1217681 L15.5033817,13 Z M19.4878382,13 L21.6137689,13 C22.0767894,13 22.4235789,13.1545022 22.6541481,13.4635112 C22.8847172,13.7725203 23,14.2122573 23,14.7827356 C23,15.3690604 22.8743652,15.8272849 22.623092,16.1574228 C22.3718187,16.4875606 21.9883268,16.6526271 21.4726049,16.6526271 L20.7724311,16.6526271 L20.7724311,18.8077563 L19.4878382,18.8077563 L19.4878382,13 Z M20.7724311,15.4760216 L21.0858153,15.4760216 C21.3323831,15.4760216 21.5055426,15.4159374 21.6052991,15.2957672 C21.7050555,15.1755971 21.754933,15.0217551 21.754933,14.8342368 C21.754933,14.6520007 21.7116431,14.4974985 21.6250621,14.3707256 C21.538481,14.2439526 21.3756734,14.1805671 21.1366344,14.1805671 L20.7724311,14.1805671 L20.7724311,15.4760216 Z" id="H5P" fill="#FFFFFF"></path>
        </g>
    </g>
</svg>