<?xml version="1.0" encoding="UTF-8"?>
<svg width="32px" height="32px" viewBox="0 0 32 32" version="1.1" xmlns="http://www.w3.org/2000/svg" xmlns:xlink="http://www.w3.org/1999/xlink">
    <!-- Generator: Sketch 46.1 (44463) - http://www.bohemiancoding.com/sketch -->
    <title>tab-display</title>
    <desc>Created with Sketch.</desc>
    <defs></defs>
    <g id="Page-1" stroke="none" stroke-width="1" fill="none" fill-rule="evenodd">
        <g id="tab-display">
            <circle id="Oval" fill="#F7882F" cx="16" cy="16" r="16"></circle>
            <g id="Group" transform="translate(6.000000, 8.000000)">
                <path d="M11,0 L20,0 L20,4.4408921e-16 C20.5522847,3.42636147e-16 21,0.44771525 21,1 L21,4 L11,4 L11,0 Z" id="Rectangle" fill="#FFFFFF"></path>
                <path d="M11.25,1 C11.25,1.00008793 11.2499433,1.00007461 11.25,1.00004557 L11.25,1 Z M11.25,1.00004557 C11.2500763,1.00000649 11.2503581,0.999938929 11.2512601,1.00005141 L10.375,0.890783318 L10.375,-1 L20,-1 C21.1045695,-1 22,-0.1045695 22,1 L22,4.59466912 L11.25,4.59466912 L11.25,1.00004557 Z M11.3759648,1.57859836e-16 L11.375,0.00773671937 L12.375,0.00773671937 L12.375,0 L11.3759648,0 Z M1,1 L1,15 L20,15 L20,1 L1,1 Z" id="Combined-Shape" stroke="#FFFFFF" stroke-width="2"></path>
            </g>
        </g>
    </g>
</svg>