<?xml version="1.0" encoding="UTF-8" standalone="no"?>
<svg width="16px" height="16px" viewBox="0 0 16 16" version="1.1" xmlns="http://www.w3.org/2000/svg" xmlns:xlink="http://www.w3.org/1999/xlink">
    <!-- Generator: Sketch 44.1 (41455) - http://www.bohemiancoding.com/sketch -->
    <title>pix_plugins/mod/scorm/pix/asset</title>
    <desc>Created with Sketch.</desc>
    <defs></defs>
    <g id="Page-1" stroke="none" stroke-width="1" fill="none" fill-rule="evenodd">
        <g id="pix_plugins/mod/scorm/pix/asset">
            <rect id="Rectangle-2" stroke="#000000" x="2.5" y="2.5" width="11" height="11"></rect>
            <path d="M5.28480575,7.76421838 C5.39956491,7.35108541 5.51432234,6.9350897 5.6290815,6.51621878 C5.74384066,6.09734785 5.85286022,5.71291044 5.95614347,5.36289501 C6.05942671,5.01287957 6.14549479,4.7116413 6.21435028,4.45917116 C6.28320578,4.20670101 6.32910875,4.03456485 6.35206058,3.94275753 C6.37501241,3.87390203 6.39222603,3.80217863 6.40370194,3.72758518 C6.41517786,3.65299173 6.43239148,3.56405472 6.45534331,3.46077147 C6.51272289,3.17387358 6.58157735,2.85542169 6.66190876,2.50540626 C6.74224017,2.15539083 6.85125973,1.83407 6.98897072,1.54143415 C7.12668171,1.2487983 7.29881787,1.00206981 7.50538435,0.801241284 C7.71195084,0.600412757 7.9644172,0.5 8.26279101,0.5 C8.400502,0.5 8.52960411,0.543034039 8.65010123,0.629103407 C8.77059835,0.715172776 8.87674898,0.821323405 8.9685563,0.947558478 C9.06036363,1.07379355 9.13495596,1.20289567 9.19233554,1.3348687 C9.24971512,1.46684173 9.28988022,1.57299236 9.31283205,1.65332377 L9.29561827,1.63610998 C9.57104025,2.7377979 9.79481725,3.63864378 9.96695598,4.33867464 C10.1390947,5.03870551 10.2739347,5.59527907 10.37148,6.00841204 C10.4690253,6.42154501 10.5378797,6.71704541 10.5780454,6.89492211 C10.6182112,7.0727988 10.6440316,7.19042517 10.6555075,7.24780475 C10.862074,7.14452151 11.0772442,7.0641913 11.3010245,7.00681173 C11.5248049,6.94943215 11.831781,6.9379564 12.2219622,6.97238415 C12.2219622,7.17895063 12.2047485,7.35395573 12.1703208,7.49740467 C12.1358931,7.64085362 12.0899901,7.76421786 12.0326105,7.86750111 C11.9752309,7.97078435 11.9092454,8.05685243 11.8346519,8.12570792 C11.7600585,8.19456342 11.6883351,8.26341788 11.6194796,8.33227337 C11.5276723,8.41260478 11.4444731,8.49580393 11.3698797,8.58187329 C11.2952862,8.66794266 11.2579901,8.76835542 11.2579901,8.88311458 C11.2579901,9.25034388 11.3411892,9.61756768 11.50759,9.98479699 C11.6739908,10.3520263 11.8547337,10.7020365 12.0498243,11.034838 C12.2793426,11.4135433 12.4801681,11.8065875 12.6523069,12.2139825 C12.8244456,12.6213775 12.9105137,13.0832762 12.9105137,13.5996924 C12.5318084,13.794783 12.2162255,13.8693753 11.9637553,13.8234716 C11.7112852,13.777568 11.496115,13.6484658 11.3182383,13.4361614 C11.1403616,13.223857 10.991177,12.954177 10.8706798,12.6271134 C10.7501827,12.3000498 10.6382942,11.9586464 10.535011,11.602893 C10.4087759,11.1897601 10.2538534,10.7680265 10.0702387,10.3376796 C9.88662406,9.90733279 9.68579854,9.58314303 9.46775614,9.36510063 C9.38742473,9.38805246 9.24684687,9.43395544 9.04601835,9.50281093 C8.84518982,9.57166643 8.61854388,9.65486557 8.36607373,9.75241085 C8.11360359,9.84995614 7.84966148,9.9589757 7.5742395,10.0794728 C7.29881752,10.1999699 7.04348223,10.3233342 6.80822595,10.4495693 C6.57296968,10.5758043 6.37214417,10.6991686 6.20574339,10.8196657 C6.03934261,10.9401628 5.93892985,11.0520513 5.9045021,11.1553345 L5.9045021,11.1381208 C5.72088745,11.7004406 5.53440662,12.2684899 5.345054,12.8422857 C5.15570139,13.4160815 4.96922056,13.9841308 4.78560591,14.5464507 C4.68232266,14.8103968 4.55035161,14.9653193 4.38968879,15.011223 C4.22902597,15.0571266 4.06262769,15.0800781 3.89048895,15.0800781 C3.66097063,15.0800781 3.45153831,15.0198305 3.2621857,14.8993334 C3.07283309,14.7788362 2.97815821,14.5694039 2.97815821,14.2710301 L5.28480575,7.76421838 Z M6.59305361,8.90032836 C6.77666826,8.86590062 6.99183845,8.81712871 7.23857064,8.75401117 C7.48530283,8.69089363 7.73776919,8.61343236 7.9959773,8.52162504 C8.25418541,8.42981771 8.50378283,8.32653602 8.74477706,8.21177686 C8.98577129,8.0970177 9.19807255,7.95930878 9.3816872,7.79864596 C9.31283171,7.51174806 9.2238947,7.12731065 9.1148735,6.64532218 C9.0058523,6.16333372 8.88822592,5.67561462 8.76199085,5.18215024 C8.63575578,4.68868586 8.5095226,4.23539398 8.38328752,3.82226101 C8.25705245,3.40912804 8.14229501,3.12797232 8.03901177,2.97878542 L6.59305361,8.90032836 Z" id="A" fill="#6A5A40"></path>
        </g>
    </g>
</svg>