<?xml version="1.0" encoding="UTF-8" standalone="no"?>
<svg width="16px" height="16px" viewBox="0 0 16 16" version="1.1" xmlns="http://www.w3.org/2000/svg" xmlns:xlink="http://www.w3.org/1999/xlink">
    <!-- Generator: Sketch 44.1 (41455) - http://www.bohemiancoding.com/sketch -->
    <title>pix_plugins/mod/scorm/pix/browsed</title>
    <desc>Created with Sketch.</desc>
    <defs></defs>
    <g id="Page-1" stroke="none" stroke-width="1" fill="none" fill-rule="evenodd">
        <g id="pix_plugins/mod/scorm/pix/browsed" fill-rule="nonzero" fill="#000000">
            <g id="Cursor" transform="translate(3.000000, 0.000000)">
                <path d="M0,0.351851852 L0,1.77777778 L0,14.2222222 L0,15.5 L1.01215278,14.6851852 L3.47569444,12.6851852 L4.71701389,15.0740741 L4.984375,15.6111111 L5.53819444,15.3333333 L7.42881944,14.3888889 L7.96354167,14.1296296 L7.69618056,13.5925926 L6.56944444,11.4444444 L9.66319444,11.0740741 L10.9045139,10.9259259 L10.0260417,10.0740741 L1.05034722,1.35185185 L0,0.351851852 Z M1.22222222,3.22222222 L8.28819444,10.0555556 L5.53819444,10.3703704 L4.67881944,10.4814815 L5.07986111,11.2407407 L6.34027778,13.6111111 L5.53819444,14.0185185 L4.22048611,11.462963 L3.85763889,10.7962963 L3.265625,11.2777778 L1.22222222,12.9444444 L1.22222222,3.22222222 Z" id="Shape"></path>
            </g>
        </g>
    </g>
</svg>