<?xml version="1.0" encoding="utf-8"?>
<!-- Generator: Adobe Illustrator 21.0.0, SVG Export Plug-In . SVG Version: 6.00 Build 0)  -->
<svg version="1.1" xmlns="http://www.w3.org/2000/svg" xmlns:xlink="http://www.w3.org/1999/xlink" x="0px" y="0px" width="64px"
	 height="64px" viewBox="0 0 64 64" enable-background="new 0 0 64 64" xml:space="preserve">
<g id="Layer_1">
</g>
<g id="Layer_2">
</g>
<g id="messages">
</g>
<g id="messages_x5F_hover">
</g>
<g id="profile">
</g>
<g id="profile_x5F_hover">
</g>
<g id="view_x5F_hover">
</g>
<g id="view_x5F_feedback">
</g>
<g id="no_x5F_feedback_x5F_to_x5F_view">
</g>
<g id="download_x5F_hover">
</g>
<g id="download">
</g>
<g id="no_x5F_feedback_x5F_download">
</g>
<g id="link_x5F_hover">
</g>
<g id="assignment_x5F_link_copy">
</g>
<g id="Layer_21">
</g>
<g id="home_x5F_hover">
</g>
<g id="home_1_">
</g>
<g id="edit_x5F_profile">
</g>
<g id="preferences">
</g>
<g id="notifications">
</g>
<g id="my_x5F_posts">
</g>
<g id="logout">
</g>
<g id="assignment">
</g>
<g id="coursework">
</g>
<g id="forum">
</g>
<g id="quiz">
</g>
<g id="book">
</g>
<g id="database">
</g>
<g id="wiki">
</g>
<g id="choice">
</g>
<g id="workshop">
</g>
<g id="certificate">
</g>
<g id="scheduler">
</g>
<g id="equella">
</g>
<g id="file">
</g>
<g id="folder">
</g>
<g id="ims_x5F_content_x5F_package">
</g>
<g id="label">
</g>
<g id="lightbox_x5F_gallery">
</g>
<g id="nln_x5F_learning_x5F_object">
	<g>
		<g>
			<path fill="#FFFFFF" d="M60.9244804,17.7905273l-11.7421875-4.340169c-1.1933594-0.441081-2.5045586-0.441081-3.6979179,0
				L32,18.4344082l-13.484375-4.9840498c-1.1933594-0.441081-2.5045567-0.441081-3.697917,0l-11.7421875,4.340169
				c-1.046875,0.3868809-1.7421874,1.3850918-1.7421874,2.5013027v17.748373c0,1.1162109,0.6953124,2.1142578,1.7421874,2.5013008
				L30.151041,50.5491524c1.1933594,0.441082,2.5045567,0.441082,3.697916,0l9.578125-3.5403633v0.000164l17.4973984-6.4674492
				c1.046875-0.387043,1.7421875-1.3850899,1.7421875-2.5013008v-17.748373
				C62.6666679,19.1756191,61.9713554,18.1774082,60.9244804,17.7905273z"/>
		</g>
		<g opacity="0.3">
			<path fill="#32548C" d="M62.6666679,39.8975868V18.4344292l-12.0955162,4.470768l-8.4077187,3.1076775l-8.4212914,3.1126938
				C32.6951752,29.5125504,32,30.5106449,32,31.6268425v19.6058159L62.6666679,39.8975868z"/>
		</g>
		<path fill="#32548C" d="M62.6270905,17.3324356c-0.3597031-0.3315849-0.7633095-0.616436-1.2390709-0.7920704
			l-11.7421875-4.3398447c-1.4947891-0.552083-3.1328125-0.552083-4.6223946,0l-7.5182304,2.7786465
			c-0.6927071,0.255208-1.0442696,1.0221357-0.7890625,1.7122393c0.2552109,0.6901035,1.0260429,1.0390625,1.7109375,0.7890625
			l7.5208359-2.7799482c0.890625-0.3307285,1.8776016-0.3307285,2.7734375,0l10.0996094,3.7338877l-11.7473984,4.341959
			c-0.3069649-0.2332363-0.6458321-0.4303379-1.0188789-0.5680332L18.979166,12.2005205
			c-1.494791-0.552083-3.130208-0.5507813-4.624999-0.0013018l-11.739584,4.3398438
			c-0.59375,0.2194004-1.3351122,0.7538376-1.8102212,1.3793945C0.2950549,18.5890408,0,19.4160156,0,20.291666v14.2721348
			c0,0.7369804,0.5963542,1.3333359,1.3333334,1.3333359s1.3333334-0.5963554,1.3333334-1.3333359V20.3491211l9.182291,3.3943691
			c0.1536465,0.057291,0.3098965,0.0833321,0.463542,0.0833321c0.541667,0,1.052083-0.3333321,1.25-0.8710938
			c0.255208-0.6901035-0.0963545-1.4570313-0.786458-1.7122383l-7.5996099-2.8092461L15.28125,14.7005205
			c0.890625-0.3307285,1.880209-0.3307285,2.770834,0l10.1015625,3.734376L17.947916,22.2070313
			c-0.6298828,0.232584-1.1438789,0.644043-1.5719395,1.1276035C16.3183594,23.3855801,16.2679043,23.4389648,16.2194004,23.5
			c-0.5465488,0.6925449-0.8860674,1.5426426-0.8860674,2.4596348v17.6907558L1.796875,38.6471367
			c-0.6901041-0.2552109-1.4609375,0.0976563-1.7135416,0.7877579C-0.171875,40.125,0.1796875,40.8919258,0.8697917,41.1471367
			l17.0572929,6.3037109c0.0068359,0.0024414,0.0117188,0.0076485,0.0182285,0.0100899L29.6875,51.7994804
			c0.7473965,0.2760391,1.5286465,0.4140625,2.3125,0.4140625c0.7838554,0,1.5651054-0.1380234,2.3125-0.4127617
			l11.7421875-4.3411446c1.5625-0.5794296,2.6119804-2.0859375,2.6119804-3.7513046V25.9596348
			c0-0.3030586-0.0709648-0.5908203-0.1370468-0.8787422l12.8037109-4.7325859v17.6920567
			c0,0.5559921-0.3489571,1.0585938-0.8697891,1.25l-9.1041679,3.3645859
			c-0.6927071,0.2565079-1.0442696,1.0221329-0.7890625,1.7135391c0.1979179,0.5377617,0.7083321,0.8710938,1.25,0.8710938
			c0.1536446,0,0.3098946-0.0260391,0.4609375-0.0820313l9.1041679-3.3645821C62.9505196,41.2148438,64,39.7070313,64,38.0403633
			V20.291666c0-0.6950283-0.2033882-1.3506355-0.5346642-1.9315834
			C63.3137245,18.0942039,63.0705872,17.7412624,62.6270905,17.3324356z M46,43.7083321
			c0,0.5546875-0.3515625,1.0572929-0.8697929,1.2513046l-11.7447891,4.3398438
			c-0.890625,0.3307266-1.8776054,0.3320313-2.7734394-0.0013046l-10.3964844-3.8421211
			c-0.001627-0.0006523-0.0026035-0.0022774-0.0045567-0.0029297l-1.3417969-0.4959297
			C18.3509121,44.7623711,18,44.2617188,18,43.7083321V26.0162754l12.666666,4.6816406v15.2018223
			c0,0.7369804,0.5963554,1.3333359,1.333334,1.3333359c0.7369804,0,1.3333321-0.5963554,1.3333321-1.3333359V29.7695313
			c0-0.5585938-0.3463516-1.057291-0.8697891-1.25l-11.9505215-4.4171543L32,19.8567715l11.4866524,4.2454414l-7.9137344,2.9251308
			c-0.6901054,0.255209-1.0416679,1.0221348-0.7864609,1.7122402c0.1979179,0.5377598,0.7083359,0.8710938,1.25,0.8710938
			c0.1536484,0,0.3098984-0.0260429,0.4635429-0.083334l9.5-3.5113926V43.7083321z"/>
	</g>
</g>
<g id="page">
</g>
<g id="subpage">
</g>
<g id="tab_x5F_display">
</g>
<g id="new_x5F_label">
</g>
<g id="url">
</g>
<g id="_x33_60_x5F_degree_x5F_diagnostics">
</g>
<g id="adobe_x5F_connect">
</g>
<g id="attendance_x5F_register">
</g>
<g id="booking">
</g>
<g id="chat">
</g>
<g id="checklist">
</g>
<g id="external_x5F_tool">
</g>
<g id="face_x5F_to_x5F_face">
</g>
<g id="forumNG">
</g>
<g id="glossary">
</g>
<g id="group_x5F_choice">
</g>
<g id="journal">
</g>
<g id="mediasite_x5F_content">
</g>
<g id="nanogong_x5F_voice">
</g>
<g id="questionnaire">
</g>
<g id="scorm_x5F_package">
</g>
<g id="survey">
</g>
<g id="tutorship">
</g>
<g id="advanced_x5F_forum">
</g>
<g id="subcourse">
</g>
<g id="lesson_1_">
</g>
<g id="adaptive_x5F_quiz">
</g>
<g id="ou_x5F_wiki">
</g>
<g id="support_x5F_tracker">
</g>
<g id="view_x5F_comments">
</g>
<g id="no_x5F_comment">
</g>
<g id="attention">
</g>
<g id="search">
</g>
<g id="submitted">
</g>
<g id="feedback">
</g>
<g id="T_x5F_I_x5F_N">
</g>
</svg>
