<?xml version="1.0" encoding="utf-8"?>
<!-- Generator: Adobe Illustrator 21.0.0, SVG Export Plug-In . SVG Version: 6.00 Build 0)  -->
<svg version="1.1" xmlns="http://www.w3.org/2000/svg" xmlns:xlink="http://www.w3.org/1999/xlink" x="0px" y="0px" width="16px"
	 height="16px" viewBox="0 0 16 16" enable-background="new 0 0 16 16" xml:space="preserve">
<g id="Layer_1">
</g>
<g id="Layer_2">
</g>
<g id="messages">
</g>
<g id="messages_x5F_hover">
</g>
<g id="profile">
</g>
<g id="profile_x5F_hover">
</g>
<g id="view_x5F_hover">
</g>
<g id="view_x5F_feedback">
</g>
<g id="no_x5F_feedback_x5F_to_x5F_view">
</g>
<g id="download_x5F_hover">
</g>
<g id="download">
</g>
<g id="no_x5F_feedback_x5F_download">
</g>
<g id="link_x5F_hover">
</g>
<g id="assignment_x5F_link_copy">
</g>
<g id="Layer_21">
</g>
<g id="home_x5F_hover">
</g>
<g id="home_1_">
</g>
<g id="edit_x5F_profile">
</g>
<g id="preferences">
</g>
<g id="notifications">
</g>
<g id="my_x5F_posts">
</g>
<g id="logout">
</g>
<g id="assignment">
</g>
<g id="coursework">
</g>
<g id="forum">
</g>
<g id="quiz">
</g>
<g id="book">
</g>
<g id="database">
</g>
<g id="wiki">
</g>
<g id="choice">
</g>
<g id="workshop">
</g>
<g id="certificate">
</g>
<g id="scheduler">
</g>
<g id="equella">
</g>
<g id="file">
</g>
<g id="folder">
</g>
<g id="ims_x5F_content_x5F_package">
</g>
<g id="label">
</g>
<g id="lightbox_x5F_gallery">
</g>
<g id="nln_x5F_learning_x5F_object">
</g>
<g id="page">
</g>
<g id="subpage">
</g>
<g id="tab_x5F_display">
</g>
<g id="new_x5F_label">
</g>
<g id="url">
</g>
<g id="_x33_60_x5F_degree_x5F_diagnostics">
</g>
<g id="adobe_x5F_connect">
</g>
<g id="attendance_x5F_register">
</g>
<g id="booking">
</g>
<g id="chat">
</g>
<g id="checklist">
</g>
<g id="external_x5F_tool">
</g>
<g id="face_x5F_to_x5F_face">
</g>
<g id="forumNG">
</g>
<g id="glossary">
</g>
<g id="group_x5F_choice">
</g>
<g id="journal">
</g>
<g id="mediasite_x5F_content">
</g>
<g id="nanogong_x5F_voice">
</g>
<g id="questionnaire">
</g>
<g id="scorm_x5F_package">
</g>
<g id="survey">
</g>
<g id="tutorship">
</g>
<g id="advanced_x5F_forum">
</g>
<g id="subcourse">
</g>
<g id="lesson_1_">
</g>
<g id="adaptive_x5F_quiz">
</g>
<g id="ou_x5F_wiki">
</g>
<g id="support_x5F_tracker">
</g>
<g id="view_x5F_comments">
</g>
<g id="no_x5F_comment">
</g>
<g id="attention">
</g>
<g id="search">
	<g>
		<g>
			<path fill="#FFFFFF" d="M12.5847101,0.9188592c-0.277709-0.2777099-0.6543779-0.4337158-1.0471592-0.4337158H4.7243395
				c-0.4089355,0-0.740438,0.3315023-0.740438,0.7404377v7.2463779H3.8112533c-0.4243977,0-0.5184324,0.0939941-0.5184324,0.5183916
				v2.1869307H1.3558908c-0.4243978,0-0.7683919,0.0940342-0.7683919,0.5184326v0.3452549
				c0,0.4243574,0.3439941,0.5184326,0.7683919,0.5184326h1.9369302v2.1869307c0,0.4243565,0.0940347,0.5184317,0.5184324,0.5184317
				h0.3452961c0.0977783,0,0.1896162,0.2276211,0.2756348,0.1943359c0.085083,0.0351563,0.1778975,0.0556641,0.2756758,0.0556641
				h10.0816841c0.3998213,0,0.723959-0.3241367,0.723959-0.723958V3.847692L12.5847101,0.9188592z"/>
		</g>
		<path opacity="0.3" fill="#545157" d="M15.0784416,3.4126232l-2.927475-2.9274747V3.107249
			c0,0.4089355,0.3314972,0.7404327,0.7404327,0.7404327h2.0068359C15.1252861,3.8476818,15.2389946,3.5731761,15.0784416,3.4126232
			z"/>
		<path fill="#545157" d="M4.921802,15.0797215v-2.2734318h2.2765832c0.4243927,0,0.7684021-0.3440247,0.7684021-0.7684021
			v-0.3452902c0-0.4243927-0.3440094-0.7684174-0.7684021-0.7684174H4.921802V8.6507492
			c0-0.4243927-0.3440094-0.7684178-0.7684021-0.7684178H3.8081546c-0.4243925,0-0.7684476,0.3440251-0.7684476,0.7684178V10.92418
			H0.7693824c-0.4243316,0-0.768402,0.3440247-0.768402,0.7684174v0.3452902c0,0.4243774,0.3440704,0.7684021,0.768402,0.7684021
			h2.2703245v2.2734318c0,0.4243917,0.3440552,0.7684231,0.7684476,0.7684231h0.3452454
			C4.5777926,15.8481445,4.921802,15.5041132,4.921802,15.0797215z"/>
		<g>
			<g>
				<path fill="#545157" d="M7.3509808,7.0400333c-0.2675781,0-0.4853516-0.2172852-0.4853516-0.4848633
					s0.2177734-0.4853516,0.4853516-0.4853516h4.7954712c0.2675781,0,0.4853516,0.2177734,0.4853516,0.4853516
					s-0.2177734,0.4848633-0.4853516,0.4848633H7.3509808z"/>
			</g>
			<g>
				<path fill="#545157" d="M7.3509808,9.9301815c-0.2675781,0-0.4853516-0.2177734-0.4853516-0.4853516
					s0.2177734-0.4853516,0.4853516-0.4853516h4.7954712c0.2675781,0,0.4853516,0.2177734,0.4853516,0.4853516
					s-0.2177734,0.4853516-0.4853516,0.4853516H7.3509808z"/>
			</g>
		</g>
		<g>
			<g>
				<path fill="#545157" d="M6.3740196,16c-0.2675781,0-0.4853516-0.2177734-0.4853516-0.4853516
					s0.2177734-0.4848633,0.4853516-0.4848633h8.4154701c0.1313477,0,0.2387695-0.1074219,0.2387695-0.2387695V5.5625
					c0-0.2675781,0.2177734-0.4853516,0.4853516-0.4853516S15.9989624,5.2949219,15.9989624,5.5625v9.2285156
					C15.9989624,15.4575195,15.4564819,16,14.7894897,16H6.3740196z"/>
			</g>
			<path fill="#545157" d="M3.9837644,7.0478516c-0.2675781,0-0.4853516-0.2177734-0.4853516-0.4853516V1.2255859
				C3.4984128,0.5498047,4.0482178,0,4.723999,0h6.8135376c0.5175781,0,1.0244141,0.2094727,1.3901367,0.5756836
				l2.9291992,2.9291992c0.1386719,0.1391602,0.1801758,0.3466797,0.1054688,0.5283203
				c-0.0756836,0.1826172-0.2519531,0.2998047-0.4487305,0.2998047h-2.6220703
				c-0.6757813,0-1.2255859-0.5498047-1.2255859-1.2255859V2.5131893c0-0.2675781,0.2172852-0.4848633,0.4848633-0.4848633
				s0.4853516,0.2172852,0.4853516,0.4848633v0.5942326c0,0.140625,0.1142578,0.2553711,0.2548828,0.2553711h1.4511719
				l-2.1005859-2.1010742c-0.1884766-0.1879883-0.4384766-0.2915039-0.7036133-0.2915039H4.7244873
				c-0.140625,0-0.2553711,0.1147461-0.2553711,0.2553711V6.5625C4.4691162,6.8300781,4.2513428,7.0478516,3.9837644,7.0478516z"/>
		</g>
	</g>
</g>
<g id="submitted">
</g>
<g id="feedback">
</g>
<g id="dnd_x5F_arrow">
</g>
</svg>
