<?xml version="1.0" encoding="utf-8"?>
<!-- Generator: Adobe Illustrator 21.0.0, SVG Export Plug-In . SVG Version: 6.00 Build 0)  -->
<svg version="1.1" xmlns="http://www.w3.org/2000/svg" xmlns:xlink="http://www.w3.org/1999/xlink" x="0px" y="0px" width="64px"
	 height="64px" viewBox="0 0 64 64" enable-background="new 0 0 64 64" xml:space="preserve">
<g id="Layer_1">
</g>
<g id="Layer_2">
	<g>
		<g>
			<g>
				<path fill="#FFFFFF" d="M57.42313,60.2084503l-8.8630905-8.4129906c-0.5170212-0.4908638-1.2028732-0.764492-1.9157333-0.764492
					l-9.0714951-0.0000038c6.406559-8.7613487,12.9547729-20.7929821,12.9547768-28.7331104
					c0-7.5015755-4.0898056-14.1714001-10.4503288-18.463501C35.241642,0.5713712,28.7574635,0.5713692,23.9220161,3.834348
					c-6.3606987,4.2920971-10.4505091,10.9619188-10.450511,18.4634953
					c-0.0000029,7.9401264,6.5480337,19.9717636,12.9545889,28.7331161h-0.0766029l-8.9947243-0.0000038
					c-0.7128582,0-1.3987112,0.2736282-1.9157333,0.764492l-8.8630934,8.4129868
					c-0.9119225,0.8655548-0.2992754,2.4006538,0.9577813,2.4006538l48.9316254,0.0000153
					C57.7224045,62.6091042,58.3350525,61.0740051,57.42313,60.2084503z"/>
			</g>
		</g>
		<path fill="#545157" d="M58.3811035,59.1993599l-8.8621216-8.4122925
			c-0.7799072-0.7405396-1.8017578-1.1481934-2.8751831-1.1481934h-2.0327759c-0.769043,0-1.3914185,0.6223145-1.3914185,1.3914185
			c0,0.769043,0.6223755,1.3914185,1.3914185,1.3914185h2.0327759c0.3587036,0,0.6984253,0.1358643,0.9592896,0.3831787
			l8.8620605,8.4122925L7.5349121,61.2185249l8.859375-8.4122925c0.2608643-0.2473145,0.6032715-0.3845215,0.9592896-0.3845215
			H25.71698c1.1186523,1.5064697,2.2089233,2.8867188,3.2244263,4.0913086
			c0.7636108,0.9076538,1.8778687,1.4267578,3.0599976,1.4267578c1.1766968,0,2.2936401-0.519104,3.0599976-1.4267578
			c6.7749634-8.0413208,16.8572388-23.7884521,16.8572388-34.2144775c0-7.7220469-4.0328979-14.8720093-11.0632935-19.6183472
			c-5.2993164-3.5736084-12.416687-3.5736084-17.7105713,0c-7.0331421,4.7449341-11.06604,11.8948975-11.06604,19.6183472
			c0,7.9442139,5.8565674,18.9785748,11.6444092,27.3403301h-6.3695679c-1.0707397,0-2.0898438,0.40625-2.8751831,1.1467896
			L5.616272,59.2007027c-0.8288574,0.7894897-1.0897217,1.9852295-0.6657715,3.0491333
			c0.4239502,1.0626221,1.437561,1.7501221,2.5844116,1.7501221l48.9302368,0.0000648
			c1.1468506,0,2.1605225-0.6875648,2.5844727-1.7501259C59.4735718,61.1859322,59.2126465,59.9901924,58.3811035,59.1993599z
			 M24.6992188,4.9874473c2.182251-1.4729006,4.7422485-2.2094119,7.2994995-2.2094119
			c2.5599365,0,5.1171875,0.7365112,7.3021851,2.2094119c6.2504272,4.2190547,9.8349609,10.5293579,9.8349609,17.3110962
			c0,8.5699463-8.3484497,23.1008892-16.2023315,32.4208984c-0.4782715,0.5665894-1.3914185,0.5639038-1.8642578,0
			c-7.8565674-9.3213501-16.2077026-23.852354-16.2077026-32.4208984
			C14.8615723,15.5154009,18.4487915,9.206502,24.6992188,4.9874473z"/>
		<g opacity="0.3">
			<g>
				<path fill="#545157" d="M40.0772095,3.8343747c-4.8355598-3.2630296-11.3196945-3.2630315-16.1552544-0.000005
					C17.5612431,8.1265116,13.471488,14.7962685,13.4714861,22.297821
					c-0.0000029,9.4431839,9.2624292,24.6921654,16.5325356,33.3187675c1.0480289,1.2434006,2.9430618,1.2434006,3.9908981,0
					c7.2701073-8.6265984,16.5327454-23.8755722,16.5327492-33.3187561
					C50.527668,14.7962799,46.4377251,8.1265211,40.0772095,3.8343747z M31.9994755,33.157753
					c-6.1364803-0.0000038-11.1110611-4.9745865-11.1110592-11.1112614
					c0.0000019-6.1364822,4.9745846-11.1112576,11.1110668-11.1112556
					c6.1366749,0.0000019,11.1112576,4.9747801,11.1112537,11.1112614
					C43.1107368,28.1831741,38.1361504,33.157753,31.9994755,33.157753z"/>
			</g>
		</g>
		<g>
			<path fill="#545157" d="M32.0122795,34.5113907c-5.1579895,0-9.9980221-3.2176323-11.8079376-8.3538837
				c-1.100626-3.1320267-0.9076748-6.5222244,0.5408039-9.5455456c1.4511948-3.0246811,3.9758396-5.2965889,7.1065083-6.397213
				c5.5683479-1.952589,11.8215294,0.2921448,14.8679504,5.3577394c0.3967667,0.6576586,0.1820793,1.5123415-0.4755783,1.9091101
				s-1.5137024,0.1847954-1.9104691-0.4769382c-2.3615875-3.9364347-7.223362-5.6933603-11.5579224-4.1647158
				c-2.4322472,0.854682-4.3916321,2.6211176-5.519434,4.9745531c-1.1305199,2.3547935-1.2799873,4.9895-0.4266644,7.4190292
				c1.7800217,5.0560818,7.3456516,7.723402,12.3949394,5.9447384c3.7339745-1.3125954,6.3401489-4.8522606,6.4869003-8.8063583
				c0.029892-0.7663612,0.6848335-1.3995609,1.4430428-1.3384151c0.7690773,0.0285358,1.3669472,0.6739635,1.3397713,1.4416847
				c-0.1902313,5.0873337-3.5437431,9.6393032-8.3457336,11.3282833
				C34.7815094,34.2844734,33.3846664,34.5113907,32.0122795,34.5113907z"/>
		</g>
	</g>
</g>
<g id="messages">
</g>
<g id="messages_x5F_hover">
</g>
<g id="profile">
</g>
<g id="profile_x5F_hover">
</g>
<g id="view_x5F_hover">
</g>
<g id="view_x5F_feedback">
</g>
<g id="no_x5F_feedback_x5F_to_x5F_view">
</g>
<g id="download_x5F_hover">
</g>
<g id="download">
</g>
<g id="no_x5F_feedback_x5F_download">
</g>
<g id="link_x5F_hover">
</g>
<g id="assignment_x5F_link_copy">
</g>
<g id="Layer_21">
</g>
<g id="home_x5F_hover">
</g>
<g id="home_1_">
</g>
<g id="edit_x5F_profile">
</g>
<g id="preferences">
</g>
<g id="notifications">
</g>
<g id="my_x5F_posts">
</g>
<g id="logout">
</g>
<g id="assignment">
</g>
<g id="coursework">
</g>
<g id="forum">
</g>
<g id="quiz">
</g>
<g id="book">
</g>
<g id="database">
</g>
<g id="wiki">
</g>
<g id="choice">
</g>
<g id="workshop">
</g>
<g id="certificate">
</g>
<g id="scheduler">
</g>
<g id="equella">
</g>
<g id="file">
</g>
<g id="folder">
</g>
<g id="ims_x5F_content_x5F_package">
</g>
<g id="label">
</g>
<g id="lightbox_x5F_gallery">
</g>
<g id="nln_x5F_learning_x5F_object">
</g>
<g id="page">
</g>
<g id="subpage">
</g>
<g id="tab_x5F_display">
</g>
<g id="new_x5F_label">
</g>
<g id="url">
</g>
<g id="_x33_60_x5F_degree_x5F_diagnostics">
</g>
<g id="adobe_x5F_connect">
</g>
<g id="attendance_x5F_register">
</g>
<g id="booking">
</g>
<g id="chat">
</g>
<g id="checklist">
</g>
<g id="external_x5F_tool">
</g>
<g id="face_x5F_to_x5F_face">
</g>
<g id="forumNG">
</g>
<g id="glossary">
</g>
<g id="group_x5F_choice">
</g>
<g id="journal">
</g>
<g id="mediasite_x5F_content">
</g>
<g id="nanogong_x5F_voice">
</g>
<g id="questionnaire">
</g>
<g id="scorm_x5F_package">
</g>
<g id="survey">
</g>
<g id="tutorship">
</g>
<g id="advanced_x5F_forum">
</g>
<g id="subcourse">
</g>
<g id="lesson_1_">
</g>
<g id="adaptive_x5F_quiz">
</g>
<g id="ou_x5F_wiki">
</g>
<g id="support_x5F_tracker">
</g>
<g id="view_x5F_comments">
</g>
<g id="no_x5F_comment">
</g>
<g id="attention">
</g>
<g id="search">
</g>
<g id="submitted">
</g>
<g id="feedback">
</g>
<g id="dnd_x5F_arrow">
</g>
</svg>
