<?xml version="1.0" encoding="utf-8"?>
<!-- Generator: Adobe Illustrator 21.0.0, SVG Export Plug-In . SVG Version: 6.00 Build 0)  -->
<svg version="1.1" xmlns="http://www.w3.org/2000/svg" xmlns:xlink="http://www.w3.org/1999/xlink" x="0px" y="0px" width="64px"
	 height="64px" viewBox="0 0 64 64" enable-background="new 0 0 64 64" xml:space="preserve">
<g id="Layer_1">
</g>
<g id="Layer_2">
</g>
<g id="messages">
</g>
<g id="messages_x5F_hover">
</g>
<g id="profile">
</g>
<g id="profile_x5F_hover">
</g>
<g id="view_x5F_hover">
</g>
<g id="view_x5F_feedback">
</g>
<g id="no_x5F_feedback_x5F_to_x5F_view">
</g>
<g id="download_x5F_hover">
</g>
<g id="download">
</g>
<g id="no_x5F_feedback_x5F_download">
</g>
<g id="link_x5F_hover">
</g>
<g id="assignment_x5F_link_copy">
</g>
<g id="Layer_21">
</g>
<g id="home_x5F_hover">
</g>
<g id="home_1_">
</g>
<g id="edit_x5F_profile">
</g>
<g id="preferences">
</g>
<g id="notifications">
</g>
<g id="my_x5F_posts">
</g>
<g id="logout">
</g>
<g id="assignment">
</g>
<g id="coursework">
</g>
<g id="forum">
</g>
<g id="quiz">
</g>
<g id="book">
</g>
<g id="database">
</g>
<g id="wiki">
</g>
<g id="choice">
</g>
<g id="workshop">
</g>
<g id="certificate">
</g>
<g id="scheduler">
</g>
<g id="equella">
</g>
<g id="file">
</g>
<g id="folder">
</g>
<g id="ims_x5F_content_x5F_package">
</g>
<g id="label">
</g>
<g id="lightbox_x5F_gallery">
</g>
<g id="nln_x5F_learning_x5F_object">
</g>
<g id="page">
</g>
<g id="subpage">
</g>
<g id="tab_x5F_display">
</g>
<g id="new_x5F_label">
</g>
<g id="url">
</g>
<g id="_x33_60_x5F_degree_x5F_diagnostics">
</g>
<g id="adobe_x5F_connect">
</g>
<g id="attendance_x5F_register">
</g>
<g id="booking">
</g>
<g id="chat">
</g>
<g id="checklist">
</g>
<g id="external_x5F_tool">
</g>
<g id="face_x5F_to_x5F_face">
</g>
<g id="forumNG">
</g>
<g id="glossary">
</g>
<g id="group_x5F_choice">
	<g>
		<g>
			<path fill="#FFFFFF" d="M53.4660645,31.5509262c-0.1384697-0.0190372-0.8145447-0.0403538-1.5452957-0.0587406
				c-1.1520157-0.0291252-2.0716743-0.9697742-2.0716743-2.1221161v-2.7959156
				c1.7776527-1.1664982,3.2908936-3.1955414,4.3327522-5.5667744c0.2095757,0.1571827,0.4433937,0.2701054,0.6972275,0.3296585
				c1.3324661,0.3124123,2.7137451-0.9689617,3.0850601-2.8623028c0.3713112-1.8933411-0.4079247-3.6815681-1.740715-3.9939795
				c-0.17313-0.040678-0.5193825-0.0434446-0.5193825-0.0434446c0.0631294-1.0909977-0.2940254-3.2572107-0.2940254-3.2572107
				c-1.0307961-4.4923725-4.5870743-6.8611636-8.8160133-6.8611636c-5.035347,0-9.1173553,3.3585811-9.1173553,9.6622868
				c0,0.1514864,0.0024414,0.3036242,0.0074844,0.4560871c-0.1724777-0.0109015-0.3464203,0.0027666-0.5192223,0.0434446
				c-1.3327904,0.3124113-2.1120262,2.1006384-1.7408752,3.9939795c0.3713112,1.8933411,1.752594,3.174715,3.0850563,2.8623028
				c0.2539978-0.0595531,0.4876556-0.1724758,0.6970673-0.3296585l0.0014648,0.0027657
				c1.0953903,2.491642,2.7147217,4.5909786,4.6113167,5.7215157l0.000164,2.5920353
				c0,1.1487617-0.9186859,2.0928288-2.0671196,2.1200008c-0.8239861,0.0195255-1.267704,0.0468616-1.5496902,0.0815201
				c-3.3968163,0.4165478-6.3118401,1.9112415-7.9825897,4.0056973c-1.6194916-2.0529671-4.4419308-3.5302467-7.7427483-3.9799881
				c-0.1384697-0.0190372-0.8143845-0.0403538-1.5452957-0.0587406c-1.1520157-0.0291252-2.0716743-0.9697742-2.0716743-2.1221161
				v-2.7959156c1.777813-1.1664982,3.2908916-3.1955414,4.3329124-5.5667744
				c0.2095757,0.1571827,0.4433956,0.2701054,0.6970673,0.3296585c1.3326283,0.3124123,2.7139072-0.9689617,3.0852203-2.8623028
				c0.371315-1.8933411-0.4080868-3.6815681-1.740715-3.9939795c-0.1731262-0.040678-0.5193825-0.0434446-0.5193825-0.0434446
				c0.0629711-1.0909977-0.2940235-3.2572107-0.2940235-3.2572107c-1.0309582-4.4923725-4.5872364-6.8611636-8.8160114-6.8611636
				c-5.0355129,0-9.1173582,3.3585811-9.1173582,9.6622868c0,0.1514864,0.0024405,0.3036242,0.0074854,0.4560871
				c-0.1724777-0.0109015-0.3464189,0.0027666-0.5193839,0.0434446c-1.3326283,0.3124113-2.1120286,2.1006384-1.740715,3.9939795
				s1.7524304,3.174715,3.0850587,2.8623028c0.2538338-0.0595531,0.4874916-0.1724758,0.6970673-0.3296585l0.0014648,0.0027657
				c1.0952282,2.491642,2.7147207,4.5909786,4.6113167,5.7215157v2.5920353c0,1.1487617-0.9185209,2.0928288-2.0669575,2.1200008
				c-0.8239841,0.0195255-1.267868,0.0468616-1.5498514,0.0815201c-5.3100109,0.6511822-9.4803724,3.9201069-9.4803724,8.0323811
				c0,1.1621017,0.5265428,2.2967072,1.5282106,3.0922165c3.8034415,3.0212746,8.9131517,4.87817,14.544035,4.87817
				c1.2118931,0,2.393198-0.1023483,3.5489559-0.2673416c-0.0475121,0.4178505-0.1267548,0.8262634-0.1267548,1.2568054
				c0,6.1653976,4.9979267,11.1634865,11.1634884,11.1634865c6.1653976,0,11.1634865-4.9980888,11.1634865-11.1634865
				c0-0.4311943-0.0792427-0.8404198-0.1269188-1.2589188c1.161293,0.1667824,2.3486176,0.269455,3.5666924,0.269455
				c5.6312103,0,10.740921-1.8568954,14.5441971-4.87817c1.0016708-0.7955093,1.5282135-1.9301147,1.5282135-3.0922165v-0.0657387
				C62.6664085,35.4653397,58.6356544,32.2553139,53.4660645,31.5509262z"/>
		</g>
		<g opacity="0.3">
			<g>
				<circle fill="#32548C" cx="31.9906712" cy="48.5174217" r="11.1634874"/>
			</g>
		</g>
		<g>
			<path fill="#32548C" d="M34.4927979,34.6522522c0.234314,0,0.4711914-0.0625,0.6873169-0.1900635
				c0.9450073-0.5701294,2.0254517-1.0075073,3.210022-1.3016968c0.0494385-0.0130005,0.0963135-0.0286255,0.1431885-0.0442505
				c0.4868164-0.114563,0.9866943-0.2056885,1.4995728-0.2681885c0.2577515-0.03125,0.6638794-0.0546875,1.4188232-0.0702515
				c1.8901367-0.046875,3.37146-1.5646973,3.37146-3.4547729v-0.6299438
				c0.5822144,0.1600342,1.1717529,0.2680664,1.7703247,0.2680664c3.1762085,0,6.2039795-2.3222656,8.2606812-6.274231
				c0.7758179,0.1105957,1.5594482-0.0755005,2.2649536-0.5324097c1.0778198-0.6951294,1.8640747-1.9434814,2.1556396-3.4248047
				c0.4686279-2.4055786-0.4998169-4.6484375-2.2441406-5.3825684C56.7677002,7.1210022,52.6412964,2.9855042,46.5935059,2.9855042
				c-4.6965942,0-8.4689331,2.6502686-9.8461304,6.9185791c-0.2265015,0.7003174,0.1588135,1.451416,0.8591309,1.6779175
				c0.6950684,0.2251587,1.4500732-0.1588135,1.6765747-0.8604736c1.0257568-3.1748657,3.7567749-5.0701294,7.3104248-5.0701294
				c4.7278442,0,7.7842407,3.2698975,7.7842407,8.3296509l-0.0078125,0.4113159
				c-0.0130005,0.3775024,0.197876,0.7471924,0.4686279,1.0088501c0.2733765,0.2642212,0.7341919,0.3917847,1.0804443,0.3775024
				c0.4738159,0.1106567,0.9970703,1.1168823,0.7393188,2.4381104c-0.177002,0.8981934-0.6248169,1.4656982-0.9840698,1.6974487
				c-0.182251,0.1171265-0.3462524,0.1600952-0.7107544,0.0181885c-0.3253784-0.2382202-0.7445679-0.3123779-1.1298828-0.2095947
				c-0.3905029,0.1054688-0.7106934,0.3814087-0.8747559,0.7510986c-1.5776367,3.5901489-4.0170898,5.8212891-6.3653564,5.8212891
				s-4.7877197-2.2311401-6.3653564-5.8238525c-0.1640015-0.3710327-0.5910034-0.5961914-0.9841309-0.7003174
				c-0.3826904-0.104187-0.9111938,0.026001-1.2391968,0.2681274c-0.1380005,0.0338745-0.312439-0.0078125-0.4920654-0.1262817
				c-0.3592529-0.2316895-0.8044434-0.7992554-0.9815063-1.696106c-0.2603149-1.321228,0.2629395-2.3274536,0.7315674-2.4368286
				c0.0494995-0.0117188,0.1015625-0.015625,0.130188-0.0117188c0.7263794,0.0338745,1.3693848-0.5050659,1.4214478-1.2391968
				c0.0494995-0.7354736-0.5050659-1.3707275-1.2391968-1.4215088c-0.3098145-0.0181885-0.6118164,0.005249-0.9164429,0.0755005
				c-2.0540771,0.4829712-3.2594604,2.9197388-2.7439575,5.5466309c0.2889404,1.4787598,1.0725708,2.725769,2.1503906,3.4221802
				c0.7055664,0.4569092,1.5073853,0.6404419,2.2675781,0.5350342c1.055603,2.0283813,2.3687744,3.6185303,3.8244629,4.6946411
				v1.9414673c0,0.4321899-0.3384399,0.7784424-0.7680054,0.7888184c-0.8903809,0.020874-1.3694458,0.0546875-1.6766357,0.0911255
				c-0.6768799,0.0807495-1.3381348,0.203064-1.9760132,0.3618774c-0.052063,0.0130615-0.1066895,0.03125-0.156189,0.0494995
				c-1.3771973,0.3592529-2.6450806,0.8851318-3.7749634,1.5620117c-0.6300049,0.380127-0.8356934,1.1975708-0.4555664,1.8302002
				C33.5997925,34.4205627,34.0424194,34.6522522,34.4927979,34.6522522z"/>
			<path fill="#32548C" d="M6.8782349,22.1545105c0.7081299,0.4530029,1.5073853,0.6430054,2.2650146,0.5324097
				c2.0540771,3.9533081,5.0818481,6.274231,8.2606812,6.274231c0.5993652,0,1.1897583-0.1082153,1.7728882-0.2686157v0.6304932
				c0,1.8900757,1.4813843,3.4078979,3.3740845,3.4547729c0.7523804,0.015564,1.1585083,0.0390015,1.4136353,0.0702515
				c0.5128784,0.0625,1.0153198,0.1536255,1.5021973,0.2681885c0.046814,0.015625,0.093689,0.03125,0.1431885,0.0442505
				c1.1793213,0.2941895,2.2597656,0.7315674,3.2125854,1.3016968c0.213501,0.130188,0.4504395,0.1900635,0.6846924,0.1900635
				c0.4530029,0,0.8930054-0.2316895,1.1429443-0.6482544c0.3800659-0.6300659,0.1744385-1.4501343-0.4581909-1.8276367
				c-1.1325073-0.6794434-2.4003906-1.2027588-3.7697754-1.5594482c-0.052063-0.020813-0.104126-0.0390015-0.1588135-0.052063
				c-0.6378174-0.1588135-1.2991333-0.2811279-1.9785767-0.3618774c-0.3046265-0.036438-0.7836304-0.0702515-1.6714478-0.0911255
				c-0.4321289-0.010376-0.7705688-0.3566284-0.7705688-0.7888184v-1.9418335
				c1.4558716-1.0759277,2.769104-2.6658325,3.8244019-4.6942749c0.7628174,0.1105957,1.5594482-0.0794067,2.2650146-0.5324097
				c1.0751953-0.6951294,1.8613892-1.9434814,2.1530151-3.4248047c0.5128784-2.6294556-0.6951294-5.0650024-2.7466431-5.5466309
				c-0.2993774-0.0715942-0.6118164-0.0975952-0.9137573-0.0755005c-0.7341919,0.0507813-1.2262573,0.6925049-1.1767578,1.4266968
				c0.0494385,0.7354736,0.7289429,1.3095093,1.4813232,1.2444458c0.4738159,0.1106567,0.9971313,1.1168823,0.7393799,2.4381104
				c-0.177063,0.8981934-0.6248169,1.4656982-0.9840698,1.6974487c-0.1796875,0.1171265-0.343689,0.1600952-0.6925659,0.0272827
				c-0.3228149-0.2446899-0.7367554-0.3280029-1.1376953-0.2225342c-0.3930664,0.1027832-0.7185059,0.3800659-0.8825073,0.7523804
				c-1.5776978,3.5927124-4.0170898,5.8238525-6.367981,5.8238525c-2.3483276,0-4.7877197-2.2311401-6.3654175-5.8238525
				c-0.1640015-0.3710327-0.5909424-0.5961914-0.9840698-0.7003174c-0.3826904-0.104187-0.9111938,0.026001-1.2392578,0.2681274
				c-0.1379395,0.0338745-0.3097534-0.0078125-0.4894409-0.124939c-0.3592529-0.2317505-0.8070679-0.7992554-0.9840698-1.6974487
				c-0.260376-1.321228,0.265564-2.3274536,0.8617554-2.4485474c0.3748779,0.0078125,0.7445679-0.1106567,1.0178833-0.3722534
				c0.270813-0.2616577,0.4191895-0.6261597,0.406189-1.0036621l-0.0078125-0.4113159
				c0-5.0597534,3.0563965-8.3296509,7.7842407-8.3296509c3.5536499,0,6.284668,1.8952637,7.3104248,5.0701294
				c0.2264404,0.7016602,0.9814453,1.0856323,1.6765747,0.8604736c0.7003174-0.2265015,1.0856323-0.9776001,0.8591309-1.6779175
				c-1.3980103-4.3320923-5.0766602-6.9185791-9.8461304-6.9185791c-6.0477905,0-10.1741943,4.1368408-10.4371338,10.3616333
				c-1.7443237,0.7341309-2.7127686,2.9782715-2.2389526,5.3838501C5.0167847,20.2110291,5.8030396,21.4593811,6.8782349,22.1545105
				z"/>
			<path fill="#32548C" d="M53.3441772,30.2029724c-0.3045654-0.036438-0.7836304-0.0702515-1.6740112-0.0911255
				c-0.6534424-0.0181885-1.3459473,0.5675659-1.3615723,1.3043213c-0.015625,0.7341919,0.5675659,1.3460083,1.3043213,1.3616333
				c0.7498169,0.015564,1.1559448,0.0390015,1.4110718,0.0702515c4.8137207,0.5910034,8.3101196,3.4130859,8.3101196,6.7090454
				c0,0.7836304-0.3748779,1.5308228-1.0231323,2.0488892c-4.2998657,3.4141235-10.2896729,5.0415039-16.0668335,4.4692383
				c-1.1392822-5.7249756-6.1981812-10.0535889-12.2532349-10.0535889s-11.1138306,4.3284302-12.2532349,10.0533447
				c-5.814209,0.5611572-11.7545166-1.0610962-16.0460205-4.4689941c-0.6612549-0.5258789-1.0257568-1.2522583-1.0257568-2.0488892
				c0-3.2959595,3.4938354-6.118042,8.3049316-6.7090454c0.260376-0.03125,0.6665039-0.0546875,1.4162598-0.0702515
				c0.7368164-0.015625,1.3199463-0.6274414,1.3043213-1.3616333c-0.015625-0.7263184-0.6091919-1.3043213-1.3329468-1.3043213
				c-0.010376,0-0.020813,0-0.0286255,0c-0.8903809,0.020874-1.3693848,0.0546875-1.6791992,0.0911255
				C4.4779053,30.9579773,0,34.8943787,0,39.5570984c0,1.6036987,0.7393799,3.111084,2.0332642,4.1368408
				c4.1967163,3.3323975,9.6561279,5.1677856,15.3706665,5.1677856c0.701416,0,1.4036865-0.0365601,2.1032104-0.0924683
				c0.1355591,6.7745972,5.6772461,12.2452393,12.4837646,12.2452393c6.8067627,0,12.3486328-5.4711304,12.4837646-12.2460938
				c0.7036743,0.0564575,1.4110107,0.0933228,2.1188354,0.0933228c5.7171021,0,11.1765137-1.8353882,15.3758545-5.1704102
				C63.2606201,42.6629944,64,41.1556091,64,39.5570984C64,34.8943787,59.5195313,30.9579773,53.3441772,30.2029724z
				 M31.9909058,58.3486023c-5.4203491,0-9.8305664-4.4102173-9.8305664-9.8305054
				c0-5.4203491,4.4102173-9.8305664,9.8305664-9.8305664s9.8305054,4.4102173,9.8305054,9.8305664
				C41.8214111,53.938385,37.4112549,58.3486023,31.9909058,58.3486023z"/>
			<path fill="#32548C" d="M37.1560669,47.1851501h-3.8322144v-3.8322754c0-0.7367554-0.5961914-1.3329468-1.3329468-1.3329468
				s-1.3329468,0.5961914-1.3329468,1.3329468v3.8322754h-3.8322754c-0.7367554,0-1.3329468,0.5961914-1.3329468,1.3329468
				s0.5961914,1.3329468,1.3329468,1.3329468h3.8322754v3.8322144c0,0.7368164,0.5961914,1.3329468,1.3329468,1.3329468
				s1.3329468-0.5961304,1.3329468-1.3329468v-3.8322144h3.8322144c0.7368164,0,1.3330078-0.5961914,1.3330078-1.3329468
				S37.8928833,47.1851501,37.1560669,47.1851501z"/>
		</g>
	</g>
</g>
<g id="journal">
</g>
<g id="mediasite_x5F_content">
</g>
<g id="nanogong_x5F_voice">
</g>
<g id="questionnaire">
</g>
<g id="scorm_x5F_package">
</g>
<g id="survey">
</g>
<g id="tutorship">
</g>
<g id="advanced_x5F_forum">
</g>
<g id="subcourse">
</g>
<g id="lesson_1_">
</g>
<g id="adaptive_x5F_quiz">
</g>
<g id="ou_x5F_wiki">
</g>
<g id="support_x5F_tracker">
</g>
<g id="view_x5F_comments">
</g>
<g id="no_x5F_comment">
</g>
<g id="attention">
</g>
<g id="search">
</g>
<g id="submitted">
</g>
<g id="feedback">
</g>
<g id="dnd_x5F_arrow">
</g>
</svg>
