<?xml version="1.0" encoding="utf-8"?>
<!-- Generator: Adobe Illustrator 21.0.0, SVG Export Plug-In . SVG Version: 6.00 Build 0)  -->
<svg version="1.1" xmlns="http://www.w3.org/2000/svg" xmlns:xlink="http://www.w3.org/1999/xlink" x="0px" y="0px" width="64px"
	 height="64px" viewBox="0 0 64 64" enable-background="new 0 0 64 64" xml:space="preserve">
<g id="Layer_1">
</g>
<g id="Layer_2">
</g>
<g id="messages">
</g>
<g id="messages_x5F_hover">
</g>
<g id="profile">
</g>
<g id="profile_x5F_hover">
</g>
<g id="view_x5F_hover">
</g>
<g id="view_x5F_feedback">
</g>
<g id="no_x5F_feedback_x5F_to_x5F_view">
</g>
<g id="download_x5F_hover">
</g>
<g id="download">
</g>
<g id="no_x5F_feedback_x5F_download">
</g>
<g id="link_x5F_hover">
</g>
<g id="assignment_x5F_link_copy">
</g>
<g id="Layer_21">
</g>
<g id="home_x5F_hover">
</g>
<g id="home_1_">
</g>
<g id="edit_x5F_profile">
</g>
<g id="preferences">
</g>
<g id="notifications">
</g>
<g id="my_x5F_posts">
</g>
<g id="logout">
</g>
<g id="assignment">
</g>
<g id="coursework">
</g>
<g id="forum">
</g>
<g id="quiz">
</g>
<g id="book">
</g>
<g id="database">
</g>
<g id="wiki">
</g>
<g id="choice">
</g>
<g id="workshop">
</g>
<g id="certificate">
	<g>
		<path fill="#FFFFFF" d="M43.683918,3.0686848c0,0-0.0006485-0.0004883-0.0008125-0.0006509l-1.734211-1.1837566
			c-0.7651367-0.3494467-1.5961914-0.5504557-2.4536133-0.5504557H16.3566074c-1.6357412,0-2.961751,1.3260092-2.961751,2.961751
			v20.6595058l0.0834961,0.2252598c-0.1774082,0.1082363-0.3580723,0.2107754-0.5118809,0.364584
			c-0.8691406,0.8691406-1.0076504,2.1803379-0.4388027,3.2039394c-1.1632481-0.1337891-2.3219395,0.4960938-2.7921543,1.6316719
			c-0.4703779,1.1355801-0.0966797,2.4002285,0.8206377,3.1280918c-1.1259766,0.3214531-1.9552412,1.3465195-1.9552412,2.5756836
			c0,1.2291679,0.8292646,2.2545586,1.9552412,2.5760117C9.638835,39.3881836,9.2651367,40.652668,9.7355146,41.78825
			c0.4702148,1.1357422,1.6289063,1.765461,2.7921543,1.6316719c-0.5688477,1.0236015-0.4303379,2.3347969,0.4388027,3.2039375
			c0.8693027,0.8693047,2.180501,1.0078125,3.2039385,0.4388046c-0.0489902,0.4257813,0.0356445,0.8388672,0.1785488,1.2298164
			L16.310873,48.309082l-5.0112314,12.7936211l8.8717451,1.5642891l1.4930019-5.1674805l-0.0117188-0.0201836l1.7050781-5.9711914
			h0.2962227l3.1866875,11.1588554l8.8717442-1.5642891l-0.4318047-1.1023788h17.2226563
			c1.5992851,0,2.8958359-1.2963867,2.8958359-2.8958321V14.7838545L43.683918,3.0686848z"/>
		<g>
			<g opacity="0.3">
				<g>
					<path fill="#32548C" d="M41.9489326,1.3337402L53.6588593,13.043664
						c0.6421928,0.6421947,0.1873665,1.7402458-0.7208328,1.7402458h-8.0273209
						c-1.6357422,0-2.9617729-1.3260298-2.9617729-2.9617701V1.3337402z"/>
				</g>
			</g>
			<g>
				<g opacity="0.3">
					<g>
						<path fill="#32548C" d="M26.8406467,62.6670723l8.8716526-1.5643539l-5.0113544-12.7936058l-1.851265,0.6747818
							c-0.7145233,0.2928543-1.5469608,0.0717812-2.0294018-0.5359497
							c-0.2192001-0.2779922-0.5819664-0.4142914-0.9227142-0.3387642c-0.3461418,0.0681496-0.6261158,0.325882-0.7219009,0.6666298
							c-0.1215458,0.421669-0.392271,0.7808037-0.7624149,1.012886c-0.2554226,0.1578751-0.647892,0.2998734-0.9390965,0.3011932
							l-0.8144035,0.7572708c-0.8352985-0.2803078-1.485857-0.9591599-1.7297192-1.8129539
							c-0.7279549,0.9172096-1.9922981,1.2910957-3.1280499,0.8206558
							c-0.7199192-0.2982483-1.2054424-0.8850632-1.4530487-1.5623741l-0.0379829,0.0166245l-5.0113525,12.7936058
							l8.8717613,1.5643539l3.1864014-11.1588974h0.5967197C24.8092632,54.8140297,26.8406467,62.6670723,26.8406467,62.6670723z"/>
					</g>
				</g>
				<g opacity="0.3">
					<g>
						<circle fill="#32548C" cx="23.5059834" cy="36.0844345" r="6.2739148"/>
					</g>
				</g>
				<g>
					<path fill="#32548C" d="M55.3984375,18.450531c-0.7369995,0-1.333313,0.5963135-1.333313,1.333313v37.3203125
						c0,0.8619995-0.7005615,1.5625-1.5625,1.5625h-11.770874c-0.7369385,0-1.333313,0.5963745-1.333313,1.333313
						c0,0.7369995,0.5963745,1.333374,1.333313,1.333374h11.770874c2.3306885,0,4.229126-1.8971558,4.229126-4.229187V19.783844
						C56.7317505,19.0468445,56.135437,18.450531,55.3984375,18.450531z"/>
					<path fill="#32548C" d="M39.744812,36.0846252c0-1.151062-0.5026245-2.2213745-1.322937-2.9674683
						c0.473938-1.0025635,0.5286255-2.1835938,0.0859375-3.2460938c-0.4401245-1.0650635-1.3125-1.8619347-2.3567505-2.2369347
						c0.052063-1.1068153-0.348999-2.2187538-1.1640625-3.0325966c-0.8151245-0.8137817-1.932312-1.239563-3.03125-1.161438
						c-0.375-1.0442505-1.171875-1.9179688-2.234375-2.3580933c-1.0651245-0.4375-2.244812-0.3880005-3.2474365,0.0872803
						c-1.494751-1.640625-4.4400635-1.640625-5.9348755,0c-0.9973755-0.4713745-2.177063-0.5273438-3.2473755-0.0872803
						c-1.0625,0.4401245-1.859375,1.3138428-2.234375,2.3580933c-0.1104736-0.0050049-0.2183228,0.0142822-0.328125,0.0179443
						V4.2955627c0-0.8984375,0.729126-1.6289063,1.6275635-1.6289063H39.494812c1.208313,0,2.390625,0.4909058,3.2473755,1.3450317
						l9.4375,9.4388428H44.911438c-0.8984375,0-1.630188-0.7304688-1.630188-1.6289063V7.257782
						c0-0.7369385-0.5963745-1.333313-1.333313-1.333313c-0.7369995,0-1.333374,0.5963745-1.333374,1.333313v4.5638428
						c0,2.3684692,1.927124,4.2955322,4.296875,4.2955322h10.4869995c0.5390396,0,1.026062-0.3242188,1.2317505-0.822876
						c0.2057495-0.4987183,0.0911865-1.0716553-0.2890625-1.453125L44.6276245,2.1263123
						c-1.354187-1.3515625-3.223999-2.1263428-5.1328125-2.1263428H16.3567505c-2.3671875,0-4.2942734,1.927124-4.2942734,4.2955933
						v20.2744141c-0.0121231,0.0119019-0.0270157,0.0194702-0.0390396,0.0315552
						c-0.8151245,0.8138428-1.2161255,1.927124-1.161438,3.0338745c-1.0443115,0.375-1.9193115,1.171875-2.359375,2.2356567
						c-0.4401474,1.0638428-0.385437,2.244812,0.088501,3.2460938c-0.8203125,0.7460938-1.322876,1.8151245-1.322876,2.9674683
						c0,1.151062,0.5025635,2.2213745,1.322876,2.9661255c-0.473938,1.0013428-0.5286484,2.182312-0.088501,3.2474365
						c0.4400635,1.0637817,1.3150635,1.859375,2.359375,2.234375c-0.0546875,1.1080322,0.3463135,2.2200317,1.161438,3.0338135
						c0.7305908,0.7318115,1.6914673,1.1038818,2.6970215,1.1431885L10.057312,60.617157
						c-0.145874,0.3710938-0.1171875,0.7904053,0.0806885,1.1380615c0.1953125,0.348938,0.536499,0.5911255,0.9296875,0.6601563
						l8.8724365,1.5637817c0.078125,0.0143433,0.15625,0.020813,0.2317505,0.020813c0.5859375,0,1.114563-0.385376,1.28125-0.963501
						l1.4921875-5.166687c0.203125-0.7070313-0.203125-1.4465942-0.911438-1.651062
						c-0.7057495-0.2044067-1.4453125,0.2018433-1.651062,0.911499l-1.1588745,4.015625l-6.088501-1.072937l3.6313477-9.2732544
						c0.1698608,0.1032104,0.3376465,0.2098389,0.5249023,0.2875977c1.0703125,0.4414063,2.25,0.3867188,3.2473755-0.0872803
						c0.5130005,0.5638428,1.1796875,0.9779053,1.9192505,1.1810303l3.1015625,10.8515625
						c0.1640625,0.5806885,0.6953125,0.9674072,1.28125,0.9674072c0.0755615,0,0.1536865-0.0064697,0.2318115-0.020813
						l8.8723755-1.5637817c0.3932495-0.0690308,0.734375-0.3112183,0.9296875-0.6601563
						c0.197937-0.348999,0.2265625-0.7669678,0.0807495-1.1393433l-3.3828125-8.6328125
						c-0.2682495-0.6835938-1.036499-1.0234375-1.729187-0.7539063c-0.6848755,0.2682495-1.0234375,1.041687-0.755188,1.7278442
						l2.7890625,7.1159058l-6.083374,1.0715942l-3.0078125-10.520813c-0.161438-0.572937-0.6848755-0.9674683-1.28125-0.9674683
						c-0.604126,0-1.125-0.3984375-1.2942505-0.989563c-0.1380005-0.4804688-0.53125-0.84375-1.0234604-0.9414063
						c-0.4895401-0.0976563-0.9921646,0.088562-1.3020401,0.4804688c-0.3776245,0.4765625-1.0234375,0.645813-1.5729599,0.4179688
						c-0.5598526-0.2317505-0.8879776-0.7994995-0.8176651-1.4101563c0.0546875-0.4960938-0.1693115-0.9830933-0.5859375-1.260437
						c-0.4193115-0.2786255-0.9505615-0.2981567-1.3880615-0.0559692c-0.5338135,0.2981567-1.1875,0.2109375-1.6119385-0.2174683
						c-0.427124-0.4257813-0.515625-1.0742188-0.2161865-1.6119385c0.2447891-0.4375,0.2213745-0.9726563-0.0546875-1.3893433
						c-0.2786255-0.4140625-0.75-0.6484375-1.2630005-0.583313c-0.6484375,0.0650635-1.1796875-0.260437-1.4088745-0.8164063
						c-0.2317505-0.5599365-0.0625-1.1914063,0.4193115-1.572937c0.390625-0.3112183,0.578125-0.8151245,0.479126-1.3046875
						c-0.0963135-0.4909058-0.4609375-0.885437-0.942688-1.0234375c-0.5911255-0.1679688-0.9869995-0.6875-0.9869995-1.2929688
						s0.395874-1.125,0.9869995-1.2929688c0.4817505-0.1367188,0.8463745-0.53125,0.942688-1.0221558
						c0.098999-0.4908447-0.088501-0.994751-0.479126-1.3059692c-0.473999-0.375-0.645874-1.0221558-0.4193115-1.5715942
						c0.229187-0.552124,0.8307495-0.8763428,1.4088745-0.8190308c0.520813,0.0637817,0.9869995-0.1692505,1.2630005-0.5846558
						c0.276062-0.4153442,0.2994766-0.9517822,0.0546875-1.3880005c-0.2994385-0.5377808-0.2109375-1.1848755,0.2161865-1.6119995
						c0.4244385-0.427063,1.0703125-0.5169067,1.6119385-0.2161255c0.4375,0.2409058,0.96875,0.2213745,1.3880615-0.0559692
						c0.416626-0.2773438,0.640625-0.7643433,0.5859375-1.260437c-0.0703125-0.6028442,0.265625-1.182312,0.8176651-1.4101563
						c0.5390854-0.2278442,1.1927109-0.0598755,1.5729599,0.416687c0.3098755,0.3919067,0.8125,0.5806885,1.3020401,0.4804688
						c0.4922104-0.0976563,0.8854599-0.4609375,1.0234604-0.9401245c0.333313-1.1784058,2.2526245-1.1744995,2.588562-0.0039063
						c0.135376,0.4817505,0.5286255,0.8450317,1.020813,0.942688c0.4869995,0.104187,0.9921646-0.0872192,1.3046875-0.4778442
						c0.380188-0.473938,1.03125-0.645813,1.5755005-0.4179688C29.25,23.773407,29.5859375,24.351532,29.515625,24.9530945
						c-0.057312,0.4960938,0.1692505,0.984375,0.583313,1.2617188c0.416687,0.2786865,0.9505615,0.2994995,1.390625,0.057312
						c0.520874-0.2942505,1.1875-0.2109375,1.6119995,0.2148438c0.427063,0.4284058,0.515625,1.0768433,0.2161255,1.614563
						c-0.2421875,0.4375-0.21875,0.9726563,0.057312,1.3880615c0.276062,0.4127197,0.739563,0.6367188,1.2630005,0.583313
						c0.6119995-0.057312,1.177124,0.2669067,1.40625,0.8190308c0.229187,0.5494385,0.057312,1.1965942-0.416626,1.572876
						c-0.3932495,0.3112183-0.578125,0.8151245-0.479187,1.3046875c0.0963745,0.4909058,0.4609375,0.885437,0.942688,1.0221558
						c0.5807495,0.1653442,0.9869995,0.6965942,0.9869995,1.2929688c0,0.5950317-0.40625,1.1276245-0.989563,1.2929688
						c-0.479187,0.1380005-0.84375,0.5325317-0.9401245,1.0221558c-0.098938,0.4908447,0.0859375,0.9934692,0.479187,1.3046875
						c0.473938,0.3762817,0.645813,1.0234375,0.416626,1.5755005c-0.2317734,0.5598755-0.791626,0.8828125-1.40625,0.8151245
						C34.125,42.039032,33.6536255,42.2643127,33.375,42.6770935c-0.276062,0.4153442-0.2994995,0.9517822-0.057312,1.3880005
						c0.2994995,0.5390625,0.2109375,1.1875-0.21875,1.6171875c-0.4192505,0.4192505-1.083313,0.5065308-1.609375,0.2148438
						c-0.4400635-0.244812-0.973938-0.2213745-1.390625,0.057312c-0.4140625,0.2773438-0.640625,0.765625-0.583313,1.2617188
						c0.072937,0.609375-0.255188,1.1757813-0.8125,1.40625c-0.21875,0.0898438-0.447937,0.1262817-0.6744995,0.0924072
						c-0.1848755-0.0234375-0.3619385-0.083313-0.5234375-0.1783447c-0.6275635-0.369812-1.447876-0.161499-1.8255005,0.4752197
						c-0.3723755,0.635437-0.1588745,1.4518433,0.4765625,1.8242188c0.4713745,0.2773438,0.9869995,0.4544678,1.5338745,0.5247803
						c0.6796875,0.0859375,1.385376-0.0065308,2.03125-0.2734375c1.0650635-0.4414063,1.859375-1.3151245,2.234375-2.3580933
						c1.104126,0.0715942,2.2161255-0.3476563,3.03125-1.161438c0.8125-0.8138428,1.2161255-1.9257813,1.1640625-3.0338745
						c1.0442505-0.375,1.916626-1.171875,2.3567505-2.234375c0.4401245-1.0637817,0.385437-2.244812-0.0859375-3.2487183
						C39.2421875,38.3059998,39.744812,37.2356873,39.744812,36.0846252z"/>
					<path fill="#32548C" d="M21.864563,31.4023132c1.8255615-0.6392822,3.869812-0.151001,5.2109375,1.2513428
						c0.5130615,0.5299072,1.3568115,0.5481567,1.885437,0.0390625c0.53125-0.5091553,0.5494995-1.354187,0.041687-1.885437
						c-2.067749-2.1536255-5.213562-2.9075317-8.0234375-1.9205933c-3.9557495,1.390625-6.0443115,5.7421875-4.6536865,9.7005615
						c1.098999,3.125,4.0443115,5.083313,7.1849365,5.083313c0.8359375,0,1.6848755-0.1393433,2.515625-0.4309692
						c2.9244385-1.0286865,4.963501-3.7994995,5.078125-6.8932495c0.026001-0.7369995-0.5494995-1.3554688-1.2838745-1.3815308
						c-0.864563-0.0403442-1.3567505,0.5482178-1.3828354,1.2825928c-0.0729141,2.0090942-1.3984146,3.8085938-3.2968521,4.4765625
						c-2.5703125,0.90625-5.395813-0.453125-6.2994995-3.020874C17.9374771,35.132782,19.2942505,32.3059998,21.864563,31.4023132z"
						/>
				</g>
			</g>
		</g>
	</g>
</g>
<g id="scheduler">
</g>
<g id="equella">
</g>
<g id="file">
</g>
<g id="folder">
</g>
<g id="ims_x5F_content_x5F_package">
</g>
<g id="label">
</g>
<g id="lightbox_x5F_gallery">
</g>
<g id="nln_x5F_learning_x5F_object">
</g>
<g id="page">
</g>
<g id="subpage">
</g>
<g id="tab_x5F_display">
</g>
<g id="new_x5F_label">
</g>
<g id="url">
</g>
<g id="_x33_60_x5F_degree_x5F_diagnostics">
</g>
<g id="adobe_x5F_connect">
</g>
<g id="attendance_x5F_register">
</g>
<g id="booking">
</g>
<g id="chat">
</g>
<g id="checklist">
</g>
<g id="external_x5F_tool">
</g>
<g id="face_x5F_to_x5F_face">
</g>
<g id="forumNG">
</g>
<g id="glossary">
</g>
<g id="group_x5F_choice">
</g>
<g id="journal">
</g>
<g id="mediasite_x5F_content">
</g>
<g id="nanogong_x5F_voice">
</g>
<g id="questionnaire">
</g>
<g id="scorm_x5F_package">
</g>
<g id="survey">
</g>
<g id="tutorship">
</g>
<g id="advanced_x5F_forum">
</g>
<g id="subcourse">
</g>
<g id="lesson_1_">
</g>
<g id="adaptive_x5F_quiz">
</g>
<g id="ou_x5F_wiki">
</g>
<g id="support_x5F_tracker">
</g>
<g id="view_x5F_comments">
</g>
<g id="no_x5F_comment">
</g>
<g id="attention">
</g>
<g id="search">
</g>
<g id="submitted">
</g>
<g id="feedback">
</g>
<g id="dnd_x5F_arrow">
</g>
</svg>
