<?xml version="1.0" encoding="utf-8"?>
<!-- Generator: Adobe Illustrator 21.0.0, SVG Export Plug-In . SVG Version: 6.00 Build 0)  -->
<svg version="1.1" xmlns="http://www.w3.org/2000/svg" xmlns:xlink="http://www.w3.org/1999/xlink" x="0px" y="0px" width="64px"
	 height="64px" viewBox="0 0 64 64" enable-background="new 0 0 64 64" xml:space="preserve">
<g id="Layer_1">
</g>
<g id="Layer_2">
</g>
<g id="messages">
</g>
<g id="messages_x5F_hover">
</g>
<g id="profile">
</g>
<g id="profile_x5F_hover">
</g>
<g id="view_x5F_hover">
</g>
<g id="view_x5F_feedback">
</g>
<g id="no_x5F_feedback_x5F_to_x5F_view">
</g>
<g id="download_x5F_hover">
</g>
<g id="download">
</g>
<g id="no_x5F_feedback_x5F_download">
</g>
<g id="link_x5F_hover">
</g>
<g id="assignment_x5F_link_copy">
</g>
<g id="Layer_21">
</g>
<g id="home_x5F_hover">
</g>
<g id="home_1_">
</g>
<g id="edit_x5F_profile">
</g>
<g id="preferences">
</g>
<g id="notifications">
</g>
<g id="my_x5F_posts">
</g>
<g id="logout">
</g>
<g id="assignment">
</g>
<g id="coursework">
</g>
<g id="forum">
</g>
<g id="quiz">
</g>
<g id="book">
</g>
<g id="database">
</g>
<g id="wiki">
</g>
<g id="choice">
</g>
<g id="workshop">
</g>
<g id="certificate">
</g>
<g id="scheduler">
</g>
<g id="equella">
</g>
<g id="file">
</g>
<g id="folder">
</g>
<g id="ims_x5F_content_x5F_package">
</g>
<g id="label">
</g>
<g id="lightbox_x5F_gallery">
</g>
<g id="nln_x5F_learning_x5F_object">
</g>
<g id="page">
</g>
<g id="subpage">
</g>
<g id="tab_x5F_display">
</g>
<g id="new_x5F_label">
</g>
<g id="url">
</g>
<g id="_x33_60_x5F_degree_x5F_diagnostics">
</g>
<g id="adobe_x5F_connect">
</g>
<g id="attendance_x5F_register">
</g>
<g id="booking">
</g>
<g id="chat">
</g>
<g id="checklist">
</g>
<g id="external_x5F_tool">
</g>
<g id="face_x5F_to_x5F_face">
</g>
<g id="forumNG">
</g>
<g id="glossary">
	<g>
		<g>
			<path fill="#FFFFFF" d="M58.6164474,7.0294676c0,0-0.8986015-0.3193359-2.066082-0.4264326
				c-3.4272461-0.31429-7.2317696-0.4890947-11.2379532-0.4890947c-4.8341484,0-9.3746758,0.8007813-13.3133144,1.2477212
				c0,0-8.0743828-1.2477212-13.312664-1.2477212c-4.0061846,0-7.810709,0.1748047-11.2379551,0.4890947
				c-0.5818686,0.0533857-2.075521,0.4480796-2.075521,0.4480796c-2.3802083,0.9365234-4.0405273,3.235189-4.0405273,5.9127603
				l0.0001627,38.3367119c0,1.7804375,0.7521158,3.4897461,2.0668945,4.6941719
				c1.3069661,1.1938477,3.0636394,1.7854843,4.8125,1.635582c7.4816084-0.6468124,16.3095703-0.5548515,23.3308907,0.239418
				l0.6559238,0.0743828l-0.1992168-0.022625c0.2115879-0.015461,3.3640957-0.3098946,4.951334-0.4542618
				c6.0646172-0.5517578,12.8702812-0.3551445,18.8302422,0.1630859c0.184082,0.0157852,0.3655586,0.0237617,0.5496407,0.0237617
				c1.5699883,0,3.1004219-0.5890312,4.2680664-1.6593437c1.3149414-1.2018204,2.0668945-2.9137344,2.0668945-4.6941719V12.9638748
				C62.6657639,10.2609129,61.0139084,7.9489012,58.6164474,7.0294676z M58.6252365,51.4989929
				c0.0003242,0.8771133-0.5629883,1.6043282-1.3388672,1.8681641c0.7762032-0.3696289,1.3377266-1.1383476,1.3388672-2.0651054
				V51.4989929z"/>
		</g>
		<g opacity="0.3">
			<g>
				<path fill="#32548C" d="M31.9990444,53.8569908c5.1537876-1.3990631,19.2038708-0.7061768,24.536272-0.3791313
					c1.1406631,0.0699615,2.0902023-0.8360558,2.0899124-1.9788628L58.6164742,7.0295477
					c2.3973885,0.9193597,4.0493584,3.2313766,4.0493584,5.9343719v38.3367081c0,1.7803307-0.7521019,3.4922867-2.066967,4.6940727
					c-1.1676025,1.0703011-2.6981087,1.6593628-4.2680588,1.6593628c-0.1840782,0-0.3655319-0.0078888-0.549614-0.0236702
					c-5.9599915-0.5182571-12.7656937-0.7148361-18.8303413-0.1632042
					c-1.5870934,0.1443596-4.7397499,0.4388123-4.9513416,0.4543381l0.1993427,0.0226288l-0.6559029-0.0744553
					c-7.0213852-0.794178-15.8493977-0.886219-23.330986-0.2393074c-1.7487717,0.1498947-3.5054331-0.4417915-4.8124104-1.6356926
					c-1.3148663-1.2044182-2.0669699-2.9137421-2.0669699-4.6940727L1.3325002,12.9639196
					c-0.0000079-2.6776371,1.6603115-4.9762058,4.0404491-5.9127374l0.000103,44.4343605
					c0.0000033,1.1468773,0.9652653,2.0592575,2.1100035,1.9892311
					C12.4994783,53.1679039,25.2241707,52.5673294,31.9990444,53.8569908z"/>
			</g>
		</g>
		<g>
			<path fill="#32548C" d="M32,55.1902351c-0.0494785,0-0.098959-0.0026054-0.151041-0.0091133
				c-7.2161465-0.8164063-16.2760429-0.9114609-23.8697929-0.2460938c-0.989583,0.0924454-2.005208-0.2526054-2.752604-0.9361992
				c-0.7552085-0.6914063-1.1875-1.6757813-1.1875-2.6992188V8.9090242c0-1.8997393,1.4140625-3.4622393,3.2864585-3.6341143
				C10.9140625,4.946785,14.7369795,4.7801185,18.6875,4.7801185c4.9088535,0,12.0859375,1.0481772,13.3385429,1.236979
				c0.90625-0.1054688,1.8463516-0.2278643,2.8125-0.3541665C38,5.2488685,41.5807304,4.7801185,45.3125,4.7801185
				c3.9479179,0,7.7708321,0.1666665,11.359375,0.4947915c1.8723946,0.171875,3.2864571,1.7330732,3.2864571,3.6341143v42.3905869
				c0,1.0247383-0.4322891,2.0091133-1.1875153,2.7005196c-0.7473793,0.6835938-1.7473793,1.0247421-2.7525864,0.9348984
				c-5.8177109-0.5091171-12.5052109-0.5820313-18.5260429-0.2135429c-0.7395821,0.0351563-1.3671875-0.515625-1.4114571-1.2486992
				c-0.0442734-0.7356758,0.5130196-1.3671875,1.25-1.4127579c6.1458321-0.3763046,12.9661446-0.3020859,18.921875,0.21875
				c0.3776016,0.0390625,0.6041641-0.1419296,0.7161446-0.2460938c0.2083321-0.1901054,0.3229179-0.4505234,0.3229179-0.7330742
				V8.9090242c0-0.5130205-0.3723984-0.9335933-0.8645859-0.9778643C52.9192696,7.6095457,49.1796875,7.446785,45.3125,7.446785
				c-3.5572929,0-7.046875,0.4570313-10.1276054,0.859375c-1.0442696,0.1367188-2.0572891,0.2695313-3.0338516,0.380208
				C32.03125,8.6993895,31.911459,8.696785,31.796875,8.6798582C31.7161465,8.6681395,23.760416,7.446785,18.6875,7.446785
				c-3.869792,0-7.609375,0.1627607-11.1171875,0.484375C7.0859375,7.975431,6.705729,8.405118,6.705729,8.9090242v42.3905869
				c0,0.2825508,0.1145835,0.5416679,0.322917,0.7330742c0.1171718,0.1041641,0.377604,0.265625,0.7161455,0.2460938
				c7.263021-0.6341171,15.7994804-0.5976563,22.921875,0.0963516V11.8361082c0-0.7369795,0.5963554-1.333334,1.333334-1.333334
				c0.7369804,0,1.3333321,0.5963545,1.3333321,1.333334v42.0207939c0,0.3802071-0.1614571,0.7421875-0.4453125,0.9947891
				C32.6432304,55.0704422,32.3255196,55.1902351,32,55.1902351z"/>
		</g>
		<g>
			<path fill="#32548C" d="M32.2005196,59.2774734c-0.0494766,0-0.1015625-0.0026016-0.1510391-0.0078125
				c0,0-0.0026054-0.0013008-0.0052109-0.0013008l-0.6536446-0.0729179C24.5,58.4154968,15.661458,58.3269539,8.3255205,58.9584656
				C6.2109375,59.1381531,4.075521,58.4194031,2.5,56.9792976C0.9088542,55.5209656,0,53.4519539,0,51.3009109V12.9637117
				c0-0.7369785,0.5963542-1.333333,1.3333334-1.333333s1.3333334,0.5963545,1.3333334,1.333333v38.3372002
				c0,1.40625,0.596354,2.7591171,1.6328123,3.7122421c1.026042,0.9361954,2.421875,1.4010391,3.7968755,1.2890625
				c7.6067705-0.6588554,16.4296875-0.5677109,23.5963554,0.2421875l0.3281078,0.0377579
				c0.3359528-0.0299454,1.2838707-0.1171875,2.3099136-0.2122383l2.5-0.2304688
				c6.9400864-0.6302071,14.203125-0.2604179,19.0650864,0.1627617c1.4010582,0.1080704,2.7760582-0.3489609,3.8021011-1.2903671
				c1.0390625-0.9505196,1.6354141-2.3020821,1.6354141-3.7109375V12.9637117c0-0.7369785,0.5963554-1.333333,1.3333359-1.333333
				C63.4036446,11.6303787,64,12.2267332,64,12.9637117v38.3372002c0,2.15625-0.9114571,4.2252617-2.5026054,5.6783867
				c-1.5729141,1.4453125-3.7057266,2.1705742-5.828125,1.9791679c-4.7578125-0.4114609-11.8463516-0.7747421-18.5989571-0.1627617
				l-2.4947929,0.2291679c-0.7578125,0.0703125-1.4713516,0.1367188-1.9401016,0.1783829
				C32.4973946,59.2514343,32.3515625,59.2774734,32.2005196,59.2774734z"/>
		</g>
		<g>
			<path fill="#32548C" d="M12.1901417,23.995697c1.0026045-0.8854179,2.114583-1.5416679,3.3359375-1.973959
				s2.53125-0.6484375,3.927084-0.6484375c1.0026035,0,1.90625,0.161459,2.713541,0.4869785
				c0.8046875,0.3255215,1.4869785,0.7786465,2.046875,1.359375c0.5598965,0.583334,0.989584,1.2734375,1.2890625,2.0729179
				c0.296875,0.7994785,0.447916,1.6744785,0.447916,2.625v10.3671875h-2.2734375c-0.46875,0-0.822916-0.0651054-1.0625-0.1927109
				c-0.2421875-0.1276016-0.4401035-0.3932266-0.6015625-0.7994766l-0.3515625-0.9114609
				c-0.416666,0.3515625-0.8151035,0.6614609-1.2005196,0.9270859c-0.3828125,0.2682266-0.78125,0.4947891-1.1901054,0.6796875
				c-0.4114571,0.1875-0.8489571,0.3255196-1.3125,0.4166641c-0.463541,0.0911484-0.979166,0.1354179-1.5442696,0.1354179
				c-0.7578135,0-1.4453135-0.0989571-2.0651045-0.2942696c-0.6171875-0.1979179-1.1432295-0.4895859-1.5755215-0.8723984
				c-0.432291-0.3854141-0.765625-0.8619766-1-1.4322891s-0.3515625-1.2291679-0.3515625-1.9765625
				c0-0.5963554,0.1484375-1.203125,0.447917-1.8151054c0.2994795-0.6145821,0.8151045-1.1744785,1.552083-1.6796875
				c0.7369795-0.5078125,1.7265625-0.932291,2.9765635-1.2734375c1.2473946-0.3411446,2.8203125-0.5338535,4.71875-0.5755196
				v-0.703125c0-0.9713554-0.2005215-1.671875-0.598959-2.1041679c-0.401041-0.432291-0.96875-0.6484375-1.7057285-0.6484375
				c-0.5859375,0-1.0651054,0.0625-1.4401054,0.192709c-0.3723946,0.1276035-0.7057285,0.270834-1,0.432291
				c-0.291666,0.1588554-0.578124,0.302084-0.854166,0.4296875c-0.2786455,0.130209-0.609375,0.192709-0.9921875,0.192709
				c-0.3411455,0-0.630208-0.0859375-0.864583-0.255209c-0.234375-0.171875-0.427084-0.3723946-0.5755215-0.609375
				L12.1901417,23.995697z M21.1172256,31.5321541c-0.9921875,0.0442715-1.8072929,0.1276054-2.4479179,0.2578125
				c-0.640625,0.1276054-1.1458321,0.2864571-1.5208321,0.4791679c-0.3723965,0.1927071-0.630209,0.4114571-0.7760429,0.65625
				c-0.1432285,0.2447891-0.213541,0.5104141-0.213541,0.7994766c0,0.5651054,0.1536465,0.9635429,0.463541,1.1927109
				c0.3072929,0.2291641,0.7604179,0.34375,1.359375,0.34375c0.640625,0,1.2005215-0.1119804,1.6796875-0.3359375
				c0.4791679-0.2239609,0.9661465-0.5859375,1.4557304-1.0885429V31.5321541z"/>
		</g>
		<g>
			<path fill="#32548C" d="M51.9519119,23.6454353c0,0.3411465-0.0572891,0.671875-0.1744766,0.989584
				c-0.1197929,0.3203125-0.2734375,0.583334-0.4661484,0.786459l-6.9270821,9.1510391h7.4088554v3.6796875H38.6732674v-2.015625
				c0-0.203125,0.0520821-0.4583321,0.1588554-0.7682266c0.1067696-0.3098984,0.265625-0.5963554,0.4791641-0.8645859
				l6.9921875-9.2630196h-7.1822891v-3.6796875h12.8307266V23.6454353z"/>
		</g>
	</g>
</g>
<g id="group_x5F_choice">
</g>
<g id="journal">
</g>
<g id="mediasite_x5F_content">
</g>
<g id="nanogong_x5F_voice">
</g>
<g id="questionnaire">
</g>
<g id="scorm_x5F_package">
</g>
<g id="survey">
</g>
<g id="tutorship">
</g>
<g id="advanced_x5F_forum">
</g>
<g id="subcourse">
</g>
<g id="lesson_1_">
</g>
<g id="adaptive_x5F_quiz">
</g>
<g id="ou_x5F_wiki">
</g>
<g id="support_x5F_tracker">
</g>
<g id="view_x5F_comments">
</g>
<g id="no_x5F_comment">
</g>
<g id="attention">
</g>
<g id="search">
</g>
<g id="submitted">
</g>
<g id="feedback">
</g>
<g id="dnd_x5F_arrow">
</g>
</svg>
