<?xml version="1.0" encoding="utf-8"?>
<!-- Generator: Adobe Illustrator 21.0.0, SVG Export Plug-In . SVG Version: 6.00 Build 0)  -->
<svg version="1.1" xmlns="http://www.w3.org/2000/svg" xmlns:xlink="http://www.w3.org/1999/xlink" x="0px" y="0px" width="64px"
	 height="64px" viewBox="0 0 64 64" enable-background="new 0 0 64 64" xml:space="preserve">
<g id="Layer_1">
</g>
<g id="Layer_2">
</g>
<g id="messages">
</g>
<g id="messages_x5F_hover">
</g>
<g id="profile">
</g>
<g id="profile_x5F_hover">
</g>
<g id="view_x5F_hover">
</g>
<g id="view_x5F_feedback">
</g>
<g id="no_x5F_feedback_x5F_to_x5F_view">
</g>
<g id="download_x5F_hover">
</g>
<g id="download">
</g>
<g id="no_x5F_feedback_x5F_download">
</g>
<g id="link_x5F_hover">
</g>
<g id="assignment_x5F_link_copy">
</g>
<g id="Layer_21">
</g>
<g id="home_x5F_hover">
</g>
<g id="home_1_">
</g>
<g id="edit_x5F_profile">
</g>
<g id="preferences">
</g>
<g id="notifications">
</g>
<g id="my_x5F_posts">
</g>
<g id="logout">
</g>
<g id="assignment">
</g>
<g id="coursework">
</g>
<g id="forum">
</g>
<g id="quiz">
</g>
<g id="book">
</g>
<g id="database">
</g>
<g id="wiki">
</g>
<g id="choice">
</g>
<g id="workshop">
</g>
<g id="certificate">
</g>
<g id="scheduler">
</g>
<g id="equella">
</g>
<g id="file">
</g>
<g id="folder">
</g>
<g id="ims_x5F_content_x5F_package">
</g>
<g id="label">
</g>
<g id="lightbox_x5F_gallery">
</g>
<g id="nln_x5F_learning_x5F_object">
</g>
<g id="page">
</g>
<g id="subpage">
</g>
<g id="tab_x5F_display">
</g>
<g id="new_x5F_label">
</g>
<g id="url">
</g>
<g id="_x33_60_x5F_degree_x5F_diagnostics">
</g>
<g id="adobe_x5F_connect">
</g>
<g id="attendance_x5F_register">
</g>
<g id="booking">
</g>
<g id="chat">
</g>
<g id="checklist">
</g>
<g id="external_x5F_tool">
</g>
<g id="face_x5F_to_x5F_face">
</g>
<g id="forumNG">
</g>
<g id="glossary">
</g>
<g id="group_x5F_choice">
</g>
<g id="journal">
	<g>
		<path fill="#FFFFFF" d="M60.6047363,11.3532104l0.5018921-0.5032349c1.4215088-1.425293,1.4185181-3.7330322-0.0067139-5.154541
			l-3.3070068-3.2983398c-1.4252319-1.4215698-3.7330322-1.4185181-5.154541,0.0067139l-3.4567261,3.4657593l-1.3323517-0.6276245
			L45.557106,7.8060851l-1.3145828,1.1261935c-2.6780701,0.0596647-12.2433472,1.6221647-12.2433472,1.6221647
			c-14.2472229-3.1875-26.6263123-0.460144-26.6263123-0.460144c-2.3800049,0.9365234-4.0403442,3.2352295-4.0403442,5.9127808
			v40.0150146c0,1.7802734,0.7521362,3.489624,2.0670776,4.6940308c1.3069458,1.1940308,3.0635986,1.7856445,4.8123169,1.6357422
			c7.4816284-0.6469727,16.3095703-0.5548706,23.3310547,0.2392578l0.4562378,0.0519409l0.4561768-0.0519409
			c7.0213623-0.7941284,15.8493042-0.8862305,23.3309326-0.2392578c1.7488403,0.1499023,3.5054932-0.4417114,4.8125-1.6357422
			c1.3147583-1.2044067,2.0668945-2.9137573,2.0668945-4.6940308l0.0001221-40.0150146
			C62.6658325,14.1660156,61.8689575,12.5164185,60.6047363,11.3532104z"/>
		<g opacity="0.3">
			<path fill="#32548C" d="M60.6047363,11.3532104l0.5018921-0.5032349c1.4215088-1.425293,1.4185181-3.7330322-0.0067139-5.154541
				l-3.3070068-3.2983398c-1.4252319-1.4215698-3.7330322-1.4185181-5.154541,0.0067139l-3.4567261,3.4657593l8.4683228,8.446106
				l0.9753418-0.9779053l-0.0001221,42.8692627c0,1.1469727-0.96521,2.0592041-2.1098633,1.9892578
				c-5.0164795-0.3068237-17.7412109-0.9074097-24.5161133,0.3821411h-0.0001831
				c-6.7749023-1.2895508-19.4996948-0.6889648-24.5159302-0.3821411c-1.1448975,0.0699463-2.1100464-0.8422852-2.1100464-1.9892578
				L5.3728638,10.0942993c-2.3800049,0.9365234-4.0403442,3.2352295-4.0403442,5.9127808v40.0150146
				c0,1.7802734,0.7521362,3.489624,2.0670776,4.6940308c1.3069458,1.1940308,3.0635986,1.7856445,4.8123169,1.6357422
				c7.4816284-0.6469727,16.3095703-0.5548706,23.3310547,0.2392578l0.4562378,0.0519409l0.4561768-0.0519409
				c7.0213623-0.7941284,15.8493042-0.8862305,23.3309326-0.2392578c1.7488403,0.1499023,3.5054932-0.4417114,4.8125-1.6357422
				c1.3147583-1.2044067,2.0668945-2.9137573,2.0668945-4.6940308l0.0001221-40.0150146
				C62.6658325,14.1660156,61.8689575,12.5164185,60.6047363,11.3532104z"/>
			<polygon fill="#32548C" points="54.3900757,17.5841064 45.921814,9.1380005 17.5562744,37.8221436 25.7335205,46.3157349 			"/>
			<polygon fill="#32548C" points="14.3148804,45.5061646 11.6741943,51.9436646 18.1047363,49.2860718 			"/>
		</g>
		<g>
			<path fill="#32548C" d="M58.625,21.5335693c-0.7369995,0-1.333313,0.5963745-1.333313,1.333374V56.020813
				c0,0.2838745-0.114624,0.5442505-0.322937,0.734375C56.854187,56.8619385,56.6328125,57.03125,56.25,57
				c-5.9765625-0.5182495-12.8255005-0.5911865-18.9192505-0.21875c-0.7369995,0.0442505-1.2943115,0.677063-1.25,1.411438
				c0.046875,0.734375,0.661438,1.3255005,1.411438,1.25c5.96875-0.364563,12.682312-0.291687,18.526062,0.213562
				c0.104126,0.010376,0.2109375,0.0130005,0.3150635,0.0130005c0.895874,0,1.7682495-0.3359375,2.4349365-0.9453125
				c0.7578125-0.692688,1.1900635-1.677063,1.1900635-2.703125V22.8669434
				C59.958313,22.1299438,59.3619995,21.5335693,58.625,21.5335693z"/>
			<path fill="#32548C" d="M7.9765625,59.65625C15.5911255,59,24.6223755,59.0859375,31.848938,59.9036255
				C31.901062,59.9088135,31.9505005,59.911438,32,59.911438c0.3255005,0,0.6432495-0.119812,0.8880005-0.338562
				c0.2838745-0.2525635,0.4453125-0.614563,0.4453125-0.994751V46.942688c0-0.7369995-0.5963135-1.333313-1.333313-1.333313
				s-1.333313,0.5963135-1.333313,1.333313v10.1536255C23.541687,56.4036255,15.0234375,56.3671875,7.7421875,57
				c-0.369812,0.036438-0.598938-0.140625-0.713562-0.244812c-0.208313-0.1901245-0.322876-0.4505005-0.322876-0.734375V11.953186
				c0-0.5039063,0.380188-0.9348755,0.864563-0.979126c3.4973755-0.3203125,7.2369995-0.4830933,11.1171875-0.4830933
				c3.9389648,0,9.6002808,0.7337036,11.979187,1.0679932v10.9839478L17.8518677,35.390625
				c-1.140625,1.145813-2.03125,2.4817505-2.6015625,3.875l-5.166626,10.0546875
				C9.4456177,50.5598755,9.6696167,52,10.6513672,52.9869385c0.614563,0.619812,1.4088745,0.942749,2.2213745,0.942749
				c0.484375,0,0.9765625-0.114624,1.4400635-0.348999l10.1901245-5.1484375c1.34375-0.6796875,2.5625-1.5650635,3.625-2.6275635
				l26.473938-26.5443115c1.109375,0.3984375,2.4140625,0.15625,3.307312-0.7369385l0.6875-0.6888428
				c0.5963745-0.5963135,0.9244995-1.3892822,0.921875-2.234375c-0.0026245-0.8424072-0.3307495-1.6340942-0.927063-2.229126
				L51.0675659,5.867981l2.5134888-2.5229492c0.9036255-0.9036255,2.369812-0.9049683,3.2682495-0.0039063l3.3098755,3.2981567
				c0.4375,0.4362183,0.677063,1.0169678,0.6796875,1.6341553c0,0.6171875-0.239563,1.197876-0.677063,1.635376
				c-0.5182495,0.520874-0.5182495,1.3659058,0.0025635,1.885437c0.260437,0.2590942,0.6015625,0.3893433,0.942749,0.3893433
				c0.3411255,0,0.6848755-0.130249,0.9453125-0.3919678c0.9375-0.9414063,1.453125-2.192688,1.453125-3.5220947
				c-0.0026245-1.3294678-0.5234375-2.5794678-1.463562-3.5182495l-3.307312-3.2981567
				C57.7946167,0.515625,56.5471802,0,55.2190552,0c-0.0025635,0-0.005188,0-0.0078125,0
				c-1.328125,0.0012817-2.578125,0.520813-3.5181885,1.4622192l-2.730896,2.7390747
				c-1.116394-0.4003906-2.4113159-0.1616211-3.3029785,0.730957l-0.682312,0.6875
				c-0.5872803,0.5873413-0.9108887,1.3648071-0.9207764,2.1941528C41.6220703,7.984314,37.02771,8.4196167,34.8567505,8.703186
				C33.8828125,8.8308105,32.9375,8.9545288,32.026062,9.0599976C30.7734375,8.8711548,23.5963745,7.8242798,18.6875,7.8242798
				c-3.9609375,0-7.78125,0.166687-11.3619995,0.4935303c-1.875,0.1731567-3.286438,1.7369385-3.286438,3.635376v44.067627
				c0,1.026062,0.4348755,2.010437,1.1901245,2.703125C5.9765625,59.4036255,6.984375,59.7630005,7.9765625,59.65625z
				 M13.1096802,51.2005005c-0.2734375,0.1380005-0.473938,0.005188-0.567688-0.0911255
				c-0.09375-0.09375-0.229187-0.2943115-0.088562-0.5703125l1.7004395-3.3117065l2.2921753,2.2874756L13.1096802,51.2005005z
				 M18.9519653,48.2487183l-3.5192261-3.5119629l2.2342529-4.3513794c0.0281372-0.0679932,0.0640259-0.1312866,0.0936279-0.1984253
				l5.7231445,5.7625122c-0.0621338,0.032959-0.1211548,0.0707397-0.18396,0.1026001L18.9519653,48.2487183z M45.9248047,11.0234375
				l2.572937,2.567688L24.1721802,37.916626c-0.520813,0.520874-0.520813,1.364624,0,1.885437
				c0.520874,0.520813,1.364624,0.520813,1.885437,0l25.270813-25.2695313c0.25-0.25,0.390625-0.5898438,0.390625-0.9440308
				c0-0.3528442-0.140625-0.692688-0.390625-0.942688l-4.4661255-4.4518433
				c-0.161438-0.1627197-0.161438-0.5286255,0.0026245-0.692688l0.682251-0.6875c0.192749-0.192688,0.505249-0.1887817,0.692749,0
				l8.46875,8.4453125c0.161438,0.1627808,0.1640625,0.5286255,0.0025635,0.6914063l-0.6875,0.6887817
				c-0.1900635,0.1835938-0.5,0.192749-0.6900635,0.0013428c-0.25-0.2487183-0.588562-0.3893433-0.942749-0.3893433
				c0,0,0,0-0.0025635,0c-0.3515625,0-0.692749,0.1419067-0.9401245,0.3919067l-27.2109375,27.276062
				c-0.168396,0.1693726-0.3457642,0.3283081-0.5239258,0.4862061l-6.5004883-6.5453491
				c0.1694946-0.1998291,0.3425293-0.3970337,0.5296021-0.5841064L45.9248047,11.0234375z M35.203125,11.3477173
				c1.6974487-0.2219238,4.9346313-0.539978,7.3713379-0.7431641l-9.2411499,9.2648926v-8.2879639
				C33.9518433,11.5046997,34.5585938,11.432312,35.203125,11.3477173z"/>
			<path fill="#32548C" d="M62.666687,14.6732788c-0.7369995,0-1.333374,0.5963135-1.333374,1.333313v40.0168457
				c0,1.4088135-0.5963135,2.760376-1.635376,3.7109375c-1.0286865,0.9400635-2.4036865,1.4140625-3.802124,1.2890625
				C51.036438,60.598938,43.78125,60.229126,36.828125,60.859375l-2.0286255,0.1875
				c-1.197937,0.1119385-2.395874,0.223938-2.7838745,0.2578125l-0.322937-0.0390625
				c-7.161438-0.807312-15.979126-0.901062-23.5963135-0.2421875c-1.3776245,0.130188-2.7682495-0.3515625-3.796875-1.291687
				c-1.0390625-0.947937-1.6328125-2.2994995-1.6328125-3.708313V16.0065918c0-0.7369995-0.5963745-1.333313-1.333374-1.333313
				C0.5963745,14.6732788,0,15.2695923,0,16.0065918v40.0168457c0,2.1536255,0.911438,4.223938,2.5,5.677063
				c1.578125,1.4401245,3.682312,2.1588745,5.8255005,1.979187c7.34375-0.635437,16.1796875-0.5443115,23.0625,0.2369385
				l0.65625,0.0755615C32.0963745,63.9973755,32.145813,64,32.1953125,64c0.145813,0,0.2838745-0.026062,0.411438-0.072937
				c0.5599365-0.0494995,1.5-0.1380005,2.4375-0.223938l2.026062-0.1875
				c6.760437-0.6119995,13.8411255-0.2474365,18.598938,0.1640625c2.119812,0.1796875,4.255249-0.5338745,5.828125-1.979187
				C63.088562,60.25,64,58.1796875,64,56.0234375V16.0065918C64,15.2695923,63.4036255,14.6732788,62.666687,14.6732788z"/>
		</g>
	</g>
</g>
<g id="mediasite_x5F_content">
</g>
<g id="nanogong_x5F_voice">
</g>
<g id="questionnaire">
</g>
<g id="scorm_x5F_package">
</g>
<g id="survey">
</g>
<g id="tutorship">
</g>
<g id="advanced_x5F_forum">
</g>
<g id="subcourse">
</g>
<g id="lesson_1_">
</g>
<g id="adaptive_x5F_quiz">
</g>
<g id="ou_x5F_wiki">
</g>
<g id="support_x5F_tracker">
</g>
<g id="view_x5F_comments">
</g>
<g id="no_x5F_comment">
</g>
<g id="attention">
</g>
<g id="search">
</g>
<g id="submitted">
</g>
<g id="feedback">
</g>
<g id="dnd_x5F_arrow">
</g>
</svg>
