<?xml version="1.0" encoding="utf-8"?>
<!-- Generator: Adobe Illustrator 21.0.0, SVG Export Plug-In . SVG Version: 6.00 Build 0)  -->
<svg version="1.1" xmlns="http://www.w3.org/2000/svg" xmlns:xlink="http://www.w3.org/1999/xlink" x="0px" y="0px" width="16px"
	 height="16px" viewBox="0 0 16 16" enable-background="new 0 0 16 16" xml:space="preserve">
<g id="Layer_1">
</g>
<g id="Layer_2">
</g>
<g id="messages">
</g>
<g id="messages_x5F_hover">
</g>
<g id="profile">
</g>
<g id="profile_x5F_hover">
</g>
<g id="view_x5F_hover">
</g>
<g id="view_x5F_feedback">
</g>
<g id="no_x5F_feedback_x5F_to_x5F_view">
</g>
<g id="download_x5F_hover">
</g>
<g id="download">
</g>
<g id="no_x5F_feedback_x5F_download">
</g>
<g id="link_x5F_hover">
</g>
<g id="assignment_x5F_link_copy">
</g>
<g id="Layer_21">
</g>
<g id="home_x5F_hover">
</g>
<g id="home_1_">
</g>
<g id="edit_x5F_profile">
</g>
<g id="preferences">
</g>
<g id="notifications">
</g>
<g id="my_x5F_posts">
</g>
<g id="logout">
</g>
<g id="assignment">
</g>
<g id="coursework">
</g>
<g id="forum">
</g>
<g id="quiz">
</g>
<g id="book">
</g>
<g id="database">
</g>
<g id="wiki">
</g>
<g id="choice">
</g>
<g id="workshop">
</g>
<g id="certificate">
</g>
<g id="scheduler">
</g>
<g id="equella">
</g>
<g id="file">
</g>
<g id="folder">
</g>
<g id="ims_x5F_content_x5F_package">
</g>
<g id="label">
</g>
<g id="lightbox_x5F_gallery">
</g>
<g id="nln_x5F_learning_x5F_object">
</g>
<g id="page">
</g>
<g id="subpage">
</g>
<g id="tab_x5F_display">
</g>
<g id="new_x5F_label">
</g>
<g id="url">
</g>
<g id="_x33_60_x5F_degree_x5F_diagnostics">
</g>
<g id="adobe_x5F_connect">
</g>
<g id="attendance_x5F_register">
</g>
<g id="booking">
</g>
<g id="chat">
</g>
<g id="checklist">
</g>
<g id="external_x5F_tool">
</g>
<g id="face_x5F_to_x5F_face">
</g>
<g id="forumNG">
</g>
<g id="glossary">
</g>
<g id="group_x5F_choice">
</g>
<g id="journal">
</g>
<g id="mediasite_x5F_content">
</g>
<g id="nanogong_x5F_voice">
</g>
<g id="questionnaire">
</g>
<g id="scorm_x5F_package">
</g>
<g id="survey">
</g>
<g id="tutorship">
</g>
<g id="advanced_x5F_forum">
</g>
<g id="subcourse">
</g>
<g id="lesson_1_">
</g>
<g id="adaptive_x5F_quiz">
</g>
<g id="ou_x5F_wiki">
</g>
<g id="support_x5F_tracker">
</g>
<g id="view_x5F_comments">
</g>
<g id="no_x5F_comment">
</g>
<g id="attention">
</g>
<g id="search">
	<g>
		<g id="XMLID_8_">
			<g>
				<g>
					<path fill="#FFFFFF" d="M8.7643452,5.6029501v1.9490657C8.7739544,7.8787203,9.1487036,8.070899,9.408145,7.8691111
						l4.3816786-3.3343039c0.2113972-0.163352,0.2113972-0.4804473,0-0.6341906L9.3985357,0.5759217
						c-0.2690506-0.1921789-0.6437998-0.009609-0.6437998,0.3267041v1.9347165h-0.490056
						C5.6510472,2.875778,3.2295928,4.6149969,2.3551788,6.9787979c-0.9416767,2.3541918-0.2786596,5.1696119,1.5278223,6.8319597
						c1.7584369,1.710392,4.5258131,2.1620131,6.6782169,1.1626825c2.1812305-0.9416761,3.6033545-3.2478237,3.5072651-5.5443611
						V9.4194698c-0.0192184-0.3074865-0.2690506-0.5573187-0.5765371-0.5669279
						c-0.326704-0.0096092-0.5957546,0.2498331-0.6053629,0.5765371c-0.0480452,1.8353081-1.2779903,3.5072651-2.9307289,4.0934105
						c-1.6335201,0.6245813-3.5649185,0.1441345-4.6891651-1.1050291c-1.1434646-1.2107267-1.4221239-3.09408-0.7302799-4.5258131
						C5.1898174,6.431088,6.7684641,5.5951095,8.2646799,5.5951095L8.7643452,5.6029501z"/>
				</g>
			</g>
		</g>
		<g id="XMLID_9_" opacity="0.3">
			<g>
				<g>
					<path fill="#545157" d="M8.7643452,5.6029501v1.9490657C8.7739544,7.8787203,9.1487036,8.070899,9.408145,7.8691111
						l4.3816786-3.3343039c0.2113972-0.163352,0.2113972-0.4804473,0-0.6341906L9.3985357,0.5759217
						c-0.2690506-0.1921789-0.6437998-0.009609-0.6437998,0.3267041v1.9347165h-0.490056
						C5.6510472,2.875778,3.2295928,4.6149969,2.3551788,6.9787979c-0.9416767,2.3541918-0.2786596,5.1696119,1.5278223,6.8319597
						c1.7584369,1.710392,4.5258131,2.1620131,6.6782169,1.1626825c2.1812305-0.9416761,3.6033545-3.2478237,3.5072651-5.5443611
						V9.4194698c-0.0192184-0.3074865-0.2690506-0.5573187-0.5765371-0.5669279
						c-0.326704-0.0096092-0.5957546,0.2498331-0.6053629,0.5765371c-0.0480452,1.8353081-1.2779903,3.5072651-2.9307289,4.0934105
						c-1.6335201,0.6245813-3.5649185,0.1441345-4.6891651-1.1050291c-1.1434646-1.2107267-1.4221239-3.09408-0.7302799-4.5258131
						C5.1898174,6.431088,6.7684641,5.5951095,8.2646799,5.5951095L8.7643452,5.6029501z"/>
				</g>
			</g>
		</g>
		<g id="XMLID_7_">
			<g>
				<g>
					<path fill="#545157" d="M8.1261587,16.0016861c-1.6767583,0-3.3627934-0.6372061-4.5917969-1.8325186
						c-1.9731447-1.8154297-2.652832-4.8525391-1.6435548-7.375977c0.9531251-2.5766602,3.5717773-4.4135742,6.36377-4.4560547
						V0.9025656c0-0.3413086,0.1870117-0.6494141,0.4882813-0.8041992c0.3051758-0.1552734,0.6669922-0.128418,0.9467773,0.0708008
						l4.4018555,3.3330078c0.2197266,0.159668,0.3525391,0.4165039,0.3569336,0.6987302
						c0.0039063,0.2871094-0.1245117,0.5527344-0.3525391,0.7294922L9.7111197,8.2668238
						C9.4498892,8.470437,9.0944204,8.5090113,8.7887564,8.3654566C8.4757681,8.2179956,8.2750845,7.9123311,8.2643423,7.5671163
						V5.6027608c0-0.2763672,0.2236328-0.5,0.5-0.5s0.5,0.2236328,0.5,0.5v1.7475586l4.1162109-3.1323242L9.2545767,1.0939718
						V2.837136c0,0.2763672-0.2236328,0.5-0.5,0.5H8.2648306c-2.3823247,0.0351563-4.6225586,1.6040037-5.440918,3.8149412
						c-0.8632814,2.1591802-0.2866211,4.7407231,1.3974607,6.2910161c1.6113281,1.5673828,4.1289067,2.0058594,6.129395,1.0766602
						c1.9892578-0.8583984,3.3071289-2.9414063,3.2182617-5.0698242c-0.0029297-0.0517578-0.0415039-0.0917969-0.09375-0.0976563
						c-0.0424805,0-0.0878906,0.0493164-0.0888672,0.0917969c-0.0527344,2.0151367-1.3945313,3.8867188-3.2636719,4.5498047
						c-1.7954102,0.6875-3.9506841,0.1782227-5.2275395-1.2416992c-1.2675779-1.3422852-1.6035154-3.4335938-0.809082-5.0781255
						C4.5690293,6.59446,5.5543809,5.7370381,6.7833848,5.3346944c0.265625-0.0859375,0.5454102,0.0576172,0.6308594,0.3193359
						c0.0859375,0.2626953-0.0571289,0.5449219-0.3193359,0.6308594C6.1329942,6.5998311,5.3668809,7.2599874,4.9928575,8.0959253
						c-0.6147461,1.2719727-0.34375,2.9394531,0.637207,3.9785156c1.015625,1.1274414,2.7158208,1.5268555,4.1469731,0.9814453
						c1.4990234-0.5322266,2.5673828-2.0273438,2.609375-3.6401367c0.0185547-0.6049805,0.5297852-1.0605469,1.1206055-1.0629883
						c0.5595703,0.0170898,1.0258789,0.472168,1.0605469,1.0361328c0.1064453,2.5527344-1.4594727,5.0297852-3.8081055,6.043457
						C9.9332876,15.8161402,9.0309439,16.0016861,8.1261587,16.0016861z M9.1027212,7.4733663
						c0,0-0.0009766,0.0004883-0.0014648,0.0009766L9.1027212,7.4733663z M13.4923697,4.3024678
						c0.0009766,0.0009766,0.0024414,0.0019531,0.003418,0.0024414L13.4923697,4.3024678z"/>
				</g>
			</g>
		</g>
	</g>
</g>
<g id="submitted">
</g>
<g id="feedback">
</g>
<g id="dnd_x5F_arrow">
</g>
</svg>
