<?xml version="1.0" encoding="utf-8"?>
<!-- Generator: Adobe Illustrator 21.0.0, SVG Export Plug-In . SVG Version: 6.00 Build 0)  -->
<svg version="1.1" xmlns="http://www.w3.org/2000/svg" xmlns:xlink="http://www.w3.org/1999/xlink" x="0px" y="0px" width="64px"
	 height="64px" viewBox="0 0 64 64" enable-background="new 0 0 64 64" xml:space="preserve">
<g id="Layer_1">
</g>
<g id="Layer_2">
</g>
<g id="messages">
</g>
<g id="messages_x5F_hover">
</g>
<g id="profile">
</g>
<g id="profile_x5F_hover">
</g>
<g id="view_x5F_hover">
</g>
<g id="view_x5F_feedback">
</g>
<g id="no_x5F_feedback_x5F_to_x5F_view">
</g>
<g id="download_x5F_hover">
</g>
<g id="download">
</g>
<g id="no_x5F_feedback_x5F_download">
</g>
<g id="link_x5F_hover">
</g>
<g id="assignment_x5F_link_copy">
</g>
<g id="Layer_21">
</g>
<g id="home_x5F_hover">
</g>
<g id="home_1_">
</g>
<g id="edit_x5F_profile">
</g>
<g id="preferences">
</g>
<g id="notifications">
</g>
<g id="my_x5F_posts">
</g>
<g id="logout">
</g>
<g id="assignment">
</g>
<g id="coursework">
</g>
<g id="forum">
</g>
<g id="quiz">
</g>
<g id="book">
</g>
<g id="database">
</g>
<g id="wiki">
</g>
<g id="choice">
</g>
<g id="workshop">
</g>
<g id="certificate">
</g>
<g id="scheduler">
</g>
<g id="equella">
</g>
<g id="file">
</g>
<g id="folder">
</g>
<g id="ims_x5F_content_x5F_package">
</g>
<g id="label">
</g>
<g id="lightbox_x5F_gallery">
</g>
<g id="nln_x5F_learning_x5F_object">
</g>
<g id="page">
</g>
<g id="subpage">
</g>
<g id="tab_x5F_display">
</g>
<g id="new_x5F_label">
</g>
<g id="url">
</g>
<g id="_x33_60_x5F_degree_x5F_diagnostics">
</g>
<g id="adobe_x5F_connect">
</g>
<g id="attendance_x5F_register">
	<g>
		<g>
			<path fill="#FFFFFF" d="M58.6164169,7.0006881c0,0-0.8985977-0.3193359-2.0660782-0.4264321
				c-3.4272461-0.3142905-7.2317734-0.4890952-11.237957-0.4890952c-4.8341484,0-9.3746758,0.8007813-13.3133144,1.2477212
				c0,0-8.0743809-1.2477212-13.3126621-1.2477212c-4.0061855,0-7.81071,0.1748047-11.237956,0.4890952
				c-0.5818686,0.0533853-2.075521,0.4480791-2.075521,0.4480791c-2.3802083,0.9365234-4.0405273,3.2351894-4.0405273,5.9127607
				l0.0001627,38.3367119c0,1.7804337,0.752116,3.4897461,2.0668945,4.6941719
				c1.3069661,1.1938477,3.0636394,1.7854805,4.8125,1.6355782c7.4816084-0.6468086,16.3095703-0.5548477,23.3308926,0.2394218
				l0.6559258,0.0743828l-0.1992207-0.022625c0.2115879-0.015461,3.3640957-0.3098946,4.951334-0.4542656
				c6.0646172-0.5517578,12.8702812-0.3551407,18.8302422,0.1630859c0.184082,0.015789,0.3655586,0.0237656,0.5496407,0.0237656
				c1.5699883,0,3.1004257-0.5890312,4.2680664-1.6593437c1.3149414-1.2018242,2.0668945-2.9137383,2.0668945-4.6941719V12.9350958
				C62.6657333,10.2321339,61.0138779,7.9201217,58.6164169,7.0006881z M58.625206,51.470211
				c0.0003281,0.8771172-0.5629883,1.604332-1.3388672,1.8681641c0.776207-0.3696289,1.3377304-1.1383438,1.3388672-2.0651016
				V51.470211z"/>
		</g>
		<g opacity="0.3">
			<path fill="#32548C" d="M58.6164551,7.0007629l0.008728,44.4694214c0.0003052,1.1428223-0.9492188,2.0488281-2.0899048,1.9788818
				c-5.3323975-0.3270264-19.3824463-1.0199585-24.5362549,0.3791504
				c-6.7749023-1.2896729-19.4995728-0.6890869-24.5159912-0.3822632c-1.1447144,0.0700684-2.1099854-0.8423462-2.1099854-1.9891968
				L5.3729248,7.0223694c-2.380127,0.9365234-4.0404663,3.2351074-4.0404663,5.9127808l0.0001221,38.3366699
				c0,1.7803345,0.7520752,3.4896851,2.0669556,4.6940918c1.3069458,1.1939087,3.0635986,1.7855835,4.8123779,1.6356812
				c7.4816284-0.6469116,16.3096313-0.5548706,23.3309937,0.2393188l0.6559448,0.0744629l-0.1994019-0.022644
				c0.2116089-0.0155029,3.3642578-0.3099976,4.951355-0.4543457c6.0646362-0.5516357,12.8703613-0.3550415,18.8303833,0.163208
				c0.184082,0.0158081,0.3654785,0.0236816,0.5495605,0.0236816c1.5700073,0,3.1004639-0.5890503,4.2680664-1.6593628
				c1.3148804-1.2017822,2.0670166-2.9137573,2.0670166-4.6940918V12.9351501
				C62.6658325,10.2321472,61.013855,7.9201355,58.6164551,7.0007629z"/>
			<path fill="#32548C" d="M18.6859741,24.5032043c1.9473267,0,3.5259399-2.5968628,3.5259399-4.8258667
				s-1.5786133-3.416626-3.5259399-3.416626s-3.5259399,1.1876221-3.5259399,3.416626S16.7386475,24.5032043,18.6859741,24.5032043z
				"/>
			<path fill="#32548C" d="M13.0614014,30.986969c1.4708862,1.168335,3.4468994,1.8864746,5.6245728,1.8864746
				s4.1536865-0.7181396,5.6245117-1.8864746c0.3873901-0.3076782,0.5910645-0.74646,0.5910645-1.1958618v-0.0253906
				c0-1.7666016-2.0061646-3.12677-4.3857422-3.12677h-3.6254272c-2.3984375,0-4.4199829,1.3716431-4.4199829,3.1521606
				C12.4703979,30.240509,12.6740112,30.6792908,13.0614014,30.986969z"/>
		</g>
		<g>
			<path fill="#32548C" d="M7.979126,54.9062195c7.59375-0.6653442,16.6536865-0.5703125,23.869812,0.2460938
				C31.901001,55.158844,31.9505005,55.1614685,32,55.1614685c0.3255005,0,0.6431885-0.119812,0.8880005-0.338562
				c0.2838745-0.2526245,0.4453125-0.614563,0.4453125-0.994812v-42.020752c0-0.7369995-0.5963745-1.333374-1.333313-1.333374
				c-0.7369995,0-1.333374,0.5963745-1.333374,1.333374V52.346344c-7.1223755-0.6940308-15.6588135-0.7304688-22.921875-0.0963745
				c-0.338501,0.0195313-0.598938-0.1419067-0.7161255-0.2460938c-0.208313-0.1914063-0.322937-0.4505005-0.322937-0.7330322
				V8.8802185c0-0.5039063,0.380249-0.9335938,0.864624-0.9778442C11.078125,7.58078,14.817688,7.4179993,18.6875,7.4179993
				c5.072876,0,13.0286255,1.2213745,13.109375,1.2330933c0.114563,0.0169067,0.234375,0.0195313,0.354126,0.0064697
				c0.9765625-0.1106567,1.989624-0.2434692,3.0338745-0.380188C38.265625,7.8750305,41.755188,7.4179993,45.3125,7.4179993
				c3.8671875,0,7.6067505,0.1627808,11.114563,0.484375c0.4921875,0.0442505,0.864563,0.4648438,0.864563,0.9778442v42.390625
				c0,0.2825317-0.114563,0.5429688-0.322876,0.7330322c-0.1119995,0.104187-0.338562,0.2851563-0.7161865,0.2460938
				c-5.9556885-0.520813-12.776001-0.5950317-18.921875-0.21875c-0.7369385,0.0455933-1.2942505,0.677124-1.25,1.4127808
				c0.0443115,0.7330933,0.671875,1.2838745,1.411499,1.2487183c6.020813-0.3685303,12.708313-0.2955933,18.526001,0.213501
				c1.005249,0.0898438,2.005249-0.2512817,2.7526245-0.9348755c0.755188-0.6914063,1.1875-1.6757813,1.1875-2.7005005V8.8802185
				c0-1.901001-1.4140625-3.4622192-3.286438-3.6340942c-3.588562-0.328125-7.411499-0.494812-11.359375-0.494812
				c-3.7318115,0-7.3125,0.46875-10.473999,0.8828125c-0.9661255,0.1263428-1.90625,0.2487183-2.8125,0.354187
				C30.7734375,5.79953,23.5963135,4.7513123,18.6875,4.7513123c-3.9505615,0-7.7734375,0.166687-11.3619995,0.494812
				c-1.8723755,0.171875-3.286438,1.734375-3.286438,3.6340942v42.390625c0,1.0234375,0.432251,2.0078125,1.1875,2.6992188
				C5.973938,54.653656,6.989563,54.9986877,7.979126,54.9062195z"/>
			<path fill="#32548C" d="M62.666626,11.601593c-0.7369385,0-1.333313,0.5963745-1.333313,1.333313v38.3372192
				c0,1.4088745-0.5963745,2.760437-1.635437,3.7109375c-1.026001,0.9414063-2.401001,1.3984375-3.802063,1.2903442
				c-4.8619995-0.4231567-12.125-0.7929688-19.0651245-0.1627197l-2.5,0.2304688
				c-1.026001,0.0950317-1.973938,0.182251-2.3098755,0.2122192l-0.328125-0.0377808
				c-7.166687-0.8098755-15.989563-0.901001-23.5963745-0.2421875c-1.375,0.1119995-2.770813-0.3528442-3.796875-1.2890625
				c-1.036438-0.953125-1.6328125-2.3059692-1.6328125-3.7122192V12.934906c0-0.7369385-0.5963135-1.333313-1.333313-1.333313
				S0,12.1979675,0,12.934906v38.3372192c0,2.151062,0.9088135,4.2200317,2.5,5.6784058
				c1.5755005,1.4400635,3.7109375,2.1588135,5.8255005,1.979126C15.661438,58.2981873,24.5,58.3866882,31.390625,59.1666565
				l0.6536255,0.072937c0.0026245,0,0.005188,0.0012817,0.005188,0.0012817
				c0.0494995,0.005188,0.1015625,0.0078125,0.151062,0.0078125c0.151062,0,0.296875-0.026062,0.4348755-0.0742188
				c0.46875-0.041687,1.182312-0.1080933,1.9401245-0.1784058l2.494812-0.229126
				c6.7525635-0.6119995,13.8411255-0.2487183,18.598938,0.1627197c2.1223755,0.1914063,4.255188-0.5338135,5.828125-1.979126
				C63.088501,55.497406,64,53.4283752,64,51.2721252V12.934906C64,12.1979675,63.4036255,11.601593,62.666626,11.601593z"/>
			<path fill="#32548C" d="M26.234375,29.790741v-0.0247192c0-2.4867554-2.4846802-4.4362793-5.6637573-4.4588623
				c1.7832642-1.0366211,2.9736328-3.4301147,2.9736328-5.6296997c0-2.796875-1.9973755-4.75-4.859375-4.75
				s-4.859375,1.953125-4.859375,4.75c0,2.2005615,1.1915283,4.5952759,2.9761353,5.6310425
				c-3.1833496,0.0362549-5.6636353,1.9900513-5.6636353,4.4822388c0,0.8737183,0.3984375,1.6888428,1.0963745,2.2409058
				c1.7630005,1.401062,4.0546875,2.1744995,6.4505005,2.1744995c2.3932495,0,4.6848755-0.770874,6.453125-2.1744995
				C25.8359375,31.4795837,26.234375,30.6644592,26.234375,29.790741z M18.6848755,17.5941467
				c0.6588745,0,2.192688,0.203125,2.192688,2.083313c0,1.6315308-1.1692505,3.4921875-2.192688,3.4921875
				s-2.192688-1.8606567-2.192688-3.4921875C16.4921875,17.7972717,18.026001,17.5941467,18.6848755,17.5941467z
				 M23.4817505,29.9430847c-2.598938,2.057312-6.911438,2.2109375-9.677063-0.1523438
				c0-0.96875,1.442688-1.8189697,3.0859375-1.8189697h3.625c1.625,0,3.052063,0.838501,3.052063,1.7942505L23.4817505,29.9430847z"
				/>
			<path fill="#32548C" d="M22.208313,36.7452087l-4.8151245,5.338501l-2.395813-2.6536255
				c-0.494812-0.546875-1.3359375-0.5911255-1.8828125-0.0963745c-0.546875,0.4921875-0.5911255,1.3359375-0.0963745,1.8828125
				l2.729187,3.026062c0.4244995,0.46875,1.020813,0.739563,1.640625,0.739563h0.0026245
				c0.619751,0,1.21875-0.2681885,1.645813-0.739563l5.151062-5.7109375c0.494751-0.546875,0.4505005-1.390625-0.0963745-1.8828125
				C23.546875,36.1514587,22.7005005,36.2008972,22.208313,36.7452087z"/>
			<path fill="#32548C" d="M48.963501,36.6957092c-0.520813-0.520813-1.364563-0.520813-1.885376,0l-2.0625,2.0625l-2.0625-2.0625
				c-0.520874-0.520813-1.364624-0.520813-1.885437,0s-0.520813,1.364563,0,1.885437l2.0625,2.0625l-2.0625,2.0625
				c-0.520813,0.520813-0.520813,1.364563,0,1.885376c0.260437,0.260437,0.6015625,0.390625,0.942688,0.390625
				c0.3411865,0,0.682312-0.130188,0.942749-0.390625l2.0625-2.0625l2.0625,2.0625
				c0.260376,0.260437,0.6015625,0.390625,0.942688,0.390625s0.682312-0.130188,0.942688-0.390625
				c0.520874-0.520813,0.520874-1.364563,0-1.885376l-2.0625-2.0625l2.0625-2.0625
				C49.484375,38.0602722,49.484375,37.2165222,48.963501,36.6957092z"/>
			<path fill="#32548C" d="M37.7630005,29.790741c0,0.8737183,0.3984375,1.6888428,1.0963745,2.2409058
				c1.7681885,1.4036255,4.0598755,2.1744995,6.453125,2.1744995c2.3931885,0,4.6848755-0.770874,6.453125-2.1744995
				c0.697876-0.552063,1.0963135-1.3671875,1.0963135-2.2409058v-0.0247192c0-2.4867554-2.4846191-4.4362793-5.6636963-4.4588623
				c1.7832642-1.0365601,2.9736328-3.4301147,2.9736328-5.6296997c0-2.796875-1.9974365-4.75-4.859375-4.75
				c-2.8619995,0-4.859375,1.953125-4.859375,4.75c0,2.2005005,1.1914063,4.5950928,2.9759521,5.6309204
				C40.2446289,25.3437195,37.7630005,27.2979431,37.7630005,29.790741z M45.3125,17.5941467
				c0.6588135,0,2.192688,0.203125,2.192688,2.083313c0,1.6315308-1.1692505,3.4921875-2.192688,3.4921875
				s-2.192749-1.8606567-2.192749-3.4921875C43.119751,17.7972717,44.6536255,17.5941467,45.3125,17.5941467z M43.515625,27.9717712
				h3.6275635c1.625,0,3.052124,0.838501,3.052124,1.7942505l-0.0859375,0.177063
				c-2.598999,2.057312-6.9088745,2.2109375-9.6796875-0.1523438C40.4296875,28.821991,41.8723755,27.9717712,43.515625,27.9717712z
				"/>
		</g>
	</g>
</g>
<g id="booking">
</g>
<g id="chat">
</g>
<g id="checklist">
</g>
<g id="external_x5F_tool">
</g>
<g id="face_x5F_to_x5F_face">
</g>
<g id="forumNG">
</g>
<g id="glossary">
</g>
<g id="group_x5F_choice">
</g>
<g id="journal">
</g>
<g id="mediasite_x5F_content">
</g>
<g id="nanogong_x5F_voice">
</g>
<g id="questionnaire">
</g>
<g id="scorm_x5F_package">
</g>
<g id="survey">
</g>
<g id="tutorship">
</g>
<g id="advanced_x5F_forum">
</g>
<g id="subcourse">
</g>
<g id="lesson_1_">
</g>
<g id="adaptive_x5F_quiz">
</g>
<g id="ou_x5F_wiki">
</g>
<g id="support_x5F_tracker">
</g>
<g id="view_x5F_comments">
</g>
<g id="no_x5F_comment">
</g>
<g id="attention">
</g>
<g id="search">
</g>
<g id="submitted">
</g>
<g id="feedback">
</g>
<g id="dnd_x5F_arrow">
</g>
</svg>
