<?xml version="1.0" encoding="utf-8"?>
<!-- Generator: Adobe Illustrator 21.0.0, SVG Export Plug-In . SVG Version: 6.00 Build 0)  -->
<svg version="1.1" xmlns="http://www.w3.org/2000/svg" xmlns:xlink="http://www.w3.org/1999/xlink" x="0px" y="0px" width="64px"
	 height="64px" viewBox="0 0 64 64" enable-background="new 0 0 64 64" xml:space="preserve">
<g id="Layer_1">
</g>
<g id="Layer_2">
	<g>
		<g>
			<path fill="#FFFFFF" d="M55.3684692,23.3684902c0-1.6875-0.8203125-3.2434692-2.1223755-4.2265625
				c0.828125-1.4075317,0.989563-3.1575327,0.34375-4.7161264c-0.645813-1.5599365-1.9973755-2.6835938-3.578125-3.0924683
				c0.2265625-1.6171875-0.2942505-3.2955933-1.489563-4.4882808c-1.192749-1.1940308-2.869812-1.71875-4.4869995-1.4882813
				c-0.4088745-1.5807498-1.5338745-2.9323123-3.09375-3.578125c-1.5598755-0.6471558-3.3098755-0.484375-4.7161255,0.3450316
				c-0.9818115-1.3046875-2.5390625-2.1236572-4.2265625-2.1236572s-3.2421875,0.8189697-4.223999,2.1236572
				c-1.4088135-0.8294066-3.1640625-0.9921874-4.71875-0.3450316c-1.5598755,0.6458129-2.682251,1.9987181-3.0911255,3.578125
				c-1.6276245-0.2278442-3.2942505,0.2955933-4.489563,1.4882813c-1.192749,1.1926875-1.713562,2.872375-1.4869995,4.4882808
				c-1.5807495,0.4088745-2.932312,1.5325317-3.578125,3.0924683c-0.645813,1.5598755-0.484375,3.3098764,0.34375,4.7161264
				c-1.302063,0.9830933-2.1223755,2.5390625-2.1223755,4.2265625s0.8203125,3.2421875,2.1223755,4.2252808
				c-0.828125,1.4075317-0.989563,3.1575317-0.34375,4.7174053c0.645813,1.5585938,1.9973755,2.6835938,3.578125,3.0924683
				c-0.2265625,1.614563,0.2942505,3.2942505,1.4869995,4.489563c1.1925049,1.1873779,2.8520508,1.699585,4.4785156,1.4871826
				l-7.2415771,18.4868164c-0.145813,0.3723755-0.1171875,0.791626,0.0807495,1.140625
				c0.1953125,0.3463135,0.536438,0.5911255,0.9296875,0.6588135l13.114563,2.3125
				c0.078125,0.015625,0.15625,0.0208778,0.2318115,0.0208778c0.5859375,0,1.114563-0.3854408,1.28125-0.9635658l2.208313-7.640625
				c0.203125-0.7057495-0.203125-1.4453125-0.911438-1.651062c-0.0093994-0.0028076-0.0187378-0.0028076-0.0281372-0.0053711
				l1.6862793-5.9054565l4.3418579,15.1998901c0.1640625,0.5807495,0.6953125,0.9661903,1.28125,0.9661903
				c0.0755005,0,0.1536255-0.0052528,0.2317505-0.0208778l13.1171875-2.3125
				c0.3932495-0.067688,0.734375-0.3125,0.9296875-0.6588135c0.197937-0.348999,0.2265625-0.7682495,0.0807495-1.140625
				l-5-12.7630615c-0.2681885-0.687439-1.0361938-1.0231934-1.7289429-0.755249l-1.2883911-3.2892456
				c0.3480835-0.5092773,0.6089478-1.0772705,0.7647095-1.6794434c1.6015625,0.2213745,3.291687-0.2942505,4.4869995-1.4869995
				c1.1953125-1.192688,1.7161255-2.8723755,1.489563-4.489563c1.5807495-0.4088745,2.932312-1.5338745,3.578125-3.0924683
				c0.645813-1.5585918,0.484375-3.3098736-0.3463745-4.7174053C54.5481567,26.6119595,55.3684692,25.0559902,55.3684692,23.3684902
				z"/>
		</g>
		<g>
			<path fill="#CCCCCC" d="M42.6362305,41.4405937l-2.7368164,0.9975586
				c-1.0563164,0.4329414-2.2869453,0.1061172-3.000164-0.7923203c-0.3240547-0.4109688-0.8603516-0.6124649-1.3640938-0.5008125
				c-0.5117188,0.10075-0.9256172,0.4817696-1.0672188,0.9855156c-0.1796875,0.6233711-0.5799179,1.1542969-1.1271172,1.4973946
				c-0.3776054,0.2333984-0.9578438,0.4433594-1.3883457,0.4453125l-1.2039394,1.1194649
				c-1.2348633-0.4143867-2.1966152-1.4179688-2.5571289-2.6801758c-1.0761719,1.355957-2.9453125,1.9086914-4.6243496,1.2132187
				c-1.0642891-0.440918-1.7820625-1.3084335-2.1481113-2.3097343l-0.0561523,0.0245781l-7.4085283,18.9134102l13.1155596,2.312664
				l4.7106113-16.4967461h0.8821621c1.2636719,4.887207,4.2667656,16.4967461,4.2667656,16.4967461l13.1153946-2.312664
				L42.6362305,41.4405937z"/>
			<circle fill="#CCCCCC" cx="31.9995117" cy="23.3681641" r="9.2750654"/>
		</g>
		<g>
			<path fill="#545157" d="M55.3684883,23.3684902c0-1.6875-0.8203125-3.2434902-2.1223946-4.2265625
				c0.828125-1.4075527,0.9895821-3.1575527,0.34375-4.7161465c-0.6458321-1.5598955-1.9973946-2.6835938-3.578125-3.0924482
				c0.2265625-1.6171875-0.2942696-3.2955723-1.4895821-4.4882808c-1.1927109-1.1940107-2.8697929-1.71875-4.4869804-1.4882813
				c-0.4088554-1.5807292-1.5338554-2.9322917-3.09375-3.578125c-1.5598946-0.6471355-3.3098946-0.484375-4.7161446,0.3450521
				C35.2434883,0.8190104,33.6861992,0,31.9986973,0c-1.6875,0-3.2421875,0.8190104-4.2239571,2.123698
				c-1.4088554-0.8294271-3.1640625-0.9921876-4.71875-0.3450521c-1.5598965,0.6458334-2.6822929,1.9986979-3.0911465,3.578125
				c-1.6276035-0.2278647-3.2942715,0.2955728-4.489583,1.4882813c-1.192709,1.1927085-1.713542,2.872396-1.4869795,4.4882808
				c-1.5807295,0.4088545-2.932292,1.5325527-3.578125,3.0924482s-0.484375,3.3098965,0.34375,4.7161465
				C9.4518232,20.125,8.6315107,21.6809902,8.6315107,23.3684902s0.8203125,3.2421875,2.1223955,4.2252598
				c-0.828125,1.4075527-0.989583,3.1575527-0.34375,4.7174492c0.645833,1.5585938,1.9973955,2.6835938,3.578125,3.0924454
				c-0.2265625,1.6145859,0.2942705,3.2942734,1.4869795,4.4895859c1.1925459,1.187336,2.8520498,1.699543,4.4785147,1.4871407
				l-7.2415361,18.4868164c-0.145833,0.3723946-0.1171875,0.7916679,0.0807295,1.140625
				c0.1953125,0.3463554,0.536458,0.5911446,0.9296875,0.6588554l13.114584,2.3125
				C26.9153652,63.9947929,26.9934902,64,27.0690098,64c0.5859375,0,1.114584-0.3854179,1.28125-0.9635429l2.208334-7.640625
				c0.203125-0.7057266-0.203125-1.4453125-0.911459-1.6510391c-0.7057285-0.2109375-1.4453125,0.203125-1.651041,0.9114571
				l-1.875,6.4895821l-10.3307295-1.8229141l5.9505205-15.1888046c0.3956718,0.328289,0.8240566,0.6209335,1.3151054,0.8242188
				c1.5598946,0.6484375,3.3098946,0.484375,4.71875-0.34375c0.776041,1.03125,1.9140625,1.7578125,3.1875,2.0182304
				l4.6848965,16.4010429C35.8111992,63.6145821,36.3424492,64,36.9283867,64c0.0755196,0,0.1536446-0.0052071,0.2317696-0.0208321
				l13.1171875-2.3125c0.3932304-0.0677109,0.734375-0.3125,0.9296875-0.6588554
				c0.1979179-0.3489571,0.2265625-0.7682304,0.0807304-1.140625l-5-12.7630196
				c-0.2682304-0.6875-1.0364609-1.0234375-1.7291679-0.7552109c-0.6848946,0.2682304-1.0234375,1.0416679-0.7552071,1.7291679
				l4.40625,11.2447929l-10.328125,1.8229141l-4.6015625-16.109375c-0.1614609-0.5703125-0.6848984-0.9661446-1.2812519-0.9661446
				c-1.1614571,0-2.2005196-0.7916679-2.526041-1.9244804c-0.1380215-0.4791641-0.53125-0.84375-1.020834-0.9401016
				c-0.5-0.0989609-0.994791,0.0885391-1.3046875,0.4791641c-0.7317696,0.9244804-1.9869785,1.2578125-3.0703125,0.8098984
				c-1.0755196-0.4453125-1.7317696-1.5729179-1.5963535-2.7421875c0.057291-0.4973984-0.1692715-0.984375-0.5859375-1.2630234
				c-0.4140625-0.2786446-0.953125-0.3020821-1.3880215-0.0546875C19.4830723,39,18.1861973,38.8307304,17.3606777,38.0078125
				c-0.8229179-0.8229179-0.9973965-2.1197929-0.4244804-3.1484375c0.2421875-0.4361992,0.21875-0.9726563-0.057291-1.3880196
				c-0.2786465-0.4140625-0.75-0.6484375-1.2630205-0.5833359c-1.1536465,0.1354179-2.296875-0.5208321-2.7421875-1.5976543
				c-0.4453125-1.0755215-0.1119795-2.3372402,0.8098955-3.0703125c0.3932295-0.3111992,0.578125-0.8138027,0.479167-1.3046875
				c-0.0963545-0.489584-0.4609375-0.8841152-0.9401045-1.0221367c-1.1328125-0.322916-1.9244795-1.3619785-1.9244795-2.5247383
				c0-1.1640625,0.791667-2.203125,1.9244795-2.5260429c0.479167-0.1380196,0.84375-0.5325508,0.9401045-1.0234375
				c0.098958-0.4895821-0.088542-0.9934883-0.479167-1.3033848c-0.921875-0.7317715-1.255208-1.9934902-0.8098955-3.0690107
				c0.4453125-1.0768223,1.588541-1.7252598,2.7421875-1.598958c0.5234365,0.0742188,0.9869795-0.1679688,1.2630205-0.583333
				C17.1549473,12.848958,17.1783848,12.3125,16.9335938,11.875c-0.5703125-1.0286455-0.395834-2.3216143,0.427084-3.1445313
				c0.822916-0.8229165,2.1145821-0.997396,3.1458321-0.427083c0.4348965,0.2408848,0.973959,0.2213535,1.3880215-0.057292
				c0.416666-0.2773438,0.6432285-0.7643228,0.5859375-1.2604165c-0.135416-1.169271,0.520834-2.2981772,1.5963535-2.7434897
				c1.0703125-0.4427083,2.3385429-0.111979,3.0703125,0.809896c0.3098965,0.390625,0.7994804,0.578125,1.3046875,0.4791665
				c0.489584-0.096354,0.8828125-0.4596353,1.020834-0.940104c0.3255215-1.1328127,1.364584-1.9244792,2.526041-1.9244792
				c1.1640644,0,2.2031269,0.7916665,2.5286465,1.9244792c0.1380196,0.4804688,0.53125,0.84375,1.0208321,0.940104
				c0.5026054,0.1028647,0.9947929-0.0859375,1.3046875-0.4791665c0.734375-0.921875,2-1.248698,3.0677109-0.809896
				c1.0755196,0.4453125,1.734375,1.5742188,1.5989571,2.7434897C41.4622383,7.481771,41.6888008,7.96875,42.1054688,8.2460938
				c0.4140625,0.2786455,0.9505196,0.2981768,1.3880196,0.057292c1.03125-0.570313,2.3203125-0.3958335,3.1432304,0.4283848
				c0.8255196,0.8216152,1,2.114584,0.4296875,3.1432295c-0.2447929,0.4375-0.2213554,0.973958,0.0546875,1.3893232
				c0.2760429,0.4140625,0.7421875,0.6484375,1.2630196,0.583333c1.171875-0.1236982,2.296875,0.5221357,2.7421875,1.598958
				c0.4453125,1.0742197,0.1119804,2.3359385-0.8098946,3.0690107c-0.3932304,0.3111973-0.578125,0.8151035-0.4791679,1.3046875
				c0.0963554,0.489584,0.4609375,0.8841152,0.9401054,1.0221348c1.1328125,0.3229179,1.9244804,1.3619804,1.9244804,2.5260429
				c0,1.1627598-0.7916679,2.2018223-1.9244804,2.5247383c-0.4791679,0.1380215-0.84375,0.53125-0.9401054,1.0221367
				c-0.0989571,0.4895821,0.0859375,0.9934883,0.4765625,1.3033848c0.9244804,0.734375,1.2578125,1.9973965,0.8125,3.0716152
				c-0.4453125,1.0742168-1.5598946,1.7356777-2.7421875,1.5976543c-0.5130196-0.0559883-0.984375,0.1705742-1.2630196,0.5833359
				c-0.2760429,0.4153633-0.2994804,0.9518204-0.0572929,1.3880196c0.5807304,1.046875,0.4088554,2.3125-0.4270821,3.1484375
				c-0.8229179,0.8229179-2.1119804,1-3.1432304,0.4270821c-0.4375-0.2473946-0.9739571-0.2239571-1.3880196,0.0546875
				c-0.4166679,0.2786484-0.6432304,0.765625-0.5859375,1.2630234c0.1354179,1.1692696-0.5208321,2.296875-1.5963554,2.7421875
				c-0.421875,0.171875-0.8776016,0.2317696-1.3255196,0.1770821c-0.3567696-0.0442696-0.6953125-0.1614571-1.0052071-0.34375
				c-0.6354179-0.3697929-1.4479179-0.1640625-1.8255234,0.4713554c-0.375,0.6328125-0.1640625,1.4505196,0.4713554,1.8255196
				c0.625,0.3697929,1.3072929,0.6015625,2.0260429,0.6927071c0.8984375,0.1197929,1.828125-0.0052071,2.6770821-0.359375
				c1.5598946-0.6458321,2.6848946-1.9973946,3.09375-3.578125c1.6015625,0.2213554,3.2916679-0.2942696,4.4869804-1.4869766
				c1.1953125-1.1927109,1.7161446-2.8723984,1.4895821-4.4895859c1.5807304-0.4088516,2.9322929-1.5338516,3.578125-3.0924454
				c0.6458321-1.5585957,0.484375-3.3098965-0.3463554-4.7174492
				C54.5481758,26.6119785,55.3684883,25.0559902,55.3684883,23.3684902z"/>
			<path fill="#545157" d="M29.3606777,15.8450518c3.5390606-1.244791,7.510416,0.1861982,9.442709,3.4036455
				c0.3802071,0.6328125,1.203125,0.8359375,1.8307266,0.4570313c0.6302109-0.3789063,0.8359375-1.197916,0.4557304-1.8294258
				c-2.5833321-4.2981777-7.8880196-6.2122402-12.614584-4.546876c-2.6588535,0.9335938-4.7994785,2.8619795-6.03125,5.427083
				c-1.229166,2.5651054-1.3932285,5.4414063-0.4583321,8.1002617c1.5338535,4.3580723,5.6432285,7.088541,10.0182285,7.088541
				c1.1666679,0,2.3489571-0.1927071,3.5104179-0.6015625c4.0729141-1.432291,6.9192696-5.2942715,7.0807266-9.6106777
				c0.0260429-0.7356758-0.546875-1.354166-1.2838516-1.3815098c-0.7057304-0.0755215-1.3541679,0.5481777-1.3828125,1.2825565
				c-0.1197929,3.2317657-2.25,6.1223907-5.2994804,7.194006c-4.1223965,1.453125-8.6744785-0.7265625-10.1276035-4.8567715
				c-0.6979179-1.9856758-0.5755215-4.1380196,0.3489571-6.0611973
				C25.7721348,17.9869785,27.3736973,16.5429688,29.3606777,15.8450518z"/>
		</g>
	</g>
</g>
<g id="messages">
</g>
<g id="messages_x5F_hover">
</g>
<g id="profile">
</g>
<g id="profile_x5F_hover">
</g>
<g id="view_x5F_hover">
</g>
<g id="view_x5F_feedback">
</g>
<g id="no_x5F_feedback_x5F_to_x5F_view">
</g>
<g id="download_x5F_hover">
</g>
<g id="download">
</g>
<g id="no_x5F_feedback_x5F_download">
</g>
<g id="link_x5F_hover">
</g>
<g id="assignment_x5F_link_copy">
</g>
<g id="Layer_21">
</g>
<g id="home_x5F_hover">
</g>
<g id="home_1_">
</g>
<g id="edit_x5F_profile">
</g>
<g id="preferences">
</g>
<g id="notifications">
</g>
<g id="my_x5F_posts">
</g>
<g id="logout">
</g>
<g id="assignment">
</g>
<g id="coursework">
</g>
<g id="forum">
</g>
<g id="quiz">
</g>
<g id="book">
</g>
<g id="database">
</g>
<g id="wiki">
</g>
<g id="choice">
</g>
<g id="workshop">
</g>
<g id="certificate">
</g>
<g id="scheduler">
</g>
<g id="equella">
</g>
<g id="file">
</g>
<g id="folder">
</g>
<g id="ims_x5F_content_x5F_package">
</g>
<g id="label">
</g>
<g id="lightbox_x5F_gallery">
</g>
<g id="nln_x5F_learning_x5F_object">
</g>
<g id="page">
</g>
<g id="subpage">
</g>
<g id="tab_x5F_display">
</g>
<g id="new_x5F_label">
</g>
<g id="url">
</g>
<g id="_x33_60_x5F_degree_x5F_diagnostics">
</g>
<g id="adobe_x5F_connect">
</g>
<g id="attendance_x5F_register">
</g>
<g id="booking">
</g>
<g id="chat">
</g>
<g id="checklist">
</g>
<g id="external_x5F_tool">
</g>
<g id="face_x5F_to_x5F_face">
</g>
<g id="forumNG">
</g>
<g id="glossary">
</g>
<g id="group_x5F_choice">
</g>
<g id="journal">
</g>
<g id="mediasite_x5F_content">
</g>
<g id="nanogong_x5F_voice">
</g>
<g id="questionnaire">
</g>
<g id="scorm_x5F_package">
</g>
<g id="survey">
</g>
<g id="tutorship">
</g>
<g id="advanced_x5F_forum">
</g>
<g id="subcourse">
</g>
<g id="lesson_1_">
</g>
<g id="adaptive_x5F_quiz">
</g>
<g id="ou_x5F_wiki">
</g>
<g id="support_x5F_tracker">
</g>
<g id="view_x5F_comments">
</g>
<g id="no_x5F_comment">
</g>
<g id="attention">
</g>
<g id="search">
</g>
<g id="submitted">
</g>
<g id="feedback">
</g>
<g id="dnd_x5F_arrow">
</g>
</svg>
