<?xml version="1.0" encoding="utf-8"?>
<!-- Generator: Adobe Illustrator 21.0.0, SVG Export Plug-In . SVG Version: 6.00 Build 0)  -->
<svg version="1.1" xmlns="http://www.w3.org/2000/svg" xmlns:xlink="http://www.w3.org/1999/xlink" x="0px" y="0px" width="64px"
	 height="64px" viewBox="0 0 64 64" enable-background="new 0 0 64 64" xml:space="preserve">
<g id="Layer_1">
</g>
<g id="Layer_2">
</g>
<g id="messages">
</g>
<g id="messages_x5F_hover">
</g>
<g id="profile">
</g>
<g id="profile_x5F_hover">
</g>
<g id="view_x5F_hover">
</g>
<g id="view_x5F_feedback">
</g>
<g id="no_x5F_feedback_x5F_to_x5F_view">
</g>
<g id="download_x5F_hover">
</g>
<g id="download">
</g>
<g id="no_x5F_feedback_x5F_download">
</g>
<g id="link_x5F_hover">
</g>
<g id="assignment_x5F_link_copy">
</g>
<g id="Layer_21">
</g>
<g id="home_x5F_hover">
</g>
<g id="home_1_">
</g>
<g id="edit_x5F_profile">
</g>
<g id="preferences">
</g>
<g id="notifications">
</g>
<g id="my_x5F_posts">
</g>
<g id="logout">
</g>
<g id="assignment">
</g>
<g id="coursework">
</g>
<g id="forum">
</g>
<g id="quiz">
</g>
<g id="book">
</g>
<g id="database">
</g>
<g id="wiki">
</g>
<g id="choice">
</g>
<g id="workshop">
</g>
<g id="certificate">
</g>
<g id="scheduler">
</g>
<g id="equella">
</g>
<g id="file">
</g>
<g id="folder">
</g>
<g id="ims_x5F_content_x5F_package">
</g>
<g id="label">
</g>
<g id="lightbox_x5F_gallery">
</g>
<g id="nln_x5F_learning_x5F_object">
</g>
<g id="page">
</g>
<g id="subpage">
</g>
<g id="tab_x5F_display">
</g>
<g id="new_x5F_label">
</g>
<g id="url">
</g>
<g id="_x33_60_x5F_degree_x5F_diagnostics">
</g>
<g id="adobe_x5F_connect">
</g>
<g id="attendance_x5F_register">
</g>
<g id="booking">
</g>
<g id="chat">
</g>
<g id="checklist">
</g>
<g id="external_x5F_tool">
</g>
<g id="face_x5F_to_x5F_face">
</g>
<g id="forumNG">
</g>
<g id="glossary">
</g>
<g id="group_x5F_choice">
</g>
<g id="journal">
</g>
<g id="mediasite_x5F_content">
</g>
<g id="nanogong_x5F_voice">
</g>
<g id="questionnaire">
</g>
<g id="scorm_x5F_package">
</g>
<g id="survey">
</g>
<g id="tutorship">
</g>
<g id="advanced_x5F_forum">
</g>
<g id="subcourse">
</g>
<g id="lesson_1_">
</g>
<g id="adaptive_x5F_quiz">
</g>
<g id="ou_x5F_wiki">
</g>
<g id="support_x5F_tracker">
</g>
<g id="view_x5F_comments">
</g>
<g id="no_x5F_comment">
</g>
<g id="attention">
</g>
<g id="search">
	<g>
		<g>
			<path fill="#FFFFFF" d="M37.2745247,36.2806053l23.6007195,19.5765419
				c1.4628906,1.2356491,1.5563011,3.4580536,0.2022591,4.8120956l-1.0397301,1.0397263
				c-1.3540421,1.3540459-3.5764465,1.2606354-4.8120918-0.2022552L35.7402534,37.8173943l-0.0548477-0.0674362
				c-8.0857162,6.7300949-20.1174068,6.3028069-27.7020721-1.2818565c-8.0374594-8.0374603-8.0374594-21.0687561,0-29.1062145
				s21.0687561-8.0374594,29.1062126,0c7.4714317,7.4714298,7.9976006,19.2580929,1.5785027,27.3373127L37.2745247,36.2806053z"/>
		</g>
		<g opacity="0.3">
			<g>
				<path fill="#545157" d="M7.9832869,7.3619337c-8.0374613,8.0374613-8.0374613,21.0685654,0,29.1060257
					s21.0687065,8.0376015,29.1061668,0.0001411s8.0374603-21.0688477,0-29.106308S16.0207481-0.6755273,7.9832869,7.3619337z
					 M33.3307037,32.7093506c-5.961565,5.9615669-15.6271019,5.9614258-21.5886669-0.0001411s-5.9615655-15.6269608,0-21.5885258
					s15.6271019-5.9617066,21.5886669-0.0001411S39.2922707,26.7477856,33.3307037,32.7093506z"/>
			</g>
		</g>
		<g>
			<path fill="#545157" d="M22.5353661,38.5052071c-4.25,0-8.5-1.6171875-11.7369785-4.8528633
				c-6.4713545-6.4726563-6.4713545-17.0026035,0-23.4739571c6.026041-6.0312505,15.5677071-6.53125,22.1744785-1.1705732
				c0.5729179,0.463542,0.6614571,1.302083,0.1979179,1.875c-0.4661484,0.5716143-1.3125019,0.6588545-1.8750019,0.1953125
				C25.7437,6.5794272,17.7437,7.0039063,12.6838036,12.0638018c-5.4322915,5.4309893-5.4322915,14.270833,0,19.703125
				c5.432291,5.4296856,14.270834,5.432291,19.703125,0c4.6015625-4.6015625,5.421875-11.6692715,1.9973946-17.1888027
				c-0.3880196-0.6263018-0.1953125-1.447917,0.4296875-1.8359375c0.6223984-0.3828125,1.4479179-0.1953125,1.8359375,0.4296875
				c4.0807304,6.5768223,3.1041679,14.9986973-2.3776016,20.4804688
				C31.0379696,36.8880196,26.7879696,38.5052071,22.5353661,38.5052071z"/>
		</g>
		<g>
			<path fill="#545157" d="M57.7228661,64c-0.0625,0-0.1276054-0.0013008-0.1901054-0.0039063
				c-1.2838516-0.0533867-2.4947891-0.6471367-3.3255196-1.6289063L35.483284,39.6028633
				c-8.692709,6.4010429-20.6953125,5.5520859-28.442709-2.1914063c-8.5442705-8.5442696-8.5442705-22.4479141,0-30.9921856
				C11.1785955,2.279948,16.6812,0,22.5353661,0s11.3567696,2.279948,15.4973946,6.419271
				c7.8802109,7.8802085,8.6041679,20.3958321,1.6796875,29.1093731c-0.4583321,0.5794296-1.2942696,0.6692734-1.875,0.2148438
				c-0.5755196-0.4583321-0.671875-1.296875-0.2135391-1.8736954c6.0807266-7.6523457,5.4453125-18.6432304-1.4765625-25.5651054
				c-3.6354179-3.6354165-8.4713554-5.6380205-13.6119804-5.6380205S12.561408,4.669271,8.9259911,8.3046875
				c-7.502604,7.505208-7.502604,19.7161465,0,27.2213554c7.078125,7.0794258,18.2161465,7.5989571,25.90625,1.1992188
				c0.2760429-0.2291679,0.65625-0.3359375,0.984375-0.3020859c0.3567696,0.0351563,0.6822929,0.2109375,0.90625,0.4895859
				l19.53125,23.7473946c0.34375,0.4049492,0.8411446,0.6484375,1.3880196,0.671875
				c0.5416679,0.0039063,1.0651054-0.1783867,1.453125-0.5664063l1.0390625-1.0390625
				c0.3880234-0.3880196,0.5885429-0.9036446,0.5651054-1.4518242c-0.0208321-0.5481758-0.265625-1.0455704-0.6848946-1.3997383
				L39.8869286,40.3190117c-0.5703125-0.4674492-0.6510429-1.3085938-0.1822929-1.8763046
				c0.4661484-0.5703125,1.3098984-0.6510391,1.875-0.1835938l20.1432304,16.5677109
				c0.9947929,0.8411446,1.5885429,2.0533829,1.640625,3.3372383c0.0546875,1.2825508-0.4348946,2.5403633-1.34375,3.4479179
				l-1.0390625,1.0390625C60.1160965,63.5143242,58.9390106,64,57.7228661,64z"/>
		</g>
	</g>
</g>
<g id="submitted">
</g>
<g id="feedback">
</g>
<g id="dnd_x5F_arrow">
</g>
</svg>
