<?xml version="1.0" encoding="utf-8"?>
<!-- Generator: Adobe Illustrator 21.0.0, SVG Export Plug-In . SVG Version: 6.00 Build 0)  -->
<svg version="1.1" xmlns="http://www.w3.org/2000/svg" xmlns:xlink="http://www.w3.org/1999/xlink" x="0px" y="0px" width="64px"
	 height="64px" viewBox="0 0 64 64" enable-background="new 0 0 64 64" xml:space="preserve">
<g id="Layer_1">
</g>
<g id="Layer_2">
</g>
<g id="messages">
</g>
<g id="messages_x5F_hover">
</g>
<g id="profile">
</g>
<g id="profile_x5F_hover">
</g>
<g id="view_x5F_hover">
</g>
<g id="view_x5F_feedback">
</g>
<g id="no_x5F_feedback_x5F_to_x5F_view">
</g>
<g id="download_x5F_hover">
</g>
<g id="download">
</g>
<g id="no_x5F_feedback_x5F_download">
</g>
<g id="link_x5F_hover">
</g>
<g id="assignment_x5F_link_copy">
</g>
<g id="Layer_21">
</g>
<g id="home_x5F_hover">
</g>
<g id="home_1_">
</g>
<g id="edit_x5F_profile">
</g>
<g id="preferences">
</g>
<g id="notifications">
</g>
<g id="my_x5F_posts">
</g>
<g id="logout">
</g>
<g id="assignment">
</g>
<g id="coursework">
</g>
<g id="forum">
</g>
<g id="quiz">
</g>
<g id="book">
</g>
<g id="database">
</g>
<g id="wiki">
</g>
<g id="choice">
</g>
<g id="workshop">
</g>
<g id="certificate">
</g>
<g id="scheduler">
</g>
<g id="equella">
</g>
<g id="file">
</g>
<g id="folder">
</g>
<g id="ims_x5F_content_x5F_package">
</g>
<g id="label">
</g>
<g id="lightbox_x5F_gallery">
</g>
<g id="nln_x5F_learning_x5F_object">
</g>
<g id="page">
</g>
<g id="subpage">
</g>
<g id="tab_x5F_display">
</g>
<g id="new_x5F_label">
</g>
<g id="url">
</g>
<g id="_x33_60_x5F_degree_x5F_diagnostics">
</g>
<g id="adobe_x5F_connect">
</g>
<g id="attendance_x5F_register">
</g>
<g id="booking">
</g>
<g id="chat">
</g>
<g id="checklist">
</g>
<g id="external_x5F_tool">
</g>
<g id="face_x5F_to_x5F_face">
</g>
<g id="forumNG">
</g>
<g id="glossary">
</g>
<g id="group_x5F_choice">
</g>
<g id="journal">
</g>
<g id="mediasite_x5F_content">
</g>
<g id="nanogong_x5F_voice">
</g>
<g id="questionnaire">
</g>
<g id="scorm_x5F_package">
</g>
<g id="survey">
</g>
<g id="tutorship">
</g>
<g id="advanced_x5F_forum">
</g>
<g id="subcourse">
</g>
<g id="lesson_1_">
	<g>
		<g>
			<g>
				<circle fill="#FFFFFF" cx="51.7154808" cy="12.2978458" r="10.9449291"/>
			</g>
			<g>
				<circle fill="#FFFFFF" cx="51.7154808" cy="51.7070541" r="10.9448881"/>
			</g>
			<g>
				<path fill="#FFFFFF" d="M19.3855247,21.0714951V8.602273L1.3335578,14.6849632l16.5649815,6.5364189
					c-5.3340712,0.7316933-9.4578218,5.2596989-9.4578218,10.7950821c0,6.0446091,4.9001989,10.944809,10.944808,10.944809
					c6.0447712,0,10.9449692-4.9001999,10.9449692-10.944809C30.3304939,25.971693,25.4302959,21.0714951,19.3855247,21.0714951z"/>
			</g>
		</g>
		<g opacity="0.3">
			<g>
				<circle fill="#32548C" cx="51.7155151" cy="12.2978411" r="10.9448948"/>
			</g>
		</g>
		<g opacity="0.3">
			<g>
				<polygon fill="#32548C" points="19.3855991,21.8081474 19.3855991,8.6022215 1.3335578,14.6849117 				"/>
			</g>
		</g>
		<g>
			<path fill="#32548C" d="M49.0003662,16.7197056c0.260437,0.260376,0.6015015,0.390564,0.942627,0.390564
				s0.682251-0.130188,0.942627-0.390564l6.9575806-6.9576406c0.520813-0.520752,0.520813-1.3644409,0-1.8851933
				c-0.520752-0.520813-1.3644409-0.520813-1.8851929,0l-6.0150146,6.0150151l-2.4710693-2.4698486
				c-0.520813-0.520752-1.3644409-0.520752-1.8852539,0c-0.520752,0.520813-0.520752,1.3644409,0,1.8852539L49.0003662,16.7197056z"
				/>
			<path fill="#32548C" d="M58.1035767,41.2314262c-5.3900146-3.2769775-12.3502197-1.8956299-16.1154785,3.0087891
				l-11.5004272-7.0145874c0.7463379-1.5840454,1.1760254-3.345459,1.1760254-5.2094116
				c0-1.8642597-0.4298706-3.6257954-1.1763916-5.2099018l12.5709839-7.6676025
				c0.0026855-0.0016479,0.0039673-0.0045166,0.0066528-0.0061646c0.0036621-0.0021973,0.0079956-0.0020142,0.0115967-0.0042725
				c0.6275635-0.3840942,0.8254395-1.2055664,0.442688-1.8331299c-2.7653809-4.5216665-1.3384399-10.4507446,3.1819458-13.2173462
				c2.1742554-1.3280027,4.7520752-1.7315671,7.2622681-1.123596c2.5101318,0.604126,4.6245117,2.1325681,5.9524536,4.305542
				c2.7653198,4.521668,1.3384399,10.4507446-3.1819458,13.2173462c-2.9111328,1.7823486-6.5878296,1.8826294-9.5979614,0.25
				c-0.6431274-0.3463135-1.4529419-0.1119995-1.8070679,0.536377c-0.3515625,0.6470947-0.1119995,1.4569092,0.536377,1.8071289
				c1.8227539,0.9881592,3.8381348,1.4790039,5.8509521,1.4790039c2.2263184,0,4.4526367-0.6015015,6.4082031-1.7993164
				c5.7753906-3.5321655,7.5981445-11.1055899,4.0672607-16.8810425c-1.7003174-2.7809446-4.4005737-4.7364502-7.6033936-5.5084839
				c-3.2079468-0.7694702-6.4992676-0.2565308-9.2776489,1.4438477c-5.3902588,3.2966309-7.3336792,10.1124878-4.6988525,15.7023916
				l-11.515686,7.0239868c-1.9907837-2.576416-4.9727173-4.3469849-8.3765869-4.7164307V8.6020308
				c0-0.4296265-0.2057495-0.8319097-0.5546265-1.0831914c-0.3463135-0.2486572-0.7994385-0.3164063-1.2030029-0.1796875
				L0.9091187,13.421855c-0.531189,0.1783447-0.8931274,0.6691895-0.9087524,1.2290649
				c-0.0130005,0.5598145,0.322876,1.0688477,0.843689,1.2745972l13.6417847,5.383544
				c0.6821899,0.265564,1.4607544-0.0651245,1.7289429-0.7512207c0.270813-0.6848755-0.0650635-1.4594727-0.7498779-1.7302856
				L5.2159424,14.7836714l12.8372192-4.3250732v19.7419434c-0.5592041,0.4111938-0.9265137,1.0685425-0.9265137,1.8158588
				c0,1.2476196,1.0113525,2.2589722,2.2589722,2.2589722c1.2475586,0,2.2589722-1.0113525,2.2589722-2.2589722
				c0-0.746645-0.3666992-1.4033833-0.9250488-1.8146381v-7.6928711c2.8646851,0.4004517,5.3242798,2.0635376,6.8010864,4.4124756
				c0.0174561,0.0352783,0.0184937,0.0741577,0.0393066,0.1083984c0.0310059,0.0512085,0.0728149,0.0905762,0.109314,0.1359863
				c0.8384399,1.4259033,1.328064,3.0803223,1.328064,4.8504658c0,1.8278809-0.5220947,3.5320435-1.411438,4.9885254
				c-0.0020752,0.0033569-0.0056763,0.0050049-0.0076904,0.0083618s-0.0018311,0.0072021-0.0038452,0.0105591
				c-1.6917114,2.7563477-4.7244263,4.6048584-8.1879883,4.6048584c-5.3015137,0-9.6135864-4.3120728-9.6135864-9.6123047
				c0-2.8603535,1.2603149-5.5501728,3.4605713-7.382021c0.5650635-0.4713135,0.640564-1.3123169,0.1692505-1.8773804
				c-0.4713135-0.5702515-1.3149414-0.6418457-1.8773804-0.171875c-2.8070068,2.3395996-4.4188232,5.7767334-4.4188232,9.4312763
				c0,6.7701416,5.5098267,12.2786865,12.2799683,12.2786865c3.9517212,0,7.4633179-1.8846436,9.7103882-4.7937012
				l12.5789185,7.6723022c0.2994385,0.182251,0.661377,0.2356567,1.0103149,0.1575317
				c0.343689-0.083313,0.640564-0.2994385,0.8228149-0.6027832c2.7575073-4.5268555,8.68396-5.9746704,13.2095337-3.2184448
				c4.5281982,2.7536011,5.9733276,8.678772,3.2210083,13.2069702c-1.3253784,2.1768188-3.4345093,3.711853-5.9446411,4.3237305
				c-2.5049438,0.6132202-5.0906372,0.21875-7.2648926-1.1053467c-2.9215698-1.7758179-4.6895752-5.0020752-4.6140747-8.418396
				c0.015625-0.7368774-0.567688-1.3461914-1.3045654-1.3630981c-0.630127-0.0234375-1.3461914,0.5689087-1.3618164,1.3032227
				c-0.0963745,4.3667603,2.1638184,8.4887085,5.8952026,10.7567139c1.9294434,1.1730347,4.1036987,1.7758179,6.3222656,1.7745361
				c0.9842529,0,1.9763184-0.1184692,2.9605713-0.3580322c3.2001953-0.7799072,5.8952637-2.7432251,7.5877686-5.5280762
				C65.7330322,52.3174858,63.8894653,44.7492485,58.1035767,41.2314262z"/>
		</g>
	</g>
</g>
<g id="adaptive_x5F_quiz">
</g>
<g id="ou_x5F_wiki">
</g>
<g id="support_x5F_tracker">
</g>
<g id="view_x5F_comments">
</g>
<g id="no_x5F_comment">
</g>
<g id="attention">
</g>
<g id="search">
</g>
<g id="submitted">
</g>
<g id="feedback">
</g>
<g id="dnd_x5F_arrow">
</g>
</svg>
