<?xml version="1.0" encoding="utf-8"?>
<!-- Generator: Adobe Illustrator 21.0.0, SVG Export Plug-In . SVG Version: 6.00 Build 0)  -->
<svg version="1.1" xmlns="http://www.w3.org/2000/svg" xmlns:xlink="http://www.w3.org/1999/xlink" x="0px" y="0px" width="64px"
	 height="64px" viewBox="0 0 64 64" enable-background="new 0 0 64 64" xml:space="preserve">
<g id="Layer_1">
</g>
<g id="Layer_2">
</g>
<g id="messages">
</g>
<g id="messages_x5F_hover">
</g>
<g id="profile">
</g>
<g id="profile_x5F_hover">
</g>
<g id="view_x5F_hover">
</g>
<g id="view_x5F_feedback">
</g>
<g id="no_x5F_feedback_x5F_to_x5F_view">
</g>
<g id="download_x5F_hover">
</g>
<g id="download">
</g>
<g id="no_x5F_feedback_x5F_download">
</g>
<g id="link_x5F_hover">
</g>
<g id="assignment_x5F_link_copy">
</g>
<g id="Layer_21">
</g>
<g id="home_x5F_hover">
</g>
<g id="home_1_">
</g>
<g id="edit_x5F_profile">
</g>
<g id="preferences">
</g>
<g id="notifications">
</g>
<g id="my_x5F_posts">
</g>
<g id="logout">
</g>
<g id="assignment">
</g>
<g id="coursework">
</g>
<g id="forum">
</g>
<g id="quiz">
</g>
<g id="book">
</g>
<g id="database">
</g>
<g id="wiki">
</g>
<g id="choice">
</g>
<g id="workshop">
</g>
<g id="certificate">
</g>
<g id="scheduler">
</g>
<g id="equella">
</g>
<g id="file">
</g>
<g id="folder">
</g>
<g id="ims_x5F_content_x5F_package">
</g>
<g id="label">
</g>
<g id="lightbox_x5F_gallery">
</g>
<g id="nln_x5F_learning_x5F_object">
</g>
<g id="page">
</g>
<g id="subpage">
</g>
<g id="tab_x5F_display">
</g>
<g id="new_x5F_label">
</g>
<g id="url">
</g>
<g id="_x33_60_x5F_degree_x5F_diagnostics">
	<g>
		<g>
			<circle fill="#FFFFFF" cx="32.0008698" cy="31.9999638" r="30.6672764"/>
		</g>
		<path opacity="0.3" fill="#32548C" d="M62.1137085,30.6615601l-8.333374-8.333313
			c-0.7410278-0.7410889-2.0081787-0.2163086-2.0081787,0.8317261v2.6053467c0,0.6497803-0.5265503,1.1764526-1.1762695,1.1764526
			H37.05896V13.4049072c0-0.6495972,0.5267334-1.1763306,1.1764526-1.1763306h2.6054077
			c1.0480347,0,1.572937-1.2670898,0.8318481-2.0081787l-8.3331909-8.333313c-0.7392578-0.7392578-1.9376831-0.7392578-2.6769409,0
			l-8.333374,8.333313c-0.7410278,0.7410889-0.2163086,2.0081787,0.8317261,2.0081787h2.6054077
			c0.6497192,0,1.1764526,0.5267334,1.1764526,1.1763306v13.5368652H13.4058228
			c-0.6495972,0-1.1762695-0.5266724-1.1762695-1.1762695v-2.6055298c0-1.0480347-1.2671509-1.5728149-2.0081787-0.8317261
			l-8.333374,8.3330078c-0.7392578,0.7392578-0.7392578,1.9378662,0,2.677002l8.333374,8.3334961
			c0.7410278,0.7410278,2.0081787,0.2161255,2.0081787-0.8319092v-2.6053467c0-0.6495972,0.5266724-1.1762695,1.1762695-1.1762695
			H26.942749v13.5366821c0,0.6497803-0.5267334,1.1764526-1.1763306,1.1764526h-2.6055298
			c-1.0480347,0-1.5727539,1.2669678-0.8317261,2.0080566l8.3330688,8.333313c0.7392578,0.7392578,1.9378662,0.7392578,2.6769409,0
			l8.3334961-8.333313c0.7410889-0.7410889,0.2161865-2.0080566-0.8318481-2.0080566h-2.6054077
			c-0.6495361,0-1.1762695-0.5266724-1.1762695-1.1764526V37.0580444h13.5367432
			c0.6497192,0,1.1762695,0.5266724,1.1762695,1.1764526v2.6053467c0,1.0480347,1.2671509,1.572937,2.0081787,0.8319092
			l8.333374-8.3331909C62.8529663,32.5993042,62.8529663,31.4008789,62.1137085,30.6615601z M32.0009155,26.9624634
			c2.7821655,0,5.0374146,2.2554321,5.0374146,5.0375366s-2.255249,5.0373535-5.0374146,5.0373535
			c-2.7821045,0-5.0375366-2.255249-5.0375366-5.0373535S29.218811,26.9624634,32.0009155,26.9624634z"/>
		<path fill="#32548C" d="M62.2037354,37.5098877c-0.7265625-0.1693115-1.4296875,0.286438-1.59375,1.005188
			C57.8886108,50.5147705,48.2074585,59.260498,36.3389282,60.9970093l6.2732544-6.2732544
			c0.7213745-0.71875,0.937561-1.791687,0.546875-2.734436c-0.3880005-0.942749-1.2994995-1.552124-2.317749-1.552124
			l-2.447937,0.1588745V31.9993286c0-0.0119629-0.0064697-0.0217896-0.0067749-0.0336304
			c-0.0067139-1.2981567-0.4106445-2.5908813-1.2006836-3.6903687h13.4108276c1.3828125,0,2.5078735-1.1263428,2.5078735-2.510498
			v-2.2252808l8.0652466,8.0639648c0.21875,0.21875,0.21875,0.572876,0,0.791687l-8.0652466,8.0652466v-2.2266235
			c0-1.3828125-1.125061-2.5078735-2.5078735-2.5078735h-7.5964966c-0.7369995,0-1.333374,0.5963745-1.333374,1.333374
			s0.5963745,1.333374,1.333374,1.333374l7.4376221-0.1588745v2.6068115c0,1.0182495,0.609375,1.9297485,1.552124,2.317749
			c0.3125,0.130249,0.6380615,0.192749,0.9609375,0.192749c0.651062,0,1.291687-0.255249,1.770874-0.7369995l8.3334961-8.3334961
			c0.6242065-0.6242065,0.9369507-1.4428711,0.9416504-2.2628784c0.0001221-0.0065308,0.0037231-0.0119019,0.0037231-0.0184326
			c0-15.0510864-10.2371826-27.8846436-24.8963623-31.2089233c-0.723999-0.1575928-1.432312,0.2890625-1.59375,1.0065308
			c-0.1641235,0.7174683,0.286438,1.432312,1.005188,1.5950317c11.9996338,2.7213745,20.7453613,12.4024048,22.4818726,24.269043
			l-6.2758179-6.2738647c-0.71875-0.7213745-1.791687-0.9349365-2.734436-0.5455933
			c-0.9401245,0.3893433-1.5494995,1.2994995-1.5494995,2.3190308l0.1588745,2.447998H32
			c-0.7369995,0-1.333374,0.5963745-1.333374,1.333374c0,0.0015869,0.0009155,0.0029297,0.0009155,0.0045166
			s-0.0009155,0.0029907-0.0009155,0.0045776c0,0.7369995,0.5963745,1.333374,1.333374,1.333374
			c1.0026245,0,1.937561,0.3840942,2.635498,1.0820313c1.4505005,1.4505615,1.4505005,3.8151855,0,5.2683716
			c-0.7235107,0.7247925-1.6738281,1.0887451-2.6253052,1.0911255h-0.0139771
			c-0.951416-0.0011597-1.9030151-0.3637695-2.6290894-1.0911255c-0.5963745-0.5963745-0.973999-1.3828735-1.067749-2.218811
			c-0.0081177-0.0738525-0.0466919-0.1339722-0.0665283-0.203064c0.012146-0.0723267,0.0430908-0.1378174,0.0430908-0.213623
			V13.4052124c0-1.3841553-1.125-2.510498-2.510437-2.510498h-2.2266235l8.0653076-8.0652466
			c0.145813-0.145813,0.4140625-0.151001,0.3984375-0.1627197c0.0859375,0,0.2525635,0.020813,0.3931885,0.1627197
			l8.0653076,8.0652466h-2.2266235c-1.3828125,0-2.5078735,1.1263428-2.5078735,2.510498v7.4832153
			c0,0.7369995,0.5963745,1.333374,1.333374,1.333374s1.333374-0.5963745,1.333374-1.333374l-0.1588745-7.3269653h2.6068115
			c1.0182495,0,1.9297485-0.6080933,2.317749-1.5508423c0.390686-0.9414063,0.177124-2.0143433-0.5442505-2.7330933
			l-8.3309326-8.3322144C33.6744995,0.3359375,32.864624,0,32.005188,0C32.0026245,0,32,0,31.9973755,0
			c-0.0002441,0-0.0004883,0.000061-0.0004883,0.000061C16.9456177,0.0016479,4.116394,10.2382813,0.7936401,24.8963013
			c-0.1640625,0.7174683,0.286438,1.432373,1.005249,1.5950928c0.098938,0.0221558,0.197876,0.0325928,0.2942505,0.0325928
			c0.609375,0,1.1588745-0.4193115,1.2994995-1.0391235C6.1138916,13.4858398,15.7940063,4.7404175,27.65979,3.0032959
			l-6.2745972,6.2755127c-0.7213745,0.7200928-0.932312,1.7943115-0.5442505,2.734436
			c0.390625,0.9401245,1.302063,1.5482178,2.3203125,1.5482178l2.447998-0.15625v18.5941162
			c0,0.1096802,0.0374146,0.2071533,0.0623169,0.3091431c-0.0258179,0.1304932-0.0386353,0.2651978-0.0232544,0.4044189
			c0.1224976,1.0890503,0.5296021,2.1282349,1.1637573,3.0130615h-13.406189c-1.385437,0-2.510498,1.125061-2.510498,2.5078735
			v2.2266235l-8.0652466-8.0652466c-0.21875-0.218811-0.21875-0.572937,0-0.791687l8.0652466-8.0639648v2.2265625
			c0,1.3841553,1.125061,2.5092163,2.510498,2.5092163h7.5938721c0.7369995,0,1.333374-0.5963745,1.333374-1.333374
			s-0.5963745-1.333374-1.333374-1.333374l-7.4376221,0.1575317v-2.6055298c0-1.0182495-0.6068115-1.9284058-1.546936-2.3190308
			c-0.947937-0.3893433-2.0182495-0.1757813-2.7369995,0.5443115l-8.3334961,8.3321533
			c-0.6242065,0.6242065-0.9369507,1.4428711-0.9416504,2.2628784c-0.0001221,0.0065308-0.0037231,0.0119019-0.0037231,0.0184326
			c0,15.0523682,10.2398071,27.8859863,24.8989868,31.2089844c0.098938,0.0234375,0.197876,0.0338135,0.2942505,0.0338135
			c0.609375,0,1.1588745-0.4192505,1.2994995-1.0390625c0.1640625-0.71875-0.286438-1.432312-1.005249-1.59375
			C13.4871826,57.8879395,4.7393188,48.2067871,3.0023804,36.3383179l6.2758179,6.2758179
			c0.4817505,0.4817505,1.119812,0.7369995,1.7734375,0.7369995c0.322937,0,0.6484985-0.0625,0.9609985-0.192749
			c0.942688-0.3880005,1.5494995-1.2994995,1.5494995-2.317749l-0.15625-2.447937h18.7477417
			c0.0288086,0,0.0528564-0.0145874,0.0812378-0.0163574c1.2301025-0.0449219,2.4475098-0.4422607,3.4917603-1.1919556v13.4116821
			c0,1.3828125,1.125061,2.5078735,2.5078735,2.5078735h2.2266235l-8.0653076,8.0652466
			c-0.21875,0.21875-0.572876,0.21875-0.791626,0l-8.0653076-8.0652466h2.2266235c1.385437,0,2.510437-1.125061,2.510437-2.5078735
			v-7.2631836c0-0.7369995-0.5963135-1.333374-1.333313-1.333374s-1.333374,0.5963745-1.333374,1.333374l0.15625,7.1043091
			h-2.604248c-1.0182495,0-1.9296875,0.609375-2.3203125,1.5494995c-0.3880615,0.9401245-0.1744995,2.015686,0.5442505,2.734436
			l8.3334961,8.3334961c0.6213379,0.6239624,1.43927,0.9342651,2.2566528,0.9404297C31.9840698,63.9952393,31.991272,64,32,64
			c15.0523682,0,27.8859863-10.2371826,31.2089844-24.8963623C63.3730469,38.3848877,62.9224854,37.6713257,62.2037354,37.5098877z"
			/>
	</g>
</g>
<g id="adobe_x5F_connect">
</g>
<g id="attendance_x5F_register">
</g>
<g id="booking">
</g>
<g id="chat">
</g>
<g id="checklist">
</g>
<g id="external_x5F_tool">
</g>
<g id="face_x5F_to_x5F_face">
</g>
<g id="forumNG">
</g>
<g id="glossary">
</g>
<g id="group_x5F_choice">
</g>
<g id="journal">
</g>
<g id="mediasite_x5F_content">
</g>
<g id="nanogong_x5F_voice">
</g>
<g id="questionnaire">
</g>
<g id="scorm_x5F_package">
</g>
<g id="survey">
</g>
<g id="tutorship">
</g>
<g id="advanced_x5F_forum">
</g>
<g id="subcourse">
</g>
<g id="lesson_1_">
</g>
<g id="adaptive_x5F_quiz">
</g>
<g id="ou_x5F_wiki">
</g>
<g id="support_x5F_tracker">
</g>
<g id="view_x5F_comments">
</g>
<g id="no_x5F_comment">
</g>
<g id="attention">
</g>
<g id="search">
</g>
<g id="submitted">
</g>
<g id="feedback">
</g>
<g id="dnd_x5F_arrow">
</g>
</svg>
