<?xml version="1.0" encoding="utf-8"?>
<!-- Generator: Adobe Illustrator 21.0.0, SVG Export Plug-In . SVG Version: 6.00 Build 0)  -->
<svg version="1.1" xmlns="http://www.w3.org/2000/svg" xmlns:xlink="http://www.w3.org/1999/xlink" x="0px" y="0px" width="64px"
	 height="64px" viewBox="0 0 64 64" enable-background="new 0 0 64 64" xml:space="preserve">
<g id="Layer_1">
</g>
<g id="Layer_2">
</g>
<g id="messages">
</g>
<g id="messages_x5F_hover">
</g>
<g id="profile">
</g>
<g id="profile_x5F_hover">
</g>
<g id="view_x5F_hover">
</g>
<g id="view_x5F_feedback">
</g>
<g id="no_x5F_feedback_x5F_to_x5F_view">
</g>
<g id="download_x5F_hover">
</g>
<g id="download">
</g>
<g id="no_x5F_feedback_x5F_download">
</g>
<g id="link_x5F_hover">
</g>
<g id="assignment_x5F_link_copy">
</g>
<g id="Layer_21">
</g>
<g id="home_x5F_hover">
</g>
<g id="home_1_">
</g>
<g id="edit_x5F_profile">
</g>
<g id="preferences">
</g>
<g id="notifications">
</g>
<g id="my_x5F_posts">
</g>
<g id="logout">
</g>
<g id="assignment">
</g>
<g id="coursework">
</g>
<g id="forum">
</g>
<g id="quiz">
</g>
<g id="book">
</g>
<g id="database">
</g>
<g id="wiki">
</g>
<g id="choice">
</g>
<g id="workshop">
</g>
<g id="certificate">
</g>
<g id="scheduler">
</g>
<g id="equella">
</g>
<g id="file">
</g>
<g id="folder">
</g>
<g id="ims_x5F_content_x5F_package">
</g>
<g id="label">
</g>
<g id="lightbox_x5F_gallery">
</g>
<g id="nln_x5F_learning_x5F_object">
</g>
<g id="page">
</g>
<g id="subpage">
</g>
<g id="tab_x5F_display">
	<g>
		<g>
			<path fill="#FFFFFF" d="M62.6674576,19.373064v-5.5478516c0-1.4850264-1.2037735-2.6889648-2.6889648-2.6889648H44.9119263
				c-1.4848633,0-2.6889648,1.2039385-2.6889648,2.6889648c0-1.4850264-1.2037773-2.6889648-2.6888046-2.6889648H24.4675884
				c-1.4850254,0-2.6888008,1.2039385-2.6888008,2.6889648l-0.000164,0.0001631
				c0-1.4851894-1.2037754-2.6889648-2.6889648-2.6889648H4.023253c-1.4851887,0-2.6889648,1.2037754-2.6889648,2.6889648v5.5476885
				v30.8002911c0,1.4850273,1.1938477,2.6889648,2.6666665,2.6889648h56c1.4726563,0,2.6666679-1.2039375,2.6666679-2.6889648
				V19.373064H62.6674576z"/>
		</g>
		<g opacity="0.3">
			<path fill="#32548C" d="M26.244812,32.0860901l-7.050354,6.9880371c-0.5102539,0.5057373-1.338501,0.4865112-1.8247681-0.0424194
				l-1.0053711-1.3153076c-0.4563599-0.49646-1.2216187-0.5485229-1.7409668-0.1184082l-4.303894,3.56427v3.0092163h21.9355469
				v-6.2559814l-4.0914917-5.671936C27.7078247,31.6133728,26.7971802,31.5386047,26.244812,32.0860901z"/>
			<path fill="#32548C" d="M59.9785767,11.136322H44.9119873c-1.4849854,0-2.6889648,1.2039795-2.6889648,2.6889038
				c0-1.4849243-1.2037964-2.6889038-2.6889038-2.6889038H24.4676514c-1.4851074,0-2.6889648,1.2039795-2.6889648,2.6889038
				v5.5477905h20.4443359h20.444519v-5.5477905C62.6675415,12.3403015,61.4636841,11.136322,59.9785767,11.136322z"/>
		</g>
		<g>
			<circle fill="#32548C" cx="15.2933807" cy="32.5913391" r="1.6415253"/>
			<path fill="#32548C" d="M11.5859375,45.5039368h19.401001c1.4349365,0,2.6015625-1.166687,2.6015625-2.598999V31.9791565
				c0-0.7369385-0.5963135-1.333313-1.333313-1.333313s-1.333313,0.5963745-1.333313,1.333313l0.0650635,10.8580933
				l-19.333313,0.067688l-0.0056763-1.1378784l3.6567383-3.2396851l1.083313,1.4088135
				c0.484375,0.5234375,1.1432495,0.8203125,1.854187,0.838562c0.677063-0.020813,1.390625-0.2578125,1.890625-0.7526245
				l6.9505005-6.9973755c0.4296875,0.5963745,1.2630005,0.723938,1.8619995,0.2994995
				c0.5963135-0.432312,0.7317505-1.265625,0.2994385-1.8619995c-0.4453125-0.6159058-1.135376-1.005188-1.895813-1.067688
				c-0.7317505-0.0716553-1.5,0.208313-2.041687,0.744751l-6.8775635,7.083374l-1.0807495-1.40625
				c-0.942688-1.0234375-2.5078125-1.1276245-3.578125-0.244812l-2.1400146,1.7734375l-0.0448608-8.947937h19.401001
				c0.7369995,0,1.333374-0.5963135,1.333374-1.333313s-0.5963745-1.333313-1.333374-1.333313h-19.401001
				c-1.432312,0-2.598999,1.166626-2.598999,2.6002197v13.5742188
				C8.9869385,44.3372498,10.1536255,45.5039368,11.5859375,45.5039368z"/>
			<path fill="#32548C" d="M41.453125,33.4258118h12.229126c0.7369995,0,1.333374-0.598999,1.333374-1.3346558
				c0-0.7369995-0.5963745-1.333313-1.333374-1.333313H41.453125c-0.7369995,0-1.333374,0.5963135-1.333374,1.333313
				C40.119751,32.8268127,40.7161255,33.4258118,41.453125,33.4258118z"/>
			<path fill="#32548C" d="M41.453125,41.4778748h12.229126c0.7369995,0,1.333374-0.5963745,1.333374-1.333313
				c0-0.7369995-0.5963745-1.333374-1.333374-1.333374H41.453125c-0.7369995,0-1.333374,0.5963745-1.333374,1.333374
				C40.119751,40.8815002,40.7161255,41.4778748,41.453125,41.4778748z"/>
			<path fill="#32548C" d="M59.979126,9.8033752h-13.4375c-0.7369385,0-1.333313,0.5963745-1.333313,1.333374
				c0,0.7369385,0.5963745,1.333313,1.333313,1.333313h13.4375c0.7474365,0,1.354187,0.6080933,1.354187,1.3554688v4.2148438
				H43.557251V13.825531c0-2.2174683-1.8046875-4.0221558-4.0234375-4.0221558h-13.578125
				c-0.7369385,0-1.333313,0.5963745-1.333313,1.333374c0,0.7369385,0.5963745,1.333313,1.333313,1.333313h13.578125
				c0.7474365,0,1.3568115,0.6080933,1.3568115,1.3554688v4.2148438H23.1119385V13.825531
				c0-2.2174683-1.8046875-4.0221558-4.0234375-4.0221558H4.0234375C1.8046875,9.8033752,0,11.6080627,0,13.825531v36.3476563
				c0,2.21875,1.7942505,4.0234375,4,4.0234375h56c2.2056885,0,4-1.8046875,4-4.0234375V19.3736877V13.825531
				C64,11.6080627,62.1953125,9.8033752,59.979126,9.8033752z M61.333313,50.1731873
				c0,0.7473755-0.598938,1.3567505-1.333313,1.3567505H4c-0.734375,0-1.333374-0.609375-1.333374-1.3567505V13.825531
				c0-0.7473755,0.609375-1.3554688,1.3568115-1.3554688H19.088501c0.7474365,0,1.3568115,0.6080933,1.3568115,1.3554688v4.2148438
				H7.166626c-0.7369385,0-1.333313,0.5963745-1.333313,1.333313c0,0.7369995,0.5963745,1.333374,1.333313,1.333374h54.166687
				V50.1731873z"/>
		</g>
	</g>
</g>
<g id="new_x5F_label">
</g>
<g id="url">
</g>
<g id="_x33_60_x5F_degree_x5F_diagnostics">
</g>
<g id="adobe_x5F_connect">
</g>
<g id="attendance_x5F_register">
</g>
<g id="booking">
</g>
<g id="chat">
</g>
<g id="checklist">
</g>
<g id="external_x5F_tool">
</g>
<g id="face_x5F_to_x5F_face">
</g>
<g id="forumNG">
</g>
<g id="glossary">
</g>
<g id="group_x5F_choice">
</g>
<g id="journal">
</g>
<g id="mediasite_x5F_content">
</g>
<g id="nanogong_x5F_voice">
</g>
<g id="questionnaire">
</g>
<g id="scorm_x5F_package">
</g>
<g id="survey">
</g>
<g id="tutorship">
</g>
<g id="advanced_x5F_forum">
</g>
<g id="subcourse">
</g>
<g id="lesson_1_">
</g>
<g id="adaptive_x5F_quiz">
</g>
<g id="ou_x5F_wiki">
</g>
<g id="support_x5F_tracker">
</g>
<g id="view_x5F_comments">
</g>
<g id="no_x5F_comment">
</g>
<g id="attention">
</g>
<g id="search">
</g>
<g id="submitted">
</g>
<g id="feedback">
</g>
<g id="dnd_x5F_arrow">
</g>
</svg>
