<?xml version="1.0" encoding="utf-8"?>
<!-- Generator: Adobe Illustrator 21.0.0, SVG Export Plug-In . SVG Version: 6.00 Build 0)  -->
<svg version="1.1" xmlns="http://www.w3.org/2000/svg" xmlns:xlink="http://www.w3.org/1999/xlink" x="0px" y="0px" width="64px"
	 height="64px" viewBox="0 0 64 64" enable-background="new 0 0 64 64" xml:space="preserve">
<g id="Layer_1">
</g>
<g id="Layer_2">
</g>
<g id="messages">
</g>
<g id="messages_x5F_hover">
</g>
<g id="profile">
</g>
<g id="profile_x5F_hover">
</g>
<g id="view_x5F_hover">
</g>
<g id="view_x5F_feedback">
</g>
<g id="no_x5F_feedback_x5F_to_x5F_view">
</g>
<g id="download_x5F_hover">
</g>
<g id="download">
</g>
<g id="no_x5F_feedback_x5F_download">
</g>
<g id="link_x5F_hover">
</g>
<g id="assignment_x5F_link_copy">
</g>
<g id="Layer_21">
</g>
<g id="home_x5F_hover">
</g>
<g id="home_1_">
</g>
<g id="edit_x5F_profile">
</g>
<g id="preferences">
</g>
<g id="notifications">
</g>
<g id="my_x5F_posts">
</g>
<g id="logout">
</g>
<g id="assignment">
</g>
<g id="coursework">
</g>
<g id="forum">
</g>
<g id="quiz">
</g>
<g id="book">
</g>
<g id="database">
</g>
<g id="wiki">
</g>
<g id="choice">
</g>
<g id="workshop">
</g>
<g id="certificate">
</g>
<g id="scheduler">
</g>
<g id="equella">
</g>
<g id="file">
</g>
<g id="folder">
</g>
<g id="ims_x5F_content_x5F_package">
</g>
<g id="label">
</g>
<g id="lightbox_x5F_gallery">
</g>
<g id="nln_x5F_learning_x5F_object">
</g>
<g id="page">
</g>
<g id="subpage">
</g>
<g id="tab_x5F_display">
</g>
<g id="new_x5F_label">
</g>
<g id="url">
</g>
<g id="_x33_60_x5F_degree_x5F_diagnostics">
</g>
<g id="adobe_x5F_connect">
	<g>
		<g>
			<path fill="#FFFFFF" d="M60,62.6670494H4c-1.4727592,0-2.6666665-1.1939049-2.6666665-2.6666641v-56
				c0-1.472759,1.1939074-2.6666665,2.6666665-2.6666665h56c1.4727592,0,2.6666679,1.1939074,2.6666679,2.6666665v56
				C62.6666679,61.4731445,61.4727592,62.6670494,60,62.6670494z"/>
		</g>
		<g opacity="0.3">
			<rect x="10.7529297" y="40.548111" fill="#32548C" width="12.8250322" height="12.8250322"/>
			<rect x="10.7529297" y="10.6275358" fill="#32548C" width="12.8250322" height="12.8250322"/>
			<rect x="40.422039" y="10.6275358" fill="#32548C" width="12.8250322" height="12.8250322"/>
			<rect x="40.422039" y="40.548111" fill="#32548C" width="12.8250322" height="12.8250322"/>
		</g>
		<g>
			<path fill="#32548C" d="M53.2473946,9.2940397H40.421875c-0.4817696,0-0.9244804,0.2591152-1.1614571,0.6796875
				L24.911459,35.4637985v-7.5694981c0-0.7369785-0.5963554-1.333334-1.333334-1.333334s-1.333334,0.5963554-1.333334,1.333334
				v8.6549473l-10.156249-13.541666v-11.046875h10.156249v10.1575527h-5.234375c-0.7369785,0-1.333333,0.5963535-1.333333,1.3333321
				c0,0.7369804,0.5963545,1.333334,1.333333,1.333334h6.567709c0.7369785,0,1.333334-0.5963535,1.333334-1.333334V10.6273737
				c0-0.7369795-0.5963554-1.333334-1.333334-1.333334H10.755208c-0.7369785,0-1.333333,0.5963545-1.333333,1.333334v12.8242178
				c0,0.2890625,0.09375,0.5690117,0.2656193,0.7994804l11.2233124,14.9648438H10.7526045
				c-0.7369795,0-1.333334,0.5963554-1.333334,1.3333321v12.8229179c0,0.7369804,0.5963545,1.3333321,1.333334,1.3333321H23.578125
				c0.7369785,0,1.333334-0.5963516,1.333334-1.3333321V43.2388649l10.2994785,7.8416328
				c0.5885429,0.4479179,1.4244804,0.3307304,1.8671875-0.2526016c0.4479179-0.5859375,0.3333321-1.421875-0.2526054-1.8671875
				l-9.2942696-7.078125h24.3828125v10.15625H41.7552071v-5.234375c0-0.7369804-0.5963516-1.3333359-1.3333321-1.3333359
				s-1.3333321,0.5963554-1.3333321,1.3333359v6.5677071c0,0.7369804,0.5963516,1.3333321,1.3333321,1.3333321h12.8255196
				c0.7369804,0,1.3333359-0.5963516,1.3333359-1.3333321V40.5492477c0-0.7369766-0.5963554-1.3333321-1.3333359-1.3333321
				H28.564127l18.2353535-10.5104179c0.6380119-0.3671875,0.8567696-1.182291,0.4895821-1.8203125
				c-0.3697929-0.640625-1.1848946-0.859375-1.8229179-0.4895821L27.125,36.9659157l14.0755196-25.005209h10.7135429v10.1575527
				H41.7552071v-2.1080742c0-0.7369785-0.5963516-1.3333321-1.3333321-1.3333321s-1.3333321,0.5963535-1.3333321,1.3333321
				v3.4414063c0,0.7369804,0.5963516,1.333334,1.3333321,1.333334h12.8255196c0.7369804,0,1.3333359-0.5963535,1.3333359-1.333334
				V10.6273737C54.5807304,9.8903942,53.984375,9.2940397,53.2473946,9.2940397z M22.244791,52.0388336H12.0859375v-10.15625
				H22.244791V52.0388336z"/>
			<path fill="#32548C" d="M60-0.0002307H4c-2.205729,0-4,1.7942709-4,4v56c0,2.2057266,1.7942709,4,4,4h56
				c2.2057304,0,4-1.7942734,4-4v-56C64,1.7940401,62.2057304-0.0002307,60-0.0002307z M61.3333321,59.9997711
				c0,0.734375-0.5989571,1.3333321-1.3333321,1.3333321H4c-0.734375,0-1.3333333-0.5989571-1.3333333-1.3333321v-56
				C2.6666667,3.2640922,3.265625,2.666436,4,2.666436h56c0.734375,0,1.3333321,0.5976563,1.3333321,1.3333333V59.9997711z"/>
		</g>
	</g>
</g>
<g id="attendance_x5F_register">
</g>
<g id="booking">
</g>
<g id="chat">
</g>
<g id="checklist">
</g>
<g id="external_x5F_tool">
</g>
<g id="face_x5F_to_x5F_face">
</g>
<g id="forumNG">
</g>
<g id="glossary">
</g>
<g id="group_x5F_choice">
</g>
<g id="journal">
</g>
<g id="mediasite_x5F_content">
</g>
<g id="nanogong_x5F_voice">
</g>
<g id="questionnaire">
</g>
<g id="scorm_x5F_package">
</g>
<g id="survey">
</g>
<g id="tutorship">
</g>
<g id="advanced_x5F_forum">
</g>
<g id="subcourse">
</g>
<g id="lesson_1_">
</g>
<g id="adaptive_x5F_quiz">
</g>
<g id="ou_x5F_wiki">
</g>
<g id="support_x5F_tracker">
</g>
<g id="view_x5F_comments">
</g>
<g id="no_x5F_comment">
</g>
<g id="attention">
</g>
<g id="search">
</g>
<g id="submitted">
</g>
<g id="feedback">
</g>
<g id="dnd_x5F_arrow">
</g>
</svg>
