<?xml version="1.0" encoding="utf-8"?>
<!-- Generator: Adobe Illustrator 21.0.0, SVG Export Plug-In . SVG Version: 6.00 Build 0)  -->
<svg version="1.1" xmlns="http://www.w3.org/2000/svg" xmlns:xlink="http://www.w3.org/1999/xlink" x="0px" y="0px" width="16px"
	 height="16px" viewBox="0 0 16 16" enable-background="new 0 0 16 16" xml:space="preserve">
<g id="Layer_1">
</g>
<g id="Layer_2">
</g>
<g id="messages">
</g>
<g id="messages_x5F_hover">
</g>
<g id="profile">
</g>
<g id="profile_x5F_hover">
</g>
<g id="view_x5F_hover">
</g>
<g id="view_x5F_feedback">
</g>
<g id="no_x5F_feedback_x5F_to_x5F_view">
</g>
<g id="download_x5F_hover">
</g>
<g id="download">
</g>
<g id="no_x5F_feedback_x5F_download">
</g>
<g id="link_x5F_hover">
</g>
<g id="assignment_x5F_link_copy">
</g>
<g id="Layer_21">
</g>
<g id="home_x5F_hover">
</g>
<g id="home_1_">
</g>
<g id="edit_x5F_profile">
</g>
<g id="preferences">
</g>
<g id="notifications">
</g>
<g id="my_x5F_posts">
</g>
<g id="logout">
</g>
<g id="assignment">
</g>
<g id="coursework">
</g>
<g id="forum">
</g>
<g id="quiz">
</g>
<g id="book">
</g>
<g id="database">
</g>
<g id="wiki">
</g>
<g id="choice">
</g>
<g id="workshop">
</g>
<g id="certificate">
</g>
<g id="scheduler">
</g>
<g id="equella">
</g>
<g id="file">
</g>
<g id="folder">
</g>
<g id="ims_x5F_content_x5F_package">
</g>
<g id="label">
</g>
<g id="lightbox_x5F_gallery">
</g>
<g id="nln_x5F_learning_x5F_object">
</g>
<g id="page">
</g>
<g id="subpage">
</g>
<g id="tab_x5F_display">
</g>
<g id="new_x5F_label">
</g>
<g id="url">
</g>
<g id="_x33_60_x5F_degree_x5F_diagnostics">
</g>
<g id="adobe_x5F_connect">
</g>
<g id="attendance_x5F_register">
</g>
<g id="booking">
</g>
<g id="chat">
</g>
<g id="checklist">
</g>
<g id="external_x5F_tool">
</g>
<g id="face_x5F_to_x5F_face">
</g>
<g id="forumNG">
</g>
<g id="glossary">
</g>
<g id="group_x5F_choice">
</g>
<g id="journal">
</g>
<g id="mediasite_x5F_content">
</g>
<g id="nanogong_x5F_voice">
</g>
<g id="questionnaire">
</g>
<g id="scorm_x5F_package">
</g>
<g id="survey">
</g>
<g id="tutorship">
</g>
<g id="advanced_x5F_forum">
</g>
<g id="subcourse">
</g>
<g id="lesson_1_">
</g>
<g id="adaptive_x5F_quiz">
</g>
<g id="ou_x5F_wiki">
</g>
<g id="support_x5F_tracker">
</g>
<g id="view_x5F_comments">
</g>
<g id="no_x5F_comment">
</g>
<g id="attention">
</g>
<g id="search">
	<g>
		<g>
			<g opacity="0.3">
				<g>
					<path fill="#545157" d="M0.504877,10.6235714v-0.0628128C0.5036566,10.5967617,0.504877,10.6235714,0.504877,10.6235714z"/>
				</g>
			</g>
			<g>
				<g>
					<path fill="#FFFFFF" d="M14.7747498,4.3310199h-0.4952955l0.0159874-3.026623
						c0.0023336-0.4417925-0.3551588-0.8011786-0.796957-0.8011786h-2.9445353
						c-0.4394808,0-0.7957678,0.3562466-0.7957678,0.7957679v0.0641139c0,0.4039252-0.3272409,0.7314913-0.7311659,0.7318983
						l-7.0797,0.0061834C1.1504751,2.1018779,0.504877,2.7480402,0.504877,3.5448811v5.6890059c0,1.1045694,0.8954306,2,2,2
						h0.1936722v2.3195839c0,0.3983297,0.3229101,0.72124,0.7212398,0.72124h2.7493613h8.6042166
						c0.3983068,0,0.721199-0.3228922,0.721199-0.721199v-8.502635C15.494566,4.6532974,15.1722879,4.3310199,14.7747498,4.3310199z
						"/>
				</g>
			</g>
		</g>
		<g opacity="0.3">
			<g>
				<path fill="#545157" d="M0.5048931,3.5435925l-0.00043,5.6901655c-0.000071,1.10462,0.8953803,2.0001287,2,2.0001287h0.194087
					V5.0522294c0-0.3983097,0.3228939-0.7212038,0.7212036-0.7212038h10.8597193l0.0159588-3.0278559
					c0.0023251-0.4411216-0.3546257-0.7999594-0.7957535-0.7999594h-2.945715c-0.4394894,0-0.7957659,0.3562766-0.7957659,0.7957661
					v0.0641398c0,0.403937-0.3272543,0.7314992-0.7311916,0.7318792L1.9461312,2.1011863
					C1.1499898,2.1018825,0.5049443,2.7474508,0.5048931,3.5435925z"/>
			</g>
		</g>
		<g>
			<path fill="#545157" d="M7.1694412,14.7782221c-0.277832,0-0.503418-0.2255859-0.503418-0.503418
				c0-0.2773438,0.2255859-0.5029297,0.503418-0.5029297h7.6039886c0.1201172,0,0.2182617-0.0981445,0.2182617-0.2182617V5.0507813
				c0-0.1191406-0.097168-0.2163086-0.2167969-0.2163086H3.4194412c-0.1201172,0-0.2177734,0.0976563-0.2177734,0.2177734v4.8032227
				c0,0.2773438-0.2255859,0.5029297-0.503418,0.5029297c-0.2773438,0-0.5029297-0.2255859-0.5029297-0.5029297V5.0522461
				c0-0.6748047,0.5493164-1.2241211,1.2241211-1.2241211h11.3554535c0.6743164,0,1.2231445,0.5483398,1.2231445,1.2226563
				v8.5028315c0,0.675293-0.5493164,1.2246094-1.2246094,1.2246094H7.1694412z"/>
		</g>
		<g>
			<path fill="#545157" d="M0.5053788,9.269043c-0.2778321,0-0.503418-0.2255859-0.503418-0.503418V3.543457
				c0-1.0727539,0.8730469-1.9453125,1.9458008-1.9453125h7.027832c0.1826172-0.0063477,0.2797852-0.1035156,0.2797852-0.2226563
				V1.2231445C9.2553787,0.5488281,9.8037186,0,10.4775467,0h3.1035004c0.6743164,0,1.2231445,0.5488281,1.2231445,1.2231445
				v0.8779297c0,0.277832-0.2255859,0.503418-0.5029297,0.503418c-0.277832,0-0.503418-0.2255859-0.503418-0.503418V1.2231445
				c0-0.1196289-0.097168-0.2167969-0.2167969-0.2167969h-3.1035004c-0.1191406,0-0.2158203,0.097168-0.2158203,0.2167969v0.1523438
				c0,0.6391602-0.4990234,1.1748047-1.1362305,1.2197266L1.9477615,2.6044922
				c-0.5180664,0-0.9394531,0.4213867-0.9394531,0.9389648v5.222168C1.0083084,9.043457,0.7827225,9.269043,0.5053788,9.269043z"/>
		</g>
		<path fill="#545157" d="M5.9217248,15.2317476V12.958806h2.276094c0.4243011,0,0.7682362-0.3439512,0.7682362-0.7682371
			v-0.3452168c0-0.4243021-0.343935-0.7682524-0.7682362-0.7682524h-2.276094V8.8041573
			c0-0.4243011-0.3439355-0.7682514-0.7682371-0.7682514h-0.345171c-0.4243016,0-0.7682824,0.3439503-0.7682824,0.7682514v2.2729425
			H1.7701976c-0.4242404,0-0.7682369,0.3439503-0.7682369,0.7682524v0.3452168c0,0.4242859,0.3439965,0.7682371,0.7682369,0.7682371
			h2.2698367v2.2729416C4.0400343,15.6560497,4.3840151,16,4.8083167,16h0.345171
			C5.5777893,16,5.9217248,15.6560497,5.9217248,15.2317476z"/>
		<path fill="#545157" d="M8.9536209,7.5942383c-0.277832,0-0.503418-0.2255859-0.503418-0.503418
			s0.2255859-0.503418,0.503418-0.503418h4.2587738c0.2773438,0,0.5029297,0.2255859,0.5029297,0.503418
			s-0.2255859,0.503418-0.5029297,0.503418H8.9536209z"/>
	</g>
</g>
<g id="submitted">
</g>
<g id="feedback">
</g>
<g id="dnd_x5F_arrow">
</g>
</svg>
