<?xml version="1.0" encoding="utf-8"?>
<!-- Generator: Adobe Illustrator 21.0.0, SVG Export Plug-In . SVG Version: 6.00 Build 0)  -->
<svg version="1.1" xmlns="http://www.w3.org/2000/svg" xmlns:xlink="http://www.w3.org/1999/xlink" x="0px" y="0px" width="64px"
	 height="64px" viewBox="0 0 64 64" enable-background="new 0 0 64 64" xml:space="preserve">
<g id="Layer_1">
</g>
<g id="Layer_2">
</g>
<g id="messages">
</g>
<g id="messages_x5F_hover">
</g>
<g id="profile">
</g>
<g id="profile_x5F_hover">
</g>
<g id="view_x5F_hover">
</g>
<g id="view_x5F_feedback">
</g>
<g id="no_x5F_feedback_x5F_to_x5F_view">
</g>
<g id="download_x5F_hover">
</g>
<g id="download">
</g>
<g id="no_x5F_feedback_x5F_download">
</g>
<g id="link_x5F_hover">
</g>
<g id="assignment_x5F_link_copy">
</g>
<g id="Layer_21">
</g>
<g id="home_x5F_hover">
</g>
<g id="home_1_">
</g>
<g id="edit_x5F_profile">
</g>
<g id="preferences">
</g>
<g id="notifications">
</g>
<g id="my_x5F_posts">
</g>
<g id="logout">
</g>
<g id="assignment">
</g>
<g id="coursework">
</g>
<g id="forum">
</g>
<g id="quiz">
</g>
<g id="book">
</g>
<g id="database">
</g>
<g id="wiki">
</g>
<g id="choice">
</g>
<g id="workshop">
</g>
<g id="certificate">
</g>
<g id="scheduler">
</g>
<g id="equella">
</g>
<g id="file">
</g>
<g id="folder">
</g>
<g id="ims_x5F_content_x5F_package">
</g>
<g id="label">
</g>
<g id="lightbox_x5F_gallery">
</g>
<g id="nln_x5F_learning_x5F_object">
</g>
<g id="page">
</g>
<g id="subpage">
</g>
<g id="tab_x5F_display">
</g>
<g id="new_x5F_label">
</g>
<g id="url">
</g>
<g id="_x33_60_x5F_degree_x5F_diagnostics">
</g>
<g id="adobe_x5F_connect">
</g>
<g id="attendance_x5F_register">
</g>
<g id="booking">
</g>
<g id="chat">
</g>
<g id="checklist">
</g>
<g id="external_x5F_tool">
</g>
<g id="face_x5F_to_x5F_face">
</g>
<g id="forumNG">
</g>
<g id="glossary">
</g>
<g id="group_x5F_choice">
</g>
<g id="journal">
</g>
<g id="mediasite_x5F_content">
	<g>
		<g>
			<g>
				<circle fill="#FFFFFF" cx="31.9999599" cy="41.8522491" r="4.6538949"/>
			</g>
			<g>
				<circle fill="#FFFFFF" cx="31.9999599" cy="22.1497288" r="4.6538949"/>
			</g>
			<g>
				<circle fill="#FFFFFF" cx="22.1486588" cy="32.00103" r="4.6538949"/>
			</g>
			<g>
				<circle fill="#FFFFFF" cx="41.8512611" cy="32.00103" r="4.6538949"/>
			</g>
			<g>
				<path fill="#FFFFFF" d="M26.0217781,15.3958588c2.1400414-1.7843714,2.8739986-2.1419945,4.6588573-3.2301569
					c9.3901196-5.7250538,20.1628895-5.2410107,23.6717587,1.3029318c1.2041702,2.2459612,1.4561996,4.693676,0.8639565,7.1845055
					c-0.3924408,1.6511173,1.7576866,2.6507683,2.7697029,1.2884502c3.8632393-5.2000084,4.9120255-10.7968531,2.8829498-14.6062336
					c-3.7981567-7.1304884-16.589756-8.1996145-28.0514183-1.557725
					c-9.8704185,5.7196851-13.5587482,12.8576584-14.8582611,18.2416859
					C17.9593239,24.0193157,20.3191776,20.1503849,26.0217781,15.3958588z"/>
			</g>
			<g>
				<path fill="#FFFFFF" d="M58.2234383,32.8796692c-5.7198448-9.8704185-12.8576584-13.5587482-18.241684-14.8582611
					c0,0,3.8689308,2.3598537,8.6234589,8.0624542c1.7843704,2.1400414,2.1418304,2.8739986,3.2299919,4.6590214
					c5.7250557,9.3899555,5.2411728,20.1627254-1.3029289,23.6715946c-2.2458,1.2041702-4.6935158,1.4561996-7.1845093,0.8639565
					c-1.6511154-0.3924408-2.6506042,1.7576866-1.2884483,2.7697029c5.2000084,3.8632393,10.7970161,4.9120255,14.6063957,2.8829498
					C63.7960396,57.1330948,64.8651657,44.3413315,58.2234383,32.8796692z"/>
			</g>
			<g>
				<path fill="#FFFFFF" d="M37.9782219,48.6672974c-2.1402054,1.7843704-2.8741608,2.1418304-4.6590195,3.2301559
					c-9.3901176,5.7248917-20.1628914,5.2410088-23.6715965-1.3029327c-1.2041702-2.2459602-1.4561977-4.693676-0.8641195-7.1846695
					c0.3926039-1.6509514-1.7576876-2.6506042-2.7697043-1.2882881c-3.8630733,5.2000122-4.9118614,10.7968559-2.8827839,14.6062355
					c3.7979922,7.1304893,16.5897541,8.1996155,28.0514145,1.557724c9.8704205-5.7196846,13.5587482-12.8576546,14.858099-18.241684
					C46.0405121,40.0438385,43.6808243,43.9127693,37.9782219,48.6672974z"/>
			</g>
			<g>
				<path fill="#FFFFFF" d="M24.0182457,46.041584c0,0-3.8689308-2.3598557-8.6234579-8.062294
					c-1.7843714-2.1402016-2.1418314-2.8741608-3.2301559-4.6590195
					c-5.7248917-9.3901157-5.2410107-20.1628895,1.3029308-23.6715946c2.2459621-1.2043324,4.693675-1.4561977,7.1846685-0.8641186
					c1.6509552,0.3926039,2.6506062-1.757688,1.2882881-2.7697048C16.7405109,2.1516161,11.1436663,1.1028283,7.3342853,3.1319058
					C0.2037963,6.9300604-0.8653295,19.7216606,5.7765598,31.183321
					C11.4962454,41.0537415,18.6342182,44.7422333,24.0182457,46.041584z"/>
			</g>
		</g>
		<g opacity="0.3">
			<circle fill="#32548C" cx="31.9999695" cy="41.8522949" r="4.6539001"/>
			<circle fill="#32548C" cx="31.9999695" cy="22.1497478" r="4.6539001"/>
			<circle fill="#32548C" cx="22.1486969" cy="32.0010071" r="4.6538849"/>
			<circle fill="#32548C" cx="41.8512268" cy="32.0010071" r="4.6539001"/>
		</g>
		<g>
			<path fill="#32548C" d="M17.6482086,25.3139172c0.104126,0.026062,0.2108765,0.0377808,0.312439,0.0377808
				c0.6013184,0,1.1480103-0.4100342,1.2963867-1.0205078c1.1715088-4.8550415,4.5895386-11.8161621,14.2294312-17.4001465
				c6.6018677-3.828125,14.2268066-5.2000122,19.8967285-3.5820923c2.9729004,0.8486938,5.1544189,2.444458,6.3103027,4.6129761
				c1.8066406,3.3946533,0.7418823,8.446228-2.77771,13.1842041c-0.041626,0.0559692-0.104126,0.1522827-0.2811279,0.072876
				c-0.1640015-0.0767822-0.1380005-0.1900635-0.1223755-0.2577515c0.6794434-2.8466187,0.3384399-5.6555786-0.9866333-8.1221313
				c-1.4161987-2.6409912-3.8970947-4.5088501-7.1771851-5.4004517c-5.3991699-1.46698-12.2639771-0.1275635-18.3634033,3.5899048
				c-1.7493896,1.0673218-3.3607788,2.1854248-4.7926025,3.3243408c-0.5753174,0.4581909-0.6716309,1.2963867-0.2134399,1.8717651
				c0.4607544,0.5805054,1.3041992,0.6702881,1.8743286,0.2134399c1.3432617-1.0686646,2.8662109-2.1242676,4.5218506-3.1343384
				c5.3965454-3.2905273,11.6261597-4.5543823,16.2730103-3.2930908c2.5563965,0.6950684,4.4671631,2.1086426,5.5292969,4.0883789
				c1.0256958,1.9094849,1.2755737,4.0103149,0.7419434,6.2452393c-0.3228149,1.3510742,0.3306274,2.7047729,1.5905762,3.2905273
				c1.2547607,0.5883179,2.7203979,0.218689,3.5456543-0.8981323c4.1417847-5.5735474,5.2872314-11.7146606,2.9911499-16.0269775
				c-1.5046997-2.8231812-4.2459106-4.8719482-7.9321289-5.9237061C47.6768341-1.05443,39.4661407,0.3838635,32.1483917,4.6245251
				c-10.4520874,6.0565186-14.1903687,13.7191772-15.4841919,19.0819092
				C16.4923859,24.4223156,16.9323273,25.1421032,17.6482086,25.3139172z"/>
			<path fill="#32548C" d="M59.3758698,32.148819c-6.0578003-10.4534321-13.7191772-14.1903706-19.0819092-15.4829121
				c-0.7185059-0.1796265-1.4343872,0.2694092-1.6087646,0.9827271c-0.171814,0.7158813,0.2681274,1.43573,0.9840088,1.6075439
				c4.8551025,1.1727295,11.8161621,4.5921021,17.4002075,14.2307148
				c3.8293457,6.6044312,5.2012939,14.2293701,3.5820313,19.8966675c-0.8460083,2.9729614-2.4418335,5.15448-4.6129761,6.3103027
				c-3.3920288,1.8092651-8.4449463,0.7445679-13.1854858-2.7776489c-0.0546875-0.041687-0.1483765-0.1119385-0.0703125-0.2785645
				c0.0755005-0.1691895,0.192688-0.140564,0.255127-0.124939c2.8479614,0.6742554,5.6542969,0.3383789,8.1248169-0.9840698
				c2.6422729-1.4161377,4.5088501-3.8970337,5.4017334-7.1771851c1.4682617-5.4017334,0.124939-12.2665405-3.5924683-18.3659687
				c-1.0621338-1.7402954-2.1789551-3.3516846-3.3217773-4.7913208c-0.4581909-0.5753174-1.2990112-0.6703491-1.8717651-0.2147217
				c-0.5778809,0.4581299-0.6742554,1.2963867-0.2160645,1.8729858c1.0751343,1.352417,2.1294556,2.8740234,3.1343384,4.5231934
				c3.2930908,5.3991718,4.5557251,11.6365376,3.2930908,16.2755756c-0.6924438,2.5563965-2.1085815,4.4671631-4.0870972,5.5292969
				c-1.9055786,1.0256958-4.0090332,1.2781982-6.2478027,0.7393799c-1.3588867-0.3254395-2.7047729,0.3383789-3.2905273,1.5931396
				c-0.5831299,1.2600098-0.2134399,2.71521,0.9006958,3.5430298c3.6732178,2.7282715,7.5911255,4.1574097,11.0717163,4.1574097
				c1.8014526,0,3.4857178-0.3826294,4.956604-1.1662598c2.8218994-1.5046387,4.8706665-4.2459106,5.9223633-7.9321289
				C65.0536041,47.6798248,63.6165924,39.466568,59.3758698,32.148819z"/>
			<path fill="#32548C" d="M46.3517609,38.6855621c-0.7210693-0.1588135-1.4343872,0.2681274-1.6088257,0.9840698
				c-1.1714478,4.8550415-4.5895386,11.8135376-14.2293701,17.402771
				c-6.6071167,3.8267822-14.2346191,5.1986694-19.8967285,3.5794678c-2.9728999-0.8486328-5.1544795-2.4418335-6.3103023-4.6129761
				c-1.8066409-3.3920288-0.7419436-8.4449463,2.7776489-13.1829224c0.041687-0.057251,0.1015625-0.1509399,0.281189-0.072876
				c0.1640015,0.078125,0.1379395,0.1900635,0.1223145,0.255127c-0.6794434,2.8479614-0.3383789,5.6568604,0.9866939,8.1247559
				c1.4161377,2.642334,3.8970337,4.5088501,7.1771851,5.4017944c5.4095469,1.4656372,12.269105,0.124939,18.3633423-3.5899048
				c1.7363892-1.0595093,3.3477783-2.1789551,4.7900391-3.3243408c0.5778809-0.4581909,0.6741943-1.2964478,0.2160645-1.8717651
				c-0.4581909-0.5805054-1.2938232-0.6716309-1.8743896-0.2160645c-1.3562622,1.0777588-2.8765869,2.1346436-4.5218506,3.1369019
				c-5.3991699,3.2905273-11.6365356,4.5583496-16.2729492,3.2905273c-2.5563974-0.6924438-4.4672251-2.1086426-5.5293589-4.0870972
				c-1.0230713-1.9108276-1.2729492-4.0116577-0.7418823-6.2452393c0.3227539-1.3510742-0.3306274-2.7047729-1.5880127-3.2905273
				c-1.2599483-0.5856934-2.717773-0.2212524-3.5482173,0.8981323c-4.1417847,5.5736084-5.2872314,11.7146606-2.9911501,16.0282593
				c1.5046997,2.8219604,4.2459106,4.8707275,7.9295044,5.9224243c1.8457031,0.5258789,3.8372192,0.7835693,5.9119873,0.7835693
				c5.1596689,0,10.8347788-1.5957642,16.0569458-4.6207886c10.4546509-6.0603638,14.1903687-13.7243652,15.4841309-19.0844727
				C47.5075836,39.5785065,47.0676422,38.8600006,46.3517609,38.6855621z"/>
			<path fill="#32548C" d="M23.7060089,47.3388214c0.104126,0.0234375,0.2108765,0.036438,0.3123779,0.036438
				c0.6013794,0,1.1480713-0.4086914,1.2964478-1.0205078c0.171814-0.7158813-0.2681274-1.4343872-0.9840088-1.6087646
				c-4.8551025-1.1715088-11.8135996-4.5921631-17.4002075-14.2320576
				C3.1012108,23.91078,1.7293236,16.2871227,3.3485253,10.6185436c0.8460696-2.9729004,2.4418948-5.15448,4.6129761-6.3103027
				c3.3894649-1.8079224,8.4475708-0.7458496,13.1829224,2.7763672c0.057251,0.041687,0.151001,0.1119385,0.072876,0.2798462
				c-0.078125,0.1653442-0.182251,0.140564-0.2576904,0.1236572c-2.8375854-0.6768188-5.6517344-0.3358154-8.1221933,0.9866333
				c-2.642334,1.4161987-4.5088501,3.8983765-5.401794,7.1784668c-1.4682007,5.4017944-0.124939,12.2666016,3.5925288,18.359499
				c1.0569458,1.7363892,2.1737061,3.3477783,3.3217773,4.7952271c0.4581299,0.5805054,1.2963867,0.6742554,1.8717051,0.2160645
				c0.5779419-0.4581909,0.6742554-1.2964478,0.2160645-1.8717651c-1.0803232-1.3615112-2.1346445-2.8843994-3.1342783-4.5270386
				c-3.2931519-5.3991718-4.5557251-11.6339741-3.2931519-16.2730122c0.6924438-2.5550537,2.1060181-4.4671631,4.0870972-5.5280151
				c1.9133921-1.0230713,4.0194712-1.2716675,6.2452402-0.7432251c1.3588867,0.3201904,2.7047729-0.3319092,3.2905273-1.5879517
				c0.5883179-1.2600098,0.218689-2.7178345-0.8981323-3.5482178C17.1614532,0.8068982,11.020339-0.3398914,6.7067409,1.9549084
				C3.8847802,3.4596081,1.8360131,6.2021008,0.7843164,9.8870373c-1.8378906,6.4365234-0.4008789,14.6472168,3.839844,21.9649658
				C10.6818991,42.3067169,18.3459015,46.0449982,23.7060089,47.3388214z"/>
			<path fill="#32548C" d="M36.6546173,20.8167858c-0.7366943,0-1.3328857,0.5961914-1.3328857,1.3328857
				c0,1.8314209-1.4890137,3.3204346-3.3217163,3.3204346s-3.3217773-1.4890137-3.3217773-3.3204346
				s1.4890747-3.3204346,3.3217773-3.3204346c0.5831299,0,1.1558228,0.1535645,1.6608887,0.4438477
				c0.6299438,0.3605347,1.4500122,0.1483765,1.8196411-0.4907227c0.3670654-0.6390991,0.145813-1.4539185-0.4920044-1.8209839
				c-0.9059448-0.5219727-1.9394531-0.7979126-2.9885254-0.7979126c-3.3009644,0-5.9874878,2.6853027-5.9874878,5.9862061
				s2.6865234,5.9862061,5.9874878,5.9862061c3.3009033,0,5.9874878-2.6853027,5.9874878-5.9862061
				C37.9875031,21.4129772,37.3913727,20.8167858,36.6546173,20.8167858z"/>
			<path fill="#32548C" d="M32.0000153,47.8386383c3.3009033,0,5.9874878-2.6865845,5.9874878-5.9874878
				c0-0.7367554-0.5961304-1.3328857-1.3328857-1.3328857c-0.7366943,0-1.3328857,0.5961304-1.3328857,1.3328857
				c0,1.8327026-1.4890137,3.3217163-3.3217163,3.3217163s-3.3217773-1.4890137-3.3217773-3.3217163
				c0-1.8300781,1.4890747-3.3191528,3.3217773-3.3191528c0.5831299,0,1.1558228,0.1535645,1.6582642,0.4425659
				c0.6403809,0.3722534,1.4552002,0.1509399,1.8197021-0.4868164c0.3696289-0.6378174,0.1509399-1.4526367-0.4868164-1.8197021
				c-0.9085693-0.5258789-1.9420776-0.8018188-2.9911499-0.8018188c-3.3009644,0-5.9874878,2.68396-5.9874878,5.9849243
				C26.0125275,45.1520538,28.6990509,47.8386383,32.0000153,47.8386383z"/>
			<path fill="#32548C" d="M41.8507233,28.679945c0.5805054,0,1.1532593,0.1535645,1.6608887,0.4451294
				c0.6300049,0.3592529,1.4500122,0.1470947,1.8197021-0.4906616c0.3670044-0.6390991,0.145752-1.4539185-0.4920654-1.8209839
				c-0.9085083-0.5232544-1.9420166-0.7991943-2.9885254-0.7991943c-3.3009033,0-5.9874878,2.6852417-5.9874878,5.9861469
				c0,3.3009644,2.6865845,5.9875488,5.9874878,5.9875488c3.3009644,0,5.9874878-2.6865845,5.9874878-5.9875488
				c0-0.7366962-0.5961304-1.3328266-1.3328247-1.3328266c-0.7367554,0-1.3328857,0.5961304-1.3328857,1.3328266
				c0,1.8327026-1.4890747,3.3217773-3.3217773,3.3217773s-3.3217773-1.4890747-3.3217773-3.3217773
				C38.5289459,30.1703014,40.0180206,28.679945,41.8507233,28.679945z"/>
			<path fill="#32548C" d="M22.1492462,28.679945c0.5805664,0,1.1532593,0.1535645,1.6608887,0.4451294
				c0.6300049,0.3592529,1.4500122,0.1470947,1.8197021-0.4906616c0.3670654-0.6390991,0.145752-1.4539185-0.4920044-1.8209839
				c-0.9085693-0.5232544-1.9420776-0.7991943-2.9885864-0.7991943c-3.3009033,0-5.9874878,2.6852417-5.9874878,5.9861469
				c0,3.3009644,2.6865845,5.9875488,5.9874878,5.9875488c3.3009644,0,5.9849243-2.6865845,5.9849243-5.9875488
				c0-0.7366962-0.5961304-1.3328266-1.3328857-1.3328266c-0.7366943,0-1.3328857,0.5961304-1.3328857,1.3328266
				c0,1.8327026-1.4890137,3.3217773-3.3191528,3.3217773c-1.8326416,0-3.3217163-1.4890747-3.3217163-3.3217773
				C18.8275299,30.1703014,20.3166046,28.679945,22.1492462,28.679945z"/>
		</g>
	</g>
</g>
<g id="nanogong_x5F_voice">
</g>
<g id="questionnaire">
</g>
<g id="scorm_x5F_package">
</g>
<g id="survey">
</g>
<g id="tutorship">
</g>
<g id="advanced_x5F_forum">
</g>
<g id="subcourse">
</g>
<g id="lesson_1_">
</g>
<g id="adaptive_x5F_quiz">
</g>
<g id="ou_x5F_wiki">
</g>
<g id="support_x5F_tracker">
</g>
<g id="view_x5F_comments">
</g>
<g id="no_x5F_comment">
</g>
<g id="attention">
</g>
<g id="search">
</g>
<g id="submitted">
</g>
<g id="feedback">
</g>
<g id="dnd_x5F_arrow">
</g>
</svg>
