<?xml version="1.0" encoding="utf-8"?>
<!-- Generator: Adobe Illustrator 21.0.0, SVG Export Plug-In . SVG Version: 6.00 Build 0)  -->
<svg version="1.1" xmlns="http://www.w3.org/2000/svg" xmlns:xlink="http://www.w3.org/1999/xlink" x="0px" y="0px" width="64px"
	 height="64px" viewBox="0 0 64 64" enable-background="new 0 0 64 64" xml:space="preserve">
<g id="Layer_1">
</g>
<g id="Layer_2">
</g>
<g id="messages">
</g>
<g id="messages_x5F_hover">
</g>
<g id="profile">
</g>
<g id="profile_x5F_hover">
</g>
<g id="view_x5F_hover">
</g>
<g id="view_x5F_feedback">
</g>
<g id="no_x5F_feedback_x5F_to_x5F_view">
</g>
<g id="download_x5F_hover">
</g>
<g id="download">
</g>
<g id="no_x5F_feedback_x5F_download">
</g>
<g id="link_x5F_hover">
</g>
<g id="assignment_x5F_link_copy">
</g>
<g id="Layer_21">
</g>
<g id="home_x5F_hover">
</g>
<g id="home_1_">
</g>
<g id="edit_x5F_profile">
</g>
<g id="preferences">
</g>
<g id="notifications">
</g>
<g id="my_x5F_posts">
</g>
<g id="logout">
</g>
<g id="assignment">
</g>
<g id="coursework">
</g>
<g id="forum">
</g>
<g id="quiz">
</g>
<g id="book">
</g>
<g id="database">
</g>
<g id="wiki">
</g>
<g id="choice">
</g>
<g id="workshop">
</g>
<g id="certificate">
</g>
<g id="scheduler">
</g>
<g id="equella">
</g>
<g id="file">
</g>
<g id="folder">
</g>
<g id="ims_x5F_content_x5F_package">
</g>
<g id="label">
</g>
<g id="lightbox_x5F_gallery">
</g>
<g id="nln_x5F_learning_x5F_object">
</g>
<g id="page">
</g>
<g id="subpage">
</g>
<g id="tab_x5F_display">
</g>
<g id="new_x5F_label">
</g>
<g id="url">
</g>
<g id="_x33_60_x5F_degree_x5F_diagnostics">
</g>
<g id="adobe_x5F_connect">
</g>
<g id="attendance_x5F_register">
</g>
<g id="booking">
</g>
<g id="chat">
</g>
<g id="checklist">
</g>
<g id="external_x5F_tool">
</g>
<g id="face_x5F_to_x5F_face">
</g>
<g id="forumNG">
</g>
<g id="glossary">
</g>
<g id="group_x5F_choice">
</g>
<g id="journal">
</g>
<g id="mediasite_x5F_content">
</g>
<g id="nanogong_x5F_voice">
</g>
<g id="questionnaire">
	<g>
		<g>
			<g opacity="0.3">
				<g>
					<path fill="#545157" d="M1.3321844,42.6061974v-0.2513008C1.3273016,42.4989395,1.3321844,42.6061974,1.3321844,42.6061974z"/>
				</g>
			</g>
			<g>
				<g>
					<path fill="#FFFFFF" d="M59.7856331,17.4305801h-1.9816055l0.0639648-8.1082363
						c0.012043-1.7667642-1.416832-3.2054038-3.1837578-3.2054038h-12.480957c-1.7583008,0-3.1837578,1.425293-3.1837578,3.1837564
						v0.2565107c0,1.6160479-1.3092422,2.9265947-2.925293,2.9282227L7.1031804,12.510169
						c-3.1871743,0-5.7709961,2.5836592-5.7709961,5.770833v25.7060547c0,1.6975937,1.3761393,3.0738945,3.0737305,3.0738945
						l1.7019858,0.0000153v7.9358559c0,1.5935898,1.2918296,2.885582,2.885417,2.885582h15.6669912h35.1197929
						c1.593586,0,2.8854141-1.2919922,2.8854141-2.885582V20.3106251
						C62.6655159,18.7199669,61.3761292,17.4305801,59.7856331,17.4305801z"/>
				</g>
			</g>
		</g>
		<g opacity="0.3">
			<path fill="#545157" d="M52.7573242,24.7769775H36.576416c-1.4235229,0-2.5775146,1.1539917-2.5775146,2.5775146v2.2352905
				c0,1.4235229,1.1539917,2.5774536,2.5775146,2.5774536h16.1809082c1.4235229,0,2.5774536-1.1539307,2.5774536-2.5774536
				v-2.2352905C55.3347778,25.9309692,54.1808472,24.7769775,52.7573242,24.7769775z"/>
			<path fill="#545157" d="M1.3322754,42.6062012v-0.3299561C1.3168335,42.4768066,1.3322754,42.6062012,1.3322754,42.6062012z"/>
			<path fill="#545157" d="M54.6842651,6.1168823h-12.480957c-1.7583008,0-3.1837158,1.425415-3.1837158,3.1837769V9.557251
				c0,1.6160889-1.3093262,2.9266357-2.925415,2.9281616L7.1030884,12.5101929c-3.1870728,0-5.770813,2.5837402-5.770813,5.770874
				v23.9951782c0.0609741-0.7911377,0.6290894-2.7437134,4.7756348-2.7437134V20.31604
				c0-1.5935669,1.2918701-2.885437,2.885437-2.885437h48.81073l0.0638428-8.1081543
				C57.8800049,7.5556641,56.4511108,6.1168823,54.6842651,6.1168823z"/>
		</g>
		<g opacity="0.3">
			<g>
				<path fill="#545157" d="M27.4298477,39.5325584h-7.7477837v-7.7477818c0-1.6975422-1.3760834-3.0736275-3.0736256-3.0736275
					h-1.381155c-1.6975422,0-3.0736256,1.3760853-3.0736256,3.0736275v7.7477818H4.4058752
					c-1.6975422,0-3.073626,1.3760834-3.073626,3.0736275v1.3809853c0,1.6975403,1.376084,3.0737953,3.073626,3.0737953h7.7477827
					v7.7477798c0,1.6973763,1.3760834,3.0736275,3.0736256,3.0736275h1.381155c1.6975422,0,3.0736256-1.3762512,3.0736256-3.0736275
					v-7.7477798h7.7477837c1.6975403,0,3.0736256-1.376255,3.0736256-3.0737953v-1.3809853
					C30.5034733,40.9086418,29.127388,39.5325584,27.4298477,39.5325584z"/>
			</g>
		</g>
		<g>
			<path fill="#545157" d="M34,26.7382813c-0.7369385,0-1.333313,0.5963745-1.333313,1.333313v1.5182495
				c0,2.15625,1.7526245,3.9101563,3.9088745,3.9101563h16.182251c2.15625,0,3.911499-1.7539063,3.911499-3.9101563V27.354187
				c0-2.15625-1.755249-3.9101563-3.911499-3.9101563h-15.369751c-0.7369995,0-1.333374,0.5963135-1.333374,1.333313
				s0.5963745,1.333313,1.333374,1.333313h15.369751c0.6875,0,1.244812,0.557312,1.244812,1.2435303v2.2356567
				c0,0.6862183-0.557312,1.2434692-1.244812,1.2434692h-16.182251c-0.6849365,0-1.2421875-0.557251-1.2421875-1.2434692v-1.5182495
				C35.333374,27.3346558,34.7369995,26.7382813,34,26.7382813z"/>
			<path fill="#545157" d="M59.786499,16.0976563H8.9921875c-2.3255005,0-4.21875,1.8919067-4.21875,4.21875v17.8828125H4.40625
				C1.9765625,38.1992188,0,40.177063,0,42.6067505v1.380249c0,2.4296875,1.9765625,4.4075317,4.40625,4.4075317h6.4140625
				v6.4140625c0,0.6184692,0.1305542,1.2061768,0.3615723,1.7409058H8.9921875c-0.8567505,0-1.552063-0.6966553-1.552063-1.552124
				v-3.9361572c0-0.7369995-0.5963745-1.333374-1.333313-1.333374c-0.7369995,0-1.333374,0.5963745-1.333374,1.333374v3.9361572
				c0,2.3268433,1.8932495,4.21875,4.21875,4.21875h5.421875c0.0963135,0,0.1809692-0.0354004,0.2714844-0.0547485
				c0.1793213,0.0223389,0.3557739,0.0547485,0.5410156,0.0547485h1.3828125c2.4296875,0,4.40625-1.9778442,4.40625-4.4075317
				v-6.4140625h6.4140625c2.4296875,0,4.40625-1.9778442,4.40625-4.4075317v-1.380249
				c0-2.4296875-1.9765625-4.4075317-4.40625-4.4075317H21.015625v-6.4140625c0-2.4296875-1.9765625-4.4075317-4.40625-4.4075317
				h-1.3828125c-2.4296875,0-4.40625,1.9778442-4.40625,4.4075317v6.4140625h-3.380188V20.3164063
				c0-0.8554688,0.6953125-1.552063,1.552063-1.552063H59.786499c0.854126,0,1.546875,0.6939697,1.546875,1.546875v34.6861572
				c0,0.8554688-0.6953125,1.552124-1.552124,1.552124H24.661499c-0.7369995,0-1.333374,0.5963135-1.333374,1.333313
				s0.5963745,1.333313,1.333374,1.333313H59.78125c2.3255615,0,4.21875-1.8919067,4.21875-4.21875V20.3112183
				C64,17.9882813,62.109375,16.0976563,59.786499,16.0976563z M12.1536865,40.8659058
				c0.7369385,0,1.333313-0.5963745,1.333313-1.333374v-7.7473755c0-0.9596558,0.78125-1.7409058,1.739563-1.7409058h1.3828125
				c0.958374,0,1.739624,0.78125,1.739624,1.7409058v7.7473755c0,0.7369995,0.5963135,1.333374,1.333313,1.333374h7.7473755
				c0.958374,0,1.739624,0.78125,1.739624,1.7408447v1.380249c0,0.9595947-0.78125,1.7408447-1.739624,1.7408447H19.682312
				c-0.7369995,0-1.333313,0.5963745-1.333313,1.333374v7.7473755c0,0.9596558-0.78125,1.7409058-1.739624,1.7409058h-1.3828125
				c-0.958313,0-1.739563-0.78125-1.739563-1.7409058v-7.7473755c0-0.7369995-0.5963745-1.333374-1.333313-1.333374H4.40625
				c-0.958313,0-1.739563-0.78125-1.739563-1.7408447v-1.380249c0-0.9595947,0.78125-1.7408447,1.739563-1.7408447H12.1536865z"/>
			<path fill="#545157" d="M1.333374,36.5065308c0.7369385,0,1.333313-0.5963745,1.333313-1.333374V18.28125
				c0-2.4465942,1.989563-4.4375,4.4375-4.4375h29.036438c0.104187,0,0.203125-0.0117188,0.2994995-0.0351563
				C38.625,13.6536255,40.354187,11.828125,40.354187,9.6067505v-0.609375c0-0.8528442,0.692688-1.546875,1.5442505-1.546875
				H55.010437c0.854187,0,1.546875,0.6940308,1.546875,1.546875v3.5130615c0,0.7369385,0.5963745,1.333313,1.333313,1.333313
				c0.7369995,0,1.333374-0.5963745,1.333374-1.333313V8.9973755c0-2.322876-1.890625-4.213501-4.213562-4.213501H41.8984375
				c-2.322876,0-4.2109375,1.890625-4.2109375,4.213501v0.609375c0,0.8529053-0.692688,1.5455933-1.546875,1.5455933
				c-0.0859375,0-0.1692505,0.0090942-0.2525635,0.0247192H7.104187C3.1875,11.177063,0,14.364563,0,18.28125v16.8919067
				C0,35.9101563,0.5963745,36.5065308,1.333374,36.5065308z"/>
		</g>
	</g>
</g>
<g id="scorm_x5F_package">
</g>
<g id="survey">
</g>
<g id="tutorship">
</g>
<g id="advanced_x5F_forum">
</g>
<g id="subcourse">
</g>
<g id="lesson_1_">
</g>
<g id="adaptive_x5F_quiz">
</g>
<g id="ou_x5F_wiki">
</g>
<g id="support_x5F_tracker">
</g>
<g id="view_x5F_comments">
</g>
<g id="no_x5F_comment">
</g>
<g id="attention">
</g>
<g id="search">
</g>
<g id="submitted">
</g>
<g id="feedback">
</g>
<g id="dnd_x5F_arrow">
</g>
</svg>
