<?xml version="1.0" encoding="utf-8"?>
<!-- Generator: Adobe Illustrator 21.0.0, SVG Export Plug-In . SVG Version: 6.00 Build 0)  -->
<svg version="1.1" xmlns="http://www.w3.org/2000/svg" xmlns:xlink="http://www.w3.org/1999/xlink" x="0px" y="0px" width="64px"
	 height="64px" viewBox="0 0 64 64" enable-background="new 0 0 64 64" xml:space="preserve">
<g id="Layer_1">
</g>
<g id="Layer_2">
</g>
<g id="messages">
</g>
<g id="messages_x5F_hover">
</g>
<g id="profile">
</g>
<g id="profile_x5F_hover">
</g>
<g id="view_x5F_hover">
</g>
<g id="view_x5F_feedback">
</g>
<g id="no_x5F_feedback_x5F_to_x5F_view">
</g>
<g id="download_x5F_hover">
</g>
<g id="download">
</g>
<g id="no_x5F_feedback_x5F_download">
</g>
<g id="link_x5F_hover">
</g>
<g id="assignment_x5F_link_copy">
</g>
<g id="Layer_21">
</g>
<g id="home_x5F_hover">
</g>
<g id="home_1_">
</g>
<g id="edit_x5F_profile">
</g>
<g id="preferences">
</g>
<g id="notifications">
</g>
<g id="my_x5F_posts">
</g>
<g id="logout">
</g>
<g id="assignment">
</g>
<g id="coursework">
	<g>
		<path fill="#FFFFFF" d="M59.9952812,12.3571157c-3.0581779-3.7862949-8.3976784-5.1209035-14.8338127-4.3266649
			c-0.5715752,0.0705385-1.7658195,0.254652-2.8139267,0.4310703C42.5599442,5.6681132,42.6762238,2.8478439,42.6762238,0H7.1952786
			c0,10.3166914-2.0844574,20.1621265-5.870111,29.0955448l0.0192379,0.0192394H1.3252391l7.3433027,7.3452263
			c-6.1976528,6.2187424-9.0445709,16.5085716-4.0615387,23.2197342c1.526916,2.0575943,3.8737917,3.2856102,6.5980854,3.9082756
			c8.1997442,1.8755493,21.1008606-2.7473068,32.4865379-11.9394379
			C59.9933586,38.48312,66.9401474,20.9591446,59.9952812,12.3571157z"/>
		<g id="g88" transform="translate(553.11 112.79)">
			<path id="path90" fill="#61849C" d="M-534.2799683-70.0767899h11.3799438
				c5.2493896-11.9757843,8.3587646-25.0110168,8.8434448-38.8029938h-28.0609741
				c-0.4291992,8.9008942-2.3373413,17.3055954-5.4888306,25.1853561L-534.2799683-70.0767899z M-551.78479-83.6944275
				c3.7856445-8.9334641,5.8700562-18.7788544,5.8700562-29.0955429h35.480957
				c0,16.648468-3.6956177,32.4328995-10.3147583,46.5773926h-13.5314331L-551.78479-83.6944275z"/>
		</g>
		<g id="g92" transform="translate(565.39 130.65)">
			<path id="path94" fill="#E51636" d="M-523.0336914-122.1532898c6.385437-1.2816849,13.2843018,0.614975,15.8725586,3.8220596
				c5.6708374,7.0233917,0.0670471,23.8596039-14.9069824,35.9541702
				c-13.8053589,11.1462402-30.3312378,15.4376678-35.5556641,8.958374
				c-3.6036987-4.4715195-0.9541016-13.3341064,3.6821899-18.0010376l7.3816528,7.3644104v-17.4799347h-17.5048218
				l7.3433228,7.345253c-6.1976929,6.21875-9.0446167,16.5086136-4.0615234,23.2197266
				c1.5269165,2.0575867,3.8737793,3.2856293,6.5980835,3.9082718c8.199707,1.8755875,21.1008301-2.7472839,32.4865112-11.9393845
				c16.3017273-13.1655045,23.2484741-30.6894989,16.3036194-39.2915268
				C-508.8872681-122.6169128-515.3551025-123.7434158-523.0336914-122.1532898"/>
		</g>
	</g>
</g>
<g id="forum">
</g>
<g id="quiz">
</g>
<g id="book">
</g>
<g id="database">
</g>
<g id="wiki">
</g>
<g id="choice">
</g>
<g id="workshop">
</g>
<g id="certificate">
</g>
<g id="scheduler">
</g>
<g id="equella">
</g>
<g id="file">
</g>
<g id="folder">
</g>
<g id="ims_x5F_content_x5F_package">
</g>
<g id="label">
</g>
<g id="lightbox_x5F_gallery">
</g>
<g id="nln_x5F_learning_x5F_object">
</g>
<g id="page">
</g>
<g id="subpage">
</g>
<g id="tab_x5F_display">
</g>
<g id="new_x5F_label">
</g>
<g id="url">
</g>
<g id="_x33_60_x5F_degree_x5F_diagnostics">
</g>
<g id="adobe_x5F_connect">
</g>
<g id="attendance_x5F_register">
</g>
<g id="booking">
</g>
<g id="chat">
</g>
<g id="checklist">
</g>
<g id="external_x5F_tool">
</g>
<g id="face_x5F_to_x5F_face">
</g>
<g id="forumNG">
</g>
<g id="glossary">
</g>
<g id="group_x5F_choice">
</g>
<g id="journal">
</g>
<g id="mediasite_x5F_content">
</g>
<g id="nanogong_x5F_voice">
</g>
<g id="questionnaire">
</g>
<g id="scorm_x5F_package">
</g>
<g id="survey">
</g>
<g id="tutorship">
</g>
<g id="advanced_x5F_forum">
</g>
<g id="subcourse">
</g>
<g id="lesson_1_">
</g>
<g id="adaptive_x5F_quiz">
</g>
<g id="ou_x5F_wiki">
</g>
<g id="support_x5F_tracker">
</g>
<g id="view_x5F_comments">
</g>
<g id="no_x5F_comment">
</g>
<g id="attention">
</g>
<g id="search">
</g>
<g id="submitted">
</g>
<g id="feedback">
</g>
<g id="dnd_x5F_arrow">
</g>
</svg>
