<?xml version="1.0" encoding="utf-8"?>
<!-- Generator: Adobe Illustrator 21.0.0, SVG Export Plug-In . SVG Version: 6.00 Build 0)  -->
<svg version="1.1" xmlns="http://www.w3.org/2000/svg" xmlns:xlink="http://www.w3.org/1999/xlink" x="0px" y="0px" width="64px"
	 height="64px" viewBox="0 0 64 64" enable-background="new 0 0 64 64" xml:space="preserve">
<g id="Layer_1">
</g>
<g id="Layer_2">
</g>
<g id="messages">
</g>
<g id="messages_x5F_hover">
</g>
<g id="profile">
</g>
<g id="profile_x5F_hover">
</g>
<g id="view_x5F_hover">
</g>
<g id="view_x5F_feedback">
</g>
<g id="no_x5F_feedback_x5F_to_x5F_view">
</g>
<g id="download_x5F_hover">
</g>
<g id="download">
</g>
<g id="no_x5F_feedback_x5F_download">
</g>
<g id="link_x5F_hover">
</g>
<g id="assignment_x5F_link_copy">
</g>
<g id="Layer_21">
</g>
<g id="home_x5F_hover">
</g>
<g id="home_1_">
</g>
<g id="edit_x5F_profile">
</g>
<g id="preferences">
</g>
<g id="notifications">
</g>
<g id="my_x5F_posts">
</g>
<g id="logout">
</g>
<g id="assignment">
</g>
<g id="coursework">
</g>
<g id="forum">
</g>
<g id="quiz">
</g>
<g id="book">
</g>
<g id="database">
</g>
<g id="wiki">
</g>
<g id="choice">
</g>
<g id="workshop">
</g>
<g id="certificate">
</g>
<g id="scheduler">
</g>
<g id="equella">
</g>
<g id="file">
</g>
<g id="folder">
</g>
<g id="ims_x5F_content_x5F_package">
</g>
<g id="label">
</g>
<g id="lightbox_x5F_gallery">
</g>
<g id="nln_x5F_learning_x5F_object">
</g>
<g id="page">
</g>
<g id="subpage">
</g>
<g id="tab_x5F_display">
</g>
<g id="new_x5F_label">
</g>
<g id="url">
</g>
<g id="_x33_60_x5F_degree_x5F_diagnostics">
</g>
<g id="adobe_x5F_connect">
</g>
<g id="attendance_x5F_register">
</g>
<g id="booking">
</g>
<g id="chat">
</g>
<g id="checklist">
</g>
<g id="external_x5F_tool">
</g>
<g id="face_x5F_to_x5F_face">
</g>
<g id="forumNG">
</g>
<g id="glossary">
</g>
<g id="group_x5F_choice">
</g>
<g id="journal">
</g>
<g id="mediasite_x5F_content">
</g>
<g id="nanogong_x5F_voice">
</g>
<g id="questionnaire">
	<g>
		<g>
			<path fill="#FFFFFF" d="M49.9131355,3.0680339c-1.1108398-1.11084-2.6175117-1.7348634-4.1886368-1.7348634H19.9191589
				c-1.6357422,0-2.9617519,1.3260092-2.9617519,2.9617515v29.2003593h-0.6905918
				c-1.6975918,0-3.0737305,1.3759766-3.0737305,3.0735664v7.7477226H5.445363
				c-1.6975913,0-3.0735679,1.3761368-3.0735679,3.0737305v1.3810196c0,1.6974297,1.3759766,3.0737305,3.0735679,3.0737305
				h7.7477217v7.7477226c0,1.6974297,1.3761387,3.0737305,3.0737305,3.0737305h1.3811836
				c0.3911133,0,0.7584648-0.0895195,1.1025391-0.2226563c0.340332,0.140625,0.7115898,0.2226563,1.1027031,0.2226563h38.8792305
				c1.5992851,0,2.8958359-1.2965508,2.8958359-2.8958321V14.7833662L49.9131355,3.0680339z"/>
		</g>
		<g opacity="0.3">
			<path fill="#545157" d="M59.8880615,13.0430908L48.1781616,1.3331909v10.4884033
				c0,1.6357422,1.3259888,2.961731,2.961731,2.961731h8.0273438
				C60.0754395,14.7833252,60.5302734,13.6853027,59.8880615,13.0430908z"/>
			<path fill="#545157" d="M28.4692993,44.3167114h-7.7477417v-7.7478027c0-1.6975708-1.3760986-3.0736084-3.0736084-3.0736084
				h-1.3811646c-1.6975708,0-3.0736694,1.3760376-3.0736694,3.0736084v7.7478027H5.4453735
				c-1.6975708,0-3.0736694,1.3760376-3.0736694,3.0736084v1.3809814c0,1.6975708,1.3760986,3.0737915,3.0736694,3.0737915
				h7.7477417v7.7478027c0,1.6973267,1.3760986,3.0736084,3.0736694,3.0736084h1.3811646
				c1.6975098,0,3.0736084-1.3762817,3.0736084-3.0736084v-7.7478027h7.7477417
				c1.6975708,0,3.0736694-1.3762207,3.0736694-3.0737915v-1.3809814
				C31.5429688,45.692749,30.1668701,44.3167114,28.4692993,44.3167114z"/>
		</g>
		<g>
			<path fill="#545157" d="M61.6289063,18.4492188c-0.7369995,0-1.333313,0.5963745-1.333313,1.333313V59.770813
				c0,0.8619995-0.7005615,1.5625-1.5625,1.5625H24.3762817c-0.7369385,0-1.333313,0.5963745-1.333313,1.333374
				c0,0.7369385,0.5963745,1.333313,1.333313,1.333313h34.3568115c2.3306885,0,4.229126-1.8971558,4.229126-4.229187V19.7825317
				C62.9622192,19.0455933,62.3659058,18.4492188,61.6289063,18.4492188z"/>
			<path fill="#545157" d="M48.1601563,23.5078125h-17.734375c-0.7369995,0-1.333313,0.5963745-1.333313,1.333313
				c0,0.7369995,0.5963135,1.333374,1.333313,1.333374h17.734375c0.7369995,0,1.333313-0.5963745,1.333313-1.333374
				C49.4934692,24.104187,48.8971558,23.5078125,48.1601563,23.5078125z"/>
			<path fill="#545157" d="M48.1601563,33.2409058h-17.734375c-0.7369995,0-1.333313,0.5963135-1.333313,1.333313
				s0.5963135,1.333313,1.333313,1.333313h17.734375c0.7369995,0,1.333313-0.5963135,1.333313-1.333313
				S48.8971558,33.2409058,48.1601563,33.2409058z"/>
			<path fill="#545157" d="M48.1601563,43.125h-12.28125c-0.7369995,0-1.333313,0.5963745-1.333313,1.333313
				c0,0.7369995,0.5963135,1.333374,1.333313,1.333374h12.28125c0.7369995,0,1.333313-0.5963745,1.333313-1.333374
				C49.4934692,43.7213745,48.8971558,43.125,48.1601563,43.125z"/>
			<path fill="#545157" d="M32.8762817,48.770813v-1.380188c0-2.4296875-1.9765625-4.4075317-4.40625-4.4075317h-6.4140625
				v-6.4140625c0-2.2096558-1.6400757-4.0281982-3.765625-4.3425903V4.2955933c0-0.8984375,0.729187-1.6289063,1.6276245-1.6289063
				h25.807312c1.208313,0,2.390625,0.489563,3.244751,1.34375l9.4401245,9.4400635h-7.270813
				c-0.8984375,0-1.6276245-0.7304688-1.6276245-1.6289063V7.2565308c0-0.7369995-0.5963745-1.333374-1.333313-1.333374
				c-0.7369995,0-1.333374,0.5963745-1.333374,1.333374v4.5650635c0,2.3685303,1.927124,4.2955933,4.2943115,4.2955933h10.489563
				c0.5390625,0,1.026062-0.3242188,1.2317505-0.822937c0.2057495-0.4986572,0.0911865-1.0715942-0.2890625-1.453125
				L50.8554688,2.125C49.5065308,0.7747192,47.6367188,0,45.7252808,0h-25.807312
				c-2.3671875,0-4.2942505,1.927063-4.2942505,4.2955933v27.9309082c-2.123291,0.3146973-3.7630615,2.1331177-3.7630615,4.3425293
				v6.4140625H5.4465942c-2.432251,0-4.4088135,1.9778442-4.4088135,4.4075317v1.380188
				c0,2.4296875,1.9765625,4.4075928,4.4088135,4.4075928h6.4140625v6.4140625c0,2.4296875,1.9765625,4.4075317,4.40625,4.4075317
				h1.380249c2.432251,0,4.4088135-1.9778442,4.4088135-4.4075317v-6.4140625h6.4140625
				C30.8997192,53.1784058,32.8762817,51.2005005,32.8762817,48.770813z M20.7226563,50.5117188
				c-0.7369995,0-1.333313,0.5963745-1.333313,1.333313v7.7474365c0,0.9595947-0.78125,1.7408447-1.7421875,1.7408447h-1.380249
				c-0.958313,0-1.739563-0.78125-1.739563-1.7408447v-7.7474365c0-0.7369385-0.5963745-1.333313-1.333313-1.333313H5.4465942
				c-0.9609375,0-1.7421875-0.78125-1.7421875-1.7409058v-1.380188c0-0.9596558,0.78125-1.7409058,1.7421875-1.7409058h7.7474365
				c0.7369385,0,1.333313-0.5963135,1.333313-1.333313v-7.7473755c0-0.9596558,0.78125-1.7409058,1.739563-1.7409058h1.380249
				c0.9609375,0,1.7421875,0.78125,1.7421875,1.7409058v7.7473755c0,0.7369995,0.5963135,1.333313,1.333313,1.333313h7.7473755
				c0.958374,0,1.739624,0.78125,1.739624,1.7409058v1.380188c0,0.9596558-0.78125,1.7409058-1.739624,1.7409058H20.7226563z"/>
		</g>
	</g>
</g>
<g id="scorm_x5F_package">
</g>
<g id="survey">
</g>
<g id="tutorship">
</g>
<g id="advanced_x5F_forum">
</g>
<g id="subcourse">
</g>
<g id="lesson_1_">
</g>
<g id="adaptive_x5F_quiz">
</g>
<g id="ou_x5F_wiki">
</g>
<g id="support_x5F_tracker">
</g>
<g id="view_x5F_comments">
</g>
<g id="no_x5F_comment">
</g>
<g id="attention">
</g>
<g id="search">
</g>
<g id="submitted">
</g>
<g id="feedback">
</g>
<g id="dnd_x5F_arrow">
</g>
</svg>
