<?xml version="1.0" encoding="utf-8"?>
<!-- Generator: Adobe Illustrator 21.0.0, SVG Export Plug-In . SVG Version: 6.00 Build 0)  -->
<svg version="1.1" xmlns="http://www.w3.org/2000/svg" xmlns:xlink="http://www.w3.org/1999/xlink" x="0px" y="0px" width="64px"
	 height="64px" viewBox="0 0 64 64" enable-background="new 0 0 64 64" xml:space="preserve">
<g id="Layer_1">
</g>
<g id="Layer_2">
</g>
<g id="messages">
</g>
<g id="messages_x5F_hover">
</g>
<g id="profile">
</g>
<g id="profile_x5F_hover">
</g>
<g id="view_x5F_hover">
</g>
<g id="view_x5F_feedback">
</g>
<g id="no_x5F_feedback_x5F_to_x5F_view">
</g>
<g id="download_x5F_hover">
</g>
<g id="download">
</g>
<g id="no_x5F_feedback_x5F_download">
</g>
<g id="link_x5F_hover">
</g>
<g id="assignment_x5F_link_copy">
</g>
<g id="Layer_21">
</g>
<g id="home_x5F_hover">
</g>
<g id="home_1_">
	<g>
		<path fill="#FFFFFF" d="M62.4887543,28.2739735l0.1367989-0.1401367L35.4313507,6.683774
			c-1.9854507-1.5658712-4.7856998-1.5658712-6.7711487,0L1.9439684,27.7567997
			c-1.1339468,0.8945446-0.5014924,2.7175026,0.9427592,2.7175026l3.4715755-0.0001678
			c0.8406587,0,1.5221615,0.6815033,1.5221615,1.5223274v23.4531956c0,1.6814842,1.3630047,3.0444908,3.0444889,3.0444908
			h14.4134865h7.6586876h5.7558174v-3.0444908c0,1.6814842,1.3630066,3.0444908,3.0444908,3.0444908h10.2986107
			c2.7685547,0,4.1148758-1.3630066,4.1148758-3.0444908V30.4742069l4.9270058-0.0000725
			C62.3409424,30.4741344,62.964222,29.2135639,62.4887543,28.2739735z"/>
	</g>
	<g>
		<g opacity="0.3">
			<g>
				<rect x="25.3455505" y="36.7739029" fill="#32548C" width="13.4145498" height="21.7213421"/>
			</g>
		</g>
		<g opacity="0.3">
			<g>
				<path fill="#32548C" d="M62.089119,27.7588711L35.4404564,6.6924295
					c-1.9859428-1.5699377-4.7899761-1.5710044-6.777113-0.0025783L1.9706049,27.7581539
					c-1.1334174,0.8945942-0.5008317,2.7170887,0.9430985,2.7170887h4.9739041l24.1652184-18.469101l24.1652145,18.469101h4.9270706
					C62.588459,30.4752426,63.2213974,28.6539669,62.089119,27.7588711z"/>
			</g>
		</g>
		<g>
			<path fill="#32548C" d="M33.004406,59.8625259h-22.07234c-2.4317217,0-4.412333-1.9806099-4.412333-4.4123306v-23.452364
				l-3.6248927-0.1548195c-1.2492267,0-2.3209457-0.7634163-2.7306814-1.9432411
				c-0.408401-1.1798248-0.0400393-2.4397278,0.9409239-3.2138214l26.7155666-21.074028
				c2.4931145-1.9672649,5.9711971-1.9645958,8.4643116,0l27.1947021,21.4503975
				c0.5925789,0.4671249,0.6940117,1.3266354,0.2268906,1.9192181c-0.4671249,0.5952511-1.323967,0.6940136-1.91922,0.2268887
				L34.5926323,7.7580295c-1.4921303-1.1798253-3.5821838-1.1824946-5.0796547,0L2.7987459,28.832056l0.0960944,0.2776051h3.4700742
				c1.5935645,0,2.8881688,1.2946053,2.8881688,2.8881702v23.452364c0,0.9262428,0.7527399,1.6789818,1.6789827,1.6789818h22.07234
				c0.7554092,0,1.3666763,0.6112671,1.3666763,1.3666725C34.3710823,59.2512589,33.7598152,59.8625259,33.004406,59.8625259z"/>
		</g>
		<g>
			<path fill="#32548C" d="M52.1031609,59.8625259H41.8050461c-2.4317207,0-4.4123306-1.9806099-4.4123306-4.4123306V39.8188438
				c0-0.9262428-0.752739-1.6789818-1.6763115-1.6789818h-7.3271961c-0.9235744,0-1.6763134,0.752739-1.6763134,1.6789818
				v13.7308159c0,0.7554092-0.6112671,1.3666763-1.3666744,1.3666763c-0.7554092,0-1.3666763-0.6112671-1.3666763-1.3666763
				V39.8188438c0-2.4317207,1.9779434-4.4123306,4.4096642-4.4123306h7.3271961
				c2.4317207,0,4.4096603,1.9806099,4.4096603,4.4123306v15.6313515c0,0.9262428,0.752739,1.6789818,1.6789818,1.6789818
				h10.2981148c0.8274765,0,2.7493668-0.1628265,2.7493668-1.6789818v-23.460371
				c0-0.5231819-0.2482452-1.0223389-0.6673241-1.339983L32.1475639,13.9587851L12.7898903,28.4770412
				c-0.5952511,0.4511089-1.4547625,0.3416691-1.9138794-0.2642593c-0.4564486-0.6005898-0.3389997-1.4574318,0.2642593-1.9138794
				l19.1681557-14.5182562c1.022337-0.7794323,2.4584122-0.776763,3.4860878-0.0026693l22.0429802,16.6937256
				c1.0944061,0.8328171,1.7483826,2.1461067,1.7483826,3.5181217v23.460371
				C57.5858765,57.6470184,55.8908806,59.8625259,52.1031609,59.8625259z"/>
		</g>
	</g>
</g>
<g id="edit_x5F_profile">
</g>
<g id="preferences">
</g>
<g id="notifications">
</g>
<g id="my_x5F_posts">
</g>
<g id="logout">
</g>
<g id="assignment">
</g>
<g id="coursework">
</g>
<g id="forum">
</g>
<g id="quiz">
</g>
<g id="book">
</g>
<g id="database">
</g>
<g id="wiki">
</g>
<g id="choice">
</g>
<g id="workshop">
</g>
<g id="certificate">
</g>
<g id="scheduler">
</g>
<g id="equella">
</g>
<g id="file">
</g>
<g id="folder">
</g>
<g id="ims_x5F_content_x5F_package">
</g>
<g id="label">
</g>
<g id="lightbox_x5F_gallery">
</g>
<g id="nln_x5F_learning_x5F_object">
</g>
<g id="page">
</g>
<g id="subpage">
</g>
<g id="tab_x5F_display">
</g>
<g id="new_x5F_label">
</g>
<g id="url">
</g>
<g id="_x33_60_x5F_degree_x5F_diagnostics">
</g>
<g id="adobe_x5F_connect">
</g>
<g id="attendance_x5F_register">
</g>
<g id="booking">
</g>
<g id="chat">
</g>
<g id="checklist">
</g>
<g id="external_x5F_tool">
</g>
<g id="face_x5F_to_x5F_face">
</g>
<g id="forumNG">
</g>
<g id="glossary">
</g>
<g id="group_x5F_choice">
</g>
<g id="journal">
</g>
<g id="mediasite_x5F_content">
</g>
<g id="nanogong_x5F_voice">
</g>
<g id="questionnaire">
</g>
<g id="scorm_x5F_package">
</g>
<g id="survey">
</g>
<g id="tutorship">
</g>
<g id="advanced_x5F_forum">
</g>
<g id="subcourse">
</g>
<g id="lesson_1_">
</g>
<g id="adaptive_x5F_quiz">
</g>
<g id="ou_x5F_wiki">
</g>
<g id="support_x5F_tracker">
</g>
<g id="view_x5F_comments">
</g>
<g id="no_x5F_comment">
</g>
<g id="attention">
</g>
<g id="search">
</g>
<g id="submitted">
</g>
<g id="feedback">
</g>
<g id="dnd_x5F_arrow">
</g>
</svg>
