<?xml version="1.0" encoding="utf-8"?>
<!-- Generator: Adobe Illustrator 21.0.0, SVG Export Plug-In . SVG Version: 6.00 Build 0)  -->
<svg version="1.1" xmlns="http://www.w3.org/2000/svg" xmlns:xlink="http://www.w3.org/1999/xlink" x="0px" y="0px" width="64px"
	 height="64px" viewBox="0 0 64 64" enable-background="new 0 0 64 64" xml:space="preserve">
<g id="Layer_1">
</g>
<g id="Layer_2">
</g>
<g id="messages">
</g>
<g id="messages_x5F_hover">
</g>
<g id="profile">
</g>
<g id="profile_x5F_hover">
</g>
<g id="view_x5F_hover">
</g>
<g id="view_x5F_feedback">
</g>
<g id="no_x5F_feedback_x5F_to_x5F_view">
</g>
<g id="download_x5F_hover">
</g>
<g id="download">
</g>
<g id="no_x5F_feedback_x5F_download">
</g>
<g id="link_x5F_hover">
</g>
<g id="assignment_x5F_link_copy">
</g>
<g id="Layer_21">
</g>
<g id="home_x5F_hover">
</g>
<g id="home_1_">
</g>
<g id="edit_x5F_profile">
</g>
<g id="preferences">
</g>
<g id="notifications">
	<g>
		<path fill="#FFFFFF" d="M55.5646629,46.0405083c-0.4423828-0.8613281-1.1855469-1.5214844-2.140625-1.8789063
			c-2.9667969-1.2861328-4.8837891-4.2080078-4.8837891-7.4423828v-13.609375c0-7.29004-4.6738281-13.6347666-11.6445313-15.7929688
			c-0.4414063-0.1435547-1.9726563-0.5126953-3.6416016-0.6669922l-0.9072266-0.0849609V1.3344531
			c0-0.1845703-0.1494141-0.334961-0.3339844-0.334961c-0.1845684,0-0.334959,0.1503907-0.334959,0.334961v5.2236328
			l-0.9248047,0.0703125c-8.5615234,0.6494141-15.2685556,7.8886714-15.2685556,16.4814453v13.609375
			c0,3.2080078-1.8759766,6.0947266-4.8222656,7.4140625l-0.0390625,0.0322266l-0.1523438,0.0595703
			c-0.8876953,0.3457031-1.609375,0.9892578-2.0322266,1.8144531c-0.4716792,0.9140625-0.5585933,1.9570313-0.2431641,2.9394531
			c0.3125,0.9814453,0.9892578,1.78125,1.9072266,2.2529297c3.3271484,1.7070313,8.6572275,2.9375,15.00879,3.4619141
			l0.0098267,0.0007935c-0.0585938,0.362793-0.09729,0.7324219-0.09729,1.1117554
			c0,3.8283081,3.1034546,6.9317627,6.9317017,6.9317627c3.8283062,0,6.9317608-3.1034546,6.9317608-6.9317627
			c0-0.376709-0.0387573-0.7435303-0.0965576-1.1039429l0.0100098-0.0007935
			c6.3925781-0.5205078,11.7529297-1.7529297,15.0947266-3.4716797c0.9169922-0.4707031,1.5947266-1.2695313,1.9091797-2.25
			C56.120327,47.9994926,56.0343895,46.9555473,55.5646629,46.0405083z"/>
		<g opacity="0.3">
			<g>
				<path fill="#545157" d="M38.8875465,55.8063965c0,3.8283005-3.103447,6.9317474-6.9317455,6.9317474
					s-6.9317474-3.103447-6.9317474-6.9317474c0-0.4785309,0.0484905-0.9457397,0.1408253-1.3969765
					c1.6472473,0.2282372,10.6138306,0.4993439,13.576519-0.0257721
					C38.8371925,54.8428612,38.8875465,55.3187485,38.8875465,55.8063965z"/>
			</g>
		</g>
		<g opacity="0.3">
			<g>
				<path fill="#545157" d="M32.0003357,47.7508392c-8.175539,0-15.9796352-1.4488907-21.0003967-3.3987732
					c2.7570705-1.6525116,4.78724-3.9364548,4.8198824-7.4653816c3.5271473,1.0117302,9.0219517,1.8756294,16.1805134,1.8756294
					c7.1633148,0,12.6589508-0.8646278,16.1853676-1.8769073c-0.0849953,3.6993866,2.4527168,6.4908676,4.4012413,7.2377167
					C47.7726021,46.1874504,40.4949112,47.7508392,32.0003357,47.7508392z"/>
			</g>
		</g>
		<g>
			<path fill="#545157" d="M31.9994678,40.1108017c-4.3617401,0-8.3793373-0.3206749-11.9432945-0.9568176
				c-0.7247849-0.1303558-1.2097111-0.8212471-1.0793552-1.5486412c0.1277504-0.7273903,0.8082123-1.1940651,1.5486393-1.0793533
				c3.3605995,0.5996437,7.3286629,0.9151039,11.4740105,0.9151039c5.8712711,0,12.3343639-0.9594231,15.8566074-1.8484573
				c0.732605-0.1929283,1.444355,0.2502823,1.6216393,0.9646378c0.1824989,0.7169647-0.2502861,1.4417496-0.9646416,1.6216393
				C44.7118683,39.1409492,38.1314545,40.1108017,31.9994678,40.1108017z"/>
		</g>
		<g>
			<path fill="#545157" d="M31.9681816,64c-4.544239,0-8.2411594-3.6969185-8.2411594-8.2411613
				c0-0.5657463,0.0573578-1.1262817,0.1694641-1.663353c0.1486073-0.7247849,0.8681774-1.1940689,1.5773182-1.0350342
				c0.7221775,0.1486092,1.1862469,0.8551407,1.0350323,1.5773201c-0.073,0.3597832-0.1121063,0.7378197-0.1121063,1.121067
				c0,3.071209,2.5002441,5.5714531,5.5714512,5.5714531c1.957962,0,3.7959938-1.048069,4.7971344-2.7322807
				c0.372818-0.6387482,1.1966743-0.8447113,1.8276024-0.4666748c0.6361389,0.3754272,0.8447113,1.1940689,0.4666786,1.8276024
				C37.5813484,62.4513588,34.8621063,64,31.9681816,64z"/>
		</g>
		<g>
			<path fill="#545157" d="M31.9994678,55.9726257c-9.2970505,0-17.6529236-1.4391403-22.3535919-3.8507423
				c-1.1549616-0.5944252-2.0101023-1.6033897-2.40378-2.8391724c-0.3962851-1.2357826-0.2867851-2.549778,0.307642-3.7021332
				c0.5918198-1.1523552,1.598175-2.0101051,2.8339577-2.4063873c1.2331762-0.396286,2.5471735-0.2841797,3.7021351,0.3102493
				c2.6931715,1.3817825,9.2788,2.7792053,17.9136391,2.7792053c5.3368092,0,10.3894405-0.5318527,14.2271481-1.4991035
				c0.7221756-0.1877136,1.4417458,0.2528954,1.61903,0.9672508c0.1824989,0.7143555-0.2528915,1.4391365-0.967247,1.61903
				c-2.8600273,0.7221756-7.7640533,1.582531-14.878931,1.582531c-9.703764,0-16.3728199-1.655529-19.1363869-3.0764198
				c-0.5240345-0.2685356-1.1184616-0.3128586-1.663353-0.1407852c-0.5553198,0.1798935-1.0089617,0.5631409-1.2748899,1.084568
				c-0.2685356,0.5214272-0.3180704,1.1132469-0.1407852,1.6685677s0.5631409,1.0089645,1.0819616,1.2774963
				c4.3382759,2.2264977,12.2405081,3.5561371,21.1334534,3.5561371c8.8981609,0,16.7977848-1.3296394,21.1334515-3.5561371
				c1.0715332-0.5527115,1.4964981-1.8719215,0.9463921-2.9434547c-0.2502861-0.4849281-0.6622124-0.8551407-1.16539-1.0454636
				c-0.0312843-0.0130348-0.0651779-0.0260696-0.0990715-0.0391083c-3.6108856-1.5408173-5.9442711-5.0734863-5.9442711-8.999836
				V23.109663c0-6.5517349-4.2000999-12.2561512-10.4520149-14.1932545
				c-0.7065315-0.2189989-1.1002121-0.9646406-0.8812103-1.6685677c0.2163925-0.703927,0.967247-1.1106405,1.6685677-0.8812122
				C44.5841179,8.6504803,49.540287,15.3795013,49.540287,23.109663v13.6092548c0,2.8391724,1.678997,5.3967743,4.2809181,6.5256653
				c1.1419258,0.4249611,2.0752792,1.2540321,2.6332092,2.3386002c0.5918198,1.1523552,0.6987114,2.4689598,0.3024254,3.702137
				c-0.3962822,1.2357826-1.2514229,2.2421379-2.4037781,2.8339577
				C49.657608,54.5334854,41.3017349,55.9726257,31.9994678,55.9726257z"/>
		</g>
		<g>
			<path fill="#545157" d="M10.6600513,45.8360748c-0.5188198,0-1.0141764-0.3050346-1.2305689-0.8160324
				c-0.2867851-0.6778564,0.0312862-1.4599953,0.7117491-1.7493896c2.638422-1.1158524,4.3434896-3.6864929,4.3434896-6.5517349
				V23.109663c0-9.2162294,7.1487703-16.7925701,16.1929283-17.4782467V1.3348541C30.6776505,0.5970344,31.2746849,0,32.0125046,0
				s1.3348541,0.5970344,1.3348541,1.3348541v5.5818806c0,0.7378197-0.5970345,1.3348541-1.3348541,1.3348541
				c-8.1916256,0-14.8580742,6.6664495-14.8580742,14.8580742v13.6092548c0,3.9393845-2.3438168,7.4772682-5.9755583,9.0128746
				C11.009408,45.8021851,10.8347301,45.8360748,10.6600513,45.8360748z"/>
		</g>
	</g>
</g>
<g id="my_x5F_posts">
</g>
<g id="logout">
</g>
<g id="assignment">
</g>
<g id="coursework">
</g>
<g id="forum">
</g>
<g id="quiz">
</g>
<g id="book">
</g>
<g id="database">
</g>
<g id="wiki">
</g>
<g id="choice">
</g>
<g id="workshop">
</g>
<g id="certificate">
</g>
<g id="scheduler">
</g>
<g id="equella">
</g>
<g id="file">
</g>
<g id="folder">
</g>
<g id="ims_x5F_content_x5F_package">
</g>
<g id="label">
</g>
<g id="lightbox_x5F_gallery">
</g>
<g id="nln_x5F_learning_x5F_object">
</g>
<g id="page">
</g>
<g id="subpage">
</g>
<g id="tab_x5F_display">
</g>
<g id="new_x5F_label">
</g>
<g id="url">
</g>
<g id="_x33_60_x5F_degree_x5F_diagnostics">
</g>
<g id="adobe_x5F_connect">
</g>
<g id="attendance_x5F_register">
</g>
<g id="booking">
</g>
<g id="chat">
</g>
<g id="checklist">
</g>
<g id="external_x5F_tool">
</g>
<g id="face_x5F_to_x5F_face">
</g>
<g id="forumNG">
</g>
<g id="glossary">
</g>
<g id="group_x5F_choice">
</g>
<g id="journal">
</g>
<g id="mediasite_x5F_content">
</g>
<g id="nanogong_x5F_voice">
</g>
<g id="questionnaire">
</g>
<g id="scorm_x5F_package">
</g>
<g id="survey">
</g>
<g id="tutorship">
</g>
<g id="advanced_x5F_forum">
</g>
<g id="subcourse">
</g>
<g id="lesson_1_">
</g>
<g id="adaptive_x5F_quiz">
</g>
<g id="ou_x5F_wiki">
</g>
<g id="support_x5F_tracker">
</g>
<g id="view_x5F_comments">
</g>
<g id="no_x5F_comment">
</g>
<g id="attention">
</g>
<g id="search">
</g>
<g id="submitted">
</g>
<g id="feedback">
</g>
<g id="dnd_x5F_arrow">
</g>
</svg>
