<?xml version="1.0" encoding="utf-8"?>
<!-- Generator: Adobe Illustrator 21.0.0, SVG Export Plug-In . SVG Version: 6.00 Build 0)  -->
<svg version="1.1" xmlns="http://www.w3.org/2000/svg" xmlns:xlink="http://www.w3.org/1999/xlink" x="0px" y="0px" width="64px"
	 height="64px" viewBox="0 0 64 64" enable-background="new 0 0 64 64" xml:space="preserve">
<g id="Layer_1">
</g>
<g id="Layer_2">
</g>
<g id="messages">
</g>
<g id="messages_x5F_hover">
</g>
<g id="profile">
</g>
<g id="profile_x5F_hover">
</g>
<g id="view_x5F_hover">
</g>
<g id="view_x5F_feedback">
</g>
<g id="no_x5F_feedback_x5F_to_x5F_view">
</g>
<g id="download_x5F_hover">
</g>
<g id="download">
</g>
<g id="no_x5F_feedback_x5F_download">
</g>
<g id="link_x5F_hover">
</g>
<g id="assignment_x5F_link_copy">
</g>
<g id="Layer_21">
</g>
<g id="home_x5F_hover">
</g>
<g id="home_1_">
</g>
<g id="edit_x5F_profile">
</g>
<g id="preferences">
</g>
<g id="notifications">
</g>
<g id="my_x5F_posts">
</g>
<g id="logout">
</g>
<g id="assignment">
</g>
<g id="coursework">
</g>
<g id="forum">
</g>
<g id="quiz">
</g>
<g id="book">
</g>
<g id="database">
</g>
<g id="wiki">
</g>
<g id="choice">
</g>
<g id="workshop">
</g>
<g id="certificate">
</g>
<g id="scheduler">
</g>
<g id="equella">
</g>
<g id="file">
</g>
<g id="folder">
</g>
<g id="ims_x5F_content_x5F_package">
</g>
<g id="label">
</g>
<g id="lightbox_x5F_gallery">
</g>
<g id="nln_x5F_learning_x5F_object">
</g>
<g id="page">
</g>
<g id="subpage">
</g>
<g id="tab_x5F_display">
</g>
<g id="new_x5F_label">
</g>
<g id="url">
</g>
<g id="_x33_60_x5F_degree_x5F_diagnostics">
</g>
<g id="adobe_x5F_connect">
</g>
<g id="attendance_x5F_register">
</g>
<g id="booking">
</g>
<g id="chat">
</g>
<g id="checklist">
</g>
<g id="external_x5F_tool">
</g>
<g id="face_x5F_to_x5F_face">
</g>
<g id="forumNG">
</g>
<g id="glossary">
</g>
<g id="group_x5F_choice">
</g>
<g id="journal">
</g>
<g id="mediasite_x5F_content">
</g>
<g id="nanogong_x5F_voice">
	<g>
		<g>
			<path fill="#FFFFFF" d="M34.6140938,25.1718121V10.9940777c0-2.170248-2.434082-3.4503584-4.2223301-2.220541
				L11.1022139,22.0401382H3.9991863c-1.4728191,0-2.6666667,1.1940117-2.6666667,2.6666679V39.293232
				c0,1.4726563,1.1938477,2.6666641,2.6666667,2.6666641h7.1030273l19.2895508,13.2666016
				c1.7882481,1.2299805,4.2223301-0.050293,4.2223301-2.2205391V38.8280602
				c2.8675156-0.9602852,4.9475937-3.6375313,4.9475937-6.8281231S37.4816093,26.1322613,34.6140938,25.1718121z"/>
		</g>
		<g opacity="0.3">
			<path fill="#32548C" d="M34.6141129,25.1719284V10.9941149c0-2.1702061-2.4342232-3.4504843-4.2223034-2.220542
				l-2.8597775,1.9668884v42.5191269l2.8597775,1.9668884c1.7880802,1.2299423,4.2223034-0.0503387,4.2223034-2.2205429V38.8281212
				c2.8675079-0.960331,4.9475708-3.637516,4.9475708-6.8280945S37.4816208,26.1322613,34.6141129,25.1719284z"/>
		</g>
		<g>
			<path fill="#32548C" d="M40.8958321,31.999403c0-3.3353271-1.9595947-6.3085938-4.947937-7.7059937V10.994215
				c0-1.5-0.8255005-2.8671875-2.1536255-3.5651245c-1.3255005-0.6992188-2.9244976-0.604126-4.1588726,0.2460938
				l-18.9482422,13.03125H4.0000205c-2.2057495,0-4,1.7943115-4,4v14.5872822c0,2.2056885,1.7942505,4,4,4h7.101562
				c0.7369385,0,1.333313-0.5963745,1.333313-1.333374V22.7411633l13.7630014-9.46521v31.9318256
				c0,0.7369385,0.5963745,1.333313,1.333374,1.333313c0.7369385,0,1.333313-0.5963745,1.333313-1.333313V11.561903
				c0-0.0373535-0.0182495-0.0687256-0.0212402-0.1052856l2.3024902-1.5834961
				c0.427063-0.2929688,0.9479351-0.3255005,1.4088726-0.083313c0.4556885,0.239563,0.7265625,0.6900635,0.7265625,1.2044067
				v14.177063v13.6562519v14.1796875c0,0.739624-0.5078125,1.088562-0.7265625,1.203125
				c-0.4557495,0.2369995-0.9869976,0.208374-1.4088726-0.083313L15.713521,43.5150299
				c-0.6067505-0.4140625-1.4348755-0.260376-1.854126,0.34375c-0.416687,0.6068115-0.2630615,1.4375,0.34375,1.854187
				L29.635397,56.3249664c0.6875,0.4713135,1.4818115,0.7109375,2.28125,0.7109375
				c0.6432476,0,1.2890606-0.1536865,1.8802471-0.4661865c1.3255005-0.697876,2.151001-2.0625,2.151001-3.5625V39.7047882
				C38.9362373,38.3090973,40.8958321,35.3347931,40.8958321,31.999403z M9.7682085,40.6270294h-5.768188
				c-0.7343752,0-1.3333743-0.598938-1.3333743-1.333313V24.7064342c0-0.7356567,0.598999-1.333313,1.3333743-1.333313h5.768188
				V40.6270294z M35.9478951,36.6270294v-9.2539082c1.411499,1.0924683,2.28125,2.7825317,2.28125,4.6262817
				C38.2291451,33.8431549,37.3593941,35.5332794,35.9478951,36.6270294z"/>
			<path fill="#32548C" d="M42.9817696,20.4173717c-0.520813-0.520813-1.364563-0.520813-1.885437,0
				c-0.520813,0.520874-0.520813,1.364624,0,1.885437c2.5911865,2.5898438,4.0182495,6.0338745,4.0182495,9.6965942
				c0,3.6640644-1.427063,7.1068134-4.0182495,9.6979389c-0.520813,0.520813-0.520813,1.364563,0,1.885437
				c0.260437,0.260376,0.6015625,0.390625,0.942749,0.390625c0.3411255,0,0.682251-0.130249,0.942688-0.390625
				c3.09375-3.09375,4.7994995-7.2057495,4.7994995-11.5833759C47.7812691,27.624403,46.0755196,23.5111217,42.9817696,20.4173717z"
				/>
			<path fill="#32548C" d="M54.4505196,8.9486217c-0.520813-0.520813-1.364563-0.520813-1.885437,0
				c-0.520813,0.520874-0.520813,1.364624,0,1.885437c11.6718788,11.6705933,11.6718788,30.6601582,0,42.3320313
				c-0.520813,0.520813-0.520813,1.364563,0,1.885437c0.260437,0.260376,0.6015625,0.390625,0.942749,0.390625
				c0.3411255,0,0.682251-0.130249,0.942688-0.390625c6.1588745-6.15625,9.5495033-14.34375,9.5495033-23.0521259
				C64.0000229,23.2923717,60.6093941,15.1062145,54.4505196,8.9486217z"/>
			<path fill="#32548C" d="M48.7812691,14.6204967c-0.520874-0.520813-1.364624-0.520813-1.885437,0
				c-0.520813,0.520874-0.520813,1.364624,0,1.885437c8.541687,8.5429688,8.541687,22.4440327,0,30.9882832
				c-0.520813,0.520813-0.520813,1.364563,0,1.885437c0.260437,0.260376,0.6015625,0.390625,0.942688,0.390625
				c0.3411865,0,0.682312-0.130249,0.942749-0.390625C58.3619576,39.7962799,58.3619576,24.2038708,48.7812691,14.6204967z"/>
		</g>
	</g>
</g>
<g id="questionnaire">
</g>
<g id="scorm_x5F_package">
</g>
<g id="survey">
</g>
<g id="tutorship">
</g>
<g id="advanced_x5F_forum">
</g>
<g id="subcourse">
</g>
<g id="lesson_1_">
</g>
<g id="adaptive_x5F_quiz">
</g>
<g id="ou_x5F_wiki">
</g>
<g id="support_x5F_tracker">
</g>
<g id="view_x5F_comments">
</g>
<g id="no_x5F_comment">
</g>
<g id="attention">
</g>
<g id="search">
</g>
<g id="submitted">
</g>
<g id="feedback">
</g>
<g id="dnd_x5F_arrow">
</g>
</svg>
