<?xml version="1.0" encoding="utf-8"?>
<!-- Generator: Adobe Illustrator 21.0.0, SVG Export Plug-In . SVG Version: 6.00 Build 0)  -->
<svg version="1.1" xmlns="http://www.w3.org/2000/svg" xmlns:xlink="http://www.w3.org/1999/xlink" x="0px" y="0px" width="64px"
	 height="64px" viewBox="0 0 64 64" enable-background="new 0 0 64 64" xml:space="preserve">
<g id="Layer_1">
</g>
<g id="Layer_2">
	<g>
		<g>
			<g>
				<path fill="#FFFFFF" d="M31.9990406,1.4633334c-16.8651772,0-30.5371418,13.6719646-30.5371418,30.5371437
					s13.6719637,30.5371437,30.5371418,30.5371437S62.5361748,48.865654,62.5361748,32.0004768
					S48.8642197,1.4633334,31.9990406,1.4633334z"/>
			</g>
		</g>
		<g opacity="0.3">
			<g>
				<path fill="#545157" d="M31.9990406,1.4633334c-16.8651772,0-30.5371418,13.6719646-30.5371418,30.5371437
					s13.6719637,30.5371437,30.5371418,30.5371437S62.5361748,48.865654,62.5361748,32.0004768
					S48.8642197,1.4633334,31.9990406,1.4633334z M31.9990406,53.3237343c-11.7766247,0-21.3234196-9.5467949-21.3234196-21.3232727
					c0-11.7766266,9.5467949-21.3234215,21.3234196-21.3234215s21.3234196,9.5467958,21.3234196,21.3234215
					C53.3224602,43.7769394,43.7756653,53.3237343,31.9990406,53.3237343z"/>
			</g>
		</g>
		<g>
			<path fill="#545157" d="M42.4133301,30.4006348c-1.1571655-0.1651001-2.7000122-0.2786255-4.2428589-0.4083862
				c-1.4385376-0.0621338-2.8643188-0.1237183-3.9902344-0.1723633c-0.0079346-0.1966553-0.0144043-0.4029541-0.0063477-0.6193848
				c-0.0112915-1.6800537-0.0717163-3.9200439-0.2012939-6.1600342c-0.1992188-2.2399902-0.2836304-4.4799805-0.541626-6.1599731
				c-0.18927-1.6799927-0.3936768-2.7999878-0.3936768-2.7999878c-0.0773315-0.418457-0.4053345-0.7678833-0.8488159-0.8488159
				c-0.5733643-0.1046753-1.1230469,0.2753906-1.2277222,0.8488159c0,0-0.2043457,1.1199951-0.3936157,2.7999878
				c-0.2580566,1.6799927-0.3424072,3.9199829-0.541626,6.1599731c-0.1295776,2.2399902-0.1900024,4.4799805-0.2012939,6.1600342
				c0.010376,0.2775269-0.0010376,0.5330811-0.0108032,0.7775269c-0.493042,0.5326538-0.8010254,1.2394409-0.8010254,2.0224609
				c0,1.6494751,1.3371582,2.9866333,2.9866333,2.9866333c0.7819214,0,1.4877319-0.307251,2.0201416-0.7990112
				c1.1470337-0.0496216,2.6462402-0.1143188,4.1513062-0.1793213c1.5428467-0.1296997,3.0856934-0.2432861,4.2428589-0.4083862
				c1.1571655-0.1455078,1.9285889-0.289856,1.9285889-0.289856c0.5234375-0.0993652,0.9608765-0.5095215,1.0648193-1.0648193
				c0.135376-0.7235107-0.3413086-1.4197998-1.0648193-1.5552368
				C44.3419189,30.6904907,43.5704956,30.5461426,42.4133301,30.4006348z"/>
			<path fill="#545157" d="M37.8028564,0.5256958c-0.7914429-0.1542969-1.5571289,0.3771362-1.7028809,1.1743164
				c-0.1456909,0.7957153,0.3828735,1.5571289,1.1771851,1.7028198
				c13.3070068,2.4403076,23.0904541,13.7279663,23.7578125,27.1343384h-7.2749634
				c-0.0582275,0-0.1135254,0.010498-0.1699829,0.0170898c-0.0564575-0.0065918-0.1118164-0.0170898-0.1700439-0.0170898
				c-0.8085327,0-1.4628296,0.6542358-1.4628296,1.4628296c0,8.4671631-5.362854,16.0371704-13.3485718,18.838562
				c-0.7600098,0.2671509-1.1628418,1.1014404-0.8942871,1.8643188c0.2114258,0.6028442,0.7771606,0.9785767,1.3800049,0.9785767
				c0.1599731,0,0.3228149-0.0257568,0.4857178-0.0828857c8.6884155-3.0489502,14.6618042-11.0292358,15.2451172-20.1357422
				h6.2120361c-0.7406006,14.869751-12.7045898,26.8337402-27.5743408,27.5743408v-7.2771606
				c0-0.0579834-0.010498-0.1130981-0.0170288-0.1693115c0.0065308-0.0562134,0.0170288-0.1112671,0.0170288-0.1692505
				c0-0.8085938-0.6542358-1.4628906-1.4628296-1.4628906c-8.4656982,0-16.0371704-5.3642578-18.8400269-13.3471069
				c-0.2685547-0.7614746-1.0856934-1.1685791-1.8656616-0.895752c-0.7600098,0.2671509-1.1629028,1.1014404-0.8942871,1.8643188
				c3.0488892,8.69104,11.0316772,14.663208,20.137146,15.246521v6.2106323
				C15.6674194,60.2965698,3.7034302,48.3325806,2.9628296,33.4628296h7.2771606
				c0.0577393,0,0.1125488-0.010498,0.1685791-0.0169678c0.0560303,0.0064697,0.1108398,0.0169678,0.1685791,0.0169678
				c0.8085938,0,1.4628296-0.6542358,1.4628296-1.4628296c0-8.4656982,5.362854-16.0357056,13.3485718-18.838562
				c0.7600098-0.2671509,1.1629028-1.1028442,0.8942871-1.8643188c-0.265686-0.7614136-1.0914307-1.1671143-1.8657227-0.8956909
				C15.7287598,13.4516602,9.7554321,21.4320068,9.1719971,30.5371704H2.9628296
				C3.7034302,15.6674194,15.6674194,3.7034302,30.5371704,2.9628296v7.2771606c0,0.0579834,0.010498,0.1130371,0.0170288,0.1692505
				c-0.0065308,0.0562134-0.0170288,0.1113281-0.0170288,0.1693115c0,0.8085938,0.6542358,1.4628906,1.4628296,1.4628906
				c8.4656982,0,16.0343018,5.3642578,18.8371582,13.3485718c0.2114258,0.6028442,0.7770996,0.9785767,1.3800049,0.9785767
				c0.1599731,0,0.3228149-0.0257568,0.4857178-0.0828857c0.7599487-0.2671509,1.1628418-1.1014404,0.8942871-1.8642578
				c-3.0488892-8.69104-11.0291748-14.6645508-20.1343384-15.2479858V1.4628296C33.4628296,0.6542969,32.8085938,0,32,0
				C14.3543091,0,0,14.3557129,0,32s14.3543091,32,32,32s32-14.3557129,32-32
				C64,16.5457153,52.9828491,3.3085938,37.8028564,0.5256958z"/>
		</g>
		<g>
			<path fill="#545157" d="M42.4133301,30.4006348c-1.1571655-0.1651001-2.7000122-0.2786255-4.2428589-0.4083862
				c-1.4385376-0.0621338-2.8643188-0.1237183-3.9902344-0.1723633c-0.0079346-0.1966553-0.0144043-0.4029541-0.0063477-0.6193848
				c-0.0112915-1.6800537-0.0717163-3.9200439-0.2012939-6.1600342c-0.1992188-2.2399902-0.2836304-4.4799805-0.541626-6.1599731
				c-0.18927-1.6799927-0.3936768-2.7999878-0.3936768-2.7999878c-0.0773315-0.418457-0.4053345-0.7678833-0.8488159-0.8488159
				c-0.5733643-0.1046753-1.1230469,0.2753906-1.2277222,0.8488159c0,0-0.2043457,1.1199951-0.3936157,2.7999878
				c-0.2580566,1.6799927-0.3424072,3.9199829-0.541626,6.1599731c-0.1295776,2.2399902-0.1900024,4.4799805-0.2012939,6.1600342
				c0.010376,0.2775269-0.0010376,0.5330811-0.0108032,0.7775269c-0.493042,0.5326538-0.8010254,1.2394409-0.8010254,2.0224609
				c0,1.6494751,1.3371582,2.9866333,2.9866333,2.9866333c0.7819214,0,1.4877319-0.307251,2.0201416-0.7990112
				c1.1470337-0.0496216,2.6462402-0.1143188,4.1513062-0.1793213c1.5428467-0.1296997,3.0856934-0.2432861,4.2428589-0.4083862
				c1.1571655-0.1455078,1.9285889-0.289856,1.9285889-0.289856c0.5234375-0.0993652,0.9608765-0.5095215,1.0648193-1.0648193
				c0.135376-0.7235107-0.3413086-1.4197998-1.0648193-1.5552368
				C44.3419189,30.6904907,43.5704956,30.5461426,42.4133301,30.4006348z"/>
			<path fill="#545157" d="M37.8028564,0.5256958c-0.7914429-0.1542969-1.5571289,0.3771362-1.7028809,1.1743164
				c-0.1456909,0.7957153,0.3828735,1.5571289,1.1771851,1.7028198
				c13.3070068,2.4403076,23.0904541,13.7279663,23.7578125,27.1343384h-7.2749634
				c-0.0582275,0-0.1135254,0.010498-0.1699829,0.0170898c-0.0564575-0.0065918-0.1118164-0.0170898-0.1700439-0.0170898
				c-0.8085327,0-1.4628296,0.6542358-1.4628296,1.4628296c0,8.4671631-5.362854,16.0371704-13.3485718,18.838562
				c-0.7600098,0.2671509-1.1628418,1.1014404-0.8942871,1.8643188c0.2114258,0.6028442,0.7771606,0.9785767,1.3800049,0.9785767
				c0.1599731,0,0.3228149-0.0257568,0.4857178-0.0828857c8.6884155-3.0489502,14.6618042-11.0292358,15.2451172-20.1357422
				h6.2120361c-0.7406006,14.869751-12.7045898,26.8337402-27.5743408,27.5743408v-7.2771606
				c0-0.0579834-0.010498-0.1130981-0.0170288-0.1693115c0.0065308-0.0562134,0.0170288-0.1112671,0.0170288-0.1692505
				c0-0.8085938-0.6542358-1.4628906-1.4628296-1.4628906c-8.4656982,0-16.0371704-5.3642578-18.8400269-13.3471069
				c-0.2685547-0.7614746-1.0856934-1.1685791-1.8656616-0.895752c-0.7600098,0.2671509-1.1629028,1.1014404-0.8942871,1.8643188
				c3.0488892,8.69104,11.0316772,14.663208,20.137146,15.246521v6.2106323
				C15.6674194,60.2965698,3.7034302,48.3325806,2.9628296,33.4628296h7.2771606
				c0.0577393,0,0.1125488-0.010498,0.1685791-0.0169678c0.0560303,0.0064697,0.1108398,0.0169678,0.1685791,0.0169678
				c0.8085938,0,1.4628296-0.6542358,1.4628296-1.4628296c0-8.4656982,5.362854-16.0357056,13.3485718-18.838562
				c0.7600098-0.2671509,1.1629028-1.1028442,0.8942871-1.8643188c-0.265686-0.7614136-1.0914307-1.1671143-1.8657227-0.8956909
				C15.7287598,13.4516602,9.7554321,21.4320068,9.1719971,30.5371704H2.9628296
				C3.7034302,15.6674194,15.6674194,3.7034302,30.5371704,2.9628296v7.2771606c0,0.0579834,0.010498,0.1130371,0.0170288,0.1692505
				c-0.0065308,0.0562134-0.0170288,0.1113281-0.0170288,0.1693115c0,0.8085938,0.6542358,1.4628906,1.4628296,1.4628906
				c8.4656982,0,16.0343018,5.3642578,18.8371582,13.3485718c0.2114258,0.6028442,0.7770996,0.9785767,1.3800049,0.9785767
				c0.1599731,0,0.3228149-0.0257568,0.4857178-0.0828857c0.7599487-0.2671509,1.1628418-1.1014404,0.8942871-1.8642578
				c-3.0488892-8.69104-11.0291748-14.6645508-20.1343384-15.2479858V1.4628296C33.4628296,0.6542969,32.8085938,0,32,0
				C14.3543091,0,0,14.3557129,0,32s14.3543091,32,32,32s32-14.3557129,32-32
				C64,16.5457153,52.9828491,3.3085938,37.8028564,0.5256958z"/>
		</g>
	</g>
</g>
<g id="messages">
</g>
<g id="messages_x5F_hover">
</g>
<g id="profile">
</g>
<g id="profile_x5F_hover">
</g>
<g id="view_x5F_hover">
</g>
<g id="view_x5F_feedback">
</g>
<g id="no_x5F_feedback_x5F_to_x5F_view">
</g>
<g id="download_x5F_hover">
</g>
<g id="download">
</g>
<g id="no_x5F_feedback_x5F_download">
</g>
<g id="link_x5F_hover">
</g>
<g id="assignment_x5F_link_copy">
</g>
<g id="Layer_21">
</g>
<g id="home_x5F_hover">
</g>
<g id="home_1_">
</g>
<g id="edit_x5F_profile">
</g>
<g id="preferences">
</g>
<g id="notifications">
</g>
<g id="my_x5F_posts">
</g>
<g id="logout">
</g>
<g id="assignment">
</g>
<g id="coursework">
</g>
<g id="forum">
</g>
<g id="quiz">
</g>
<g id="book">
</g>
<g id="database">
</g>
<g id="wiki">
</g>
<g id="choice">
</g>
<g id="workshop">
</g>
<g id="certificate">
</g>
<g id="scheduler">
</g>
<g id="equella">
</g>
<g id="file">
</g>
<g id="folder">
</g>
<g id="ims_x5F_content_x5F_package">
</g>
<g id="label">
</g>
<g id="lightbox_x5F_gallery">
</g>
<g id="nln_x5F_learning_x5F_object">
</g>
<g id="page">
</g>
<g id="subpage">
</g>
<g id="tab_x5F_display">
</g>
<g id="new_x5F_label">
</g>
<g id="url">
</g>
<g id="_x33_60_x5F_degree_x5F_diagnostics">
</g>
<g id="adobe_x5F_connect">
</g>
<g id="attendance_x5F_register">
</g>
<g id="booking">
</g>
<g id="chat">
</g>
<g id="checklist">
</g>
<g id="external_x5F_tool">
</g>
<g id="face_x5F_to_x5F_face">
</g>
<g id="forumNG">
</g>
<g id="glossary">
</g>
<g id="group_x5F_choice">
</g>
<g id="journal">
</g>
<g id="mediasite_x5F_content">
</g>
<g id="nanogong_x5F_voice">
</g>
<g id="questionnaire">
</g>
<g id="scorm_x5F_package">
</g>
<g id="survey">
</g>
<g id="tutorship">
</g>
<g id="advanced_x5F_forum">
</g>
<g id="subcourse">
</g>
<g id="lesson_1_">
</g>
<g id="adaptive_x5F_quiz">
</g>
<g id="ou_x5F_wiki">
</g>
<g id="support_x5F_tracker">
</g>
<g id="view_x5F_comments">
</g>
<g id="no_x5F_comment">
</g>
<g id="attention">
</g>
<g id="search">
</g>
<g id="submitted">
</g>
<g id="feedback">
</g>
<g id="dnd_x5F_arrow">
</g>
</svg>
