<?xml version="1.0" encoding="utf-8"?>
<!-- Generator: Adobe Illustrator 21.0.0, SVG Export Plug-In . SVG Version: 6.00 Build 0)  -->
<svg version="1.1" xmlns="http://www.w3.org/2000/svg" xmlns:xlink="http://www.w3.org/1999/xlink" x="0px" y="0px" width="16px"
	 height="16px" viewBox="0 0 16 16" enable-background="new 0 0 16 16" xml:space="preserve">
<g id="Layer_1">
</g>
<g id="Layer_2">
</g>
<g id="messages">
</g>
<g id="messages_x5F_hover">
</g>
<g id="profile">
</g>
<g id="profile_x5F_hover">
</g>
<g id="view_x5F_hover">
</g>
<g id="view_x5F_feedback">
</g>
<g id="no_x5F_feedback_x5F_to_x5F_view">
</g>
<g id="download_x5F_hover">
</g>
<g id="download">
</g>
<g id="no_x5F_feedback_x5F_download">
</g>
<g id="link_x5F_hover">
</g>
<g id="assignment_x5F_link_copy">
</g>
<g id="Layer_21">
</g>
<g id="home_x5F_hover">
</g>
<g id="home_1_">
</g>
<g id="edit_x5F_profile">
</g>
<g id="preferences">
</g>
<g id="notifications">
</g>
<g id="my_x5F_posts">
</g>
<g id="logout">
</g>
<g id="assignment">
</g>
<g id="coursework">
</g>
<g id="forum">
</g>
<g id="quiz">
</g>
<g id="book">
</g>
<g id="database">
</g>
<g id="wiki">
</g>
<g id="choice">
</g>
<g id="workshop">
</g>
<g id="certificate">
</g>
<g id="scheduler">
</g>
<g id="equella">
</g>
<g id="file">
</g>
<g id="folder">
</g>
<g id="ims_x5F_content_x5F_package">
</g>
<g id="label">
</g>
<g id="lightbox_x5F_gallery">
</g>
<g id="nln_x5F_learning_x5F_object">
</g>
<g id="page">
</g>
<g id="subpage">
</g>
<g id="tab_x5F_display">
</g>
<g id="new_x5F_label">
</g>
<g id="url">
</g>
<g id="_x33_60_x5F_degree_x5F_diagnostics">
</g>
<g id="adobe_x5F_connect">
</g>
<g id="attendance_x5F_register">
</g>
<g id="booking">
</g>
<g id="chat">
</g>
<g id="checklist">
</g>
<g id="external_x5F_tool">
</g>
<g id="face_x5F_to_x5F_face">
</g>
<g id="forumNG">
</g>
<g id="glossary">
</g>
<g id="group_x5F_choice">
</g>
<g id="journal">
</g>
<g id="mediasite_x5F_content">
</g>
<g id="nanogong_x5F_voice">
</g>
<g id="questionnaire">
</g>
<g id="scorm_x5F_package">
</g>
<g id="survey">
</g>
<g id="tutorship">
</g>
<g id="advanced_x5F_forum">
</g>
<g id="subcourse">
</g>
<g id="lesson_1_">
</g>
<g id="adaptive_x5F_quiz">
</g>
<g id="ou_x5F_wiki">
</g>
<g id="support_x5F_tracker">
</g>
<g id="view_x5F_comments">
</g>
<g id="no_x5F_comment">
</g>
<g id="attention">
</g>
<g id="search">
	<g>
		<g>
			<g>
				<path fill="#FFFFFF" d="M13.3611288,7.2317758h-2.4765129c-0.279686,0-0.5064154-0.2267294-0.5064154-0.5064149V1.5282187
					c0-0.5593707-0.4534597-1.0128303-1.0128307-1.0128303H6.605299c-0.5593705,0-1.0128303,0.4534595-1.0128303,1.0128303
					v5.1971421c0,0.2796855-0.2267299,0.5064149-0.5064149,0.5064149H2.6388662
					c-0.489872,0-0.7253538,0.6009574-0.3658907,0.9337649L7.268199,12.790349c0.412961,0.3823385,1.0506477,0.3823385,1.4636087,0
					l4.9952154-4.6248007C14.0864887,7.8327379,13.8510056,7.2317758,13.3611288,7.2317758z"/>
			</g>
		</g>
		<g opacity="0.3">
			<g>
				<path fill="#545157" d="M13.3611288,7.2317758h-2.4765129c-0.279686,0-0.5064154-0.2267294-0.5064154-0.5064149V1.5282187
					c0-0.5593707-0.4534597-1.0128303-1.0128307-1.0128303H6.605299c-0.5593705,0-1.0128303,0.4534595-1.0128303,1.0128303
					v5.1971421c0,0.2796855-0.2267299,0.5064149-0.5064149,0.5064149H2.6388662
					c-0.489872,0-0.7253538,0.6009574-0.3658907,0.9337649L7.268199,12.790349c0.412961,0.3823385,1.0506477,0.3823385,1.4636087,0
					l4.9952154-4.6248007C14.0864887,7.8327379,13.8510056,7.2317758,13.3611288,7.2317758z"/>
			</g>
		</g>
		<g>
			<path fill="#545157" d="M6.3065009,13.9374628H3.3634448c-0.5695539,0-1.0312688-0.4617147-1.0312688-1.0312691v-0.2363539
				c0-0.2847767-0.2308574-0.5156336-0.5156343-0.5156336H0.785273c-0.284777,0-0.5156344,0.2308569-0.5156344,0.5156336v0.2363539
				C0.2696386,14.6148558,1.6547828,16,3.3634448,16h9.2731094c1.708662,0,3.0938063-1.3851442,3.0938063-3.0938063v-0.2363539
				c0-0.2847767-0.2308569-0.5156336-0.5156336-0.5156336h-1.0312691c-0.2847767,0-0.5156345,0.2308569-0.5156345,0.5156336
				v0.2363539c0,0.5695543-0.4617147,1.0312691-1.0312691,1.0312691h-0.7279005H6.3065009z"/>
		</g>
		<g>
			<path fill="#545157" d="M7.9999375,13.5903378c-0.3892436,0-0.7784872-0.1404896-1.0821271-0.4219742L1.9226023,8.5437679
				C1.602345,8.2471771,1.4981103,7.7924724,1.6572318,7.3861084c0.1596252-0.406868,0.5448403-0.6697206,0.9814174-0.6697206
				h2.4472492L5.0768347,1.5282718C5.0768347,0.6853305,5.7621651,0,6.6051064,0h2.760457
				c0.8429413,0,1.5282717,0.6853305,1.5282717,1.5282718v5.1971803l2.467391-0.0090642
				c0.4370804,0,0.8217926,0.2628527,0.9809141,0.6697206c0.1601286,0.406364,0.0553904,0.8610687-0.2648678,1.1576595
				l-4.9952078,4.6245956C8.7784243,13.4498482,8.3891811,13.5903378,7.9999375,13.5903378z M2.6386492,7.7476568
				l4.9801016,4.6643763c0.2145119,0.1989021,0.5493722,0.1978951,0.7623734,0l4.9952078-4.6245961l-0.0151062-0.0397801h-2.4764547
				c-0.5634718,0-1.0222054-0.4587336-1.0222054-1.0222049V1.5282718c0-0.2739308-0.2230721-0.4970031-0.4970026-0.4970031
				h-2.760457c-0.273931,0-0.4970031,0.2230723-0.4970031,0.4970031v5.1971803c0,0.5634713-0.4587336,1.0222049-1.0222049,1.0222049
				H2.6386492z"/>
		</g>
	</g>
</g>
<g id="submitted">
</g>
<g id="feedback">
</g>
<g id="dnd_x5F_arrow">
</g>
</svg>
