<?xml version="1.0" encoding="utf-8"?>
<!-- Generator: Adobe Illustrator 21.0.0, SVG Export Plug-In . SVG Version: 6.00 Build 0)  -->
<svg version="1.1" xmlns="http://www.w3.org/2000/svg" xmlns:xlink="http://www.w3.org/1999/xlink" x="0px" y="0px" width="64px"
	 height="64px" viewBox="0 0 64 64" enable-background="new 0 0 64 64" xml:space="preserve">
<g id="Layer_1">
</g>
<g id="Layer_2">
</g>
<g id="messages">
</g>
<g id="messages_x5F_hover">
</g>
<g id="profile">
</g>
<g id="profile_x5F_hover">
</g>
<g id="view_x5F_hover">
</g>
<g id="view_x5F_feedback">
</g>
<g id="no_x5F_feedback_x5F_to_x5F_view">
</g>
<g id="download_x5F_hover">
</g>
<g id="download">
</g>
<g id="no_x5F_feedback_x5F_download">
</g>
<g id="link_x5F_hover">
</g>
<g id="assignment_x5F_link_copy">
</g>
<g id="Layer_21">
</g>
<g id="home_x5F_hover">
</g>
<g id="home_1_">
</g>
<g id="edit_x5F_profile">
</g>
<g id="preferences">
</g>
<g id="notifications">
</g>
<g id="my_x5F_posts">
	<g>
		<g>
			<path fill="#FFFFFF" d="M61.8428612,7.9129267l-2.543354-2.5433536c-1.0961456-1.0961466-2.8732567-1.0961466-3.9694023,0
				l-2.6654167,2.6654191c-0.5481567-0.5481548-1.4367905-0.5481548-1.9847832,0l-0.9630165,0.9630136
				c-0.5479889,0.5479927-0.5479889,1.4364653,0,1.9846201l-6.4714165,6.4715786H6.1555114
				c-2.6628149,0-4.8214188,2.1586037-4.8214188,4.8214188V46.68153c0,2.6628151,2.1586037,4.8215828,4.8214188,4.8215828h19.14538
				c1.506773,0,2.9809971,0.4392738,4.2420139,1.2642708l6.5488873,6.3015022
				c0.8665009,0.833786,2.309803,0.2197189,2.309803-0.982872v-4.1721916c0-1.3314896,1.0792198-2.4107094,2.4107094-2.4107094
				h4.166008c2.6626511,0,4.8214188-2.1587677,4.8214188-4.8215828V23.9254589l6.4299126-6.4299145
				c0.5481567,0.5479927,1.4367905,0.5479927,1.9847832,0l0.9630127-0.9630146c0.5479927-0.5481539,0.5479927-1.4366274,0-1.9847822
				l2.6654205-2.6654186C62.9390068,10.7861824,62.9390068,9.0090733,61.8428612,7.9129267z"/>
		</g>
		<g>
			<g>
				<path fill="#545157" d="M31.8242264,30.2079182H15.2051105c-0.736949,0-1.3332796-0.5963306-1.3332796-1.3332787
					c0-0.7369499,0.5963306-1.3332806,1.3332796-1.3332806h16.6191158c0.7369499,0,1.3332787,0.5963306,1.3332787,1.3332806
					C33.157505,29.6115875,32.5611763,30.2079182,31.8242264,30.2079182z"/>
			</g>
			<g>
				<path fill="#545157" d="M28.1603127,41.4157944H15.2051105c-0.736949,0-1.3332796-0.5963287-1.3332796-1.3332787
					s0.5963306-1.3332787,1.3332796-1.3332787h12.9552021c0.7369499,0,1.3332787,0.5963287,1.3332787,1.3332787
					S28.8972626,41.4157944,28.1603127,41.4157944z"/>
			</g>
		</g>
		<g>
			<path fill="#545157" d="M37.0375557,60.782196c-0.6848679,0-1.3567162-0.2578049-1.8697166-0.7525749l-6.5492115-6.3018265
				c-0.8489246-0.5286255-2.0650196-0.8905907-3.3175735-0.8905907H6.1559997C2.7603045,52.837204,0,50.0769005,0,46.6812057
				V22.2759495c0-3.3930912,2.7603045-6.1546974,6.1559997-6.1546974H43.245636
				c0.7369499,0,1.3332787,0.5963287,1.3332787,1.3332787s-0.5963287,1.3332787-1.3332787,1.3332787H6.1559997
				c-1.9244008,0-3.4894414,1.5650406-3.4894414,3.4881401v24.4052563c0,1.9244003,1.5650406,3.4894409,3.4894414,3.4894409
				H25.301054c1.773365,0,3.4920444,0.5130005,4.9737549,1.4817123l6.7419147,6.4554672l0.0520821-4.1951447
				c0-2.0624161,1.6796188-3.7420349,3.7446365-3.7420349h4.1638947c1.9244003,0,3.4894409-1.5650406,3.4894409-3.4894409
				V30.4865532c0-0.7369499,0.5963287-1.3332806,1.3332787-1.3332806s1.3332787,0.5963306,1.3332787,1.3332806v16.1946526
				c0,3.3956947-2.7603035,6.1559982-6.1559982,6.1559982h-4.1638947c-0.5937233,0-1.0780792,0.4817543-1.0780792,1.0754776
				v4.1743088c0,1.0832901-0.6432037,2.0546036-1.6405602,2.4790688C37.7536736,60.7118835,37.39431,60.782196,37.0375557,60.782196
				z"/>
		</g>
		<g opacity="0.3">
			<g>
				<path fill="#545157" d="M59.1774292,14.5478268l2.6654549-2.6654549c1.0961342-1.0961342,1.0961342-2.8733187,0-3.9694524
					l-2.5433578-2.5433569c-1.0961304-1.0961337-2.8733177-1.0961337-3.9694519,0L52.6646194,8.035018L59.1774292,14.5478268z"/>
			</g>
		</g>
		<g opacity="0.3">
			<g>
				<polygon fill="#545157" points="31.981823,38.0044479 27.2665424,39.9459038 29.0771675,35.5483818 				"/>
			</g>
		</g>
		<path fill="#545157" d="M62.7864799,6.9705944l-2.5441284-2.5454712c-1.614502-1.609314-4.2394409-1.6105957-5.8539429,0.0012817
			l-1.9944458,1.9944458c-0.9229126-0.2392578-1.9633789-0.0222168-2.6563721,0.6707764l-0.963562,0.9648438
			c-0.7211914,0.7229614-0.9418335,1.7493896-0.6863403,2.6693115L32.0638237,26.7497082
			c-0.9062519,0.906189-1.6171284,1.9673462-2.0650654,3.0584717l-3.9893799,7.737978
			c-0.5546875,1.0754395-0.359375,2.3228149,0.489563,3.1821289c0.5338135,0.536438,1.223877,0.817688,1.9295654,0.817688
			c0.4192505,0,0.84375-0.098938,1.244751-0.302063l9.2626362-4.6665039
			c0.0628052-0.0315552,0.1035156-0.085083,0.1589355-0.1246338c0.0609131-0.0431519,0.130249-0.0681763,0.1848145-0.1227417
			l17.1972046-17.194582c0.921875,0.2578125,1.958252,0.0234375,2.6796265-0.6965942l0.963501-0.9622192
			c0.5181885-0.5181885,0.802002-1.2056885,0.802002-1.9387207c0-0.7317505-0.286438-1.4179077-0.802002-1.9321899
			l-5.5704346-5.5693359l1.7241821-1.7233276c0.572937-0.5755005,1.510376-0.5742188,2.083252-0.0013428l2.5441895,2.5441895
			c0.2786255,0.2786255,0.432251,0.6484375,0.432251,1.041626s-0.1536255,0.7630005-0.432251,1.041626
			c-0.520813,0.5195313-0.520813,1.364502,0,1.8853149c0.260437,0.260437,0.6015625,0.390625,0.942688,0.390625
			s0.682251-0.130188,0.942627-0.3892822c0.78125-0.7825317,1.213501-1.8215332,1.213501-2.9282837
			C63.9999809,8.7921276,63.5677299,7.7530651,62.7864799,6.9705944z M32.2808647,36.8621979l-1.9274921-1.9274902
			l1.9201679-3.727602l3.8009644,3.8025532L32.2808647,36.8621979z M28.3790684,38.7674713l0.6923218-1.3440552l0.6759033,0.6759033
			L28.3790684,38.7674713z M57.1695366,16.5509167c-0.520813-0.5181885-1.3619385-0.5181885-1.8827515,0.0025635
			l-16.949646,16.9484882l-4.6154785-4.616396c0.0759888-0.0834351,0.1472778-0.1704712,0.227478-0.2505493L49.7167168,12.867506
			l1.2733765,1.2733154L37.2042046,27.9319592c-0.520813,0.520813-0.520813,1.364502,0,1.8853149s1.364563,0.520813,1.885376,0
			l14.7285156-14.7337646c0.520813-0.520813,0.520813-1.364502,0-1.8853149l-3.1586914-3.2564087l1.062439-0.963501
			l6.5127563,6.6116943L57.1695366,16.5509167z"/>
	</g>
</g>
<g id="logout">
</g>
<g id="assignment">
</g>
<g id="coursework">
</g>
<g id="forum">
</g>
<g id="quiz">
</g>
<g id="book">
</g>
<g id="database">
</g>
<g id="wiki">
</g>
<g id="choice">
</g>
<g id="workshop">
</g>
<g id="certificate">
</g>
<g id="scheduler">
</g>
<g id="equella">
</g>
<g id="file">
</g>
<g id="folder">
</g>
<g id="ims_x5F_content_x5F_package">
</g>
<g id="label">
</g>
<g id="lightbox_x5F_gallery">
</g>
<g id="nln_x5F_learning_x5F_object">
</g>
<g id="page">
</g>
<g id="subpage">
</g>
<g id="tab_x5F_display">
</g>
<g id="new_x5F_label">
</g>
<g id="url">
</g>
<g id="_x33_60_x5F_degree_x5F_diagnostics">
</g>
<g id="adobe_x5F_connect">
</g>
<g id="attendance_x5F_register">
</g>
<g id="booking">
</g>
<g id="chat">
</g>
<g id="checklist">
</g>
<g id="external_x5F_tool">
</g>
<g id="face_x5F_to_x5F_face">
</g>
<g id="forumNG">
</g>
<g id="glossary">
</g>
<g id="group_x5F_choice">
</g>
<g id="journal">
</g>
<g id="mediasite_x5F_content">
</g>
<g id="nanogong_x5F_voice">
</g>
<g id="questionnaire">
</g>
<g id="scorm_x5F_package">
</g>
<g id="survey">
</g>
<g id="tutorship">
</g>
<g id="advanced_x5F_forum">
</g>
<g id="subcourse">
</g>
<g id="lesson_1_">
</g>
<g id="adaptive_x5F_quiz">
</g>
<g id="ou_x5F_wiki">
</g>
<g id="support_x5F_tracker">
</g>
<g id="view_x5F_comments">
</g>
<g id="no_x5F_comment">
</g>
<g id="attention">
</g>
<g id="search">
</g>
<g id="submitted">
</g>
<g id="feedback">
</g>
<g id="dnd_x5F_arrow">
</g>
</svg>
