<?xml version="1.0" encoding="utf-8"?>
<!-- Generator: Adobe Illustrator 21.0.0, SVG Export Plug-In . SVG Version: 6.00 Build 0)  -->
<svg version="1.1" xmlns="http://www.w3.org/2000/svg" xmlns:xlink="http://www.w3.org/1999/xlink" x="0px" y="0px" width="64px"
	 height="64px" viewBox="0 0 64 64" enable-background="new 0 0 64 64" xml:space="preserve">
<g id="Layer_1">
</g>
<g id="Layer_2">
</g>
<g id="messages">
</g>
<g id="messages_x5F_hover">
</g>
<g id="profile">
</g>
<g id="profile_x5F_hover">
</g>
<g id="view_x5F_hover">
</g>
<g id="view_x5F_feedback">
</g>
<g id="no_x5F_feedback_x5F_to_x5F_view">
</g>
<g id="download_x5F_hover">
</g>
<g id="download">
</g>
<g id="no_x5F_feedback_x5F_download">
</g>
<g id="link_x5F_hover">
</g>
<g id="assignment_x5F_link_copy">
</g>
<g id="Layer_21">
</g>
<g id="home_x5F_hover">
</g>
<g id="home_1_">
</g>
<g id="edit_x5F_profile">
</g>
<g id="preferences">
</g>
<g id="notifications">
</g>
<g id="my_x5F_posts">
</g>
<g id="logout">
</g>
<g id="assignment">
</g>
<g id="coursework">
</g>
<g id="forum">
	<g>
		<g>
			<path fill="#FFFFFF" d="M58.6288147,6.6879587H5.3705783c-1.9773922,0-3.5803854,1.602993-3.5803854,3.5803852v31.705555
				c0,1.9773941,1.6029932,3.5803871,3.5803854,3.5803871h5.8186507c1.4011602,0,2.5370178,1.1358757,2.5369921,2.5370369
				l-0.0001717,9.2180939L27.4018383,45.554287h31.2269764c1.9773903,0,3.5803833-1.602993,3.5803833-3.5803871v-31.705555
				C62.209198,8.2909517,60.606205,6.6879587,58.6288147,6.6879587z"/>
		</g>
		<g opacity="0.3">
			<path fill="#545157" d="M26.3918457,27.9145126L4.2327766,8.7956371c-0.8416417-0.7261696-0.3280869-2.107532,0.7835259-2.107532
				h52.8774834c1.4868889,0,2.1738167,1.8477044,1.0480423,2.8190255l-21.3344383,18.407383
				C34.3855972,30.6942787,29.6136379,30.6942787,26.3918457,27.9145126z"/>
		</g>
		<g>
			<path fill="#545157" d="M8.5768414,40.5628548c-0.4999952,0-0.99999-0.2097855-1.3566303-0.6223717
				c-0.6433506-0.7482452-0.5629315-1.8776054,0.1888094-2.5244522l15.1991568-13.1152592
				c0.7447472-0.6398525,1.8741074-0.5629311,2.5244522,0.1888103c0.6433506,0.7482452,0.5629311,1.8776035-0.1888103,2.5244522
				L9.7446632,40.1292953C9.4090014,40.4195023,8.9929218,40.5628548,8.5768414,40.5628548z"/>
		</g>
		<g>
			<path fill="#545157" d="M60.3385887,45.9823837c-0.4160805,0-0.8321609-0.1433525-1.16782-0.4335594L43.4331551,31.9685326
				c-0.7517433-0.6468487-0.8321609-1.776207-0.1888084-2.5244522c0.6538391-0.7552376,1.7831993-0.8286629,2.5244484-0.1888103
				l15.7376137,13.5802898c0.7517433,0.6468468,0.8321609,1.776207,0.1888084,2.5244522
				C61.3385773,45.7725983,60.8385849,45.9823837,60.3385887,45.9823837z"/>
		</g>
		<g>
			<path fill="#545157" d="M13.7271423,59.1011429c-0.2482491,0-0.4999952-0.0524483-0.7342587-0.157341
				c-0.6433506-0.2902069-1.055934-0.9300613-1.055934-1.6328545V48.487114c0-0.6949158-0.5685673-1.2634811-1.263484-1.2634811
				H5.3823256C2.4097493,47.2236328,0,44.8138809,0,41.8413048V10.2811842c0-2.9725761,2.4097493-5.3823256,5.3823256-5.3823256
				H59.409462c2.6711998,0,3.8973808,3.325973,1.8654213,5.0598817l-22.810215,19.4643612
				c-3.7552071,3.1538143-9.1782322,3.1503201-12.9194565,0.0104885L7.5628653,14.5421238
				c-0.7622304-0.629365-0.8706212-1.7587242-0.2377601-2.5209551c0.629365-0.7622309,1.7622209-0.8636284,2.5174584-0.2342634
				l17.9998302,14.8984604c2.4090672,2.0279522,5.9020405,2.0279522,8.3041172,0.0069923L57.3494987,8.4999065
				c0.0082741-0.0071001,0.0032539-0.0206623-0.0076485-0.0206623H5.3823256c-0.9910669,0-1.80194,0.810873-1.80194,1.80194
				v31.5601196c0,0.9910698,0.810873,1.8019409,1.80194,1.8019409h5.3028874c2.6573172,0,4.8251295,2.1643143,4.8321218,4.8286247
				v4.8445282c0,0.0101204,0.0119429,0.0155029,0.0195255,0.0088043l9.9524088-8.7938538
				c1.0174713-0.6468468,1.8845978-0.8881035,2.7622108-0.8881035h30.3655853c0.9910698,0,1.8019409-0.8108711,1.8019409-1.8019409
				l-0.0000038-27.4311371c0-0.787652,0.4641762-1.5490074,1.2163963-1.782588
				c1.2340813-0.3832083,2.3639946,0.5258045,2.3639946,1.7012596v27.5124664c0,2.9725761-2.4097519,5.382328-5.382328,5.382328
				H28.2514801c-0.2272701,0-0.4545403,0.0629349-0.6538391,0.1818161L14.912446,58.653595
				C14.5802813,58.9472961,14.1537123,59.1011429,13.7271423,59.1011429z"/>
		</g>
	</g>
</g>
<g id="quiz">
</g>
<g id="book">
</g>
<g id="database">
</g>
<g id="wiki">
</g>
<g id="choice">
</g>
<g id="workshop">
</g>
<g id="certificate">
</g>
<g id="scheduler">
</g>
<g id="equella">
</g>
<g id="file">
</g>
<g id="folder">
</g>
<g id="ims_x5F_content_x5F_package">
</g>
<g id="label">
</g>
<g id="lightbox_x5F_gallery">
</g>
<g id="nln_x5F_learning_x5F_object">
</g>
<g id="page">
</g>
<g id="subpage">
</g>
<g id="tab_x5F_display">
</g>
<g id="new_x5F_label">
</g>
<g id="url">
</g>
<g id="_x33_60_x5F_degree_x5F_diagnostics">
</g>
<g id="adobe_x5F_connect">
</g>
<g id="attendance_x5F_register">
</g>
<g id="booking">
</g>
<g id="chat">
</g>
<g id="checklist">
</g>
<g id="external_x5F_tool">
</g>
<g id="face_x5F_to_x5F_face">
</g>
<g id="forumNG">
</g>
<g id="glossary">
</g>
<g id="group_x5F_choice">
</g>
<g id="journal">
</g>
<g id="mediasite_x5F_content">
</g>
<g id="nanogong_x5F_voice">
</g>
<g id="questionnaire">
</g>
<g id="scorm_x5F_package">
</g>
<g id="survey">
</g>
<g id="tutorship">
</g>
<g id="advanced_x5F_forum">
</g>
<g id="subcourse">
</g>
<g id="lesson_1_">
</g>
<g id="adaptive_x5F_quiz">
</g>
<g id="ou_x5F_wiki">
</g>
<g id="support_x5F_tracker">
</g>
<g id="view_x5F_comments">
</g>
<g id="no_x5F_comment">
</g>
<g id="attention">
</g>
<g id="search">
</g>
<g id="submitted">
</g>
<g id="feedback">
</g>
<g id="dnd_x5F_arrow">
</g>
</svg>
