<?xml version="1.0" encoding="utf-8"?>
<!-- Generator: Adobe Illustrator 21.0.0, SVG Export Plug-In . SVG Version: 6.00 Build 0)  -->
<svg version="1.1" xmlns="http://www.w3.org/2000/svg" xmlns:xlink="http://www.w3.org/1999/xlink" x="0px" y="0px" width="64px"
	 height="64px" viewBox="0 0 64 64" enable-background="new 0 0 64 64" xml:space="preserve">
<g id="Layer_1">
</g>
<g id="Layer_2">
</g>
<g id="messages">
</g>
<g id="messages_x5F_hover">
</g>
<g id="profile">
	<g>
		<g>
			<path fill="#FFFFFF" d="M54.8131638,51.3528748c0,1.6494713-0.7472267,3.2600403-2.1690788,4.3893013
				c-5.3986359,4.2884254-12.6516991,6.9243698-20.6447659,6.9243698c-7.9928684,0-15.2457294-2.6359444-20.6445656-6.9243698
				c-1.421855-1.129261-2.169281-2.73983-2.169281-4.3893013c0-5.8372231,5.9196472-10.4771996,13.4570799-11.4017067
				c0.4002857-0.0491333,1.0301933-0.0878372,2.1997643-0.1155128c1.6302185-0.0387077,2.9341545-1.3787384,2.9341545-3.0093575
				l-0.0002022-3.6791763c-2.6920967-1.6047497-4.9907284-4.5848274-6.5455437-8.1214161l-0.0020046-0.0040092
				c-0.2974072,0.2230034-0.6291065,0.3834381-0.9894829,0.4678669c-1.8915272,0.4436035-3.8520432-1.3753281-4.3790712-4.0628128
				s0.5791712-5.2257671,2.4708986-5.6693697c0.2454662-0.0577564,0.4923344-0.0772085,0.7371979-0.0615664
				c-0.0072193-0.2163868-0.0106277-0.4323721-0.0106277-0.6475554c0-8.9476566,5.7941074-13.7149792,12.9416828-13.7149792
				c6.0026722,0,11.0505581,3.3623147,12.5139217,9.7390003c0,0,0.5067749,3.0749359,0.4173317,4.6235342
				c0,0,0.4915352,0.0038099,0.7372017,0.0615664c1.8917274,0.4436026,2.9979248,2.981883,2.4708977,5.6693697
				c-0.5270309,2.6874847-2.4877434,4.5064163-4.3792725,4.0628128c-0.3601761-0.0844288-0.6920776-0.2448635-0.9894829-0.4678669
				c-1.4790077,3.3657227-3.6268311,6.2459316-6.1502724,7.9018192v3.9685593c0,1.6356354,1.3053398,2.9710541,2.9405708,3.0123672
				c1.0374146,0.0260696,1.9970131,0.0563507,2.1935463,0.0832253c7.3380928,0.9999084,13.0594025,5.5564613,13.0594025,11.2719574
				V51.3528748z"/>
		</g>
		<g opacity="0.3">
			<path fill="#32548C" d="M54.8131638,51.3528748c0,1.6494713-0.7472267,3.2600403-2.1690788,4.3893013
				c-5.3986359,4.2884254-12.6516991,6.9243698-20.6447659,6.9243698c-7.9928684,0-15.2457294-2.6359444-20.6445656-6.9243698
				c-1.421855-1.129261-2.169281-2.73983-2.169281-4.3893013c0-5.8372231,5.9196472-10.4771996,13.4570799-11.4017067
				c0.4002857-0.0491333,1.0301933-0.0878372,2.1997643-0.1155128c1.6302185-0.0387077,2.9341545-1.3787384,2.9341545-3.0093575
				l-0.0002022-3.6791763c-2.6920967-1.6047497-4.9907284-4.5848274-6.5455437-8.1214161l-0.0020046-0.0040092
				c-0.2974072,0.2230034-0.6291065,0.3834381-0.9894829,0.4678669c-1.8915272,0.4436035-3.8520432-1.3753281-4.3790712-4.0628128
				s0.5791712-5.2257671,2.4708986-5.6693697c0.2454662-0.0577564,0.4923344-0.0772085,0.7371979-0.0615664
				c-0.0072193-0.2163868-0.0106277-0.4323721-0.0106277-0.6475554c0-8.9476566,5.7941074-13.7149792,12.9416828-13.7149792
				c6.0026722,0,11.0505581,3.3623147,12.5139217,9.7390003c0,0,0.5067749,3.0749359,0.4173317,4.6235342
				c0,0,0.4915352,0.0038099,0.7372017,0.0615664c1.8917274,0.4436026,2.9979248,2.981883,2.4708977,5.6693697
				c-0.5270309,2.6874847-2.4877434,4.5064163-4.3792725,4.0628128c-0.3601761-0.0844288-0.6920776-0.2448635-0.9894829-0.4678669
				c-1.4790077,3.3657227-3.6268311,6.2459316-6.1502724,7.9018192v3.9685593c0,1.6356354,1.3053398,2.9710541,2.9405708,3.0123672
				c1.0374146,0.0260696,1.9970131,0.0563507,2.1935463,0.0832253c7.3380928,0.9999084,13.0594025,5.5564613,13.0594025,11.2719574
				V51.3528748z"/>
		</g>
		<path fill="#32548C" d="M41.9316406,38.6666679c-0.4921875-0.0677109-0.9401054-0.1223984-2.3385429-0.1588554
			c-0.6171875-0.015625-1.1744766-0.3697929-1.4557266-0.9244804c-0.3333359-0.6614571-1.1458359-0.9192696-1.7890625-0.5911446
			c-0.6588554,0.3307304-0.921875,1.1328125-0.5911484,1.7890625c0.7239609,1.4375,2.1666679,2.3515625,3.7682304,2.3932304
			c1.2265625,0.03125,1.6171875,0.0755196,2.0494804,0.1328125c6.8984375,0.9401016,11.90625,5.1276016,11.90625,10.046875
			c0,1.2838516-0.6067734,2.5026016-1.6640625,3.34375c-5.3880234,4.2786446-12.4270859,6.6354141-19.817709,6.6354141
			c-7.3919277,0-14.4296875-2.3567696-19.8151054-6.6354141c-1.0585938-0.8411484-1.6653652-2.0598984-1.6653652-3.34375
			c0-4.96875,5.166667-9.2083359,12.2877607-10.0807304c0.375-0.046875,0.9661465-0.078125,2.0611973-0.1041679
			c2.3398438-0.0572891,4.2421875-2.0052071,4.2421875-4.34375v-1.6010742
			c0.9207363,0.3079453,1.8723965,0.5281601,2.8893242,0.5281601c4.395834,0,8.598959-3.328125,11.4192715-8.973959
			c0.0130196,0.0026035,0.0234375,0.0065098,0.0364571,0.0091133c1.0546875,0.2447929,2.1875,0.03125,3.1796875-0.6067696
			c1.4036446-0.90625,2.4296875-2.5442715,2.8125-4.4973965c0.6744804-3.4375-0.8541679-6.6106768-3.4713554-7.2226563
			c-0.3697891-0.0872393-0.7421875-0.1184893-1.1302071-0.0963545c-0.734375,0.046875-1.2916679,0.6809902-1.2447929,1.4153652
			c0.046875,0.7317705,0.6223984,1.296874,1.4166679,1.2460928c0.1041679-0.0052071,0.2291679,0.0013027,0.3463554,0.0299492
			c1.0286446,0.2408848,1.8828125,1.9895821,1.46875,4.1132813c-0.2421875,1.2278633-0.8567734,2.2630196-1.6432304,2.7708321
			c-0.390625,0.2513027-0.7578125,0.333334-1.125,0.2513027c-0.1744804-0.0403652-0.3411446-0.119791-0.4947929-0.2356777
			c-0.3229141-0.244791-0.7395821-0.3294258-1.1380196-0.2226563c-0.3932304,0.1028652-0.71875,0.380209-0.8828125,0.7526054
			c-2.3307304,5.3059883-5.9895821,8.6015606-9.5494785,8.6015606c-3.8515625,0-7.7916679-3.8489571-10.0403652-9.8059883
			c-0.260416-0.6888027-1.03125-1.0377598-1.71875-0.776041c-0.6783848,0.2565098-1.0198574,1.0055332-0.78125,1.687336
			c-0.2120762-0.0349922-0.4288731-0.1100254-0.651041-0.2524414c-0.7851563-0.5078125-1.3984375-1.5429688-1.6393242-2.7695313
			c-0.416666-2.125,0.4388027-3.8736973,1.4726563-4.1158848c0.1119804-0.0273438,0.223959-0.03125,0.3424492-0.0286465
			c0.3802071,0.0195313,0.744791-0.1106758,1.0143223-0.375c0.2695313-0.2630196,0.416666-0.6276035,0.4023438-1.0039053
			l-0.0091152-0.598959c0-7.520833,4.5559902-12.3815098,11.6080742-12.3815098c5.291666,0,9.3671856,2.829427,10.901041,7.567708
			c0.2265625,0.7018232,0.96875,1.0872393,1.6796875,0.8580732c0.7005196-0.2265625,1.0833321-0.9778652,0.8567696-1.6783857
			C43.5279961,3.5195313,38.5045586,0,31.9993496,0c-8.3776054,0-14.0572929,5.8203125-14.2682304,14.541667
			c-2.4414053,0.776041-3.828124,3.8372393-3.1796865,7.1419268c0.3828125,1.9518223,1.4075518,3.5911465,2.8111982,4.4960938
			c0.7226563,0.4674473,1.5195313,0.708334,2.3085938,0.708334c0.2929688,0,0.5859375-0.0325527,0.8723946-0.1002617
			c0.0193691-0.0045567,0.0369473-0.0146484,0.0563164-0.0195313c1.4129219,2.8100586,3.388834,5.439127,5.8434238,7.1236973
			v2.9335938c0,0.9036484-0.7356777,1.65625-1.6393223,1.6770859c-1.2369804,0.03125-1.9010429,0.0729141-2.3242188,0.125
			c-8.4752607,1.0390625-14.6276054,6.390625-14.6276054,12.7265625c0,2.1015625,0.9739585,4.0807266,2.6731772,5.4322891
			C16.3808594,61.4375,24.0071621,64,31.9993496,64c7.989584,0,15.6171856-2.5625,21.4765606-7.2135429
			c1.6979179-1.3515625,2.671875-3.3307266,2.671875-5.5260391C56.1477852,45.0859375,50.1712227,39.7890625,41.9316406,38.6666679z
			"/>
	</g>
</g>
<g id="profile_x5F_hover">
</g>
<g id="view_x5F_hover">
</g>
<g id="view_x5F_feedback">
</g>
<g id="no_x5F_feedback_x5F_to_x5F_view">
</g>
<g id="download_x5F_hover">
</g>
<g id="download">
</g>
<g id="no_x5F_feedback_x5F_download">
</g>
<g id="link_x5F_hover">
</g>
<g id="assignment_x5F_link_copy">
</g>
<g id="Layer_21">
</g>
<g id="home_x5F_hover">
</g>
<g id="home_1_">
</g>
<g id="edit_x5F_profile">
</g>
<g id="preferences">
</g>
<g id="notifications">
</g>
<g id="my_x5F_posts">
</g>
<g id="logout">
</g>
<g id="assignment">
</g>
<g id="coursework">
</g>
<g id="forum">
</g>
<g id="quiz">
</g>
<g id="book">
</g>
<g id="database">
</g>
<g id="wiki">
</g>
<g id="choice">
</g>
<g id="workshop">
</g>
<g id="certificate">
</g>
<g id="scheduler">
</g>
<g id="equella">
</g>
<g id="file">
</g>
<g id="folder">
</g>
<g id="ims_x5F_content_x5F_package">
</g>
<g id="label">
</g>
<g id="lightbox_x5F_gallery">
</g>
<g id="nln_x5F_learning_x5F_object">
</g>
<g id="page">
</g>
<g id="subpage">
</g>
<g id="tab_x5F_display">
</g>
<g id="new_x5F_label">
</g>
<g id="url">
</g>
<g id="_x33_60_x5F_degree_x5F_diagnostics">
</g>
<g id="adobe_x5F_connect">
</g>
<g id="attendance_x5F_register">
</g>
<g id="booking">
</g>
<g id="chat">
</g>
<g id="checklist">
</g>
<g id="external_x5F_tool">
</g>
<g id="face_x5F_to_x5F_face">
</g>
<g id="forumNG">
</g>
<g id="glossary">
</g>
<g id="group_x5F_choice">
</g>
<g id="journal">
</g>
<g id="mediasite_x5F_content">
</g>
<g id="nanogong_x5F_voice">
</g>
<g id="questionnaire">
</g>
<g id="scorm_x5F_package">
</g>
<g id="survey">
</g>
<g id="tutorship">
</g>
<g id="advanced_x5F_forum">
</g>
<g id="subcourse">
</g>
<g id="lesson_1_">
</g>
<g id="adaptive_x5F_quiz">
</g>
<g id="ou_x5F_wiki">
</g>
<g id="support_x5F_tracker">
</g>
<g id="view_x5F_comments">
</g>
<g id="no_x5F_comment">
</g>
<g id="attention">
</g>
<g id="search">
</g>
<g id="submitted">
</g>
<g id="feedback">
</g>
<g id="dnd_x5F_arrow">
</g>
</svg>
