<?xml version="1.0" encoding="utf-8"?>
<!-- Generator: Adobe Illustrator 21.0.0, SVG Export Plug-In . SVG Version: 6.00 Build 0)  -->
<svg version="1.1" xmlns="http://www.w3.org/2000/svg" xmlns:xlink="http://www.w3.org/1999/xlink" x="0px" y="0px" width="64px"
	 height="64px" viewBox="0 0 64 64" enable-background="new 0 0 64 64" xml:space="preserve">
<g id="Layer_1">
</g>
<g id="Layer_2">
</g>
<g id="messages">
</g>
<g id="messages_x5F_hover">
</g>
<g id="profile">
</g>
<g id="profile_x5F_hover">
</g>
<g id="view_x5F_hover">
</g>
<g id="view_x5F_feedback">
</g>
<g id="no_x5F_feedback_x5F_to_x5F_view">
</g>
<g id="download_x5F_hover">
</g>
<g id="download">
	<g>
		<path fill="#FFFFFF" d="M45.5703316,2.9366455c-0.9449463-0.9557495-2.2330322-1.4935303-3.5769653-1.4935303H16.0690498
			c-1.7155771,0-3.1063242,1.3907471-3.1063242,3.1063232v49.7254639c0-1.173645-0.951416-2.125-2.125-2.125H8.968646
			c-1.1735835,0-2.1249995,0.951355-2.1249995,2.125v2.1320801c0,3.3794556,2.7396235,6.1190796,6.1190791,6.1190796H53.968586
			c1.864563,0,3.3760986-1.5115356,3.3760986-3.3760986V14.8450928L45.5703316,2.9366455z"/>
		<g opacity="0.3">
			<path fill="#32548C" d="M43.2373047,42.6983948h-5.4909592c-0.7825432,0-1.4169312-0.634388-1.4169312-1.4169273V23.9420528
				c0-1.5650845-1.2687721-2.8338585-2.8338547-2.8338585H22.9784336c-1.5650826,0-2.8338566,1.268774-2.8338566,2.8338585
				v17.3394146c0,0.7825394-0.6343861,1.4169273-1.4169292,1.4169273h-5.4909611
				c-1.3706427,0-2.0294962,1.6814766-1.0237207,2.6126251l13.9764585,12.9400864
				c1.1554794,1.0697479,2.9397297,1.0697479,4.0951424,0l13.9764614-12.9400215
				C45.2668037,44.3798714,44.6079483,42.6983948,43.2373047,42.6983948z"/>
			<path fill="#32548C" d="M55.6583672,13.1110592L43.9904099,1.4431045v10.4508247
				c0,1.6298332,1.3213234,2.9511547,2.9511566,2.9511547h7.9985542
				C55.8450584,14.8450842,56.2982407,13.7509336,55.6583672,13.1110592z"/>
		</g>
		<g>
			<path fill="#32548C" d="M54.4399223,63.7250977h-2.8295937c-0.64505,0-1.1679649-0.5229187-1.1679649-1.1679688l0,0
				c0-0.64505,0.5229149-1.1679688,1.1679649-1.1679688h2.8320351c0.9848366,0,1.7832031-0.7983665,1.7832031-1.7832031V19.4272461
				c0-0.644043,0.5234375-1.1679688,1.1669922-1.1679688s1.1669922,0.5239258,1.1669922,1.1679688v40.1782227
				C58.5595512,61.8806763,56.7151299,63.7250977,54.4399223,63.7250977z"/>
			<path fill="#32548C" d="M12.8818159,39.4111328c-0.6435547,0-1.1669922-0.5239258-1.1669922-1.1679688V4.394043
				c0-2.2714844,1.8466797-4.1191406,4.1171875-4.1191406h25.7128906c1.8632813,0,3.6855469,0.7548828,4.9990234,2.0708008
				l11.6738281,11.6743164c0.3349609,0.3354492,0.4345703,0.8349609,0.2539063,1.2729492
				c-0.1806641,0.4375-0.6044922,0.7202148-1.0791016,0.7202148H46.9413872c-2.2705078,0-4.1181641-1.8476563-4.1181641-4.1191406
				V7.3457031c0-0.6435547,0.5234375-1.1674805,1.1679688-1.1674805c0.6435547,0,1.1669922,0.5239258,1.1669922,1.1674805v4.5483398
				c0,0.9833984,0.7998047,1.7836914,1.7832031,1.7836914h7.6328125l-9.6816406-9.6806641
				c-0.8789063-0.8813477-2.0996094-1.3867188-3.3476563-1.3867188H15.8320112c-0.9824219,0-1.7822266,0.800293-1.7822266,1.7836914
				v33.8491211C14.0497847,38.887207,13.5263472,39.4111328,12.8818159,39.4111328z"/>
			<path fill="#32548C" d="M15.2626753,63.7250977c-5.4169922,0-9.8232422-4.4072266-9.8232422-9.8242188v-0.6611328
				c0-1.4394531,1.1708984-2.6103516,2.6103516-2.6103516h2.8847656c1.4394531,0,2.6103516,1.1708984,2.6103516,2.6103516v0.6611328
				c0,0.9467773,0.7705078,1.7172852,1.7177734,1.7172852h6.36621l-10.2089834-9.4511719
				c-0.8125-0.7529297-1.0771484-1.9067383-0.6748047-2.9389648c0.40625-1.0307617,1.3847656-1.6972656,2.4921875-1.6972656
				h5.7392569V23.940918c0-2.2055664,1.7949219-4.0004883,4.0019531-4.0004883h10.5156269
				c1.9433594,0,3.5966797,1.3935547,3.9326172,3.3139648c0.0478516,0.2451172,0.0703125,0.4682617,0.0703125,0.6870117v17.6162109
				l5.7421875-0.0268555c1.1074219,0,2.0839844,0.6669922,2.4882813,1.6987305
				c0.40625,1.0302734,0.1416016,2.1831055-0.671875,2.9375l-13.9765644,12.940918
				c-0.7705078,0.7128906-1.7792969,1.105957-2.8427734,1.105957c-1.0615234,0-2.0693359-0.3930664-2.8398438-1.105957
				l-1.2453022-1.1538086h-8.8884859c-2.2353516,0-4.0527344-1.8183594-4.0527344-4.0532227v-0.9360352H7.774394v0.9360352
				c0,4.1289063,3.359375,7.4882813,7.4882813,7.4882813h25.9472656c4.1289063,0,7.4892578-3.359375,7.4892578-7.4882813v-0.9360352
				h-3.4365234v0.9360352c0,2.2348633-1.8173828,4.0532227-4.0527344,4.0532227h-3.0371094
				c-0.6445313,0-1.1679688-0.5239258-1.1679688-1.1679688s0.5234375-1.1679688,1.1679688-1.1679688h3.0371094
				c0.9472656,0,1.7177734-0.7705078,1.7177734-1.7172852v-0.6611328c0-1.4394531,1.1708984-2.6103516,2.6103516-2.6103516
				h2.8857422c1.4394531,0,2.609375,1.1708984,2.609375,2.6103516v0.6611328c0,5.4169922-4.40625,9.8242188-9.8232422,9.8242188
				H15.2626753z M26.9824009,57.394043c0.3427734,0.3149414,0.7880783,0.4873047,1.2558594,0.4873047
				c0.46875,0,0.9140625-0.1723633,1.2529297-0.4858398l14.0131626-12.9744873
				c0.2135735-0.1977463,0.073658-0.5548096-0.2174072-0.5548096h-5.5398941c-1.4276352,0-2.5849609-1.1573257-2.5849609-2.5849609
				V23.9414063c0-0.9198456-0.7456818-1.6655273-1.6655273-1.6655273H22.9784946
				c-0.9199219,0-1.6679688,0.7470703-1.6679688,1.6655273L21.2851353,41.28125c0,1.425293-1.1591797,2.5849609-2.5839844,2.5849609
				h-5.3385715c-0.2944174,0-0.4368505,0.3603935-0.2219801,0.5616722L26.9824009,57.394043z"/>
		</g>
	</g>
</g>
<g id="no_x5F_feedback_x5F_download">
</g>
<g id="link_x5F_hover">
</g>
<g id="assignment_x5F_link_copy">
</g>
<g id="Layer_21">
</g>
<g id="home_x5F_hover">
</g>
<g id="home_1_">
</g>
<g id="edit_x5F_profile">
</g>
<g id="preferences">
</g>
<g id="notifications">
</g>
<g id="my_x5F_posts">
</g>
<g id="logout">
</g>
<g id="assignment">
</g>
<g id="coursework">
</g>
<g id="forum">
</g>
<g id="quiz">
</g>
<g id="book">
</g>
<g id="database">
</g>
<g id="wiki">
</g>
<g id="choice">
</g>
<g id="workshop">
</g>
<g id="certificate">
</g>
<g id="scheduler">
</g>
<g id="equella">
</g>
<g id="file">
</g>
<g id="folder">
</g>
<g id="ims_x5F_content_x5F_package">
</g>
<g id="label">
</g>
<g id="lightbox_x5F_gallery">
</g>
<g id="nln_x5F_learning_x5F_object">
</g>
<g id="page">
</g>
<g id="subpage">
</g>
<g id="tab_x5F_display">
</g>
<g id="new_x5F_label">
</g>
<g id="url">
</g>
<g id="_x33_60_x5F_degree_x5F_diagnostics">
</g>
<g id="adobe_x5F_connect">
</g>
<g id="attendance_x5F_register">
</g>
<g id="booking">
</g>
<g id="chat">
</g>
<g id="checklist">
</g>
<g id="external_x5F_tool">
</g>
<g id="face_x5F_to_x5F_face">
</g>
<g id="forumNG">
</g>
<g id="glossary">
</g>
<g id="group_x5F_choice">
</g>
<g id="journal">
</g>
<g id="mediasite_x5F_content">
</g>
<g id="nanogong_x5F_voice">
</g>
<g id="questionnaire">
</g>
<g id="scorm_x5F_package">
</g>
<g id="survey">
</g>
<g id="tutorship">
</g>
<g id="advanced_x5F_forum">
</g>
<g id="subcourse">
</g>
<g id="lesson_1_">
</g>
<g id="adaptive_x5F_quiz">
</g>
<g id="ou_x5F_wiki">
</g>
<g id="support_x5F_tracker">
</g>
<g id="view_x5F_comments">
</g>
<g id="no_x5F_comment">
</g>
<g id="attention">
</g>
<g id="search">
</g>
<g id="submitted">
</g>
<g id="feedback">
</g>
<g id="dnd_x5F_arrow">
</g>
</svg>
