<?xml version="1.0" encoding="utf-8"?>
<!-- Generator: Adobe Illustrator 21.0.0, SVG Export Plug-In . SVG Version: 6.00 Build 0)  -->
<svg version="1.1" xmlns="http://www.w3.org/2000/svg" xmlns:xlink="http://www.w3.org/1999/xlink" x="0px" y="0px" width="64px"
	 height="64px" viewBox="0 0 64 64" enable-background="new 0 0 64 64" xml:space="preserve">
<g id="Layer_1">
</g>
<g id="Layer_2">
</g>
<g id="messages">
</g>
<g id="messages_x5F_hover">
</g>
<g id="profile">
</g>
<g id="profile_x5F_hover">
</g>
<g id="view_x5F_hover">
</g>
<g id="view_x5F_feedback">
</g>
<g id="no_x5F_feedback_x5F_to_x5F_view">
</g>
<g id="download_x5F_hover">
</g>
<g id="download">
</g>
<g id="no_x5F_feedback_x5F_download">
</g>
<g id="link_x5F_hover">
</g>
<g id="assignment_x5F_link_copy">
</g>
<g id="Layer_21">
</g>
<g id="home_x5F_hover">
</g>
<g id="home_1_">
</g>
<g id="edit_x5F_profile">
</g>
<g id="preferences">
</g>
<g id="notifications">
</g>
<g id="my_x5F_posts">
</g>
<g id="logout">
</g>
<g id="assignment">
</g>
<g id="coursework">
</g>
<g id="forum">
</g>
<g id="quiz">
</g>
<g id="book">
</g>
<g id="database">
</g>
<g id="wiki">
</g>
<g id="choice">
</g>
<g id="workshop">
</g>
<g id="certificate">
</g>
<g id="scheduler">
</g>
<g id="equella">
</g>
<g id="file">
</g>
<g id="folder">
</g>
<g id="ims_x5F_content_x5F_package">
</g>
<g id="label">
</g>
<g id="lightbox_x5F_gallery">
</g>
<g id="nln_x5F_learning_x5F_object">
</g>
<g id="page">
</g>
<g id="subpage">
</g>
<g id="tab_x5F_display">
</g>
<g id="new_x5F_label">
</g>
<g id="url">
</g>
<g id="_x33_60_x5F_degree_x5F_diagnostics">
</g>
<g id="adobe_x5F_connect">
</g>
<g id="attendance_x5F_register">
</g>
<g id="booking">
</g>
<g id="chat">
</g>
<g id="checklist">
</g>
<g id="external_x5F_tool">
</g>
<g id="face_x5F_to_x5F_face">
</g>
<g id="forumNG">
	<g>
		<g>
			<path fill="#FFFFFF" d="M38.4850616,9.4565592c0-4.4863191-4.4489021-8.1232262-9.9368534-8.1232262
				c-5.4880276,0-9.9369278,3.6369066-9.9369278,8.1232262s4.4489002,8.1232252,9.9369278,8.1232252
				c1.8635426,0,3.6009846-0.4270992,5.091383-1.1566963l3.1186562,1.968092l-0.6953239-3.629797
				C36.0629234,14.7613831,38.4850616,12.9475927,38.4850616,9.4565592z"/>
		</g>
		<g>
			<path fill="#FFFFFF" d="M56.9274101,47.5924492l-0.0087891-0.0032578
				c-1.1238632-0.4510078-2.3621445-0.7700195-3.6694336-0.930336c-0.2815781-0.0345078-0.7244492-0.0616875-1.5457382-0.0812187
				c-1.1521797-0.0275078-2.0722656-0.9684258-2.0722656-2.1209297v-2.6490898
				c1.8678398-1.1401367,3.4664726-3.206707,4.5488281-5.6695976l0.000164-0.0001602
				c0.2096367,0.1570625,0.4433594,0.2701797,0.6972656,0.3297501c1.3330078,0.312664,2.7146797-0.9692383,3.0861015-2.8631172
				c0.371418-1.8938808-0.4082031-3.6826172-1.7412109-3.9952793c-0.1731796-0.0406914-0.347168-0.0543633-0.5195313-0.0432949
				l-0.5566406-4.1992188c-1.2864609-3.8829746-4.6318359-5.9222012-8.5561523-5.9222012
				c-5.0369492,0-9.1202812,3.359539-9.1202812,9.6650391c0,0.1516933,0.0024414,0.303875,0.0074883,0.4563808
				c-0.1725273-0.0110683-0.3465195,0.0026035-0.5195313,0.0432949c-1.3331718,0.3126621-2.1126328,2.1013985-1.741375,3.9952793
				c0.371418,1.8938789,1.7532539,3.1757813,3.0862617,2.8631172c0.253746-0.0595703,0.4876328-0.1726875,0.6971054-0.3297501
				l0.0014648,0.0029297c1.0952148,2.4913712,2.7163086,4.5843086,4.6129532,5.715004v2.600914
				c0,1.152504-0.9200821,2.0934219-2.0722656,2.1209297c-0.8212891,0.0195313-1.2641602,0.046711-1.5457344,0.0812187
				c-1.3072929,0.1603165-2.5455742,0.4793282-3.6694336,0.930336c0,0-2.2553711,0.8046875-4.3261719,2.0333672
				c-2.0708008-1.2286797-4.3261719-2.0333672-4.3261719-2.0333672c-1.1238613-0.4510078-2.3621426-0.7700195-3.6694336-0.930336
				c-0.2815762-0.0345078-0.7244473-0.0616875-1.5457363-0.0812187c-1.1521797-0.0275078-2.0722656-0.9684258-2.0722656-2.1209297
				v-2.6005859c1.8969727-1.1311874,3.5185547-3.2250977,4.6137695-5.7174492l0.000164-0.000164
				c0.2096348,0.1570663,0.4433594,0.2701836,0.6971016,0.3297539c1.3331718,0.312664,2.7148438-0.9692383,3.0861015-2.8631172
				c0.371418-1.8938808-0.4082031-3.6826191-1.7412109-3.9952812c-0.1730156-0.0405273-0.3470058-0.0541992-0.5195313-0.0432949
				l-0.5323906-4.1251621c-1.2682285-3.9308262-4.6310215-5.9959316-8.5800781-5.9959316
				c-5.0369463,0-9.1201162,3.359375-9.1201162,9.6648769c0,0.1515293,0.0024414,0.3038731,0.0074863,0.4562168
				c-0.1723633-0.0109043-0.346354,0.0027676-0.5195308,0.0432949c-1.3330078,0.3126621-2.1126304,2.1014004-1.7412109,3.9952812
				c0.371419,1.8938789,1.7530923,3.1757813,3.0861001,2.8631172c0.2539063-0.0595703,0.4876299-0.1726875,0.6972656-0.3297539
				l0.0013018,0.0027695c1.0823574,2.4619141,2.6805019,4.5273438,4.5476894,5.6673164v2.6481133
				c0,1.152504-0.920085,2.0934219-2.0722656,2.1209297c-0.8212891,0.0195313-1.2641602,0.046711-1.5457363,0.0812187
				c-1.307291,0.1603165-2.5455723,0.4793282-3.6694331,0.930336l-0.0087891,0.0032578
				c-3.4003909,1.3735352-5.7397461,3.9676094-5.7397461,7.0356445v0.0657539c0,1.1622734,0.5266926,2.2971992,1.5286459,3.0932617
				c3.8045247,3.0218086,8.9158525,4.8795586,14.5485029,4.8795586c4.1476231,0,8.0123692-1.007164,11.2809238-2.7447929
				c1.1705723-0.6222343,2.2644863-1.3380547,3.2675781-2.1347656c0,0,0.0185547-0.019043,0.0410156-0.0424805
				c0.0224609,0.0234375,0.0410156,0.0424805,0.0410156,0.0424805c1.0030937,0.796711,2.0970039,1.5125313,3.2675781,2.1347656
				c3.2685547,1.7376289,7.1333008,2.7447929,11.2809258,2.7447929c5.6326485,0,10.7439766-1.8577499,14.5485001-4.8795586
				c1.0019531-0.7960625,1.5286484-1.9309883,1.5286484-3.0932617v-0.0657539
				C62.6671562,51.5600586,60.3278008,48.9659843,56.9274101,47.5924492z"/>
		</g>
		<g opacity="0.3">
			<g>
				<path fill="#32548C" d="M38.4850616,9.4565592c0-4.4863191-4.4489021-8.1232262-9.9368534-8.1232262
					c-5.4880276,0-9.9369278,3.6369066-9.9369278,8.1232262s4.4489002,8.1232252,9.9369278,8.1232252
					c1.8635426,0,3.6009846-0.4270992,5.091383-1.1566963l3.1186562,1.968092l-0.6953239-3.629797
					C36.0629234,14.7613831,38.4850616,12.9475927,38.4850616,9.4565592z"/>
			</g>
		</g>
		<g>
			<path fill="#32548C" d="M36.7574883,19.723959c-0.2473984,0-0.4947929-0.0690117-0.7109375-0.2057304l-2.5130234-1.5859375
				c-1.5520821,0.6432304-3.260416,0.9804688-4.9843731,0.9804688c-6.2135429,0-11.270834-4.2421865-11.270834-9.4557285
				C17.2783203,4.2421875,22.3356113,0,28.5491543,0s11.2682285,4.2421875,11.2682285,9.4570313
				c0,2.9244795-1.4348946,4.8671875-2.3072929,5.7773438l0.5572929,2.9049473
				c0.0989571,0.5221367-0.1197929,1.0533867-0.5598946,1.3528652C37.2835274,19.645834,37.0205078,19.723959,36.7574883,19.723959z
				 M28.5491543,2.6666667c-4.7447929,0-8.6041679,3.045573-8.6041679,6.7903643
				c0,3.7434893,3.859375,6.7890625,8.6041679,6.7890625c1.5807285,0,3.1380196-0.3528643,4.505209-1.020833
				c0.4114571-0.2044277,0.9036446-0.177084,1.296875,0.0703125l0.5182266,0.3268223l-0.1171875-0.609375
				C34.6559258,14.5117188,34.8538399,14,35.2626953,13.6940107c0.0677071-0.0533857,1.8880196-1.4960938,1.8880196-4.2369795
				C37.1507149,5.7122397,33.2913399,2.6666667,28.5491543,2.6666667z"/>
		</g>
		<g>
			<path fill="#32548C" d="M53.6429253,45.3632813c-0.3568115-0.0481567-0.677124-0.088562-1.6901245-0.114563
				c-0.291687-0.0065308-0.552063-0.1732178-0.682312-0.432312c-0.3306885-0.6588745-1.1275635-0.927063-1.7890625-0.5976563
				c-0.6588135,0.328125-0.9244385,1.1289063-0.5963135,1.7877808c0.5703125,1.1445313,1.7213135,1.875,3,1.9088135
				c0.8359375,0.020874,1.104126,0.0507813,1.3984375,0.0911865c4.6640625,0.635376,8.0494385,3.4192505,8.0494385,6.6875
				c0,0.7851563-0.3723755,1.53125-1.0234375,2.0481567c-3.729126,2.9609375-8.598938,4.5911255-13.71875,4.5911255
				c-3.7838135,0-7.46875-0.895813-10.65625-2.588501c-0.6856079-0.3640747-1.3358154-0.7772217-1.9663696-1.2111816
				c0.5502319-0.848938,0.8518066-1.84375,0.8518066-2.9047241c0-4.5507813-4.3567524-8.447937-10.3567524-9.265625
				c-0.3568115-0.0481567-0.677124-0.0872192-1.6901245-0.114563c-0.2890625-0.0065308-0.552063-0.1744995-0.6848755-0.4362183
				c-0.333374-0.661438-1.135437-0.9205933-1.7890625-0.5924683c-0.6588745,0.3307495-0.921875,1.1328125-0.5911865,1.7904053
				c0.572937,1.1419067,1.7213745,1.8710938,2.994812,1.9049072c0.838562,0.0221558,1.1067505,0.0507813,1.401062,0.0911865
				c4.6640625,0.635376,8.0494404,3.4205322,8.0494404,6.6875c0,0.796875-0.3645649,1.5247192-1.0234394,2.0494385
				c-3.729126,2.9596558-8.6015625,4.5898438-13.71875,4.5898438c-5.11975,0-9.9921875-1.630188-13.718749-4.588501
				c-0.651001-0.5195313-1.026001-1.2669678-1.026001-2.0507813c0-3.296875,3.4973752-6.119812,8.3098755-6.7109375
				c0.2578125-0.03125,0.6640625-0.0546875,1.416687-0.0716553c1.8931885-0.0455322,3.375-1.5625,3.375-3.4544067v-0.5950928
				c0.5413198,0.1377563,1.0882559,0.2330933,1.6431875,0.2330933c3.1796875,0,6.2057495-2.322876,8.260437-6.276001
				c0.7734375,0.1067505,1.5651245-0.0794678,2.270813-0.5351563c1.078125-0.6966553,1.8619995-1.9440308,2.1484375-3.421875
				c0.5182495-2.6276245-0.6875-5.0664063-2.7473755-5.552124c-0.291687-0.067688-0.5859375-0.0924072-0.901062-0.0742188
				c-0.734375,0.0443115-1.2265625,0.6810303-1.182251,1.416687c0.0442505,0.7356567,0.7681885,1.2695313,1.4765625,1.255188
				c0.4765625,0.1119995,0.9973755,1.1185303,0.7369385,2.442749c-0.1744385,0.8945313-0.619751,1.4622231-0.979126,1.6939697
				c-0.182312,0.1185303-0.34375,0.1627808-0.697937,0.026062c-0.3255005-0.244812-0.7473755-0.328125-1.135437-0.2213745
				c-0.3931885,0.1029053-0.71875,0.380249-0.8828125,0.7526245c-1.578125,3.59375-4.0181885,5.8268433-6.3671875,5.8268433
				c-2.348937,0-4.7890615-2.2330933-6.36975-5.8268433c-0.1640625-0.3737183-0.588562-0.6028442-0.984375-0.7057495
				c-0.3932495-0.109375-0.911499,0.0273438-1.2369995,0.2747803c-0.140625,0.0377197-0.3125-0.0091553-0.4921875-0.1263428
				c-0.3593755-0.2317467-0.804688-0.7994385-0.981751-1.6965942c-0.2578125-1.322937,0.2630005-2.3294067,0.872376-2.4505005
				c0.3880005,0.0142822,0.7421875-0.114624,1.010437-0.3763428c0.270813-0.2617188,0.416626-0.625,0.4036255-1
				l-0.0078125-0.4101563c0-5.0611572,3.057312-8.3320313,7.786437-8.3320313c3.5546875,0,6.286499,1.895874,7.3125,5.0716553
				c0.2265625,0.7005005,0.979187,1.083313,1.677124,0.8606567c0.7005005-0.2265625,1.0859375-0.9778442,0.859375-1.6784058
				c-1.3776245-4.2695313-5.151062-6.9205322-9.848999-6.9205322c-6.0494375,0-10.177063,4.1367188-10.4400635,10.3632813
				c-1.744812,0.7330322-2.713562,2.9804688-2.2421875,5.385376c0.2890625,1.479187,1.072876,2.7265625,2.151001,3.4232178
				c0.703125,0.4544067,1.4948125,0.6470947,2.26825,0.5351563c1.085083,2.0883179,2.4459839,3.704834,3.953125,4.7809448v1.8570557
				c0,0.432312-0.338562,0.7773438-0.770813,0.7877808c-0.8880615,0.0220947-1.3671875,0.0533447-1.6744995,0.0911255
				c-6.1745,0.7578125-10.65625,4.6940308-10.65625,9.3580933c0,1.6002197,0.739563,3.1080322,2.0338745,4.1380005
				C6.2288613,62.1640625,11.6923628,64,17.4111118,64c5.3739014,0,10.5061035-1.6389771,14.5906391-4.5993652
				c0.8518677,0.6169434,1.7398682,1.197998,2.6828003,1.6983032C38.2548637,62.9973755,42.3720512,64,46.5908012,64
				c5.71875,0,11.1796875-1.8359375,15.375-5.1692505c1.291687-1.0247803,2.0338745-2.5325928,2.0338745-4.203125
				C63.9996758,50.0768433,59.6429253,46.1809692,53.6429253,45.3632813z"/>
			<path fill="#32548C" d="M36.0595512,37.2851563c0.708374,0.4544067,1.494812,0.6393433,2.2682495,0.5325317
				c1.085083,2.0883179,2.4459839,3.7052002,3.953125,4.7816772v1.857666c0,0.432312-0.338562,0.7773438-0.770813,0.7877808
				c-0.890625,0.0220947-1.3724365,0.0533447-1.6744995,0.0911255c-1.4088745,0.171875-2.7578125,0.5143433-4.005188,1.0169067
				c-0.6849365,0.2747803-1.015625,1.052124-0.739624,1.734375c0.208374,0.520874,0.708374,0.8359375,1.2369995,0.8359375
				c0.166687,0,0.3359375-0.03125,0.4973755-0.0963135c1.0338745-0.4154053,2.15625-0.7005615,3.338562-0.8450928
				c0.255188-0.0325317,0.6588745-0.0533447,1.4088745-0.0703125c1.8931885-0.0455322,3.375-1.5625,3.375-3.4544067v-0.5952148
				c0.5413208,0.1378174,1.0882568,0.2332153,1.6431885,0.2332153c3.1796875,0,6.2057495-2.322876,8.2630615-6.2773438
				c0.7578125,0.1015625,1.5625-0.0794067,2.2681885-0.5351563c1.078125-0.6965942,1.8619995-1.9439697,2.1484375-3.4205322
				c0.5182495-2.630249-0.6875-5.0690308-2.744751-5.5507813c-0.302124-0.0716553-0.6119995-0.0976563-0.9140625-0.0755615
				c-0.734375,0.0507813-1.2265625,0.692749-1.177124,1.427124c0.0494995,0.7356567,0.7318115,1.3150635,1.4818115,1.244751
				c0.473938,0.1107178,1,1.1171875,0.7369385,2.4414063c-0.1744385,0.8945313-0.619751,1.4622803-0.979126,1.6940308
				c-0.1849365,0.119812-0.34375,0.1588745-0.697937,0.0273438c-0.3255005-0.244812-0.7473755-0.328125-1.135437-0.2213745
				c-0.3931885,0.1029053-0.71875,0.380249-0.8828125,0.7526245c-1.578125,3.59375-4.0181885,5.8268433-6.3671875,5.8268433
				c-2.348938,0-4.7890625-2.2330933-6.369751-5.8268433c-0.1640625-0.3737183-0.5911865-0.604187-0.984375-0.7070313
				c-0.401062-0.1028442-0.9140625,0.0273438-1.239624,0.2747192c-0.1431885,0.0390625-0.307251-0.0078125-0.489563-0.125
				c-0.359375-0.2317467-0.807312-0.7994385-0.9817505-1.6953125c-0.260437-1.3242188,0.2630005-2.3306885,0.859375-2.4517822
				c0.364563,0.015625,0.744751-0.109375,1.0181885-0.3724365c0.270874-0.2617188,0.4193115-0.6262817,0.40625-1.0039063
				l-0.0078125-0.411438c0.0026245-5.0612183,3.0599365-8.3320313,7.7890625-8.3320313
				c3.526062,0,6.25,1.8723755,7.2890625,5.0090942c0.229187,0.697937,0.984375,1.072937,1.6849365,0.8463745
				c0.697876-0.2317505,1.078125-0.9856567,0.8463135-1.6848755c-1.416626-4.28125-5.088501-6.8372803-9.8203125-6.8372803
				c-6.0494385,0-10.177063,4.1380615-10.442688,10.364624c-1.7421875,0.7330322-2.7109375,2.9778442-2.239563,5.385376
				C34.1976128,35.3411255,34.9840508,36.5898438,36.0595512,37.2851563z"/>
		</g>
	</g>
</g>
<g id="glossary">
</g>
<g id="group_x5F_choice">
</g>
<g id="journal">
</g>
<g id="mediasite_x5F_content">
</g>
<g id="nanogong_x5F_voice">
</g>
<g id="questionnaire">
</g>
<g id="scorm_x5F_package">
</g>
<g id="survey">
</g>
<g id="tutorship">
</g>
<g id="advanced_x5F_forum">
</g>
<g id="subcourse">
</g>
<g id="lesson_1_">
</g>
<g id="adaptive_x5F_quiz">
</g>
<g id="ou_x5F_wiki">
</g>
<g id="support_x5F_tracker">
</g>
<g id="view_x5F_comments">
</g>
<g id="no_x5F_comment">
</g>
<g id="attention">
</g>
<g id="search">
</g>
<g id="submitted">
</g>
<g id="feedback">
</g>
<g id="dnd_x5F_arrow">
</g>
</svg>
