<?xml version="1.0" encoding="utf-8"?>
<!-- Generator: Adobe Illustrator 21.0.0, SVG Export Plug-In . SVG Version: 6.00 Build 0)  -->
<svg version="1.1" xmlns="http://www.w3.org/2000/svg" xmlns:xlink="http://www.w3.org/1999/xlink" x="0px" y="0px" width="64px"
	 height="64px" viewBox="0 0 64 64" enable-background="new 0 0 64 64" xml:space="preserve">
<g id="Layer_1">
</g>
<g id="Layer_2">
</g>
<g id="messages">
</g>
<g id="messages_x5F_hover">
</g>
<g id="profile">
</g>
<g id="profile_x5F_hover">
</g>
<g id="view_x5F_hover">
</g>
<g id="view_x5F_feedback">
</g>
<g id="no_x5F_feedback_x5F_to_x5F_view">
</g>
<g id="download_x5F_hover">
</g>
<g id="download">
</g>
<g id="no_x5F_feedback_x5F_download">
</g>
<g id="link_x5F_hover">
</g>
<g id="assignment_x5F_link_copy">
</g>
<g id="Layer_21">
</g>
<g id="home_x5F_hover">
</g>
<g id="home_1_">
</g>
<g id="edit_x5F_profile">
</g>
<g id="preferences">
</g>
<g id="notifications">
</g>
<g id="my_x5F_posts">
</g>
<g id="logout">
</g>
<g id="assignment">
</g>
<g id="coursework">
</g>
<g id="forum">
</g>
<g id="quiz">
</g>
<g id="book">
</g>
<g id="database">
</g>
<g id="wiki">
</g>
<g id="choice">
</g>
<g id="workshop">
</g>
<g id="certificate">
</g>
<g id="scheduler">
</g>
<g id="equella">
</g>
<g id="file">
</g>
<g id="folder">
</g>
<g id="ims_x5F_content_x5F_package">
</g>
<g id="label">
</g>
<g id="lightbox_x5F_gallery">
</g>
<g id="nln_x5F_learning_x5F_object">
</g>
<g id="page">
</g>
<g id="subpage">
</g>
<g id="tab_x5F_display">
</g>
<g id="new_x5F_label">
</g>
<g id="url">
</g>
<g id="_x33_60_x5F_degree_x5F_diagnostics">
</g>
<g id="adobe_x5F_connect">
</g>
<g id="attendance_x5F_register">
</g>
<g id="booking">
</g>
<g id="chat">
</g>
<g id="checklist">
</g>
<g id="external_x5F_tool">
</g>
<g id="face_x5F_to_x5F_face">
</g>
<g id="forumNG">
</g>
<g id="glossary">
</g>
<g id="group_x5F_choice">
</g>
<g id="journal">
</g>
<g id="mediasite_x5F_content">
</g>
<g id="nanogong_x5F_voice">
</g>
<g id="questionnaire">
</g>
<g id="scorm_x5F_package">
</g>
<g id="survey">
</g>
<g id="tutorship">
</g>
<g id="advanced_x5F_forum">
</g>
<g id="subcourse">
</g>
<g id="lesson_1_">
</g>
<g id="adaptive_x5F_quiz">
</g>
<g id="ou_x5F_wiki">
</g>
<g id="support_x5F_tracker">
</g>
<g id="view_x5F_comments">
</g>
<g id="no_x5F_comment">
</g>
<g id="attention">
</g>
<g id="search">
</g>
<g id="submitted">
	<g>
		<g>
			<path fill="#FFFFFF" d="M2.6454275,10.1845999c-1.103815,0-1.7113853,1.2830095-1.0118575,2.1368303l9.3672905,11.4336491
				v15.1039715v0.0224609c0,0.7691841,0.6339369,1.3134422,1.3186541,1.3092117
				c0.2361593,0.0032539,0.4785042-0.0537109,0.7055492-0.1912384l3.5658331-2.1602669l-0.0001621-0.0021172l3.8177795-2.2912865
				l13.9233341,17.7681313c0.5634651,0.7188988,1.6715126,0.6536331,2.146759-0.126461L62.66679,10.1845999H2.6454275z"/>
		</g>
		<g opacity="0.3">
			<g>
				<path fill="#545157" d="M11.0008774,23.7550201V38.881546c0,1.0239983,1.1234598,1.6508713,1.9948931,1.113121
					l49.671051-29.810133L11.0008774,23.7550201z"/>
			</g>
		</g>
		<path fill="#545157" d="M63.9639778,10.4779053c0.0339355-0.1503296,0.0428429-0.3037109,0.024353-0.4547119
			c-0.0004272-0.00354,0.0010376-0.0067749,0.0005493-0.0103149c-0.0050049-0.0386963-0.0264893-0.0700684-0.034668-0.1075439
			c-0.0239868-0.1101074-0.0518188-0.21875-0.1033936-0.3206177c-0.0320435-0.0631104-0.0786133-0.1133423-0.119812-0.1700439
			c-0.0407104-0.0565186-0.069519-0.1192627-0.119751-0.1699829c-0.0109253-0.0109253-0.0255127-0.015625-0.0367432-0.026123
			c-0.052063-0.0488892-0.1134644-0.0825806-0.1727295-0.1226807c-0.0687866-0.0461426-0.1345825-0.0942383-0.2094116-0.1265259
			c-0.0603638-0.0262451-0.1242676-0.0383911-0.1886597-0.055542c-0.0873413-0.0232544-0.1726685-0.0432129-0.2625122-0.0485229
			c-0.026001-0.0015259-0.0488281-0.013855-0.0751953-0.013855H2.6465943c-1.03125,0-1.947876,0.5794067-2.3880005,1.5130005
			c-0.442688,0.9309692-0.3098755,2.005188,0.34375,2.802002l9.0648804,11.0648804v14.6272583
			c0,0.9622192,0.520813,1.8527832,1.359375,2.3241577c0.406189,0.229126,0.8567505,0.3424072,1.307251,0.3424072
			c0.479126,0,0.958313-0.1289063,1.380188-0.385376l3.5676279-2.1600952
			c0.630188-0.3815308,0.8306885-1.2018433,0.4505005-1.8306885c-0.380249-0.6315308-1.2005005-0.8268433-1.8306894-0.4505005
			l-3.567627,2.1600952V23.7547607c0-0.3085938-0.1068115-0.6067505-0.302063-0.8450317L2.6465943,11.5180664h49.7774658
			l-37.3949585,9.9047241c-0.7109375,0.1887817-1.135376,0.9179077-0.947937,1.630127
			c0.1901245,0.7109375,0.911438,1.1380005,1.630188,0.947937L53.9088631,13.883606L19.7164803,34.3937988
			c-0.328125,0.1966553-0.557312,0.5247803-0.625,0.901062c-0.0703125,0.3762817,0.0234375,0.7630005,0.260437,1.0650635
			l13.9319458,17.7781982c0.5025635,0.6393433,1.270813,1.010437,2.078064,1.010437
			c0.052063,0,0.104187-0.0013428,0.1536255-0.005249c0.864563-0.0507813,1.651001-0.5220947,2.1015625-1.2616577
			l26.1868286-43.0028687c0.0422363-0.0692139,0.059082-0.1456909,0.0875244-0.2191772
			C63.9153328,10.5983276,63.9493294,10.5426025,63.9639778,10.4779053z M35.3801765,52.4910278L22.3831062,35.9028931
			l36.3376465-21.7976685L35.3801765,52.4910278z"/>
	</g>
</g>
<g id="feedback">
</g>
<g id="dnd_x5F_arrow">
</g>
</svg>
