<?xml version="1.0" encoding="utf-8"?>
<!-- Generator: Adobe Illustrator 21.0.0, SVG Export Plug-In . SVG Version: 6.00 Build 0)  -->
<svg version="1.1" xmlns="http://www.w3.org/2000/svg" xmlns:xlink="http://www.w3.org/1999/xlink" x="0px" y="0px" width="64px"
	 height="64px" viewBox="0 0 64 64" enable-background="new 0 0 64 64" xml:space="preserve">
<g id="Layer_1">
</g>
<g id="Layer_2">
</g>
<g id="messages">
</g>
<g id="messages_x5F_hover">
</g>
<g id="profile">
</g>
<g id="profile_x5F_hover">
</g>
<g id="view_x5F_hover">
</g>
<g id="view_x5F_feedback">
</g>
<g id="no_x5F_feedback_x5F_to_x5F_view">
</g>
<g id="download_x5F_hover">
</g>
<g id="download">
</g>
<g id="no_x5F_feedback_x5F_download">
</g>
<g id="link_x5F_hover">
</g>
<g id="assignment_x5F_link_copy">
</g>
<g id="Layer_21">
</g>
<g id="home_x5F_hover">
</g>
<g id="home_1_">
</g>
<g id="edit_x5F_profile">
	<g>
		<g>
			<path fill="#FFFFFF" d="M51.1708984,33.2823906c-0.3413086-0.041832-0.8780937-0.0748711-1.8738594-0.0984726
				c-1.3966484-0.0333633-2.5118828-1.1738281-2.5118828-2.5709629v-4.2856445
				c2.0094414-1.3028965,3.7205391-3.5862617,4.8959961-6.2610664l0.000164-0.000164
				c0.2348633,0.1761074,0.4967422,0.3027344,0.781086,0.3694668c1.4934883,0.3502598,3.0415039-1.0859375,3.4575195-3.2076817
				c0.4161797-2.1217451-0.4571953-4.1258144-1.9506836-4.4760752c-0.1940117-0.0455723-0.3888359-0.0608721-0.5821953-0.048502
				l-0.6233711-4.7045903c-1.4412422-4.3502603-5.1892891-6.6349282-9.5859375-6.6349282
				c-5.6430664,0-10.2177734,3.7638345-10.2177734,10.8282881c0,0.1697588,0.0027657,0.340332,0.0084648,0.5112305
				c-0.1931992-0.0123701-0.3881836,0.0029297-0.5820313,0.048502c-1.4934902,0.3502607-2.3668633,2.3543301-1.9508476,4.4760752
				s1.9640312,3.5579414,3.4575195,3.2076817c0.2843437-0.0667324,0.5462227-0.1933594,0.781086-0.3694668l0.0016289,0.0032558
				c1.175293,2.673502,2.8859062,4.9558926,4.8945313,6.2581387v4.2854805c0,1.3971348-1.1152344,2.5375996-2.5118828,2.5709629
				c-0.5029297,0.0118828-0.8875313,0.0260429-1.1902657,0.0428085l0.9404297-0.9404297
				c0.5296211-0.529623,0.6181641-1.2871113,0.0885429-1.8167324l-3.2967148-3.3095703
				c-0.5296211-0.529623-1.3883438-0.529623-1.9181309,0.0001621l-1.7530918,1.7532558
				c-0.4248047,0.4248047-1.0649414,0.4957676-1.5970058,0.2164707c-0.8118477-0.4264317-1.6658516-0.7823887-2.5550117-1.0600586
				c-0.5729179-0.1788731-0.9777031-0.6816406-0.9777031-1.2815762v-2.479166c0-0.7488613-0.6072578-1.3562832-1.3562813-1.3562832
				h-4.5371094c-0.7491875,0-1.3562832,0.6074219-1.3562832,1.3562832v2.479166
				c0,0.5999355-0.4049473,1.1027031-0.9777012,1.2815762c-0.8891611,0.2776699-1.743165,0.6336269-2.5551767,1.0600586
				c-0.5319004,0.2792969-1.1720371,0.208334-1.5970049-0.2164707l-1.7530928-1.7532558
				c-0.5296221-0.5297852-1.3883457-0.5297852-1.9179688-0.0001621l-3.208333,3.2083321
				c-0.5296226,0.529623-0.5296226,1.3883476,0,1.9179707l1.7532554,1.7532539
				c0.4249673,0.4249687,0.4959307,1.0649414,0.2164712,1.5968437c-0.4264321,0.8120117-0.7823892,1.6660156-1.0600586,2.555336
				c-0.1788735,0.5727539-0.6816406,0.9775391-1.2815757,0.9775391H2.689616c-0.7490236,0-1.3562826,0.6072617-1.3562826,1.3564453
				V45.0625c0,0.7490234,0.607259,1.3564453,1.3562826,1.3564453h2.4790037c0.5999351,0,1.1027021,0.4047852,1.2815757,0.9775391
				c0.2776694,0.8893242,0.6336265,1.7434883,1.059896,2.5553398c0.2794595,0.5320625,0.2084961,1.1720352-0.2164717,1.5968399
				l-1.7530923,1.7532578c-0.5296226,0.5296211-0.5296226,1.3883438,0,1.9179688l3.208333,3.208168
				c0.529623,0.5296249,1.3883467,0.5296249,1.9179688,0l1.7530928-1.7530899
				c0.4249678-0.4248047,1.0651045-0.4959335,1.5970049-0.2166367c0.8120117,0.4264336,1.6660156,0.7823906,2.5551767,1.0602226
				c0.5727539,0.178875,0.9777012,0.6814766,0.9777012,1.2815742v2.4790039c0,0.7490234,0.6070957,1.3562851,1.3562832,1.3562851
				h4.5371094c0.7490234,0,1.3562813-0.6072617,1.3562813-1.3562851v-2.4790039
				c0-0.6000977,0.4047852-1.1026993,0.9777031-1.2815742c0.8891602-0.277832,1.7431641-0.6337891,2.5550117-1.0602226
				c0.5320644-0.2792969,1.1722012-0.208168,1.5970058,0.2166367l1.7530918,1.7530899
				c0.5297871,0.5296249,1.3885098,0.5296249,1.9181309,0l3.2081718-3.208168c0.5296211-0.5296249,0.5296211-1.3883476,0-1.9179688
				l-1.7418633-1.7420273c2.5524101,0.7184258,5.2716484,1.1272812,8.1110039,1.1272812
				c6.828125,0,13.0239258-2.2519531,17.6357422-5.9152031c1.2146797-0.9646797,1.8531914-2.3404961,1.8531914-3.7495117
				C62.6666679,38.0359688,57.6098633,34.0722656,51.1708984,33.2823906z"/>
		</g>
		<g>
			<path fill="#545157" d="M43.1770821,54.0201836c-0.7369766,0-1.3333321-0.5963554-1.3333321-1.3333359
				c0-0.7369766,0.5963554-1.3333321,1.3333321-1.3333321c6.2708359,0,12.2395859-1.9973946,16.8072929-5.6263008
				c0.8567696-0.6809921,1.3489571-1.6666679,1.3489571-2.7044296c0-4.1432266-4.3411446-7.6835938-10.3229141-8.4179688
				c-0.3177109-0.0377579-0.8203125-0.0664063-1.7447929-0.0872383c-2.1380196-0.0520821-3.8125-1.7669258-3.8125-3.9049473
				v-3.109375c0-0.7369804,0.5963554-1.333334,1.3333321-1.333334c0.7369804,0,1.3333359,0.5963535,1.3333359,1.333334v3.109375
				c0,0.6783848,0.53125,1.2226563,1.2083321,1.2382813c1.0651054,0.026041,1.640625,0.0625,2.0052071,0.1080723
				C58.6744804,32.8600273,64,37.5123711,64,43.0227852c0,1.8567734-0.859375,3.6041679-2.359375,4.7929688
				C56.6067696,51.8170586,50.046875,54.0201836,43.1770821,54.0201836z"/>
		</g>
		<g>
			<path fill="#545157" d="M43.1770821,28.8196621c-3.5286446,0-6.8932266-2.609375-9.1692696-7.046875
				c-0.8697929,0.1393223-1.7526054-0.0481777-2.5390625-0.5572929c-1.171875-0.7552071-2.026041-2.1158848-2.3411465-3.7317696
				c-0.5234375-2.6640635,0.5651054-5.145834,2.5104179-5.8932295c0.25-6.9414067,4.822916-11.5598965,11.5390606-11.5598965
				c5.2291679,0,9.2864609,2.8229167,10.8515625,7.549479c0.2317734,0.6992188-0.1484375,1.453125-0.8463516,1.6848955
				c-0.6979179,0.2317715-1.4557304-0.1484375-1.6848984-0.8463535c-1.1848946-3.5820317-4.296875-5.7213545-8.3203125-5.7213545
				c-5.3958321,0-8.8828125,3.7265625-8.8828125,9.494792l0.0078125,0.4713535c0.0104179,0.3763027-0.1380196,0.739584-0.4088516,1
				c-0.2682304,0.260417-0.6119804,0.3880215-1.015625,0.3710938c-0.8723984,0.177084-1.4244804,1.4596357-1.1354179,2.9361982
				c0.1744785,0.8815098,0.6223946,1.6497402,1.171875,2.005209c0.2395821,0.1536446,0.4635429,0.2174473,0.6744804,0.1614571
				C33.6875,19.1139317,33.78125,19.0683594,33.875,18.9993496c0.3229179-0.2434902,0.7369804-0.3307304,1.1380196-0.2226563
				c0.3932304,0.1028633,0.71875,0.3802071,0.8828125,0.7526035c1.7942734,4.0859375,4.5859375,6.6236973,7.28125,6.6236973
				c2.6979179,0,5.4869804-2.5377598,7.2838554-6.6236973c0.1640625-0.3723965,0.4895821-0.6497402,0.8828125-0.7539063
				c0.3984375-0.1015625,0.8151054-0.0195313,1.1380196,0.223959c0.09375,0.0703125,0.1875,0.1145821,0.2838554,0.1367188
				c0.2083321,0.0533848,0.4322929-0.0026054,0.6744804-0.1601563c0.5494766-0.3541679,0.9973946-1.1223965,1.171875-2.005209
				c0.2890625-1.4765625-0.2604179-2.760417-0.9479179-2.9205732c-0.6536446,0.0638027-1.4635429-0.5130205-1.5130196-1.2486973
				c-0.0494804-0.734375,0.4114571-1.3789063,1.1458321-1.4283857c0.3411446-0.020833,0.65625,0.005208,0.9791679,0.0807295
				c2.2161446,0.5195313,3.5130196,3.1692705,2.9505196,6.0299482c-0.3151054,1.6171875-1.1692696,2.9765625-2.3411446,3.7330723
				c-0.7916679,0.5091152-1.6848984,0.7018223-2.5390625,0.5546875
				C50.0703125,26.2102871,46.7057304,28.8196621,43.1770821,28.8196621z"/>
		</g>
		<g>
			<path fill="#545157" d="M21.1848965,52.4511719c-1.7109375,0-3.4010429-0.4609375-4.921875-1.3606758
				c-2.229167-1.3190117-3.807292-3.4140625-4.442709-5.8984375c-0.6380205-2.4830742-0.2630205-5.0794296,1.057292-7.3085938
				c1.3203125-2.2291679,3.4140615-3.8072929,5.8984365-4.4440117c2.8854179-0.7395821,5.9973965-0.0859375,8.3411465,1.7421875
				c0.5807285,0.453125,0.6848965,1.2903633,0.2317715,1.8710938c-0.4557304,0.5794258-1.2890625,0.6809883-1.8723965,0.2304688
				c-1.7005215-1.3255196-3.9609375-1.7981758-6.0390625-1.2604179c-1.7942715,0.4596367-3.307291,1.6028671-4.265625,3.21875
				c-0.9557295,1.6158867-1.229167,3.4947929-0.7682295,5.2877617c0.458334,1.7955742,1.6015635,3.3098946,3.218751,4.2669258
				c1.6171875,0.9557304,3.4921875,1.2291679,5.2890625,0.7695313c1.7942696-0.4596329,3.307291-1.6028633,4.265625-3.21875
				c0.9557285-1.6158829,1.229166-3.4947891,0.7682285-5.2877579c-0.182291-0.7135429,0.2473965-1.4401054,0.9609375-1.6236992
				c0.7057285-0.1809883,1.4401035,0.2473946,1.6223965,0.9596367c0.6380196,2.484375,0.2630196,5.0807266-1.0572929,7.3098946
				s-3.4140625,3.8072929-5.8984375,4.4440117C22.7838535,52.3509102,21.9817715,52.4511719,21.1848965,52.4511719z"/>
		</g>
		<g>
			<path fill="#545157" d="M23.442709,63.9694023H18.90625c-1.484375,0-2.6901035-1.2070313-2.6901035-2.6901054v-2.4791679
				c-1.000001-0.3085938-1.9348965-0.6966133-2.817709-1.1614571l-1.7890625,1.7317696
				c-1.010417,1.015625-2.791667,1.0169296-3.8020835-0.0013008l-3.208333-3.2070313
				c-0.5078125-0.5052071-0.7890627-1.1809883-0.7890627-1.8997383c0-0.7200546,0.2812502-1.3958359,0.7890627-1.9049492
				l1.752604-1.7513008c-0.484375-0.9140625-0.872396-1.8476563-1.174479-2.8111992l-2.4869792-0.0429688
				C1.2057291,47.7519531,0,46.5462227,0,45.0631523v-4.5377617c0-1.4830742,1.2057291-2.6888008,2.6901042-2.6888008H5.169271
				c0.3098955-1.0065117,0.6979165-1.9401054,1.161458-2.8203125l-1.7317705-1.7877617
				c-0.5078125-0.5052071-0.7890627-1.1809883-0.7890627-1.8997402c0-0.7200508,0.2812502-1.3958321,0.7890627-1.9049473
				l3.208333-3.2057285c1.0104165-1.015625,2.7916665-1.0169277,3.8020835,0.0013008l1.7526045,1.7513027
				c0.9244785-0.489584,1.8619785-0.8776035,2.8151045-1.1744785l0.0390625-2.4869804
				c0-1.4830723,1.2057285-2.6901035,2.6901035-2.6901035h4.536459c1.484375,0,2.6901035,1.2070313,2.6901035,2.6901035v2.4791679
				c0.989584,0.3046875,1.927084,0.6914063,2.8203125,1.1601563l1.786459-1.7304688
				c1.010416-1.015625,2.7838535-1.0169277,3.8046856-0.0013027l3.2994804,3.3111973
				c1.0260429,1.0299492,0.9869804,2.6210957-0.0911446,3.7005215l-1.7552109,1.7539063
				c0.4921875,0.9270821,0.8802109,1.8619804,1.1744804,2.8138008l2.4869804,0.0403671
				c1.484375,0,2.6901016,1.2057266,2.6901016,2.6888008v4.5377617c0,1.4830704-1.2057266,2.6888008-2.6901016,2.6888008h-2.4791679
				c-0.3020821,0.9921875-0.6901054,1.9270821-1.1614571,2.8203125l1.734375,1.7851563
				c0.5104141,0.5117188,0.7890625,1.1875,0.7864571,1.9075508c0,0.71875-0.28125,1.3932304-0.7916679,1.8997421
				l-3.203125,3.2057266C33.5234375,60.3886719,31.75,60.3873711,30.739584,59.3691406l-1.7526054-1.7513008
				c-0.921875,0.4869766-1.8567696,0.8736954-2.8125,1.1731758l-0.041666,2.4882813
				C26.1328125,62.7623711,24.927084,63.9694023,23.442709,63.9694023z M13.3515625,54.9589844
				c0.4348955,0,0.875,0.1041679,1.286458,0.3190117c0.7421875,0.390625,1.526042,0.7161446,2.333333,0.96875
				c1.1432304,0.3554688,1.911459,1.3815079,1.911459,2.5533829v2.4791679l4.5598965,0.0234375l0.0234375-2.5026054
				c0-1.171875,0.7682285-2.1979141,1.9140625-2.5546875c0.8020821-0.2513008,1.588541-0.5768204,2.3333321-0.9674454
				c1.0572929-0.5546875,2.328125-0.3736992,3.1588554,0.4544258L32.625,57.4850273l3.2395821-3.2083359l-1.7526016-1.7838516
				c-0.828125-0.8294296-1.0104179-2.0989609-0.453125-3.1601563c0.3932266-0.75,0.71875-1.5351563,0.9661446-2.3320313
				c0.359375-1.1471367,1.3854179-1.9153671,2.5546875-1.9153671l2.5026054-0.0221329v-4.5377617l-2.5026054-0.0221367
				c-1.1692696,0-2.1953125-0.7682266-2.5546875-1.9127579c-0.2473946-0.7994804-0.5729179-1.5846367-0.9661446-2.3346367
				c-0.5572929-1.0611992-0.375-2.3307304,0.453125-3.1588554l1.7552071-1.7539043L32.65625,28.1022129l-1.7838535,1.7539063
				c-0.828125,0.8294277-2.0963554,1.0117188-3.161459,0.453125c-0.7473965-0.3919258-1.5338535-0.7174473-2.3307285-0.9661446
				c-1.145834-0.3567715-1.9140625-1.3828125-1.9140625-2.5546875v-2.4791679L18.90625,24.2858067l-0.0234375,2.5026054
				c0,1.171875-0.7682285,2.197916-1.9140625,2.5546875c-0.7994785,0.2486973-1.583333,0.5742188-2.3307295,0.9661446
				c-1.0598955,0.5611992-2.3359375,0.3776054-3.161458-0.453125L9.723958,28.1035156l-3.239583,3.2070313l1.7526045,1.7864571
				c0.828125,0.828125,1.010416,2.0976563,0.453125,3.1588554c-0.3880215,0.7395821-0.713542,1.5247383-0.966146,2.3346367
				c-0.359375,1.1445313-1.385417,1.9127579-2.5546875,1.9127579H2.6901042l-0.0234375,4.5598984l2.5026042,0.0221329
				c1.1692705,0,2.1953125,0.7682304,2.5546875,1.9127617c0.252604,0.8098946,0.5781245,1.5950508,0.966146,2.3346367
				c0.557291,1.0611954,0.375,2.3307266-0.453125,3.1588516L6.484375,54.2441406l3.208333,3.2408867l1.7838545-1.7526054
				C11.984375,55.2233086,12.661458,54.9589844,13.3515625,54.9589844z"/>
		</g>
		<g opacity="0.3">
			<path fill="#545157" d="M39.6595573,39.1692314h-2.4789085c-0.6000862,0-1.1026955-0.404789-1.2816048-0.9775047
				c-0.2777443-0.8893204-0.633709-1.7433319-1.0601234-2.5552711c-0.2794304-0.5320053-0.208477-1.1719627,0.2164192-1.5968552
				l1.7532959-1.7532959c0.5296364-0.5296402,0.6181564-1.2871628,0.0885201-1.8168011l-3.2967606-3.309454
				c-0.5296364-0.5296383-1.3883781-0.5296383-1.9181843,0.0001678l-1.7529583,1.7531281
				c-0.4248924,0.4248924-1.0650196,0.4958496-1.597023,0.2165852c-0.8119431-0.4264126-1.6659527-0.7823772-2.5551033-1.0601215
				c-0.5728874-0.1789112-0.9776764-0.6816864-0.9776764-1.2816048v-2.4790783c0-0.7489262-0.6071835-1.3562794-1.3562775-1.3562794
				H18.906023c-0.7490959,0-1.3562794,0.6073532-1.3562794,1.3562794v2.4790783
				c0,0.5999184-0.4049568,1.1026936-0.9776764,1.2816048c-0.8891487,0.2777443-1.7431583,0.633709-2.5551014,1.0601215
				c-0.5320034,0.2792645-1.1721306,0.2083073-1.597024-0.2165852l-1.7531271-1.7531281
				c-0.5296383-0.5298061-1.3883781-0.5298061-1.9180164-0.0001678l-3.2082376,3.2082367
				c-0.5296383,0.5296383-0.5296383,1.3883781,0,1.9180183l1.7532959,1.7532959
				c0.4248934,0.4248924,0.4958496,1.0648499,0.2164168,1.5968552c-0.4264135,0.8119392-0.7823777,1.6659508-1.0601206,2.5552711
				c-0.1789112,0.5727158-0.6815186,0.9775047-1.2816062,0.9775047H2.6896381c-0.7490959,0-1.356279,0.6073532-1.356279,1.3564491
				v4.5368118c0,0.7490959,0.6071831,1.3564453,1.356279,1.3564453h2.4789085c0.6000876,0,1.102695,0.404789,1.2816062,0.9775085
				c0.2777429,0.8893204,0.633707,1.7434959,1.0599518,2.555439c0.2794328,0.5320053,0.2084761,1.1719627-0.2164168,1.5968552
				l-1.7531271,1.7531281c-0.5296383,0.5296364-0.5296383,1.3883781,0,1.9180145l3.2082376,3.2082405
				c0.5296383,0.5296364,1.3883781,0.5296364,1.9180164,0l1.7531271-1.7531281
				c0.4248934-0.4248924,1.0650206-0.4960175,1.597024-0.2165871c0.8119431,0.4264145,1.6659527,0.7823792,2.5551014,1.0601234
				c0.5727196,0.1789093,0.9776764,0.6815186,0.9776764,1.2816048v2.4790764c0,0.7489281,0.6071835,1.3562813,1.3562794,1.3562813
				h4.5371494c0.749094,0,1.3562775-0.6073532,1.3562775-1.3562813v-2.4790764c0-0.6000862,0.404789-1.1026955,0.9776764-1.2816048
				c0.8891506-0.2777443,1.7431602-0.633709,2.5551033-1.0601234c0.5320034-0.2794304,1.1721306-0.2083054,1.597023,0.2165871
				l1.7529583,1.7531281c0.5298061,0.5296364,1.3885479,0.5296364,1.9181843,0l3.2082405-3.2082405
				c0.5296364-0.5296364,0.5296364-1.3883781,0-1.9180145l-1.7531281-1.7531281
				c-0.4248924-0.4248924-0.4958496-1.0648499-0.2165871-1.5968552c0.4264145-0.8119431,0.7822113-1.6661186,1.0601234-2.555439
				c0.1787415-0.5727196,0.6815186-0.9775085,1.2816048-0.9775085h2.4789085c0.7490959,0,1.3562775-0.6073494,1.3562775-1.3564453
				v-4.5368118C41.0158348,39.7765846,40.4086533,39.1692314,39.6595573,39.1692314z M21.1761189,51.1160774
				c-4.5967865,0-8.3233433-3.7265587-8.3233433-8.323513s3.7265568-8.3235092,8.3233433-8.3235092
				c4.5969543,0,8.3235111,3.7265549,8.3235111,8.3235092S25.7730732,51.1160774,21.1761189,51.1160774z"/>
		</g>
	</g>
</g>
<g id="preferences">
</g>
<g id="notifications">
</g>
<g id="my_x5F_posts">
</g>
<g id="logout">
</g>
<g id="assignment">
</g>
<g id="coursework">
</g>
<g id="forum">
</g>
<g id="quiz">
</g>
<g id="book">
</g>
<g id="database">
</g>
<g id="wiki">
</g>
<g id="choice">
</g>
<g id="workshop">
</g>
<g id="certificate">
</g>
<g id="scheduler">
</g>
<g id="equella">
</g>
<g id="file">
</g>
<g id="folder">
</g>
<g id="ims_x5F_content_x5F_package">
</g>
<g id="label">
</g>
<g id="lightbox_x5F_gallery">
</g>
<g id="nln_x5F_learning_x5F_object">
</g>
<g id="page">
</g>
<g id="subpage">
</g>
<g id="tab_x5F_display">
</g>
<g id="new_x5F_label">
</g>
<g id="url">
</g>
<g id="_x33_60_x5F_degree_x5F_diagnostics">
</g>
<g id="adobe_x5F_connect">
</g>
<g id="attendance_x5F_register">
</g>
<g id="booking">
</g>
<g id="chat">
</g>
<g id="checklist">
</g>
<g id="external_x5F_tool">
</g>
<g id="face_x5F_to_x5F_face">
</g>
<g id="forumNG">
</g>
<g id="glossary">
</g>
<g id="group_x5F_choice">
</g>
<g id="journal">
</g>
<g id="mediasite_x5F_content">
</g>
<g id="nanogong_x5F_voice">
</g>
<g id="questionnaire">
</g>
<g id="scorm_x5F_package">
</g>
<g id="survey">
</g>
<g id="tutorship">
</g>
<g id="advanced_x5F_forum">
</g>
<g id="subcourse">
</g>
<g id="lesson_1_">
</g>
<g id="adaptive_x5F_quiz">
</g>
<g id="ou_x5F_wiki">
</g>
<g id="support_x5F_tracker">
</g>
<g id="view_x5F_comments">
</g>
<g id="no_x5F_comment">
</g>
<g id="attention">
</g>
<g id="search">
</g>
<g id="submitted">
</g>
<g id="feedback">
</g>
<g id="dnd_x5F_arrow">
</g>
</svg>
