<?xml version="1.0" encoding="utf-8"?>
<!-- Generator: Adobe Illustrator 21.0.0, SVG Export Plug-In . SVG Version: 6.00 Build 0)  -->
<svg version="1.1" xmlns="http://www.w3.org/2000/svg" xmlns:xlink="http://www.w3.org/1999/xlink" x="0px" y="0px" width="64px"
	 height="64px" viewBox="0 0 64 64" enable-background="new 0 0 64 64" xml:space="preserve">
<g id="Layer_1">
</g>
<g id="Layer_2">
</g>
<g id="messages">
</g>
<g id="messages_x5F_hover">
</g>
<g id="profile">
</g>
<g id="profile_x5F_hover">
</g>
<g id="view_x5F_hover">
</g>
<g id="view_x5F_feedback">
</g>
<g id="no_x5F_feedback_x5F_to_x5F_view">
</g>
<g id="download_x5F_hover">
</g>
<g id="download">
</g>
<g id="no_x5F_feedback_x5F_download">
</g>
<g id="link_x5F_hover">
</g>
<g id="assignment_x5F_link_copy">
</g>
<g id="Layer_21">
</g>
<g id="home_x5F_hover">
</g>
<g id="home_1_">
</g>
<g id="edit_x5F_profile">
</g>
<g id="preferences">
</g>
<g id="notifications">
</g>
<g id="my_x5F_posts">
</g>
<g id="logout">
</g>
<g id="assignment">
</g>
<g id="coursework">
</g>
<g id="forum">
</g>
<g id="quiz">
</g>
<g id="book">
	<g>
		<g>
			<g>
				<polygon fill="#0C1E59" points="32.2005424,57.9443283 32.0013237,57.9217033 32.0011597,57.9217033 				"/>
			</g>
			<g>
				<path fill="#FFFFFF" d="M58.6181831,6.9710217c0,0-0.8985977-0.3193359-2.0660782-0.4264326
					c-3.4272461-0.31429-7.2319336-0.4892578-11.237957-0.4892578c-4.8341484,0-9.374836,0.2547202-13.3133125,0.7016602l0,0
					c0,0-4.4505215-0.4034829-4.5572929-0.4108071c-2.748373-0.1886392-5.6930332-0.290853-8.7553711-0.290853
					c-4.0061846,0-7.81071,0.1749678-11.2381191,0.4892578c-1.183919,0.1085615-2.0753579,0.4480796-2.0753579,0.4480796
					c-2.3802083,0.9365234-4.0405273,3.235189-4.0405273,5.9127603l0.0001627,38.3953438
					c0,1.7802734,0.7521158,3.4895821,2.0668945,4.6940117c1.3069661,1.1940079,3.0636394,1.7856445,4.8125,1.6357422
					c7.4816074-0.6469727,16.3095703-0.5548515,23.3308907,0.2392578l0.456707,0.051918
					c0.2122383-0.015625,3.3642578-0.3100586,4.9511719-0.4544258c6.0647774-0.5515938,12.8704414-0.3549805,18.8304024,0.16325
					c0.184082,0.0157852,0.3655586,0.0237617,0.5496407,0.0237617c1.5699883,0,3.1004257-0.5891914,4.2680664-1.6595039
					c1.3147812-1.2016602,2.0668945-2.9137383,2.0668945-4.6940117V12.9054289
					C62.6674995,10.202467,61.0156441,7.8904552,58.6181831,6.9710217z"/>
			</g>
		</g>
		<g>
			<path fill="#32548C" d="M7.9818115,54.9350662c7.588501-0.6627808,16.6484375-0.5716553,23.8671875,0.2460938
				C31.901062,55.1876297,31.9505615,55.1902542,32,55.1902542c0.3255615,0,0.6432495-0.119812,0.8880615-0.338562
				c0.2838135-0.2525635,0.4453125-0.614563,0.4453125-0.994751V26.1668167c0-0.7369995-0.5963745-1.333313-1.333374-1.333313
				c-0.7369385,0-1.333313,0.5963135-1.333313,1.333313v26.208313c-7.1223755-0.6953125-15.6588745-0.7304688-22.9192505-0.0963135
				c-0.348999,0.026001-0.6015625-0.140625-0.7161865-0.2460938c-0.208313-0.1901245-0.322876-0.4505615-0.322876-0.7330933
				V8.8516932c0-0.5130005,0.3723755-0.9348755,0.864563-0.979126c6.1953125-0.567749,13.3619995-0.635437,19.7734375-0.1966553
				c0.1477661,0.0119019,2.0279541,0.1819458,3.3203125,0.2989502v12.3586416c0,0.5142822,0.296875,0.9830322,0.760437,1.2044067
				c0.4609375,0.2174683,1.015625,0.1575317,1.4140625-0.1705933l2.6275635-2.135376l2.6380615,2.1380005
				c0.3984375,0.3203125,0.947876,0.3867188,1.411438,0.166687c0.463562-0.2200928,0.760437-0.6888428,0.760437-1.203125
				l0.0007324-0.1410522c0.059082,0.0029907,0.1171265,0.0087891,0.1789551,0.0043335
				c0.7681885-0.0494995,1.2838135-0.0924683,1.7109375-0.1276245c0.8880005-0.0742188,1.385376-0.114563,3.145813-0.114563
				c1.7578125,0,2.255188,0.0403442,3.140625,0.114563c0.4296875,0.0351563,0.9453125,0.078125,1.713562,0.1276245
				c0.03125,0.0012817,0.0598755,0.0025635,0.0859375,0.0025635c0.697876,0,1.286438-0.5429688,1.3306885-1.2486572
				c0.046875-0.734375-0.510376-1.3685303-1.244751-1.4154053c-0.7474365-0.0481567-1.2474365-0.088501-1.6640625-0.1236572
				c-0.947937-0.0794678-1.479187-0.1237183-3.3619995-0.1237183s-2.416687,0.0442505-3.3671875,0.1237183
				c-0.4140625,0.0351563-0.9140625,0.0755005-1.661438,0.1236572c-0.0023193,0.0001221-0.0040894,0.0015259-0.0064087,0.001709
				L40.28125,9.7319422c0-0.7357178-0.5963135-1.333374-1.333313-1.333374s-1.333313,0.5963745-1.333313,1.333374
				l-0.0026245,7.8059683l-1.307312-1.0598755c-0.489563-0.395874-1.1900635-0.3971558-1.6796875,0.0012817l-1.291626,1.0507813
				V7.9545984c7.1484375-0.7122803,15.8150635-0.7487183,23.0963135-0.0820313
				c0.4921875,0.0442505,0.864624,0.4661255,0.864624,0.979126v42.447937c0,0.2825317-0.114624,0.541687-0.322937,0.7330933
				c-0.1171875,0.104126-0.348938,0.2720947-0.7161255,0.2460938c-6.416687-0.5599365-13.802124-0.6029053-20.333374-0.1237183
				c-0.734375,0.0534058-1.2838135,0.692688-1.2317505,1.427063c0.0546875,0.7369995,0.697937,1.2773438,1.4296875,1.2318115
				C42.5,54.342598,49.7526245,54.3829422,56.020874,54.9350662c0.104126,0.0090942,0.208313,0.0142822,0.3125,0.0142822
				c0.895813,0,1.770813-0.338501,2.4400635-0.9505005c0.755249-0.6914063,1.1875-1.6757813,1.1875-2.6992188V8.8516932
				c0-1.901001-1.4140625-3.463501-3.286438-3.635376c-7.8161011-0.7115479-17.1601563-0.6372681-24.6744385,0.201355
				c-0.6867676-0.0621948-4.3764648-0.3959961-4.4661865-0.4019165C20.96875,4.5639734,13.6640625,4.6368494,7.328125,5.2163172
				c-1.8723755,0.171875-3.286438,1.734375-3.286438,3.635376v42.447937c0,1.0247192,0.432312,2.0090942,1.1875,2.7005005
				C5.9765625,54.6837234,6.984375,55.0313797,7.9818115,54.9350662z"/>
			<path fill="#32548C" d="M62.666687,11.5717859c-0.7369995,0-1.333313,0.5963135-1.333313,1.333313v38.395813
				c0,1.4101563-0.59375,2.7630615-1.6328125,3.7109375c-1.03125,0.9414063-2.442749,1.3984375-3.802124,1.2904053
				c-4.864563-0.4232178-12.125-0.7929688-19.0650635-0.1627808l-2.541687,0.234375
				c-1.0078125,0.0924683-1.9348755,0.1784058-2.270813,0.208313l-0.3255615-0.0377197
				c-7.166626-0.8085938-15.989563-0.8984375-23.5963135-0.2421875c-1.3828125,0.125-2.770874-0.3529053-3.796875-1.2904053
				c-1.0390625-0.9517822-1.635437-2.3046875-1.635437-3.7109375v-38.395813c0-0.7369995-0.5963745-1.333313-1.333313-1.333313
				C0.5963745,11.5717859,0,12.1680994,0,12.9050989v38.395813c0,2.1523438,0.911499,4.2213745,2.5026245,5.6784058
				c1.5755005,1.4401245,3.7005005,2.1549683,5.8255005,1.979187C15.6640625,58.3243484,24.5,58.415535,31.3932495,59.1954422
				l0.6536255,0.072937c0.0026245,0,0.005249,0.0012817,0.0078125,0.0012817
				c0.0494995,0.005249,0.098999,0.0078125,0.1484375,0.0078125c0.151062,0,0.2994995-0.026001,0.4349365-0.0742188
				c0.4609375-0.041626,1.1588135-0.1054688,1.901001-0.1744385l2.5338745-0.2330933
				c6.7578125-0.614563,13.8411255-0.2512817,18.5963745,0.1627808c2.114563,0.1835938,4.25-0.5325928,5.8306885-1.979187
				c1.588562-1.4518433,2.5-3.520813,2.5-5.6784058v-38.395813C64,12.1680994,63.4036865,11.5717859,62.666687,11.5717859z"/>
			<path fill="#32548C" d="M23.713562,17.5352859c-0.7473755-0.046875-1.244812-0.088501-1.661438-0.1236572
				c-0.947937-0.0794678-1.479187-0.1237183-3.364624-0.1237183c-1.8828125,0-2.4140625,0.0442505-3.3619385,0.1237183
				c-0.416687,0.0351563-0.916687,0.0755005-1.6640625,0.1236572c-0.734375,0.046875-1.291687,0.6810303-1.244812,1.4154053
				c0.046875,0.7317505,0.609375,1.2994385,1.416687,1.2460938c0.7681885-0.0494995,1.2838135-0.0924683,1.713501-0.1276245
				c0.885437-0.0742188,1.3828125-0.114563,3.140625-0.114563c1.760437,0,2.2578125,0.0403442,3.145874,0.114563
				c0.427063,0.0351563,0.9400635,0.078125,1.708313,0.1276245c0.0286255,0.0012817,0.0598755,0.0025635,0.088562,0.0025635
				c0.6953125,0,1.2838135-0.5429688,1.328125-1.2486572C25.005249,18.2163162,24.447937,17.5821609,23.713562,17.5352859z"/>
			<path fill="#32548C" d="M23.713562,28.7475662c-0.7473755-0.046875-1.244812-0.088562-1.661438-0.1237183
				c-0.947937-0.0794067-1.479187-0.1237183-3.364624-0.1237183c-1.8828125,0-2.4140625,0.0443115-3.3619385,0.1237183
				c-0.416687,0.0351563-0.916687,0.0755005-1.6640625,0.1237183c-0.734375,0.046875-1.291687,0.6809692-1.244812,1.4153442
				c0.046875,0.7317505,0.609375,1.28125,1.416687,1.2460938c0.7681885-0.0494995,1.2838135-0.0924683,1.713501-0.1276245
				c0.885437-0.0742188,1.3828125-0.114563,3.140625-0.114563c1.760437,0,2.2578125,0.0403442,3.145874,0.114563
				c0.427063,0.0351563,0.9400635,0.078125,1.708313,0.1276245c0.0286255,0.0012817,0.0598755,0.0026245,0.088562,0.0026245
				c0.6953125,0,1.2838135-0.5429688,1.328125-1.2487183C25.005249,29.4285355,24.447937,28.7944412,23.713562,28.7475662z"/>
			<path fill="#32548C" d="M22.052124,39.83741c-0.947937-0.0794678-1.479187-0.1237183-3.364624-0.1237183
				c-1.8828125,0-2.4140625,0.0442505-3.3619385,0.1237183c-0.416687,0.0351563-0.916687,0.0755005-1.6640625,0.1236572
				c-0.734375,0.046875-1.291687,0.6810303-1.244812,1.4154053c0.046875,0.7317505,0.609375,1.2981567,1.416687,1.2460938
				c0.7681885-0.0494995,1.2838135-0.0924683,1.713501-0.1276245c0.885437-0.0742188,1.3828125-0.114563,3.140625-0.114563
				c1.760437,0,2.2578125,0.0403442,3.145874,0.114563c0.427063,0.0351563,0.9400635,0.078125,1.708313,0.1276245
				c0.0286255,0.0012817,0.0598755,0.0025635,0.088562,0.0025635c0.6953125,0,1.2838135-0.5429688,1.328125-1.2486572
				c0.046875-0.734375-0.510437-1.3685303-1.244812-1.4154053C22.9661865,39.9141922,22.46875,39.8725662,22.052124,39.83741z"/>
			<path fill="#32548C" d="M40.458374,42.6225662c0.7681885-0.0494995,1.2838135-0.0924683,1.7109375-0.1276245
				c0.8880005-0.0742188,1.385376-0.114563,3.145813-0.114563c1.7578125,0,2.255188,0.0403442,3.140625,0.114563
				c0.4296875,0.0351563,0.9453125,0.078125,1.713562,0.1276245c0.03125,0.0012817,0.0598755,0.0025635,0.0859375,0.0025635
				c0.697876,0,1.286438-0.5429688,1.3306885-1.2486572c0.046875-0.734375-0.510376-1.3685303-1.244751-1.4154053
				C49.59375,39.9129105,49.09375,39.8725662,48.677124,39.83741c-0.947937-0.0794678-1.479187-0.1237183-3.3619995-0.1237183
				s-2.416687,0.0442505-3.3671875,0.1237183c-0.4140625,0.0351563-0.9140625,0.0755005-1.661438,0.1236572
				c-0.734375,0.046875-1.291687,0.6810303-1.244812,1.4154053C39.088562,42.1121292,39.6693115,42.64991,40.458374,42.6225662z"/>
			<path fill="#32548C" d="M40.458374,31.4090042c0.7681885-0.0494995,1.2838135-0.0924683,1.7109375-0.1276245
				c0.8880005-0.0742188,1.385376-0.114563,3.145813-0.114563c1.7578125,0,2.255188,0.0403442,3.140625,0.114563
				c0.4296875,0.0351563,0.9453125,0.078125,1.713562,0.1276245c0.03125,0.0012817,0.0598755,0.0026245,0.0859375,0.0026245
				c0.697876,0,1.286438-0.5429688,1.3306885-1.2487183c0.046875-0.734375-0.510376-1.3684692-1.244751-1.4153442
				c-0.7474365-0.0482178-1.2474365-0.088562-1.6640625-0.1237183c-0.947937-0.0794067-1.479187-0.1237183-3.3619995-0.1237183
				s-2.416687,0.0443115-3.3671875,0.1237183c-0.4140625,0.0351563-0.9140625,0.0755005-1.661438,0.1237183
				c-0.734375,0.046875-1.291687,0.6809692-1.244812,1.4153442C39.088562,30.8985672,39.6693115,31.4688797,40.458374,31.4090042z"
				/>
		</g>
		<g opacity="0.3">
			<polygon fill="#32548C" points="32.2005615,57.9442825 32.0013428,57.9216995 32.0012207,57.9216995 			"/>
			<path fill="#32548C" d="M58.6182251,6.9710779l0.008728,44.5280762c0.0003052,1.1428223-0.9492798,2.0488281-2.0899048,1.9788818
				c-5.3323975-0.3270874-19.3825073-1.0199585-24.5362549,0.3790894
				c-6.7749023-1.2896729-19.4995728-0.6890869-24.5159912-0.3822021c-1.1447754,0.0700073-2.1100464-0.8423462-2.1100464-1.9892578
				l-0.000061-44.492981c-2.380188,0.9365234-4.0404663,3.2351074-4.0404663,5.9127808l0.000061,38.3953247
				c0,1.7803345,0.7521362,3.489624,2.0669556,4.6940918c1.3070068,1.1938477,3.0636597,1.7855835,4.812439,1.6356812
				c7.4815674-0.6469116,16.3096313-0.5548706,23.3309937,0.2393188l0.456665,0.0518188
				c0.2124634-0.015686,3.3643188-0.3099976,4.9512329-0.4543457c6.0646362-0.5516357,12.8703613-0.3550415,18.8303223,0.163208
				c0.184082,0.0157471,0.3655396,0.0236816,0.5496216,0.0236816c1.5699463,0,3.1004639-0.5891113,4.2680664-1.6593628
				c1.3148804-1.2018433,2.0669556-2.9137573,2.0669556-4.6940918V12.9054651
				C62.6675415,10.2024622,61.015564,7.8904505,58.6182251,6.9710779z"/>
			<polygon fill="#32548C" points="38.9475708,20.0919876 38.9475708,6.7500696 32.0618896,6.7500696 32.0618896,20.0919876 
				35.5047607,17.5142288 			"/>
		</g>
	</g>
</g>
<g id="database">
</g>
<g id="wiki">
</g>
<g id="choice">
</g>
<g id="workshop">
</g>
<g id="certificate">
</g>
<g id="scheduler">
</g>
<g id="equella">
</g>
<g id="file">
</g>
<g id="folder">
</g>
<g id="ims_x5F_content_x5F_package">
</g>
<g id="label">
</g>
<g id="lightbox_x5F_gallery">
</g>
<g id="nln_x5F_learning_x5F_object">
</g>
<g id="page">
</g>
<g id="subpage">
</g>
<g id="tab_x5F_display">
</g>
<g id="new_x5F_label">
</g>
<g id="url">
</g>
<g id="_x33_60_x5F_degree_x5F_diagnostics">
</g>
<g id="adobe_x5F_connect">
</g>
<g id="attendance_x5F_register">
</g>
<g id="booking">
</g>
<g id="chat">
</g>
<g id="checklist">
</g>
<g id="external_x5F_tool">
</g>
<g id="face_x5F_to_x5F_face">
</g>
<g id="forumNG">
</g>
<g id="glossary">
</g>
<g id="group_x5F_choice">
</g>
<g id="journal">
</g>
<g id="mediasite_x5F_content">
</g>
<g id="nanogong_x5F_voice">
</g>
<g id="questionnaire">
</g>
<g id="scorm_x5F_package">
</g>
<g id="survey">
</g>
<g id="tutorship">
</g>
<g id="advanced_x5F_forum">
</g>
<g id="subcourse">
</g>
<g id="lesson_1_">
</g>
<g id="adaptive_x5F_quiz">
</g>
<g id="ou_x5F_wiki">
</g>
<g id="support_x5F_tracker">
</g>
<g id="view_x5F_comments">
</g>
<g id="no_x5F_comment">
</g>
<g id="attention">
</g>
<g id="search">
</g>
<g id="submitted">
</g>
<g id="feedback">
</g>
<g id="dnd_x5F_arrow">
</g>
</svg>
