<?xml version="1.0" encoding="utf-8"?>
<!-- Generator: Adobe Illustrator 21.0.0, SVG Export Plug-In . SVG Version: 6.00 Build 0)  -->
<svg version="1.1" xmlns="http://www.w3.org/2000/svg" xmlns:xlink="http://www.w3.org/1999/xlink" x="0px" y="0px" width="64px"
	 height="64px" viewBox="0 0 64 64" enable-background="new 0 0 64 64" xml:space="preserve">
<g id="Layer_1">
</g>
<g id="Layer_2">
</g>
<g id="messages">
</g>
<g id="messages_x5F_hover">
</g>
<g id="profile">
</g>
<g id="profile_x5F_hover">
</g>
<g id="view_x5F_hover">
</g>
<g id="view_x5F_feedback">
</g>
<g id="no_x5F_feedback_x5F_to_x5F_view">
</g>
<g id="download_x5F_hover">
</g>
<g id="download">
</g>
<g id="no_x5F_feedback_x5F_download">
</g>
<g id="link_x5F_hover">
</g>
<g id="assignment_x5F_link_copy">
</g>
<g id="Layer_21">
</g>
<g id="home_x5F_hover">
</g>
<g id="home_1_">
</g>
<g id="edit_x5F_profile">
</g>
<g id="preferences">
</g>
<g id="notifications">
</g>
<g id="my_x5F_posts">
</g>
<g id="logout">
</g>
<g id="assignment">
</g>
<g id="coursework">
</g>
<g id="forum">
</g>
<g id="quiz">
</g>
<g id="book">
</g>
<g id="database">
</g>
<g id="wiki">
</g>
<g id="choice">
</g>
<g id="workshop">
</g>
<g id="certificate">
</g>
<g id="scheduler">
</g>
<g id="equella">
</g>
<g id="file">
</g>
<g id="folder">
</g>
<g id="ims_x5F_content_x5F_package">
</g>
<g id="label">
</g>
<g id="lightbox_x5F_gallery">
</g>
<g id="nln_x5F_learning_x5F_object">
</g>
<g id="page">
</g>
<g id="subpage">
</g>
<g id="tab_x5F_display">
</g>
<g id="new_x5F_label">
</g>
<g id="url">
</g>
<g id="_x33_60_x5F_degree_x5F_diagnostics">
</g>
<g id="adobe_x5F_connect">
</g>
<g id="attendance_x5F_register">
</g>
<g id="booking">
</g>
<g id="chat">
</g>
<g id="checklist">
</g>
<g id="external_x5F_tool">
</g>
<g id="face_x5F_to_x5F_face">
</g>
<g id="forumNG">
</g>
<g id="glossary">
</g>
<g id="group_x5F_choice">
</g>
<g id="journal">
</g>
<g id="mediasite_x5F_content">
</g>
<g id="nanogong_x5F_voice">
</g>
<g id="questionnaire">
</g>
<g id="scorm_x5F_package">
</g>
<g id="survey">
</g>
<g id="tutorship">
</g>
<g id="advanced_x5F_forum">
</g>
<g id="subcourse">
</g>
<g id="lesson_1_">
</g>
<g id="adaptive_x5F_quiz">
</g>
<g id="ou_x5F_wiki">
</g>
<g id="support_x5F_tracker">
</g>
<g id="view_x5F_comments">
</g>
<g id="no_x5F_comment">
</g>
<g id="attention">
</g>
<g id="search">
</g>
<g id="submitted">
</g>
<g id="feedback">
</g>
<g id="dnd_x5F_arrow">
	<g>
		<g>
			<path fill="#FFFFFF" d="M46.6821289,5.4448581h13.0217857c1.6448212,0,2.9782143,1.3333917,2.9782143,2.9782138v51.2657928
				c0,1.644825-1.3333931,2.9782143-2.9782143,2.9782143H4.2956362c-1.6448219,0-2.9782135-1.3333893-2.9782135-2.9782143V8.4230719
				c0-1.6448221,1.3333917-2.9782138,2.9782135-2.9782138h36.8633385H46.6821289z"/>
		</g>
		<g opacity="0.3">
			<rect x="1.3173828" y="23.0004883" fill="#32548C" width="36.8186836" height="13.0620117"/>
			<rect x="38.1360664" y="36.0625" fill="#32548C" width="12.2731123" height="13.0620117"/>
			<rect x="13.5904951" y="49.6049805" fill="#32548C" width="12.2727861" height="13.0621748"/>
		</g>
		<path fill="#32548C" d="M59.703125,4.111979h-11.875V1.3333334C47.828125,0.5963542,47.2317696,0,46.4947929,0
			c-0.7369804,0-1.3333359,0.5963542-1.3333359,1.3333334v6.1813149c-2.399086,0.6004229-4.1875,2.7574873-4.1875,5.3408203
			c0,3.0442705,2.4765625,5.520834,5.5208359,5.520834c3.0442696,0,5.5208321-2.4765635,5.5208321-5.520834
			c0-0.6445313-0.1119804-1.2799482-0.3333321-1.8880205c-0.25-0.6940107-1.0130234-1.041667-1.7083359-0.7994795
			c-0.6901016,0.2513018-1.0494766,1.015625-0.796875,1.708333c0.1145859,0.3164063,0.171875,0.645834,0.171875,0.979167
			c0,1.5742188-1.28125,2.854167-2.8541641,2.854167c-1.5729179,0-2.8541679-1.2799482-2.8541679-2.854167
			c0-1.0836592,0.6295586-1.9959307,1.5208321-2.4796553v1.1775723c0,0.7369785,0.5963554,1.333333,1.3333359,1.333333
			c0.7369766,0,1.3333321-0.5963545,1.3333321-1.333333V6.778646h11.875c0.90625,0,1.6458321,0.7382813,1.6458321,1.6445308
			V21.666666H4.5208335C3.7838542,21.666666,3.1875,22.2630215,3.1875,23s0.5963542,1.333334,1.3333335,1.333334H24.53125v10.395834
			h-9.6067705v-7.0078144c0-0.7369785-0.5963545-1.3333321-1.333334-1.3333321c-0.7369785,0-1.333333,0.5963535-1.333333,1.3333321
			v7.0078144h-3.005208c-0.7369795,0-1.3333335,0.5963516-1.3333335,1.3333321s0.596354,1.3333321,1.3333335,1.3333321h3.005208
			v10.3958359h-7.736979c-0.7369792,0-1.3333335,0.5963516-1.3333335,1.3333321s0.5963542,1.3333321,1.3333335,1.3333321h7.736979
			v10.875H4.296875c-0.90625,0-1.6458333-0.7382813-1.6458333-1.6445313V8.4231768
			c0-0.9062495,0.7395833-1.6445308,1.6458333-1.6445308H16.1875v0.7360024C13.7884111,8.1150713,12,10.2721357,12,12.8554688
			c0,3.0442705,2.4765625,5.520834,5.520834,5.520834s5.5208321-2.4765635,5.5208321-5.520834
			c0-0.6536455-0.1119785-1.291667-0.3359375-1.8945313c-0.2552071-0.6914063-1.0234375-1.0442705-1.7109375-0.7903643
			c-0.6901035,0.255208-1.0442696,1.020833-0.7890625,1.7122393C20.317709,12.1901045,20.375,12.5169268,20.375,12.8554688
			c0,1.5742188-1.28125,2.854167-2.854166,2.854167s-2.854167-1.2799482-2.854167-2.854167
			c0-1.0836592,0.6295567-1.9959307,1.520833-2.4796553v1.1775723c0,0.7369785,0.5963535,1.333333,1.333334,1.333333
			c0.7369785,0,1.3333321-0.5963545,1.3333321-1.333333V6.778646h22.3046894c0.7369766,0,1.3333321-0.5963545,1.3333321-1.3333335
			S41.8958321,4.111979,41.1588554,4.111979H18.854166V1.3333334C18.854166,0.5963542,18.2578125,0,17.520834,0
			C16.7838535,0,16.1875,0.5963542,16.1875,1.3333334V4.111979H4.296875c-2.377604,0-4.3125,1.9335938-4.3125,4.3111978v51.265625
			C-0.015625,62.0664063,1.9192709,64,4.296875,64h55.40625c2.3776054,0,4.3125-1.9335938,4.3125-4.3111992V8.4231768
			C64.015625,6.0455728,62.0807304,4.111979,59.703125,4.111979z M27.197916,24.333334h9.604166v5.9895821
			c0,0.7369804,0.5963554,1.333334,1.3333359,1.333334c0.7369766,0,1.3333321-0.5963535,1.3333321-1.333334V24.333334h9.6067696
			v10.395834H27.197916V24.333334z M36.8020821,37.3958321v10.3958359h-9.604166V37.3958321H36.8020821z M14.9244795,37.3958321
			H24.53125v10.3958359h-9.6067705V37.3958321z M14.9244795,50.4583321h21.8776016v10.875h-9.604166V54.40625
			c0-0.7369804-0.5963535-1.3333321-1.3333321-1.3333321c-0.7369804,0-1.333334,0.5963516-1.333334,1.3333321v6.9270821h-9.6067705
			V50.4583321z M59.703125,61.3333321H39.46875v-10.875h3.3359375c0.7369804,0,1.3333321-0.5963516,1.3333321-1.3333321
			s-0.5963516-1.3333321-1.3333321-1.3333321H39.46875V37.3958321h9.6067696v10.3958359h-0.3828125
			c-0.7369766,0-1.3333321,0.5963516-1.3333321,1.3333321s0.5963554,1.3333321,1.3333321,1.3333321h0.3828125v7.1536484
			c0,0.7369766,0.5963554,1.3333321,1.3333359,1.3333321c0.7369766,0,1.3333321-0.5963554,1.3333321-1.3333321v-7.1536484h7.7838554
			c0.7369766,0,1.3333321-0.5963516,1.3333321-1.3333321s-0.5963554-1.3333321-1.3333321-1.3333321h-7.7838554V37.3958321h3.0208321
			c0.7369804,0,1.3333359-0.5963516,1.3333359-1.3333321S55.5,34.7291679,54.7630196,34.7291679h-3.0208321V24.333334h9.6067696
			v35.3554688C61.3489571,60.5950508,60.609375,61.3333321,59.703125,61.3333321z"/>
	</g>
</g>
</svg>
