<?xml version="1.0" encoding="utf-8"?>
<!-- Generator: Adobe Illustrator 21.0.0, SVG Export Plug-In . SVG Version: 6.00 Build 0)  -->
<svg version="1.1" xmlns="http://www.w3.org/2000/svg" xmlns:xlink="http://www.w3.org/1999/xlink" x="0px" y="0px" width="64px"
	 height="64px" viewBox="0 0 64 64" enable-background="new 0 0 64 64" xml:space="preserve">
<g id="Layer_1">
</g>
<g id="Layer_2">
</g>
<g id="messages">
</g>
<g id="messages_x5F_hover">
</g>
<g id="profile">
</g>
<g id="profile_x5F_hover">
</g>
<g id="view_x5F_hover">
</g>
<g id="view_x5F_feedback">
</g>
<g id="no_x5F_feedback_x5F_to_x5F_view">
</g>
<g id="download_x5F_hover">
</g>
<g id="download">
</g>
<g id="no_x5F_feedback_x5F_download">
</g>
<g id="link_x5F_hover">
</g>
<g id="assignment_x5F_link_copy">
</g>
<g id="Layer_21">
</g>
<g id="home_x5F_hover">
</g>
<g id="home_1_">
</g>
<g id="edit_x5F_profile">
</g>
<g id="preferences">
</g>
<g id="notifications">
</g>
<g id="my_x5F_posts">
</g>
<g id="logout">
	<g>
		<g>
			<g>
				<path fill="#FFFFFF" d="M61.6533813,38.9671555l-9.4961739-9.4961739
					c-0.8788261-0.8786659-2.3813782-0.2563763-2.3813782,0.9864483v3.0894451c0,0.7702484-0.6243629,1.3947716-1.3947716,1.3947716
					h-6.6304207c-1.6945152-10.1332912-10.3456631-14.9375019-19.1875-14.9375019
					c-6.029974,0-11.4496164,2.5942287-15.2165165,6.7232151V4.6529016c0-1.4875636-1.2056761-2.6930802-2.6932402-2.6930802
					S1.9604592,3.165338,1.9604592,4.6529016v35.9542427c0,1.4874039,1.2053571,2.6932411,2.6929207,2.6932411
					s2.6932402-1.2058372,2.6932402-2.6932411v-2.8442307c1.3357778-7.193079,7.6364799-12.6417389,15.2165165-12.6417389
					c3.9304848,0,11.9827805,2.3217468,13.8217468,9.8204727h-6.0845013
					c-21.1894131-6.1342487-17.5803566,11.903698-17.5803566,11.903698c-5.4604588,1.7251282-6.0427294,6.55373-4.8555479,9.0342789
					c2.2911348,4.7863541,9.3105869,6.1618309,15.483099,6.1618309c7.0829086,0,13.940052-4.4046555,17.3801041-10.9084816
					c0.7244873-1.3697395,1.2130089-2.7863541,1.5510178-4.1953125h6.1023598c0.7704086,0,1.3947716,0.6245193,1.3947716,1.394928
					v3.0896072c0,1.2426643,1.502552,1.8649521,2.3813782,0.9862862l9.4961739-9.4958534
					C62.7426643,41.8231812,62.7426643,40.0567589,61.6533813,38.9671555z M34.8169632,50.9080048
					c-2.7563782,3.7059937-7.1192589,6.0164223-11.4693871,6.0164223c-3.5200882,0-9.8010197-0.3590584-11.357461-4.1104927
					c-0.3574619-0.8616066-0.3303576-1.6712379-0.1259565-2.3761139c0.4445152-1.5296555,1.7248077-2.5655327,1.7248077-2.5655327
					c5.9818249,1.6485977,9.0047836,1.0393829,10.7971935-0.9346275h12.423151
					C36.3309937,48.3692589,35.684948,49.7404327,34.8169632,50.9080048z"/>
			</g>
		</g>
		<g opacity="0.3">
			<path fill="#545157" d="M24.3861599,46.9377441H48.381031c0.7703781,0,1.3948898,0.6245155,1.3948898,1.3948936v3.0895386
				c0,1.2427063,1.5024757,1.8650627,2.3812141,0.986351l9.8817062-9.8814011
				c0.8765907-0.876564,0.8766022-2.2977791,0.0000267-3.1743584l-9.8817177-9.8817139
				c-0.8787308-0.8787327-2.3812294-0.2563782-2.3812294,0.9863377v3.0894642c0,0.7703781-0.6245117,1.3948936-1.3948898,1.3948936
				H30.0437145L24.3861599,46.9377441z"/>
		</g>
		<g>
			<path fill="#545157" d="M51.174427,54.125c-0.3494911,0-0.6989822-0.0663261-1.035717-0.2066345
				c-1.0127525-0.4183655-1.6683655-1.3979568-1.6683655-2.497448v-3.089283l-17.7152424-0.0867348
				c-0.7219391,0-1.3061218-0.5841866-1.3061218-1.3061256s0.5841827-1.3061218,1.3061218-1.3061218h17.6259556
				c1.4897957,0,2.7015305,1.2117348,2.7015305,2.6989822v3.089283l10.033165-9.8163261
				c0.3647957-0.3647957,0.3647957-0.9642868-0.002552-1.3290825l-9.8801003-9.8801003l-0.1505127,3.1505089
				c0,1.4897957-1.2117348,2.7015305-2.7015305,2.7015305H31.2448978c-0.7219391,0-1.3061218-0.5841827-1.3061218-1.3061218
				s0.5841827-1.3061218,1.3061218-1.3061218h17.1361599l0.0892868-3.1785717c0-1.0969391,0.6556129-2.0765305,1.6683655-2.4948978
				c1.0127563-0.4170914,2.1683693-0.188776,2.9413261,0.5854588l9.8826561,9.8813763
				c1.3826523,1.3852043,1.3826523,3.6377563,0.0025482,5.0229607l-9.8852043,9.8801041
				C52.5621796,53.8494911,51.8759575,54.125,51.174427,54.125z"/>
		</g>
		<g>
			<path fill="#545157" d="M23.3469391,64c-5.1403065,0-14.2168369-0.9438782-17.25-7.2729607
				c-0.9336734-1.9489784-0.9362245-4.4923439-0.0102038-6.6326523c0.609694-1.4107132,1.8775511-3.2678566,4.4948978-4.5127525
				c-0.2040815-2.4489822-0.0892859-6.7806129,2.5816326-10.0408173c3.4158173-4.1709194,9.6352043-4.9770412,18.4617348-2.2602043
				c0.8801003,0.2755089,1.4438782,1.1071434,1.377552,2.0204086c-0.0714302,0.9209175-0.7551041,1.6556129-1.6683693,1.7882652l0,0
				c0.0688782,0-1.5204067,0.6632652-2.5790806,4.7219391c-0.9311218,3.5739784-2.3392849,8.9770393-9.3239803,8.9770393
				c-1.4948978,0-3.2040806-0.2372437-5.2066317-0.7270393c-0.188776,0.2576523-0.3775511,0.5790787-0.4770412,0.9209175
				c-0.1147957,0.3903046-0.0969391,0.7193871,0.0510206,1.0790825c0.7780609,1.872448,4.1658154,2.9030609,9.5484695,2.9030609
				c3.6785717,0,7.4744892-2.0051041,9.9056129-5.2346954c0.4362221-0.5790825,1.2576523-0.6862259,1.8290825-0.2576523
				c0.5765305,0.4336739,0.6913261,1.252552,0.2576523,1.8290825c-2.9132652,3.8698959-7.5102043,6.2755089-11.9923477,6.2755089
				c-6.7908173,0-10.7015305-1.4770393-11.9591837-4.5127563c-0.3775511-0.9056091-0.4285717-1.8520393-0.1505108-2.8086739
				c0.3520412-1.2091827,1.158164-2.1377525,1.6071434-2.5841827c0.3290815-0.3290825,0.8061218-0.4489784,1.2576532-0.3367348
				c2.1275501,0.5663261,3.8698978,0.8418388,5.3290806,0.8418388c4.25,0,5.5306129-2.1658173,6.7984695-7.0229607
				c0.8596935-3.3010216,2.1301022-4.9693871,3.1326542-5.8086739c-6.8418369-1.841835-11.6709194-1.2117348-14.1785717,1.8520432
				c-2.5051022,3.05867-2.0892859,7.68367-1.9030619,9.0280609c0.0841837,0.6071434-0.2627544,1.1913261-0.8392859,1.4056091
				c-2.405612,0.8954086-3.4795914,2.3979607-3.9566326,3.5c-0.6249995,1.4464302-0.6377549,3.2015343-0.030612,4.4693909
				c2.4132652,5.0357132,10.3673468,5.7882652,14.8928576,5.7882652c6.7448978,0,13.341835-4.1479607,16.8035698-10.5637779
				c0.3443909-0.6403046,1.1454086-0.8647957,1.7704086-0.5306129c0.6352043,0.3443909,0.872448,1.1352043,0.5306129,1.7704086
				C38.5357132,59.3137741,31.0382652,64,23.3469391,64z M30.8316326,34.5306129
				c-0.0229588,0.002552-0.0484695,0.0076523-0.0714283,0.0178566
				C30.7857151,34.5408173,30.811224,34.5357132,30.8316326,34.5306129z"/>
		</g>
		<g>
			<path fill="#545157" d="M4.6530614,45.2602043C2.0867348,45.2602043,0,43.1734695,0,40.6071434V4.6530614
				C0,2.0867348,2.0867348,0,4.6530614,0s4.6530614,2.0867348,4.6530614,4.6530614v17.7040825
				c3.841836-2.7971935,8.4540815-4.3125,13.2576532-4.3125c9.0663261,0,19.2474499,5.4183674,21.1658154,15.7767868
				c0.1326523,0.7091827-0.3367348,1.3903046-1.0459175,1.5204048c-0.6964302,0.1352043-1.3903084-0.3367348-1.5204086-1.0459175
				C39.502552,25.3418369,30.5484695,20.6568871,22.563776,20.6568871c-5.0918369,0-9.9464293,1.9272957-13.6683674,5.4285717
				c-0.3801022,0.3584194-0.9413271,0.4502563-1.4132657,0.2474499c-0.4795918-0.2066326-0.7882652-0.6785717-0.7882652-1.1989803
				V4.6530614c0-1.1250002-0.9158163-2.0408165-2.0408163-2.0408165S2.6122448,3.5280612,2.6122448,4.6530614v35.9540825
				c0,1.125,0.9158163,2.0408173,2.0408165,2.0408173s2.0408163-0.9158173,2.0408163-2.0408173l-0.0102043-2.7193871
				c1.4387755-7.877552,8.1071434-13.4196434,15.8801022-13.4196434c4.0102043,0,12.186224,1.9783154,14.433672,9.4681129
				c0.2091866,0.6913261-0.1836739,1.4183655-0.875,1.625c-0.6836739,0.2091827-1.4209175-0.1811256-1.625-0.875
				c-1.8061218-6.0165825-8.5969372-7.6058693-11.933672-7.6058693c-6.5153065,0-12.1045923,4.6441326-13.2908173,11.0395432
				l0.033164,2.4821396C9.3061228,43.1734695,7.2193875,45.2602043,4.6530614,45.2602043z"/>
		</g>
		<g>
			<path fill="#545157" d="M17.3443871,44.6071434c-0.4311218,0-0.8520393-0.2142868-1.1020393-0.6045914
				c-0.3877563-0.6071434-0.2091846-1.4158173,0.4005089-1.8035736c1.0408173-0.6632652,1.4846935-1.3698959,1.9974499-2.1887741
				c0.7704086-1.2295914,1.6428566-2.622448,4.3367348-3.4158173c0.7040806-0.1989784,1.4209175,0.1913261,1.622448,0.8826523
				c0.2040825,0.6938782-0.1913261,1.4183693-0.8826523,1.6224518c-1.7474499,0.5127525-2.1913261,1.2244873-2.8647957,2.2984695
				c-0.563776,0.9005089-1.2678585,2.0229568-2.8061237,3.0051003
				C17.8290825,44.5408173,17.5867348,44.6071434,17.3443871,44.6071434z"/>
		</g>
	</g>
</g>
<g id="assignment">
</g>
<g id="coursework">
</g>
<g id="forum">
</g>
<g id="quiz">
</g>
<g id="book">
</g>
<g id="database">
</g>
<g id="wiki">
</g>
<g id="choice">
</g>
<g id="workshop">
</g>
<g id="certificate">
</g>
<g id="scheduler">
</g>
<g id="equella">
</g>
<g id="file">
</g>
<g id="folder">
</g>
<g id="ims_x5F_content_x5F_package">
</g>
<g id="label">
</g>
<g id="lightbox_x5F_gallery">
</g>
<g id="nln_x5F_learning_x5F_object">
</g>
<g id="page">
</g>
<g id="subpage">
</g>
<g id="tab_x5F_display">
</g>
<g id="new_x5F_label">
</g>
<g id="url">
</g>
<g id="_x33_60_x5F_degree_x5F_diagnostics">
</g>
<g id="adobe_x5F_connect">
</g>
<g id="attendance_x5F_register">
</g>
<g id="booking">
</g>
<g id="chat">
</g>
<g id="checklist">
</g>
<g id="external_x5F_tool">
</g>
<g id="face_x5F_to_x5F_face">
</g>
<g id="forumNG">
</g>
<g id="glossary">
</g>
<g id="group_x5F_choice">
</g>
<g id="journal">
</g>
<g id="mediasite_x5F_content">
</g>
<g id="nanogong_x5F_voice">
</g>
<g id="questionnaire">
</g>
<g id="scorm_x5F_package">
</g>
<g id="survey">
</g>
<g id="tutorship">
</g>
<g id="advanced_x5F_forum">
</g>
<g id="subcourse">
</g>
<g id="lesson_1_">
</g>
<g id="adaptive_x5F_quiz">
</g>
<g id="ou_x5F_wiki">
</g>
<g id="support_x5F_tracker">
</g>
<g id="view_x5F_comments">
</g>
<g id="no_x5F_comment">
</g>
<g id="attention">
</g>
<g id="search">
</g>
<g id="submitted">
</g>
<g id="feedback">
</g>
<g id="dnd_x5F_arrow">
</g>
</svg>
