<?xml version="1.0" encoding="utf-8"?>
<!-- Generator: Adobe Illustrator 21.0.0, SVG Export Plug-In . SVG Version: 6.00 Build 0)  -->
<svg version="1.1" xmlns="http://www.w3.org/2000/svg" xmlns:xlink="http://www.w3.org/1999/xlink" x="0px" y="0px" width="64px"
	 height="64px" viewBox="0 0 64 64" enable-background="new 0 0 64 64" xml:space="preserve">
<g id="Layer_1">
</g>
<g id="Layer_2">
</g>
<g id="messages">
</g>
<g id="messages_x5F_hover">
</g>
<g id="profile">
</g>
<g id="profile_x5F_hover">
</g>
<g id="view_x5F_hover">
</g>
<g id="view_x5F_feedback">
</g>
<g id="no_x5F_feedback_x5F_to_x5F_view">
</g>
<g id="download_x5F_hover">
</g>
<g id="download">
</g>
<g id="no_x5F_feedback_x5F_download">
</g>
<g id="link_x5F_hover">
</g>
<g id="assignment_x5F_link_copy">
</g>
<g id="Layer_21">
</g>
<g id="home_x5F_hover">
</g>
<g id="home_1_">
</g>
<g id="edit_x5F_profile">
</g>
<g id="preferences">
</g>
<g id="notifications">
</g>
<g id="my_x5F_posts">
</g>
<g id="logout">
</g>
<g id="assignment">
</g>
<g id="coursework">
</g>
<g id="forum">
</g>
<g id="quiz">
</g>
<g id="book">
</g>
<g id="database">
</g>
<g id="wiki">
</g>
<g id="choice">
</g>
<g id="workshop">
</g>
<g id="certificate">
</g>
<g id="scheduler">
</g>
<g id="equella">
	<g>
		<g>
			<g>
				<path fill="#FFFFFF" d="M49.4427757,20.5528965H33.7070961c-1.5703125,0-2.9065742,1.1438808-3.1494122,2.6953125
					L28.108139,38.9195976c-0.3024082,1.9332657,1.1923828,3.6798477,3.1494141,3.6798477h15.7356758
					c1.5703125,0,2.9065781-1.1437149,3.1490898-2.6953125l2.4498711-15.6713848
					C52.8942719,22.2996426,51.3994789,20.5528965,49.4427757,20.5528965z"/>
			</g>
			<g>
				<path fill="#FFFFFF" d="M55.573307,8.2698565h-5.9791641c-0.5970078,0-1.1048203,0.4347334-1.1969414,1.0242519
					l-0.9306641,5.9550781c-0.1149101,0.7345371,0.453125,1.3982744,1.1966133,1.3982744h5.9791679
					c0.5970039,0,1.1048164-0.4345703,1.1969414-1.024251l0.9306641-5.954916
					C56.8851585,8.9335938,56.3167992,8.2698565,55.573307,8.2698565z"/>
			</g>
			<g>
				<path fill="#FFFFFF" d="M20.4880219,33.0875664h-5.979166c-0.5970049,0-1.1048174,0.4347305-1.1966143,1.02425
					l-0.9309902,5.9550781c-0.1149082,0.734539,0.453125,1.3982735,1.1966152,1.3982735h5.9794912
					c0.5966797,0,1.1044922-0.4345703,1.1966152-1.02425l0.9309902-5.9549141
					C21.7998714,33.7513008,21.2315121,33.0875664,20.4880219,33.0875664z"/>
			</g>
			<g>
				<path fill="#FFFFFF" d="M28.6175804,13.7646484l0.5924473-3.7911787
					c0.0732422-0.4676104-0.2884121-0.8901367-0.7617188-0.8901367h-3.8066406c-0.3798828,0-0.703125,0.2766933-0.7617188,0.6520185
					l-0.5927734,3.7911787c-0.0732422,0.4676104,0.2887363,0.8901367,0.7620449,0.8901367h3.8066406
					C28.2354183,14.416667,28.5589867,14.1399736,28.6175804,13.7646484z"/>
			</g>
			<g>
				<path fill="#FFFFFF" d="M35.364975,50.2670898h-3.8066406c-0.3798828,0-0.703125,0.2765312-0.7617188,0.6518555
					l-0.5924473,3.7911797c-0.0735683,0.4677734,0.2884121,0.8902969,0.7617188,0.8902969h3.8066387
					c0.3795586,0,0.703125-0.2766914,0.7617188-0.6520157l0.5924492-3.7911797
					C36.1999359,50.6894531,35.8382835,50.2670898,35.364975,50.2670898z"/>
			</g>
			<g>
				<path fill="#FFFFFF" d="M19.2328148,46.2659492h-3.8066416c-0.380208,0-0.703125,0.2766953-0.762044,0.6520195
					l-0.5927734,3.7911797c-0.072917,0.4676094,0.2887373,0.8901367,0.762044,0.8901367h3.8066416
					c0.3798828,0,0.7034492-0.2766953,0.762043-0.6520195l0.5924492-3.7911797
					C20.0674496,46.6884766,19.7061214,46.2659492,19.2328148,46.2659492z"/>
			</g>
			<g>
				<path fill="#FFFFFF" d="M33.3063812,16.6474609h2.4524727c0.2447929,0,0.453125-0.1782227,0.4908867-0.420084
					l0.3815117-2.4422207c0.0475235-0.3012695-0.1855469-0.5735674-0.4905624-0.5735674h-2.4521484
					c-0.2447891,0-0.453125,0.1782227-0.4908829,0.420084l-0.3818359,2.4422197
					C32.7686195,16.3751621,33.0016937,16.6474609,33.3063812,16.6474609z"/>
			</g>
			<g>
				<path fill="#FFFFFF" d="M44.4424477,4.769043h2.4521484c0.2447929,0,0.4528008-0.1782227,0.4908867-0.4199219
					l0.3818359-2.4423828c0.046875-0.3012695-0.1861992-0.5734049-0.4908867-0.5734049h-2.4524727
					c-0.2447929,0-0.4528008,0.1782227-0.4908867,0.4200846l-0.3815079,2.4422202
					C43.9043617,4.4969077,44.1374359,4.769043,44.4424477,4.769043z"/>
			</g>
			<g>
				<path fill="#FFFFFF" d="M22.8154964,4.769043h2.4518223c0.2447929,0,0.453125-0.1782227,0.4908867-0.4199219
					l0.3818359-2.4423828c0.0471992-0.3012695-0.185873-0.5734049-0.4905605-0.5734049h-1.4160156h-1.036459
					c-0.244791,0-0.453125,0.1782227-0.4908848,0.4200846l-0.2027988,1.2980144l-0.1787109,1.1442058
					C22.2774105,4.4969077,22.5101585,4.769043,22.8154964,4.769043z"/>
			</g>
			<g>
				<path fill="#FFFFFF" d="M10.6572933,22.6438808l0.3815107-2.4423828
					c0.0472002-0.3012695-0.1855469-0.5734062-0.4908857-0.5734062H8.0957699c-0.2444663,0-0.4527998,0.1782227-0.4905601,0.4200859
					l-0.3821616,2.4422188c-0.046875,0.3012695,0.1861982,0.5734062,0.4908857,0.5734062h2.4524736
					C10.4111996,23.0638027,10.6195326,22.8855801,10.6572933,22.6438808z"/>
			</g>
			<g>
				<path fill="#FFFFFF" d="M11.8395853,59.230793H9.3871107c-0.244791,0-0.4527988,0.1783867-0.4908848,0.4200859
					l-0.3815107,2.4423828c-0.046875,0.3012695,0.1858721,0.5734062,0.4908857,0.5734062h2.4521484
					c0.244791,0,0.4527988-0.1782227,0.4908848-0.4200859l0.3818359-2.4422188
					C12.3773451,59.5030937,12.1442728,59.230793,11.8395853,59.230793z"/>
			</g>
			<g>
				<path fill="#FFFFFF" d="M30.6364594,59.230793h-2.4521484c-0.244791,0-0.4527988,0.1783867-0.4905586,0.4200859
					l-0.3821621,2.4423828c-0.046875,0.3012695,0.1861973,0.5734062,0.4908848,0.5734062h2.4524746
					c0.244791,0,0.4527988-0.1782227,0.4908848-0.4200859l0.3815117-2.4422188
					C31.1745453,59.5030937,30.941473,59.230793,30.6364594,59.230793z"/>
			</g>
			<g>
				<path fill="#FFFFFF" d="M48.3916664,46.5050468H42.41185c-0.5963554,0-1.1041679,0.4345703-1.1966133,1.024086
					l-0.9309921,5.9550781c-0.1145821,0.734539,0.4534531,1.3982773,1.1969414,1.3982773h5.9794922
					c0.5966797,0,1.1044922-0.4345703,1.1966133-1.0240898l0.9309921-5.9550781
					C49.7028656,47.1686211,49.1351585,46.5050468,48.3916664,46.5050468z"/>
			</g>
			<g>
				<path fill="#FFFFFF" d="M22.6436214,20.5380859h-5.9798183c-0.5963535,0-1.104166,0.4347324-1.1966143,1.0242519
					l-0.9306641,5.9550781c-0.1149082,0.7345371,0.453125,1.3982735,1.1966152,1.3982735h5.9794912
					c0.5966797,0,1.1044922-0.4345703,1.1966152-1.02425l0.9309902-5.954916
					C23.9548187,21.2018223,23.3871117,20.5380859,22.6436214,20.5380859z"/>
			</g>
		</g>
		<g opacity="0.3">
			<g>
				<path fill="#32548C" d="M46.9930344,42.5994568H31.2574024c-1.9566975,0-3.4514809-1.7465935-3.1492863-3.6798134
					l2.4497089-15.6714268c0.2425289-1.5515175,1.578928-2.6952438,3.1492863-2.6952438h15.7356339
					c1.9566956,0,3.4514809,1.7465973,3.1492844,3.6798172l-2.449707,15.6714268
					C49.8997917,41.4557343,48.5633926,42.5994568,46.9930344,42.5994568z"/>
			</g>
		</g>
		<g>
			<path fill="#32548C" d="M46.9932289,43.9322929H31.2562523c-1.3229179,0-2.5729179-0.5768242-3.4348965-1.5807304
				c-0.859375-1.0052071-1.234375-2.3307304-1.03125-3.6380196l2.4505215-15.6705742
				c0.3463535-2.2148438,2.2239571-3.822916,4.4661446-3.822916h15.7369804c0.7369766,0,1.3333321,0.5963535,1.3333321,1.3333321
				c0,0.7369804-0.5963554,1.333334-1.3333321,1.333334H33.7067719c-0.9192696,0-1.6901054,0.6588535-1.8307285,1.567709
				L29.4255219,39.125c-0.0833321,0.5364571,0.0703125,1.0807304,0.421875,1.4921875
				c0.3541679,0.4127617,0.8671875,0.6484375,1.4088554,0.6484375h15.7369766c0.9192734,0,1.6901054-0.6588554,1.8307304-1.5677071
				l2.4505196-15.6705742c0.1145859-0.729166,0.7942734-1.2200527,1.5234375-1.1119785
				c0.7265625,0.1145821,1.2265625,0.7955723,1.1119804,1.5234375L51.4593773,40.109375
				C51.1130219,42.3242188,49.2354164,43.9322929,46.9932289,43.9322929z"/>
		</g>
		<g>
			<path fill="#32548C" d="M54.6416664,17.9804688h-5.9791641c-0.7447929,0-1.4479179-0.3242188-1.9322929-0.8893223
				c-0.484375-0.5651054-0.6953125-1.3111982-0.5807304-2.0481777l0.9296875-5.9544268
				c0.1979179-1.2486982,1.2552109-2.1523442,2.515625-2.1523442h5.9791679c0.7421875,0,1.4479179,0.3242188,1.9322929,0.8893232
				c0.484375,0.5664058,0.6953125,1.3124995,0.5807266,2.0481772l-0.9296875,5.9557285
				C56.9593773,17.078125,55.8994789,17.9804688,54.6416664,17.9804688z M55.4515648,9.4622393l-5.8567734,0.140625
				l-0.8098946,5.8515625l5.7526054-0.1380205L55.4515648,9.4622393z M54.6416664,15.3138018c-0.0026016,0-0.0052071,0-0.0052071,0
				H54.6416664z"/>
		</g>
		<g>
			<path fill="#32548C" d="M19.5583344,42.7981758h-5.979166c-0.744792,0-1.4505205-0.3242188-1.9348955-0.8893204
				c-0.484375-0.5651054-0.6953125-1.3111992-0.5807295-2.0481796l0.9296875-5.9544258
				c0.197917-1.2486992,1.255208-2.1523438,2.515625-2.1523438h5.979166c0.7447929,0,1.4505215,0.3242188,1.9348965,0.890625
				c0.484375,0.5651054,0.6953125,1.3111992,0.5807285,2.046875l-0.932291,5.9557304
				C21.8786469,41.8932304,20.8213558,42.7981758,19.5583344,42.7981758z M20.3682308,34.2799492l-5.859375,0.140625
				l-0.8098955,5.8515625l5.7526045-0.1380234L20.3682308,34.2799492z M19.5583344,40.1315117c-0.0026035,0-0.0052071,0-0.0052071,0
				H19.5583344z"/>
		</g>
		<g>
			<path fill="#32548C" d="M20.2536469,30.2486973h-4.520833c-0.744791,0-1.4505205-0.3255196-1.9348955-0.8932285
				c-0.484375-0.5664063-0.6953125-1.3125-0.578125-2.0481777l0.9296875-5.9505196
				c0.192708-1.2460938,1.25-2.1523438,2.515625-2.1523438h5.979166c0.7421875,0,1.4479179,0.3242188,1.9322929,0.8893223
				c0.484375,0.5664063,0.6953125,1.3125,0.5807285,2.0481777l-0.7213535,4.6145821
				c-0.1171875,0.7304688-0.8125,1.208334-1.5234375,1.1119804c-0.7265625-0.114584-1.2265625-0.7955742-1.1119804-1.5234375
				l0.7213554-4.614584l-5.8567715,0.140625l-0.8098955,5.8515625l4.3984365-0.140625
				c0.7369804,0,1.333334,0.5963535,1.333334,1.333334C21.5869808,29.6523438,20.9906273,30.2486973,20.2536469,30.2486973z"/>
		</g>
		<g>
			<path fill="#32548C" d="M46.0010414,56.2161446h-4.5208321c-0.7421875,0-1.4479179-0.3242188-1.9322929-0.8893204
				c-0.484375-0.5664063-0.6953125-1.3125-0.5807266-2.0481796l0.9296875-5.9557266
				c0.1979141-1.2486992,1.2578125-2.1510429,2.515625-2.1510429h5.9791641c0.7447929,0,1.4505234,0.3255196,1.9348984,0.8932304
				c0.484375,0.5664063,0.6953125,1.3138008,0.578125,2.0481758l-0.7213554,4.609375
				c-0.1171875,0.7291679-0.8203125,1.2213554-1.5234375,1.1119804c-0.7265625-0.1145859-1.2265625-0.7955742-1.1119804-1.5234375
				l0.7213554-4.6132813l-5.8567696,0.140625l-0.8098984,5.8515625l4.3984375-0.140625
				c0.7369804,0,1.3333359,0.5963516,1.3333359,1.3333321S46.7380219,56.2161446,46.0010414,56.2161446z"/>
		</g>
		<g>
			<path fill="#32548C" d="M27.8552094,15.75h-3.807291c-0.614584,0-1.1953125-0.2682295-1.5963535-0.7356768
				c-0.4010429-0.4674482-0.5755215-1.0859375-0.4817715-1.6940107l0.5911465-3.7903643
				C22.7250023,8.4973955,23.6000023,7.75,24.6416683,7.75h3.807291c0.614584,0,1.1979179,0.2682295,1.5963554,0.734375
				c0.401041,0.4674482,0.5755196,1.0846357,0.4817696,1.6940107l-0.5911446,3.791666
				C29.7718773,15.0026045,28.8968773,15.75,27.8552094,15.75z M24.7067719,13.083333h2.6692715l0.4140625-2.666666h-2.6692715
				L24.7067719,13.083333z"/>
		</g>
		<g>
			<path fill="#32548C" d="M34.7718773,56.9335938h-3.8072929c-0.6145821,0-1.1953125-0.2682304-1.5963535-0.7356758
				c-0.401041-0.4674492-0.5755215-1.0846367-0.4817715-1.6927109l0.5911465-3.7916641
				c0.166666-1.0338554,1.0390625-1.7799492,2.0807285-1.7799492h3.8072929c0.6145821,0,1.1979141,0.2682304,1.5963516,0.734375
				c0.4010429,0.46875,0.5755234,1.0859375,0.4817734,1.6953125l-0.5911484,3.7903633
				C36.6885414,56.1861992,35.8135414,56.9335938,34.7718773,56.9335938z M31.6234398,54.2669258h2.6692696l0.4140625-2.6666641
				h-2.6692696L31.6234398,54.2669258z"/>
		</g>
		<g>
			<path fill="#32548C" d="M18.6390648,52.9322929h-3.8046885c-0.6171875,0-1.2005205-0.2682304-1.598958-0.7356796
				c-0.401042-0.4674454-0.5755205-1.0846329-0.4817705-1.6927071l0.59375-3.7916679
				c0.1588535-1.0299454,1.03125-1.7799454,2.078125-1.7799454h3.807292c0.6171875,0,1.197916,0.2682266,1.5989571,0.7356758
				c0.4010429,0.46875,0.5755215,1.0859375,0.4817715,1.6940117l-0.59375,3.7903633
				C20.5557308,52.1848946,19.6807308,52.9322929,18.6390648,52.9322929z M15.4906263,50.265625h2.6692705l0.4166679-2.6666679
				h-2.6692715L15.4906263,50.265625z M15.9828138,47.1197929v0.0039063
				C15.9828138,47.1223946,15.9828138,47.1210938,15.9828138,47.1197929z"/>
		</g>
		<g>
			<path fill="#32548C" d="M35.7588539,17.9804688h-2.453125c-0.5338516,0-1.0416641-0.2330723-1.3880196-0.6393223
				c-0.3489571-0.40625-0.5026035-0.942709-0.4192696-1.4726572l0.3802071-2.4414063
				c0.1458321-0.8997393,0.90625-1.5481768,1.8098946-1.5481768h2.453125c0.5338554,0,1.0416679,0.2330732,1.3880234,0.6393232
				c0.3489571,0.40625,0.5026016,0.942708,0.4192696,1.4726563l-0.3828125,2.4440107
				C37.4307289,17.3268223,36.6703148,17.9804688,35.7588539,17.9804688z M34.9307289,16.0195313
				c0,0.0026035,0,0.005209,0,0.0091152V16.0195313z M34.2848969,15.3138018h0.7578125l0.1197929-0.7682285h-0.7578125
				L34.2848969,15.3138018z"/>
		</g>
		<g>
			<path fill="#32548C" d="M46.8942719,6.1028647h-2.453125c-0.5338554,0-1.0416679-0.2330732-1.3880196-0.638021
				c-0.3489609-0.4075522-0.5026054-0.9440103-0.4192734-1.4739583l0.3828125-2.4440105
				C43.1520844,0.6536458,43.9125023,0,44.8239594,0h2.453125c0.5338554,0,1.0416679,0.2330729,1.3880196,0.6393229
				c0.3489609,0.4062499,0.5026054,0.9427083,0.4192734,1.4726563l-0.3802109,2.441406
				C48.5583344,5.4544272,47.7979164,6.1028647,46.8942719,6.1028647z M45.4203148,3.436198h0.7578125l0.1197891-0.7695313
				h-0.7578125L45.4203148,3.436198z M45.6520844,1.9518229v0.0104167
				C45.6520844,1.9596354,45.6520844,1.9557291,45.6520844,1.9518229z"/>
		</g>
		<g>
			<path fill="#32548C" d="M25.2666683,6.1028647h-2.4505215c-0.5364571,0-1.041666-0.2330732-1.390625-0.640625
				c-0.3489571-0.40625-0.5-0.9427085-0.4192696-1.4713542l0.3828125-2.4427085C21.5244808,0.6536458,22.2848969,0,23.1963558,0
				h2.453125c0.5338535,0,1.041666,0.2330729,1.3880215,0.6393229c0.3489571,0.4062499,0.5026035,0.9427083,0.4192696,1.4726563
				l-0.3802071,2.441406C26.9307308,5.4544272,26.1703148,6.1028647,25.2666683,6.1028647z M23.7927094,3.436198h0.7578125
				l0.1197929-0.7695313h-0.7578125L23.7927094,3.436198z M24.0244808,1.9518229v0.0104167
				C24.0244808,1.9583334,24.0244808,1.9557291,24.0244808,1.9518229z"/>
		</g>
		<g>
			<path fill="#32548C" d="M10.1651058,24.3971348h-2.450521c-0.5364585,0-1.0416665-0.2330723-1.390625-0.640625
				c-0.3489585-0.40625-0.502604-0.9427071-0.419271-1.4713535l0.3828125-2.4440098
				c0.135417-0.8932304,0.8958335-1.546875,1.807292-1.546875h2.453125c0.536458,0,1.041667,0.2330723,1.390625,0.640625
				c0.348958,0.40625,0.5,0.9427071,0.4192705,1.4713535l-0.3828125,2.4440098
				C11.8291683,23.7486973,11.0687513,24.3971348,10.1651058,24.3971348z M8.6911478,21.7304688h0.760416l0.119792-0.7695313
				h-0.760417L8.6911478,21.7304688z M8.9229183,20.2460938v0.010416C8.9229183,20.2539063,8.9229183,20.25,8.9229183,20.2460938z"
				/>
		</g>
		<g>
			<path fill="#32548C" d="M11.4567728,64H9.0062513c-0.536458,0-1.0416665-0.2330742-1.390625-0.640625
				c-0.348958-0.40625-0.502604-0.9427071-0.4192705-1.4713554l0.3828125-2.4440079
				c0.1354165-0.8932304,0.895833-1.546875,1.807292-1.546875h2.453125c0.5390625,0,1.046875,0.2356758,1.395833,0.6458321
				c0.3463545,0.4088554,0.4973955,0.9479179,0.4088545,1.4778633l-0.3776045,2.4309921
				C13.1208353,63.3515625,12.3604183,64,11.4567728,64z M9.9828138,61.3333321h0.7578125l0.119792-0.7695313h-0.7578125
				L9.9828138,61.3333321z M10.2145853,59.8489571v0.0104179C10.2145853,59.8567696,10.2145853,59.8528633,10.2145853,59.8489571z
				 M11.0114603,59.5989571c0,0.0052109,0,0.0091171-0.0026045,0.0130234L11.0114603,59.5989571z"/>
		</g>
		<g>
			<path fill="#32548C" d="M30.2536469,64h-2.4505196c-0.536459,0-1.0416679-0.2330742-1.390625-0.640625
				c-0.348959-0.40625-0.5026054-0.9427071-0.4192715-1.4713554l0.3828125-2.4440079
				c0.135416-0.8932304,0.895834-1.546875,1.807291-1.546875h2.453125c0.536459,0,1.0416679,0.2330704,1.390625,0.640625
				c0.3489571,0.40625,0.5,0.9427071,0.4192696,1.4713516l-0.3828125,2.4440117C31.9177094,63.3515625,31.1572933,64,30.2536469,64z
				 M28.7796898,61.3333321h0.760416l0.119791-0.7695313h-0.760416L28.7796898,61.3333321z M29.0114594,59.8489571v0.0104179
				C29.0114594,59.8567696,29.0114594,59.8528633,29.0114594,59.8489571z"/>
		</g>
	</g>
</g>
<g id="file">
</g>
<g id="folder">
</g>
<g id="ims_x5F_content_x5F_package">
</g>
<g id="label">
</g>
<g id="lightbox_x5F_gallery">
</g>
<g id="nln_x5F_learning_x5F_object">
</g>
<g id="page">
</g>
<g id="subpage">
</g>
<g id="tab_x5F_display">
</g>
<g id="new_x5F_label">
</g>
<g id="url">
</g>
<g id="_x33_60_x5F_degree_x5F_diagnostics">
</g>
<g id="adobe_x5F_connect">
</g>
<g id="attendance_x5F_register">
</g>
<g id="booking">
</g>
<g id="chat">
</g>
<g id="checklist">
</g>
<g id="external_x5F_tool">
</g>
<g id="face_x5F_to_x5F_face">
</g>
<g id="forumNG">
</g>
<g id="glossary">
</g>
<g id="group_x5F_choice">
</g>
<g id="journal">
</g>
<g id="mediasite_x5F_content">
</g>
<g id="nanogong_x5F_voice">
</g>
<g id="questionnaire">
</g>
<g id="scorm_x5F_package">
</g>
<g id="survey">
</g>
<g id="tutorship">
</g>
<g id="advanced_x5F_forum">
</g>
<g id="subcourse">
</g>
<g id="lesson_1_">
</g>
<g id="adaptive_x5F_quiz">
</g>
<g id="ou_x5F_wiki">
</g>
<g id="support_x5F_tracker">
</g>
<g id="view_x5F_comments">
</g>
<g id="no_x5F_comment">
</g>
<g id="attention">
</g>
<g id="search">
</g>
<g id="submitted">
</g>
<g id="feedback">
</g>
<g id="dnd_x5F_arrow">
</g>
</svg>
