<?xml version="1.0" encoding="utf-8"?>
<!-- Generator: Adobe Illustrator 21.0.0, SVG Export Plug-In . SVG Version: 6.00 Build 0)  -->
<svg version="1.1" xmlns="http://www.w3.org/2000/svg" xmlns:xlink="http://www.w3.org/1999/xlink" x="0px" y="0px" width="64px"
	 height="64px" viewBox="0 0 64 64" enable-background="new 0 0 64 64" xml:space="preserve">
<g id="Layer_1">
</g>
<g id="Layer_2">
</g>
<g id="messages">
</g>
<g id="messages_x5F_hover">
</g>
<g id="profile">
</g>
<g id="profile_x5F_hover">
</g>
<g id="view_x5F_hover">
</g>
<g id="view_x5F_feedback">
</g>
<g id="no_x5F_feedback_x5F_to_x5F_view">
</g>
<g id="download_x5F_hover">
</g>
<g id="download">
</g>
<g id="no_x5F_feedback_x5F_download">
</g>
<g id="link_x5F_hover">
</g>
<g id="assignment_x5F_link_copy">
</g>
<g id="Layer_21">
</g>
<g id="home_x5F_hover">
</g>
<g id="home_1_">
</g>
<g id="edit_x5F_profile">
</g>
<g id="preferences">
</g>
<g id="notifications">
</g>
<g id="my_x5F_posts">
</g>
<g id="logout">
</g>
<g id="assignment">
</g>
<g id="coursework">
</g>
<g id="forum">
</g>
<g id="quiz">
</g>
<g id="book">
</g>
<g id="database">
</g>
<g id="wiki">
</g>
<g id="choice">
</g>
<g id="workshop">
	<g>
		<g>
			<path fill="#FFFFFF" d="M59.6642952,45.0377274c-2.7248535-2.7248535-6.5842323-3.5908813-10.0504684-2.6343765
				l-9.1896439-9.1896439l11.9143333-11.9455814c0.8152618,0.8133068,2.1356201,0.8116798,2.9489288-0.0037422l0.7848282-0.7869453
				c0.8133049-0.8154221,0.8116798-2.1357822-0.0037422-2.9490891l3.9552269-3.965642
				c1.6266136-1.630681,1.6230316-4.2714043-0.0078125-5.8978539l-3.7838745-3.7741127
				c-1.6308441-1.6266127-4.2714043-1.6230328-5.8980179,0.0076482l-3.9552269,3.9656413
				c-0.8154221-0.8133063-2.1356201-0.8115163-2.948925,0.0039058l-0.7849922,0.7869449
				c-0.8133087,0.8154211-0.8115158,2.1357832,0.0039024,2.9489269L30.7471695,23.5366936l-9.1502666-9.1501026
				c0.9565067-3.4663973,0.090477-7.3256154-2.6343765-10.0504684C16.2908859,1.664481,12.5301161,0.7989395,9.115303,1.661552
				l5.9087572,5.9164052l-1.5817003,5.8749094l-5.8786526,1.5677061L1.6624359,9.1116533
				c-0.864077,3.4161139,0.0008137,7.1786737,2.6734314,9.8512907c2.72469,2.7246914,6.5840716,3.5905571,10.0503063,2.6342144
				l9.1597042,9.1597042L11.6128273,42.7211571c-1.1577978,1.1608887-2.0762253,2.5378799-2.7028847,4.0530243L2.9984193,58.2800751
				C2.0752728,60.0767365,3.9907248,62.005043,5.79357,61.094101l11.6591816-5.8911819
				c1.388382-0.7016754,2.6560192-1.6205902,3.7545853-2.7219238L33.2228889,40.433876l9.1802063,9.1802063
				c-0.9565048,3.4660721-0.0904732,7.3256149,2.6343765,10.0504684c2.6716423,2.6716423,6.4324112,3.5370216,9.8472252,2.674408
				l-5.908596-5.9164047l1.5817032-5.8747482l5.8784866-1.5677071l5.9012718,5.9087601
				C63.2016411,51.4729042,62.33675,47.7103462,59.6642952,45.0377274z"/>
		</g>
		<g opacity="0.3">
			<g>
				<polygon fill="#32548C" points="52.3384438,21.2682018 42.6488037,11.6038847 10.1921415,44.4251404 19.5488148,54.1437569 				
					"/>
			</g>
		</g>
		<g opacity="0.3">
			<g>
				<polygon fill="#32548C" points="10.8197336,57.5424995 3.4617126,60.5833397 6.4832859,53.2173843 				"/>
			</g>
		</g>
		<g opacity="0.3">
			<g>
				<path fill="#32548C" d="M56.0684891,17.5283813l3.9552536-3.9656181c1.626545-1.6308088,1.6230927-4.2714167-0.0077171-5.897963
					l-3.7839622-3.774071c-1.630806-1.6265464-4.2714157-1.623091-5.8979607,0.0077176L46.378849,7.8640642L56.0684891,17.5283813z"
					/>
			</g>
		</g>
		<path fill="#32548C" d="M60.6060181,44.0956955c-2.7677002-2.7676392-6.7668457-3.9405518-10.5759277-3.1621094
			l-4.6500854-4.6500244c-0.5206909-0.520752-1.3643188-0.520752-1.8850098,0c-0.520752,0.5206909-0.520752,1.3642578,0,1.8850098
			l5.1760254,5.1773071c0.3384399,0.3397827,0.8331299,0.4699097,1.2965698,0.3423462
			c3.1295776-0.8630981,6.4778442,0.0169067,8.7533569,2.2924805c1.6298828,1.6298828,2.5359497,3.7661743,2.6062622,6.010498
			L57.380127,48.03759c-0.3358765-0.3345947-0.8227539-0.4699707-1.2861938-0.3449707l-5.8789673,1.5673828
			c-0.4608765,0.1223755-0.8201904,0.4803467-0.9425659,0.9412231l-1.5829468,5.875061
			c-0.125,0.4595337,0.005188,0.9515991,0.3436279,1.2887573l3.9575195,3.9627075
			c-2.2443237-0.0715942-4.381897-0.9763184-6.0117798-2.6062012c-2.2755127-2.2768555-3.1529541-5.6303101-2.2911377-8.7520752
			c0.130127-0.4634399-0.0026245-0.9581299-0.3411255-1.2979126l-8.2385254-8.2385254l1.7180786-1.7225342l8.4783936,8.4796143
			c0.260376,0.260376,0.6014404,0.390564,0.9425049,0.390564s0.6821289-0.130188,0.9425049-0.390564
			c0.520752-0.520752,0.520752-1.3643188,0-1.8850098l-8.480835-8.4820557l13.8234863-13.8596172
			c0.4009399,0.1627197,0.8331299,0.2473145,1.2783813,0.2473145c0.0026245,0,0.0026245,0,0.005188,0
			c0.9138794-0.0012817,1.7704468-0.359314,2.4135742-1.0050049l0.7888794-0.7875977
			c1.3278809-1.3343506,1.3252563-3.5018311-0.0078125-4.8336182l-8.7449341-8.7225962l3.0144043-3.0223389
			c0.5336914-0.5363159,1.2445068-0.8331299,2.0021362-0.8331299c0.6639404,0.067688,1.4710693,0.2929077,2.0073853,0.8279419
			l3.7857056,3.7739258c0.5363159,0.536377,0.8331299,1.2484741,0.8331299,2.0061035s-0.2941895,1.4697266-0.8279419,2.0073853
			c-0.5206909,0.520752-0.5206909,1.3656006,0,1.8850098c0.260376,0.2590942,0.6014404,0.3892822,0.9425049,0.3892822
			s0.6821899-0.130188,0.9425049-0.3918457c1.0388794-1.0414429,1.6116333-2.4240112,1.6090698-3.8937378
			c-0.0026245-1.4697266-0.5754395-2.8522949-1.6168823-3.8898315l-3.78302-3.7739255
			c-1.0388794-1.0362549-2.4187622-1.6064453-3.887207-1.6064453c-0.0026245,0-0.005249,0-0.0078125,0
			c-1.4710693,0.0012817-2.8510132,0.5753784-3.8898315,1.6168823l-3.2050171,3.2134397
			c-1.2351685-0.4953613-2.7028198-0.2428589-3.6997681,0.7570801l-0.7811279,0.7849731
			c-0.6456909,0.6456909-1.0023804,1.5048828-0.9997559,2.4187622c0,0.4478149,0.0859375,0.8826294,0.249939,1.2849121
			L30.7468872,21.650507l-7.6799316-7.6787119c0.7811279-3.819519-0.3931274-7.8108521-3.1607666-10.5784912
			c-2.9187012-2.9160767-7.0766602-4.0473633-11.1174927-3.0241089C8.3226929,0.4863216,7.9555664,0.8456356,7.8280029,1.3077939
			C7.7003784,1.7699521,7.8331909,2.264642,8.1716309,2.6043637l5.3660889,5.3699951l-1.1820679,4.3884277l-4.3922729,1.1716309
			L2.6051025,8.16961C2.2692261,7.8311701,1.7745361,7.6970758,1.3085327,7.8272638
			C0.8476563,7.9535456,0.4883423,8.320611,0.3712158,8.7853937c-1.0258179,4.0473022,0.104126,8.2039804,3.0227661,11.1200571
			c2.7650757,2.7663574,6.7590332,3.9406128,10.5759277,3.1608276l4.022583,4.0238647
			c0.260376,0.260376,0.6014404,0.390564,0.9425049,0.390564c0.3411255,0,0.6821899-0.130188,0.9425659-0.390564
			c0.5206909-0.5206909,0.5206909-1.3643188,0-1.8850098l-4.548584-4.5511475
			c-0.3384399-0.3384399-0.8305054-0.4725342-1.2965698-0.3423462c-3.1243286,0.8604736-6.4778442-0.015625-8.7533569-2.2911987
			c-1.6298828-1.6298828-2.5359497-3.7661753-2.6062622-6.010499l3.9470825,3.9536133
			c0.3358765,0.3358774,0.8227539,0.4699717,1.2861938,0.3449717l5.8789673-1.5686655
			c0.4608765-0.1223755,0.8201904-0.4803467,0.9425659-0.9412231l1.5829468-5.875061
			c0.125-0.4595337-0.005188-0.9515991-0.3436279-1.2887573l-3.9575195-3.9614255
			c2.2443237,0.0715942,4.381897,0.9750366,6.0117798,2.6049192c2.2755127,2.2768555,3.1529541,5.6303101,2.2885742,8.7533569
			c-0.1275635,0.4634399,0.005188,0.9581299,0.343689,1.2979126l8.2108765,8.2085581l-1.7185059,1.7230835l-8.4503174-8.4514771
			c-0.520752-0.520752-1.3643188-0.520752-1.8850098,0c-0.520752,0.520752-0.520752,1.3643188,0,1.8850098l8.4528198,8.4539795
			L10.6711426,41.7797775c-1.2913818,1.2927246-2.2963867,2.8015137-2.9447021,4.3845215L1.8135986,57.6710129
			c-0.6899414,1.3395386-0.4504395,2.8978271,0.6118774,3.9691772c0.6665039,0.6717529,1.5283203,1.0219116,2.4109497,1.0219116
			c0.5233154,0,1.0570679-0.1236572,1.5595703-0.3775024l11.6589966-5.8919678
			c1.5179443-0.7680664,2.8952637-1.7666016,4.0980835-2.9707642L33.2254028,42.32061l7.7076416,7.7087402
			c-0.7811279,3.819519,0.395752,7.8095703,3.1607666,10.5772095c2.2105103,2.2091675,5.1317749,3.3938599,8.1779785,3.3938599
			c0.9737549,0,1.9605103-0.1210938,2.9395142-0.3684692c0.4660034-0.1171265,0.8305664-0.4751587,0.9606934-0.9372559
			c0.1276245-0.4634399-0.005188-0.9581299-0.3436279-1.2979126l-5.3660889-5.3712769l1.1820679-4.3884277l4.3922729-1.1702881
			l5.3582764,5.3647461c0.3358765,0.3384399,0.8305664,0.473877,1.2965698,0.3423462
			c0.4608765-0.1262207,0.8201904-0.4933472,0.9373169-0.9581299
			C64.6546021,51.1684494,63.5246582,47.0117722,60.6060181,44.0956955z M5.1931152,59.9048996
			c-0.4321899,0.2213135-0.7550659-0.0247192-0.8748169-0.1431885c-0.114563-0.1159058-0.359314-0.4335327-0.135376-0.8722534
			l2.0657349-4.0231934l2.9975586,2.9903564L5.1931152,59.9048996z M11.7532959,56.589592l-4.2252197-4.2150879l2.614502-5.09198
			c0.093811-0.2266235,0.2047729-0.4432373,0.3123779-0.6618652l6.8665771,7.1307983
			c-0.1564331,0.0872192-0.3092041,0.1803589-0.4694214,0.2614136L11.7532959,56.589592z M20.2655029,51.5394821
			c-0.2337646,0.2337036-0.4770508,0.4561768-0.7262573,0.6710815l-7.586731-7.8786621
			c0.194397-0.2288208,0.392334-0.4552002,0.6062622-0.6696777l30.0926514-30.1721191l3.2180786,3.2102671L17.8988037,44.6711349
			c-0.520752,0.5206909-0.520752,1.3642578,0,1.8850098c0.5206909,0.5206909,1.3642578,0.5206909,1.8850098,0L48.699646,17.6415958
			c0.249939-0.249939,0.3905029-0.5897217,0.3905029-0.9437866c0-0.3527832-0.140564-0.6925659-0.3905029-0.9425058
			l-5.1083374-5.0953369c-0.1431885-0.1418457-0.2213135-0.3306274-0.2213135-0.5311279
			c0-0.2004395,0.078125-0.3892212,0.2213135-0.5337524L44.375,8.8088312
			c0.291626-0.2942505,0.7706909-0.2929077,1.0623169-0.0013428l9.6880493,9.6646738
			c0.2941895,0.2929077,0.296814,0.7706909,0.005188,1.0635986l-0.7888794,0.7875977
			c-0.140564,0.1419067-0.328064,0.2199707-0.5285034,0.2213135c-0.0026245,0-0.0026245,0-0.0026245,0
			c-0.2005005,0-0.3879395-0.078125-0.5285645-0.2200317c-0.249939-0.2486572-0.5883789-0.3892212-0.9425049-0.3892212
			c0,0,0,0-0.0025635,0c-0.3515015,0-0.6925659,0.1418457-0.9425049,0.3918457l-19.1119385,19.163084
			c0,0-0.0009155,0.0004883-0.0012817,0.0008545c0,0-0.0004883,0.0009155-0.0008545,0.0012817L20.2655029,51.5394821z"/>
	</g>
</g>
<g id="certificate">
</g>
<g id="scheduler">
</g>
<g id="equella">
</g>
<g id="file">
</g>
<g id="folder">
</g>
<g id="ims_x5F_content_x5F_package">
</g>
<g id="label">
</g>
<g id="lightbox_x5F_gallery">
</g>
<g id="nln_x5F_learning_x5F_object">
</g>
<g id="page">
</g>
<g id="subpage">
</g>
<g id="tab_x5F_display">
</g>
<g id="new_x5F_label">
</g>
<g id="url">
</g>
<g id="_x33_60_x5F_degree_x5F_diagnostics">
</g>
<g id="adobe_x5F_connect">
</g>
<g id="attendance_x5F_register">
</g>
<g id="booking">
</g>
<g id="chat">
</g>
<g id="checklist">
</g>
<g id="external_x5F_tool">
</g>
<g id="face_x5F_to_x5F_face">
</g>
<g id="forumNG">
</g>
<g id="glossary">
</g>
<g id="group_x5F_choice">
</g>
<g id="journal">
</g>
<g id="mediasite_x5F_content">
</g>
<g id="nanogong_x5F_voice">
</g>
<g id="questionnaire">
</g>
<g id="scorm_x5F_package">
</g>
<g id="survey">
</g>
<g id="tutorship">
</g>
<g id="advanced_x5F_forum">
</g>
<g id="subcourse">
</g>
<g id="lesson_1_">
</g>
<g id="adaptive_x5F_quiz">
</g>
<g id="ou_x5F_wiki">
</g>
<g id="support_x5F_tracker">
</g>
<g id="view_x5F_comments">
</g>
<g id="no_x5F_comment">
</g>
<g id="attention">
</g>
<g id="search">
</g>
<g id="submitted">
</g>
<g id="feedback">
</g>
<g id="dnd_x5F_arrow">
</g>
</svg>
