<?xml version="1.0" encoding="utf-8"?>
<!-- Generator: Adobe Illustrator 21.0.0, SVG Export Plug-In . SVG Version: 6.00 Build 0)  -->
<svg version="1.1" xmlns="http://www.w3.org/2000/svg" xmlns:xlink="http://www.w3.org/1999/xlink" x="0px" y="0px" width="64px"
	 height="64px" viewBox="0 0 64 64" enable-background="new 0 0 64 64" xml:space="preserve">
<g id="Layer_1">
</g>
<g id="Layer_2">
</g>
<g id="messages">
</g>
<g id="messages_x5F_hover">
</g>
<g id="profile">
</g>
<g id="profile_x5F_hover">
</g>
<g id="view_x5F_hover">
</g>
<g id="view_x5F_feedback">
</g>
<g id="no_x5F_feedback_x5F_to_x5F_view">
</g>
<g id="download_x5F_hover">
</g>
<g id="download">
</g>
<g id="no_x5F_feedback_x5F_download">
</g>
<g id="link_x5F_hover">
</g>
<g id="assignment_x5F_link_copy">
</g>
<g id="Layer_21">
</g>
<g id="home_x5F_hover">
</g>
<g id="home_1_">
</g>
<g id="edit_x5F_profile">
</g>
<g id="preferences">
</g>
<g id="notifications">
</g>
<g id="my_x5F_posts">
</g>
<g id="logout">
</g>
<g id="assignment">
</g>
<g id="coursework">
</g>
<g id="forum">
	<g>
		<g>
			<path fill="#FFFFFF" d="M58.2736015,22.2991543H41.2565117v-10.076335c0-2.1935225-1.7781601-3.9716797-3.9716797-3.9716797
				H5.7263999c-2.4262698,0-4.3930664,1.9667969-4.3930664,4.3930664v19.6827774
				c0,2.1935234,1.7781576,3.9716797,3.9716797,3.9716797h3.9153647v5.4015312l7.2972002-4.3600273
				c1.0387363-0.6795235,2.2530918-1.0415039,3.4943027-1.0415039h2.7316093V46.375
				c0,2.1935234,1.7781563,3.9716797,3.9716797,3.9716797h17.2729473c1.2412109,0,2.4555664,0.3619804,3.4943047,1.0415039
				l7.2971992,4.3600273v-5.4015312h3.9153671c2.1935196,0,3.9716797-1.7781563,3.9716797-3.9716797V26.6922207
				C62.6666679,24.2659512,60.6998711,22.2991543,58.2736015,22.2991543z"/>
		</g>
		<g opacity="0.3">
			<g>
				<path fill="#32548C" d="M62.6666603,26.6922359l0.0000076,19.682806c0,2.19347-1.7781563,3.9716263-3.9716263,3.9716301
					H54.779644l0.0000534,5.4015808l-7.2973213-4.3600349c-1.0387115-0.6795883-2.2530441-1.0415421-3.4943161-1.0415421
					l-17.2729282,0.0000038c-2.19347,0-3.9716282-1.7781563-3.9716282-3.9716263l-0.0000057-20.1042995
					c-0.0000019-2.1934681,1.7781563-3.9716263,3.9716244-3.9716263l31.5584183-0.0000114
					C60.699791,22.2991161,62.6666603,24.2659836,62.6666603,26.6922359z"/>
			</g>
		</g>
		<g>
			<path fill="#32548C" d="M49.9505005,30.5455933H34.640625c-0.7369995,0-1.333313,0.5963135-1.333313,1.333313
				s0.5963135,1.333313,1.333313,1.333313h15.3098755c0.7369995,0,1.333374-0.5963135,1.333374-1.333313
				S50.6875,30.5455933,49.9505005,30.5455933z"/>
			<path fill="#32548C" d="M49.9505005,39.4335938H34.640625c-0.7369995,0-1.333313,0.5963745-1.333313,1.333313
				c0,0.7369995,0.5963135,1.333374,1.333313,1.333374h15.3098755c0.7369995,0,1.333374-0.5963745,1.333374-1.333374
				C51.2838745,40.0299683,50.6875,39.4335938,49.9505005,39.4335938z"/>
			<path fill="#32548C" d="M14.0494995,16.4973755c-0.7369995,0-1.333374,0.5963745-1.333374,1.333374
				c0,0.7369385,0.5963745,1.333313,1.333374,1.333313H29.359375c0.7369995,0,1.333313-0.5963745,1.333313-1.333313
				c0-0.7369995-0.5963135-1.333374-1.333313-1.333374H14.0494995z"/>
			<path fill="#32548C" d="M58.2734375,20.9661255h-31.557312c-2.6212769,0-4.7904663,1.9168091-5.2151489,4.4193115h-7.4514771
				c-0.7369995,0-1.333374,0.5963135-1.333374,1.333313s0.5963745,1.333313,1.333374,1.333313h7.3619385v6.9127808h-1.3984375
				c-1.505188,0-2.9661255,0.4348755-4.1796875,1.2304688l-5.2786255,3.1549683v-3.052124
				c0-0.7369385-0.5963745-1.333313-1.333313-1.333313h-3.916687c-1.4557495,0-2.6380005-1.1835938-2.6380005-2.6380005v-19.682312
				c0-1.6875,1.3723755-3.0598755,3.0598755-3.0598755h31.557312c1.4556885,0,2.6380005,1.1835938,2.6380005,2.6380005v5.9609375
				c0,0.7369995,0.5963745,1.333313,1.333313,1.333313c0.7369995,0,1.333374-0.5963135,1.333374-1.333313v-5.9609375
				c0-2.9244995-2.380249-5.3046875-5.3046875-5.3046875H5.7265625C2.5690308,6.9179688,0,9.4869995,0,12.6445313v19.682312
				c0,2.9244385,2.380188,5.3046875,5.3046875,5.3046875h2.583313v4.0689697c0,0.4804688,0.2578125,0.9232178,0.6744995,1.1601563
				c0.2057495,0.1159058,0.432312,0.1732178,0.6588745,0.1732178c0.2369385,0,0.473938-0.0625,0.6848755-0.1888428
				l7.3411255-4.3892822c0.8255615-0.5390625,1.78125-0.8242188,2.765625-0.8242188h1.3984375V46.375
				c0,2.9244995,2.380249,5.3046875,5.3046875,5.3046875h17.270874c0.984375,0,1.9400635,0.2851563,2.8098755,0.8528442
				l7.296875,4.3607178c0.2109375,0.1262817,0.447937,0.1887817,0.6848755,0.1887817
				c0.2265625,0,0.453125-0.057312,0.6588745-0.1731567c0.416687-0.2369995,0.6744995-0.6796875,0.6744995-1.1601563v-4.0690308
				h2.583313C61.619812,51.6796875,64,49.2994995,64,46.375V26.692688C64,23.5351563,61.432312,20.9661255,58.2734375,20.9661255z
				 M61.333313,46.375c0,1.4544067-1.182251,2.6380005-2.6380005,2.6380005h-3.916687
				c-0.7369385,0-1.333313,0.5963745-1.333313,1.333374v3.052063l-5.234375-3.1262817
				c-1.2578125-0.8242188-2.71875-1.2591553-4.223938-1.2591553h-17.270874c-1.4556885,0-2.6380005-1.1835938-2.6380005-2.6380005
				V26.270813c0-1.4544067,1.182312-2.6380005,2.6380005-2.6380005h31.557312c1.6875,0,3.0598755,1.3723755,3.0598755,3.0598755
				V46.375z"/>
		</g>
	</g>
</g>
<g id="quiz">
</g>
<g id="book">
</g>
<g id="database">
</g>
<g id="wiki">
</g>
<g id="choice">
</g>
<g id="workshop">
</g>
<g id="certificate">
</g>
<g id="scheduler">
</g>
<g id="equella">
</g>
<g id="file">
</g>
<g id="folder">
</g>
<g id="ims_x5F_content_x5F_package">
</g>
<g id="label">
</g>
<g id="lightbox_x5F_gallery">
</g>
<g id="nln_x5F_learning_x5F_object">
</g>
<g id="page">
</g>
<g id="subpage">
</g>
<g id="tab_x5F_display">
</g>
<g id="new_x5F_label">
</g>
<g id="url">
</g>
<g id="_x33_60_x5F_degree_x5F_diagnostics">
</g>
<g id="adobe_x5F_connect">
</g>
<g id="attendance_x5F_register">
</g>
<g id="booking">
</g>
<g id="chat">
</g>
<g id="checklist">
</g>
<g id="external_x5F_tool">
</g>
<g id="face_x5F_to_x5F_face">
</g>
<g id="forumNG">
</g>
<g id="glossary">
</g>
<g id="group_x5F_choice">
</g>
<g id="journal">
</g>
<g id="mediasite_x5F_content">
</g>
<g id="nanogong_x5F_voice">
</g>
<g id="questionnaire">
</g>
<g id="scorm_x5F_package">
</g>
<g id="survey">
</g>
<g id="tutorship">
</g>
<g id="advanced_x5F_forum">
</g>
<g id="subcourse">
</g>
<g id="lesson_1_">
</g>
<g id="adaptive_x5F_quiz">
</g>
<g id="ou_x5F_wiki">
</g>
<g id="support_x5F_tracker">
</g>
<g id="view_x5F_comments">
</g>
<g id="no_x5F_comment">
</g>
<g id="attention">
</g>
<g id="search">
</g>
<g id="submitted">
</g>
<g id="feedback">
</g>
<g id="dnd_x5F_arrow">
</g>
</svg>
