<?xml version="1.0" encoding="utf-8"?>
<!-- Generator: Adobe Illustrator 21.0.0, SVG Export Plug-In . SVG Version: 6.00 Build 0)  -->
<svg version="1.1" xmlns="http://www.w3.org/2000/svg" xmlns:xlink="http://www.w3.org/1999/xlink" x="0px" y="0px" width="64px"
	 height="64px" viewBox="0 0 64 64" enable-background="new 0 0 64 64" xml:space="preserve">
<g id="Layer_1">
</g>
<g id="Layer_2">
</g>
<g id="messages">
</g>
<g id="messages_x5F_hover">
</g>
<g id="profile">
</g>
<g id="profile_x5F_hover">
</g>
<g id="view_x5F_hover">
</g>
<g id="view_x5F_feedback">
</g>
<g id="no_x5F_feedback_x5F_to_x5F_view">
</g>
<g id="download_x5F_hover">
</g>
<g id="download">
</g>
<g id="no_x5F_feedback_x5F_download">
</g>
<g id="link_x5F_hover">
</g>
<g id="assignment_x5F_link_copy">
</g>
<g id="Layer_21">
</g>
<g id="home_x5F_hover">
</g>
<g id="home_1_">
</g>
<g id="edit_x5F_profile">
</g>
<g id="preferences">
</g>
<g id="notifications">
</g>
<g id="my_x5F_posts">
</g>
<g id="logout">
</g>
<g id="assignment">
</g>
<g id="coursework">
</g>
<g id="forum">
</g>
<g id="quiz">
</g>
<g id="book">
</g>
<g id="database">
</g>
<g id="wiki">
</g>
<g id="choice">
</g>
<g id="workshop">
</g>
<g id="certificate">
</g>
<g id="scheduler">
</g>
<g id="equella">
</g>
<g id="file">
</g>
<g id="folder">
</g>
<g id="ims_x5F_content_x5F_package">
</g>
<g id="label">
</g>
<g id="lightbox_x5F_gallery">
</g>
<g id="nln_x5F_learning_x5F_object">
</g>
<g id="page">
</g>
<g id="subpage">
</g>
<g id="tab_x5F_display">
</g>
<g id="new_x5F_label">
</g>
<g id="url">
</g>
<g id="_x33_60_x5F_degree_x5F_diagnostics">
</g>
<g id="adobe_x5F_connect">
</g>
<g id="attendance_x5F_register">
</g>
<g id="booking">
</g>
<g id="chat">
</g>
<g id="checklist">
</g>
<g id="external_x5F_tool">
</g>
<g id="face_x5F_to_x5F_face">
</g>
<g id="forumNG">
</g>
<g id="glossary">
</g>
<g id="group_x5F_choice">
</g>
<g id="journal">
</g>
<g id="mediasite_x5F_content">
</g>
<g id="nanogong_x5F_voice">
</g>
<g id="questionnaire">
</g>
<g id="scorm_x5F_package">
</g>
<g id="survey">
</g>
<g id="tutorship">
</g>
<g id="advanced_x5F_forum">
</g>
<g id="subcourse">
</g>
<g id="lesson_1_">
</g>
<g id="adaptive_x5F_quiz">
</g>
<g id="ou_x5F_wiki">
</g>
<g id="support_x5F_tracker">
	<g>
		<g>
			<path fill="#FFFFFF" d="M51.1499977,35.6540146c-0.1744576-0.023922-1.0265656-0.0507774-1.9476776-0.0738869
				c-1.4518089-0.0367775-2.6108475-1.2223434-2.6108475-2.6746407v-3.5236568
				c2.240612-1.4701977,4.1476059-4.027504,5.460762-7.0157452c0.2639618,0.1980553,0.5586853,0.3404522,0.8784714,0.4153137
				c1.6794815,0.3939953,3.4203186-1.2210426,3.8881989-3.6071434c0.4680405-2.3862648-0.5140991-4.6398964-2.1937447-5.0337286
				c-0.218235-0.0512638-0.654541-0.0546808-0.654541-0.0546808c0.0794182-1.3749952-0.3705597-4.1051311-0.3705597-4.1051311
				c-1.2993202-5.6617432-5.7811966-8.6470556-11.1107864-8.6470556c-6.3462296,0-11.4906216,4.232882-11.4906216,12.1772242
				c0,0.1910572,0.0030918,0.3827658,0.0094376,0.5749626c-0.2174206-0.013833-0.4366322,0.003417-0.654541,0.0546808
				c-1.6796455,0.3938322-2.6617851,2.6474638-2.1939068,5.0337286c0.4680424,2.3861008,2.2087154,4.0011387,3.8880348,3.6071434
				c0.3201103-0.0748615,0.6145096-0.2172585,0.8786354-0.4153137l0.0017929,0.0035801
				c1.3805275,3.1400795,3.4212914,5.7859154,5.8116264,7.2107086l0.000164,3.2666912
				c0,1.4477386-1.1577377,2.6375351-2.6051521,2.671875c-1.0384483,0.0245743-1.5977859,0.0590744-1.9532127,0.1026878
				c-2.7150002,0.3329659-5.1668491,1.2293434-7.1540737,2.4988823l-6.7896996-6.7896996
				c0.8923073-3.233654,0.084301-6.8339634-2.4575443-9.3758087c-2.4923716-2.4923706-6.0007324-3.2997265-9.1863785-2.4951382
				l5.5121851,5.5193462l-1.4755688,5.4806137L7.146419,31.9223728l-5.5053501-5.5123482
				c-0.8058912,3.1867847,0.0008137,6.6967754,2.4939988,9.1899586c2.5420074,2.5420074,6.1423168,3.3496895,9.3758087,2.4575462
				l8.8856344,8.8856316c0.2623367,1.0229874,0.8503189,1.9742088,1.7629681,2.6988907
				c0.5445309,0.4325638,1.1165638,0.840229,1.7021027,1.2335739c-0.7280998,3.1316147,0.096344,6.5472145,2.5381031,8.9889755
				c2.4923706,2.4923706,6.0007324,3.2995644,9.1863785,2.494812l-5.5121841-5.5191841l0.7009201-2.603199
				c3.0121651,0.9953232,6.283577,1.5530357,9.7144737,1.5530357c7.0967903,0,13.5365944-2.3405342,18.3299561-6.1480141
				c1.2623787-1.0026436,1.9258728-2.4326439,1.9258728-3.8971481v-0.0828362
				C62.7451019,40.5874939,57.6653175,36.5417633,51.1499977,35.6540146z"/>
		</g>
		<g opacity="0.3">
			<path fill="#32548C" d="M13.5108833,38.0575218c-3.233552,0.8921852-6.8338485,0.084446-9.3757429-2.4574471
				C1.6419088,33.106842,0.83512,29.5968704,1.6411309,26.4100819l5.5052485,5.5123348l5.4840717-1.462574l1.4755402-5.4806137
				l-5.5121632-5.5192528c3.1856661-0.8047142,6.6939955,0.0026798,9.1863632,2.4950466
				c2.541893,2.5418949,3.3498058,6.1421928,2.4575329,9.3758297l12.4310646,12.4310684
				c3.2336388-0.8922768,6.8339348-0.084362,9.3759193,2.4576187c2.493145,2.493145,3.3000183,6.0032043,2.4939194,9.1899071
				l-5.5051613-5.512249l-5.4840698,1.462574l-1.4755402,5.480442l5.5121613,5.519249
				c-3.1856651,0.8047142-6.6939945-0.0025063-9.1863613-2.494873c-2.5419807-2.5419807-3.3498936-6.1424522-2.4576206-9.3759155
				L13.5108833,38.0575218z"/>
		</g>
		<g>
			<path fill="#32548C" d="M51.2924194,34.1989288c-0.4400635-0.0598755-0.8358765-0.109375-2.0831299-0.140625
				c-0.489502-0.0130005-0.9295654-0.2941895-1.1535034-0.7342529c-0.333252-0.661377-1.1378784-0.9321899-1.7888184-0.5910645
				c-0.6587524,0.3306885-0.9217529,1.1300659-0.5910645,1.7888184c0.6640015,1.3201904,1.9919434,2.1638184,3.4656982,2.2028809
				c1.0753784,0.026001,1.4191284,0.0650635,1.7940674,0.114563c6.0253296,0.8228149,10.3971558,4.4603882,10.3971558,8.7332764
				c0,1.0884399-0.515564,2.1221313-1.4165039,2.8356323c-3.1141968,2.4762573-6.939209,4.2598877-11.0610962,5.1582031
				c-0.718689,0.15625-1.1743774,0.8670654-1.0181274,1.5857544c0.135376,0.624939,0.687439,1.0493164,1.3019409,1.0493164
				c0.093689,0,0.187439-0.010376,0.2838135-0.031189c4.5176392-0.9816895,8.7202759-2.9450073,12.1521606-5.6738281
				c1.5414429-1.2211914,2.4241943-3.0152588,2.4241943-5.0072021
				C63.9992065,39.9508209,58.6560669,35.2014313,51.2924194,34.1989288z"/>
			<path fill="#32548C" d="M15.7081909,33.5297394c-0.520752,0.520752-0.520752,1.3644409,0,1.8851929L28.586853,48.2909698
				c0.260376,0.260376,0.6015015,0.390564,0.9425659,0.390564c0.3411255,0,0.6821899-0.130188,0.942627-0.390564
				c0.520752-0.520752,0.520752-1.3644409,0-1.8851929L17.5933838,33.5297394
				C17.0726318,33.0089874,16.2289429,33.0089874,15.7081909,33.5297394z"/>
			<path fill="#32548C" d="M33.0863037,42.2943268l-3.9641113-3.9641113
				c1.5664673-0.7664185,3.3529053-1.2856445,5.2581787-1.5195923c0.328125-0.041687,0.843689-0.0703125,1.8071289-0.0911865
				c2.1871948-0.0546265,3.9005127-1.8122559,3.9005127-3.9968872v-1.170351
				c0.7868042,0.2435303,1.5894775,0.3761597,2.4007568,0.3761597c3.9188232,0,7.6605225-2.9332275,10.1810913-7.9143677
				c0.9555664,0.1965942,1.9632568-0.0026245,2.8485718-0.5767822c1.2758789-0.8240967,2.2054443-2.3095703,2.5517578-4.0762939
				c0.6119385-3.1207275-0.7863159-6.0057983-3.1896973-6.5682373c-0.348938-0.0806885-0.6951904-0.1132202-1.0441284-0.0872192
				c-0.734314,0.0494995-1.1586914,0.6952515-1.1118774,1.4295044c0.0494995,0.7329712,0.7941895,1.2733154,1.5493164,1.2537842
				c0.8384399,0.1965942,1.5232544,1.7172241,1.1821289,3.4592285c-0.203064,1.0285034-0.7316895,1.9294434-1.3826294,2.3486328
				c-0.307251,0.2005005-0.6040649,0.270813-0.8800659,0.2017822c-0.135437-0.0299072-0.2578125-0.0897827-0.3775635-0.1796265
				c-0.3255005-0.244751-0.744751-0.328125-1.1405029-0.2252197c-0.3931885,0.104126-0.718689,0.3814087-0.8826904,0.7537842
				c-2.0362549,4.6348267-5.2181396,7.5147095-8.3037109,7.5147095s-6.2674561-2.8798828-8.3036499-7.5147095
				c-0.1640625-0.3723755-0.489502-0.6509399-0.8826904-0.7537842c-0.3984375-0.1029053-0.8150024-0.0195313-1.1405029,0.2252197
				c-0.119812,0.0898438-0.244751,0.1497192-0.3775635,0.1809692c-0.276001,0.0664063-0.572876-0.005249-0.880127-0.203125
				c-0.6509399-0.4205322-1.1795044-1.3201294-1.3826294-2.3486328c-0.3410645-1.7420044,0.343689-3.2626343,1.4425659-3.4813843
				c0.369751,0.015625,0.7420654-0.1106567,1.0128784-0.369751c0.270813-0.260376,0.4191895-0.6223145,0.4088135-0.9972534
				l-0.010437-0.536377c0-6.5591431,3.9708862-10.796875,10.1133423-10.796875c4.6140137,0,8.1657104,2.4684448,9.5014648,6.6020508
				c0.2265015,0.6991577,0.9790649,1.0883789,1.6768799,0.8579712c0.7004395-0.2252197,1.0858154-0.9777222,0.8592529-1.6781616
				c-1.7081299-5.2897339-6.2075806-8.4481812-12.0375977-8.4481812c-7.46521,0-12.5375366,5.1608276-12.7718506,12.9033203
				c-2.1664429,0.7642822-3.3901978,3.5048218-2.8095703,6.4575806c0.3463135,1.7653809,1.2758789,3.2509155,2.5491943,4.0750122
				c0.8853149,0.572876,1.8981934,0.7785645,2.8511963,0.578064c1.3908691,2.7487183,3.1547852,4.8696899,5.1139526,6.2224121
				v2.4861469c0,0.7290649-0.5728149,1.3123169-1.2993164,1.3305664c-1.1014404,0.026062-1.6951294,0.0651245-2.0700684,0.1119995
				c-2.5215454,0.3078613-4.8643799,1.083374-6.8842163,2.2109985l-2.963562-2.963562
				c-0.520752-0.520752-1.3643799-0.520752-1.8851318,0c-0.520813,0.520813-0.520813,1.3644409,0,1.8851929l9.4076538,9.4077148
				c0.3359375,0.338501,0.8306274,0.468689,1.2967529,0.343689c2.8876343-0.7941284,5.9784546,0.0130615,8.0771484,2.1117554
				c1.4503174,1.4503174,2.2783203,3.3303223,2.3955078,5.3196411l-3.5203857-3.5255737
				c-0.333313-0.333313-0.8254395-0.4608765-1.2863159-0.3463135l-5.4837036,1.4633179
				c-0.4608765,0.1223755-0.8201904,0.4817505-0.9425659,0.942627l-1.4763794,5.4785156
				c-0.125,0.4608765,0.005188,0.9503784,0.343689,1.2888794l3.5281982,3.5334473
				c-1.9866943-0.1171875-3.8693237-0.9452515-5.3170166-2.3929443c-2.0987549-2.0986938-2.9085083-5.1947021-2.1143799-8.0797729
				c0.1276245-0.463501-0.005188-0.9581909-0.343689-1.2966919L14.453125,37.1152496
				c-0.338501-0.3358765-0.8280029-0.468689-1.2966919-0.343689c-2.8694458,0.7967529-5.9758301-0.010437-8.0797729-2.1143188
				c-1.4476929-1.4477539-2.2757568-3.3303242-2.3928833-5.3170795l3.5203857,3.5255756
				c0.3358765,0.3359375,0.8253784,0.463501,1.2863159,0.3463135l5.4837036-1.4633198
				c0.4608765-0.1223755,0.8201904-0.4817505,0.9425659-0.942627l1.4763794-5.4810791
				c0.125-0.4595947-0.005188-0.9517212-0.343689-1.2889404l-3.5281982-3.5333862
				c1.9866943,0.1184692,3.8692627,0.9464722,5.3170166,2.3955078c2.0986938,2.0987549,2.9085083,5.1947021,2.1143188,8.0797729
				c-0.1952515,0.7108154,0.2213745,1.4451313,0.9321899,1.6404438c0.7212524,0.1848755,1.4425659-0.223938,1.6404419-0.9321918
				c1.0467529-3.8081665-0.026062-7.8974609-2.8017578-10.6731567c-2.7418213-2.7431641-6.652832-3.8068848-10.4544678-2.8460083
				C7.8029175,18.284193,7.435791,18.643568,7.3081665,19.1057262c-0.1275635,0.4621582,0.005249,0.9569092,0.34375,1.2966919
				l4.9681396,4.9733887l-1.0780029,3.9942627l-3.9943237,1.0662842L2.5847778,25.468214
				c-0.3358765-0.3410645-0.8306274-0.4751587-1.2966919-0.343689c-0.4608765,0.1262817-0.8201904,0.4921265-0.9373779,0.9581909
				c-0.9660645,3.805542,0.0963135,7.7152119,2.8408203,10.4596577c2.5933838,2.5908813,6.3273315,3.6948853,9.9024048,2.9840088
				l11.3788452,11.3788452c-0.713501,3.5803223,0.395752,7.314209,2.9840088,9.9024658
				c2.0778198,2.0778198,4.8248901,3.1923218,7.6891479,3.1923218c0.9165649,0,1.8435059-0.114624,2.7652588-0.348938
				c0.4661255-0.1171875,0.833252-0.473877,0.9608154-0.9373779c0.1276245-0.4608765-0.005188-0.9556274-0.343689-1.2967529
				l-4.9681396-4.9733276l1.0753784-3.9916992l3.9995117-1.0675659l4.9603271,4.9681396
				c0.3359375,0.3358765,0.833252,0.468689,1.2967529,0.343689c0.4608765-0.1275635,0.8201904-0.494751,0.9373779-0.9581909
				c0.9660034-3.8068237-0.098938-7.7178345-2.8433838-10.4622803
				C40.3927002,42.6848907,36.6587524,41.5756378,33.0863037,42.2943268z"/>
		</g>
	</g>
</g>
<g id="view_x5F_comments">
</g>
<g id="no_x5F_comment">
</g>
<g id="attention">
</g>
<g id="search">
</g>
<g id="submitted">
</g>
<g id="feedback">
</g>
<g id="dnd_x5F_arrow">
</g>
</svg>
