<?xml version="1.0" encoding="utf-8"?>
<!-- Generator: Adobe Illustrator 21.0.0, SVG Export Plug-In . SVG Version: 6.00 Build 0)  -->
<svg version="1.1" xmlns="http://www.w3.org/2000/svg" xmlns:xlink="http://www.w3.org/1999/xlink" x="0px" y="0px" width="64px"
	 height="64px" viewBox="0 0 64 64" enable-background="new 0 0 64 64" xml:space="preserve">
<g id="Layer_1">
</g>
<g id="Layer_2">
</g>
<g id="messages">
</g>
<g id="messages_x5F_hover">
</g>
<g id="profile">
</g>
<g id="profile_x5F_hover">
</g>
<g id="view_x5F_hover">
</g>
<g id="view_x5F_feedback">
</g>
<g id="no_x5F_feedback_x5F_to_x5F_view">
</g>
<g id="download_x5F_hover">
</g>
<g id="download">
</g>
<g id="no_x5F_feedback_x5F_download">
</g>
<g id="link_x5F_hover">
</g>
<g id="assignment_x5F_link_copy">
</g>
<g id="Layer_21">
</g>
<g id="home_x5F_hover">
</g>
<g id="home_1_">
</g>
<g id="edit_x5F_profile">
</g>
<g id="preferences">
</g>
<g id="notifications">
</g>
<g id="my_x5F_posts">
</g>
<g id="logout">
</g>
<g id="assignment">
</g>
<g id="coursework">
</g>
<g id="forum">
</g>
<g id="quiz">
</g>
<g id="book">
</g>
<g id="database">
</g>
<g id="wiki">
</g>
<g id="choice">
</g>
<g id="workshop">
</g>
<g id="certificate">
</g>
<g id="scheduler">
</g>
<g id="equella">
</g>
<g id="file">
</g>
<g id="folder">
</g>
<g id="ims_x5F_content_x5F_package">
</g>
<g id="label">
</g>
<g id="lightbox_x5F_gallery">
</g>
<g id="nln_x5F_learning_x5F_object">
</g>
<g id="page">
</g>
<g id="subpage">
</g>
<g id="tab_x5F_display">
</g>
<g id="new_x5F_label">
</g>
<g id="url">
</g>
<g id="_x33_60_x5F_degree_x5F_diagnostics">
</g>
<g id="adobe_x5F_connect">
</g>
<g id="attendance_x5F_register">
</g>
<g id="booking">
</g>
<g id="chat">
</g>
<g id="checklist">
</g>
<g id="external_x5F_tool">
</g>
<g id="face_x5F_to_x5F_face">
</g>
<g id="forumNG">
</g>
<g id="glossary">
</g>
<g id="group_x5F_choice">
</g>
<g id="journal">
</g>
<g id="mediasite_x5F_content">
</g>
<g id="nanogong_x5F_voice">
</g>
<g id="questionnaire">
</g>
<g id="scorm_x5F_package">
</g>
<g id="survey">
</g>
<g id="tutorship">
	<g>
		<g>
			<path fill="#FFFFFF" d="M60,1.3339844H20.3549805c-1.4728184,0-2.666666,1.1938477-2.666666,2.6666665v9.8234043
				c0,0-8.4679365,0.3773336-8.4679365,10.8002939c0,0.171875,0.0027666,0.3444004,0.008626,0.517252
				c-0.1956377-0.0123692-0.3929033,0.0030918-0.5890303,0.0493164c-1.5113931,0.3543301-2.3950191,2.3821621-1.9741206,4.5292969
				c0.421061,2.1469727,1.9874673,3.6002617,3.4985347,3.2457695c0.2879238-0.0673828,0.5528975-0.1956406,0.7905273-0.3736992
				l0.0016279,0.0030937c1.2421875,2.8255196,3.0786133,5.2063789,5.2293301,6.4884415l0.0001621,2.9392929
				c0,1.3027344-1.041667,2.3732071-2.3440752,2.4041328c-0.9344082,0.0221367-1.4376631,0.0530586-1.7574873,0.0922852
				C6.0626626,45.2581367,1.3334961,48.965168,1.3334961,53.628582c0,1.3178711,0.5970052,2.6044922,1.733073,3.5066719
				c4.3131514,3.4261055,10.107584,5.5320625,16.4931641,5.5320625c6.3857422,0,12.1803398-2.105957,16.4933262-5.5320625
				c1.1360703-0.9021797,1.7329102-2.1888008,1.7329102-3.5066719v-0.0745468c0-4.5660782-4.5708008-8.2063789-10.4332676-9.0052071
				c-0.1570625-0.0214844-0.9236641-0.0457344-1.7524414-0.0665703c-1.3064766-0.0330391-2.3492832-1.0999336-2.3492832-2.4065742
				v-3.1705742c0.2513027-0.164875,0.4824219-0.3873672,0.723959-0.581543
				c0.0105782,0.003746,0.0179024,0.0066757,0.0284824,0.0104179H60c1.4728203,0,2.6666679-1.1940117,2.6666679-2.6666679V4.0006509
				C62.6666679,2.527832,61.4728203,1.3339844,60,1.3339844z"/>
		</g>
		<g opacity="0.3">
			<g>
				<path fill="#32548C" d="M59.9999313,1.3339486H20.3549023c-1.4728107,0-2.666666,1.1938477-2.666666,2.6666665v9.8234053
					c0.6087322-0.0953779,1.2304764-0.1567383,1.8714275-0.1567383c5.7102852,0,10.3395176,3.8085938,10.3395176,10.9570313
					c0,0.171875-0.0027676,0.3445644-0.0084629,0.517416c0.1954746-0.0125332,0.3927402,0.0029297,0.5888672,0.0489902
					c1.5113926,0.3544922,2.3951817,2.3823242,1.9741192,4.529459c-0.4210587,2.1471367-1.9874668,3.6002598-3.4986973,3.2457676
					c-0.2877598-0.0673828-0.5528965-0.1956367-0.7905273-0.3738594l-0.0014648,0.003418
					c-1.0302734,2.3432617-2.4734688,4.3735352-4.159668,5.7384453h35.996582c1.4728165,0,2.6666641-1.1940117,2.6666641-2.6666679
					V4.0006151C62.6665955,2.5277963,61.4727478,1.3339486,59.9999313,1.3339486z"/>
			</g>
		</g>
		<g>
			<path fill="#32548C" d="M27.5390625,43.2291412c-0.401062-0.057251-0.765625-0.1015625-1.90625-0.130188
				c-0.395813-0.010437-0.75-0.2369995-0.927063-0.5911255c-0.333374-0.661499-1.140625-0.921875-1.791687-0.59375
				c-0.65625,0.3306885-0.921875,1.1328125-0.59375,1.791626c0.619812,1.234375,1.864563,2.0234375,3.244812,2.0599365
				c0.958313,0.0234375,1.265625,0.057251,1.6067505,0.104126c5.3776245,0.7318115,9.28125,3.963562,9.28125,7.7578125
				c0,0.9453125-0.447937,1.84375-1.2317505,2.463562c-4.2526245,3.380188-9.8151245,5.2421875-15.661499,5.2421875
				c-5.8463135,0-11.4088135-1.8619995-15.6640625-5.2421875c-0.78125-0.619812-1.229126-1.5182495-1.229126-2.463562
				c0-3.8306885,4.0286255-7.104126,9.588501-7.7838135c0.2943115-0.0390625,0.7578125-0.0625,1.6119995-0.083374
				c2.046875-0.0494385,3.651062-1.6900635,3.651062-3.7369385v-0.8810425
				c0.6699219,0.1914673,1.352478,0.2924805,2.041626,0.2924805c3.567749,0,6.96875-2.6432495,9.2682495-7.135437
				c0.864563,0.161499,1.7734375-0.041626,2.572937-0.557251c1.182251-0.765625,2.041626-2.1380634,2.359375-3.7656269
				c0.567688-2.8867188-0.739624-5.5599365-2.9713745-6.0820313c-0.3203125-0.0755615-0.6536255-0.1029053-0.9869995-0.083374
				c-0.734375,0.0494995-1.192688,0.692749-1.1431885,1.4284058c0.0494385,0.7330933,0.7942505,1.3007813,1.515625,1.25
				c0.703125,0.1640625,1.265625,1.4700317,0.96875,2.9752808c-0.1744995,0.8945313-0.630249,1.6757813-1.1901245,2.0377197
				c-0.2473755,0.1588745-0.484375,0.21875-0.692688,0.1640625c-0.104187-0.0234375-0.197937-0.067688-0.291687-0.1380005
				c-0.3255005-0.2473755-0.744812-0.3359375-1.140625-0.229187c-0.3932495,0.104187-0.7213745,0.3828125-0.885437,0.7552509
				c-1.817688,4.140625-4.6484375,6.713501-7.3828125,6.713501s-5.5650635-2.572876-7.3828125-6.713501
				c-0.1640625-0.3724384-0.489563-0.6510639-0.8828125-0.7526264c-0.3984375-0.098938-0.8150635-0.020813-1.1380005,0.2213745
				c-0.0963745,0.072876-0.1953125,0.119751-0.296875,0.145813c-0.213562,0.041687-0.447937-0.0078125-0.692688-0.166687
				c-0.5599365-0.3619385-1.015625-1.1431885-1.192749-2.0390625c-0.2942505-1.5039063,0.2682495-2.8098755,1.166687-2.9908447
				c0.369812,0.015625,0.744812-0.1107178,1.0130005-0.3710938c0.270874-0.260437,0.4193115-0.6237183,0.4088745-1
				l-0.0078125-0.4765625c0-5.8463745,3.5338745-9.625,9.005188-9.625c4.109375,0,7.270874,2.1953125,8.458374,5.8736572
				c0.2265625,0.7018433,0.984375,1.0807495,1.677063,0.8607178c0.7005005-0.2265625,1.0859375-0.9779053,0.859375-1.6784058
				c-1.5598755-4.8359375-5.6692505-7.7226563-10.994812-7.7226563c-6.791626,0-11.4140625,4.6731567-11.661438,11.6940308
				c-1.9661255,0.75-3.0703125,3.2564697-2.541687,5.947876C5.677063,31.6041393,6.536438,32.9765778,7.71875,33.7422028
				c0.796875,0.515625,1.7057495,0.713501,2.5703125,0.5598755c1.2471924,2.432251,2.8184814,4.3167725,4.5625,5.5385132v2.1828613
				c0,0.5859375-0.4609375,1.057251-1.0494995,1.0703125c-1.0025635,0.026001-1.5442505,0.0598755-1.880188,0.104126
				C5.0130005,44.0416412,0,48.4297028,0,53.6275787c0,1.7630615,0.8151245,3.421875,2.2369995,4.552124
				c4.723938,3.7525635,10.875,5.8203125,17.322876,5.8203125c6.447937,0,12.598999-2.067749,17.3203125-5.8203125
				c1.4244995-1.130249,2.239624-2.7890625,2.239624-4.625C39.119812,48.4843903,34.244812,44.1406403,27.5390625,43.2291412z"/>
			<path fill="#32548C" d="M60,0.0000134H20.354187c-2.2057495,0-4,1.7942505-4,4v5.4453125
				c0,0.7369385,0.5963135,1.333313,1.333313,1.333313s1.333313-0.5963745,1.333313-1.333313V4.0000134
				c0-0.7357178,0.598999-1.333374,1.333374-1.333374H60c0.734375,0,1.333313,0.5976563,1.333313,1.333374v31.6666279
				c0,0.734375-0.598938,1.333374-1.333313,1.333374H30.2942505c-0.7369385,0-1.333313,0.5963135-1.333313,1.333313
				s0.5963745,1.333313,1.333313,1.333313H60c2.2057495,0,4-1.7942505,4-4V4.0000134
				C64,1.7942638,62.2057495,0.0000134,60,0.0000134z"/>
			<path fill="#32548C" d="M51.604187,8.4166393H28.75c-0.7369995,0-1.333313,0.5963745-1.333313,1.333374
				c0,0.7369385,0.5963135,1.333313,1.333313,1.333313h22.854187c0.7369385,0,1.333313-0.5963745,1.333313-1.333313
				C52.9375,9.0130138,52.3411255,8.4166393,51.604187,8.4166393z"/>
			<path fill="#32548C" d="M51.604187,18.0000134h-17.875c-0.7369995,0-1.333374,0.5963135-1.333374,1.333313
				s0.5963745,1.333313,1.333374,1.333313h17.875c0.7369385,0,1.333313-0.5963135,1.333313-1.333313
				S52.3411255,18.0000134,51.604187,18.0000134z"/>
			<path fill="#32548C" d="M51.604187,27.5833263H37.1848755c-0.7369385,0-1.333313,0.5963745-1.333313,1.333313
				c0,0.7369995,0.5963745,1.333374,1.333313,1.333374H51.604187c0.7369385,0,1.333313-0.5963745,1.333313-1.333374
				C52.9375,28.1797009,52.3411255,27.5833263,51.604187,27.5833263z"/>
		</g>
	</g>
</g>
<g id="advanced_x5F_forum">
</g>
<g id="subcourse">
</g>
<g id="lesson_1_">
</g>
<g id="adaptive_x5F_quiz">
</g>
<g id="ou_x5F_wiki">
</g>
<g id="support_x5F_tracker">
</g>
<g id="view_x5F_comments">
</g>
<g id="no_x5F_comment">
</g>
<g id="attention">
</g>
<g id="search">
</g>
<g id="submitted">
</g>
<g id="feedback">
</g>
<g id="dnd_x5F_arrow">
</g>
</svg>
