<?xml version="1.0" encoding="utf-8"?>
<!-- Generator: Adobe Illustrator 21.0.0, SVG Export Plug-In . SVG Version: 6.00 Build 0)  -->
<svg version="1.1" xmlns="http://www.w3.org/2000/svg" xmlns:xlink="http://www.w3.org/1999/xlink" x="0px" y="0px" width="16px"
	 height="16px" viewBox="0 0 16 16" enable-background="new 0 0 16 16" xml:space="preserve">
<g id="Layer_1">
</g>
<g id="Layer_2">
</g>
<g id="messages">
</g>
<g id="messages_x5F_hover">
</g>
<g id="profile">
</g>
<g id="profile_x5F_hover">
</g>
<g id="view_x5F_hover">
</g>
<g id="view_x5F_feedback">
</g>
<g id="no_x5F_feedback_x5F_to_x5F_view">
</g>
<g id="download_x5F_hover">
</g>
<g id="download">
</g>
<g id="no_x5F_feedback_x5F_download">
</g>
<g id="link_x5F_hover">
</g>
<g id="assignment_x5F_link_copy">
</g>
<g id="Layer_21">
</g>
<g id="home_x5F_hover">
</g>
<g id="home_1_">
</g>
<g id="edit_x5F_profile">
</g>
<g id="preferences">
</g>
<g id="notifications">
</g>
<g id="my_x5F_posts">
</g>
<g id="logout">
</g>
<g id="assignment">
</g>
<g id="coursework">
</g>
<g id="forum">
</g>
<g id="quiz">
</g>
<g id="book">
</g>
<g id="database">
</g>
<g id="wiki">
</g>
<g id="choice">
</g>
<g id="workshop">
</g>
<g id="certificate">
</g>
<g id="scheduler">
</g>
<g id="equella">
</g>
<g id="file">
</g>
<g id="folder">
</g>
<g id="ims_x5F_content_x5F_package">
</g>
<g id="label">
</g>
<g id="lightbox_x5F_gallery">
</g>
<g id="nln_x5F_learning_x5F_object">
</g>
<g id="page">
</g>
<g id="subpage">
</g>
<g id="tab_x5F_display">
</g>
<g id="new_x5F_label">
</g>
<g id="url">
</g>
<g id="_x33_60_x5F_degree_x5F_diagnostics">
</g>
<g id="adobe_x5F_connect">
</g>
<g id="attendance_x5F_register">
</g>
<g id="booking">
</g>
<g id="chat">
</g>
<g id="checklist">
</g>
<g id="external_x5F_tool">
</g>
<g id="face_x5F_to_x5F_face">
</g>
<g id="forumNG">
</g>
<g id="glossary">
</g>
<g id="group_x5F_choice">
</g>
<g id="journal">
</g>
<g id="mediasite_x5F_content">
</g>
<g id="nanogong_x5F_voice">
</g>
<g id="questionnaire">
</g>
<g id="scorm_x5F_package">
</g>
<g id="survey">
</g>
<g id="tutorship">
</g>
<g id="advanced_x5F_forum">
</g>
<g id="subcourse">
</g>
<g id="lesson_1_">
</g>
<g id="adaptive_x5F_quiz">
</g>
<g id="ou_x5F_wiki">
</g>
<g id="support_x5F_tracker">
</g>
<g id="view_x5F_comments">
</g>
<g id="no_x5F_comment">
</g>
<g id="attention">
</g>
<g id="search">
	<g>
		<g>
			<g opacity="0.3">
				<g>
					<path fill="#545157" d="M0.5038966,10.6235714v-0.0628128C0.5026761,10.5967617,0.5038966,10.6235714,0.5038966,10.6235714z"/>
				</g>
			</g>
			<g>
				<g>
					<path fill="#FFFFFF" d="M14.7737694,4.3310199h-0.4952955l0.0159874-3.026623
						c0.0023336-0.4417925-0.3551588-0.8011786-0.796957-0.8011786H10.552969c-0.4394808,0-0.7957678,0.3562466-0.7957678,0.7957679
						v0.0641139c0,0.4039252-0.3272409,0.7314913-0.7311659,0.7318983l-7.0797,0.0061834
						C1.1494948,2.1018779,0.5038966,2.7480402,0.5038966,3.5448811v5.6890059c0,1.1045694,0.8954304,2,1.9999999,2h0.1936724
						v1.249649c0,0.9892387,0.8019364,1.7911749,1.7911749,1.7911749H6.16817h8.6042166
						c0.3983068,0,0.721199-0.3228922,0.721199-0.721199v-8.502635C15.4935856,4.6532974,15.1713076,4.3310199,14.7737694,4.3310199
						z"/>
				</g>
			</g>
		</g>
		<g opacity="0.3">
			<g>
				<path fill="#545157" d="M0.5039127,3.5435925l-0.00043,5.6901655c-0.000071,1.10462,0.8953803,2.0001287,2,2.0001287h0.194087
					V5.0522294c0-0.3983097,0.3228936-0.7212038,0.7212036-0.7212038h10.8597193l0.0159588-3.0278559
					c0.0023251-0.4411216-0.3546257-0.7999594-0.7957535-0.7999594h-2.945715c-0.4394894,0-0.7957659,0.3562766-0.7957659,0.7957661
					v0.0641398c0,0.403937-0.3272543,0.7314992-0.7311916,0.7318792L1.9451509,2.1011863
					C1.1490095,2.1018825,0.5039639,2.7474508,0.5039127,3.5435925z"/>
			</g>
		</g>
		<g>
			<path fill="#545157" d="M8.1704216,14.7782221c-0.277832,0-0.503418-0.2255859-0.503418-0.503418
				c0-0.2773438,0.2255859-0.5029297,0.503418-0.5029297h6.6039886c0.1201172,0,0.2182617-0.0981445,0.2182617-0.2182617V5.0507813
				c0-0.1191406-0.097168-0.2163086-0.2167969-0.2163086H3.4204216c-0.1201172,0-0.2177734,0.0976563-0.2177734,0.2177734v4.8032227
				c0,0.2773438-0.2255859,0.5029297-0.503418,0.5029297c-0.2773438,0-0.5029297-0.2255859-0.5029297-0.5029297V5.0522461
				c0-0.6748047,0.5493164-1.2241211,1.2241211-1.2241211h11.3554535c0.6743164,0,1.2231445,0.5483398,1.2231445,1.2226563
				v8.5028315c0,0.675293-0.5493164,1.2246094-1.2246094,1.2246094H8.1704216z"/>
		</g>
		<g>
			<path fill="#545157" d="M0.5043983,9.269043c-0.277832,0-0.503418-0.2255859-0.503418-0.503418V3.543457
				c0-1.0727539,0.8730469-1.9453125,1.9458008-1.9453125h7.027832c0.1826172-0.0063477,0.2797852-0.1035156,0.2797852-0.2226563
				V1.2231445C9.2543983,0.5488281,9.8027382,0,10.4765663,0h3.1035004c0.6743164,0,1.2231445,0.5488281,1.2231445,1.2231445
				v0.8779297c0,0.277832-0.2255859,0.503418-0.5029297,0.503418c-0.277832,0-0.503418-0.2255859-0.503418-0.503418V1.2231445
				c0-0.1196289-0.097168-0.2167969-0.2167969-0.2167969h-3.1035004c-0.1191406,0-0.2158203,0.097168-0.2158203,0.2167969v0.1523438
				c0,0.6391602-0.4990234,1.1748047-1.1362305,1.2197266L1.9467812,2.6044922
				c-0.5180664,0-0.9394531,0.4213867-0.9394531,0.9389648v5.222168C1.007328,9.043457,0.7817421,9.269043,0.5043983,9.269043z"/>
		</g>
		<path fill="#545157" d="M8.9526405,7.5942383c-0.277832,0-0.503418-0.2255859-0.503418-0.503418
			s0.2255859-0.503418,0.503418-0.503418h4.2587738c0.2773438,0,0.5029297,0.2255859,0.5029297,0.503418
			s-0.2255859,0.503418-0.5029297,0.503418H8.9526405z"/>
		<path fill="#545157" d="M6.6189466,10.2504568v5.1540642c0,0.4977703-0.5752625,0.7750368-0.9646397,0.4649382
			l-3.2358756-2.5770321c-0.2987888-0.2379532-0.2987888-0.6919231,0-0.9298763l3.2358756-2.5770321
			C6.043684,9.47542,6.6189466,9.7526865,6.6189466,10.2504568z"/>
	</g>
</g>
<g id="submitted">
</g>
<g id="feedback">
</g>
<g id="dnd_x5F_arrow">
</g>
</svg>
