<?xml version="1.0" encoding="utf-8"?>
<!-- Generator: Adobe Illustrator 21.0.0, SVG Export Plug-In . SVG Version: 6.00 Build 0)  -->
<svg version="1.1" xmlns="http://www.w3.org/2000/svg" xmlns:xlink="http://www.w3.org/1999/xlink" x="0px" y="0px" width="64px"
	 height="64px" viewBox="0 0 64 64" enable-background="new 0 0 64 64" xml:space="preserve">
<g id="Layer_1">
</g>
<g id="Layer_2">
</g>
<g id="messages">
</g>
<g id="messages_x5F_hover">
</g>
<g id="profile">
</g>
<g id="profile_x5F_hover">
</g>
<g id="view_x5F_hover">
</g>
<g id="view_x5F_feedback">
</g>
<g id="no_x5F_feedback_x5F_to_x5F_view">
</g>
<g id="download_x5F_hover">
</g>
<g id="download">
</g>
<g id="no_x5F_feedback_x5F_download">
</g>
<g id="link_x5F_hover">
</g>
<g id="assignment_x5F_link_copy">
</g>
<g id="Layer_21">
</g>
<g id="home_x5F_hover">
</g>
<g id="home_1_">
</g>
<g id="edit_x5F_profile">
</g>
<g id="preferences">
</g>
<g id="notifications">
</g>
<g id="my_x5F_posts">
</g>
<g id="logout">
</g>
<g id="assignment">
</g>
<g id="coursework">
</g>
<g id="forum">
</g>
<g id="quiz">
	<g>
		<g>
			<path fill="#FFFFFF" d="M54.3352432,14.7833109L42.6200371,3.0681057c-1.110878-1.1108794-2.6175537-1.734965-4.1885757-1.734965
				H12.626049c-1.6357403,0-2.9617701,1.3260299-2.9617701,2.9617705v55.4757233
				c0,1.5993271,1.2965117,2.8958397,2.8958397,2.8958397h38.8792839c1.5993271,0,2.8958397-1.2965126,2.8958397-2.8958397
				V19.7829819V14.7833109z"/>
		</g>
		<g>
			<g opacity="0.3">
				<g>
					<path fill="#32548C" d="M33.4841232,54.1376076h-6.9452629c-1.3592758,0-2.4611874-1.1019096-2.4611874-2.4611855v-6.9452629
						c0-1.3592758,1.1019115-2.4611855,2.4611874-2.4611855h6.9452629c1.3592758,0,2.4611855,1.1019096,2.4611855,2.4611855
						v6.9452629C35.9453087,53.0356979,34.843399,54.1376076,33.4841232,54.1376076z"/>
				</g>
			</g>
			<path fill="#32548C" d="M30.7213345,49.3497238l-2.3525391-2.8920898
				c-0.453125-0.5566406-1.2714844-0.6416016-1.8291016-0.1879883c-0.5566406,0.4526367-0.6416016,1.2714844-0.1884766,1.8286133
				l2.4003906,2.9511719c0.4482422,0.5507813,1.1113281,0.8896484,1.8212891,0.9296875
				c0.046875,0.0024414,0.09375,0.0039063,0.1416016,0.0039063c0.6591797,0,1.29883-0.2592773,1.7724628-0.7231445
				l7.8945313-7.7363281c0.5126953-0.5029297,0.5205078-1.3256836,0.0185547-1.8383789
				c-0.5039063-0.5141602-1.3271484-0.5214844-1.8388672-0.019043l-1.6202393,1.5879517
				c-0.5751953-1.3411865-1.9071655-2.2837524-3.4569092-2.2837524h-6.9453144
				c-2.0742188,0-3.7607422,1.6870117-3.7607422,3.7607422v6.9453125c0,2.0742188,1.6865234,3.7612305,3.7607422,3.7612305
				h6.9453144c2.0742188,0,3.7607422-1.6870117,3.7607422-3.7612305c0-0.7177734-0.5820313-1.2998047-1.2998047-1.2998047
				s-1.2998047,0.5820313-1.2998047,1.2998047c0,0.640625-0.5205078,1.1616211-1.1611328,1.1616211h-6.9453144
				c-0.640625,0-1.1611328-0.5209961-1.1611328-1.1616211v-6.9453125c0-0.6401367,0.5205078-1.1611328,1.1611328-1.1611328
				h6.9453144c0.640625,0,1.1611328,0.5209961,1.1611328,1.1611328v0.7730103L30.7213345,49.3497238z"/>
		</g>
		<path opacity="0.3" fill="#32548C" d="M52.5949936,13.0430841L40.8850937,1.3331234v10.4884033
			c0,1.6357422,1.3259888,2.961792,2.961731,2.961792h8.0273438C52.7823715,14.7833185,53.2372055,13.685235,52.5949936,13.0430841z
			"/>
		<path fill="#32548C" d="M54.3348007,18.4493351c-0.7369995,0-1.333374,0.5963745-1.333374,1.333313v39.9882813
			c0,0.8619995-0.7005005,1.5625-1.5625,1.5625H12.5613623c-0.8619995,0-1.5625-0.7005005-1.5625-1.5625V4.2943659
			c0-0.8970945,0.729126-1.6275632,1.6275635-1.6275632h25.8046875c1.208374,0,2.3932495,0.489563,3.2474365,1.3437498
			l9.4375,9.4387817h-7.2682495c-0.8984375,0-1.630188-0.7304688-1.630188-1.6276245V7.2566462
			c0-0.7369995-0.5963745-1.333374-1.333374-1.333374c-0.7369385,0-1.333313,0.5963745-1.333313,1.333374v4.5650635
			c0,2.3685303,1.927063,4.2943125,4.296875,4.2943125h10.4869995c0.5390625,0,1.026001-0.3242197,1.2317505-0.822938
			s0.0911255-1.0715942-0.2890625-1.453125L43.5639267,2.1238339c-1.3723755-1.369812-3.1953125-2.1237183-5.1328125-2.1237183
			H12.6264257c-2.3671875,0-4.2942505,1.9257813-4.2942505,4.2942505v55.4765625c0,2.3320313,1.8984375,4.229187,4.229187,4.229187
			h38.8775635c2.3307495,0,4.229187-1.8971558,4.229187-4.229187V19.7826481
			C55.6681137,19.0457096,55.0717392,18.4493351,54.3348007,18.4493351z"/>
		<g opacity="0.3">
			<g>
				<path fill="#32548C" d="M23.6014729,17.3968029c0.6593857-0.3996696,1.3551502-0.7604752,2.1059761-1.0675907
					s1.5565891-0.5447645,2.4172916-0.7166023c0.8643665-0.1718388,1.7983208-0.2595863,2.8018627-0.2595863
					c1.4100895,0,2.6809978,0.1864634,3.8163929,0.5593891c1.1317329,0.3765812,2.0949898,0.9103775,2.8897629,1.6086998
					c0.7947769,0.6946659,1.4064255,1.5355759,1.8349457,2.5154209c0.4285202,0.9798431,0.6409492,2.0693722,0.6409492,3.2685852
					c0,1.1370564-0.1574898,2.1205578-0.4724693,2.9541569c-0.3149796,0.8299427-0.7141991,1.5538578-1.1939964,2.168087
					c-0.4797974,0.6142311-1.007206,1.144371-1.5858917,1.5940762c-0.5786858,0.4497032-1.1244087,0.8628464-1.6408272,1.2467422
					c-0.2058449,0.1504936-0.6408958,0.4382915-1.0914688,0.7311268c-0.8805237,0.5722713-1.41185,1.5503445-1.41185,2.5991993
					v1.1536903c-0.0526619,0.2628441-0.1959,1.0513725-0.952116,1.0513725c-0.5870895,0-2.1918564,0-3.0974178,0
					c-0.8457184,0-1.0440578-0.8358002-1.0821552-1.114399v-2.7115059c0-1.72509,0.8741264-3.3378315,2.3218441-4.2798519
					c0.1021709-0.0664806,0.1902981-0.1248417,0.2588215-0.1717339c0.5860119-0.3948631,1.1353951-0.8226318,1.6444931-1.2796478
					c0.5090961-0.457016,0.9412785-0.9652195,1.2928867-1.528265c0.3516045-0.5593872,0.5310707-1.2321167,0.5310707-2.0108738
					c0-0.8957539-0.296669-1.6123562-0.8900032-2.1424942c-0.593338-0.5337963-1.4064255-0.797039-2.4429321-0.797039
					c-0.7947769,0-1.4577007,0.0804348-1.9924355,0.2449608c-0.5310726,0.1645279-0.9888916,0.3473339-1.3697987,0.5520782
					c-0.3845692,0.201086-0.7178631,0.383894-1.0035439,0.54842c-0.2856789,0.164526-0.5676975,0.2486172-0.8533783,0.2486172
					c-0.6446114,0-1.1244068-0.2778664-1.4393864-0.8335991l-1.2011108-1.8413258
					C22.4369888,19.6869106,21.8211727,18.4758911,23.6014729,17.3968029z"/>
			</g>
		</g>
		<g>
			<path fill="#32548C" d="M32.5162582,38.1031418h-3.8535175c-1.234375,0-2.1875-0.8994141-2.3701172-2.2382813
				c-0.0078125-0.0581055-0.0117188-0.1166992-0.0117188-0.1757813v-2.7114258c0-2.1752911,1.0888672-4.1826153,2.9121094-5.3691387
				l0.2324219-0.1547852c0.5439453-0.3662109,1.0488281-0.7597656,1.5107422-1.1748047
				c0.4208984-0.3769531,0.7773438-0.7973633,1.0595703-1.2490234c0.2216816-0.3540039,0.3339863-0.7978516,0.3339863-1.3227539
				c0-0.6860352-0.2607422-0.9985352-0.4570332-1.1738281c-0.3486328-0.3139648-0.8642578-0.4658203-1.5761719-0.4658203
				c-0.6640625,0-1.2060547,0.0634766-1.609375,0.1875c-0.4560547,0.1416016-0.8398438,0.2944336-1.1376953,0.4545898
				c-0.3798828,0.1987305-0.6962891,0.3730469-0.96875,0.5297852c-0.4873047,0.2807617-0.9931641,0.4223633-1.5029297,0.4223633
				c-1.1132813,0-2.0263672-0.5302734-2.5712891-1.4931641l-1.1582031-1.7709961
				c-0.0253906-0.0390625-0.0488281-0.0795898-0.0703125-0.1210938c-0.4023438-0.7910156-0.5751953-2.6430664,1.6494141-3.9916992
				c0.7626953-0.461915,1.5107422-0.8408213,2.2880859-1.1586924c0.8183594-0.3349609,1.7119141-0.6000977,2.6542969-0.7885742
				c0.9501953-0.1889648,1.9775391-0.2841797,3.0566406-0.2841797c1.540041,0,2.9609394,0.2099609,4.2216816,0.6235352
				c1.3017578,0.4335938,2.4248047,1.0615234,3.3427734,1.8676767c0.9316406,0.8144531,1.6621094,1.8149414,2.1679649,2.9711914
				c0.4980507,1.1376953,0.75,2.4130859,0.75,3.7895508c0,1.2861328-0.1865196,2.4345703-0.5556602,3.4130859
				c-0.3613281,0.9501953-0.8271484,1.7929688-1.3867188,2.5087891c-0.5429688,0.6958008-1.1533203,1.3085938-1.8134766,1.8212891
				c-0.5849609,0.4550781-1.1386719,0.8740234-1.6621094,1.2631817c-0.2265625,0.1650391-0.6845703,0.4697266-1.1601563,0.7783203
				c-0.2138672,0.1391602-0.3935547,0.3208008-0.5332031,0.5375977c-0.3876953,0.6054688-1.1923828,0.7783203-1.796875,0.3911133
				c-0.6035175-0.3881836-0.7783222-1.1923828-0.390625-1.7963867c0.3398438-0.5283184,0.7783203-0.9697247,1.3037109-1.3124981
				c0.4296875-0.277832,0.8408203-0.5493164,1.0351563-0.6918945c0.5009766-0.371582,1.0390625-0.7788086,1.609375-1.222168
				c0.4912109-0.3818359,0.9482422-0.8417969,1.359375-1.3681641c0.3984375-0.5107422,0.7363281-1.1264648,1.0039063-1.8300781
				c0.2568359-0.6811523,0.3876953-1.5205078,0.3876953-2.4921875c0-1.015625-0.1796875-1.9399414-0.5332031-2.7470703
				c-0.3505859-0.8032227-0.8554688-1.4956055-1.4990234-2.0581055c-0.6582031-0.578125-1.4794922-1.0332031-2.4453125-1.3544922
				c-0.9931641-0.3261719-2.140625-0.4926758-3.4052753-0.4926758c-0.9091797,0-1.7666016,0.0791016-2.5478516,0.234375
				c-0.7802734,0.1557617-1.5136719,0.3730469-2.1787109,0.6450195c-0.6503906,0.2661133-1.2802734,0.5854492-1.9248047,0.9760742
				c-0.4277344,0.2592773-0.6416016,0.5361328-0.6748047,0.5825195l1.1269531,1.7270508
				c0.1210938,0.2089844,0.1660156,0.2441406,0.3505859,0.2441406c0.0644531,0,0.15625-0.0473633,0.2050781-0.0756836
				c0.296875-0.1713867,0.6464844-0.3632813,1.0488281-0.5737305c0.4384766-0.2358398,0.9619141-0.4477539,1.5878906-0.6416016
				c0.6630859-0.2045898,1.4404297-0.3032227,2.3769531-0.3032227c1.3632813,0,2.4785175,0.3798828,3.3125019,1.1298828
				c0.8632813,0.7719727,1.3203125,1.8481445,1.3203125,3.109375c0,1.0219727-0.2451172,1.9311523-0.7304688,2.7026367
				c-0.4101563,0.6567383-0.9238281,1.2646484-1.5253906,1.8041992c-0.5507813,0.4946289-1.1513691,0.9624023-1.7861347,1.3901367
				l-0.2783203,0.1850586c-1.0810547,0.7036133-1.7285156,1.8959961-1.7285156,3.1884747v2.5258789h3.6357441
				c0.7177734,0,1.2998047,0.5820313,1.2998047,1.2998047S33.2340317,38.1031418,32.5162582,38.1031418z"/>
		</g>
	</g>
</g>
<g id="book">
</g>
<g id="database">
</g>
<g id="wiki">
</g>
<g id="choice">
</g>
<g id="workshop">
</g>
<g id="certificate">
</g>
<g id="scheduler">
</g>
<g id="equella">
</g>
<g id="file">
</g>
<g id="folder">
</g>
<g id="ims_x5F_content_x5F_package">
</g>
<g id="label">
</g>
<g id="lightbox_x5F_gallery">
</g>
<g id="nln_x5F_learning_x5F_object">
</g>
<g id="page">
</g>
<g id="subpage">
</g>
<g id="tab_x5F_display">
</g>
<g id="new_x5F_label">
</g>
<g id="url">
</g>
<g id="_x33_60_x5F_degree_x5F_diagnostics">
</g>
<g id="adobe_x5F_connect">
</g>
<g id="attendance_x5F_register">
</g>
<g id="booking">
</g>
<g id="chat">
</g>
<g id="checklist">
</g>
<g id="external_x5F_tool">
</g>
<g id="face_x5F_to_x5F_face">
</g>
<g id="forumNG">
</g>
<g id="glossary">
</g>
<g id="group_x5F_choice">
</g>
<g id="journal">
</g>
<g id="mediasite_x5F_content">
</g>
<g id="nanogong_x5F_voice">
</g>
<g id="questionnaire">
</g>
<g id="scorm_x5F_package">
</g>
<g id="survey">
</g>
<g id="tutorship">
</g>
<g id="advanced_x5F_forum">
</g>
<g id="subcourse">
</g>
<g id="lesson_1_">
</g>
<g id="adaptive_x5F_quiz">
</g>
<g id="ou_x5F_wiki">
</g>
<g id="support_x5F_tracker">
</g>
<g id="view_x5F_comments">
</g>
<g id="no_x5F_comment">
</g>
<g id="attention">
</g>
<g id="search">
</g>
<g id="submitted">
</g>
<g id="feedback">
</g>
<g id="dnd_x5F_arrow">
</g>
</svg>
