<?xml version="1.0" encoding="utf-8"?>
<!-- Generator: Adobe Illustrator 21.0.0, SVG Export Plug-In . SVG Version: 6.00 Build 0)  -->
<svg version="1.1" xmlns="http://www.w3.org/2000/svg" xmlns:xlink="http://www.w3.org/1999/xlink" x="0px" y="0px" width="64px"
	 height="64px" viewBox="0 0 64 64" enable-background="new 0 0 64 64" xml:space="preserve">
<g id="Layer_1">
</g>
<g id="Layer_2">
</g>
<g id="messages">
</g>
<g id="messages_x5F_hover">
</g>
<g id="profile">
</g>
<g id="profile_x5F_hover">
</g>
<g id="view_x5F_hover">
</g>
<g id="view_x5F_feedback">
</g>
<g id="no_x5F_feedback_x5F_to_x5F_view">
</g>
<g id="download_x5F_hover">
</g>
<g id="download">
</g>
<g id="no_x5F_feedback_x5F_download">
</g>
<g id="link_x5F_hover">
</g>
<g id="assignment_x5F_link_copy">
</g>
<g id="Layer_21">
</g>
<g id="home_x5F_hover">
</g>
<g id="home_1_">
</g>
<g id="edit_x5F_profile">
</g>
<g id="preferences">
	<g>
		<g>
			<g>
				<g>
					<path fill="#FFFFFF" d="M40.1481895,38.4915009l2.5062714-1.0336609
						c0.7574654-0.3123283,1.1179695-1.1796494,0.8056412-1.9369507l-1.8917084-4.586937
						c-0.3123283-0.7573013-1.1794891-1.1182938-1.9369507-0.8059654l-2.5062714,1.033659
						c-0.6067543,0.2503185-1.2836533,0.0506172-1.7033997-0.4537621c-0.6515083-0.7833405-1.3676338-1.4983253-2.1373024-2.1415348
						c-0.5042191-0.4213753-0.6993599-1.0979481-0.4469261-1.7047005l1.0414696-2.5036678
						c0.3146057-0.7563248,0.0882149-1.5591965-0.6681099-1.8738022l-4.7130718-1.9712944
						c-0.7563248-0.3146057-1.6246262,0.0434551-1.9392319,0.799942l-1.0413094,2.5035057
						c-0.2524338,0.6067524-0.8700905,0.945446-1.5243664,0.884901c-0.9986687-0.0926075-2.0106812-0.0963516-3.0254612-0.0065117
						c-0.6537895,0.0581055-1.2725849-0.2814026-1.5227413-0.8879929l-1.0338211-2.5064335
						c-0.3123283-0.7573013-1.1794891-1.1181297-1.9367905-0.8058014l-4.5872622,1.8920307
						c-0.7573004,0.3123283-1.1179667,1.1794891-0.8056393,1.9367905l1.0336599,2.5064335
						c0.2501554,0.6064262,0.0504541,1.2836514-0.4540873,1.7033978c-0.7831793,0.6515102-1.4981642,1.3676338-2.1412106,2.1373043
						c-0.4213743,0.504055-1.0982742,0.6993599-1.7050261,0.4469261l-2.5035043-1.0414715
						c-0.7563248-0.3147678-1.6246247,0.043293-1.9392312,0.7996178l-1.9058661,4.5814018
						c-0.3146063,0.7563248,0.0434557,1.6246262,0.7997801,1.9392319l2.5036669,1.0414734
						c0.606915,0.2524338,0.9454465,0.8699265,0.8847389,1.5243645c-0.092608,0.9986687-0.0963516,2.0105209-0.0063477,3.0254631
						c0.057941,0.6536255-0.281404,1.2724228-0.8881564,1.5227394l-2.5062711,1.0336609
						c-0.757301,0.3123283-1.117967,1.1794891-0.8056394,1.9369507l1.8917066,4.586937
						c0.3124905,0.7573013,1.1796515,1.1181297,1.9369524,0.8058014l2.5062709-1.0336571
						c0.6067529-0.2501564,1.2836528-0.050457,1.7033982,0.4539223c0.6516733,0.7833443,1.3676348,1.4984894,2.1371422,2.1417007
						c0.5043793,0.4213715,0.699523,1.0979462,0.4470892,1.7047005l-1.0414724,2.5035019
						c-0.3146057,0.7563248,0.0434561,1.6246262,0.7997808,1.9392319l4.5814028,1.9058685
						c0.7563248,0.3146057,1.6246243-0.043457,1.93923-0.7997818l1.0414734-2.5035057
						c0.2524338-0.6067505,0.8699265-0.9456062,1.5243664-0.8848991c0.9986687,0.0926056,2.010519,0.0963516,3.0252991,0.0063477
						c0.6536255-0.0579414,1.272747,0.2814026,1.5229015,0.8881569l1.033823,2.5064316
						c0.3121643,0.7571373,1.1793251,1.1179695,1.9367905,0.8056412l4.5870972-1.8918686
						c0.7574654-0.3123283,1.1181297-1.1796532,0.8058052-1.9367905l-1.0338249-2.5064354
						c-0.2501526-0.6067505-0.0504532-1.2836533,0.4540901-1.7033958c0.7831764-0.6516762,1.4981613-1.3676376,2.1413727-2.1373062
						c0.4213715-0.5043793,1.0981102-0.6993599,1.7048607-0.4469261l2.5033417,1.0414734
						c0.7564888,0.3146057,1.6247902-0.043457,1.9393959-0.7997818l1.9058647-4.5814018
						c0.3146057-0.7563248-0.0434532-1.6246262-0.799778-1.9392319l-2.5035057-1.0414734
						c-0.6067505-0.2524338-0.945282-0.8699265-0.8847389-1.5242043c0.0924454-0.9986687,0.0960274-2.0106812,0.0061836-3.0256233
						C39.201931,39.3606148,39.5414391,38.7416573,40.1481895,38.4915009z M25.9256439,49.9140015
						c-4.647644,1.9167709-9.9692593-0.2970276-11.8860302-4.9446716c-1.9169331-4.647644,0.2968664-9.9692574,4.9445114-11.8860283
						c4.647644-1.916935,9.9692574,0.2968636,11.8861923,4.9446716
						C32.7870865,42.6756172,30.573288,47.9972305,25.9256439,49.9140015z"/>
				</g>
			</g>
			<g>
				<g>
					<path fill="#FFFFFF" d="M62.656292,14.2912321c-0.0016289-0.5519037-0.4505081-0.9981794-1.0024109-0.9965515
						l-1.826767,0.0056963c-0.4423714,0.0014648-0.8136139-0.2957268-0.9467506-0.7174263
						c-0.2066994-0.6547651-0.4710121-1.283164-0.7870827-1.8806391c-0.2070274-0.391427-0.1562462-0.8630924,0.1559181-1.1772099
						l1.2880478-1.2960215c0.3891487-0.3915896,0.4526215-0.9500036,0.0610313-1.3389893l-2.4369354-2.4314036
						c-0.3914261-0.3891482-1.0243835-0.3871951-1.4135323,0.0045571l-1.2877197,1.2958589
						c-0.3121643,0.3141179-0.7838326,0.3678274-1.1763954,0.1632438c-0.5994301-0.3123279-1.2294579-0.5727363-1.8853607-0.7753668
						c-0.4226761-0.1305299-0.7219849-0.5001473-0.7234459-0.9423542l-0.0055351-1.826767
						c-0.0017891-0.5519036-0.4506721-0.9981791-1.0025749-0.9963888l-3.343647,0.0102537
						c-0.5519028,0.0017903-0.9980164,0.4506698-0.9963875,1.0025734l0.0056953,1.8269298
						c0.0013008,0.4420438-0.2958908,0.8134518-0.7175903,0.9465857c-0.6546021,0.2066994-1.2831612,0.4710145-1.8804741,0.7870855
						c-0.3914261,0.2070246-0.8632545,0.1560822-1.177372-0.15592L40.2611427,4.510932
						c-0.3915901-0.3891482-1.0243835-0.3871951-1.4135323,0.0042315L36.4907494,6.886673
						c-0.3891487,0.3915896-0.3871956,1.0243826,0.0043945,1.4135313l1.2960205,1.2880459
						c0.3141212,0.3121653,0.3678284,0.7835054,0.1630821,1.1762342c-0.3123283,0.5992651-0.5727348,1.229454-0.7753677,1.8855219
						c-0.1305275,0.4223499-0.4999847,0.7218199-0.9421883,0.7231216l-1.826767,0.0056973
						c-0.5520668,0.001627-0.9981804,0.4506693-0.9963913,1.0027361l0.0102539,3.3431587
						c0.0017891,0.5520668,0.4505081,0.9983425,1.0025749,0.9965515l1.826767-0.0056953
						c0.4422073-0.0013027,0.8134499,0.2958889,0.9465866,0.7175884c0.2066994,0.6546021,0.4710121,1.2833271,0.7869225,1.8806381
						c0.2071877,0.391428,0.1564064,0.8632565-0.1557579,1.1772099l-1.2880478,1.2960224
						c-0.3889847,0.3914261-0.3870316,1.0242195,0.0043945,1.4133682l2.3715096,2.3568611
						c0.3915901,0.3891487,1.0243835,0.3871956,1.4135323-0.0042305l1.2878838-1.2960224
						c0.3121643-0.3139553,0.7836647-0.3678265,1.1763954-0.1632442c0.5992661,0.3124905,1.229454,0.5729008,1.8853607,0.7755299
						c0.422348,0.1305313,0.721981,0.4999847,0.7232819,0.9421921l0.0056992,1.8269291
						c0.0016251,0.5519047,0.4505043,0.9980164,1.0025711,0.9963894l3.3434868-0.010416
						c0.5520668-0.0016289,0.9981804-0.4506702,0.9963875-1.0025749l-0.0056953-1.826767
						c-0.0013008-0.4422054,0.2958908-0.8136139,0.7175903-0.9467468c0.6546021-0.2066994,1.2831612-0.4710159,1.8804741-0.7870865
						c0.3914261-0.2070236,0.8634186-0.1560822,1.177372,0.1560822l1.2958603,1.2878838
						c0.3915901,0.3891487,1.0243835,0.3871956,1.4135323-0.0043945l2.3568611-2.3715076
						c0.3891487-0.391428,0.3871956-1.0242214-0.0042343-1.4133682l-1.2960205-1.2878857
						c-0.3139534-0.3121643-0.3678284-0.7836666-0.1632423-1.1763954c0.3124886-0.5992661,0.5727348-1.229454,0.775528-1.8855209
						c0.1303673-0.422514,0.4999847-0.7218208,0.9421921-0.7232857l1.826767-0.0055332
						c0.5520668-0.001791,0.9980164-0.4506702,0.9963875-1.002737L62.656292,14.2912321z M48.0600586,22.1406002
						c-3.3874283,0.0105801-6.142067-2.727129-6.1524811-6.1147213c-0.0104179-3.3875914,2.7272911-6.1422272,6.1147194-6.1528063
						c3.3875923-0.010416,6.142231,2.727293,6.1526451,6.1148844C54.18536,19.3755493,51.4476509,22.1301842,48.0600586,22.1406002z
						"/>
				</g>
			</g>
		</g>
		<g>
			<path fill="#545157" d="M22.4674168,51.9342842c-3.1795902,0-6.3253288-1.4452667-8.3721399-4.1821632
				c-1.6588039-2.221283-2.3540955-4.9685974-1.9530659-7.7393456c0.3984251-2.7707481,1.8410892-5.2107773,4.0597715-6.8695793
				c2.5728378-1.9244213,5.9633598-2.5650272,9.0518074-1.6952629c0.7109146,0.1979103,1.1249657,0.9322624,0.9270535,1.6405754
				c-0.1953049,0.7109146-0.9166374,1.1327782-1.6405735,0.9270554c-2.3124294-0.6353989-4.8253746-0.1692657-6.739378,1.2629814
				c-3.4321861,2.5650253-4.1352901,7.442482-1.5702648,10.8746681c2.5676308,3.4321861,7.4450855,4.1352882,10.8772717,1.5702629
				c3.4295826-2.567627,4.1326866-7.4450836,1.5676613-10.8746681c-0.4400902-0.5911255-0.320303-1.4270363,0.2682209-1.8671303
				c0.5885239-0.4400902,1.4218311-0.3203011,1.8671303,0.2682228c3.4452076,4.6066284,2.5025272,11.1611176-2.1041031,14.6089287
				C26.8344707,51.257225,24.6418285,51.9342842,22.4674168,51.9342842z"/>
		</g>
		<g>
			<path fill="#545157" d="M27.8708973,63.9521484c-1.1067371,0-2.1587887-0.6562309-2.6066914-1.7421341l-1.033823-2.5077362
				c-1.2473583,0.03125-2.3436775,0.0260391-3.4373951-0.0729141l-1.2108994,2.5728378
				c-0.2916584,0.692688-0.8333092,1.2343369-1.5286007,1.5207863c-0.6926861,0.2864494-1.4582882,0.2838478-2.1561832-0.0026054
				l-4.5805893-1.906189c-1.4322472-0.5963364-2.1145182-2.2473297-1.5207863-3.6795769l1.0416346-2.5077362
				c-0.9010143-0.8593483-1.6770325-1.63797-2.3775311-2.4816933l-2.677002,0.960907
				c-0.695291,0.2890549-1.4608927,0.2864494-2.1509757-0.0026054c-0.6952913-0.2890511-1.2369413-0.8307037-1.523391-1.5285988
				l-1.8931712-4.5857964c-0.2890537-0.6952896-0.2864496-1.4608917,0.0026041-2.1561852
				c0.2890537-0.6952896,0.8333078-1.2343369,1.528599-1.5207863l2.5051315-1.0338211
				c-0.0286446-1.2655869-0.0260406-2.3645096,0.0755186-3.4399986l-2.5754418-1.2108994
				c-1.4322479-0.5989418-2.1145186-2.2499313-1.5181826-3.6847839L2.1399128,30.36203
				c0.5963359-1.4309464,2.2525351-2.1106129,3.6821792-1.5181828l2.5051317,1.0429363
				c0.8723688-0.9114304,1.648387-1.6874485,2.4790907-2.3788338l-0.9556999-2.677002
				c-0.2864494-0.6939888-0.2864494-1.4595909,0.0026045-2.1535797c0.2864494-0.6952915,0.8307037-1.2356396,1.5259943-1.5233898
				l4.5884018-1.8918705c0.687479-0.2838459,1.4556847-0.2877502,2.1535797,0.0039063
				c0.692688,0.2877522,1.2343369,0.8294029,1.5207863,1.5246925l1.033823,2.5077362
				c1.2577744-0.0299473,2.3540955-0.0247383,3.4399986,0.0742168l1.2109013-2.5715351
				c0.5963364-1.4348526,2.2421188-2.1158218,3.684782-1.5194855l4.7160034,1.9725952
				c0.7161217,0.2981682,1.244751,0.8593502,1.4843292,1.57938c0.2135353,0.6419067,0.1770782,1.3658428-0.1015587,2.0376968
				l-1.0416374,2.5025291c0.9062233,0.8684616,1.6822433,1.6457825,2.377533,2.4803925l2.677002-0.9596062
				c1.4296417-0.5898266,3.0832367,0.0963516,3.6769714,1.532505l1.890564,4.5857964
				c0.5937347,1.4348526-0.0937462,3.0858421-1.5285988,3.6769714l-2.5051308,1.0338211
				c0.0286446,1.2655869,0.0260429,2.3645134-0.0755196,3.4399986l2.5728378,1.2109032
				c0.6952934,0.2890511,1.2343407,0.8333054,1.5207901,1.5285988c0.2864494,0.6952896,0.2864494,1.4608917-0.0026054,2.1535797
				l-1.9035873,4.5805893c-0.2916565,0.6952896-0.8333092,1.2369423-1.5285988,1.5233917
				c-0.692688,0.2864494-1.4582901,0.283844-2.1561852-0.0026054l-2.5051308-1.0416336
				c-0.8645592,0.9036179-1.6431808,1.6796341-2.4764862,2.3749275l0.9556999,2.6796036
				c0.5937309,1.4348526-0.09375,3.0858421-1.5285988,3.6769714l-4.5884018,1.8905678
				C28.5922279,63.8844414,28.2276573,63.9521484,27.8708973,63.9521484z M8.3246193,50.4004784
				c0.8228922,0,1.6275549,0.3671761,2.1874332,1.0416336c0.5937319,0.7161255,1.2551699,1.3775635,1.9634819,1.9660873
				c0.966116,0.8124771,1.2942314,2.1119156,0.8254957,3.2446938l-1.0416355,2.5051308l4.6639204,2.0988922l1.2369404-2.583252
				c0.4687366-1.1301727,1.6457844-1.8020287,2.8775177-1.70047c0.9374714,0.0885391,1.8723373,0.0859337,2.7837677,0.0052071
				c1.2603779-0.1093712,2.4087811,0.5781097,2.8723087,1.7082825l1.033823,2.5077362l4.7863121-1.8098412l-0.9530964-2.7056465
				c-0.4687366-1.1327782-0.1328087-2.4348221,0.8359127-3.2368813c0.7109146-0.5937309,1.374958-1.2551689,1.968689-1.9660835
				c0.8098717-0.960907,2.1067047-1.2942314,3.2394829-0.8228912l2.5051346,1.0416336l2.0988922-4.6613159l-2.5832558-1.2369423
				c-1.1301727-0.4713402-1.8150482-1.627552-1.7004662-2.8801193c0.0859337-0.9166374,0.0885391-1.8541107,0.0078125-2.7837677
				c-0.1145821-1.2473602,0.5728989-2.4061775,1.7082787-2.8723106l2.5051346-1.0338211l0.0807266-0.1979103l-1.8905678-4.5857964
				l-2.7030449,0.9504929c-1.1379852,0.4713364-2.4374237,0.1302032-3.2368774-0.8333092
				c-0.5911293-0.7109165-1.2551727-1.374958-1.9686928-1.9712944c-0.9635105-0.8046627-1.2942295-2.1067066-0.8228893-3.2394848
				l1.0416355-2.5025272L27.982872,21.743803l-1.2343369,2.5845566c-0.4765472,1.1353817-1.6666164,1.7942162-2.8801193,1.7004681
				c-0.9218483-0.0872364-1.8619232-0.0898399-2.7837696-0.0065098c-1.2265244,0.1028614-2.4061775-0.5728989-2.8723087-1.7082806
				l-1.033823-2.5064335l-4.7837067,1.8124447l0.9504919,2.7017403c0.4713392,1.1288719,0.1354122,2.4322166-0.8333082,3.2368793
				c-0.7057076,0.5872211-1.36975,1.2512646-1.9686899,1.9673882c-0.8072672,0.9609089-2.1119146,1.2968349-3.2420883,0.8228931
				L4.7986856,31.307312l-2.1014981,4.6613159l2.5858583,1.2369423c1.1301742,0.4713402,1.8150487,1.6275558,1.700469,2.8801193
				c-0.0859351,0.9166374-0.0885391,1.8541107-0.0078125,2.7837715c0.1093717,1.2525635-0.5755029,2.4061737-1.708281,2.8723068
				L2.7622898,46.775589l1.8098404,4.7837105l2.7030425-0.9504929C7.6163077,50.4681854,7.9730678,50.4004784,8.3246193,50.4004784z
				"/>
		</g>
		<g>
			<path fill="#545157" d="M48.0473633,23.4781246c-1.322876,0-2.630127-0.35676-3.8045731-1.0520496
				c-1.7239037-1.0208035-2.9452209-2.6405449-3.4373932-4.5636635c-1.023407-3.9894609,1.390583-8.0661592,5.380043-9.0895653
				c1.8228607-0.4661322,3.736866-0.2343683,5.3982735,0.6588335c0.6484184,0.3502502,0.8905983,1.1588192,0.5416489,1.8072367
				c-0.3515511,0.6484175-1.1614227,0.8919001-1.8072357,0.5416498c-1.0676765-0.5768051-2.3020134-0.7291441-3.4712486-0.4244661
				c-2.5650253,0.6575317-4.1170616,3.2798481-3.4582253,5.8448734c0.315094,1.2317333,1.1015282,2.2733688,2.2108688,2.9295979
				c1.1119461,0.6588345,2.4035721,0.8437233,3.6327019,0.529932c1.2317314-0.3163967,2.2733688-1.1015282,2.9322014-2.2121716
				c0.6562309-1.1106434,0.8437233-2.4009686,0.5286293-3.6340036c-0.1822853-0.7135201,0.2473869-1.4400606,0.960907-1.6223469
				c0.723938-0.183588,1.4400597,0.2473888,1.6223488,0.9609079c0.4921722,1.9218159,0.2031174,3.9308701-0.8176842,5.6534729
				c-1.0208015,1.7239056-2.6405449,2.9452229-4.5649643,3.4373951
				C49.2817001,23.4000034,48.6619263,23.4781246,48.0473633,23.4781246z"/>
		</g>
		<g>
			<path fill="#545157" d="M49.7113762,31.9687519h-3.3436508c-1.2864189,0-2.3332596-1.0468445-2.3332596-2.3332634v-1.5702648
				c-0.5781097-0.1913986-1.1431961-0.4270687-1.6874504-0.6991959l-1.1093407,1.1093407
				c-0.9114304,0.9062214-2.3879471,0.9101276-3.2993774,0l-1.4114151-1.4101143
				c-0.5208168-0.5195141-0.5208168-1.3645401,0-1.8853588c0.5208168-0.5208168,1.3645401-0.5208168,1.8853569,0
				l1.1744461,1.1744442l1.0572586-1.0559578c0.7161255-0.7200298,1.8176537-0.8814831,2.7368965-0.3984241
				c0.5312309,0.2786369,1.0885086,0.5104008,1.6640091,0.6900826c0.992157,0.3111877,1.6562004,1.2030869,1.6562004,2.2173805
				v1.4947453h2.677002v-1.4947453c0-1.0142937,0.6640434-1.9061928,1.653595-2.2173805
				c0.5807114-0.1796818,1.1379852-0.4114456,1.6614075-0.687479c0.9166374-0.4804535,2.020771-0.3229065,2.7421036,0.3932171
				l1.0572586,1.0585613l1.8931732-1.8931713l-1.054657-1.0572586c-0.7213326-0.7135201-0.8827858-1.8163509-0.4010277-2.7381992
				c0.283844-0.5338364,0.5130043-1.0911121,0.6900826-1.658802c0.3124886-0.9947624,1.2030869-1.6601067,2.2186813-1.6601067
				h1.4947472v-2.677001h-1.4947472c-1.0155945,0-1.9061928-0.6653442-2.2160797-1.6548967
				c-0.1796799-0.5715971-0.4088402-1.1301746-0.6900826-1.6627102c-0.4843597-0.9218464-0.3229065-2.0233755,0.4010315-2.7434053
				l1.0520515-1.0533533l-1.8957748-1.8892651l-1.0520515,1.0520511c-0.723938,0.7187281-1.8254662,0.8814836-2.739502,0.3984251
				c-0.5286293-0.2786369-1.0859032-0.5104008-1.6640091-0.6913848c-0.9895554-0.3085842-1.6562004-1.199182-1.6562004-2.2160783
				V2.7144375h-2.677002v1.4947457c0,1.0168962-0.6666451,1.9074941-1.658802,2.21738
				c-0.5702972,0.1796823-1.1301765,0.4114461-1.6588058,0.6887813c-0.9244499,0.4843602-2.020771,0.3216047-2.7394981-0.3971233
				l-1.0572586-1.0572596L37.693512,7.5554352l1.0572586,1.0546551c0.7187309,0.7239361,0.8775787,1.8241634,0.3958244,2.7408018
				c-0.2734299,0.5234213-0.5051956,1.0833006-0.6900864,1.664012c-0.3098831,0.9895525-1.2004814,1.6548967-2.2160759,1.6548967
				h-1.4947472v2.677001h1.4947472c1.0155945,0,1.9061928,0.6653442,2.2186813,1.6548977
				c0.1822853,0.5820141,0.4140511,1.1405907,0.6874809,1.6601048c0.3437386,0.6523247,0.0937462,1.4582901-0.5572777,1.8020287
				c-0.645813,0.3398342-1.4556847,0.0976543-1.8020248-0.5572739c-0.3150978-0.5989399-0.5859222-1.2343369-0.8046646-1.8931713
				H34.412365c-1.2864189,0-2.3332634-1.0468426-2.3332634-2.3332615v-3.3449507
				c0-1.2864189,1.0468445-2.3319597,2.3332634-2.3319597h1.5702629c0.1953049-0.5833158,0.4296761-1.149704,0.7005005-1.6887503
				l-1.1119461-1.1080389C34.664959,8.2936935,34.664959,6.8171763,35.5685768,5.90835l2.3697205-2.368417
				c0.8775787-0.8801813,2.4165916-0.8866916,3.2993774,0l1.1093407,1.1106431
				c0.5442543-0.2734289,1.1093407-0.5077968,1.6874504-0.7004995V2.3811142c0-1.2864189,1.0468407-2.333262,2.3332596-2.333262
				h3.3436508c1.2864189,0,2.3332596,1.0468431,2.3332596,2.333262v1.5689623
				c0.5833168,0.1940045,1.1510086,0.4296746,1.690052,0.7004995l1.1093407-1.1106431
				c0.9348679-0.9361691,2.3254509-0.9661162,3.2238617-0.0651021l2.4374237,2.4296134
				c0.4426956,0.4413924,0.6874809,1.0273123,0.6874809,1.650991s-0.2447853,1.2095985-0.6848755,1.6496887l-1.1093407,1.1106434
				c0.2734299,0.5455561,0.5077972,1.1119452,0.6978951,1.6874485h1.5702629C62.9531555,12.0032158,64,13.0487566,64,14.3351755
				v3.3449507c0,1.2864189-1.0468445,2.3332615-2.3332634,2.3332615h-1.5702629
				c-0.1900978,0.5742016-0.4244652,1.1405907-0.6978951,1.6861458l1.1093407,1.1119461
				c0.4400902,0.4400902,0.6848755,1.0260105,0.6848755,1.6496887s-0.2447853,1.2095985-0.6848755,1.6496887l-2.3645096,2.3645115
				c-0.8801842,0.8801804-2.4191971,0.8840866-3.2993813,0l-1.1093407-1.1093407
				c-0.5390434,0.2708244-1.1067352,0.5064945-1.690052,0.6991959v1.5702648
				C52.0446358,30.9219074,50.9977951,31.9687519,49.7113762,31.9687519z M59.2136879,21.5146427v0.0026054
				C59.2136879,21.5159454,59.2136879,21.5146427,59.2136879,21.5146427z M44.2453957,3.8810685c0,0,0,0,0,0.001302
				C44.2453957,3.8810685,44.2453957,3.8810685,44.2453957,3.8810685z"/>
		</g>
		<g opacity="0.3">
			<g>
				<path fill="#545157" d="M39.6314888,30.1281013l-2.506279,1.033659
					c-0.6067123,0.2502251-1.2836571,0.0505447-1.7033577-0.4538956c-0.651638-0.7833252-1.3676376-1.498333-2.1373253-2.1414337
					c-0.5043526-0.42136-0.6994629-1.097971-0.447052-1.7047291l1.0415611-2.503746
					c0.31464-0.7563343,0.0882645-1.5591335-0.6680717-1.8737717l-4.7131405-1.9713078
					c-0.7563343-0.3146381-1.6245575,0.0434418-1.9392948,0.8000164l-1.0412922,2.5034351
					c-0.2524109,0.6067581-0.870018,0.9454193-1.5243435,0.8849068c-0.9987144-0.0925579-2.0105839-0.0963459-3.0253658-0.0063972
					c-0.6538143,0.0579967-1.2727203-0.2815399-1.5228767-0.8880825l-1.0337276-2.5064507
					c-0.3122883-0.7571964-1.17943-1.1180706-1.9367981-0.8057117l-4.587244,1.8919067
					c-0.7573671,0.3123589-1.118,1.1795998-0.8057108,1.9367962l1.0337286,2.5064507
					c0.2501545,0.6065426,0.050374,1.2837296-0.4540653,1.7034283c-0.7831545,0.6515694-1.4981632,1.3675709-2.141264,2.1372566
					c-0.4214296,0.5041828-1.0982122,0.6993637-1.7049689,0.4469509l-2.5035057-1.0414619
					c-0.7564054-0.3148079-1.6246274,0.0432701-1.9392641,0.7996063l-1.9058864,4.5814362
					c-0.3146369,0.7563362,0.0434417,1.6245575,0.7997768,1.9391937l2.5037467,1.0415649
					c0.6067567,0.2524109,0.9453473,0.8698463,0.8846645,1.5242424c-0.092557,0.9987144-0.0963454,2.0105858-0.0063257,3.0255356
					c0.0579262,0.6536446-0.2814412,1.27248-0.8881545,1.5227051l-2.5062792,1.0336609
					c-0.7573668,0.3123589-1.1179996,1.1795998-0.8056407,1.9369659l1.8917649,4.5869026
					c0.3123589,0.7573662,1.1795006,1.1182404,1.9368672,0.8058815l2.5062795-1.0336571
					c0.6067138-0.2502251,1.2836595-0.0505447,1.7033591,0.4538956c0.651639,0.7833252,1.3677101,1.4985046,2.1372252,2.141674
					c0.5043535,0.42136,0.6994648,1.0979729,0.447053,1.7047272l-1.0414639,2.5035057
					c-0.3146362,0.7563362,0.0434418,1.6245575,0.799777,1.9391937l4.5814362,1.9058876
					c0.7563362,0.3146362,1.6245575-0.0434418,1.9391937-0.799778l1.0414639-2.5035057
					c0.2524128-0.6067543,0.8699493-0.9455872,1.5243454-0.884903c0.9987125,0.092556,2.010582,0.096344,3.0253639,0.0063934
					c0.6536446-0.0579262,1.2726517,0.2813721,1.5228767,0.8880844l1.0337296,2.5064507
					c0.3122883,0.7571983,1.17943,1.1180725,1.9367962,0.8057137l4.5872459-1.8919067
					c0.7573662-0.3123589,1.118-1.1796036,0.8057098-1.9367981L32.793026,56.172142
					c-0.2502251-0.6067123-0.0505447-1.2836571,0.4540672-1.7034302c0.7831535-0.6515656,1.4981613-1.367569,2.1412621-2.1372528
					c0.42136-0.5043564,1.0982132-0.6993637,1.7049713-0.4469528l2.503334,1.0415344
					c0.7565041,0.3145638,1.6247253-0.0435143,1.9393654-0.7998466l1.9058838-4.58144
					c0.3146362-0.7563324-0.0434418-1.6245537-0.7997742-1.9391937l-2.5035057-1.0414619
					c-0.6067581-0.2524109-0.9453468-0.8698502-0.8848381-1.5241737c0.0925598-0.9987144,0.0961037-2.010685,0.0062561-3.0257072
					c-0.0580978-0.6535721,0.2814407-1.27248,0.8881531-1.5227051l2.5062828-1.0336571
					c0.7573662-0.3123589,1.1179962-1.1796036,0.8056374-1.9369698l-1.8917618-4.5869026
					C41.2560005,30.1766167,40.3888588,29.8157425,39.6314888,30.1281013z M25.9255791,49.9141006
					c-4.647541,1.9167747-9.9691477-0.2970238-11.8859921-4.9447365s0.2969551-9.9693184,4.9444962-11.8860893
					c4.6477108-1.9168453,9.9693184,0.2969551,11.8861618,4.944664S30.5732899,47.9972572,25.9255791,49.9141006z"/>
			</g>
		</g>
	</g>
</g>
<g id="notifications">
</g>
<g id="my_x5F_posts">
</g>
<g id="logout">
</g>
<g id="assignment">
</g>
<g id="coursework">
</g>
<g id="forum">
</g>
<g id="quiz">
</g>
<g id="book">
</g>
<g id="database">
</g>
<g id="wiki">
</g>
<g id="choice">
</g>
<g id="workshop">
</g>
<g id="certificate">
</g>
<g id="scheduler">
</g>
<g id="equella">
</g>
<g id="file">
</g>
<g id="folder">
</g>
<g id="ims_x5F_content_x5F_package">
</g>
<g id="label">
</g>
<g id="lightbox_x5F_gallery">
</g>
<g id="nln_x5F_learning_x5F_object">
</g>
<g id="page">
</g>
<g id="subpage">
</g>
<g id="tab_x5F_display">
</g>
<g id="new_x5F_label">
</g>
<g id="url">
</g>
<g id="_x33_60_x5F_degree_x5F_diagnostics">
</g>
<g id="adobe_x5F_connect">
</g>
<g id="attendance_x5F_register">
</g>
<g id="booking">
</g>
<g id="chat">
</g>
<g id="checklist">
</g>
<g id="external_x5F_tool">
</g>
<g id="face_x5F_to_x5F_face">
</g>
<g id="forumNG">
</g>
<g id="glossary">
</g>
<g id="group_x5F_choice">
</g>
<g id="journal">
</g>
<g id="mediasite_x5F_content">
</g>
<g id="nanogong_x5F_voice">
</g>
<g id="questionnaire">
</g>
<g id="scorm_x5F_package">
</g>
<g id="survey">
</g>
<g id="tutorship">
</g>
<g id="advanced_x5F_forum">
</g>
<g id="subcourse">
</g>
<g id="lesson_1_">
</g>
<g id="adaptive_x5F_quiz">
</g>
<g id="ou_x5F_wiki">
</g>
<g id="support_x5F_tracker">
</g>
<g id="view_x5F_comments">
</g>
<g id="no_x5F_comment">
</g>
<g id="attention">
</g>
<g id="search">
</g>
<g id="submitted">
</g>
<g id="feedback">
</g>
<g id="dnd_x5F_arrow">
</g>
</svg>
