<?xml version="1.0" encoding="utf-8"?>
<!-- Generator: Adobe Illustrator 21.0.0, SVG Export Plug-In . SVG Version: 6.00 Build 0)  -->
<svg version="1.1" xmlns="http://www.w3.org/2000/svg" xmlns:xlink="http://www.w3.org/1999/xlink" x="0px" y="0px" width="16px"
	 height="16px" viewBox="0 0 16 16" enable-background="new 0 0 16 16" xml:space="preserve">
<g id="Layer_1">
</g>
<g id="Layer_2">
</g>
<g id="messages">
</g>
<g id="messages_x5F_hover">
</g>
<g id="profile">
</g>
<g id="profile_x5F_hover">
</g>
<g id="view_x5F_hover">
</g>
<g id="view_x5F_feedback">
</g>
<g id="no_x5F_feedback_x5F_to_x5F_view">
</g>
<g id="download_x5F_hover">
</g>
<g id="download">
</g>
<g id="no_x5F_feedback_x5F_download">
</g>
<g id="link_x5F_hover">
</g>
<g id="assignment_x5F_link_copy">
</g>
<g id="Layer_21">
</g>
<g id="home_x5F_hover">
</g>
<g id="home_1_">
</g>
<g id="edit_x5F_profile">
</g>
<g id="preferences">
</g>
<g id="notifications">
</g>
<g id="my_x5F_posts">
</g>
<g id="logout">
</g>
<g id="assignment">
</g>
<g id="coursework">
</g>
<g id="forum">
</g>
<g id="quiz">
</g>
<g id="book">
</g>
<g id="database">
</g>
<g id="wiki">
</g>
<g id="choice">
</g>
<g id="workshop">
</g>
<g id="certificate">
</g>
<g id="scheduler">
</g>
<g id="equella">
</g>
<g id="file">
</g>
<g id="folder">
</g>
<g id="ims_x5F_content_x5F_package">
</g>
<g id="label">
</g>
<g id="lightbox_x5F_gallery">
</g>
<g id="nln_x5F_learning_x5F_object">
</g>
<g id="page">
</g>
<g id="subpage">
</g>
<g id="tab_x5F_display">
</g>
<g id="new_x5F_label">
</g>
<g id="url">
</g>
<g id="_x33_60_x5F_degree_x5F_diagnostics">
</g>
<g id="adobe_x5F_connect">
</g>
<g id="attendance_x5F_register">
</g>
<g id="booking">
</g>
<g id="chat">
</g>
<g id="checklist">
</g>
<g id="external_x5F_tool">
</g>
<g id="face_x5F_to_x5F_face">
</g>
<g id="forumNG">
</g>
<g id="glossary">
</g>
<g id="group_x5F_choice">
</g>
<g id="journal">
</g>
<g id="mediasite_x5F_content">
</g>
<g id="nanogong_x5F_voice">
</g>
<g id="questionnaire">
</g>
<g id="scorm_x5F_package">
</g>
<g id="survey">
</g>
<g id="tutorship">
</g>
<g id="advanced_x5F_forum">
</g>
<g id="subcourse">
</g>
<g id="lesson_1_">
</g>
<g id="adaptive_x5F_quiz">
</g>
<g id="ou_x5F_wiki">
</g>
<g id="support_x5F_tracker">
</g>
<g id="view_x5F_comments">
</g>
<g id="no_x5F_comment">
</g>
<g id="attention">
</g>
<g id="search">
	<g>
		<g>
			<g>
				<path fill="#FFFFFF" d="M14.1204262,3.9478161L13.2274294,4.316112
					c-0.2161741,0.0891562-0.4573717,0.0180097-0.6069126-0.1617241c-0.2321806-0.2791014-0.4872942-0.5338614-0.7615366-0.7630007
					c-0.1797028-0.1501317-0.2492218-0.3912108-0.1592865-0.6074004l0.3711128-0.8920938
					c0.1121063-0.2694848,0.0314484-0.5555248-0.2380362-0.667631l-1.6793089-0.7023845
					C9.8839769,0.4097714,9.574626,0.537356,9.4624844,0.8069268L9.0914679,1.6989095
					C9.0015326,1.915099,8.781477,2.0357652,8.5483389,2.0142045c-0.3558455-0.0329783-0.7163782-0.0343281-1.0779481-0.002279
					C7.2374339,2.0325899,7.0169153,1.9116113,6.9277844,1.6954981L6.559463,0.8024412
					C6.4481936,0.5326496,6.1392279,0.4040689,5.8693757,0.5153635L4.2349243,1.1894561
					c-0.2698526,0.1112945-0.3983474,0.420296-0.2870779,0.6900876l0.3683214,0.893057
					C4.4052987,2.9887137,4.334116,3.2299979,4.1543827,3.3795385c-0.2790406,0.232156-0.5338006,0.4872696-0.7629399,0.7615118
					C3.241286,4.3206921,3.0001459,4.3902359,2.7839563,4.3003006L1.8919486,3.9292238
					C1.6224387,3.8170567,1.3130882,3.9446414,1.200982,4.2141261L0.521908,5.846508
					C0.4098018,6.115993,0.5373864,6.4253435,0.8068712,6.5374498L1.698965,6.9085622
					c0.2161896,0.0899353,0.3368305,0.3099303,0.315209,0.5430937C1.9811958,7.8075013,1.979846,8.1680336,2.0119202,8.529665
					c0.0206394,0.2328959-0.1002784,0.4533892-0.3164525,0.5425453L0.8024716,9.4405069
					c-0.2698524,0.1112938-0.3983472,0.4202957-0.2870526,0.6901484l0.6740424,1.6343288
					c0.1112946,0.2698526,0.4202603,0.3984337,0.6901127,0.2871389l0.8929961-0.3682966
					c0.2161741-0.0891552,0.4573724-0.0180092,0.6069129,0.161725c0.2321813,0.2791014,0.4873197,0.5339222,0.7615011,0.7630863
					c0.1797028,0.1501322,0.2492213,0.3912106,0.159286,0.6074009l-0.3710768,0.8920078
					c-0.1121061,0.2694845,0.0154784,0.5788345,0.2849634,0.6909409l1.6323819,0.6790743
					c0.269485,0.1121063,0.5788355-0.0154781,0.6909413-0.2849636l0.3710771-0.8920078
					c0.0899353-0.2161894,0.3099661-0.336916,0.5431294-0.3152952c0.3558455,0.032979,0.7163777,0.0343285,1.0779481,0.0022793
					c0.2328959-0.0206394,0.4534502,0.1002531,0.5426064,0.3164272l0.3683214,0.8930569
					c0.111269,0.2697916,0.4202347,0.3983727,0.6900873,0.2870779l1.6344509-0.6740923
					c0.2698526-0.1112947,0.3983479-0.4202957,0.2870779-0.6900873l-0.3683214-0.8930569
					c-0.0891562-0.2161741-0.0180092-0.4573727,0.1617851-0.6069384c0.2790413-0.2321558,0.5338011-0.4872694,0.7629404-0.7615118
					c0.1501312-0.1797028,0.3912964-0.2491856,0.6074858-0.1592503l0.8919477,0.3711023
					c0.2695456,0.1120806,0.5788956-0.0155039,0.6910019-0.2849884l0.6790743-1.6323824
					c0.1121063-0.2694845-0.0154781-0.5788355-0.2849636-0.6909418l-0.8920078-0.3710766
					c-0.2161894-0.0899353-0.3368301-0.3099298-0.3152695-0.5430689c0.0329781-0.3558445,0.0342417-0.7164135,0.0022287-1.0780692
					c-0.0207005-0.2328711,0.1002779-0.4533896,0.316452-0.5425458l0.8929968-0.3682961
					c0.2698517-0.1112943,0.3983469-0.4202957,0.2870522-0.6901484l-0.6740427-1.6343293
					C14.6992445,3.9651022,14.3902788,3.8365216,14.1204262,3.9478161z M9.2369614,10.9976377
					c-1.6559348,0.6829529-3.552042-0.1058311-4.2350202-1.7618275s0.1058059-3.552103,1.7617407-4.2350559
					c1.6559958-0.6829782,3.5521035,0.1058064,4.2350812,1.7618017
					C11.6817417,8.4185514,10.8929577,10.3146591,9.2369614,10.9976377z"/>
			</g>
		</g>
		<g opacity="0.3">
			<g>
				<path fill="#545157" d="M14.1824532,3.9067492L13.280407,4.2787776
					c-0.2183647,0.0900598-0.4620075,0.0181918-0.6130629-0.163363c-0.2345343-0.28193-0.4922333-0.5392718-0.7692547-0.7707334
					c-0.1815243-0.1516533-0.2517471-0.3951757-0.1609011-0.6135561l0.3748741-0.9011347
					c0.1132421-0.272216,0.0317669-0.5611548-0.240449-0.6743972l-1.6963282-0.7095027
					C9.9030695,0.3328481,9.5905838,0.4617257,9.4773054,0.7340285L9.1025295,1.635051
					C9.0116825,1.8534316,8.7893972,1.9753205,8.553896,1.9535414C8.1944447,1.920229,7.8302579,1.9188654,7.4650235,1.9512393
					C7.2297058,1.9721133,7.0069523,1.8499086,6.9169178,1.6316051L6.5448642,0.7294974
					C6.432467,0.4569717,6.1203699,0.3270878,5.8477826,0.4395103L4.1967669,1.1204345
					C3.9241798,1.2328571,3.7943828,1.5449901,3.90678,1.8175159l0.3720539,0.9021077
					c0.0900345,0.2183034,0.0181303,0.4620328-0.163425,0.6130888c-0.2818682,0.234509-0.5392101,0.4922078-0.7706716,0.7692292
					C3.1930587,4.2834044,2.949475,4.353653,2.7310944,4.2628059L1.8300465,3.8879683
					c-0.2722414-0.1133037-0.5847269,0.015574-0.6979692,0.2877901L0.4461212,5.8246837
					C0.3328789,6.0968995,0.4617565,6.4093852,0.7339724,6.5226274L1.6351072,6.897501
					c0.2183806,0.090847,0.3402441,0.3130713,0.3184036,0.5485978C1.9201982,7.8055506,1.9188347,8.1697369,1.951234,8.5350323
					c0.0208485,0.2352571-0.1012946,0.4579849-0.3196596,0.5480442L0.7295282,9.4551048
					c-0.2725873,0.1124229-0.4023843,0.4245558-0.2899618,0.6971436L1.12044,11.8031406
					c0.1124225,0.2725878,0.4245193,0.4024715,0.6971065,0.2900486l0.9020463-0.3720284
					c0.218365-0.0900602,0.4620075-0.0181923,0.6130633,0.1633635c0.2345345,0.281929,0.4922588,0.5393333,0.7692187,0.7708197
					c0.1815238,0.1516533,0.2517471,0.3951759,0.1609006,0.6135559l-0.3748376,0.9010477
					c-0.1132424,0.2722168,0.0156353,0.5847015,0.2878511,0.6979446l1.6489253,0.685956
					c0.2722158,0.1132421,0.5847015-0.0156355,0.6979442-0.2878513l0.3748374-0.9010477
					c0.0908465-0.2183809,0.3131075-0.3403311,0.5486336-0.318491c0.3594518,0.0333128,0.7236381,0.0346766,1.0888724,0.0023022
					c0.2352562-0.0208483,0.458046,0.1012697,0.5481052,0.3196344l0.3720541,0.9021072
					c0.1123972,0.2725258,0.4244947,0.4024105,0.6970816,0.2899876l1.6510153-0.6809244
					c0.2725878-0.112422,0.4023848-0.4245548,0.2899876-0.6970806l-0.3720541-0.9021082
					c-0.0900593-0.2183647-0.0181913-0.4620075,0.1634245-0.6130886c0.2818689-0.2345095,0.5392103-0.4922085,0.7706718-0.7692299
					c0.1516533-0.1815233,0.3952627-0.2517109,0.6136436-0.1608639l0.9009857,0.3748627
					c0.2722778,0.1132174,0.5847635-0.0156603,0.6980057-0.2878761l0.685956-1.6489258
					c0.1132421-0.2722158-0.0156355-0.5847015-0.2878513-0.6979437l-0.9010477-0.3748379
					c-0.2183809-0.0908461-0.3402443-0.3130713-0.3184652-0.5485716c0.0333128-0.3594522,0.0345898-0.7236748,0.0022516-1.0889959
					c-0.0209103-0.2352309,0.1012945-0.457984,0.3196592-0.5480437l0.9020462-0.3720288
					c0.2725878-0.1124225,0.4023848-0.4245553,0.2899618-0.6971426l-0.6808729-1.6508927
					C14.7671375,3.9242105,14.4550409,3.7943268,14.1824532,3.9067492z M9.2494974,11.028017
					c-1.6727166,0.6898746-3.5880404-0.106904-4.2779403-1.7796822S5.0784359,5.660233,6.7511525,4.9703584
					c1.6727786-0.6898999,3.5881019,0.1068788,4.2780023,1.7796569C11.7190542,8.4227934,10.9222755,10.3381176,9.2494974,11.028017
					z"/>
			</g>
		</g>
		<g>
			<path fill="#545157" d="M8.0064306,11.7173204c-1.1333632,0-2.2532725-0.5149546-2.9825592-1.4905834
				c-1.228003-1.6418228-0.8911953-3.9767456,0.751091-5.2052126c0.9157834-0.685678,2.1205907-0.9116082,3.2247267-0.6040273
				C9.2520628,4.4875493,9.400054,4.7496657,9.3295383,5.0025034C9.2594852,5.2553415,8.9959774,5.4042606,8.7445316,5.3323526
				c-0.8192878-0.2268581-1.71837-0.0603099-2.4008002,0.4500051c-1.222436,0.9143915-1.4734182,2.6531739-0.5590267,3.8756099
				c0.9134641,1.222436,2.6527095,1.4729548,3.8756099,0.5590267c0.587326-0.4393349,0.9695988-1.0869713,1.0753727-1.822752
				c0.1062384-0.7362456-0.0774746-1.4650679-0.5168095-2.0528579c-0.1572695-0.209693-0.1141253-0.5075316,0.0960321-0.6648011
				c0.2101564-0.15727,0.5075312-0.1136613,0.6648006,0.0960317c0.5915012,0.7905245,0.8387728,1.769865,0.6963482,2.757093
				s-0.6559868,1.8566179-1.4469748,2.4481192C9.5624275,11.4765444,8.7811813,11.716856,8.0064306,11.7173204z"/>
		</g>
		<g>
			<path fill="#545157" d="M9.9303818,15.9995565c-0.3943338,0-0.7696476-0.2342815-0.9292364-0.6211929l-0.3683548-0.8930511
				c-0.4458294,0.0115986-0.8387723,0.0092783-1.2247558-0.0264435l-0.431448,0.9167109
				c-0.2138686,0.5112429-0.8035145,0.7534103-1.3129015,0.5409346l-1.6316161-0.679183
				c-0.2472706-0.1025267-0.4402623-0.2955189-0.5423253-0.5432539c-0.1025269-0.2477341-0.1020632-0.5205212,0.0004637-0.7677917
				l0.3716021-0.8925867c-0.323354-0.3094368-0.5998518-0.5868626-0.8475866-0.8842373l-0.953825,0.3419113
				c-0.2468069,0.1015987-0.5200573,0.1020632-0.767792-0.0013914c-0.2472708-0.1029911-0.4397987-0.2959833-0.5423256-0.5441818
				l-0.6740797-1.6343994c-0.102063-0.2472706-0.1015991-0.5200577,0.0013918-0.7677917
				c0.1029908-0.2472706,0.2959827-0.4397993,0.5441812-0.542326l0.8921233-0.3683548
				C1.5046188,8.1870985,1.5050827,7.795548,1.5408047,7.4081721L0.6245574,6.9757962
				C0.1133147,6.76332-0.1293169,6.174602,0.0836236,5.6638231L0.7628064,4.031743
				c0.1025269-0.2472706,0.2955188-0.4397986,0.5432534-0.5423255C1.5547224,3.3868906,1.827045,3.3873546,2.0747797,3.4908094
				L2.966439,3.8619475c0.3080447-0.3219624,0.5854704-0.5989242,0.8842366-0.8475866l-0.3419108-0.953825
				C3.2981439,1.549293,3.5421672,0.961503,4.0534101,0.7504182l1.6348634-0.6745436
				c0.5107789-0.210157,1.0985689,0.0338664,1.3101177,0.5451092l0.3688183,0.8935151
				c0.4458299-0.0102063,0.8383083-0.0092784,1.2247562,0.0264436l0.4323759-0.9162473
				c0.1025267-0.2472708,0.2955189-0.4402626,0.5432529-0.5423256c0.2481985-0.102063,0.5205212-0.1025269,0.7677917,0.0004639
				l1.6807919,0.7028428c0.4996452,0.2083013,0.7116575,0.762225,0.4936142,1.2883134l-0.3716021,0.8921232
				c0.3228903,0.3094363,0.5993881,0.5863981,0.8475866,0.8837726l0.953825-0.3414471
				c0.247735-0.1020629,0.5200577-0.101599,0.7687197,0.0013919c0.2472706,0.1034548,0.4397993,0.2969105,0.541398,0.5446451
				l0.6740799,1.6339359l0,0c0.1020622,0.2477345,0.1015987,0.5205212-0.0013924,0.7677917
				c-0.1029902,0.2477345-0.2959824,0.4402628-0.5437174,0.5423255l-0.8930511,0.3683548
				c0.0102062,0.4472213,0.0092783,0.8387718-0.0264435,1.2252197l0.9162474,0.4319124
				c0.247735,0.1029902,0.4402628,0.2959824,0.542326,0.5441809c0.1025257,0.247735,0.1020622,0.5205212-0.0013924,0.7682562
				l-0.6782551,1.6316156c-0.1034546,0.247735-0.2964458,0.4402628-0.5446444,0.542326
				c-0.2481995,0.1029902-0.5214491,0.1015987-0.7682562-0.0013924l-0.8916597-0.3702097
				c-0.3099003,0.3233538-0.587326,0.600316-0.8847008,0.8471222l0.3428392,0.9528971
				c0.2106209,0.5117073-0.0338659,1.0994968-0.5451088,1.3105822l-1.6348639,0.6745434
				C10.1869316,15.9754324,10.0579605,15.9995565,9.9303818,15.9995565z M2.9655113,11.1701212
				c0.2927351,0,0.5794394,0.1312904,0.7793901,0.3720665c0.2106209,0.2533016,0.4467576,0.4894381,0.7009871,0.7019148
				c0.3433027,0.2867041,0.4611392,0.7506266,0.2927351,1.1547031l-0.3711381,0.8916597l1.6613069,0.7492352l0.4407268-0.920887
				c0.1684041-0.4031487,0.5761919-0.6434603,1.025269-0.6063471c0.3317046,0.0310831,0.6652651,0.032011,0.9932585,0.0023203
				c0.444438-0.03897,0.8573294,0.2055178,1.0234137,0.6086664l0.3683548,0.8930511l1.7044516-0.6453171l-0.339592-0.9621754
				c-0.1660843-0.4036121-0.0468559-0.8670712,0.2964468-1.1533117c0.2537661-0.2110844,0.4903669-0.4467573,0.7028427-0.7014513
				c0.2871685-0.3433027,0.7501631-0.4606752,1.1547041-0.2927351l0.8916588,0.3702106l0.7492352-1.6603794l-0.920886-0.4416542
				c-0.4040766-0.1679401-0.647172-0.5799036-0.6058836-1.0252695c0.0306196-0.3293848,0.0315475-0.6634092,0.0023203-0.9923301
				c-0.0398979-0.4449019,0.2045898-0.8564014,0.6077385-1.0234137l0.8939791-0.3688183l0.0282993-0.0695887l-0.6740799-1.6343994
				l-0.9626398,0.3395915c-0.4036121,0.1651564-0.8670712,0.046392-1.1533117-0.2978382
				c-0.2110844-0.2528381-0.4467573-0.4894385-0.7009869-0.7014513c-0.3433027-0.287632-0.4606752-0.7515547-0.2927351-1.1551673
				l0.3711376-0.8916595l-1.6622343-0.749235L9.5300169,1.8814616c-0.1674757,0.4040766-0.5775833,0.6467083-1.025733,0.6058831
				C8.1735067,2.4562619,7.8404107,2.4557979,7.5119534,2.4850249C7.0726185,2.5207472,6.6546245,2.280899,6.4885402,1.8763585
				L6.1201854,0.9833074l-1.704452,0.6453165l0.3395915,0.9631034C4.9218731,2.9944122,4.8026452,3.457871,4.4584146,3.744575
				C4.203721,3.9565878,3.9671202,4.1927242,3.7560356,4.4455624C3.4693313,4.7893291,3.0058725,4.9067016,2.6013319,4.7387614
				L1.7096726,4.3676233L0.9604375,6.0289302l0.9208865,0.4411907c0.4040767,0.1679397,0.6471721,0.5803671,0.605883,1.025733
				C2.456588,7.8257027,2.4556601,8.1592636,2.4853513,8.4867926c0.0389695,0.4472218-0.2055178,0.8582573-0.6091305,1.0248051
				L0.9840975,9.8799524L1.62895,11.5839405l0.9626395-0.339592C2.7126734,11.1947088,2.8397882,11.1701212,2.9655113,11.1701212z"
				/>
		</g>
	</g>
</g>
<g id="submitted">
</g>
<g id="feedback">
</g>
<g id="dnd_x5F_arrow">
</g>
</svg>
