<?xml version="1.0" encoding="utf-8"?>
<!-- Generator: Adobe Illustrator 21.0.0, SVG Export Plug-In . SVG Version: 6.00 Build 0)  -->
<svg version="1.1" xmlns="http://www.w3.org/2000/svg" xmlns:xlink="http://www.w3.org/1999/xlink" x="0px" y="0px" width="64px"
	 height="64px" viewBox="0 0 64 64" enable-background="new 0 0 64 64" xml:space="preserve">
<g id="Layer_1">
</g>
<g id="Layer_2">
</g>
<g id="messages">
</g>
<g id="messages_x5F_hover">
</g>
<g id="profile">
</g>
<g id="profile_x5F_hover">
</g>
<g id="view_x5F_hover">
</g>
<g id="view_x5F_feedback">
</g>
<g id="no_x5F_feedback_x5F_to_x5F_view">
</g>
<g id="download_x5F_hover">
</g>
<g id="download">
	<g>
		<g>
			<path fill="#FFFFFF" d="M60.3151741,11.7349625H39.5865746l-5.063076-6.8027878l-5.0629215,6.8027878H8.7318258
				c-1.3565097,0-2.4563503,1.0998402-2.4563503,2.4563503v27.2892628c-1.907629,1.6034355-3.619458,3.4320526-5.045682,5.4830093
				l3.448395,4.0764275c5.0587254,4.9473305,11.9741058,8.0009766,19.6094208,8.0009766
				c7.1150799,0,13.6051254-2.6516991,18.550209-7.0164299c0.2101936-0.1856041,0.385006-0.4071922,0.5895004-0.5989456h16.8878555
				c1.3566589,0,2.4563522-1.0996895,2.4563522-2.4563484V14.1913128
				C62.7715263,12.8348026,61.671833,11.7349625,60.3151741,11.7349625z"/>
		</g>
		<g opacity="0.3">
			<g>
				<path fill="#32548C" d="M17.9380074,35.7180786c-1.7325916,0.3911438-5.1509485,1.9839897-5.1509485,1.9839897
					c-0.1794109,0.0929184-0.3411922,0.2128334-0.518033,0.3097916c-0.3388052,1.139637-0.5766125,2.3222427-0.5766125,3.5718765
					c0,6.9562569,5.6390495,12.5953064,12.5953102,12.5953064s12.5953102-5.6390495,12.5953102-12.5953064
					c0-1.3129883-0.2574577-2.5541725-0.6302338-3.7443085c-3.5373535-1.8822556-7.571804-2.9530296-11.8596706-2.9530296
					C22.1617851,34.8863983,20.0163841,35.2487106,17.9380074,35.7180786z M30.0420952,41.5837364
					c0,3.1779785-2.57621,5.7543716-5.7543716,5.7543716s-5.7543716-2.5763931-5.7543716-5.7543716
					c0-3.1781654,2.5762081-5.7545586,5.7543716-5.7545586S30.0420952,38.405571,30.0420952,41.5837364z"/>
			</g>
		</g>
		<g>
			<path fill="#32548C" d="M48.6454124,27.7091827c0.6788559,0,1.2281761-0.5493202,1.2281761-1.2281742
				s-0.5493202-1.2281742-1.2281761-1.2281742H20.4021873c-0.6788559,0-1.2281761,0.5493202-1.2281761,1.2281742
				s0.5493202,1.2281742,1.2281761,1.2281742H48.6454124z"/>
			<path fill="#32548C" d="M49.8735886,36.6794205c0-0.6788559-0.5493202-1.2281761-1.2281761-1.2281761h-13.248455
				c-0.2319336,0-0.4364281,0.0814095-0.6212845,0.1928024c-3.3133144-1.2746544-6.8521137-1.9858894-10.487463-1.9858894
				c-2.1445103,0-4.2818222,0.2326813-6.3567657,0.6920471c-0.6620636,0.1475258-1.0794506,0.8023911-0.9331245,1.4644547
				c0.1463242,0.660862,0.7796021,1.0782509,1.4656525,0.9343224c0.7983437-0.1769066,1.6115303-0.2960968,2.4269657-0.3992462
				c-1.7137775,1.1160316-2.8539467,3.0407524-2.8539467,5.2339859c0,3.4470482,2.8041725,6.2512207,6.2512188,6.2512207
				s6.2512188-2.8041725,6.2512188-6.2512207c0-2.1905327-1.1371727-4.1137543-2.8475018-5.2305374
				c6.5683079,0.8407745,12.63587,4.0710297,17.0050945,9.1849251c0.7052422,0.8251801,0.7028427,2.0269699-0.0047951,2.8557472
				c-0.8251801,0.9643097-1.7223244,1.8770447-2.6674423,2.7094231c-4.9031067,4.3261986-11.202301,6.7093849-17.7365742,6.7093849
				c-7.0476151,0-13.7066259-2.7166176-18.7512589-7.6509056c-0.4869523-0.4737587-1.2641568-0.4629669-1.7367163,0.0191879
				c-0.4749584,0.4845543-0.4653633,1.2629585,0.0191903,1.7367172c5.507597,5.3852615,12.775898,8.3513489,20.4687843,8.3513489
				c7.1339684,0,14.0112705-2.6014748,19.3629436-7.3234711c1.0290794-0.9091377,2.007782-1.9034309,2.9073219-2.9552956
				c1.4992371-1.7547073,1.4992371-4.2986145,0.0047989-6.0473251c-2.0569534-2.4088211-4.4629288-4.4318924-7.1048851-6.0353279
				h9.1870232C49.3242683,37.9075928,49.8735886,37.3582726,49.8735886,36.6794205z M24.2882099,45.3785934
				c-2.0917358,0-3.7948704-1.7019348-3.7948704-3.7948723c0-2.0929337,1.7031345-3.7948685,3.7948704-3.7948685
				s3.7948685,1.7019348,3.7948685,3.7948685C28.0830784,43.6766586,26.3799438,45.3785934,24.2882099,45.3785934z"/>
			<path fill="#32548C" d="M60.3154755,10.5063381H40.2041092L35.509697,4.1987476
				c-0.4653625-0.6236825-1.5064316-0.6236825-1.9717941,0l-4.6944122,6.3075905H8.7321253
				c-2.0317659,0-3.684525,1.6527586-3.684525,3.6845245v20.4292049c0,0.6788521,0.5493207,1.2281723,1.2281752,1.2281723
				s1.2281752-0.5493202,1.2281752-1.2281723V14.1908627c0-0.6776552,0.5517192-1.2281752,1.2281747-1.2281752h20.7278519
				c0.3886013,0,0.7532158-0.183506,0.9858971-0.495347l4.0779247-5.4788122l4.0779266,5.4788122
				c0.2326813,0.311841,0.5972939,0.495347,0.9858971,0.495347h20.7278519c0.6764565,0,1.2281761,0.5505199,1.2281761,1.2281752
				v34.7787018c0,0.6776581-0.5517197,1.2281761-1.2281761,1.2281761h-9.8733749
				c-0.6788559,0-1.2281761,0.5493202-1.2281761,1.2281761s0.5493202,1.2281761,1.2281761,1.2281761h9.8733749
				C62.3472404,52.6540909,64,51.0013313,64,48.9695625V14.1908627C64,12.1590967,62.3472404,10.5063381,60.3154755,10.5063381z"/>
			<path fill="#32548C" d="M10.5743876,39.882988c-0.0767603,0.6332779-0.1103439,1.2257767-0.1103439,1.7007332
				c0,7.6221237,6.2008448,13.8229675,13.8241663,13.8229675c6.8197289,0,12.5576077-4.8791161,13.6442547-11.601696
				c0.1103439-0.6692581-0.3454247-1.3001404-1.0146828-1.4080849c-0.6620636-0.1115417-1.3001366,0.3454247-1.4080849,1.0170822
				c-0.8947449,5.525589-5.613142,9.5363503-11.221487,9.5363503c-6.2680111,0-11.367816-5.0986061-11.367816-11.3666191
				c0-1.21138,0.2398777-2.6806335,0.5829039-3.5741806c0.1799078-0.467762,0.0575705-0.9978905-0.3094425-1.3397179
				c-0.3670139-0.3394279-0.9067392-0.422184-1.3577099-0.2122917l-0.9763031,0.4593658
				c-4.2290473,2.1876869-7.9063759,5.4188423-10.638586,9.3444443c-0.3886023,0.5565186-0.2518718,1.3217278,0.304645,1.7091331
				c0.5613143,0.3909988,1.3241261,0.2542686,1.7103295-0.3058472C4.4383106,44.5018387,7.3096495,41.8307953,10.5743876,39.882988z
				"/>
		</g>
	</g>
</g>
<g id="no_x5F_feedback_x5F_download">
</g>
<g id="link_x5F_hover">
</g>
<g id="assignment_x5F_link_copy">
</g>
<g id="Layer_21">
</g>
<g id="home_x5F_hover">
</g>
<g id="home_1_">
</g>
<g id="edit_x5F_profile">
</g>
<g id="preferences">
</g>
<g id="notifications">
</g>
<g id="my_x5F_posts">
</g>
<g id="logout">
</g>
<g id="assignment">
</g>
<g id="coursework">
</g>
<g id="forum">
</g>
<g id="quiz">
</g>
<g id="book">
</g>
<g id="database">
</g>
<g id="wiki">
</g>
<g id="choice">
</g>
<g id="workshop">
</g>
<g id="certificate">
</g>
<g id="scheduler">
</g>
<g id="equella">
</g>
<g id="file">
</g>
<g id="folder">
</g>
<g id="ims_x5F_content_x5F_package">
</g>
<g id="label">
</g>
<g id="lightbox_x5F_gallery">
</g>
<g id="nln_x5F_learning_x5F_object">
</g>
<g id="page">
</g>
<g id="subpage">
</g>
<g id="tab_x5F_display">
</g>
<g id="new_x5F_label">
</g>
<g id="url">
</g>
<g id="_x33_60_x5F_degree_x5F_diagnostics">
</g>
<g id="adobe_x5F_connect">
</g>
<g id="attendance_x5F_register">
</g>
<g id="booking">
</g>
<g id="chat">
</g>
<g id="checklist">
</g>
<g id="external_x5F_tool">
</g>
<g id="face_x5F_to_x5F_face">
</g>
<g id="forumNG">
</g>
<g id="glossary">
</g>
<g id="group_x5F_choice">
</g>
<g id="journal">
</g>
<g id="mediasite_x5F_content">
</g>
<g id="nanogong_x5F_voice">
</g>
<g id="questionnaire">
</g>
<g id="scorm_x5F_package">
</g>
<g id="survey">
</g>
<g id="tutorship">
</g>
<g id="advanced_x5F_forum">
</g>
<g id="subcourse">
</g>
<g id="lesson_1_">
</g>
<g id="adaptive_x5F_quiz">
</g>
<g id="ou_x5F_wiki">
</g>
<g id="support_x5F_tracker">
</g>
<g id="view_x5F_comments">
</g>
<g id="no_x5F_comment">
</g>
<g id="attention">
</g>
<g id="search">
</g>
<g id="submitted">
</g>
<g id="feedback">
</g>
<g id="dnd_x5F_arrow">
</g>
</svg>
