<?xml version="1.0" encoding="utf-8"?>
<!-- Generator: Adobe Illustrator 21.0.0, SVG Export Plug-In . SVG Version: 6.00 Build 0)  -->
<svg version="1.1" xmlns="http://www.w3.org/2000/svg" xmlns:xlink="http://www.w3.org/1999/xlink" x="0px" y="0px" width="64px"
	 height="64px" viewBox="0 0 64 64" enable-background="new 0 0 64 64" xml:space="preserve">
<g id="Layer_1">
</g>
<g id="Layer_2">
</g>
<g id="messages">
</g>
<g id="messages_x5F_hover">
</g>
<g id="profile">
</g>
<g id="profile_x5F_hover">
</g>
<g id="view_x5F_hover">
</g>
<g id="view_x5F_feedback">
</g>
<g id="no_x5F_feedback_x5F_to_x5F_view">
</g>
<g id="download_x5F_hover">
</g>
<g id="download">
</g>
<g id="no_x5F_feedback_x5F_download">
</g>
<g id="link_x5F_hover">
</g>
<g id="assignment_x5F_link_copy">
</g>
<g id="Layer_21">
</g>
<g id="home_x5F_hover">
</g>
<g id="home_1_">
</g>
<g id="edit_x5F_profile">
</g>
<g id="preferences">
</g>
<g id="notifications">
</g>
<g id="my_x5F_posts">
</g>
<g id="logout">
</g>
<g id="assignment">
</g>
<g id="coursework">
</g>
<g id="forum">
</g>
<g id="quiz">
</g>
<g id="book">
</g>
<g id="database">
</g>
<g id="wiki">
</g>
<g id="choice">
</g>
<g id="workshop">
</g>
<g id="certificate">
</g>
<g id="scheduler">
</g>
<g id="equella">
</g>
<g id="file">
</g>
<g id="folder">
</g>
<g id="ims_x5F_content_x5F_package">
</g>
<g id="label">
</g>
<g id="lightbox_x5F_gallery">
</g>
<g id="nln_x5F_learning_x5F_object">
</g>
<g id="page">
</g>
<g id="subpage">
</g>
<g id="tab_x5F_display">
</g>
<g id="new_x5F_label">
</g>
<g id="url">
</g>
<g id="_x33_60_x5F_degree_x5F_diagnostics">
</g>
<g id="adobe_x5F_connect">
</g>
<g id="attendance_x5F_register">
</g>
<g id="booking">
</g>
<g id="chat">
</g>
<g id="checklist">
</g>
<g id="external_x5F_tool">
</g>
<g id="face_x5F_to_x5F_face">
</g>
<g id="forumNG">
</g>
<g id="glossary">
</g>
<g id="group_x5F_choice">
</g>
<g id="journal">
</g>
<g id="mediasite_x5F_content">
</g>
<g id="nanogong_x5F_voice">
</g>
<g id="questionnaire">
</g>
<g id="scorm_x5F_package">
</g>
<g id="survey">
</g>
<g id="tutorship">
</g>
<g id="advanced_x5F_forum">
</g>
<g id="subcourse">
</g>
<g id="lesson_1_">
</g>
<g id="adaptive_x5F_quiz">
</g>
<g id="ou_x5F_wiki">
</g>
<g id="support_x5F_tracker">
</g>
<g id="view_x5F_comments">
</g>
<g id="no_x5F_comment">
</g>
<g id="attention">
</g>
<g id="search">
</g>
<g id="submitted">
	<g>
		<g>
			<path fill="#FFFFFF" d="M48.1301231,55.5026474H15.9252615c-1.9780207,0-3.5815239-1.6035004-3.5815239-3.5815239v-0.8208389
				c0-0.9890099-0.8017511-1.79076-1.7907619-1.79076H6.9714518c-0.9890103,0-1.7907619,0.8017502-1.7907619,1.79076v0.8208389
				c0,5.934063,4.8105087,10.7445717,10.7445717,10.7445717h32.2048607c5.934063,0,10.7445717-4.8105087,10.7445717-10.7445717
				v-0.8208389c0-0.9890099-0.8017502-1.79076-1.79076-1.79076h-3.5815239c-0.9890137,0-1.7907639,0.8017502-1.7907639,1.79076
				v0.8208389C51.711647,53.899147,50.1081429,55.5026474,48.1301231,55.5026474z"/>
		</g>
		<g>
			<path fill="#FFFFFF" d="M13.4088669,21.6265335h6.8155003c0.9713287,0,1.7587452,0.7874184,1.7587452,1.7587452v21.5222378
				c0,1.9426575,1.5748329,3.5174904,3.5174866,3.5174904H38.55476c1.9426575,0,3.5174904-1.5748329,3.5174904-3.5174904V23.3852787
				c0-0.9713268,0.7874146-1.7587452,1.7587433-1.7587452h6.8155403c1.7012901,0,2.519104-2.0870819,1.2707138-3.2428989
				L34.5691872,2.3219995c-1.434185-1.3278341-3.6488285-1.3278341-5.0830116,0l-17.348032,16.0616074
				C10.8897429,19.5394344,11.7075615,21.6265335,13.4088669,21.6265335z"/>
		</g>
		<g opacity="0.3">
			<path fill="#545157" d="M48.1301231,55.5026474H15.9252615c-1.9780207,0-3.5815239-1.6035004-3.5815239-3.5815239v-0.8208389
				c0-0.9890099-0.8017511-1.79076-1.7907619-1.79076H6.9714518c-0.9890103,0-1.7907619,0.8017502-1.7907619,1.79076v0.8208389
				c0,5.934063,4.8105087,10.7445717,10.7445717,10.7445717h32.2048607c5.934063,0,10.7445717-4.8105087,10.7445717-10.7445717
				v-0.8208389c0-0.9890099-0.8017502-1.79076-1.79076-1.79076h-3.5815239c-0.9890137,0-1.7907639,0.8017502-1.7907639,1.79076
				v0.8208389C51.711647,53.899147,50.1081429,55.5026474,48.1301231,55.5026474z"/>
		</g>
		<g>
			<path fill="#545157" d="M48.1308937,64H15.9244919C9.2649603,64,3.8477426,58.5801773,3.8477426,51.9206467v-0.8203964
				c0-1.7241325,1.4011841-3.1253166,3.1227136-3.1253166h3.5836973c1.72153,0,3.122714,1.4011841,3.122714,3.1253166v0.8203964
				c0,1.2397079,1.0079145,2.2476234,2.2476244,2.2476234h32.2064018c1.2397079,0,2.2476234-1.0079155,2.2476234-2.2476234
				v-0.8203964c0-1.7241325,1.4011841-3.1253166,3.122715-3.1253166h3.5836983c0.7370529,0,1.3334694,0.5964127,1.3334694,1.3334694
				c0,0.7370529-0.5964165,1.3334656-1.3334694,1.3334656h-3.5836983c-0.2500267,0-0.4557762,0.2057533-0.4557762,0.4583817
				v0.8203964c0,2.7086067-2.2059555,4.9145622-4.9145622,4.9145622H15.9244919
				c-2.7086086,0-4.9145622-2.2059555-4.9145622-4.9145622v-0.8203964c0-0.2526283-0.2057505-0.4583817-0.4557762-0.4583817
				H6.9704561c-0.2500257,0-0.4557757,0.2057533-0.4557757,0.4583817v0.8203964c0,5.1906319,4.2217841,9.4124146,9.409811,9.4124146
				h32.2064018c4.8494492,0,8.8732986-3.6305771,9.3629303-8.4487762c0.0729256-0.7318459,0.7240334-1.2631493,1.4610863-1.1902237
				c0.7318459,0.0729218,1.2657547,0.726635,1.1902275,1.4610863C59.5200729,59.3380661,54.3528786,64,48.1308937,64z"/>
		</g>
		<g>
			<path fill="#545157" d="M38.5543976,49.7589684H25.5009861c-2.6747513,0-4.8520546-2.1773033-4.8520546-4.8520546V23.3864937
				c0-0.2343998-0.1901245-0.4271278-0.4245224-0.4271278h-6.8157978c-1.3282604,0-2.4976501-0.7995586-2.9820747-2.0340595
				c-0.4844236-1.2358036-0.1692877-2.6174545,0.8047695-3.5198898L28.5794258,1.3438867
				c1.9324875-1.7918489,4.9640465-1.7918489,6.896534,0l17.3481178,16.0615292
				c0.9740601,0.9024353,1.289196,2.2840862,0.8047714,3.5198898c-0.4844246,1.2345009-1.6538162,2.0340595-2.9820747,2.0340595
				h-6.8157959c-0.2344017,0-0.4245224,0.192728-0.4245224,0.4271278v21.5204201
				C43.406456,47.581665,41.2291489,49.7589684,38.5543976,49.7589684z M32.0276909,2.6630313
				c-0.5886002,0-1.1772022,0.2122612-1.635582,0.6367836L13.0439901,19.3613453
				c-0.2343988,0.2174702-0.1849146,0.4635887-0.1354303,0.5899029c0.0494843,0.1276169,0.1823101,0.3411808,0.5000515,0.3411808
				h6.8157978c1.7059021,0,3.0914593,1.3881626,3.0914593,3.0940647v21.5204201
				c0,1.2058487,0.9792671,2.1851158,2.1851177,2.1851158h13.0534115c1.2058525,0,2.1851196-0.9792671,2.1851196-2.1851158
				V23.3864937c0-1.7059021,1.3855553-3.0940647,3.0914612-3.0940647h6.8157959
				c0.3177414,0,0.4505653-0.2135639,0.5000496-0.3411808c0.0494843-0.1263142,0.0989685-0.3724327-0.1354294-0.5899029
				L33.6632767,3.2998149C33.204895,2.8752925,32.6162949,2.6630313,32.0276909,2.6630313z"/>
		</g>
	</g>
</g>
<g id="feedback">
</g>
<g id="dnd_x5F_arrow">
</g>
</svg>
