<?xml version="1.0" encoding="utf-8"?>
<!-- Generator: Adobe Illustrator 21.0.0, SVG Export Plug-In . SVG Version: 6.00 Build 0)  -->
<svg version="1.1" xmlns="http://www.w3.org/2000/svg" xmlns:xlink="http://www.w3.org/1999/xlink" x="0px" y="0px" width="16px"
	 height="16px" viewBox="0 0 16 16" enable-background="new 0 0 16 16" xml:space="preserve">
<g id="Layer_1">
</g>
<g id="Layer_2">
</g>
<g id="messages">
</g>
<g id="messages_x5F_hover">
</g>
<g id="profile">
</g>
<g id="profile_x5F_hover">
</g>
<g id="view_x5F_hover">
</g>
<g id="view_x5F_feedback">
</g>
<g id="no_x5F_feedback_x5F_to_x5F_view">
</g>
<g id="download_x5F_hover">
</g>
<g id="download">
</g>
<g id="no_x5F_feedback_x5F_download">
</g>
<g id="link_x5F_hover">
</g>
<g id="assignment_x5F_link_copy">
</g>
<g id="Layer_21">
</g>
<g id="home_x5F_hover">
</g>
<g id="home_1_">
</g>
<g id="edit_x5F_profile">
</g>
<g id="preferences">
</g>
<g id="notifications">
</g>
<g id="my_x5F_posts">
</g>
<g id="logout">
</g>
<g id="assignment">
</g>
<g id="coursework">
</g>
<g id="forum">
</g>
<g id="quiz">
</g>
<g id="book">
</g>
<g id="database">
</g>
<g id="wiki">
</g>
<g id="choice">
</g>
<g id="workshop">
</g>
<g id="certificate">
</g>
<g id="scheduler">
</g>
<g id="equella">
</g>
<g id="file">
</g>
<g id="folder">
</g>
<g id="ims_x5F_content_x5F_package">
</g>
<g id="label">
</g>
<g id="lightbox_x5F_gallery">
</g>
<g id="nln_x5F_learning_x5F_object">
</g>
<g id="page">
</g>
<g id="subpage">
</g>
<g id="tab_x5F_display">
</g>
<g id="new_x5F_label">
</g>
<g id="url">
</g>
<g id="_x33_60_x5F_degree_x5F_diagnostics">
</g>
<g id="adobe_x5F_connect">
</g>
<g id="attendance_x5F_register">
</g>
<g id="booking">
</g>
<g id="chat">
</g>
<g id="checklist">
</g>
<g id="external_x5F_tool">
</g>
<g id="face_x5F_to_x5F_face">
</g>
<g id="forumNG">
</g>
<g id="glossary">
</g>
<g id="group_x5F_choice">
</g>
<g id="journal">
</g>
<g id="mediasite_x5F_content">
</g>
<g id="nanogong_x5F_voice">
</g>
<g id="questionnaire">
</g>
<g id="scorm_x5F_package">
</g>
<g id="survey">
</g>
<g id="tutorship">
</g>
<g id="advanced_x5F_forum">
</g>
<g id="subcourse">
</g>
<g id="lesson_1_">
</g>
<g id="adaptive_x5F_quiz">
</g>
<g id="ou_x5F_wiki">
</g>
<g id="support_x5F_tracker">
</g>
<g id="view_x5F_comments">
</g>
<g id="no_x5F_comment">
</g>
<g id="attention">
</g>
<g id="search">
	<g>
		<g>
			<path fill="#FFFFFF" d="M15.2268267,13.7914953c-2.0263891-1.5858202-4.0527792-3.1716404-6.0791693-4.7574596
				c2.3768673-2.4872713,1.5122337-6.7528467-1.652606-8.117033c-3.426168-1.47683-7.3047791,1.3426241-6.9875526,5.0624809
				c0.3103189,3.6388607,4.4756017,5.7591457,7.5860004,3.8764381c0.3235655-0.1958523,0.78895-0.3588886,0.78895-0.3588886
				s0.4785004,0.5467787,0.6212969,0.7099504c0.7157984,0.8179379,1.4315958,1.6358747,2.1473942,2.4538116
				c0.6741247,0.770318,1.3245821,1.5726805,2.0275478,2.316865c0.2310848,0.2446346,0.3954515,0.4740925,0.7813301,0.4870281
				C15.2185078,15.4901161,15.9073782,14.3427057,15.2268267,13.7914953z"/>
		</g>
		<g opacity="0.3">
			<g>
				<g>
					<path fill="#545157" d="M1.9087449,2.0399053c-1.9282521,2.0023744-1.8718257,5.1922626,0.1260329,7.1248732
						s5.1805878,1.876091,7.10884-0.1262836s1.8718243-5.1923323-0.1260347-7.1249428S3.836997,0.0375306,1.9087449,2.0399053z
						 M7.6415882,7.5853815C6.546,8.7231588,4.7107615,8.729372,3.5424531,7.5992913s-1.2272592-2.968503-0.1316712-4.1062808
						s2.9308248-1.1440442,4.0991335-0.0139635S8.7371759,6.4476037,7.6415882,7.5853815z"/>
				</g>
			</g>
		</g>
		<g>
			<g>
				<g>
					<path fill="#545157" d="M5.6082139,8.9430342c-0.9003906,0-1.7558594-0.3486328-2.4130859-0.9843755
						c-1.3642577-1.3193359-1.4296874-3.4785156-0.1445313-4.8125c0.9394531-0.9775391,2.3798828-1.2763673,3.6650391-0.7666016
						c0.2568359,0.1025391,0.3818359,0.3935547,0.2802734,0.6494141C6.8933702,3.2858074,6.6023545,3.4088542,6.3464952,3.3092449
						C5.438292,2.9479167,4.4285264,3.1559246,3.7712998,3.8395183C2.8679795,4.7779946,2.9207139,6.3033853,3.8904405,7.2399087
						c0.4804688,0.4638672,1.0996094,0.7509766,1.7617188,0.7021484c0.6240234-0.0107422,1.203125-0.2607422,1.6289063-0.703125
						c0.6630859-0.6884766,0.8330083-1.7158203,0.4316406-2.6171875c-0.1123047-0.2519531,0.0019531-0.5478516,0.2539063-0.660156
						c0.2519536-0.1103516,0.547852,0,0.6601567,0.253906c0.5673828,1.2753906,0.3212891,2.734375-0.625,3.7167969
						C7.3894639,8.5680342,6.5613389,8.9264326,5.6697373,8.9420576C5.6492295,8.9430342,5.6287217,8.9430342,5.6082139,8.9430342z"
						/>
				</g>
			</g>
		</g>
		<g>
			<g>
				<path fill="#545157" d="M14.4498472,16.0003128c-0.0102539,0-0.0209961,0-0.03125-0.0004892
					c-0.362793-0.0087891-0.7075195-0.1704102-0.9467773-0.4443359L8.739398,10.0476751
					c-2.1523442,1.5537109-5.1040039,1.3613281-7.0522466-0.5234375C-0.5052313,7.4036322-0.567243,3.8904486,1.5484797,1.6931831
					c1.0253907-1.0649414,2.4033203-1.6660156,3.8798828-1.6918945C6.9254327-0.034356,8.3023863,0.5266792,9.3653746,1.5540229
					c1.7192383,1.6630858,2.1787109,4.2294922,1.1435547,6.3862305c-0.1196289,0.2485352-0.4169922,0.355957-0.6669922,0.234375
					c-0.2490234-0.1196289-0.3540039-0.4179688-0.234375-0.6669922c0.8486328-1.7680664,0.4716797-3.871582-0.9375-5.2348633
					c-0.8701177-0.8413085-2.0141606-1.302246-3.2241216-1.2719725C4.2369561,1.0222846,3.1090267,1.5144721,2.2691829,2.3865423
					C0.5343195,4.1878119,0.5855891,7.0672064,2.3824642,8.8054876c1.691406,1.637207,4.3076172,1.715332,6.0883789,0.1816406
					l0.3291016-0.3115234C8.9796324,8.5032415,9.258441,8.4920111,9.4532652,8.6458197l6.0605469,4.78125
					c0.2871094,0.234375,0.4609375,0.5732422,0.4824219,0.9355469c0.0219717,0.3623047-0.1098633,0.7197266-0.3618164,0.980957
					l-0.2490234,0.2587891C15.1407652,15.8562689,14.8014097,16.0003128,14.4498472,16.0003128z"/>
			</g>
		</g>
	</g>
</g>
<g id="submitted">
</g>
<g id="feedback">
</g>
<g id="dnd_x5F_arrow">
</g>
</svg>
