<?xml version="1.0" encoding="utf-8"?>
<!-- Generator: Adobe Illustrator 21.0.0, SVG Export Plug-In . SVG Version: 6.00 Build 0)  -->
<svg version="1.1" xmlns="http://www.w3.org/2000/svg" xmlns:xlink="http://www.w3.org/1999/xlink" x="0px" y="0px" width="16px"
	 height="16px" viewBox="0 0 16 16" enable-background="new 0 0 16 16" xml:space="preserve">
<g id="Layer_1">
</g>
<g id="Layer_2">
</g>
<g id="messages">
</g>
<g id="messages_x5F_hover">
</g>
<g id="profile">
</g>
<g id="profile_x5F_hover">
</g>
<g id="view_x5F_hover">
</g>
<g id="view_x5F_feedback">
</g>
<g id="no_x5F_feedback_x5F_to_x5F_view">
</g>
<g id="download_x5F_hover">
</g>
<g id="download">
</g>
<g id="no_x5F_feedback_x5F_download">
</g>
<g id="link_x5F_hover">
</g>
<g id="assignment_x5F_link_copy">
</g>
<g id="Layer_21">
</g>
<g id="home_x5F_hover">
</g>
<g id="home_1_">
</g>
<g id="edit_x5F_profile">
</g>
<g id="preferences">
</g>
<g id="notifications">
</g>
<g id="my_x5F_posts">
</g>
<g id="logout">
</g>
<g id="assignment">
</g>
<g id="coursework">
</g>
<g id="forum">
</g>
<g id="quiz">
</g>
<g id="book">
</g>
<g id="database">
</g>
<g id="wiki">
</g>
<g id="choice">
</g>
<g id="workshop">
</g>
<g id="certificate">
</g>
<g id="scheduler">
</g>
<g id="equella">
</g>
<g id="file">
</g>
<g id="folder">
</g>
<g id="ims_x5F_content_x5F_package">
</g>
<g id="label">
</g>
<g id="lightbox_x5F_gallery">
</g>
<g id="nln_x5F_learning_x5F_object">
</g>
<g id="page">
</g>
<g id="subpage">
</g>
<g id="tab_x5F_display">
</g>
<g id="new_x5F_label">
</g>
<g id="url">
</g>
<g id="_x33_60_x5F_degree_x5F_diagnostics">
</g>
<g id="adobe_x5F_connect">
</g>
<g id="attendance_x5F_register">
</g>
<g id="booking">
</g>
<g id="chat">
</g>
<g id="checklist">
</g>
<g id="external_x5F_tool">
</g>
<g id="face_x5F_to_x5F_face">
</g>
<g id="forumNG">
</g>
<g id="glossary">
</g>
<g id="group_x5F_choice">
</g>
<g id="journal">
</g>
<g id="mediasite_x5F_content">
</g>
<g id="nanogong_x5F_voice">
</g>
<g id="questionnaire">
</g>
<g id="scorm_x5F_package">
</g>
<g id="survey">
</g>
<g id="tutorship">
</g>
<g id="advanced_x5F_forum">
</g>
<g id="subcourse">
</g>
<g id="lesson_1_">
</g>
<g id="adaptive_x5F_quiz">
</g>
<g id="ou_x5F_wiki">
</g>
<g id="support_x5F_tracker">
</g>
<g id="view_x5F_comments">
</g>
<g id="no_x5F_comment">
</g>
<g id="attention">
</g>
<g id="search">
	<g>
		<g>
			<g>
				<path fill="#FFFFFF" d="M4.9681425,6.1372266H1.669084C1.0234168,6.1372266,0.5,5.6138101,0.5,4.9681425V1.669084
					C0.5,1.0234168,1.0234168,0.5,1.669084,0.5h3.2990584c0.6456676,0,1.1690841,0.5234168,1.1690841,1.169084v3.2990584
					C6.1372266,5.6138101,5.6138101,6.1372266,4.9681425,6.1372266z"/>
			</g>
		</g>
		<g>
			<g>
				<path fill="#FFFFFF" d="M14.3309164,6.1372266h-3.2990589c-0.6456671,0-1.1690845-0.5234165-1.1690845-1.1690841V1.669084
					c0-0.6456672,0.5234175-1.169084,1.1690845-1.169084h3.2990589C14.9765835,0.5,15.5,1.0234168,15.5,1.669084v3.2990584
					C15.5,5.6138101,14.9765835,6.1372266,14.3309164,6.1372266z"/>
			</g>
		</g>
		<g>
			<g>
				<path fill="#FFFFFF" d="M4.9681425,15.5H1.669084C1.0234168,15.5,0.5,14.9765835,0.5,14.3309164v-3.2990589
					c0-0.6456671,0.5234168-1.1690845,1.169084-1.1690845h3.2990584c0.6456676,0,1.1690841,0.5234175,1.1690841,1.1690845v3.2990589
					C6.1372266,14.9765835,5.6138101,15.5,4.9681425,15.5z"/>
			</g>
		</g>
		<g>
			<g>
				<path fill="#FFFFFF" d="M14.3309164,15.5h-3.2990589c-0.6456671,0-1.1690845-0.5234165-1.1690845-1.1690836v-3.2990589
					c0-0.6456671,0.5234175-1.1690845,1.1690845-1.1690845h3.2990589c0.6456671,0,1.1690836,0.5234175,1.1690836,1.1690845
					v3.2990589C15.5,14.9765835,14.9765835,15.5,14.3309164,15.5z"/>
			</g>
		</g>
		<g opacity="0.3">
			<g>
				<path fill="#545157" d="M4.9681425,6.1372266H1.669084C1.0234168,6.1372266,0.5,5.6138101,0.5,4.9681425V1.669084
					C0.5,1.0234168,1.0234168,0.5,1.669084,0.5h3.2990584c0.6456676,0,1.1690841,0.5234168,1.1690841,1.169084v3.2990584
					C6.1372266,5.6138101,5.6138101,6.1372266,4.9681425,6.1372266z"/>
			</g>
		</g>
		<g>
			<path fill="#545157" d="M4.9682617,6.637207H1.6689453C0.7485352,6.637207,0,5.8886719,0,4.9682617V1.6689453
				C0,0.7485352,0.7485352,0,1.6689453,0h3.2993164c0.2763672,0,0.5,0.2236328,0.5,0.5s-0.2236328,0.5-0.5,0.5H1.6689453
				C1.300293,1,1,1.300293,1,1.6689453v3.2993164C1,5.3369141,1.300293,5.637207,1.6689453,5.637207h3.2993164
				c0.3686523,0,0.6689453-0.300293,0.6689453-0.6689453V2.0102539c0-0.2763672,0.2236328-0.5,0.5-0.5s0.5,0.2236328,0.5,0.5
				v2.9580078C6.637207,5.8886719,5.8886719,6.637207,4.9682617,6.637207z"/>
		</g>
		<g opacity="0.3">
			<g>
				<path fill="#545157" d="M14.3309164,6.1372266h-3.2990589c-0.6456671,0-1.1690845-0.5234165-1.1690845-1.1690841V1.669084
					c0-0.6456672,0.5234175-1.169084,1.1690845-1.169084h3.2990589C14.9765835,0.5,15.5,1.0234168,15.5,1.669084v3.2990584
					C15.5,5.6138101,14.9765835,6.1372266,14.3309164,6.1372266z"/>
			</g>
		</g>
		<g>
			<path fill="#545157" d="M14.3310547,6.637207h-3.2993164c-0.9204102,0-1.6689453-0.7485352-1.6689453-1.6689453V1.6689453
				C9.362793,0.7485352,10.1113281,0,11.0317383,0h3.2993164c0.2763672,0,0.5,0.2236328,0.5,0.5s-0.2236328,0.5-0.5,0.5h-3.2993164
				c-0.3686523,0-0.6689453,0.300293-0.6689453,0.6689453v3.2993164c0,0.3686523,0.300293,0.6689453,0.6689453,0.6689453h3.2993164
				C14.699707,5.637207,15,5.3369141,15,4.9682617V2.0102539c0-0.2763672,0.2236328-0.5,0.5-0.5s0.5,0.2236328,0.5,0.5v2.9580078
				C16,5.8886719,15.2514648,6.637207,14.3310547,6.637207z"/>
		</g>
		<g opacity="0.3">
			<g>
				<path fill="#545157" d="M4.9681425,15.5H1.669084C1.0234168,15.5,0.5,14.9765835,0.5,14.3309164v-3.2990589
					c0-0.6456671,0.5234168-1.1690845,1.169084-1.1690845h3.2990584c0.6456676,0,1.1690841,0.5234175,1.1690841,1.1690845v3.2990589
					C6.1372266,14.9765835,5.6138101,15.5,4.9681425,15.5z"/>
			</g>
		</g>
		<g>
			<path fill="#545157" d="M4.9682617,16H1.6689453C0.7485352,16,0,15.2514648,0,14.3310547v-3.2993164
				C0,10.1113281,0.7485352,9.362793,1.6689453,9.362793h3.2993164c0.2763672,0,0.5,0.2236328,0.5,0.5s-0.2236328,0.5-0.5,0.5
				H1.6689453C1.300293,10.362793,1,10.6630859,1,11.0317383v3.2993164C1,14.699707,1.300293,15,1.6689453,15h3.2993164
				c0.3686523,0,0.6689453-0.300293,0.6689453-0.6689453v-2.9580078c0-0.2763672,0.2236328-0.5,0.5-0.5s0.5,0.2236328,0.5,0.5
				v2.9580078C6.637207,15.2514648,5.8886719,16,4.9682617,16z"/>
		</g>
		<g opacity="0.3">
			<g>
				<path fill="#545157" d="M14.3309164,15.5h-3.2990589c-0.6456671,0-1.1690845-0.5234165-1.1690845-1.1690836v-3.2990589
					c0-0.6456671,0.5234175-1.1690845,1.1690845-1.1690845h3.2990589c0.6456671,0,1.1690836,0.5234175,1.1690836,1.1690845
					v3.2990589C15.5,14.9765835,14.9765835,15.5,14.3309164,15.5z"/>
			</g>
		</g>
		<g>
			<path fill="#545157" d="M14.3310547,16h-3.2993164c-0.9204102,0-1.6689453-0.7485352-1.6689453-1.6689453v-3.2993164
				c0-0.9204102,0.7485352-1.6689453,1.6689453-1.6689453h3.2993164c0.2763672,0,0.5,0.2236328,0.5,0.5s-0.2236328,0.5-0.5,0.5
				h-3.2993164c-0.3686523,0-0.6689453,0.300293-0.6689453,0.6689453v3.2993164C10.362793,14.699707,10.6630859,15,11.0317383,15
				h3.2993164C14.699707,15,15,14.699707,15,14.3310547v-2.9580078c0-0.2763672,0.2236328-0.5,0.5-0.5s0.5,0.2236328,0.5,0.5
				v2.9580078C16,15.2514648,15.2514648,16,14.3310547,16z"/>
		</g>
	</g>
</g>
<g id="submitted">
</g>
<g id="feedback">
</g>
<g id="dnd_x5F_arrow">
</g>
</svg>
