<?xml version="1.0" encoding="utf-8"?>
<!-- Generator: Adobe Illustrator 21.0.0, SVG Export Plug-In . SVG Version: 6.00 Build 0)  -->
<svg version="1.1" xmlns="http://www.w3.org/2000/svg" xmlns:xlink="http://www.w3.org/1999/xlink" x="0px" y="0px" width="64px"
	 height="64px" viewBox="0 0 64 64" enable-background="new 0 0 64 64" xml:space="preserve">
<g id="Layer_1">
</g>
<g id="Layer_2">
</g>
<g id="messages">
</g>
<g id="messages_x5F_hover">
</g>
<g id="profile">
</g>
<g id="profile_x5F_hover">
</g>
<g id="view_x5F_hover">
</g>
<g id="view_x5F_feedback">
</g>
<g id="no_x5F_feedback_x5F_to_x5F_view">
</g>
<g id="download_x5F_hover">
</g>
<g id="download">
</g>
<g id="no_x5F_feedback_x5F_download">
</g>
<g id="link_x5F_hover">
</g>
<g id="assignment_x5F_link_copy">
</g>
<g id="Layer_21">
</g>
<g id="home_x5F_hover">
</g>
<g id="home_1_">
</g>
<g id="edit_x5F_profile">
</g>
<g id="preferences">
</g>
<g id="notifications">
</g>
<g id="my_x5F_posts">
</g>
<g id="logout">
</g>
<g id="assignment">
</g>
<g id="coursework">
</g>
<g id="forum">
</g>
<g id="quiz">
</g>
<g id="book">
</g>
<g id="database">
</g>
<g id="wiki">
</g>
<g id="choice">
</g>
<g id="workshop">
	<g>
		<g>
			<g>
				<path fill="#FFFFFF" d="M61.2429733,6.5999689l-3.9493446-3.9389863
					c-1.7019196-1.6975024-4.458004-1.6939358-6.1555061,0.008152L47.0101089,6.807847
					c-0.8510437-0.8486662-2.229084-0.8469677-3.0779228,0.004076l-0.8191147,0.8213229
					c-0.848835,0.8510442-0.8471375,2.2290864,0.0039063,3.0779223l-0.6722069,0.6739054L10.725172,43.1877213
					c-1.2083769,1.2116051-2.1667566,2.648922-2.8207922,4.2300835L1.7344393,59.4263382
					c-0.9634748,1.8751526,1.0356547,3.887867,2.917428,2.9369621l12.1683483-6.1485443
					c1.4492035-0.7321587,2.772049-1.6912155,3.9186058-2.8408318l32.4911575-32.5762482
					c0.8510437,0.8486671,2.2290878,0.8469696,3.077755-0.004076l0.8192825-0.8213215
					c0.8488388-0.8510437,0.8469696-2.2290859-0.0040741-3.0779228l4.1280136-4.1387119
					C62.9486275,11.0535555,62.9450607,8.297471,61.2429733,6.5999689z"/>
			</g>
			<g opacity="0.3">
				<g>
					<polygon fill="#545157" points="53.2299805,20.7976246 43.1170425,10.7111168 9.2424974,44.9661827 19.0079231,55.1093636 
											"/>
				</g>
			</g>
			<g opacity="0.3">
				<g>
					<polygon fill="#545157" points="9.8975067,58.6565819 2.2180474,61.8302612 5.3716192,54.1425209 					"/>
				</g>
			</g>
			<g opacity="0.3">
				<g>
					<path fill="#545157" d="M57.1229744,16.8944283l4.1280403-4.1388578
						c1.6976051-1.7020512,1.6939964-4.4580154-0.0080528-6.1556177l-3.9492645-3.9389431
						c-1.7020531-1.697603-4.4580154-1.6939967-6.1556206,0.0080547l-4.1280403,4.1388569L57.1229744,16.8944283z"/>
				</g>
			</g>
			<path fill="#545157" d="M62.2244263,5.6147461L58.276123,1.6759644c-2.2445679-2.2391357-5.8858032-2.2337036-8.124939,0.0108643
				l-3.3443604,3.3532104c-1.288208-0.5171509-2.8180542-0.2542725-3.8620605,0.7907715l-0.8179321,0.8206177
				c-1.0380249,1.043457-1.2988892,2.5760498-0.7771606,3.8627319L9.741333,42.2053833
				c-1.3424072,1.34375-2.3912964,2.918457-3.0733643,4.5760498L0.4941406,58.7921753
				c-0.7174072,1.3994141-0.4646606,3.0271606,0.6467285,4.1439819C1.8364868,63.6345215,2.7332153,64,3.6517334,64
				c0.5488892,0,1.1032104-0.1304321,1.6276855-0.3953857l12.168335-6.1480103
				c1.5842285-0.8016357,3.0217285-1.84375,4.2771606-3.1005249l31.7088623-31.7904053
				c1.2880249,0.5149536,2.8151855,0.2540894,3.8613892-0.7907715l0.8179321-0.8206177
				c1.3858643-1.3926392,1.3858643-3.65625-0.0054321-5.0447998l-9.1293335-9.1046753l3.1429443-3.1533203
				c1.1575928-1.1576538,3.0325928-1.1549072,4.1901855-0.0054932l3.9483643,3.9388428
				c1.1548462,1.1535034,1.1575928,3.0325928,0.0054321,4.1888428c-0.5407715,0.5447998-0.5407715,1.4252319,0.0054321,1.968689
				c0.2717285,0.2703857,0.625,0.4049072,0.980957,0.4049072s0.7146606-0.137207,0.9863892-0.4089966
				C64.4716797,11.4951172,64.4662476,7.8511353,62.2244263,5.6147461z M4.0239868,61.1209717
				c-0.456543,0.2268677-0.7907715-0.0271606-0.9103394-0.1467285C2.991394,60.8519287,2.7359619,60.519043,2.9696655,60.062561
				l2.156189-4.1988525L8.25354,58.9839478L4.0239868,61.1209717z M16.1923218,54.9729004l-5.3219604,2.6888428
				l-4.4090576-4.3985596l2.7283936-5.3132935c0.0651855-0.1572876,0.1453857-0.305603,0.2168579-0.4591675l7.2249756,7.2143555
				C16.4810791,54.7883301,16.3460083,54.8951416,16.1923218,54.9729004z M56.1402588,17.8795776
				c0.3070679,0.3057251,0.3070679,0.8029785,0,1.1113892l-0.8151855,0.8192749
				c-0.3043213,0.3043823-0.7988892,0.3125-1.1141357,0.0027466c-0.5380249-0.5407715-1.418457-0.5435181-1.9673462,0.0026855
				L19.7548218,52.3914185c-0.2518921,0.2518921-0.5396118,0.4589233-0.8085938,0.6898804l-8.0338135-8.0214844
				c0.2506104-0.3084106,0.5157471-0.6061401,0.7990112-0.8897705l31.4072266-31.4915161l3.3587036,3.3505249l-29.1899414,29.192627
				c-0.543457,0.543457-0.543457,1.4238892,0,1.9673462c0.5435181,0.543457,1.4238892,0.543457,1.9674072,0l30.1762695-30.1776733
				c0.2608643-0.2608643,0.4075928-0.6154785,0.4075928-0.9850464s-0.1467285-0.7227783-0.4075928-0.9836426l-5.3314209-5.3165283
				c-0.3070679-0.3057251-0.3070679-0.8029785,0-1.1113892l0.8151855-0.8193359
				c0.3070679-0.3015747,0.8043213-0.3097534,1.1113892-0.0026855L56.1402588,17.8795776z"/>
		</g>
	</g>
</g>
<g id="certificate">
</g>
<g id="scheduler">
</g>
<g id="equella">
</g>
<g id="file">
</g>
<g id="folder">
</g>
<g id="ims_x5F_content_x5F_package">
</g>
<g id="label">
</g>
<g id="lightbox_x5F_gallery">
</g>
<g id="nln_x5F_learning_x5F_object">
</g>
<g id="page">
</g>
<g id="subpage">
</g>
<g id="tab_x5F_display">
</g>
<g id="new_x5F_label">
</g>
<g id="url">
</g>
<g id="_x33_60_x5F_degree_x5F_diagnostics">
</g>
<g id="adobe_x5F_connect">
</g>
<g id="attendance_x5F_register">
</g>
<g id="booking">
</g>
<g id="chat">
</g>
<g id="checklist">
</g>
<g id="external_x5F_tool">
</g>
<g id="face_x5F_to_x5F_face">
</g>
<g id="forumNG">
</g>
<g id="glossary">
</g>
<g id="group_x5F_choice">
</g>
<g id="journal">
</g>
<g id="mediasite_x5F_content">
</g>
<g id="nanogong_x5F_voice">
</g>
<g id="questionnaire">
</g>
<g id="scorm_x5F_package">
</g>
<g id="survey">
</g>
<g id="tutorship">
</g>
<g id="advanced_x5F_forum">
</g>
<g id="subcourse">
</g>
<g id="lesson_1_">
</g>
<g id="adaptive_x5F_quiz">
</g>
<g id="ou_x5F_wiki">
</g>
<g id="support_x5F_tracker">
</g>
<g id="view_x5F_comments">
</g>
<g id="no_x5F_comment">
</g>
<g id="attention">
</g>
<g id="search">
</g>
<g id="submitted">
</g>
<g id="feedback">
</g>
<g id="dnd_x5F_arrow">
</g>
</svg>
