<?xml version="1.0" encoding="utf-8"?>
<!-- Generator: Adobe Illustrator 21.0.0, SVG Export Plug-In . SVG Version: 6.00 Build 0)  -->
<svg version="1.1" xmlns="http://www.w3.org/2000/svg" xmlns:xlink="http://www.w3.org/1999/xlink" x="0px" y="0px" width="64px"
	 height="64px" viewBox="0 0 64 64" enable-background="new 0 0 64 64" xml:space="preserve">
<g id="Layer_1">
</g>
<g id="Layer_2">
</g>
<g id="messages">
</g>
<g id="messages_x5F_hover">
</g>
<g id="profile">
</g>
<g id="profile_x5F_hover">
</g>
<g id="view_x5F_hover">
</g>
<g id="view_x5F_feedback">
</g>
<g id="no_x5F_feedback_x5F_to_x5F_view">
</g>
<g id="download_x5F_hover">
</g>
<g id="download">
</g>
<g id="no_x5F_feedback_x5F_download">
</g>
<g id="link_x5F_hover">
</g>
<g id="assignment_x5F_link_copy">
</g>
<g id="Layer_21">
</g>
<g id="home_x5F_hover">
</g>
<g id="home_1_">
</g>
<g id="edit_x5F_profile">
</g>
<g id="preferences">
</g>
<g id="notifications">
</g>
<g id="my_x5F_posts">
</g>
<g id="logout">
</g>
<g id="assignment">
</g>
<g id="coursework">
</g>
<g id="forum">
</g>
<g id="quiz">
</g>
<g id="book">
</g>
<g id="database">
</g>
<g id="wiki">
</g>
<g id="choice">
</g>
<g id="workshop">
</g>
<g id="certificate">
</g>
<g id="scheduler">
</g>
<g id="equella">
</g>
<g id="file">
</g>
<g id="folder">
</g>
<g id="ims_x5F_content_x5F_package">
</g>
<g id="label">
</g>
<g id="lightbox_x5F_gallery">
</g>
<g id="nln_x5F_learning_x5F_object">
</g>
<g id="page">
</g>
<g id="subpage">
</g>
<g id="tab_x5F_display">
</g>
<g id="new_x5F_label">
</g>
<g id="url">
</g>
<g id="_x33_60_x5F_degree_x5F_diagnostics">
</g>
<g id="adobe_x5F_connect">
</g>
<g id="attendance_x5F_register">
</g>
<g id="booking">
</g>
<g id="chat">
</g>
<g id="checklist">
</g>
<g id="external_x5F_tool">
	<g>
		<g>
			<g>
				<path fill="#FFFFFF" d="M16.596714,39.1331444c-1.7529211-0.0122871-3.4236593,0.6503563-4.7543173,1.7915115
					c-1.4762983,1.2660522-3.5296984,1.8691406-5.7321491,1.3269157c-2.1827779-0.537384-3.9855154-2.2970123-4.5545812-4.4717445
					c-1.1191052-4.2767563,2.0767279-8.1231728,6.1710997-8.1231728c1.6181417,0,3.0844703,0.6079006,4.2033763,1.6034622
					c1.2798767,1.1387901,2.9618731,1.7145157,4.6750364,1.7145767l0.3056793,0.0000114
					c0.4941673,0,0.9049969-0.3808784,0.9422722-0.8735809l-2.3567362-15.4315033
					c0.2713366-1.2031898,1.2962942-2.0884914,2.5261793-2.1815958l15.3864155,4.6752214
					c0.4928627-0.0372734,0.8734169-0.4388256,0.8734169-0.9954967l-0.0000076-0.2607555
					c-0.000061-1.7604275-0.6695786-3.4345579-1.8097878-4.7758389c-1.2548962-1.4761982-1.8495483-3.522953-1.3069286-5.7172151
					c0.5392342-2.1805735,2.298521-3.9805336,4.4717503-4.5486393c4.2761116-1.1178205,8.1212387,2.0780165,8.1212387,6.1717443
					c0,1.6186905-0.6082726,3.0852318-1.6040649,4.2043152c-1.1385078,1.2794724-1.713913,2.9610968-1.713974,4.6737719
					l-0.0000114,0.3060055c0,0.4941673,0.3808784,0.9049969,0.873745,0.9422703l15.3867416-4.6753836
					c1.2298813,0.0931044,2.2548409,0.978406,2.5260124,2.1815958l3.415699,15.152195
					c0.1369171,0.6073647-0.3446236,1.1563492-0.9672203,1.1526833c-1.6971397-0.0099831-3.360527-0.5852242-4.628933-1.7139149
					c-1.1190376-0.9958229-2.5855904-1.6039295-4.2040062-1.6039295c-4.0946236,0-7.290596,3.8468895-6.1710701,8.1238136
					c0.0916405,0.3500519,0.2252235,0.6847153,0.3824577,1.0076828c0.8023949,1.648159,2.2721748,2.9595985,4.0437546,3.4305229
					c2.2408295,0.5956612,4.374485,0.0452728,5.8401337-1.2767372c1.3970757-1.2601624,3.2411232-1.7001534,4.5352783-1.8480339
					c0.7800026-0.0891304,1.4042282,0.6436272,1.2265396,1.408329l-3.5388794,15.2298965
					c-0.2382927,1.0571861-1.063858,1.8827515-2.1208839,2.1210442l-15.4461479,3.4817963l-0.0003281,0.000164l0,0
					c-0.5747375,0.1294022-1.1125259-0.2957535-1.1418266-0.8765106l-0.0105782-0.045414v-0.0097656
					c0.0001602-1.7595367,0.6689796-3.4329681,1.8090172-4.7733727c1.2794266-1.5042229,1.8730431-3.6014709,1.2756577-5.8436127
					c-0.5670319-2.128231-2.3084755-3.8661003-4.4393272-4.4232101c-4.2761803-1.118-8.1214485,2.0776711-8.1214485,6.171711
					c0,0.6610069,0.1241932,1.2866898,0.3120289,1.8835678c0.27215,0.8649559,0.702837,1.6587791,1.292223,2.3210869
					c1.1283607,1.2680779,1.7034378,2.9312859,1.7134781,4.6282539c0.0036812,0.6226196-0.5453453,1.1041794-1.1527367,0.9672585
					l-15.4463139-3.4819527c-1.0571861-0.2382927-1.8825893-1.063858-2.1210461-2.1210442l4.0611477-15.3228188
					c0.1681614-0.6344757-0.3074818-1.2571068-0.96385-1.2617073L16.596714,39.1331444z"/>
			</g>
		</g>
		<g opacity="0.3">
			<g>
				<path fill="#32548C" d="M34.2824516,17.9070206c-0.0000229-1.7595062-0.6688843-3.4343481-1.8088493-4.7746248
					c-1.2378445-1.4553576-1.8336868-3.4655714-1.3303413-5.6251459c0.5172539-2.2192459,2.2892456-4.0655618,4.4938736-4.6419535
					c4.2762032-1.1179987,8.1215363,2.0778925,8.1215363,6.1717911c0,1.6188002-0.6083641,3.0856256-1.6043549,4.2048197
					c-1.138443,1.2792721-1.7136383,2.9608135-1.7136383,4.673296l-0.0000038,0.0000057
					c-1.3055725,2.4751511-4.8507042,2.4741268-6.1548462-0.0017776L34.2824516,17.9070206z"/>
			</g>
		</g>
		<g opacity="0.3">
			<g>
				<path fill="#32548C" d="M16.5967236,39.1331215c-1.7594938,0.0000229-3.434247,0.6689682-4.7745981,1.8088264
					c-1.4551897,1.2375183-3.4651165,1.833374-5.6244173,1.3305321c-2.2189877-0.5167351-4.0651884-2.2881432-4.6420465-4.4922676
					c-1.119344-4.2769127,2.0766621-8.1235123,6.1711264-8.1235123c1.6184268,0,3.084949,0.6080837,4.2040448,1.6039162
					c1.2795877,1.138649,2.9614201,1.714077,4.6742735,1.714077l0.0000057,0.0000038
					c2.475153,1.3056374,2.4741039,4.8507919-0.0018215,6.1549644L16.5967236,39.1331215z"/>
			</g>
		</g>
		<g>
			<path fill="#32548C" d="M62.0603027,42.8730278c-0.7214355-0.1627808-1.4349976,0.291687-1.5938721,1.0078735
				L57.8621216,55.437542c-0.125,0.552063-0.5651245,0.989624-1.1172485,1.114624l-14.9417114,3.3682251
				c0.1075439-1.2258911,0.6141357-2.4268799,1.461792-3.4255371c1.6589966-1.9467163,2.2241211-4.5171509,1.5496216-7.0498657
				c-0.687561-2.5860596-2.8022461-4.6942749-5.3883667-5.3713989c-2.3985596-0.6276245-4.8726196-0.140625-6.7841797,1.3399658
				c-1.9141846,1.4766235-3.0106201,3.7072144-3.0106201,6.1213989c0,1.8737793,0.6901855,3.6812134,1.9428101,5.0914307
				c0.7839355,0.8828735,1.2579346,2.0391846,1.3568726,3.2970581L17.9771729,56.552166
				c-0.463562-0.104187-0.843811-0.4258423-1.0287476-0.8503418l3.0444336-11.5930786
				c0.187561-0.7122803-0.2369385-1.4414673-0.9505615-1.6276855c-0.7213745-0.1887817-1.4401855,0.2383423-1.6276855,0.9506226
				l-3.1408081,11.9615479c-0.0546875,0.2057495-0.0598755,0.421936-0.0130005,0.630249
				c0.348999,1.5521851,1.5756226,2.7800903,3.1277466,3.1303711l15.4487915,3.4819946
				c0.166687,0.0377197,0.3359375,0.0559692,0.5026245,0.0559692c0.5130615,0,1.010498-0.171875,1.421936-0.5
				c0.541687-0.4349365,0.854248-1.0834351,0.854248-1.7787476c0-2.0991211-0.729248-4.0744629-2.0496216-5.5588989
				c-0.817749-0.9206543-1.2683105-2.0991211-1.2683105-3.3192139c0-1.5808105,0.718811-3.0431519,1.9714966-4.0106201
				c1.255249-0.9700928,2.8907471-1.2865601,4.4793701-0.869873c1.6746216,0.437561,3.0444946,1.8021851,3.4871826,3.4754639
				c0.4453735,1.6745605,0.0807495,3.3647461-1.0026245,4.6369629c-1.369873,1.6134033-2.1251221,3.6148071-2.1251221,5.6461792
				c0,0.6966553,0.3125,1.3450928,0.854187,1.7787476c0.4632568,0.3718872,1.0428467,0.5280151,1.6260986,0.4758301
				c0.0014648,0,0.0027466,0.0007324,0.0042114,0.0007324c0.0963745,0,0.1953125-0.010437,0.2943115-0.0325317l15.446106-3.4819946
				c1.5495605-0.348938,2.7761841-1.5769043,3.1278076-3.1290894l2.6043091-11.5579224
				C63.2296143,43.7480888,62.7764893,43.0345268,62.0603027,42.8730278z"/>
			<path fill="#32548C" d="M63.9431763,31.5286674L60.5289307,16.376812
				c-0.4036865-1.7865601-1.901123-3.0795898-3.7267456-3.2189331c-0.1693115-0.0169067-0.333374,0.005188-0.489624,0.0534058
				l-14.5320435,4.4168701c0.0625-1.3372803,0.541687-2.5704346,1.3724976-3.5001831
				c1.250061-1.4089355,1.9401855-3.2163086,1.9401855-5.0914307c0-2.4141841-1.0964355-4.6447749-3.0105591-6.1213989
				c-1.9141846-1.479248-4.3882446-1.9662476-6.7842407-1.3399048c-2.5834961,0.677124-4.7007446,2.7852786-5.3909302,5.3713379
				c-0.671875,2.5300899-0.1067505,5.0992427,1.5495605,7.0485835c0.854248,1.005249,1.3673096,2.2136841,1.4714355,3.6290894
				l-14.5189819-4.4129639c-0.15625-0.0482178-0.3255615-0.0690308-0.489624-0.0534058
				c-1.822998,0.1393433-3.3204956,1.4310913-3.7241821,3.2163086c-0.036438,0.1627808-0.0442505,0.3320313-0.0181885,0.4974365
				l2.2553101,14.7664185c-1.3803101-0.036438-2.6589966-0.5221558-3.6148071-1.3724976
				c-1.406311-1.2526245-3.2136841-1.9428101-5.0913696-1.9428101c-2.4142456,0-4.6434937,1.0977173-6.1201782,3.0106201
				c-1.479248,1.9141235-1.9662476,4.3882446-1.338562,6.7841797c0.6744995,2.5861206,2.7839966,4.7008057,5.3674316,5.3896484
				c2.5314331,0.6693115,5.1018677,0.1080933,7.0524902-1.5495605c1.130249-0.9609985,2.5183716-1.4909668,3.9090576-1.4909668
				c0.7369995,0,1.3334351-0.5963745,1.3334351-1.3334351c0-0.7369995-0.5964355-1.333374-1.3334351-1.333374
				c-2.0235596,0-4.0262451,0.755249-5.6357422,2.1264038c-1.2734985,1.083374-2.9688721,1.447998-4.6382446,1.0026855
				c-1.6745605-0.4453735-3.0392456-1.8139038-3.4767456-3.4859009c-0.416687-1.5912476-0.098999-3.2254028,0.869812-4.4807129
				c1.7188721-2.2214355,5.2294922-2.5808716,7.3285522-0.7057495c1.4870605,1.322998,3.4611206,2.0509033,5.5601807,2.0509033
				h0.307312c1.1849365,0,2.1824341-0.9258423,2.2709351-2.1068726c0.005249-0.1002808,0.0026245-0.2005615-0.0130005-0.3008423
				l-2.3126221-15.1401367c0.177063-0.463562,0.572937-0.8047485,1.0547485-0.911499l15.107605,4.5913696
				c0.15625,0.0482178,0.322937,0.0612183,0.489563,0.0534058c1.2006226-0.0911255,2.1069336-1.0911865,2.1069336-2.5860596
				c0-2.0235596-0.755249-4.0262451-2.1277466-5.6383667c-1.083374-1.2734985-1.447998-2.9636841-1.0026245-4.6356196
				c0.4453125-1.6745605,1.8151855-3.0392456,3.4897461-3.4767456c1.593811-0.41803,3.2241211-0.098999,4.4794312,0.869812
				c1.2526245,0.9675293,1.9714355,2.4298096,1.9714355,4.0106196c0,1.2214355-0.4505615,2.3999023-1.265686,3.3179321
				c-1.322998,1.484436-2.0521851,3.4584961-2.0521851,5.5601807v0.3059692c0,1.1836548,0.9244995,2.1811523,2.104248,2.2722778
				c0.161499,0.0065308,0.3307495-0.005188,0.489624-0.0534058l15.107605-4.5913696
				c0.552124,0.1223755,0.989624,0.5494995,1.1172485,1.114624l3.3048706,14.659668
				c-1.2578735-0.0976563-2.4168091-0.5716553-3.2996826-1.3581543c-1.406311-1.2526855-3.2136841-1.9415283-5.0888062-1.9415283
				c-2.4141846,0-4.6460571,1.0977173-6.1227417,3.0106201c-1.479248,1.9154663-1.9662476,4.3882446-1.338623,6.7841797
				c0.6745605,2.5847778,2.7840576,4.7008057,5.3701172,5.3896484c0.7005615,0.1862183,1.4036865,0.2773438,2.0938721,0.2773438
				c1.8099976,0,3.5444336-0.6276245,4.9533691-1.8269043c1.1328735-0.9609985,2.5209961-1.4909668,3.9221191-1.4909668
				c0.7369995,0,1.328186-0.5963745,1.328186-1.3334351c0-0.7369995-0.6016235-1.333374-1.338623-1.333374
				c-2.0209351,0-4.0236816,0.755249-5.6383057,2.1264038c-1.2683105,1.0820923-2.9559326,1.4506226-4.6331177,1.0026855
				c-1.677124-0.4453735-3.0418091-1.8139038-3.4793091-3.4859009c-0.416687-1.5912476-0.098999-3.2241211,0.869812-4.4807129
				c1.7162476-2.2214355,5.2242432-2.5795288,7.3285522-0.7057495c1.484436,1.3216553,3.4611206,2.0509033,5.5628052,2.0509033
				c0.6953125,0,1.343811-0.3112183,1.7786865-0.8555298C63.9353638,32.9089165,64.0968628,32.208416,63.9431763,31.5286674z"/>
		</g>
	</g>
</g>
<g id="face_x5F_to_x5F_face">
</g>
<g id="forumNG">
</g>
<g id="glossary">
</g>
<g id="group_x5F_choice">
</g>
<g id="journal">
</g>
<g id="mediasite_x5F_content">
</g>
<g id="nanogong_x5F_voice">
</g>
<g id="questionnaire">
</g>
<g id="scorm_x5F_package">
</g>
<g id="survey">
</g>
<g id="tutorship">
</g>
<g id="advanced_x5F_forum">
</g>
<g id="subcourse">
</g>
<g id="lesson_1_">
</g>
<g id="adaptive_x5F_quiz">
</g>
<g id="ou_x5F_wiki">
</g>
<g id="support_x5F_tracker">
</g>
<g id="view_x5F_comments">
</g>
<g id="no_x5F_comment">
</g>
<g id="attention">
</g>
<g id="search">
</g>
<g id="submitted">
</g>
<g id="feedback">
</g>
<g id="dnd_x5F_arrow">
</g>
</svg>
