<?xml version="1.0" encoding="utf-8"?>
<!-- Generator: Adobe Illustrator 21.0.0, SVG Export Plug-In . SVG Version: 6.00 Build 0)  -->
<svg version="1.1" xmlns="http://www.w3.org/2000/svg" xmlns:xlink="http://www.w3.org/1999/xlink" x="0px" y="0px" width="64px"
	 height="64px" viewBox="0 0 64 64" enable-background="new 0 0 64 64" xml:space="preserve">
<g id="Layer_1">
</g>
<g id="Layer_2">
</g>
<g id="messages">
</g>
<g id="messages_x5F_hover">
</g>
<g id="profile">
</g>
<g id="profile_x5F_hover">
</g>
<g id="view_x5F_hover">
</g>
<g id="view_x5F_feedback">
</g>
<g id="no_x5F_feedback_x5F_to_x5F_view">
</g>
<g id="download_x5F_hover">
</g>
<g id="download">
</g>
<g id="no_x5F_feedback_x5F_download">
</g>
<g id="link_x5F_hover">
</g>
<g id="assignment_x5F_link_copy">
</g>
<g id="Layer_21">
</g>
<g id="home_x5F_hover">
</g>
<g id="home_1_">
</g>
<g id="edit_x5F_profile">
</g>
<g id="preferences">
</g>
<g id="notifications">
</g>
<g id="my_x5F_posts">
</g>
<g id="logout">
</g>
<g id="assignment">
</g>
<g id="coursework">
</g>
<g id="forum">
</g>
<g id="quiz">
</g>
<g id="book">
</g>
<g id="database">
</g>
<g id="wiki">
</g>
<g id="choice">
</g>
<g id="workshop">
</g>
<g id="certificate">
</g>
<g id="scheduler">
</g>
<g id="equella">
</g>
<g id="file">
</g>
<g id="folder">
</g>
<g id="ims_x5F_content_x5F_package">
</g>
<g id="label">
</g>
<g id="lightbox_x5F_gallery">
</g>
<g id="nln_x5F_learning_x5F_object">
</g>
<g id="page">
</g>
<g id="subpage">
</g>
<g id="tab_x5F_display">
</g>
<g id="new_x5F_label">
</g>
<g id="url">
</g>
<g id="_x33_60_x5F_degree_x5F_diagnostics">
</g>
<g id="adobe_x5F_connect">
</g>
<g id="attendance_x5F_register">
</g>
<g id="booking">
</g>
<g id="chat">
</g>
<g id="checklist">
</g>
<g id="external_x5F_tool">
</g>
<g id="face_x5F_to_x5F_face">
</g>
<g id="forumNG">
</g>
<g id="glossary">
</g>
<g id="group_x5F_choice">
</g>
<g id="journal">
</g>
<g id="mediasite_x5F_content">
</g>
<g id="nanogong_x5F_voice">
</g>
<g id="questionnaire">
</g>
<g id="scorm_x5F_package">
</g>
<g id="survey">
	<g>
		<g>
			<path fill="#FFFFFF" d="M52.8449059,5.0088329h-4.5026321h-5.3973198
				c-0.1788406-0.3069792-0.3902855-0.5983076-0.6923752-0.8011127C39.489769,2.3532927,35.9129639,1.2313436,32,1.2313436
				s-7.4897671,1.1219491-10.2525787,2.9763765c-0.3020878,0.202805-0.5135345,0.4941335-0.6923752,0.8011127h-0.3941975h-9.5057545
				c-1.4735975,0-2.6680927,1.1944957-2.6680927,2.6680927v52.3199615c0,1.4735947,1.1944952,2.6680908,2.6680927,2.6680908
				h41.6898117c1.4735985,0,2.6680946-1.1944962,2.6680946-2.6680908V7.6769257
				C55.5130005,6.2033286,54.3185043,5.0088329,52.8449059,5.0088329z"/>
		</g>
		<g>
			<g opacity="0.3">
				<g>
					<g>
						<circle fill="#32548C" cx="32.6014404" cy="24.4033146" r="9.6931658"/>
					</g>
				</g>
			</g>
			<g>
				<path fill="#32548C" d="M52.8439331,3.6736488h-4.5021362c-0.7382202,0-1.3355103,0.5973511-1.3355103,1.3355103
					s0.59729,1.3355103,1.3355103,1.3355103h4.5021362c0.7355957,0,1.3328857,0.5973511,1.3328857,1.3328857v52.3198242
					c0,0.7342529-0.59729,1.331604-1.3328857,1.331604H11.1560669c-0.7355957,0-1.3328857-0.5973511-1.3328857-1.331604V7.6775551
					c0-0.7355347,0.59729-1.3328857,1.3328857-1.3328857h8.1705322c0,0.005249-0.0009155,0.010376-0.0009155,0.015625v1.1738281
					c0,2.2080078,1.7971802,4.0039063,4.0039063,4.0039063h17.3408203c2.2067261,0,4.0039063-1.7958984,4.0039063-4.0039063
					V6.3602943c0-1.336792-0.6259766-2.5562134-1.6771851-3.2631226
					c-6.1611328-4.1291504-15.8305664-4.1304321-21.9968872,0.0013428
					c-0.2446899,0.1646118-0.4638672,0.3596191-0.6599121,0.5751343h-9.1842651
					c-2.2067261,0-4.0039063,1.7958984-4.0039063,4.0039063v52.3198242c0,2.2067261,1.7971802,4.0026283,4.0039063,4.0026283
					h41.6878662c2.2067261,0,4.0039063-1.7959023,4.0039063-4.0026283V7.6775551
					C56.8478394,5.4695473,55.0506592,3.6736488,52.8439331,3.6736488z M22.4896851,5.3169594
					C25.1346436,3.5432167,28.5125122,2.566349,32,2.566349s6.8653564,0.9768677,9.5076904,2.7493286
					c0.3051758,0.2047119,0.4956055,0.6051025,0.4956055,1.0446167v1.1738281c0,0.7355957-0.59729,1.3328857-1.3328857,1.3328857
					H23.3295898c-0.7355957,0-1.3328857-0.59729-1.3328857-1.3328857V6.3602943
					C21.9967041,5.9207802,22.1871338,5.5203896,22.4896851,5.3169594z"/>
				<path fill="#32548C" d="M42.9658203,20.6310463c-0.2504272-0.6925659-1.012085-1.0525513-1.7111206-0.7982178
					c-0.6938477,0.251709-1.0512085,1.0186157-0.7981567,1.7111206c1.5754395,4.3312988-0.6651611,9.1360474-4.9951782,10.7128296
					c-2.0762939,0.7538452-4.3482056,0.6520996-6.3828125-0.2960815c-2.0345459-0.9481201-3.5735474-2.6175537-4.3299561-4.7003784
					c-0.7590942-2.0802002-0.6520996-4.3469238,0.2947388-6.3814697c0.9494629-2.0333252,2.6188354-3.5722656,4.7003784-4.3300171
					c2.5562744-0.9299316,5.4124756-0.5542603,7.6427002,1.0016479c0.5999146,0.4160156,1.4320068,0.2752075,1.8598022-0.3312988
					c0.4225464-0.6051636,0.2738647-1.4371948-0.3312988-1.8598022c-2.9422607-2.0541382-6.7192993-2.5471191-10.0841675-1.3198242
					c-2.7518921,1.0015869-4.9559937,3.0296631-6.2080688,5.7111206c-1.2493896,2.6814575-1.3850708,5.6733398-0.3834229,8.4238892
					c1.0016479,2.7518921,3.0283813,4.9573364,5.7098389,6.2067871c1.4946289,0.6977539,3.0883789,1.048584,4.6821289,1.048584
					c1.2625122,0,2.5275879-0.2203979,3.743103-0.6638794C42.0894165,32.6871376,45.0447388,26.3460732,42.9658203,20.6310463z"/>
				<path fill="#32548C" d="M28.7055664,28.2998085c1.074646,1.074646,2.4858398,1.6106567,3.8943481,1.6106567
					c1.4111938,0,2.8223267-0.5360107,3.8970337-1.6106567c0.5216675-0.5217285,0.5216675-1.3668213,0-1.8884888
					c-0.5217285-0.5217285-1.3668213-0.5217285-1.8885498,0c-1.105957,1.1098633-2.9083862,1.1046143-4.0143433,0
					c-0.5216675-0.5217285-1.3668213-0.5217285-1.8884888,0C28.1838989,26.9329872,28.1838989,27.77808,28.7055664,28.2998085z"/>
				<path fill="#32548C" d="M31.428772,22.5273476v-0.6795044c0-0.7381592-0.5973511-1.3355103-1.3355103-1.3355103
					c-0.7382202,0-1.3355103,0.5973511-1.3355103,1.3355103v0.6795044c0,0.7381592,0.59729,1.3355103,1.3355103,1.3355103
					C30.8314209,23.8628578,31.428772,23.2655067,31.428772,22.5273476z"/>
				<path fill="#32548C" d="M36.4447632,22.5273476v-0.6795044c0-0.7381592-0.5973511-1.3355103-1.3355103-1.3355103
					c-0.7382202,0-1.3355103,0.5973511-1.3355103,1.3355103v0.6795044c0,0.7381592,0.59729,1.3355103,1.3355103,1.3355103
					C35.8474121,23.8628578,36.4447632,23.2655067,36.4447632,22.5273476z"/>
				<path fill="#32548C" d="M39.8305054,41.870121c0.4721069-0.56604,0.3964844-1.4085693-0.1695557-1.8806763
					c-3.0075073-2.5040894-7.1549072-3.223999-10.8302002-1.8884888c-2.7518921,1.0003052-4.9559937,3.0283813-6.2080688,5.7098389
					c-1.2493896,2.6814575-1.3850708,5.6733398-0.3834229,8.4252319c1.6276855,4.4734497,5.866333,7.2579346,10.3737183,7.2565918
					c1.2494507,0,2.5223389-0.2138672,3.7613525-0.6651001c5.7150879-2.0802612,8.6704102-8.4213257,6.5914917-14.1350708
					c-0.2529907-0.6925659-1.012085-1.0512085-1.7111206-0.7981567c-0.6938477,0.251709-1.0512085,1.0185547-0.7981567,1.7111206
					c1.5754395,4.3299561-0.6651611,9.1359863-4.9951782,10.7127686c-4.3403931,1.572876-9.1372681-0.6638184-10.7127686-4.9963989
					c-0.7590942-2.081543-0.6520996-4.3482666,0.2947388-6.3815308c0.9494629-2.0346069,2.6188354-3.5722656,4.7003784-4.3300171
					c2.7857666-1.0159912,5.9263306-0.4655762,8.2061157,1.4320679
					C38.5184326,42.5117836,39.3583984,42.4400673,39.8305054,41.870121z"/>
				<path fill="#32548C" d="M28.7055664,53.3485146c0.5216675,0.5216675,1.3668213,0.5216675,1.8884888,0
					c1.105957-1.1020508,2.9083862-1.1072998,4.0143433,0c0.2608643,0.2608032,0.6026001,0.3912354,0.9442749,0.3912354
					c0.3417358,0,0.6834106-0.1304321,0.9442749-0.3912354c0.5216675-0.5217285,0.5216675-1.3668213,0-1.8884888
					c-2.1467285-2.1467896-5.6394653-2.1519775-7.7913818,0C28.1838989,51.9816933,28.1838989,52.826786,28.7055664,53.3485146z"/>
				<path fill="#32548C" d="M31.428772,46.5887489v-0.6795044c0-0.7381592-0.5973511-1.3355103-1.3355103-1.3355103
					c-0.7382202,0-1.3355103,0.5973511-1.3355103,1.3355103v0.6795044c0,0.7382202,0.59729,1.3355103,1.3355103,1.3355103
					C30.8314209,47.9242592,31.428772,47.3269691,31.428772,46.5887489z"/>
				<path fill="#32548C" d="M36.4447632,46.5887489v-0.6795044c0-0.7381592-0.5973511-1.3355103-1.3355103-1.3355103
					c-0.7382202,0-1.3355103,0.5973511-1.3355103,1.3355103v0.6795044c0,0.7382202,0.59729,1.3355103,1.3355103,1.3355103
					C35.8474121,47.9242592,36.4447632,47.3269691,36.4447632,46.5887489z"/>
			</g>
		</g>
	</g>
</g>
<g id="tutorship">
</g>
<g id="advanced_x5F_forum">
</g>
<g id="subcourse">
</g>
<g id="lesson_1_">
</g>
<g id="adaptive_x5F_quiz">
</g>
<g id="ou_x5F_wiki">
</g>
<g id="support_x5F_tracker">
</g>
<g id="view_x5F_comments">
</g>
<g id="no_x5F_comment">
</g>
<g id="attention">
</g>
<g id="search">
</g>
<g id="submitted">
</g>
<g id="feedback">
</g>
<g id="dnd_x5F_arrow">
</g>
</svg>
