<?xml version="1.0" encoding="utf-8"?>
<!-- Generator: Adobe Illustrator 21.0.0, SVG Export Plug-In . SVG Version: 6.00 Build 0)  -->
<svg version="1.1" xmlns="http://www.w3.org/2000/svg" xmlns:xlink="http://www.w3.org/1999/xlink" x="0px" y="0px" width="64px"
	 height="64px" viewBox="0 0 64 64" enable-background="new 0 0 64 64" xml:space="preserve">
<g id="Layer_1">
</g>
<g id="Layer_2">
</g>
<g id="messages">
</g>
<g id="messages_x5F_hover">
</g>
<g id="profile">
</g>
<g id="profile_x5F_hover">
</g>
<g id="view_x5F_hover">
</g>
<g id="view_x5F_feedback">
</g>
<g id="no_x5F_feedback_x5F_to_x5F_view">
</g>
<g id="download_x5F_hover">
</g>
<g id="download">
</g>
<g id="no_x5F_feedback_x5F_download">
</g>
<g id="link_x5F_hover">
</g>
<g id="assignment_x5F_link_copy">
</g>
<g id="Layer_21">
</g>
<g id="home_x5F_hover">
</g>
<g id="home_1_">
</g>
<g id="edit_x5F_profile">
</g>
<g id="preferences">
</g>
<g id="notifications">
</g>
<g id="my_x5F_posts">
</g>
<g id="logout">
</g>
<g id="assignment">
</g>
<g id="coursework">
</g>
<g id="forum">
</g>
<g id="quiz">
</g>
<g id="book">
</g>
<g id="database">
</g>
<g id="wiki">
</g>
<g id="choice">
</g>
<g id="workshop">
</g>
<g id="certificate">
</g>
<g id="scheduler">
</g>
<g id="equella">
</g>
<g id="file">
</g>
<g id="folder">
</g>
<g id="ims_x5F_content_x5F_package">
</g>
<g id="label">
</g>
<g id="lightbox_x5F_gallery">
</g>
<g id="nln_x5F_learning_x5F_object">
</g>
<g id="page">
</g>
<g id="subpage">
</g>
<g id="tab_x5F_display">
</g>
<g id="new_x5F_label">
</g>
<g id="url">
	<g>
		<g>
			<path fill="#FFFFFF" d="M42.6202812,3.0683594c-1.1108398-1.1110026-2.6175156-1.735026-4.1886406-1.735026H12.6263018
				c-1.6357422,0-2.961751,1.3260092-2.961751,2.961751v55.4757462c0,1.5992851,1.2965498,2.8958359,2.895833,2.8958359h38.8792343
				c1.5992813,0,2.8958321-1.2965508,2.8958321-2.8958359V14.7835035L42.6202812,3.0683594z"/>
		</g>
		<g>
			<g opacity="0.3">
				<g>
					<circle fill="#32548C" cx="32" cy="34.6666679" r="15.0653772"/>
				</g>
			</g>
			<path fill="#32548C" d="M43.5963745,23.0715942c-0.520874-0.520813-1.364624-0.520813-1.885437,0
				c-0.520813,0.520874-0.520813,1.364624,0,1.885437c5.354187,5.354187,5.354187,14.0651245,0,19.4192505
				c-1.5687256,1.5687256-3.4636841,2.7012329-5.5367432,3.3522339c1.8942871-2.3181152,3.2949829-5.180603,3.9846802-8.3040161
				c0.1588135-0.7200928-0.296875-1.4310303-1.015625-1.5898438c-0.723999-0.1575928-1.4296875,0.2981567-1.588562,1.0142822
				c-0.6924438,3.1365356-2.1928101,5.9584351-4.2213745,8.0744629V36h9.1796875c0.7369995,0,1.333374-0.5963745,1.333374-1.333313
				c0-0.7369995-0.5963745-1.333374-1.333374-1.333374h-1.8822021c-0.2612915-4.4729004-1.8309326-8.5881958-4.4158936-11.7323608
				C36.5800781,21.7192993,36.9431152,21.8496704,37.302063,22c0.682312,0.28125,1.4609375-0.036438,1.744812-0.7161255
				c0.2838745-0.6784058-0.0338745-1.4596558-0.713562-1.744812c-2.0510864-0.8582153-4.1992188-1.2675781-6.3275146-1.2703857
				c-0.00177,0-0.0040283-0.0004272-0.0057983-0.0004272c-0.0009155,0-0.001709,0.0005493-0.0026245,0.0005493
				c-4.262146-0.0033569-8.442688,1.6526489-11.59375,4.8027954c-6.3931885,6.3932495-6.3931885,16.796875,0,23.1901245
				c3.0341187,3.0354004,7.0794067,4.7179565,11.4093628,4.765686C31.87677,51.0367432,31.9336548,51.0651245,32,51.0651245
				c0.0247803,0,0.0453491-0.0127563,0.0697632-0.0140991c0.0255737,0.0014038,0.050293,0.0075684,0.0760498,0.0075684
				c0.0929565,0,0.182251-0.0233154,0.2721558-0.0422974c4.2422485-0.1044922,8.1986084-1.7735596,11.1784058-4.7545776
				C49.989563,39.8684692,49.989563,29.4648438,43.5963745,23.0715942z M33.333313,33.333313V22.3966675
				c2.6469727,2.7570801,4.3267822,6.6934204,4.6203003,10.9366455H33.333313z M30.666687,33.333313h-4.6202393
				c0.293396-4.2425537,1.9724731-8.1790161,4.6202393-10.9360962V33.333313z M22.2890625,24.9570313
				c1.5796509-1.5791016,3.4710083-2.704895,5.4990845-3.3599854c-2.586731,3.1447144-4.1575317,7.2615967-4.4189453,11.7362671
				H18.338562C18.6345215,30.2738037,19.9508057,27.2952881,22.2890625,24.9570313z M18.338562,36h5.0319824
				c0.1995239,3.369812,1.1515503,6.5886841,2.7883301,9.3776245c0.25,0.4231567,0.6953125,0.6588135,1.151001,0.6588135
				c0.2318115,0,0.463562-0.0585938,0.6744995-0.1835938c0.635437-0.3723755,0.848938-1.1900635,0.4765625-1.8242188
				C27.0602417,41.6451416,26.2359619,38.8926392,26.041626,36h4.625061v12.305603
				c-3.1795654-0.2995605-6.1153564-1.6669922-8.3776245-3.9293213C19.9508057,42.0380249,18.6344604,39.0594482,18.338562,36z"/>
		</g>
		<g opacity="0.3">
			<g>
				<path fill="#32548C" d="M40.8853111,1.3333334l11.7099266,11.7099247
					c0.6421928,0.6421938,0.1873627,1.7402458-0.7208366,1.7402458h-8.027317c-1.6357422,0-2.9617729-1.3260307-2.9617729-2.961771
					V1.3333334z"/>
			</g>
		</g>
		<g>
			<path fill="#32548C" d="M51.4401054,64H12.5598955c-2.3307285,0-4.229166-1.8971367-4.229166-4.2291679V4.2955728
				C8.3307295,1.9270834,10.2578125,0,12.625,0h25.8072929c1.9114571,0,3.78125,0.7747396,5.1301842,2.125l11.7161674,11.7161455
				c0.3802109,0.3815107,0.4947929,0.9544277,0.2890625,1.453125c-0.2057266,0.4986982-0.6927071,0.822917-1.2317696,0.822917
				H43.8463554c-2.3671875,0-4.2942734-1.927083-4.2942734-4.2955732v-4.565104c0-0.736979,0.5963554-1.333333,1.3333359-1.333333
				c0.7369766,0,1.3333321,0.596354,1.3333321,1.333333v4.565104c0,0.8984375,0.7291679,1.6289063,1.6276054,1.6289063h7.2708321
				l-9.4401054-9.4401035C40.8229179,3.15625,39.640625,2.6666667,38.4322929,2.6666667H12.625
				c-0.8984375,0-1.6276045,0.7304688-1.6276045,1.628906v55.4752579c0,0.8619804,0.7005215,1.5625,1.5625,1.5625h38.8802109
				c0.8619766,0,1.5625-0.7005196,1.5625-1.5625V19.7825527c0-0.7369804,0.5963516-1.333334,1.3333321-1.333334
				s1.3333321,0.5963535,1.3333321,1.333334v39.9882813C55.6692696,62.1028633,53.7708321,64,51.4401054,64z"/>
		</g>
	</g>
</g>
<g id="_x33_60_x5F_degree_x5F_diagnostics">
</g>
<g id="adobe_x5F_connect">
</g>
<g id="attendance_x5F_register">
</g>
<g id="booking">
</g>
<g id="chat">
</g>
<g id="checklist">
</g>
<g id="external_x5F_tool">
</g>
<g id="face_x5F_to_x5F_face">
</g>
<g id="forumNG">
</g>
<g id="glossary">
</g>
<g id="group_x5F_choice">
</g>
<g id="journal">
</g>
<g id="mediasite_x5F_content">
</g>
<g id="nanogong_x5F_voice">
</g>
<g id="questionnaire">
</g>
<g id="scorm_x5F_package">
</g>
<g id="survey">
</g>
<g id="tutorship">
</g>
<g id="advanced_x5F_forum">
</g>
<g id="subcourse">
</g>
<g id="lesson_1_">
</g>
<g id="adaptive_x5F_quiz">
</g>
<g id="ou_x5F_wiki">
</g>
<g id="support_x5F_tracker">
</g>
<g id="view_x5F_comments">
</g>
<g id="no_x5F_comment">
</g>
<g id="attention">
</g>
<g id="search">
</g>
<g id="submitted">
</g>
<g id="feedback">
</g>
<g id="dnd_x5F_arrow">
</g>
</svg>
