<?xml version="1.0" encoding="utf-8"?>
<!-- Generator: Adobe Illustrator 21.0.0, SVG Export Plug-In . SVG Version: 6.00 Build 0)  -->
<svg version="1.1" xmlns="http://www.w3.org/2000/svg" xmlns:xlink="http://www.w3.org/1999/xlink" x="0px" y="0px" width="64px"
	 height="64px" viewBox="0 0 64 64" enable-background="new 0 0 64 64" xml:space="preserve">
<g id="Layer_1">
</g>
<g id="Layer_2">
</g>
<g id="messages">
</g>
<g id="messages_x5F_hover">
</g>
<g id="profile">
</g>
<g id="profile_x5F_hover">
</g>
<g id="view_x5F_hover">
</g>
<g id="view_x5F_feedback">
</g>
<g id="no_x5F_feedback_x5F_to_x5F_view">
</g>
<g id="download_x5F_hover">
</g>
<g id="download">
</g>
<g id="no_x5F_feedback_x5F_download">
</g>
<g id="link_x5F_hover">
</g>
<g id="assignment_x5F_link_copy">
</g>
<g id="Layer_21">
</g>
<g id="home_x5F_hover">
</g>
<g id="home_1_">
</g>
<g id="edit_x5F_profile">
</g>
<g id="preferences">
</g>
<g id="notifications">
</g>
<g id="my_x5F_posts">
</g>
<g id="logout">
</g>
<g id="assignment">
</g>
<g id="coursework">
</g>
<g id="forum">
</g>
<g id="quiz">
</g>
<g id="book">
</g>
<g id="database">
</g>
<g id="wiki">
</g>
<g id="choice">
</g>
<g id="workshop">
</g>
<g id="certificate">
</g>
<g id="scheduler">
</g>
<g id="equella">
</g>
<g id="file">
</g>
<g id="folder">
</g>
<g id="ims_x5F_content_x5F_package">
</g>
<g id="label">
</g>
<g id="lightbox_x5F_gallery">
</g>
<g id="nln_x5F_learning_x5F_object">
</g>
<g id="page">
</g>
<g id="subpage">
	<g>
		<g>
			<path fill="#FFFFFF" d="M60.3701897,26.6459427h-7.4869881V3.6202064c0-1.2628324-1.0235786-2.2864118-2.2864113-2.2864118
				H3.6294835c-1.2628324,0-2.2867374,1.0235795-2.2867374,2.2864118v31.4469509
				c0,1.2626686,1.0239049,2.2864113,2.2867374,2.2864113h7.4161901v23.025898c0,1.2626724,1.0239058,2.2864113,2.2865753,2.2864113
				h47.037941c1.2628326,0,2.2864113-1.0237389,2.2864113-2.2864113V28.932354
				C62.656601,27.6696854,61.6330223,26.6459427,60.3701897,26.6459427z"/>
		</g>
		<g opacity="0.3">
			<g>
				<path fill="#32548C" d="M60.3701897,26.6459427H27.8275585v-1.0440865l-3.3736286-4.1988087
					c-0.3758068-0.5992718-1.1266041-0.6703968-1.5821629-0.1497364l-5.7516727,5.3926315h-1.5779305l-0.8175287-1.2333736
					c-0.3762941-0.4719963-1.0071411-0.5214748-1.4355173-0.1124649l-3.5487556,3.3892536v1.9148369h1.3054743v3.2461891
					l26.7432709-0.0006485l24.8674927,0.0006485V28.932354C62.656601,27.6696854,61.6330223,26.6459427,60.3701897,26.6459427z"/>
			</g>
		</g>
		<g opacity="0.3">
			<g>
				<path fill="#32548C" d="M52.8831558,8.5381517V3.6202402c0-1.2627611-1.0236702-2.2864311-2.2864304-2.2864311H3.6292937
					c-1.2627611,0-2.2864311,1.02367-2.2864311,2.2864311v4.9179115l51.5402946-0.001195H4.9630451"/>
			</g>
		</g>
		<g opacity="0.3">
			<g>
				<path fill="#32548C" d="M19.47855,54.001564l3.5488091-3.3892593c0.4282436-0.408989,1.0592289-0.3595085,1.4355221,0.1125679
					l0.8290291,1.250721c0.4009113,0.502964,1.0838661,0.5212784,1.5046158,0.0403481l5.8134518-5.4504356
					c0.4554558-0.5205994,1.2063408-0.4495201,1.5820808,0.149765l3.373661,4.1989288v5.0022659H19.47855V54.001564z"/>
			</g>
		</g>
		<g>
			<ellipse fill="#32548C" cx="14.9154053" cy="19.6721783" rx="1.5754395" ry="1.5136414"/>
			<path fill="#32548C" d="M34.0097046,17.7834606c-0.7369385,0-1.333313,0.5963745-1.333313,1.333313
				c0,0.7369995,0.5963745,1.333313,1.333313,1.333313H44.486084c0.7369385,0,1.333313-0.5963135,1.333313-1.333313
				c0-0.7369385-0.5963745-1.333313-1.333313-1.333313H34.0097046z"/>
			<path fill="#32548C" d="M7.3344727,36.0213776H3.6288452c-0.526062,0-0.953125-0.427063-0.953125-0.953064V3.6197033
				c0-0.526001,0.427063-0.953064,0.953125-0.953064h46.9690552c0.526062,0,0.953125,0.427063,0.953125,0.953064V7.204237H6.9764404
				c-0.7369995,0-1.333313,0.5963745-1.333313,1.333313c0,0.7369995,0.5963135,1.333313,1.333313,1.333313h45.9078979
				c0.7369385,0,1.333313-0.5963135,1.333313-1.333313V3.6197033c0-1.9960327-1.625-3.6196899-3.619751-3.6196899H3.6288452
				c-1.9960938,0-3.619751,1.6236572-3.619751,3.6196899v31.4486103c0,1.994751,1.6236572,3.6196899,3.619751,3.6196899h3.7056274
				c0.7369995,0,1.333313-0.5963745,1.333313-1.333313S8.0714722,36.0213776,7.3344727,36.0213776z"/>
			<circle fill="#32548C" cx="38.6970673" cy="4.9506359" r="1.4647369"/>
			<circle fill="#32548C" cx="43.9063263" cy="4.9506359" r="1.4647369"/>
			<circle fill="#32548C" cx="49.1156006" cy="4.9506359" r="1.4647217"/>
			<path fill="#32548C" d="M63.9909058,33.8495636v-4.9165668c0-1.994751-1.625-3.619751-3.619751-3.619751h-6.1535034V13.4398327
				c0-0.7369995-0.5963745-1.333313-1.333313-1.333313s-1.333313,0.5963135-1.333313,1.333313v11.8734131H29.1114502
				c-0.0444946-0.1974487-0.1166992-0.387085-0.244873-0.546814l-3.2837524-4.072876
				c-0.4088745-0.6497192-1.0625-1.057251-1.796875-1.1158447c-0.7577515-0.0598755-1.4244385,0.2317505-1.8254395,0.703125
				l-5.3712769,5.0324097h-0.3328857l-0.4884644-0.7317505c-0.4140015-0.5181885-1.0181885-0.8411255-1.656189-0.885376
				c-0.6692505-0.0598755-1.2630005,0.182312-1.744751,0.640625l-1.291626,1.2337646v-8.9497681h16.7522583
				c0.7369385,0,1.333313-0.5963135,1.333313-1.333313c0-0.7369385-0.5963745-1.333313-1.333313-1.333313H10.7849121
				c-1.3111572,0-2.3775024,1.1380005-2.3775024,2.5377197v12.9072876c0,0.9864502,0.5340576,1.8330688,1.3046265,2.2532959
				v28.7278461c0,1.994751,1.6236572,3.619751,3.6210327,3.619751h47.0380859c1.994751,0,3.619751-1.625,3.619751-3.619751
				V38.7531281c0-0.7369995-0.5963745-1.333313-1.333313-1.333313c-0.7369995,0-1.333313,0.5963135-1.333313,1.333313v21.6271362
				c0,0.526062-0.427063,0.953125-0.953125,0.953125H13.3330688c-0.526062,0-0.9556885-0.427063-0.9556885-0.953125V28.9329967
				c0-0.526062,0.4296265-0.953125,0.9556885-0.953125h47.0380859c0.526062,0,0.953125,0.427063,0.953125,0.953125v3.5832539
				H16.6793213c-0.7369385,0-1.333252,0.5963135-1.333252,1.333313c0,0.7369385,0.5963135,1.333313,1.333252,1.333313h45.9782715
				C63.3945313,35.1828766,63.9909058,34.5865021,63.9909058,33.8495636z M20.4875488,25.3132458l3.0770874-2.8879395
				l2.3206787,2.8879395H20.4875488z"/>
			<circle fill="#32548C" cx="48.4705353" cy="30.262846" r="1.4647522"/>
			<circle fill="#32548C" cx="53.6798248" cy="30.262846" r="1.4647522"/>
			<circle fill="#32548C" cx="58.8890991" cy="30.262846" r="1.4647369"/>
			<ellipse fill="#32548C" cx="24.6535797" cy="44.9843903" rx="1.57547" ry="1.5136108"/>
			<path fill="#32548C" d="M38.9002686,40.5994415c0-0.7369995-0.5963745-1.333313-1.333313-1.333313H20.5230103
				c-1.3098755,0-2.3775635,1.1380005-2.3775635,2.5390015v12.1924438c0,0.005249,0,0.0078125,0,0.010437v0.703125
				c0,1.401001,1.067688,2.5390015,2.3775635,2.5390015h15.9970703c1.3125,0,2.380188-1.1380005,2.380188-2.5390015v-3.796814
				c0-0.3046875-0.104187-0.598938-0.2943115-0.8359375l-3.2837524-4.067627
				c-0.40625-0.6536255-1.0598755-1.062439-1.796875-1.119751c-0.7473755-0.0598755-1.427002,0.2317505-1.828064,0.703125
				l-5.5701904,5.2316284l-0.6223755-0.9348755c-0.416687-0.520813-1.0234375-0.8411255-1.6640625-0.8827515
				c-0.640564-0.067749-1.2577515,0.1848755-1.734314,0.640564l-1.2942505,1.2369995v-8.9529419h16.7548828
				C38.303894,41.9327545,38.9002686,41.33638,38.9002686,40.5994415z M23.6296997,51.8804474l0.619812,0.927063
				c0.4400635,0.552063,1.083313,0.8775635,1.7630005,0.890625c0.583313,0.0078125,1.328064-0.276062,1.6952515-0.7109375
				l5.5936279-5.2525024l2.932251,3.6483765v3.2004395H20.8120728L23.6296997,51.8804474z"/>
			<path fill="#32548C" d="M54.2228394,43.096756H43.746521c-0.7369995,0-1.333313,0.5963745-1.333313,1.333313
				s0.5963135,1.333313,1.333313,1.333313h10.4763184c0.7369995,0,1.333313-0.5963745,1.333313-1.333313
				S54.9598389,43.096756,54.2228394,43.096756z"/>
			<path fill="#32548C" d="M54.2228394,50.7528839H43.746521c-0.7369995,0-1.333313,0.5963135-1.333313,1.333313
				c0,0.7369385,0.5963135,1.333252,1.333313,1.333252h10.4763184c0.7369995,0,1.333313-0.5963135,1.333313-1.333252
				C55.5561523,51.3491974,54.9598389,50.7528839,54.2228394,50.7528839z"/>
		</g>
	</g>
</g>
<g id="tab_x5F_display">
</g>
<g id="new_x5F_label">
</g>
<g id="url">
</g>
<g id="_x33_60_x5F_degree_x5F_diagnostics">
</g>
<g id="adobe_x5F_connect">
</g>
<g id="attendance_x5F_register">
</g>
<g id="booking">
</g>
<g id="chat">
</g>
<g id="checklist">
</g>
<g id="external_x5F_tool">
</g>
<g id="face_x5F_to_x5F_face">
</g>
<g id="forumNG">
</g>
<g id="glossary">
</g>
<g id="group_x5F_choice">
</g>
<g id="journal">
</g>
<g id="mediasite_x5F_content">
</g>
<g id="nanogong_x5F_voice">
</g>
<g id="questionnaire">
</g>
<g id="scorm_x5F_package">
</g>
<g id="survey">
</g>
<g id="tutorship">
</g>
<g id="advanced_x5F_forum">
</g>
<g id="subcourse">
</g>
<g id="lesson_1_">
</g>
<g id="adaptive_x5F_quiz">
</g>
<g id="ou_x5F_wiki">
</g>
<g id="support_x5F_tracker">
</g>
<g id="view_x5F_comments">
</g>
<g id="no_x5F_comment">
</g>
<g id="attention">
</g>
<g id="search">
</g>
<g id="submitted">
</g>
<g id="feedback">
</g>
<g id="dnd_x5F_arrow">
</g>
</svg>
