<?xml version="1.0" encoding="utf-8"?>
<!-- Generator: Adobe Illustrator 21.0.0, SVG Export Plug-In . SVG Version: 6.00 Build 0)  -->
<svg version="1.1" xmlns="http://www.w3.org/2000/svg" xmlns:xlink="http://www.w3.org/1999/xlink" x="0px" y="0px" width="64px"
	 height="64px" viewBox="0 0 64 64" enable-background="new 0 0 64 64" xml:space="preserve">
<g id="Layer_1">
</g>
<g id="Layer_2">
</g>
<g id="messages">
</g>
<g id="messages_x5F_hover">
</g>
<g id="profile">
</g>
<g id="profile_x5F_hover">
</g>
<g id="view_x5F_hover">
</g>
<g id="view_x5F_feedback">
</g>
<g id="no_x5F_feedback_x5F_to_x5F_view">
</g>
<g id="download_x5F_hover">
</g>
<g id="download">
</g>
<g id="no_x5F_feedback_x5F_download">
</g>
<g id="link_x5F_hover">
</g>
<g id="assignment_x5F_link_copy">
</g>
<g id="Layer_21">
</g>
<g id="home_x5F_hover">
</g>
<g id="home_1_">
</g>
<g id="edit_x5F_profile">
</g>
<g id="preferences">
</g>
<g id="notifications">
</g>
<g id="my_x5F_posts">
</g>
<g id="logout">
</g>
<g id="assignment">
</g>
<g id="coursework">
</g>
<g id="forum">
</g>
<g id="quiz">
</g>
<g id="book">
</g>
<g id="database">
	<g>
		<g>
			<path fill="#FFFFFF" d="M55.4895821,20.8139172c0-0.0128574-0.0063477-0.0255527-0.0065079-0.0384102V8.4586115
				c0.0001602-0.0130205,0.0065079-0.0255527,0.0065079-0.0385742c0-3.9140625-10.5166016-7.0869141-23.4895821-7.0869141
				S8.510417,4.5059748,8.510417,8.4200373v12.3938799c0,0.8621426,0.5343418,1.6844082,1.4690752,2.4479179l0,0
				c-0.9335938,0.7639961-1.4690752,1.5862617-1.4690752,2.447916c0,2.0795898,0,0.0000744,0,0.0000744v12.3939686
				c0,0,0,4.2200508,0,5.0818672c0,2.0795898,0,0,0,0v12.3938828c0,3.9140625,10.5166006,7.0869141,23.4895821,7.0869141
				s23.4895821-3.1728516,23.4895821-7.0869141c0-0.0130234-0.0063477-0.0255547-0.0065079-0.0385742V43.2245636
				c0.0001602-0.0131836,0.0065079-0.0257187,0.0065079-0.0389023c0-0.8637695-0.512207-1.6915665-1.4501953-2.4570313
				l-0.3098946,0.0631523c1.1282539-0.8292656,1.7600899-1.7360039,1.7600899-2.6879883
				c0-0.0130196-0.0063477-0.0257149-0.0065079-0.0385742V25.7486515c0.0001602-0.0087891,0.0043945-0.0172539,0.0043945-0.0260429
				c0.0009766-0.0042305,0.0021133-0.0084629,0.0021133-0.0126953v-0.0001621l0,0
				c0-0.0013027-0.0006485-0.0026035-0.0006485-0.0039063c-0.0016289-0.8626308-0.5130234-1.6888027-1.4495468-2.453125
				l-0.0102539,0.0021152C54.9573555,22.4927921,55.4895821,21.67313,55.4895821,20.8139172z M13.4111328,25.1345558
				c-0.0164385-0.0065098-0.03125-0.0133457-0.0478516-0.0198574C13.3797197,25.1210461,13.3945313,25.128046,13.4111328,25.1345558
				z"/>
		</g>
		<g>
			<path fill="#0C1E59" d="M42.2161446,24.7852726c-2.1223946,0-3.8489571-1.7265625-3.8489571-3.848959
				s1.7265625-3.848959,3.8489571-3.848959c2.1197929,0,3.8463478,1.7265625,3.8463478,3.848959
				S44.3359375,24.7852726,42.2161446,24.7852726z M42.2161446,19.7540226c-0.6510391,0-1.1822891,0.5299473-1.1822891,1.182291
				s0.53125,1.182291,1.1822891,1.182291c0.6510429,0,1.1796875-0.5299473,1.1796875-1.182291
				S42.8671875,19.7540226,42.2161446,19.7540226z"/>
		</g>
		<g opacity="0.3">
			<circle fill="#32548C" cx="42.2148895" cy="20.9359226" r="2.5154114"/>
			<circle fill="#32548C" cx="42.2148895" cy="38.2131729" r="2.5154114"/>
			<ellipse fill="#32548C" cx="32" cy="8.4201593" rx="23.489563" ry="7.0870361"/>
			<path fill="#32548C" d="M54.0205688,23.2618961C50.7138062,25.9677677,42.1165771,27.9009342,32,27.9009342
				s-18.7138062-1.9331665-22.0205688-4.6390381c-0.9335938,0.763916-1.4689941,1.5861206-1.4689941,2.447937
				c0,3.9140015,10.5166626,7.0870953,23.489563,7.0870953s23.489563-3.1730938,23.489563-7.0870953
				C55.489563,24.8480167,54.9541626,24.0258121,54.0205688,23.2618961z"/>
			<circle fill="#32548C" cx="42.2148895" cy="55.689003" r="2.5154114"/>
			<path fill="#32548C" d="M54.0205688,40.7377243C50.7138062,43.4435959,42.1165771,45.3767624,32,45.3767624
				s-18.7138062-1.9331665-22.0205688-4.6390381c-0.9335938,0.763916-1.4689941,1.5861206-1.4689941,2.447937
				c0,3.9140015,10.5166626,7.0870972,23.489563,7.0870972s23.489563-3.1730957,23.489563-7.0870972
				C55.489563,42.3238449,54.9541626,41.5016403,54.0205688,40.7377243z"/>
		</g>
		<g>
			<path fill="#32548C" d="M55.9014893,23.249506c0.5917358-0.7555542,0.9170532-1.5800781,0.9161987-2.4746704V8.5339899
				c0.0026245-0.0390625,0.005249-0.0768433,0.005249-0.1132813c0-5.5286865-12.4869995-8.4205933-24.822937-8.4205933
				S7.177063,2.8920224,7.177063,8.4207087v12.3931894c0,0.8861694,0.3242798,1.7036743,0.9138184,2.4533081
				c-0.5985718,0.7670898-0.9138184,1.583374-0.9138184,2.4425659c0,5.5286255,12.4869995,8.4205303,24.822937,8.4205303
				c7.21875,0,14.010437-0.9765625,18.635437-2.6796856c0.6900635-0.2539063,1.0442505-1.020813,0.7890625-1.7122192
				c-0.255249-0.6914063-1.0286865-1.046875-1.7109375-0.7903442C45.3723755,30.5469913,38.916687,31.4636784,32,31.4636784
				c-13.526062,0-22.15625-3.4075928-22.15625-5.7539063c0-0.2398682,0.1107178-0.4813232,0.2669678-0.7050171
				C14.5266113,27.7934513,23.2977905,29.2344913,32,29.2344913c8.7119141,0,17.493042-1.4443359,21.9022827-4.2528687
				c0.1520996,0.1849976,0.2671509,0.3609009,0.2774048,0.4859619c-0.0182495,0.0859375-0.0286255,0.1939697-0.0286255,0.28125
				l0.005188,12.3554668c0,2.3450317-8.630188,5.7525635-22.15625,5.7525635S9.84375,40.4493332,9.84375,38.1043015v-5.583374
				c0-0.7369366-0.5963745-1.3333111-1.333313-1.3333111c-0.7369995,0-1.333374,0.5963745-1.333374,1.3333111v5.583374
				c0,0.9187012,0.3515015,1.7628174,0.9833984,2.534729c-0.6524658,0.7966309-0.9833984,1.6500244-0.9833984,2.5473022
				c0,5.5273438,12.4869995,8.4192505,24.822937,8.4192505c7.2161255,0,14.0078125-0.9765625,18.635437-2.6784058
				c0.6900635-0.2539063,1.0442505-1.020813,0.791626-1.7122192c-0.2578125-0.6914063-1.0181885-1.0455933-1.713501-0.7903442
				C45.369812,48.0222702,38.9140625,48.9388962,32,48.9388962c-13.526062,0-22.15625-3.4075317-22.15625-5.7525635
				c0-0.2869263,0.1605225-0.5724487,0.3660278-0.8301392C14.6569824,45.1038132,23.3624268,46.5235519,32,46.5235519
				c8.645874,0,17.3596191-1.4224854,21.8010864-4.1887207c0.2080688,0.2296143,0.3660889,0.4521484,0.3786011,0.6015015
				c-0.015625,0.088501-0.0286255,0.197876-0.0286255,0.2877197l0.005188,12.3554688
				c0,2.3463745-8.630188,5.7539063-22.15625,5.7539063S9.84375,57.9258957,9.84375,55.5795212v-5.583313
				c0-0.7369995-0.5963745-1.333313-1.333313-1.333313c-0.7369995,0-1.333374,0.5963135-1.333374,1.333313v5.583313
				c0,5.5286865,12.4869995,8.4205933,24.822937,8.4205933s24.822937-2.8919067,24.817688-8.4596558l-0.0234375-12.067688
				c0.0182419-0.088562,0.0286865-0.1965942,0.0286865-0.286438c0-0.9022827-0.3390503-1.7582397-0.9972534-2.5571289
				c0.6379395-0.7799072,0.9928589-1.633667,0.9920044-2.5639648l-0.0234375-12.0742168
				c0.0182419-0.0859375,0.0286865-0.1940308,0.0286865-0.28125C56.822937,24.8434391,56.5085449,24.0205631,55.9014893,23.249506z
				 M9.84375,20.8138981v-8.371583c4.3238525,2.8997803,13.2788086,4.397645,22.15625,4.397645
				c7.2161255,0,14.0078125-0.9765635,18.6380005-2.6784067c0.6901245-0.2539063,1.0443115-1.020813,0.791687-1.7109375
				c-0.2578125-0.6939697-1.015625-1.046875-1.713562-0.791626C45.369812,13.2566462,38.9140625,14.1732721,32,14.1732721
				c-13.526062,0-22.15625-3.4075317-22.15625-5.7525635c0-2.3463745,8.630188-5.7539063,22.15625-5.7539063
				c13.5177002,0,22.1446533,3.403259,22.1552734,5.7494507c-0.0005493,0.013855-0.0042114,0.0289917-0.0042114,0.0421753
				l0.005188,12.3554697c0,0.3989868-0.2684937,0.8294067-0.7491455,1.2677612
				c-0.1443481,0.0775757-0.2763062,0.1837158-0.3887939,0.3166504C50.2769775,24.4462223,42.6735229,26.5678043,32,26.5678043
				C18.473938,26.5678043,9.84375,23.1602726,9.84375,20.8138981z"/>
			<path fill="#32548C" d="M42.2161255,17.0873356c-2.1223755,0-3.848938,1.7265625-3.848938,3.848999
				c0,2.1223755,1.7265625,3.848938,3.848938,3.848938c2.119812,0,3.8463669-1.7265625,3.8463669-3.848938
				C46.0624924,18.8138981,44.3359375,17.0873356,42.2161255,17.0873356z M42.2161255,22.1185856
				c-0.651001,0-1.182251-0.5299072-1.182251-1.182251s0.53125-1.182312,1.182251-1.182312
				c0.651062,0,1.1796875,0.5299683,1.1796875,1.182312S42.8671875,22.1185856,42.2161255,22.1185856z"/>
			<path fill="#32548C" d="M46.0624924,38.2136765c0-2.1224365-1.7265549-3.848999-3.8463669-3.848999
				c-2.1223755,0-3.848938,1.7265625-3.848938,3.848999c0,2.1210938,1.7265625,3.8476563,3.848938,3.8476563
				C44.3359375,42.0613327,46.0624924,40.3347702,46.0624924,38.2136765z M41.0338745,38.2136765
				c0-0.6523438,0.53125-1.182312,1.182251-1.182312c0.651062,0,1.1796875,0.5299683,1.1796875,1.182312
				c0,0.651001-0.5286255,1.1809692-1.1796875,1.1809692C41.5651245,39.3946457,41.0338745,38.8646774,41.0338745,38.2136765z"/>
			<path fill="#32548C" d="M46.0624924,55.6888962c0-2.1223755-1.7265549-3.848938-3.8463669-3.848938
				c-2.1223755,0-3.848938,1.7265625-3.848938,3.848938c0,2.1224365,1.7265625,3.848999,3.848938,3.848999
				C44.3359375,59.5378952,46.0624924,57.8113327,46.0624924,55.6888962z M41.0338745,55.6888962
				c0-0.6523438,0.53125-1.182251,1.182251-1.182251c0.651062,0,1.1796875,0.5299072,1.1796875,1.182251
				s-0.5286255,1.182312-1.1796875,1.182312C41.5651245,56.8712082,41.0338745,56.3412399,41.0338745,55.6888962z"/>
		</g>
	</g>
</g>
<g id="wiki">
</g>
<g id="choice">
</g>
<g id="workshop">
</g>
<g id="certificate">
</g>
<g id="scheduler">
</g>
<g id="equella">
</g>
<g id="file">
</g>
<g id="folder">
</g>
<g id="ims_x5F_content_x5F_package">
</g>
<g id="label">
</g>
<g id="lightbox_x5F_gallery">
</g>
<g id="nln_x5F_learning_x5F_object">
</g>
<g id="page">
</g>
<g id="subpage">
</g>
<g id="tab_x5F_display">
</g>
<g id="new_x5F_label">
</g>
<g id="url">
</g>
<g id="_x33_60_x5F_degree_x5F_diagnostics">
</g>
<g id="adobe_x5F_connect">
</g>
<g id="attendance_x5F_register">
</g>
<g id="booking">
</g>
<g id="chat">
</g>
<g id="checklist">
</g>
<g id="external_x5F_tool">
</g>
<g id="face_x5F_to_x5F_face">
</g>
<g id="forumNG">
</g>
<g id="glossary">
</g>
<g id="group_x5F_choice">
</g>
<g id="journal">
</g>
<g id="mediasite_x5F_content">
</g>
<g id="nanogong_x5F_voice">
</g>
<g id="questionnaire">
</g>
<g id="scorm_x5F_package">
</g>
<g id="survey">
</g>
<g id="tutorship">
</g>
<g id="advanced_x5F_forum">
</g>
<g id="subcourse">
</g>
<g id="lesson_1_">
</g>
<g id="adaptive_x5F_quiz">
</g>
<g id="ou_x5F_wiki">
</g>
<g id="support_x5F_tracker">
</g>
<g id="view_x5F_comments">
</g>
<g id="no_x5F_comment">
</g>
<g id="attention">
</g>
<g id="search">
</g>
<g id="submitted">
</g>
<g id="feedback">
</g>
<g id="dnd_x5F_arrow">
</g>
</svg>
