<?xml version="1.0" encoding="utf-8"?>
<!-- Generator: Adobe Illustrator 21.0.0, SVG Export Plug-In . SVG Version: 6.00 Build 0)  -->
<svg version="1.1" xmlns="http://www.w3.org/2000/svg" xmlns:xlink="http://www.w3.org/1999/xlink" x="0px" y="0px" width="64px"
	 height="64px" viewBox="0 0 64 64" enable-background="new 0 0 64 64" xml:space="preserve">
<g id="Layer_1">
</g>
<g id="Layer_2">
</g>
<g id="messages">
</g>
<g id="messages_x5F_hover">
</g>
<g id="profile">
</g>
<g id="profile_x5F_hover">
</g>
<g id="view_x5F_hover">
</g>
<g id="view_x5F_feedback">
</g>
<g id="no_x5F_feedback_x5F_to_x5F_view">
</g>
<g id="download_x5F_hover">
</g>
<g id="download">
</g>
<g id="no_x5F_feedback_x5F_download">
</g>
<g id="link_x5F_hover">
</g>
<g id="assignment_x5F_link_copy">
</g>
<g id="Layer_21">
</g>
<g id="home_x5F_hover">
</g>
<g id="home_1_">
</g>
<g id="edit_x5F_profile">
</g>
<g id="preferences">
</g>
<g id="notifications">
</g>
<g id="my_x5F_posts">
</g>
<g id="logout">
</g>
<g id="assignment">
</g>
<g id="coursework">
</g>
<g id="forum">
</g>
<g id="quiz">
</g>
<g id="book">
</g>
<g id="database">
</g>
<g id="wiki">
</g>
<g id="choice">
</g>
<g id="workshop">
</g>
<g id="certificate">
</g>
<g id="scheduler">
</g>
<g id="equella">
</g>
<g id="file">
</g>
<g id="folder">
</g>
<g id="ims_x5F_content_x5F_package">
</g>
<g id="label">
</g>
<g id="lightbox_x5F_gallery">
</g>
<g id="nln_x5F_learning_x5F_object">
</g>
<g id="page">
	<g>
		<g>
			<path fill="#FFFFFF" d="M62.6657982,53.0049934c0,1.4727592-1.1939087,2.6666679-2.6666679,2.6666679h-56
				c-1.4727592,0-2.6666665-1.1939087-2.6666665-2.6666679V10.9950066c0-1.4727592,1.1939074-2.666667,2.6666665-2.666667h56
				c1.4727592,0,2.6666679,1.1939077,2.6666679,2.666667V53.0049934z"/>
		</g>
		<g opacity="0.3">
			<g>
				<path fill="#32548C" d="M62.6657982,16.7307701v-5.7357635c0-1.4727592-1.1939087-2.666667-2.6666679-2.666667h-56
					c-1.4727592,0-2.6666665,1.1939077-2.6666665,2.666667v5.7357635l61.3333321-0.0013924H5.5546875"/>
			</g>
		</g>
		<g>
			<g opacity="0.3">
				<g>
					<path fill="#32548C" d="M9.1979132,42.0626221l4.3233185-4.1413956
						c0.5217037-0.499752,1.2904005-0.4392929,1.7488155,0.1375465l1.0099611,1.5282784
						c0.4884071,0.6145821,1.3204117,0.6369591,1.8329887,0.049305l7.0822067-8.1195793
						c0.5548553-0.6361294,1.4696159-0.5492725,1.9273605,0.1830044l4.1099415,6.5903339v7.2689781H9.1979132V42.0626221z"/>
				</g>
			</g>
			<g>
				<path fill="#32548C" d="M64.0000229,16.7304688V10.994812c0-2.2057495-1.7943153-4-4.0000038-4h-56
					c-2.2057495,0-4,1.7942505-4,4v42.010376c0,2.2057495,1.7942505,4,4,4h56c2.2056885,0,4.0000038-1.7942505,4.0000038-4
					V21.213562c0-0.7369995-0.5963783-1.333374-1.3333778-1.333374c-0.7369385,0-1.333313,0.5963745-1.333313,1.333374v31.791626
					c0,0.7357178-0.598938,1.333374-1.333313,1.333374h-56c-0.7343752,0-1.3333743-0.5976563-1.3333743-1.333374V10.994812
					c0-0.735713,0.598999-1.333374,1.3333743-1.333374h56c0.734375,0,1.333313,0.597661,1.333313,1.333374v4.4023438H6.1093955
					c-0.7369995,0-1.333374,0.5963135-1.333374,1.333313s0.5963745,1.333313,1.333374,1.333313h56.557251
					C63.4036446,18.0637817,64.0000229,17.4674683,64.0000229,16.7304688z"/>
				<circle fill="#32548C" cx="46.1205177" cy="12.5466461" r="1.7083435"/>
				<circle fill="#32548C" cx="52.196125" cy="12.5466461" r="1.7083282"/>
				<circle fill="#32548C" cx="58.2717018" cy="12.5466461" r="1.7083435"/>
				<circle fill="#32548C" cx="14.9772081" cy="32.1038208" r="1.9073334"/>
				<path fill="#32548C" d="M31.2942715,26.84375c0-0.7369995-0.5963745-1.333313-1.333313-1.333313h-19.489624
					c-1.4375,0-2.60675,1.2578125-2.60675,2.8046875v15.7720947c0,1.5468788,1.16925,2.8046875,2.60675,2.8046875h19.489624
					c1.4348545,0,2.6041241-1.2578087,2.6041241-2.8046875V31.3919067c0-0.7369385-0.5963116-1.333313-1.3333111-1.333313
					s-1.333313,0.5963745-1.333313,1.333313l0.0625,12.833374L10.53127,44.0872192l-0.0054932-1.4512329l3.7814941-3.6203613
					l0.9296875,1.3997192c0.479187,0.6068115,1.182313,0.963562,1.9245005,0.9804688
					c0.7369995,0.0091553,1.453125-0.3059692,1.9557495-0.8828125l7.083313-8.119751
					c0.484375-0.5546875,0.427063-1.3971558-0.1276245-1.8815308s-1.401001-0.4284058-1.8828125,0.1289063l-6.9556885,7.9726563
					l-0.9193115-1.3840942c-0.4609385-0.5807495-1.1067514-0.9257813-1.8176889-0.973999
					c-0.7109375-0.046875-1.3776245,0.2018433-1.8984375,0.703125l-2.0870361,1.9990234L10.4713335,28.177063h19.489624
					C30.697897,28.177063,31.2942715,27.5807495,31.2942715,26.84375z"/>
				<path fill="#32548C" d="M54.7994576,30.026062H41.1197701c-0.7369385,0-1.333313,0.5963135-1.333313,1.333313
					s0.5963745,1.333313,1.333313,1.333313h13.6796875c0.7369995,0,1.333374-0.5963135,1.333374-1.333313
					S55.5364571,30.026062,54.7994576,30.026062z"/>
				<path fill="#32548C" d="M54.7994576,39.7096558H41.1197701c-0.7369385,0-1.333313,0.5963135-1.333313,1.333313
					s0.5963745,1.333313,1.333313,1.333313h13.6796875c0.7369995,0,1.333374-0.5963135,1.333374-1.333313
					S55.5364571,39.7096558,54.7994576,39.7096558z"/>
			</g>
		</g>
	</g>
</g>
<g id="subpage">
</g>
<g id="tab_x5F_display">
</g>
<g id="new_x5F_label">
</g>
<g id="url">
</g>
<g id="_x33_60_x5F_degree_x5F_diagnostics">
</g>
<g id="adobe_x5F_connect">
</g>
<g id="attendance_x5F_register">
</g>
<g id="booking">
</g>
<g id="chat">
</g>
<g id="checklist">
</g>
<g id="external_x5F_tool">
</g>
<g id="face_x5F_to_x5F_face">
</g>
<g id="forumNG">
</g>
<g id="glossary">
</g>
<g id="group_x5F_choice">
</g>
<g id="journal">
</g>
<g id="mediasite_x5F_content">
</g>
<g id="nanogong_x5F_voice">
</g>
<g id="questionnaire">
</g>
<g id="scorm_x5F_package">
</g>
<g id="survey">
</g>
<g id="tutorship">
</g>
<g id="advanced_x5F_forum">
</g>
<g id="subcourse">
</g>
<g id="lesson_1_">
</g>
<g id="adaptive_x5F_quiz">
</g>
<g id="ou_x5F_wiki">
</g>
<g id="support_x5F_tracker">
</g>
<g id="view_x5F_comments">
</g>
<g id="no_x5F_comment">
</g>
<g id="attention">
</g>
<g id="search">
</g>
<g id="submitted">
</g>
<g id="feedback">
</g>
<g id="dnd_x5F_arrow">
</g>
</svg>
