<?xml version="1.0" encoding="utf-8"?>
<!-- Generator: Adobe Illustrator 21.0.0, SVG Export Plug-In . SVG Version: 6.00 Build 0)  -->
<svg version="1.1" xmlns="http://www.w3.org/2000/svg" xmlns:xlink="http://www.w3.org/1999/xlink" x="0px" y="0px" width="16px"
	 height="16px" viewBox="0 0 16 16" enable-background="new 0 0 16 16" xml:space="preserve">
<g id="Layer_1">
</g>
<g id="Layer_2">
</g>
<g id="messages">
</g>
<g id="messages_x5F_hover">
</g>
<g id="profile">
</g>
<g id="profile_x5F_hover">
</g>
<g id="view_x5F_hover">
</g>
<g id="view_x5F_feedback">
</g>
<g id="no_x5F_feedback_x5F_to_x5F_view">
</g>
<g id="download_x5F_hover">
</g>
<g id="download">
</g>
<g id="no_x5F_feedback_x5F_download">
</g>
<g id="link_x5F_hover">
</g>
<g id="assignment_x5F_link_copy">
</g>
<g id="Layer_21">
</g>
<g id="home_x5F_hover">
</g>
<g id="home_1_">
</g>
<g id="edit_x5F_profile">
</g>
<g id="preferences">
</g>
<g id="notifications">
</g>
<g id="my_x5F_posts">
</g>
<g id="logout">
</g>
<g id="assignment">
</g>
<g id="coursework">
</g>
<g id="forum">
</g>
<g id="quiz">
</g>
<g id="book">
</g>
<g id="database">
</g>
<g id="wiki">
</g>
<g id="choice">
</g>
<g id="workshop">
</g>
<g id="certificate">
</g>
<g id="scheduler">
</g>
<g id="equella">
</g>
<g id="file">
</g>
<g id="folder">
</g>
<g id="ims_x5F_content_x5F_package">
</g>
<g id="label">
</g>
<g id="lightbox_x5F_gallery">
</g>
<g id="nln_x5F_learning_x5F_object">
</g>
<g id="page">
</g>
<g id="subpage">
</g>
<g id="tab_x5F_display">
</g>
<g id="new_x5F_label">
</g>
<g id="url">
</g>
<g id="_x33_60_x5F_degree_x5F_diagnostics">
</g>
<g id="adobe_x5F_connect">
</g>
<g id="attendance_x5F_register">
</g>
<g id="booking">
</g>
<g id="chat">
</g>
<g id="checklist">
</g>
<g id="external_x5F_tool">
</g>
<g id="face_x5F_to_x5F_face">
</g>
<g id="forumNG">
</g>
<g id="glossary">
</g>
<g id="group_x5F_choice">
</g>
<g id="journal">
</g>
<g id="mediasite_x5F_content">
</g>
<g id="nanogong_x5F_voice">
</g>
<g id="questionnaire">
</g>
<g id="scorm_x5F_package">
</g>
<g id="survey">
</g>
<g id="tutorship">
</g>
<g id="advanced_x5F_forum">
</g>
<g id="subcourse">
</g>
<g id="lesson_1_">
</g>
<g id="adaptive_x5F_quiz">
</g>
<g id="ou_x5F_wiki">
</g>
<g id="support_x5F_tracker">
</g>
<g id="view_x5F_comments">
</g>
<g id="no_x5F_comment">
</g>
<g id="attention">
</g>
<g id="search">
	<g>
		<g>
			<g>
				<g>
					<g>
						<path fill="#FFFFFF" d="M2.888525,4.0198965H1.6313716C1.0065323,4.0198965,0.5,3.5133643,0.5,2.888525V1.6313716
							C0.5,1.0065323,1.0065323,0.5,1.6313716,0.5H2.888525c0.6248393,0,1.1313715,0.5065323,1.1313715,1.1313716V2.888525
							C4.0198965,3.5133643,3.5133643,4.0198965,2.888525,4.0198965z"/>
					</g>
				</g>
			</g>
		</g>
		<g>
			<g>
				<g>
					<g>
						<path fill="#FFFFFF" d="M4.763525,9.7599487H3.5063715C2.8815324,9.7599487,2.375,9.2534161,2.375,8.6285763v-1.257153
							c0-0.6248393,0.5065324-1.1313715,1.1313715-1.1313715H4.763525c0.6248393,0,1.1313715,0.5065322,1.1313715,1.1313715
							v1.257153C5.8948965,9.2534161,5.3883643,9.7599487,4.763525,9.7599487z"/>
					</g>
				</g>
			</g>
		</g>
		<g>
			<g>
				<g>
					<g>
						<path fill="#FFFFFF" d="M6.638525,15.5H5.3813715C4.7565322,15.5,4.25,14.9934673,4.25,14.3686285V13.111475
							c0-0.6248398,0.5065322-1.1313715,1.1313715-1.1313715H6.638525c0.6248393,0,1.1313715,0.5065317,1.1313715,1.1313715
							v1.2571535C7.7698965,14.9934673,7.2633643,15.5,6.638525,15.5z"/>
					</g>
				</g>
			</g>
		</g>
		<g opacity="0.3">
			<g>
				<g>
					<g>
						<path fill="#545157" d="M2.888525,4.0198965H1.6313716C1.0065323,4.0198965,0.5,3.5133643,0.5,2.888525V1.6313716
							C0.5,1.0065323,1.0065323,0.5,1.6313716,0.5H2.888525c0.6248393,0,1.1313715,0.5065323,1.1313715,1.1313716V2.888525
							C4.0198965,3.5133643,3.5133643,4.0198965,2.888525,4.0198965z"/>
					</g>
				</g>
			</g>
		</g>
		<g>
			<g>
				<g>
					<g>
						<path fill="#545157" d="M15.0600004,3.2008014H7.467289c-0.5191474,0-0.9399996-0.4208524-0.9399996-0.9400001V2.2590954
							c0-0.5191476,0.4208522-0.9400001,0.9399996-0.9400001h7.5927114C15.5791473,1.3190954,16,1.7399478,16,2.2590954v0.0017059
							C16,2.7799489,15.5791473,3.2008014,15.0600004,3.2008014z"/>
					</g>
				</g>
			</g>
		</g>
		<g>
			<g>
				<g>
					<g>
						<path fill="#545157" d="M15.0600004,8.9408531H9.3358335c-0.5191479,0-0.9400005-0.4208527-0.9400005-0.9400005V7.9991469
							c0-0.5191474,0.4208527-0.9400001,0.9400005-0.9400001h5.7241669C15.5791473,7.0591469,16,7.4799995,16,7.9991469v0.0017056
							C16,8.5200005,15.5791473,8.9408531,15.0600004,8.9408531z"/>
					</g>
				</g>
			</g>
		</g>
		<g>
			<g>
				<g>
					<g>
						<path fill="#545157" d="M15.0600004,14.6809044h-3.846961c-0.5191479,0-0.9400005-0.4208517-0.9400005-0.9399996v-0.0017061
							c0-0.5191479,0.4208527-0.9399996,0.9400005-0.9399996h3.846961C15.5791473,12.7991991,16,13.2200508,16,13.7391987v0.0017061
							C16,14.2600527,15.5791473,14.6809044,15.0600004,14.6809044z"/>
					</g>
				</g>
			</g>
		</g>
		<g opacity="0.3">
			<g>
				<g>
					<g>
						<path fill="#545157" d="M4.763525,9.7599487H3.5063715C2.8815324,9.7599487,2.375,9.2534161,2.375,8.6285763v-1.257153
							c0-0.6248393,0.5065324-1.1313715,1.1313715-1.1313715H4.763525c0.6248393,0,1.1313715,0.5065322,1.1313715,1.1313715
							v1.257153C5.8948965,9.2534161,5.3883643,9.7599487,4.763525,9.7599487z"/>
					</g>
				</g>
			</g>
		</g>
		<g opacity="0.3">
			<g>
				<g>
					<g>
						<path fill="#545157" d="M6.638525,15.5H5.3813715C4.7565322,15.5,4.25,14.9934673,4.25,14.3686285V13.111475
							c0-0.6248398,0.5065322-1.1313715,1.1313715-1.1313715H6.638525c0.6248393,0,1.1313715,0.5065317,1.1313715,1.1313715
							v1.2571535C7.7698965,14.9934673,7.2633643,15.5,6.638525,15.5z"/>
					</g>
				</g>
			</g>
		</g>
		<g>
			<g>
				<g>
					<g>
						<path fill="#545157" d="M2.8886719,4.5200195H1.6313477C0.7319336,4.5200195,0,3.7880859,0,2.8886719V1.6313477
							C0,0.7319336,0.7319336,0,1.6313477,0h1.2573242c0.2763672,0,0.5,0.2236328,0.5,0.5s-0.2236328,0.5-0.5,0.5H1.6313477
							C1.2832031,1,1,1.2832031,1,1.6313477v1.2573242c0,0.3481445,0.2832031,0.6313477,0.6313477,0.6313477h1.2573242
							c0.3481445,0,0.6313477-0.2832031,0.6313477-0.6313477V1.6313477c0-0.2763672,0.2236328-0.5,0.5-0.5s0.5,0.2236328,0.5,0.5
							v1.2573242C4.5200195,3.7880859,3.7880859,4.5200195,2.8886719,4.5200195z"/>
					</g>
				</g>
			</g>
		</g>
		<g>
			<g>
				<g>
					<g>
						<path fill="#545157" d="M4.7636719,10.2597656H3.5063477C2.6069336,10.2597656,1.875,9.527832,1.875,8.628418V7.371582
							c0-0.8994141,0.7319336-1.6313477,1.6313477-1.6313477h1.2573242c0.2763672,0,0.5,0.2236328,0.5,0.5s-0.2236328,0.5-0.5,0.5
							H3.5063477C3.1582031,6.7402344,2.875,7.0234375,2.875,7.371582V8.628418
							c0,0.3481445,0.2832031,0.6313477,0.6313477,0.6313477h1.2573242c0.3481445,0,0.6313477-0.2832031,0.6313477-0.6313477
							V7.371582c0-0.2763672,0.2236328-0.5,0.5-0.5s0.5,0.2236328,0.5,0.5V8.628418
							C6.3950195,9.527832,5.6630859,10.2597656,4.7636719,10.2597656z"/>
					</g>
				</g>
			</g>
		</g>
		<g>
			<g>
				<g>
					<g>
						<path fill="#545157" d="M6.6386719,16H5.3813477C4.4819336,16,3.75,15.2680664,3.75,14.3686523v-1.2573242
							c0-0.8994141,0.7319336-1.6313477,1.6313477-1.6313477h1.2573242c0.2763672,0,0.5,0.2236328,0.5,0.5s-0.2236328,0.5-0.5,0.5
							H5.3813477c-0.3481445,0-0.6313477,0.2832031-0.6313477,0.6313477v1.2573242C4.75,14.7167969,5.0332031,15,5.3813477,15
							h1.2573242c0.3481445,0,0.6313477-0.2832031,0.6313477-0.6313477v-1.2573242c0-0.2763672,0.2236328-0.5,0.5-0.5
							s0.5,0.2236328,0.5,0.5v1.2573242C8.2700195,15.2680664,7.5380859,16,6.6386719,16z"/>
					</g>
				</g>
			</g>
		</g>
	</g>
</g>
<g id="submitted">
</g>
<g id="feedback">
</g>
<g id="dnd_x5F_arrow">
</g>
</svg>
