<?xml version="1.0" encoding="utf-8"?>
<!-- Generator: Adobe Illustrator 21.0.0, SVG Export Plug-In . SVG Version: 6.00 Build 0)  -->
<svg version="1.1" xmlns="http://www.w3.org/2000/svg" xmlns:xlink="http://www.w3.org/1999/xlink" x="0px" y="0px" width="64px"
	 height="64px" viewBox="0 0 64 64" enable-background="new 0 0 64 64" xml:space="preserve">
<g id="Layer_1">
</g>
<g id="Layer_2">
</g>
<g id="messages">
</g>
<g id="messages_x5F_hover">
</g>
<g id="profile">
</g>
<g id="profile_x5F_hover">
</g>
<g id="view_x5F_hover">
</g>
<g id="view_x5F_feedback">
</g>
<g id="no_x5F_feedback_x5F_to_x5F_view">
</g>
<g id="download_x5F_hover">
</g>
<g id="download">
</g>
<g id="no_x5F_feedback_x5F_download">
</g>
<g id="link_x5F_hover">
</g>
<g id="assignment_x5F_link_copy">
</g>
<g id="Layer_21">
</g>
<g id="home_x5F_hover">
</g>
<g id="home_1_">
</g>
<g id="edit_x5F_profile">
</g>
<g id="preferences">
</g>
<g id="notifications">
</g>
<g id="my_x5F_posts">
</g>
<g id="logout">
</g>
<g id="assignment">
</g>
<g id="coursework">
</g>
<g id="forum">
</g>
<g id="quiz">
</g>
<g id="book">
</g>
<g id="database">
</g>
<g id="wiki">
</g>
<g id="choice">
</g>
<g id="workshop">
</g>
<g id="certificate">
</g>
<g id="scheduler">
</g>
<g id="equella">
</g>
<g id="file">
</g>
<g id="folder">
</g>
<g id="ims_x5F_content_x5F_package">
</g>
<g id="label">
</g>
<g id="lightbox_x5F_gallery">
</g>
<g id="nln_x5F_learning_x5F_object">
</g>
<g id="page">
</g>
<g id="subpage">
</g>
<g id="tab_x5F_display">
</g>
<g id="new_x5F_label">
</g>
<g id="url">
</g>
<g id="_x33_60_x5F_degree_x5F_diagnostics">
</g>
<g id="adobe_x5F_connect">
</g>
<g id="attendance_x5F_register">
</g>
<g id="booking">
</g>
<g id="chat">
</g>
<g id="checklist">
</g>
<g id="external_x5F_tool">
</g>
<g id="face_x5F_to_x5F_face">
</g>
<g id="forumNG">
</g>
<g id="glossary">
</g>
<g id="group_x5F_choice">
</g>
<g id="journal">
</g>
<g id="mediasite_x5F_content">
</g>
<g id="nanogong_x5F_voice">
</g>
<g id="questionnaire">
</g>
<g id="scorm_x5F_package">
</g>
<g id="survey">
</g>
<g id="tutorship">
</g>
<g id="advanced_x5F_forum">
</g>
<g id="subcourse">
	<g>
		<g>
			<g>
				<path fill="#FFFFFF" d="M36.6402512,48.0528984H32h-4.6405773c-1.472641,0-2.6666393,1.1939964-2.6666393,2.6666374v9.2806702
					c0,1.472641,1.1939983,2.6666374,2.6666393,2.6666374h9.2808285c1.472641,0,2.6666412-1.1939964,2.6666412-2.6666374v-9.2806702
					C39.3068924,49.2468948,38.1128922,48.0528984,36.6402512,48.0528984z"/>
			</g>
			<g>
				<path fill="#FFFFFF" d="M13.2807894,48.0528984H8.6405373H4.0002847c-1.4726412,0-2.6666393,1.1939964-2.6666393,2.6666374
					v9.2806702c0,1.472641,1.1939981,2.6666374,2.6666393,2.6666374h9.2805042c1.472641,0,2.6666393-1.1939964,2.6666393-2.6666374
					v-9.2806702C15.9474287,49.2468948,14.7534304,48.0528984,13.2807894,48.0528984z"/>
			</g>
			<g>
				<path fill="#FFFFFF" d="M59.9997139,48.0528984h-4.6402512h-4.6402512c-1.472641,0-2.6666412,1.1939964-2.6666412,2.6666374
					v9.2806702c0,1.472641,1.1940002,2.6666374,2.6666412,2.6666374h9.2805023c1.472641,0,2.6666412-1.1939964,2.6666412-2.6666374
					v-9.2806702C62.6663551,49.2468948,61.4723549,48.0528984,59.9997139,48.0528984z"/>
			</g>
			<g>
				<path fill="#FFFFFF" d="M53.2328568,9.7010746L33.2486839,1.5444194c-0.6868401-0.2804333-1.8105278-0.2804333-2.4973698,0
					L10.7671432,9.7010746c-0.686842,0.2804337-0.686842,0.7392502,0,1.0195208l6.829031,2.7874069v5.4496508
					c0,2.1863384,3.4143543,4.2691631,8.2938614,5.25597l-0.0351563,0.0182285
					c0.1367188,0.0273438,0.2923164,0.0379219,0.4316368,0.0634766c0.6640568,0.1240215,1.3574085,0.2233047,2.0683384,0.3043575
					c0.2145157,0.0239258,0.4218712,0.0517578,0.6402931,0.0716152c0.9192619,0.0854473,1.8694477,0.1323223,2.8420944,0.1370411
					c0.0257149,0,0.0494785,0.003582,0.0748672,0.003582c0.0149746,0,0.0292969-0.0009766,0.0442715-0.0009766
					c0.0146484,0,0.0286446,0.0009766,0.0436192,0.0009766c0.0257149,0,0.0494804-0.003582,0.0748672-0.003582
					c0.9726486-0.0047188,1.9231606-0.0515938,2.8424225-0.1370411c0.2180939-0.0198574,0.4257736-0.0476894,0.6399651-0.0716152
					c0.7109299-0.0810528,1.4042816-0.180336,2.0686646-0.3043575c0.1389961-0.0255547,0.2945938-0.0361328,0.4313126-0.0634766
					l-0.0351563-0.0182285c4.8795052-0.9868069,8.2941856-3.0696316,8.2941856-5.25597v-5.4161224l1.1178284-0.4540968
					l5.7987671-2.3668385C53.9197006,10.4403248,53.9197006,9.9815083,53.2328568,9.7010746z"/>
			</g>
		</g>
		<g opacity="0.3">
			<g>
				<path fill="#32548C" d="M36.6402512,48.0529671H32h-4.6404152c-1.472641,0-2.6666393,1.1940002-2.6666393,2.6666412v9.2806664
					c0,1.472641,1.1939983,2.6666412,2.6666393,2.6666412h9.2806664c1.472641,0,2.6666412-1.1940002,2.6666412-2.6666412v-9.2806664
					C39.3068924,49.2469673,38.1128922,48.0529671,36.6402512,48.0529671z"/>
			</g>
		</g>
		<g opacity="0.3">
			<g>
				<path fill="#32548C" d="M53.2326927,9.7011452L33.248848,1.54449c-0.6868401-0.2804334-1.810854-0.2804334-2.4976959,0
					L10.7673054,9.7011452c-0.6870041,0.2804337-0.6870041,0.7392502,0,1.0195208l6.8288689,2.7874069v5.4496508
					c0,2.1863384,3.4145164,4.2691631,8.2938614,5.25597l-0.0351563,0.0182285
					c0.1367188,0.0273438,0.2924786,0.0379219,0.4314747,0.0634766c0.664381,0.1240215,1.3577328,0.2233047,2.0685005,0.3043575
					c0.2145157,0.0239258,0.4220333,0.0517578,0.6402931,0.0716152c0.9192619,0.0854473,1.8696098,0.1323223,2.8420944,0.1370411
					c0.0257149,0,0.0493145,0.003582,0.0750313,0.003582c0.0148106,0,0.0291328-0.0009766,0.0439453-0.0009766
					c0.0148106,0,0.0289707,0.0009766,0.0437813,0.0009766c0.0257149,0,0.0493164-0.003582,0.0750313-0.003582
					c0.9724846-0.0047188,1.9228325-0.0515938,2.8420944-0.1370411c0.2182579-0.0198574,0.4257774-0.0476894,0.6402931-0.0716152
					c0.7107658-0.0810528,1.4041176-0.180336,2.0685005-0.3043575c0.1389961-0.0255547,0.2947578-0.0361328,0.4314728-0.0634766
					l-0.0351563-0.0182285c4.8793449-0.9868069,8.2938614-3.0696316,8.2938614-5.25597v-5.4161224l1.1179924-0.4540968
					l5.7986031-2.3668385C53.9195366,10.4403954,53.9195366,9.9815788,53.2326927,9.7011452z"/>
			</g>
		</g>
		<g>
			<path fill="#32548C" d="M10.2632418,11.9546328l5.9999399,2.449194v4.5546408
				c0,4.4400597,8.1691875,7.1874275,15.7368183,7.1874275c2.177063,0,4.3020401-0.2044258,6.3176422-0.6067657
				c0.7239532-0.1432266,1.190094-0.8463459,1.0468674-1.5676918c-0.1432304-0.7239513-0.8593674-1.1926956-1.5676918-1.0468636
				C35.9504814,23.2930584,33.9999809,23.4792557,32,23.4792557c-8.1066875,0-13.070179-2.9270535-13.070179-4.5207882v-3.4661102
				l11.3175926,4.6197453C30.7552204,20.3191299,31.3776112,20.423296,32,20.423296
				c0.6223907,0,1.2447777-0.104166,1.7551918-0.3111935l8.2082481-3.3578777v1.6039886
				c0,0.0071621,0.0039063,0.0130196,0.0039063,0.0200195l-1.2278519,6.3770504
				c-0.1953087,0.7916584-0.0182304,1.6132641,0.4869728,2.2538834c0.5026016,0.6406193,1.2551956,1.007803,2.0702934,1.007803
				c0.815094,0,1.5728989-0.3684864,2.0755005-1.0117092c0.5025978-0.6419201,0.6770744-1.4635258,0.4973907-2.1848736
				l-1.2434769-6.442318c0-0.0069981,0.0039063-0.0128574,0.0039063-0.0198555v-3.592412
				c0-0.1344385-0.074543-0.2447891-0.1126289-0.3691368c-0.0120468-0.0395498-0.0068359-0.0800772-0.022789-0.1191387
				c-0.0058594-0.0144863-0.0188789-0.0232744-0.0250626-0.0374346c-0.0615234-0.1372061-0.1350899-0.2485332-0.2386055-0.3577442
				c-0.0511055-0.0551748-0.1116524-0.093749-0.1708946-0.1389961c-0.0908203-0.0681953-0.1520195-0.1678038-0.2607422-0.2119112
				L32.5025978,8.9234133c-0.6744709-0.2799454-1.4583168,0.046875-1.7369595,0.7304611
				c-0.2786446,0.6822853,0.0494785,1.4609232,0.7317619,1.7382641l8.2762852,3.3762674l-7.0262985,2.8749714
				c-0.3645782,0.1484356-1.1327991,0.1484356-1.4921703,0l-18.2055435-7.4335184l18.2029381-7.4309144
				c0.3671837-0.1458318,1.132803-0.1458318,1.4947758,0l18.2029419,7.4322162l-4.0207939,1.6419106
				c-0.6796799,0.2786427-1.0078011,1.0572805-0.7291603,1.7382631c0.2786446,0.6822853,1.0546799,1.0065002,1.7395668,0.7304611
				l5.7942123-2.3671627c1.2135277-0.4934845,1.3463402-1.3827991,1.3463402-1.7421703s-0.1302071-1.2486849-1.3463402-1.7460756
				l-19.9815674-8.156167c-1.0156136-0.4140583-2.4895573-0.4140583-3.5051727,0l-19.9841728,8.156167
				c-1.2135296,0.4973907-1.3437357,1.3867044-1.3437357,1.7460756S9.0523167,11.4611483,10.2632418,11.9546328z"/>
			<path fill="#32548C" d="M62.6663551,49.3865433c-0.7369728,0-1.3333206,0.5963478-1.3333206,1.3333206v9.2798538
				c0,0.7356682-0.5989532,1.3333206-1.3333206,1.3333206h-9.2811546c-0.7343674,0-1.3333206-0.5976524-1.3333206-1.3333206
				v-9.2798538c0-0.735672,0.5989532-1.3333206,1.3333206-1.3333206h9.2811546c0.7369728,0,1.3333206-0.5963478,1.3333206-1.3333206
				c0-0.736969-0.5963478-1.3333206-1.3333206-1.3333206h-3.3072586V39.111908c0-0.7369728-0.5963478-1.3333206-1.3333168-1.3333206
				H33.3333206v-8.3618927c0-0.7369709-0.5963478-1.3333206-1.3333206-1.3333206
				c-0.7369709,0-1.3333206,0.5963497-1.3333206,1.3333206v8.3618927H8.6408625
				c-0.7369714,0-1.3333197,0.5963478-1.3333197,1.3333206v7.6079941H4.0002847
				c-2.2057066,0-3.9999592,1.7942543-3.9999592,3.9999619v9.2798538c0,2.2057076,1.7942525,3.999958,3.9999592,3.999958h9.2811565
				c2.2057066,0,3.999958-1.7942505,3.999958-3.999958v-9.2798538c0-0.7369728-0.5963478-1.3333206-1.3333187-1.3333206
				c-0.7369719,0-1.3333197,0.5963478-1.3333197,1.3333206v9.2798538c0,0.7356682-0.5989523,1.3333206-1.3333197,1.3333206
				H4.0002847c-0.7343674,0-1.3333197-0.5976524-1.3333197-1.3333206v-9.2798538
				c0-0.735672,0.5989523-1.3333206,1.3333197-1.3333206h9.2811565c0.7369709,0,1.3333197-0.5963478,1.3333197-1.3333206
				c0-0.736969-0.5963488-1.3333206-1.3333197-1.3333206H9.9741821v-6.2746735h20.6924973v6.2746735h-3.3072567
				c-2.2057076,0-3.9999599,1.7942543-3.9999599,3.9999619v9.2798538c0,2.2057076,1.7942524,3.999958,3.9999599,3.999958h9.2811565
				c2.2057037,0,3.999958-1.7942505,3.999958-3.999958v-9.2798538c0-0.7369728-0.5963478-1.3333206-1.3333206-1.3333206
				s-1.3333206,0.5963478-1.3333206,1.3333206v9.2798538c0,0.7356682-0.5989494,1.3333206-1.3333168,1.3333206h-9.2811565
				c-0.7343674,0-1.3333206-0.5976524-1.3333206-1.3333206v-9.2798538c0-0.735672,0.5989532-1.3333206,1.3333206-1.3333206
				h9.2811565c0.736969,0,1.3333168-0.5963478,1.3333168-1.3333206c0-0.736969-0.5963478-1.3333206-1.3333168-1.3333206h-3.3072586
				v-6.2746735h20.6924973v6.2746735h-3.3072586c-2.2057076,0-3.999958,1.7942543-3.999958,3.9999619v9.2798538
				c0,2.2057076,1.7942505,3.999958,3.999958,3.999958h9.2811546c2.2057076,0,3.9999619-1.7942505,3.9999619-3.999958v-9.2798538
				C63.9996758,49.9828911,63.4033279,49.3865433,62.6663551,49.3865433z"/>
		</g>
	</g>
</g>
<g id="lesson_1_">
</g>
<g id="adaptive_x5F_quiz">
</g>
<g id="ou_x5F_wiki">
</g>
<g id="support_x5F_tracker">
</g>
<g id="view_x5F_comments">
</g>
<g id="no_x5F_comment">
</g>
<g id="attention">
</g>
<g id="search">
</g>
<g id="submitted">
</g>
<g id="feedback">
</g>
<g id="dnd_x5F_arrow">
</g>
</svg>
