<?xml version="1.0" encoding="utf-8"?>
<!-- Generator: Adobe Illustrator 21.0.0, SVG Export Plug-In . SVG Version: 6.00 Build 0)  -->
<svg version="1.1" xmlns="http://www.w3.org/2000/svg" xmlns:xlink="http://www.w3.org/1999/xlink" x="0px" y="0px" width="64px"
	 height="64px" viewBox="0 0 64 64" enable-background="new 0 0 64 64" xml:space="preserve">
<g id="Layer_1">
</g>
<g id="Layer_2">
	<g>
		<g>
			<g>
				<path fill="#FFFFFF" d="M27.2121086,10.3111382C14.9243908,12.5633173,5.6122808,23.3269253,5.6122808,36.2654648
					c0,14.5734482,11.814147,26.3875961,26.3875961,26.3875961s26.387598-11.8141479,26.387598-26.3875961
					S46.5733261,9.8778687,31.999876,9.8778687L27.2121086,10.3111382z"/>
			</g>
		</g>
		<g opacity="0.3">
			<g>
				<path fill="#545157" d="M54.8583908,49.4101143c2.2323341-3.8731041,3.5290833-8.3532333,3.5290833-13.1446152
					c0-14.5736217-11.8140869-26.3877068-26.3875408-26.3877068v26.3877068L54.8583908,49.4101143z"/>
			</g>
		</g>
		<g>
			<path fill="#545157" d="M32.4949799,35.4044838c0,0,0.4707909-0.3333282,0.9822426-0.3733521
				c0.5382462-0.0866241,0.975071,0.3671303,1.618679,0.703968c1.2532806,0.7326927,2.2142639,1.3092918,3.832737,2.3776474
				c1.586483,1.1239967,2.3763428,1.7236176,3.5163574,2.6533165c1.1715546,0.8748093,1.9167099,1.5204506,1.9167099,1.5204506
				c0.40662,0.3523407,0.4506607,0.9676208,0.0983124,1.3742599c-0.267601,0.3088226-0.6874619,0.4080162-1.0517731,0.2837715
				c0,0-0.9328194-0.3192711-2.278183-0.8918304c-1.3769417-0.5176697-2.2442703-0.9825745-4.0137291-1.7883987
				c-1.7374306-0.8614731-2.7539253-1.3415298-4.0175858-2.0562057c-0.6148491-0.3868484-1.226757-0.5361595-1.4226055-1.0449333
				c-0.2226563-0.4621735-0.1713829-1.0367317-0.1713829-1.0367317
				C31.5686588,36.4108009,31.9531174,35.7920876,32.4949799,35.4044838z"/>
		</g>
		<g>
			<path fill="#545157" d="M31.0067444,36.2663498c0,0-0.523838-0.2415466-0.8138275-0.6647415
				c-0.3437386-0.4231453-0.1686172-1.0281601-0.1980305-1.7539864c0.0092621-1.4517097,0.0291767-2.5722294,0.1469898-4.5079365
				c0.1819916-1.9357624,0.3072777-2.9194927,0.5437813-4.3714027c0.1732006-1.4518375,0.3606796-2.4198036,0.3606796-2.4198036
				c0.1023216-0.5282192,0.6134777-0.8735161,1.1417122-0.7711964c0.4011765,0.0777168,0.6967163,0.3920116,0.770916,0.7697067
				c0,0,0.1889992,0.967659,0.3644638,2.4192219c0.2387848,1.4515285,0.2689018,2.4351368,0.4539413,4.3706226
				c0.1208344,1.9355087,0.2122803,3.0559349,0.2238159,4.5076447c-0.0282822,0.7258759,0.1477928,1.3306236-0.1952934,1.7542953
				c-0.2893219,0.4236412-0.8127708,0.6660233-0.8127708,0.6660233
				C32.3411217,36.5666656,31.6130924,36.5423851,31.0067444,36.2663498z"/>
		</g>
		<g>
			<g>
				<g>
					<path fill="#545157" d="M46.669426,44.8453445c0,0,0.0816612-0.1370888,0.234745-0.3941612
						c0.1565819-0.2676849,0.315712-0.5467987,0.5529251-1.0166206c0.4522629-0.9004974,1.0252953-2.2382126,1.4137421-3.9357185
						c0.1930122-0.847702,0.3362274-1.7831535,0.4025955-2.7821312l0.0350723-0.7605743l-0.0210915-0.7619705
						c-0.0271416-0.5625038-0.0106926-1.2056808-0.1087189-1.6840134c-0.2165718-2.0569229-0.913166-4.4250317-2.0435181-6.4615593
						c-1.1238976-2.0676956-2.6814346-3.9001904-4.4021683-5.3052578c-0.8562965-0.7117233-1.7639503-1.2922382-2.6448784-1.8102512
						c-0.9031715-0.4800205-1.7770691-0.8940449-2.6246071-1.1856174c-1.6815071-0.6163273-3.1679077-0.8602448-4.207428-0.9842987
						c-1.0479126-0.0732746-1.6467228-0.1151733-1.6467228-0.1151733l-0.1187935-0.0083065
						c-0.6352425-0.0444088-1.114193-0.5953979-1.0697842-1.2306824c0.0433807-0.6203995,0.5722485-1.0916605,1.1885777-1.0719652
						c0,0,0.675909,0.0224924,1.8587284,0.0618429c1.1779709,0.0965471,2.8725128,0.3123379,4.8156166,0.9453182
						c0.9783363,0.3000431,1.995163,0.7335987,3.0496941,1.2497635c1.0318298,0.5538273,2.0983696,1.1866035,3.1150703,1.9700775
						c2.0412979,1.5476685,3.9260941,3.6046715,5.3281593,5.9761524c1.415432,2.3908882,2.3176155,4.9703865,2.6975517,7.6584415
						c0.1365967,0.6990585,0.1319923,1.239151,0.1821175,1.8248863l0.0560036,0.9442101l-0.0088005,0.9057617
						c-0.0358543,1.1924019-0.1671066,2.3190536-0.3624191,3.345871c-0.3926048,2.0565948-1.0266953,3.7009697-1.5351677,4.8115883
						c-0.2443695,0.5378304-0.5030899,1.0311317-0.6405907,1.2841377c-0.1437912,0.2623787-0.2204781,0.4023056-0.2204781,0.4023056
						c-0.500782,0.9137383-1.6474609,1.2485275-2.5611992,0.7477417c-0.9137421-0.5007439-1.2484894-1.647419-0.7477455-2.561161
						C46.6454964,44.8865051,46.6593933,44.8624115,46.669426,44.8453445z"/>
				</g>
			</g>
		</g>
		<g>
			<circle fill="#545157" cx="31.999876" cy="36.2654648" r="2.5808227"/>
		</g>
		<g>
			<g>
				<circle fill="#545157" cx="13.040205" cy="36.2654648" r="2.5"/>
			</g>
		</g>
		<g>
			<g>
				<circle fill="#545157" cx="31.9469872" cy="55.172245" r="2.5"/>
			</g>
		</g>
		<g>
			<g>
				
					<ellipse transform="matrix(0.8660254 -0.5 0.5 0.8660254 -20.7730103 27.7525063)" fill="#545157" cx="41.4003792" cy="52.6392174" rx="2.4998353" ry="2.4998353"/>
			</g>
			<g>
				
					<ellipse transform="matrix(0.8660254 -0.5 0.5 0.8660254 -6.9322853 13.9117823)" fill="#545157" cx="22.4935951" cy="19.8917122" rx="2.4998353" ry="2.4998353"/>
			</g>
		</g>
		<g>
			
				<ellipse transform="matrix(0.5 -0.8660254 0.8660254 0.5 -15.433321 26.8928528)" fill="#545157" cx="15.5732336" cy="26.8120747" rx="2.4998353" ry="2.4998353"/>
		</g>
		<g>
			<g>
				
					<ellipse transform="matrix(0.8660254 -0.5 0.5 0.8660254 -20.7730103 13.9117823)" fill="#545157" cx="15.5732336" cy="45.7188568" rx="2.4998353" ry="2.4998353"/>
			</g>
		</g>
		<g>
			<g>
				
					<ellipse transform="matrix(0.5 -0.8660254 0.8660254 0.5 -34.3401031 45.799633)" fill="#545157" cx="22.4935951" cy="52.6392174" rx="2.4998353" ry="2.4998353"/>
			</g>
		</g>
		<path fill="#545157" d="M33.3460503,8.5627642V6.6211143h4.4083252c0.8607178,0,1.5584717-0.8583984,1.5584717-1.9172974
			V1.9172567c0-1.0588379-0.6977539-1.9172363-1.5584717-1.9172363H26.2454014
			c-0.8607788,0-1.5585327,0.8583984-1.5585327,1.9172363v2.7865601c0,1.0588989,0.6977539,1.9172974,1.5585327,1.9172974h4.4058838
			v3.2561641c0,0.744751,0.6026611,1.3473511,1.3474121,1.3473511c13.8079853,0,25.0422382,11.2329721,25.0422382,25.0409546
			c0,13.8067017-11.2342529,25.0396729-25.0422382,25.0396729S6.9590249,50.0722847,6.9590249,36.265583
			c0-12.0947857,8.6184692-22.4527588,20.494873-24.6290894c0.7316284-0.1342163,1.2184448-0.8355713,1.0842285-1.5684204
			c-0.1368408-0.7329102-0.8552856-1.2236938-1.5684204-1.081604C13.8117476,11.3969927,4.2642617,22.8694668,4.2642617,36.265583
			c0,15.2922363,12.4421997,27.7344398,27.734436,27.7344398c15.2948017,0,27.7370014-12.4422035,27.7370014-27.7344398
			C59.7356987,21.4234219,48.0171928,9.2680254,33.3460503,8.5627642z"/>
		<g>
			<path fill="#545157" d="M14.5661392,11.9184628l-4.0333881,2.3283119
				c-0.603302,0.3482618-1.4545116,0.0032454-1.9012308-0.7706165l-1.1755891-2.0365
				C7.0092125,10.6657963,7.136148,9.7561359,7.73945,9.4078741l8.0667763-4.6566234
				c0.603302-0.3482618,1.4545116-0.0032449,1.9012299,0.7706165l1.1755905,2.0365005
				c0.4467182,0.7738609,0.3197823,1.6835222-0.2835197,2.0317841L14.5661392,11.9184628z"/>
		</g>
		<g>
			<path fill="#545157" d="M49.4367409,11.9210405l-4.0330925-2.3288269
				c-0.6032562-0.3483381-0.7300758-1.2580147-0.2832603-2.0318193l1.1758499-2.0363507
				c0.4468155-0.7738042,1.2980728-1.1187124,1.901329-0.7703738l8.0661812,4.6576519
				c0.60326,0.3483391,0.7300797,1.2580156,0.2832603,2.0318203l-1.1758499,2.0363503
				c-0.4468155,0.7738047-1.298069,1.1187124-1.901329,0.7703743L49.4367409,11.9210405z"/>
		</g>
	</g>
</g>
<g id="messages">
</g>
<g id="messages_x5F_hover">
</g>
<g id="profile">
</g>
<g id="profile_x5F_hover">
</g>
<g id="view_x5F_hover">
</g>
<g id="view_x5F_feedback">
</g>
<g id="no_x5F_feedback_x5F_to_x5F_view">
</g>
<g id="download_x5F_hover">
</g>
<g id="download">
</g>
<g id="no_x5F_feedback_x5F_download">
</g>
<g id="link_x5F_hover">
</g>
<g id="assignment_x5F_link_copy">
</g>
<g id="Layer_21">
</g>
<g id="home_x5F_hover">
</g>
<g id="home_1_">
</g>
<g id="edit_x5F_profile">
</g>
<g id="preferences">
</g>
<g id="notifications">
</g>
<g id="my_x5F_posts">
</g>
<g id="logout">
</g>
<g id="assignment">
</g>
<g id="coursework">
</g>
<g id="forum">
</g>
<g id="quiz">
</g>
<g id="book">
</g>
<g id="database">
</g>
<g id="wiki">
</g>
<g id="choice">
</g>
<g id="workshop">
</g>
<g id="certificate">
</g>
<g id="scheduler">
</g>
<g id="equella">
</g>
<g id="file">
</g>
<g id="folder">
</g>
<g id="ims_x5F_content_x5F_package">
</g>
<g id="label">
</g>
<g id="lightbox_x5F_gallery">
</g>
<g id="nln_x5F_learning_x5F_object">
</g>
<g id="page">
</g>
<g id="subpage">
</g>
<g id="tab_x5F_display">
</g>
<g id="new_x5F_label">
</g>
<g id="url">
</g>
<g id="_x33_60_x5F_degree_x5F_diagnostics">
</g>
<g id="adobe_x5F_connect">
</g>
<g id="attendance_x5F_register">
</g>
<g id="booking">
</g>
<g id="chat">
</g>
<g id="checklist">
</g>
<g id="external_x5F_tool">
</g>
<g id="face_x5F_to_x5F_face">
</g>
<g id="forumNG">
</g>
<g id="glossary">
</g>
<g id="group_x5F_choice">
</g>
<g id="journal">
</g>
<g id="mediasite_x5F_content">
</g>
<g id="nanogong_x5F_voice">
</g>
<g id="questionnaire">
</g>
<g id="scorm_x5F_package">
</g>
<g id="survey">
</g>
<g id="tutorship">
</g>
<g id="advanced_x5F_forum">
</g>
<g id="subcourse">
</g>
<g id="lesson_1_">
</g>
<g id="adaptive_x5F_quiz">
</g>
<g id="ou_x5F_wiki">
</g>
<g id="support_x5F_tracker">
</g>
<g id="view_x5F_comments">
</g>
<g id="no_x5F_comment">
</g>
<g id="attention">
</g>
<g id="search">
</g>
<g id="submitted">
</g>
<g id="feedback">
</g>
<g id="dnd_x5F_arrow">
</g>
</svg>
