<?xml version="1.0" encoding="utf-8"?>
<!-- Generator: Adobe Illustrator 21.0.0, SVG Export Plug-In . SVG Version: 6.00 Build 0)  -->
<svg version="1.1" xmlns="http://www.w3.org/2000/svg" xmlns:xlink="http://www.w3.org/1999/xlink" x="0px" y="0px" width="64px"
	 height="64px" viewBox="0 0 64 64" enable-background="new 0 0 64 64" xml:space="preserve">
<g id="Layer_1">
</g>
<g id="Layer_2">
</g>
<g id="messages">
</g>
<g id="messages_x5F_hover">
</g>
<g id="profile">
</g>
<g id="profile_x5F_hover">
</g>
<g id="view_x5F_hover">
</g>
<g id="view_x5F_feedback">
</g>
<g id="no_x5F_feedback_x5F_to_x5F_view">
</g>
<g id="download_x5F_hover">
</g>
<g id="download">
</g>
<g id="no_x5F_feedback_x5F_download">
</g>
<g id="link_x5F_hover">
</g>
<g id="assignment_x5F_link_copy">
</g>
<g id="Layer_21">
</g>
<g id="home_x5F_hover">
</g>
<g id="home_1_">
</g>
<g id="edit_x5F_profile">
</g>
<g id="preferences">
</g>
<g id="notifications">
</g>
<g id="my_x5F_posts">
</g>
<g id="logout">
</g>
<g id="assignment">
</g>
<g id="coursework">
</g>
<g id="forum">
</g>
<g id="quiz">
</g>
<g id="book">
</g>
<g id="database">
</g>
<g id="wiki">
</g>
<g id="choice">
</g>
<g id="workshop">
</g>
<g id="certificate">
</g>
<g id="scheduler">
</g>
<g id="equella">
</g>
<g id="file">
</g>
<g id="folder">
</g>
<g id="ims_x5F_content_x5F_package">
</g>
<g id="label">
</g>
<g id="lightbox_x5F_gallery">
</g>
<g id="nln_x5F_learning_x5F_object">
</g>
<g id="page">
</g>
<g id="subpage">
</g>
<g id="tab_x5F_display">
</g>
<g id="new_x5F_label">
</g>
<g id="url">
</g>
<g id="_x33_60_x5F_degree_x5F_diagnostics">
</g>
<g id="adobe_x5F_connect">
</g>
<g id="attendance_x5F_register">
</g>
<g id="booking">
</g>
<g id="chat">
</g>
<g id="checklist">
</g>
<g id="external_x5F_tool">
</g>
<g id="face_x5F_to_x5F_face">
</g>
<g id="forumNG">
</g>
<g id="glossary">
</g>
<g id="group_x5F_choice">
</g>
<g id="journal">
</g>
<g id="mediasite_x5F_content">
</g>
<g id="nanogong_x5F_voice">
</g>
<g id="questionnaire">
</g>
<g id="scorm_x5F_package">
</g>
<g id="survey">
</g>
<g id="tutorship">
</g>
<g id="advanced_x5F_forum">
	<g>
		<g>
			<path fill="#FFFFFF" d="M58.2730904,15.3816051H41.2560005V5.3052707c0-2.1933594-1.7781563-3.9715171-3.9716797-3.9715171
				H5.7258911c-2.4262695,0-4.3930664,1.9667969-4.3930664,4.3930664v19.6827793
				c0,2.1935234,1.7781575,3.9716797,3.9716797,3.9716797h3.9153643v5.4015312l7.2972002-4.3600273
				c0.2576504-0.168457,0.8398438-0.4152012,1.3821621-0.6289063c-0.0275059,0.0473633-0.0657558,0.081707-0.0904942,0.132
				l-4.2371426,8.5852852l-9.4744473,1.3767929c-1.8987629,0.2758789-2.6570635,2.609375-1.2830403,3.9485664l6.8557949,6.6827812
				l-1.6183271,9.4361954c-0.3243814,1.8911133,1.6604815,3.3333359,3.3588867,2.4404297l8.4742832-4.4550781l8.4741211,4.4550781
				c1.6984062,0.8929062,3.6832676-0.5493164,3.3590508-2.4404297l-1.6184902-9.4361954l6.855793-6.6827812
				c0.1289063-0.1256523,0.2210312-0.2666016,0.3131523-0.4072266h6.7192383c1.2412109,0,2.4555664,0.3618164,3.4943047,1.0415039
				l3.6914063,2.2055664l3.605793,2.1544609v-5.4015312h3.9153633c2.1935234,0,3.9716797-1.7781563,3.9716797-3.9716797V19.7748337
				C62.6661568,17.3485641,60.6993599,15.3816051,58.2730904,15.3816051z"/>
		</g>
		<g opacity="0.3">
			<g>
				<path fill="#32548C" d="M21.9606094,29.9258919l4.2371197,8.5853424l9.4744892,1.3767242
					c1.8987999,0.2759132,2.6569824,2.6093559,1.2829971,3.9486618l-6.8558025,6.6827583l1.6184349,9.436203
					c0.3243542,1.8911324-1.660593,3.3332787-3.3589344,2.4404106l-8.4742393-4.4551735l-8.4742384,4.4551735
					c-1.6983404,0.892868-3.6832886-0.5492783-3.3589344-2.4404106l1.6184359-9.436203l-6.8558035-6.6827583
					c-1.3739865-1.3393059-0.6158037-3.6727486,1.2829986-3.9486618l9.4744873-1.3767242l4.2371197-8.5853424
					C18.6579094,28.205286,21.1114407,28.205286,21.9606094,29.9258919z"/>
			</g>
		</g>
		<g>
			<path fill="#32548C" d="M49.9508057,23.6273327h-15.3125c-0.7369385,0-1.333313,0.5963745-1.333313,1.333374
				c0,0.7369385,0.5963745,1.333313,1.333313,1.333313h15.3125c0.7369995,0,1.333374-0.5963745,1.333374-1.333313
				C51.2841797,24.2237072,50.6878052,23.6273327,49.9508057,23.6273327z"/>
			<path fill="#32548C" d="M49.9508057,32.5153961h-15.3125c-0.7369385,0-1.333313,0.5963135-1.333313,1.333313
				s0.5963745,1.333313,1.333313,1.333313h15.3125c0.7369995,0,1.333374-0.5963135,1.333374-1.333313
				S50.6878052,32.5153961,49.9508057,32.5153961z"/>
			<path fill="#32548C" d="M58.2737427,14.0479259H26.7138672c-2.62146,0-4.7906494,1.9169922-5.2151489,4.4205933h-7.4489136
				c-0.7369995,0-1.333374,0.5963135-1.333374,1.333313s0.5963745,1.333313,1.333374,1.333313h7.359375v6.4987183
				c-0.4671631-0.213623-0.982605-0.331543-1.520874-0.3320313c-0.0025635,0-0.0025635,0-0.0025635,0
				c-1.1192627,0-2.140564,0.5047607-2.8240356,1.3474121c-0.4390259,0.1818848-0.8626709,0.3884888-1.2306519,0.6278687
				l-5.2786865,3.1549091v-3.0507832c0-0.7369385-0.5963135-1.333313-1.333313-1.333313H5.3049927
				c-1.4557495,0-2.6380005-1.1835938-2.6380005-2.6380005V5.7263317c0-1.6875,1.3723755-3.0598755,3.0598755-3.0598755h31.557312
				c1.4556885,0,2.6380005,1.1835938,2.6380005,2.6392822v5.9609375c0,0.7369995,0.5963745,1.333313,1.333313,1.333313
				c0.7369995,0,1.333374-0.5963135,1.333374-1.333313V5.3057384c0-2.9257813-2.380249-5.3059692-5.3046875-5.3059692H5.7268677
				c-3.1588745,0-5.7265625,2.5690308-5.7265625,5.7265625v19.6835938c0,2.9244385,2.380188,5.3033447,5.3046875,5.3033447
				h2.5807495v4.0703144c0,0.479187,0.2578125,0.921875,0.6744385,1.1588745
				c0.2057495,0.1171875,0.432312,0.1744995,0.6588745,0.1744995c0.2369995,0,0.473938-0.0625,0.6848755-0.1901245
				l4.9015503-2.9308472l-2.1203003,4.2954102l-8.78125,1.276062c-1.3828125,0.203125-2.5130005,1.1536255-2.942688,2.484375
				c-0.432312,1.3307495-0.078125,2.7630005,0.9244995,3.739563l6.3515625,6.1953125l-1.5,8.7421875
				c-0.2369995,1.380249,0.3203125,2.7474365,1.4505005,3.5703125c0.640625,0.463562,1.3880005,0.7005615,2.140625,0.7005615
				c0.5807495,0,1.1640625-0.140625,1.7005005-0.4244995l7.8568115-4.130188l7.854126,4.130188
				c1.2318115,0.651062,2.708374,0.5442505,3.838562-0.276062c1.1328125-0.822876,1.6901245-2.1900635,1.4557495-3.5703125
				l-1.5026245-8.7421875l6.354187-6.1953125c0.0092773-0.0090332,0.0164185-0.0195313,0.0255737-0.0286255h6.0759888
				c0.984375,0,1.9400635,0.2838745,2.8098755,0.8515625l7.2994995,4.3619995c0.208313,0.125,0.4453125,0.1875,0.682251,0.1875
				c0.2265625,0,0.453125-0.057312,0.6588745-0.1744995c0.416687-0.2369995,0.6744995-0.6796875,0.6744995-1.1588745v-4.067688
				h2.583313c2.9244995,0,5.3046875-2.380188,5.3046875-5.3046875V19.7744884
				C64.0003052,16.6169567,61.4326172,14.0479259,58.2737427,14.0479259z M61.3336182,39.4580841
				c0,1.4557495-1.182251,2.6380005-2.6380005,2.6380005h-3.916687c-0.7369385,0-1.333313,0.5963745-1.333313,1.333374v3.052063
				l-5.234375-3.125c-1.2578125-0.8255005-2.71875-1.260437-4.223938-1.260437h-5.0015869
				c-0.0090942-0.3485107-0.0661621-0.699646-0.1781006-1.0442505c-0.432312-1.3307495-1.5599365-2.28125-2.942749-2.484375
				l-8.78125-1.276062l-0.9088135-1.8411255c-0.322937-0.65625-1.1224365-0.927063-1.786499-0.604187
				c-0.6588135,0.3255615-0.9296875,1.125-0.604126,1.786499l1.21875,2.46875
				c0.192688,0.3931885,0.5703125,0.6640625,1.0025635,0.729126l9.473999,1.3776245
				c0.546875,0.078125,0.7369385,0.4921875,0.7942505,0.666687c0.0546875,0.1744385,0.145813,0.6223755-0.2473755,1.005188
				l-6.8568115,6.6848755c-0.3150635,0.307312-0.458313,0.75-0.385376,1.182312l1.619751,9.432312
				c0.09375,0.5442505-0.2421875,0.854126-0.390625,0.9609375c-0.1484375,0.109375-0.541626,0.3306885-1.0338135,0.0755005
				l-8.473999-4.4557495c-0.385376-0.203125-0.854126-0.203125-1.239563,0l-8.4765625,4.4557495
				c-0.4973755,0.255188-0.885437,0.03125-1.0338745-0.0755005c-0.1484375-0.1068115-0.4817505-0.416687-0.3880005-0.958374
				l1.6171875-9.4375c0.072937-0.432251-0.0703125-0.8723755-0.385437-1.1796875l-6.854126-6.6848755
				c-0.3932495-0.3828125-0.3046875-0.8307495-0.2474365-1.005188c0.0546875-0.1744995,0.244812-0.588562,0.791687-0.666687
				l9.473938-1.3776245c0.432312-0.0650635,0.8099365-0.3359375,1.0026245-0.729126l4.2369995-8.5833759
				c0.244751-0.494751,0.697876-0.5494385,0.8828125-0.5494385c0.1848755,0,0.635376,0.0546875,0.880188,0.546875
				l0.6432495,1.3046875c0.1483154,0.2977314,0.3950195,0.5119648,0.6793823,0.6326923
				c0.1959839,0.1131592,0.4111328,0.1954346,0.6539307,0.1954346c0.7369995,0,1.333313-0.5963745,1.333313-1.3333759V19.3538952
				c0-1.4556885,1.182312-2.6392822,2.6380615-2.6392822h31.5598755c1.6875,0,3.0598755,1.3723755,3.0598755,3.0598755V39.4580841z"
				/>
			<path fill="#32548C" d="M14.0498047,9.5804577c-0.7369995,0-1.333374,0.5963745-1.333374,1.333374
				c0,0.7369385,0.5963745,1.333313,1.333374,1.333313h15.3098755c0.7369995,0,1.333313-0.5963745,1.333313-1.333313
				c0-0.7369995-0.5963135-1.333374-1.333313-1.333374H14.0498047z"/>
		</g>
	</g>
</g>
<g id="subcourse">
</g>
<g id="lesson_1_">
</g>
<g id="adaptive_x5F_quiz">
</g>
<g id="ou_x5F_wiki">
</g>
<g id="support_x5F_tracker">
</g>
<g id="view_x5F_comments">
</g>
<g id="no_x5F_comment">
</g>
<g id="attention">
</g>
<g id="search">
</g>
<g id="submitted">
</g>
<g id="feedback">
</g>
<g id="dnd_x5F_arrow">
</g>
</svg>
