<?xml version="1.0" encoding="utf-8"?>
<!-- Generator: Adobe Illustrator 21.0.0, SVG Export Plug-In . SVG Version: 6.00 Build 0)  -->
<svg version="1.1" xmlns="http://www.w3.org/2000/svg" xmlns:xlink="http://www.w3.org/1999/xlink" x="0px" y="0px" width="16px"
	 height="16px" viewBox="0 0 16 16" enable-background="new 0 0 16 16" xml:space="preserve">
<g id="Layer_1">
</g>
<g id="Layer_2">
</g>
<g id="messages">
</g>
<g id="messages_x5F_hover">
</g>
<g id="profile">
</g>
<g id="profile_x5F_hover">
</g>
<g id="view_x5F_hover">
</g>
<g id="view_x5F_feedback">
</g>
<g id="no_x5F_feedback_x5F_to_x5F_view">
</g>
<g id="download_x5F_hover">
</g>
<g id="download">
</g>
<g id="no_x5F_feedback_x5F_download">
</g>
<g id="link_x5F_hover">
</g>
<g id="assignment_x5F_link_copy">
</g>
<g id="Layer_21">
</g>
<g id="home_x5F_hover">
</g>
<g id="home_1_">
</g>
<g id="edit_x5F_profile">
</g>
<g id="preferences">
</g>
<g id="notifications">
</g>
<g id="my_x5F_posts">
</g>
<g id="logout">
</g>
<g id="assignment">
</g>
<g id="coursework">
</g>
<g id="forum">
</g>
<g id="quiz">
</g>
<g id="book">
</g>
<g id="database">
</g>
<g id="wiki">
</g>
<g id="choice">
</g>
<g id="workshop">
</g>
<g id="certificate">
</g>
<g id="scheduler">
</g>
<g id="equella">
</g>
<g id="file">
</g>
<g id="folder">
</g>
<g id="ims_x5F_content_x5F_package">
</g>
<g id="label">
</g>
<g id="lightbox_x5F_gallery">
</g>
<g id="nln_x5F_learning_x5F_object">
</g>
<g id="page">
</g>
<g id="subpage">
</g>
<g id="tab_x5F_display">
</g>
<g id="new_x5F_label">
</g>
<g id="url">
</g>
<g id="_x33_60_x5F_degree_x5F_diagnostics">
</g>
<g id="adobe_x5F_connect">
</g>
<g id="attendance_x5F_register">
</g>
<g id="booking">
</g>
<g id="chat">
</g>
<g id="checklist">
</g>
<g id="external_x5F_tool">
</g>
<g id="face_x5F_to_x5F_face">
</g>
<g id="forumNG">
</g>
<g id="glossary">
</g>
<g id="group_x5F_choice">
</g>
<g id="journal">
</g>
<g id="mediasite_x5F_content">
</g>
<g id="nanogong_x5F_voice">
</g>
<g id="questionnaire">
</g>
<g id="scorm_x5F_package">
</g>
<g id="survey">
</g>
<g id="tutorship">
</g>
<g id="advanced_x5F_forum">
</g>
<g id="subcourse">
</g>
<g id="lesson_1_">
</g>
<g id="adaptive_x5F_quiz">
</g>
<g id="ou_x5F_wiki">
</g>
<g id="support_x5F_tracker">
</g>
<g id="view_x5F_comments">
</g>
<g id="no_x5F_comment">
</g>
<g id="attention">
</g>
<g id="search">
	<g>
		<g>
			<g>
				<path fill="#FFFFFF" d="M9.6414385,2.6388037v2.4765136c0,0.2796855-0.2267303,0.5064149-0.5064154,0.5064149H4.937881
					c-0.5593705,0-1.01283,0.4534597-1.01283,1.0128303v2.7600718c0,0.55937,0.4534595,1.0128298,1.01283,1.0128298h4.1971421
					c0.279685,0,0.5064154,0.2267294,0.5064154,0.5064154v2.4471874c0,0.489872,0.6009569,0.7253532,0.9337645,0.3658905
					l4.6248083-4.995223c0.3823385-0.412961,0.3823385-1.0506482,0-1.4636092l-4.6248007-4.9952154
					C10.2424002,1.9134437,9.6414385,2.1489277,9.6414385,2.6388037z"/>
			</g>
		</g>
		<g opacity="0.3">
			<g>
				<path fill="#545157" d="M9.6414385,2.6388037v2.4765136c0,0.2796855-0.2267303,0.5064149-0.5064154,0.5064149H4.937881
					c-0.5593705,0-1.01283,0.4534597-1.01283,1.0128303v2.7600718c0,0.55937,0.4534595,1.0128298,1.01283,1.0128298h4.1971421
					c0.279685,0,0.5064154,0.2267294,0.5064154,0.5064154v2.4471874c0,0.489872,0.6009569,0.7253532,0.9337645,0.3658905
					l4.6248083-4.995223c0.3823385-0.412961,0.3823385-1.0506482,0-1.4636092l-4.6248007-4.9952154
					C10.2424002,1.9134437,9.6414385,2.1489277,9.6414385,2.6388037z"/>
			</g>
		</g>
		<g>
			<path fill="#545157" d="M2.0673001,6.2841177V3.1009502c0-0.5708692,0.462781-1.0336502,1.0336502-1.0336502h4.2368994
				c0.2854342,0,0.5168247-0.2313904,0.5168247-0.516825V0.516825C7.8546743,0.2313904,7.6232839,0,7.3378496,0H3.1009502
				C1.3883427,0,0,1.3883427,0,3.1009502v9.7980995C0,14.6116571,1.3883427,16,3.1009502,16h4.2368994
				c0.2854342,0,0.5168247-0.23139,0.5168247-0.5168247v-1.0336504c0-0.2854347-0.2313905-0.5168247-0.5168247-0.5168247H3.1009502
				c-0.5708692,0-1.0336502-0.462781-1.0336502-1.0336504v-0.9998436V6.2841177z"/>
		</g>
		<g>
			<path fill="#545157" d="M16,7.9999952c0,0.3892441-0.1404896,0.7784872-0.4219742,1.0821276l-4.6245956,4.9952078
				c-0.2965899,0.3202572-0.7512951,0.4244919-1.1576595,0.2653704C9.3889027,14.1830759,9.12605,13.7978611,9.12605,13.3612833
				v-2.4472485l-4.1881156,0.0090637c-0.8429418,0-1.5282722-0.6853304-1.5282722-1.5282717v-2.760457
				c0-0.8429413,0.6853304-1.5282717,1.5282722-1.5282717h4.1971803L9.12605,2.6387069
				c0-0.4370806,0.2628527-0.8217922,0.6697206-0.9809138c0.4063644-0.1601287,0.8610697-0.0553905,1.1576595,0.2648668
				l4.6245956,4.9952083C15.8595104,7.221508,16,7.6107516,16,7.9999952z M10.1573191,13.3612833l4.6643763-4.9801016
				c0.1989021-0.2145119,0.1978951-0.5493717,0-0.762373l-4.6245956-4.9952083l-0.0397806,0.0151064v2.476455
				c0,0.5634718-0.4587336,1.0222049-1.0222044,1.0222049H4.9379344c-0.273931,0-0.4970031,0.2230725-0.4970031,0.4970031v2.760457
				c0,0.2739305,0.2230721,0.4970026,0.4970031,0.4970026h4.1971803c0.5634708,0,1.0222044,0.4587336,1.0222044,1.0222054
				V13.3612833z"/>
		</g>
	</g>
</g>
<g id="submitted">
</g>
<g id="feedback">
</g>
<g id="dnd_x5F_arrow">
</g>
</svg>
