<?xml version="1.0" encoding="utf-8"?>
<!-- Generator: Adobe Illustrator 21.0.0, SVG Export Plug-In . SVG Version: 6.00 Build 0)  -->
<svg version="1.1" xmlns="http://www.w3.org/2000/svg" xmlns:xlink="http://www.w3.org/1999/xlink" x="0px" y="0px" width="64px"
	 height="64px" viewBox="0 0 64 64" enable-background="new 0 0 64 64" xml:space="preserve">
<g id="Layer_1">
</g>
<g id="Layer_2">
</g>
<g id="messages">
</g>
<g id="messages_x5F_hover">
</g>
<g id="profile">
</g>
<g id="profile_x5F_hover">
</g>
<g id="view_x5F_hover">
</g>
<g id="view_x5F_feedback">
</g>
<g id="no_x5F_feedback_x5F_to_x5F_view">
</g>
<g id="download_x5F_hover">
</g>
<g id="download">
</g>
<g id="no_x5F_feedback_x5F_download">
</g>
<g id="link_x5F_hover">
</g>
<g id="assignment_x5F_link_copy">
</g>
<g id="Layer_21">
</g>
<g id="home_x5F_hover">
</g>
<g id="home_1_">
</g>
<g id="edit_x5F_profile">
</g>
<g id="preferences">
</g>
<g id="notifications">
</g>
<g id="my_x5F_posts">
</g>
<g id="logout">
</g>
<g id="assignment">
</g>
<g id="coursework">
</g>
<g id="forum">
</g>
<g id="quiz">
</g>
<g id="book">
</g>
<g id="database">
</g>
<g id="wiki">
</g>
<g id="choice">
	<g>
		<g>
			<path fill="#FFFFFF" d="M1.3345989,6.8221955L1.3345914,48.3070068
				c-0.0000005,2.7226944,2.2071779,4.9298744,4.9298716,4.9298744h8.8600597c0.7363853,0,1.3333416,0.596962,1.3333378,1.3333473
				l-0.0000553,8.0943108l9.9262447-8.7603607c0.4872265-0.4300003,1.1147022-0.6672897,1.7645397-0.6672897l29.5599174,0.0000038
				c2.7276726,0,4.9594078-2.2317314,4.9594078-4.9594078L62.667923,6.295887
				c0.0000038-2.7276762-2.2317314-4.9594116-4.9594078-4.9594126L6.820334,1.3364625
				C3.8031802,1.3364618,1.3345994,3.8050416,1.3345989,6.8221955z"/>
		</g>
		<g>
			<path fill="#32548C" d="M16.458334,63.997242c-0.1848965,0-0.3723965-0.0390625-0.5494795-0.1184921
				C15.432292,63.6639061,15.125,63.1886482,15.125,62.6639061v-8.09375H6.265625C2.8098958,54.5701561,0,51.7602615,0,48.3071365
				V6.8217692c0-3.7604165,3.0598958-6.8190103,6.8203125-6.8190103h50.8880196C61.1770821,0.0027589,64,2.8256755,64,6.2957277
				v41.9814606c0,3.4700546-2.8229179,6.2929688-6.2916679,6.2929688H28.1484375
				c-0.3255215,0-0.6380215,0.1184921-0.885416,0.3359375l-9.921875,8.7578125
				C17.0911465,63.8826561,16.776041,63.997242,16.458334,63.997242z M6.8203125,2.6694255
				c-2.2890625,0-4.1536455,1.8632813-4.1536455,4.1523438v41.4853668c0,1.9830742,1.6145833,3.5963554,3.5989583,3.5963554H15.125
				c1.4713535,0,2.666666,1.1966133,2.666666,2.6666641v5.1380234L25.5,52.9047928
				c0.734375-0.6458321,1.6744785-1.0013008,2.6484375-1.0013008h29.5598946c2,0,3.625-1.6263046,3.625-3.6263046V6.2957277
				c0-2-1.625-3.6263022-3.625-3.6263022H6.8203125z"/>
		</g>
		<g>
			<g opacity="0.3">
				<path fill="#32548C" d="M22.6919308,12.5441198c0.5762711-0.4846783,1.2059708-0.93501,1.8852844-1.3586264
					c0.6831284-0.4236164,1.4120541-0.7938042,2.1944084-1.1143789c0.7823563-0.3205738,1.6219559-0.5686378,2.5188026-0.7480068
					c0.9006615-0.1793699,1.8738346-0.2709618,2.9195194-0.2709618c1.4692993,0,2.7935791,0.1946344,3.9766502,0.5839033
					c1.1792564,0.3930855,2.1829605,0.9502754,3.0111122,1.6792011c0.8281517,0.7251091,1.4654846,1.6028728,1.9119987,2.625659
					s0.6678658,2.1600618,0.6678658,3.4118299c0,1.1868896-0.1641045,2.2134914-0.4923134,3.083622
					c-0.3282051,0.8663158-0.7441902,1.6219559-1.244133,2.2631054s-1.0494995,1.1945229-1.6524849,1.6639347
					c-0.6029892,0.4694138-1.171627,0.9006634-1.7097321,1.3013802c-0.5419235,0.3969021-1.0113373,0.7938042-1.4082413,1.183073
					c-0.3969002,0.3930855-0.6525955,0.8281517-0.7632713,1.31283l-0.656414,3.282074h-4.9689083l-0.5152092-3.7743855
					c-0.1259403-0.7632713-0.049612-1.4349518,0.2327976-2.0035915c0.2824116-0.5724545,0.6678638-1.0876637,1.1601753-1.5494442
					c0.4923115-0.4579639,1.0456848-0.8968449,1.6524868-1.3128281c0.6106167-0.4121685,1.183073-0.8586826,1.7135487-1.3357277
					c0.5304718-0.477047,0.9808044-1.0075207,1.3471756-1.5952415c0.3663712-0.5839043,0.5533714-1.2861156,0.5533714-2.0990009
					c0-0.935009-0.309124-1.6830158-0.9273758-2.2363892c-0.6182518-0.5571899-1.4654846-0.8319683-2.5455151-0.8319683
					c-0.8281517,0-1.5189133,0.0839605-2.0761032,0.2556973c-0.5533714,0.1717358-1.0304184,0.3625546-1.4273205,0.5762711
					c-0.4007168,0.2098999-0.7480068,0.4007177-1.0456829,0.5724545c-0.2976761,0.1717358-0.5915375,0.2595119-0.8892136,0.2595119
					c-0.6716805,0-1.1716232-0.2900429-1.4998322-0.8701305L22.6919308,12.5441198z"/>
			</g>
			<g opacity="0.3">
				
					<ellipse transform="matrix(0.9023766 -0.4309483 0.4309483 0.9023766 -14.4975538 17.6619396)" fill="#32548C" cx="31.734621" cy="40.8299408" rx="4.9151549" ry="4.9151549"/>
			</g>
			<g>
				<path fill="#32548C" d="M31.7585354,47.0725594c-0.7062225,0-1.4150391-0.1220322-2.1030865-0.3647957
					c-1.5786114-0.5582237-2.8404636-1.690258-3.5544739-3.1870804c-0.7166061-1.4955292-0.8022881-3.189682-0.2440605-4.7682915
					c0.5582256-1.5786133,1.6902561-2.8417625,3.1857834-3.5570717c0.8178673-0.3907585,1.7318001-0.6023636,2.6379452-0.6101532
					c0.0051918,0,0.0103855,0,0.0129814,0c0.7295895,0,1.3215694,0.5867844,1.3293591,1.3176727
					c0.0077896,0.7334824-0.5841904,1.334549-1.3163776,1.3410416c-0.5218754,0.0051918-1.0463486,0.125927-1.5162983,0.3505135
					c-0.8568115,0.4089317-1.5059128,1.1346283-1.8278656,2.0433693c-0.3193588,0.908741-0.2726231,1.8810921,0.1376095,2.7366066
					c0.4076347,0.8581085,1.1346264,1.5059128,2.0433674,1.8265686c0.9061432,0.3232498,1.8823891,0.2726212,2.7392044-0.1350136
					c0.8542137-0.4089317,1.503315-1.1346283,1.8252678-2.0433693c0.3193588-0.9087372,0.272625-1.8810921-0.1376076-2.7366066
					c-0.316761-0.6633797-0.0363503-1.4565811,0.6257324-1.7733421c0.6568909-0.319355,1.4565811-0.0350494,1.7733421,0.6257324
					c0.7166061,1.4968262,0.8022881,3.190979,0.2440605,4.7695923c-0.5582237,1.5786095-1.6902542,2.8417587-3.1857834,3.5570679
					C33.5812073,46.8687401,32.6724663,47.0725594,31.7585354,47.0725594z"/>
			</g>
			<g>
				
					<ellipse transform="matrix(0.9023766 -0.4309483 0.4309483 0.9023766 -14.4975538 17.6619396)" fill="#32548C" cx="31.734621" cy="40.8299408" rx="1.5782608" ry="1.5782608"/>
			</g>
			<g>
				<path fill="#32548C" d="M16.9720287,46.0911179c-0.7451687,0-1.4513893-0.1363106-2.0978937-0.4063339
					c-0.6413107-0.2648354-1.2099228-0.6465073-1.6902571-1.1320343c-0.4595633-0.4569664-0.8412342-1.0268745-1.1190491-1.6863594
					c-0.275219-0.6646805-0.4128275-1.3657074-0.4128275-2.0952988c0-0.7282906,0.1376085-1.4267235,0.4102316-2.0745239
					c0.2830076-0.6594849,0.6620817-1.2229042,1.1294346-1.6876602c0.4699488-0.4751434,1.0333672-0.8568115,1.669486-1.1307335
					c1.2566576-0.5504379,2.8949881-0.5673141,4.2061701,0.0025978c0.6153469,0.2674294,1.1761703,0.6439056,1.6642933,1.1164513
					c0.4881229,0.48423,0.8723907,1.0502434,1.1450138,1.692852c0.2726212,0.6503983,0.4102306,1.3488312,0.4102306,2.0810165
					c0,0.7334862-0.1350117,1.4358101-0.4050388,2.0849113c-0.2752171,0.6594849-0.6594849,1.2319908-1.1450119,1.7084312
					c-0.4933167,0.482933-1.0619297,0.8581123-1.690258,1.1203499
					C18.3948555,45.9548073,17.6990204,46.0911179,16.9720287,46.0911179z M16.9720287,38.114975
					c-0.3972511,0-0.7425709,0.0662079-1.0541401,0.2025185c-0.3323393,0.1441002-0.6075583,0.3284454-0.846427,0.5686111
					c-0.233676,0.2336769-0.4154243,0.5101929-0.5634193,0.8516197c-0.1298199,0.3128662-0.1973257,0.6555901-0.1973257,1.0333672
					c0,0.3842697,0.0675058,0.7334862,0.2051153,1.0671234c0.1428022,0.3349342,0.3245506,0.6114502,0.550437,0.8360405
					c0.2414656,0.2440605,0.5088949,0.423214,0.8282518,0.5556297c0.6413107,0.2661324,1.4617739,0.276516,2.1316462,0
					c0.3193569-0.1324158,0.5971718-0.318058,0.8516197-0.5634193c0.2258873-0.2232895,0.4128284-0.5050011,0.5504379-0.8334465
					c0.1324158-0.3245506,0.1999226-0.6737633,0.1999226-1.0619278c0-0.3829689-0.0649109-0.7243958-0.1999226-1.0463486
					c-0.1376095-0.3206558-0.3193588-0.5945778-0.5582275-0.8295517c-0.2492542-0.2427635-0.5348587-0.4335976-0.8620052-0.5751038
					C17.6886349,38.1811829,17.3511028,38.114975,16.9720287,38.114975z"/>
			</g>
			<g>
				<path fill="#32548C" d="M47.033165,46.0911179c-0.742569,0-1.4487915-0.1363106-2.095295-0.4063339
					c-0.633522-0.2609406-1.204731-0.6413116-1.690258-1.1281395c-0.4621582-0.4608612-0.8438301-1.0307693-1.1216469-1.6902542
					c-0.275219-0.6594887-0.4102287-1.3618126-0.4102287-2.0952988c0-0.7321854,0.1376076-1.4306183,0.4076347-2.0745239
					c0.2830048-0.6594849,0.6620827-1.2229042,1.1294327-1.6876602c0.4777374-0.4803352,1.0411568-0.8607063,1.6720848-1.1307335
					c1.2592545-0.5504379,2.8923912-0.5673141,4.2035713,0.0025978c0.6153488,0.2674294,1.1761703,0.6439056,1.6642952,1.1164513
					c0.4959106,0.4894218,0.8775826,1.058033,1.1476097,1.6980476c0.2726212,0.6490974,0.4102287,1.3475304,0.4102287,2.0758209
					c0,0.7295914-0.1376076,1.4306183-0.4076347,2.0849113c-0.2700233,0.6516953-0.6542931,1.226799-1.1450119,1.7084312
					c-0.4933167,0.482933-1.0619278,0.8581123-1.690258,1.1203499
					C48.4559937,45.9548073,47.7601585,46.0911179,47.033165,46.0911179z M47.033165,38.114975
					c-0.3946533,0-0.739975,0.0662079-1.0515442,0.2025185c-0.3323364,0.1428032-0.6075554,0.3284454-0.8516197,0.572506
					c-0.2310791,0.2297821-0.4128265,0.5062981-0.5608215,0.8477249c-0.129818,0.3089714-0.1947289,0.6503983-0.1947289,1.0333672
					c0,0.3881645,0.0675049,0.7373772,0.2025185,1.0671234c0.1428032,0.3349342,0.3245506,0.6114502,0.5504379,0.8360405
					c0.2414627,0.2440605,0.5114899,0.424511,0.8282509,0.5543327c0.6491013,0.2726212,1.4591789,0.2817078,2.1316452,0.001297
					c0.3193588-0.1324158,0.5971718-0.318058,0.8516197-0.5634193c0.2284851-0.2258873,0.4154243-0.5062981,0.5478401-0.8282509
					c0.1376114-0.3336372,0.2051163-0.6828537,0.2051163-1.0671234c0-0.3777771-0.0675049-0.7205009-0.2025185-1.0463486
					c-0.1324158-0.315464-0.3219528-0.5945778-0.5582275-0.8295517c-0.2492523-0.2427635-0.5348587-0.4335976-0.8620033-0.5751038
					C47.7497711,38.1811829,47.4122391,38.114975,47.033165,38.114975z"/>
			</g>
			<g>
				<path fill="#32548C" d="M33.8512344,32.7715797h-4.9695129c-0.6646786,0-1.2280979-0.4907188-1.3163757-1.1502056
					l-0.5140877-3.7738705c-0.168766-1.0022106-0.0519276-1.9473019,0.3557072-2.7703609
					c0.3505154-0.7114143,0.8360424-1.3592167,1.4410038-1.9291267c0.5452442-0.5075951,1.1502056-0.9879303,1.8148842-1.4423008
					c0.5660152-0.3829689,1.0878925-0.7919025,1.5786133-1.2293949c0.4335976-0.3933563,0.8074799-0.8347435,1.100872-1.3072891
					c0.2388687-0.3751793,0.3557091-0.8438301,0.3557091-1.3968639c0-0.7269917-0.2778168-1.058033-0.485527-1.2436752
					c-0.7140121-0.6452065-2.4639854-0.5660162-3.3441658-0.2985878c-0.4595642,0.1428032-0.8568134,0.2985878-1.1865559,0.4764404
					c-0.3998451,0.2090111-0.7295895,0.3894596-1.0125961,0.5530338c-1.6097698,0.9243183-3.3883038,0.3453217-4.2113647-1.1086636
					l-1.8797932-2.8807077c-0.3660927-0.5634193-0.2544479-1.311183,0.2596397-1.7434835
					c0.6231365-0.5231752,1.3007965-1.0100002,2.0355778-1.4695635c0.7425709-0.4595633,1.5474567-0.8684959,2.3938828-1.2151155
					c0.8542156-0.3505144,1.7837276-0.6257334,2.7625713-0.8217611c2.4172497-0.4803348,5.3511848-0.3777766,7.571106,0.3531103
					c1.352726,0.4504757,2.5185089,1.1034708,3.4739876,1.9434071c0.9710541,0.8503208,1.7292023,1.8914785,2.2536736,3.0923138
					c0.5166855,1.183959,0.778923,2.5107203,0.778923,3.9439335c0,1.3436375-0.1947327,2.5392818-0.5789986,3.5544739
					c-0.3738823,0.9879303-0.8568115,1.8668137-1.4410019,2.6106815c-0.5686111,0.7282906-1.2021332,1.3657074-1.8823929,1.8940754
					c-0.612751,0.4764404-1.186554,0.9126358-1.7318001,1.3189716c-0.4959106,0.3621979-0.9165268,0.717905-1.2722359,1.0658226
					c-0.1012611,0.1025581-0.1869392,0.2051163-0.2544479,0.3141651c-0.3842659,0.6244354-1.204731,0.8165684-1.8278656,0.4310036
					c-0.6257324-0.3868637-0.8178673-1.2060299-0.4310036-1.8304634c0.1765556-0.2856045,0.3946533-0.5582275,0.6516991-0.8100777
					c0.4413872-0.4335995,0.9554749-0.8723907,1.5552444-1.309885c0.5192795-0.3881607,1.0826988-0.8139706,1.6798706-1.2787266
					c0.5062981-0.3933563,0.9840355-0.8762856,1.4202309-1.4319172c0.4154243-0.5335598,0.7685356-1.1774673,1.0463486-1.9135475
					c0.2700272-0.7153072,0.4076385-1.5941906,0.4076385-2.6145763c0-1.0658226-0.1869431-2.0342798-0.5556297-2.8794088
					c-0.3660927-0.8399363-0.8957596-1.5669279-1.5708237-2.1589079c-0.6984329-0.614049-1.5344734-1.0762081-2.557457-1.416337
					c-1.7811317-0.5906811-4.2529049-0.6607838-6.2157841-0.2713242c-0.8126755,0.1622753-1.5786133,0.3894606-2.2744484,0.675065
					c-0.7114143,0.2907963-1.3838825,0.6322231-1.9966335,1.0125961c-0.2778149,0.1726608-0.5426483,0.3505144-0.8022881,0.5322628
					l1.2540627,1.925231c0.1298199,0.2245893,0.1817474,0.2661314,0.3842678,0.2661314
					c0.5374546-0.2609386,0.9009514-0.4621592,1.3241634-0.6815557c0.4465809-0.2401667,0.9996147-0.466054,1.6435223-0.6659765
					c0.6880474-0.2129049,1.4955273-0.3154631,2.4717751-0.3154631c1.417635,0,2.5730343,0.3959513,3.4350376,1.1748714
					c0.8931618,0.7957973,1.3683052,1.9122496,1.3683052,3.2221346c0,1.0632267-0.2570457,2.008316-0.760746,2.8093071
					c-0.4206161,0.676363-0.9554749,1.3085861-1.5786133,1.8720055c-0.5789948,0.5192795-1.1995354,1.0035095-1.859024,1.4500904
					c-0.5452423,0.3725834-1.0463486,0.7698326-1.4955254,1.185257c-0.3712864,0.3518124-0.6594868,0.7347813-0.8723907,1.1657848
					c-0.1531887,0.3115673-0.1921349,0.7140102-0.1116447,1.1956425l0.3634949,2.6626091h3.8089218
					c0.7347832,0,1.3293571,0.5945759,1.3293571,1.3293571S34.5860176,32.7715797,33.8512344,32.7715797z"/>
			</g>
		</g>
	</g>
</g>
<g id="workshop">
</g>
<g id="certificate">
</g>
<g id="scheduler">
</g>
<g id="equella">
</g>
<g id="file">
</g>
<g id="folder">
</g>
<g id="ims_x5F_content_x5F_package">
</g>
<g id="label">
</g>
<g id="lightbox_x5F_gallery">
</g>
<g id="nln_x5F_learning_x5F_object">
</g>
<g id="page">
</g>
<g id="subpage">
</g>
<g id="tab_x5F_display">
</g>
<g id="new_x5F_label">
</g>
<g id="url">
</g>
<g id="_x33_60_x5F_degree_x5F_diagnostics">
</g>
<g id="adobe_x5F_connect">
</g>
<g id="attendance_x5F_register">
</g>
<g id="booking">
</g>
<g id="chat">
</g>
<g id="checklist">
</g>
<g id="external_x5F_tool">
</g>
<g id="face_x5F_to_x5F_face">
</g>
<g id="forumNG">
</g>
<g id="glossary">
</g>
<g id="group_x5F_choice">
</g>
<g id="journal">
</g>
<g id="mediasite_x5F_content">
</g>
<g id="nanogong_x5F_voice">
</g>
<g id="questionnaire">
</g>
<g id="scorm_x5F_package">
</g>
<g id="survey">
</g>
<g id="tutorship">
</g>
<g id="advanced_x5F_forum">
</g>
<g id="subcourse">
</g>
<g id="lesson_1_">
</g>
<g id="adaptive_x5F_quiz">
</g>
<g id="ou_x5F_wiki">
</g>
<g id="support_x5F_tracker">
</g>
<g id="view_x5F_comments">
</g>
<g id="no_x5F_comment">
</g>
<g id="attention">
</g>
<g id="search">
</g>
<g id="submitted">
</g>
<g id="feedback">
</g>
<g id="dnd_x5F_arrow">
</g>
</svg>
