<?xml version="1.0" encoding="utf-8"?>
<!-- Generator: Adobe Illustrator 21.0.0, SVG Export Plug-In . SVG Version: 6.00 Build 0)  -->
<svg version="1.1" xmlns="http://www.w3.org/2000/svg" xmlns:xlink="http://www.w3.org/1999/xlink" x="0px" y="0px" width="64px"
	 height="64px" viewBox="0 0 64 64" enable-background="new 0 0 64 64" xml:space="preserve">
<g id="Layer_1">
</g>
<g id="Layer_2">
</g>
<g id="messages">
</g>
<g id="messages_x5F_hover">
</g>
<g id="profile">
</g>
<g id="profile_x5F_hover">
</g>
<g id="view_x5F_hover">
</g>
<g id="view_x5F_feedback">
</g>
<g id="no_x5F_feedback_x5F_to_x5F_view">
</g>
<g id="download_x5F_hover">
</g>
<g id="download">
</g>
<g id="no_x5F_feedback_x5F_download">
</g>
<g id="link_x5F_hover">
</g>
<g id="assignment_x5F_link_copy">
</g>
<g id="Layer_21">
</g>
<g id="home_x5F_hover">
</g>
<g id="home_1_">
</g>
<g id="edit_x5F_profile">
</g>
<g id="preferences">
</g>
<g id="notifications">
</g>
<g id="my_x5F_posts">
</g>
<g id="logout">
</g>
<g id="assignment">
</g>
<g id="coursework">
</g>
<g id="forum">
</g>
<g id="quiz">
</g>
<g id="book">
</g>
<g id="database">
</g>
<g id="wiki">
</g>
<g id="choice">
</g>
<g id="workshop">
</g>
<g id="certificate">
</g>
<g id="scheduler">
</g>
<g id="equella">
</g>
<g id="file">
</g>
<g id="folder">
</g>
<g id="ims_x5F_content_x5F_package">
</g>
<g id="label">
</g>
<g id="lightbox_x5F_gallery">
</g>
<g id="nln_x5F_learning_x5F_object">
</g>
<g id="page">
</g>
<g id="subpage">
</g>
<g id="tab_x5F_display">
</g>
<g id="new_x5F_label">
</g>
<g id="url">
</g>
<g id="_x33_60_x5F_degree_x5F_diagnostics">
</g>
<g id="adobe_x5F_connect">
</g>
<g id="attendance_x5F_register">
</g>
<g id="booking">
	<g>
		<g>
			<path fill="#FFFFFF" d="M56.7563477,7.1980796h-7.6160469h-0.000164H20.1796875H7.2436523H7.2434897
				c-0.4111328,0-0.8028975,0.083333-1.1591797,0.2340493C5.7280273,7.5826821,5.407064,7.8007813,5.1376953,8.0703125
				c-0.5390625,0.5388994-0.872396,1.2835283-0.872396,2.105957v10.8243809h0.0001631v38.6883163
				c0,1.6448555,1.333333,2.9783516,2.9781899,2.9783516h49.5126953c1.6448555,0,2.9781914-1.3334961,2.9781914-2.9783516
				V21.0006504V10.1762695C59.734539,8.5314131,58.4012032,7.1980796,56.7563477,7.1980796z M20.1801758,16.2659512
				c-1.9874668,0-3.5986328-1.611166-3.5986328-3.5986338s1.611166-3.5986328,3.5986328-3.5986328
				s3.5986328,1.611166,3.5986328,3.5986328S22.1676426,16.2659512,20.1801758,16.2659512z M43.8180351,16.2659512
				c-1.9876328,0-3.5987968-1.611166-3.5987968-3.5986338s1.6111641-3.5986328,3.5987968-3.5986328
				c1.9874649,0,3.5986328,1.611166,3.5986328,3.5986328S45.8055,16.2659512,43.8180351,16.2659512z"/>
		</g>
		<g opacity="0.3">
			<path fill="#32548C" d="M32.8009834,44.2548714c-3.545929,0-6.4204636-2.8745308-6.4204636-6.4205742
				c0-3.5459328,2.8745346-6.420578,6.4204636-6.420578c3.5460434,0,6.420578,2.8746452,6.420578,6.420578
				C39.2215614,41.3803406,36.3470268,44.2548714,32.8009834,44.2548714z"/>
		</g>
		<g>
			<path fill="#32548C" d="M56.755188,5.8645763h-7.614563c-0.7369995,0-1.333313,0.5963745-1.333313,1.333313
				c0,0.7369995,0.5963135,1.333374,1.333313,1.333374h7.614563c0.90625,0,1.645874,0.7382813,1.645874,1.6445313v9.4908447
				H5.598938v-9.4908447c0-0.90625,0.739624-1.6445313,1.645874-1.6445313h10.267334
				c-1.3587646,0.8792114-2.2647705,2.4005127-2.2647705,4.135376c0,2.7200928,2.213562,4.932312,4.932312,4.932312
				s4.932312-2.2122192,4.932312-4.932312c0-0.5767822-0.098999-1.1445313-0.296875-1.6848755
				c-0.25-0.6940308-1.015625-1.046875-1.708374-0.7994995c-0.692688,0.2513428-1.0494385,1.0169678-0.796875,1.708374
				c0.088562,0.2486572,0.135437,0.510376,0.135437,0.776001c0,1.2279053-1.036438,2.265625-2.265625,2.265625
				s-2.265625-1.0377197-2.265625-2.265625c0-0.732605,0.3735352-1.3914795,0.932312-1.8083496v1.8083496
				c0,0.7369995,0.5963135,1.333374,1.333313,1.333374s1.333313-0.5963745,1.333313-1.333374V1.3333263
				c0-0.7369995-0.5963135-1.333313-1.333313-1.333313s-1.333313,0.5963135-1.333313,1.333313v4.53125H7.244812
				c-2.3776245,0-4.3125,1.9335938-4.3125,4.3112183v49.5142822c0,2.3776245,1.9348755,4.3099365,4.3125,4.3099365h49.510376
				c2.3776245,0,4.3125-1.932312,4.3125-4.3099365V10.1757946C61.067688,7.7981701,59.1328125,5.8645763,56.755188,5.8645763z
				 M56.755188,61.3333282H7.244812c-0.90625,0-1.645874-0.7369995-1.645874-1.6432495V22.3333263h52.802124v37.3567505
				C58.401062,60.5963287,57.661438,61.3333282,56.755188,61.3333282z"/>
			<path fill="#32548C" d="M25.5026245,8.5312634H41.152771c-1.3587646,0.8792114-2.2647705,2.4005127-2.2647705,4.135376
				c0,2.7200928,2.213562,4.932312,4.932312,4.932312s4.932312-2.2122192,4.932312-4.932312
				c0-0.572876-0.1015625-1.1392822-0.2994995-1.6848755c-0.25-0.6940308-1.0130005-1.046875-1.708313-0.7994995
				c-0.692749,0.2513428-1.0494995,1.0169678-0.796875,1.708374c0.0911255,0.2539063,0.1380005,0.515625,0.1380005,0.776001
				c0,1.2279053-1.036438,2.265625-2.265625,2.265625s-2.265625-1.0377197-2.265625-2.265625
				c0-0.732605,0.3735352-1.3914795,0.932312-1.8083496v1.8083496c0,0.7369995,0.5963135,1.333374,1.333313,1.333374
				s1.333313-0.5963745,1.333313-1.333374V1.3333263c0-0.7369995-0.5963135-1.333313-1.333313-1.333313
				s-1.333313,0.5963135-1.333313,1.333313v4.53125h-16.984375c-0.7369995,0-1.333374,0.5963745-1.333374,1.333313
				C24.1692505,7.9348888,24.765625,8.5312634,25.5026245,8.5312634z"/>
			<path fill="#32548C" d="M43.8723755,33.9375153c-0.7109375,0.1875-1.135376,0.916626-0.947876,1.630188
				c0.208313,0.7838745,0.3125,1.5963745,0.3125,2.411438c0,4.630249-5.1588745,12.963562-10.1484375,18.348999
				c-0.177124,0.1953125-0.3880615,0.2056885-0.5755615-0.0026245c-4.989563-5.385437-10.1484375-13.71875-10.1484375-18.3463745
				c0-3.7161255,2.1875-7.1900654,6.0026245-9.5325336c2.651062-1.6237183,6.2161255-1.6276245,8.8671875-0.0012817
				c0.7949219,0.489563,1.5228271,1.0367432,2.1819458,1.6275635l-1.475769,1.9543476
				c-1.9417114-1.7347431-4.6566772-2.4265156-7.2426147-1.7043476c-1.9818115,0.5546875-3.6354465,1.8568134-4.65625,3.6693134
				c-1.0182495,1.8125-1.2734375,3.9036255-0.71875,5.8880005c0.5546875,1.9817505,1.8567505,3.635437,3.6692505,4.65625
				c1.1848755,0.666687,2.489563,1.005188,3.8046875,1.005188c0.6953125,0,1.3932495-0.09375,2.078125-0.286438
				c2.65625-0.739563,4.734375-2.8619995,5.4244995-5.536438c0.182251-0.713562-0.2474365-1.4401245-0.958374-1.625
				c-0.71875-0.1875-1.4400635,0.244751-1.625,0.958313c-0.4505005,1.7578125-1.8150635,3.151062-3.557251,3.635437
				c-1.302124,0.3619385-2.6693115,0.1953125-3.859375-0.4765625c-1.1901245-0.6693115-2.046875-1.7526245-2.4088745-3.0494995
				c-0.364563-1.2994995-0.1953125-2.6692505,0.4765625-3.8619995c0.6692505-1.1900635,1.7526245-2.046875,3.0494995-2.4088135
				c1.7753906-0.4990845,3.6362915,0.015686,4.9172363,1.2640991l-2.7818604,3.6837769L31,35.9322662
				c-0.588562-0.4400635-1.427063-0.3203125-1.864563,0.270874c-0.4401245,0.588501-0.3203125,1.4244385,0.270813,1.864563
				l2.5546875,1.9088745c0.473938,0.354126,1.0338745,0.5234375,1.5859375,0.5234375
				c0.8098755,0,1.6119995-0.364624,2.135437-1.0546875l3.3711548-4.4642334
				c0.0615234-0.0714722,0.1221924-0.1392822,0.1664429-0.2203979l5.1368408-6.8023701
				c0.442749-0.5872192,0.3255615-1.4231567-0.260376-1.8671875c-0.588562-0.442688-1.4244995-0.3294067-1.869812,0.260437
				l-1.201355,1.5908813c-0.7330933-0.6403809-1.5296631-1.2362061-2.3950195-1.7692871
				c-3.489563-2.1393433-8.1692505-2.135437-11.6588135,0c-4.6224365,2.8398438-7.2734375,7.1419086-7.2734375,11.8059711
				c0,6.1901245,6.4921875,15.447937,10.8567505,20.15625c0.567688,0.6171875,1.385437,0.96875,2.244812,0.96875
				c0.8619385,0,1.6796875-0.3515625,2.2473755-0.9661255c4.364563-4.708313,10.8567505-13.963562,10.8567505-20.1588745
				c0-1.0442505-0.135376-2.0859375-0.401001-3.09375C45.3151245,34.1770782,44.59375,33.7395782,43.8723755,33.9375153z"/>
		</g>
		<g opacity="0.3">
			<path fill="#32548C" d="M56.7564049,7.1980438h-7.6162109H20.1797447H7.2435479
				c-1.6446943,0-2.9781904,1.333333-2.9781904,2.9781904v10.8243818h55.4692383V10.1762342
				C59.7345963,8.5313768,58.4012642,7.1980438,56.7564049,7.1980438z M20.180233,16.2659149
				c-1.9874668,0-3.5986328-1.611165-3.5986328-3.5986328s1.611166-3.5986328,3.5986328-3.5986328
				s3.5986328,1.611165,3.5986328,3.5986328S22.1677017,16.2659149,20.180233,16.2659149z M43.8180923,16.2659149
				c-1.9876289,0-3.5987968-1.611165-3.5987968-3.5986328s1.6111679-3.5986328,3.5987968-3.5986328
				c1.9874687,0,3.5986328,1.611165,3.5986328,3.5986328S45.8055611,16.2659149,43.8180923,16.2659149z"/>
		</g>
	</g>
</g>
<g id="chat">
</g>
<g id="checklist">
</g>
<g id="external_x5F_tool">
</g>
<g id="face_x5F_to_x5F_face">
</g>
<g id="forumNG">
</g>
<g id="glossary">
</g>
<g id="group_x5F_choice">
</g>
<g id="journal">
</g>
<g id="mediasite_x5F_content">
</g>
<g id="nanogong_x5F_voice">
</g>
<g id="questionnaire">
</g>
<g id="scorm_x5F_package">
</g>
<g id="survey">
</g>
<g id="tutorship">
</g>
<g id="advanced_x5F_forum">
</g>
<g id="subcourse">
</g>
<g id="lesson_1_">
</g>
<g id="adaptive_x5F_quiz">
</g>
<g id="ou_x5F_wiki">
</g>
<g id="support_x5F_tracker">
</g>
<g id="view_x5F_comments">
</g>
<g id="no_x5F_comment">
</g>
<g id="attention">
</g>
<g id="search">
</g>
<g id="submitted">
</g>
<g id="feedback">
</g>
<g id="dnd_x5F_arrow">
</g>
</svg>
