<?xml version="1.0" encoding="utf-8"?>
<!-- Generator: Adobe Illustrator 21.0.0, SVG Export Plug-In . SVG Version: 6.00 Build 0)  -->
<svg version="1.1" xmlns="http://www.w3.org/2000/svg" xmlns:xlink="http://www.w3.org/1999/xlink" x="0px" y="0px" width="64px"
	 height="64px" viewBox="0 0 64 64" enable-background="new 0 0 64 64" xml:space="preserve">
<g id="Layer_1">
</g>
<g id="Layer_2">
</g>
<g id="messages">
</g>
<g id="messages_x5F_hover">
</g>
<g id="profile">
</g>
<g id="profile_x5F_hover">
</g>
<g id="view_x5F_hover">
</g>
<g id="view_x5F_feedback">
</g>
<g id="no_x5F_feedback_x5F_to_x5F_view">
</g>
<g id="download_x5F_hover">
</g>
<g id="download">
</g>
<g id="no_x5F_feedback_x5F_download">
</g>
<g id="link_x5F_hover">
</g>
<g id="assignment_x5F_link_copy">
</g>
<g id="Layer_21">
</g>
<g id="home_x5F_hover">
</g>
<g id="home_1_">
</g>
<g id="edit_x5F_profile">
</g>
<g id="preferences">
</g>
<g id="notifications">
</g>
<g id="my_x5F_posts">
</g>
<g id="logout">
</g>
<g id="assignment">
</g>
<g id="coursework">
</g>
<g id="forum">
</g>
<g id="quiz">
</g>
<g id="book">
</g>
<g id="database">
</g>
<g id="wiki">
</g>
<g id="choice">
</g>
<g id="workshop">
</g>
<g id="certificate">
</g>
<g id="scheduler">
</g>
<g id="equella">
</g>
<g id="file">
</g>
<g id="folder">
</g>
<g id="ims_x5F_content_x5F_package">
</g>
<g id="label">
</g>
<g id="lightbox_x5F_gallery">
	<g>
		<g>
			<path fill="#FFFFFF" d="M60.0009766,1.3492877H19.1776218c-1.4722977,0-2.6660156,1.1935558-2.6660156,2.6660149v12.481163
				H3.9990389c-1.4722965,0-2.6660151,1.193718-2.6660151,2.6660137v34.5369682v6.2863884
				c0,1.4724579,1.1937187,2.6660156,2.6660151,2.6660156h40.8233566c1.4722977,0,2.6660156-1.1935577,2.6660156-2.6660156
				V47.504673h12.5125656c1.4722977,0,2.6660156-1.193718,2.6660156-2.6660156V4.0153027
				C62.6669922,2.5428436,61.4732742,1.3492877,60.0009766,1.3492877z"/>
		</g>
		<g opacity="0.3">
			<g>
				<circle fill="#32548C" cx="26.9774113" cy="12.3512611" r="3.9573662"/>
			</g>
		</g>
		<g opacity="0.3">
			<g>
				<path fill="#32548C" d="M1.3329829,47.3686829l9.0559616-7.499691c1.092802-0.9050026,2.7029734-0.7955132,3.6632061,0.2490921
					l2.1155415,2.7675705c1.0230579,1.1129494,2.7658424,1.1534729,3.8395252,0.0892792l14.8349419-14.7038059
					c1.1622467-1.1519718,3.078373-0.9946823,4.0372047,0.3314056l8.609005,11.9344883V53.70047H1.3329829V47.3686829z"/>
			</g>
		</g>
		<g opacity="0.3">
			<g>
				<circle fill="#0C1E59" cx="11.798768" cy="27.498539" r="3.9573662"/>
			</g>
		</g>
		<g opacity="0.3">
			<g>
				<path fill="#32548C" d="M54.0580406,13.455266c-0.9589157-1.3261728-2.8749504-1.4833612-4.037262-0.3314619
					l-3.8353271,3.8014793c0.765274,0.4686356,1.302906,1.2742653,1.302906,2.2372475v19.390604h15.1785812V25.3896866
					L54.0580406,13.455266z"/>
			</g>
		</g>
		<g>
			<path fill="#32548C" d="M60.0009766,0.0156062H19.1776123c-2.2052002,0-3.9990234,1.7938843-3.9990234,3.9990237v7.9238887
				c0,0.7367554,0.5961914,1.3330078,1.3330078,1.3330078s1.3330078-0.5962524,1.3330078-1.3330078V4.0146298
				c0-0.7354739,0.5987549-1.3330081,1.3330078-1.3330081h40.8233643c0.7341309,0,1.3330078,0.5975342,1.3330078,1.3330081
				v40.8233643c0,0.7355347-0.598877,1.3330078-1.3330078,1.3330078h-7.7949219
				c-0.7368164,0-1.3330078,0.5962524-1.3330078,1.3330078c0,0.7368164,0.5961914,1.3330078,1.3330078,1.3330078h7.7949219
				C62.2061768,48.8370171,64,47.0431938,64,44.8379936V4.0146298C64,1.8094904,62.2061768,0.0156062,60.0009766,0.0156062z"/>
			<path fill="#32548C" d="M57.4729004,39.8860893c0.7368164,0,1.3330078-0.5961914,1.3330078-1.3330078
				s-0.5961914-1.3330078-1.3330078-1.3330078h-8.6514893V19.1619682c0-0.8425293-0.2648926-1.6225586-0.7115479-2.2678833
				l2.8516846-2.8233032c0.2785645-0.2759399,0.6352539-0.4191895,1.0465088-0.3814087
				c0.3931885,0.03125,0.7368164,0.2265015,0.9685059,0.5454102l4.7723389,6.6129761
				c0.260376,0.3619385,0.6690674,0.5532837,1.0804443,0.5532837c0.270752,0,0.5441895-0.0820313,0.7811279-0.2525635
				c0.5961914-0.4309082,0.7315674-1.2640381,0.2994385-1.8602295l-4.7723389-6.6142578
				c-0.6846924-0.9476929-1.7469482-1.5465088-2.9133301-1.6428223c-1.1715088-0.0911255-2.3145752,0.3215332-3.1398926,1.1455688
				l-3.1832275,3.15271c-0.345459-0.0975952-0.7025146-0.1665039-1.0787354-0.1665039H31.4414063
				c0.5163574-0.8165894,0.8267822-1.7763062,0.8267822-2.8117676c0-0.7368164-0.5963135-1.3330078-1.3330078-1.3330078
				c-0.7368164,0-1.3330078,0.5961914-1.3330078,1.3330078c0,1.4475708-1.1768799,2.6243286-2.6243896,2.6243286
				s-2.6242676-1.1767578-2.6242676-2.6243286s1.1767578-2.6243896,2.6242676-2.6243896
				c0.4555664,0,0.9034424,0.119751,1.2991943,0.3449707c0.6326904,0.3632202,1.4500732,0.1445313,1.8172607-0.4959717
				c0.3670654-0.6378784,0.145752-1.4527588-0.4946289-1.818542c-0.7967529-0.4556274-1.7027588-0.6964722-2.6218262-0.6964722
				c-2.9160156,0-5.2902832,2.3731074-5.2902832,5.2904048c0,1.0354614,0.3103027,1.9951782,0.8266602,2.8117676H3.9990234
				C1.7938232,15.1629448,0,16.9568291,0,19.1619682v40.8233643c0,2.2052002,1.7938232,3.9990234,3.9990234,3.9990234h40.8233643
				c2.2052002,0,3.9990234-1.7938232,3.9990234-3.9990234V39.8860893H57.4729004z M46.1553955,59.9853325
				c0,0.7355347-0.5987549,1.3330078-1.3330078,1.3330078H3.9990234c-0.7341309,0-1.3330078-0.5974731-1.3330078-1.3330078
				v-4.9519043h39.628418c0.7368164,0,1.3330078-0.5961914,1.3330078-1.3330078s-0.5961914-1.3330078-1.3330078-1.3330078H2.6660156
				v-4.3706665l8.5708008-7.1004639c0.5571289-0.4556274,1.3538818-0.395752,1.7548828,0.03125l2.1947021,2.8599243
				c0.7420654,0.8071289,1.7547607,1.2653198,2.8482666,1.2913818c1.1872559,0.0247192,2.1296387-0.3853149,2.9107666-1.1572876
				L35.782959,29.2181206c0.28125-0.2772827,0.6274414-0.4243774,1.0466309-0.3814087
				c0.3930664,0.03125,0.7368164,0.2265015,0.9685059,0.5454102l4.7722168,6.6129761
				c0.4321289,0.6001587,1.2626953,0.7277222,1.8615723,0.3007202c0.5961914-0.4309082,0.7315674-1.2639771,0.2993164-1.8602295
				l-4.7722168-6.6142578c-0.6846924-0.9476929-1.7469482-1.5465088-2.9133301-1.6428223
				c-1.1638184-0.0950317-2.3120117,0.3215332-3.1398926,1.1468506L19.0708008,42.0275078
				c-0.2576904,0.2577515-0.5831299,0.4035645-0.9710693,0.3865967c-0.3670654-0.0090942-0.7030029-0.161377-0.8721924-0.3384399
				l-2.1948242-2.8587036c-1.4396973-1.5698853-3.8505859-1.7339478-5.4959717-0.3748779l-6.8707275,5.6903687V19.1619682
				c0-0.7354736,0.598877-1.3330078,1.3330078-1.3330078h40.8233643c0.7342529,0,1.3330078,0.5975342,1.3330078,1.3330078
				V59.9853325z"/>
			<path fill="#32548C" d="M15.7565918,26.1655083c-0.7368164,0-1.3330078,0.5961914-1.3330078,1.3330078
				c0,1.4475708-1.1767578,2.6243286-2.6243896,2.6243286s-2.6243896-1.1767578-2.6243896-2.6243286
				s1.1767578-2.6243896,2.6243896-2.6243896c0.4556885,0,0.9034424,0.119751,1.2991943,0.3449707
				c0.630127,0.3605957,1.4527588,0.145813,1.8172607-0.4959717c0.3670654-0.6378784,0.145874-1.4527588-0.494751-1.8185425
				c-0.7966309-0.4556274-1.7026367-0.6964722-2.6217041-0.6964722c-2.9158936,0-5.2904053,2.3731079-5.2904053,5.2904053
				c0,2.9172363,2.3745117,5.2903442,5.2904053,5.2903442s5.2904053-2.3731079,5.2904053-5.2903442
				C17.0895996,26.7616997,16.4934082,26.1655083,15.7565918,26.1655083z"/>
		</g>
	</g>
</g>
<g id="nln_x5F_learning_x5F_object">
</g>
<g id="page">
</g>
<g id="subpage">
</g>
<g id="tab_x5F_display">
</g>
<g id="new_x5F_label">
</g>
<g id="url">
</g>
<g id="_x33_60_x5F_degree_x5F_diagnostics">
</g>
<g id="adobe_x5F_connect">
</g>
<g id="attendance_x5F_register">
</g>
<g id="booking">
</g>
<g id="chat">
</g>
<g id="checklist">
</g>
<g id="external_x5F_tool">
</g>
<g id="face_x5F_to_x5F_face">
</g>
<g id="forumNG">
</g>
<g id="glossary">
</g>
<g id="group_x5F_choice">
</g>
<g id="journal">
</g>
<g id="mediasite_x5F_content">
</g>
<g id="nanogong_x5F_voice">
</g>
<g id="questionnaire">
</g>
<g id="scorm_x5F_package">
</g>
<g id="survey">
</g>
<g id="tutorship">
</g>
<g id="advanced_x5F_forum">
</g>
<g id="subcourse">
</g>
<g id="lesson_1_">
</g>
<g id="adaptive_x5F_quiz">
</g>
<g id="ou_x5F_wiki">
</g>
<g id="support_x5F_tracker">
</g>
<g id="view_x5F_comments">
</g>
<g id="no_x5F_comment">
</g>
<g id="attention">
</g>
<g id="search">
</g>
<g id="submitted">
</g>
<g id="feedback">
</g>
<g id="dnd_x5F_arrow">
</g>
</svg>
