<?xml version="1.0" encoding="utf-8"?>
<!-- Generator: Adobe Illustrator 21.0.0, SVG Export Plug-In . SVG Version: 6.00 Build 0)  -->
<svg version="1.1" xmlns="http://www.w3.org/2000/svg" xmlns:xlink="http://www.w3.org/1999/xlink" x="0px" y="0px" width="64px"
	 height="64px" viewBox="0 0 64 64" enable-background="new 0 0 64 64" xml:space="preserve">
<g id="Layer_1">
</g>
<g id="Layer_2">
</g>
<g id="messages">
</g>
<g id="messages_x5F_hover">
</g>
<g id="profile">
</g>
<g id="profile_x5F_hover">
</g>
<g id="view_x5F_hover">
</g>
<g id="view_x5F_feedback">
</g>
<g id="no_x5F_feedback_x5F_to_x5F_view">
</g>
<g id="download_x5F_hover">
</g>
<g id="download">
</g>
<g id="no_x5F_feedback_x5F_download">
</g>
<g id="link_x5F_hover">
</g>
<g id="assignment_x5F_link_copy">
</g>
<g id="Layer_21">
</g>
<g id="home_x5F_hover">
</g>
<g id="home_1_">
</g>
<g id="edit_x5F_profile">
</g>
<g id="preferences">
</g>
<g id="notifications">
</g>
<g id="my_x5F_posts">
</g>
<g id="logout">
</g>
<g id="assignment">
</g>
<g id="coursework">
</g>
<g id="forum">
</g>
<g id="quiz">
</g>
<g id="book">
</g>
<g id="database">
</g>
<g id="wiki">
</g>
<g id="choice">
</g>
<g id="workshop">
</g>
<g id="certificate">
</g>
<g id="scheduler">
</g>
<g id="equella">
</g>
<g id="file">
</g>
<g id="folder">
</g>
<g id="ims_x5F_content_x5F_package">
</g>
<g id="label">
</g>
<g id="lightbox_x5F_gallery">
</g>
<g id="nln_x5F_learning_x5F_object">
</g>
<g id="page">
</g>
<g id="subpage">
</g>
<g id="tab_x5F_display">
</g>
<g id="new_x5F_label">
</g>
<g id="url">
</g>
<g id="_x33_60_x5F_degree_x5F_diagnostics">
</g>
<g id="adobe_x5F_connect">
</g>
<g id="attendance_x5F_register">
</g>
<g id="booking">
</g>
<g id="chat">
</g>
<g id="checklist">
</g>
<g id="external_x5F_tool">
</g>
<g id="face_x5F_to_x5F_face">
</g>
<g id="forumNG">
</g>
<g id="glossary">
</g>
<g id="group_x5F_choice">
</g>
<g id="journal">
</g>
<g id="mediasite_x5F_content">
</g>
<g id="nanogong_x5F_voice">
</g>
<g id="questionnaire">
</g>
<g id="scorm_x5F_package">
</g>
<g id="survey">
</g>
<g id="tutorship">
</g>
<g id="advanced_x5F_forum">
</g>
<g id="subcourse">
</g>
<g id="lesson_1_">
</g>
<g id="adaptive_x5F_quiz">
</g>
<g id="ou_x5F_wiki">
</g>
<g id="support_x5F_tracker">
</g>
<g id="view_x5F_comments">
	<g>
		<g opacity="0.3">
			<path fill="#FFFFFF" d="M62.6657715,30.7485352c0-13.845377-13.7298164-25.0693359-30.6665039-25.0693359
				c-16.9368477,0-30.6668301,11.223959-30.6668301,25.0693359c0,13.8455391,13.7299805,25.0695,30.6668301,25.0695
				c5.7511406,0,11.1131172-1.3181992,15.7127266-3.5698242l9.6246758,6.0738907l-2.1458321-11.2021484l3.902668-4.6502266
				C61.3705254,38.9736328,62.6657715,34.9871407,62.6657715,30.7485352z"/>
		</g>
		<g>
			<g>
				<path fill="#FFFFFF" d="M43.7760429,26.3613281H20.2213535c-0.7369785,0-1.3333321-0.5963535-1.3333321-1.333334
					c0-0.7369785,0.5963535-1.3333321,1.3333321-1.3333321h23.5546894c0.7369766,0,1.3333321,0.5963535,1.3333321,1.3333321
					C45.109375,25.7649746,44.5130196,26.3613281,43.7760429,26.3613281z"/>
			</g>
			<g>
				<path fill="#FFFFFF" d="M43.7760429,37.8027344H20.2213535c-0.7369785,0-1.3333321-0.5963554-1.3333321-1.3333321
					c0-0.7369804,0.5963535-1.3333359,1.3333321-1.3333359h23.5546894c0.7369766,0,1.3333321,0.5963554,1.3333321,1.3333359
					C45.109375,37.2063789,44.5130196,37.8027344,43.7760429,37.8027344z"/>
			</g>
		</g>
		<g>
			<path fill="#FFFFFF" d="M57.3359375,59.6542969c-0.2473946,0-0.4947929-0.0677071-0.7109375-0.2057304l-9.0052071-5.6796875
				C42.8359375,55.9824219,37.453125,57.1516914,32,57.1516914c-17.6458321,0-32-11.84375-32-26.4036446
				C0,16.1894531,14.354167,4.3457031,32,4.3457031s32,11.84375,32,26.4023438
				c0,4.3385429-1.3098946,8.6432304-3.7890625,12.4479179c-0.4010429,0.6197891-1.2291679,0.7916641-1.84375,0.390625
				c-0.6171875-0.4010429-0.7916679-1.2265625-0.390625-1.84375c2.2265625-3.421875,3.3567696-7.1197929,3.3567696-10.9947929
				c0-13.088541-13.1588516-23.7356777-29.3333321-23.7356777S2.6666667,17.6595058,2.6666667,30.7480469
				S15.8255205,54.4850273,32,54.4850273c5.3072929,0,10.5364571-1.1875,15.125-3.4348984
				c0.4114571-0.203125,0.90625-0.1770821,1.296875,0.0703125l7.0260429,4.4322929l-1.5677109-8.1822929
				c-0.1380196-0.7213516,0.3359375-1.421875,1.0598984-1.5598946C55.640625,45.6777344,56.359375,46.1438789,56.5,46.8704414
				l2.1458321,11.2005234c0.0989609,0.5208321-0.1197891,1.0520821-0.5572891,1.3515625
				C57.8619804,59.5761719,57.5989571,59.6542969,57.3359375,59.6542969z"/>
		</g>
	</g>
</g>
<g id="no_x5F_comment">
</g>
<g id="attention">
</g>
<g id="search">
</g>
<g id="submitted">
</g>
<g id="feedback">
</g>
<g id="dnd_x5F_arrow">
</g>
</svg>
