<?xml version="1.0" encoding="utf-8"?>
<!-- Generator: Adobe Illustrator 21.0.0, SVG Export Plug-In . SVG Version: 6.00 Build 0)  -->
<svg version="1.1" xmlns="http://www.w3.org/2000/svg" xmlns:xlink="http://www.w3.org/1999/xlink" x="0px" y="0px" width="64px"
	 height="64px" viewBox="0 0 64 64" enable-background="new 0 0 64 64" xml:space="preserve">
<g id="Layer_1">
</g>
<g id="Layer_2">
</g>
<g id="messages">
</g>
<g id="messages_x5F_hover">
</g>
<g id="profile">
</g>
<g id="profile_x5F_hover">
</g>
<g id="view_x5F_hover">
</g>
<g id="view_x5F_feedback">
</g>
<g id="no_x5F_feedback_x5F_to_x5F_view">
</g>
<g id="download_x5F_hover">
</g>
<g id="download">
</g>
<g id="no_x5F_feedback_x5F_download">
</g>
<g id="link_x5F_hover">
</g>
<g id="assignment_x5F_link_copy">
</g>
<g id="Layer_21">
</g>
<g id="home_x5F_hover">
</g>
<g id="home_1_">
</g>
<g id="edit_x5F_profile">
</g>
<g id="preferences">
</g>
<g id="notifications">
</g>
<g id="my_x5F_posts">
</g>
<g id="logout">
</g>
<g id="assignment">
</g>
<g id="coursework">
</g>
<g id="forum">
</g>
<g id="quiz">
</g>
<g id="book">
</g>
<g id="database">
</g>
<g id="wiki">
</g>
<g id="choice">
</g>
<g id="workshop">
</g>
<g id="certificate">
</g>
<g id="scheduler">
</g>
<g id="equella">
</g>
<g id="file">
</g>
<g id="folder">
</g>
<g id="ims_x5F_content_x5F_package">
</g>
<g id="label">
</g>
<g id="lightbox_x5F_gallery">
</g>
<g id="nln_x5F_learning_x5F_object">
</g>
<g id="page">
</g>
<g id="subpage">
</g>
<g id="tab_x5F_display">
</g>
<g id="new_x5F_label">
</g>
<g id="url">
</g>
<g id="_x33_60_x5F_degree_x5F_diagnostics">
</g>
<g id="adobe_x5F_connect">
</g>
<g id="attendance_x5F_register">
</g>
<g id="booking">
</g>
<g id="chat">
</g>
<g id="checklist">
</g>
<g id="external_x5F_tool">
</g>
<g id="face_x5F_to_x5F_face">
</g>
<g id="forumNG">
</g>
<g id="glossary">
</g>
<g id="group_x5F_choice">
</g>
<g id="journal">
</g>
<g id="mediasite_x5F_content">
</g>
<g id="nanogong_x5F_voice">
</g>
<g id="questionnaire">
</g>
<g id="scorm_x5F_package">
</g>
<g id="survey">
</g>
<g id="tutorship">
</g>
<g id="advanced_x5F_forum">
</g>
<g id="subcourse">
</g>
<g id="lesson_1_">
</g>
<g id="adaptive_x5F_quiz">
</g>
<g id="ou_x5F_wiki">
</g>
<g id="support_x5F_tracker">
</g>
<g id="view_x5F_comments">
</g>
<g id="no_x5F_comment">
</g>
<g id="attention">
</g>
<g id="search">
</g>
<g id="submitted">
</g>
<g id="feedback">
	<g>
		<g>
			<path fill="#FFFFFF" d="M56.8948555,12.5107422l-28.9910469-0.0249023
				c-1.6160488-0.0014648-2.925293-1.3120117-2.925293-2.9280596V9.3011065c0-1.7583003-1.4254551-3.1837564-3.1837559-3.1837564
				H9.3138018c-1.7669268,0-3.1958003,1.4388022-3.1837564,3.2055669l0.0639648,8.1082354H4.2124023
				c-1.5904949,0-2.8798828,1.2893887-2.8798828,2.8800449v34.6861954c0,1.5935898,1.2918293,2.8854179,2.8854165,2.8854179
				h50.7867813c1.5935898,0,2.8854179-1.2918282,2.8854179-2.8854179v-2.1354141
				c2.7107735-0.4733086,4.7757149-2.8242188,4.7757149-5.6705742V18.2815762
				C62.6658516,15.0944014,60.0820313,12.5107422,56.8948555,12.5107422z"/>
		</g>
		<g opacity="0.3">
			<g>
				<path fill="#32548C" d="M27.4216404,24.7774582H11.2407398c-1.4235096,0-2.5774927,1.1539822-2.5774927,2.5774918v2.235302
					c0,1.4235096,1.1539831,2.5774918,2.5774927,2.5774918h16.1809006c1.4235096,0,2.5774918-1.1539822,2.5774918-2.5774918
					V27.35495C29.9991322,25.9314404,28.84515,24.7774582,27.4216404,24.7774582z"/>
			</g>
		</g>
		<g opacity="0.3">
			<g>
				<path fill="#32548C" d="M62.6657982,18.281538V47.191433c0,2.8463364-2.0649223,5.1972694-4.7756538,5.6704826V20.3165226
					c0-1.5935822-1.2918549-2.8854351-2.885437-2.8854351H6.1939459L6.1301203,9.3229313
					C6.1180282,7.5561213,7.5469432,6.1173935,9.3137941,6.1173935h12.4809179c1.758337,0,3.1837502,1.4254127,3.1837502,3.1837482
					v0.2566147c0,1.6160955,1.3092976,2.9266262,2.9253922,2.9281464l28.9910736,0.024765
					C60.0820465,12.5106678,62.6657982,15.0944214,62.6657982,18.281538z"/>
			</g>
		</g>
		<g>
			<g>
				<path fill="#32548C" d="M27.421875,33.5013008H11.239583c-2.15625,0-3.908854-1.7552071-3.908854-3.9114571v-2.234375
					c0-2.15625,1.752604-3.911459,3.908854-3.911459h15.369792c0.7369785,0,1.333334,0.5963554,1.333334,1.333334
					s-0.5963554,1.333334-1.333334,1.333334H11.239583c-0.6848955,0-1.2421875,0.5585938-1.2421875,1.244791v2.234375
					c0,0.6861973,0.557292,1.244791,1.2421875,1.244791H27.421875c0.6875,0,1.244791-0.5585938,1.244791-1.244791v-1.5182285
					c0-0.7369804,0.5963554-1.333334,1.333334-1.333334s1.333334,0.5963535,1.333334,1.333334v1.5182285
					C31.333334,31.7460938,29.578125,33.5013008,27.421875,33.5013008z"/>
			</g>
		</g>
		<g>
			<path fill="#32548C" d="M25.447916,39.7682304H10.546875c-0.7369795,0-1.333333-0.5963554-1.333333-1.3333359
				c0-0.7369766,0.5963535-1.3333321,1.333333-1.3333321h14.901041c0.7369804,0,1.333334,0.5963554,1.333334,1.3333321
				C26.78125,39.171875,26.1848965,39.7682304,25.447916,39.7682304z"/>
		</g>
		<g>
			<path fill="#32548C" d="M55.0052071,59.2161446H4.21875c-2.325521,0-4.21875-1.8919258-4.21875-4.21875V20.3111973
				c0-2.322916,1.890625-4.213541,4.2135415-4.213541h50.7916641c2.3255234,0,4.21875,1.8919277,4.21875,4.21875v34.6809883
				C59.2239571,57.3242188,57.3307304,59.2161446,55.0052071,59.2161446z M4.2135415,18.7643223
				c-0.8541665,0-1.5468748,0.6940117-1.5468748,1.546875v34.6861954c0,0.8554688,0.6953125,1.5520859,1.5520833,1.5520859
				h50.7864571c0.8567734,0,1.5520859-0.6966171,1.5520859-1.5520859V20.3164063c0-0.8554688-0.6953125-1.552084-1.5520859-1.552084
				H4.2135415z"/>
		</g>
		<g>
			<path fill="#32548C" d="M62.6666679,49.3138008c-0.7369804,0-1.3333359-0.5963516-1.3333359-1.3333321V18.28125
				c0-2.4466143-1.9895821-4.4375-4.4375153-4.4375H27.859375c-0.104166,0-0.203125-0.0117188-0.2994785-0.0338545
				c-2.1848965-0.1549473-3.9140797-1.9804688-3.9140797-4.203125v-0.609375c0-0.8528643-0.6926918-1.5468745-1.5468578-1.5468745
				H8.9869795c-0.8515625,0-1.544271,0.6940103-1.544271,1.5468745v3.5143232c0,0.7369795-0.5963545,1.333333-1.3333335,1.333333
				s-1.3333335-0.5963535-1.3333335-1.333333V8.9973955c0-2.3229165,1.888021-4.2135415,4.210938-4.2135415H22.098959
				c2.322916,0,4.213541,1.890625,4.213541,4.2135415v0.609375c0,0.8528652,0.692709,1.546875,1.546875,1.546875
				c0.0859375,0,0.1692715,0.0078125,0.25,0.0234375h28.7864418C60.8125,11.177083,64,14.364583,64,18.28125v29.6992188
				C64,48.7174492,63.4036446,49.3138008,62.6666679,49.3138008z"/>
		</g>
	</g>
</g>
<g id="dnd_x5F_arrow">
</g>
</svg>
