<?xml version="1.0" encoding="utf-8"?>
<!-- Generator: Adobe Illustrator 21.0.0, SVG Export Plug-In . SVG Version: 6.00 Build 0)  -->
<svg version="1.1" xmlns="http://www.w3.org/2000/svg" xmlns:xlink="http://www.w3.org/1999/xlink" x="0px" y="0px" width="64px"
	 height="64px" viewBox="0 0 64 64" enable-background="new 0 0 64 64" xml:space="preserve">
<g id="Layer_1">
</g>
<g id="Layer_2">
</g>
<g id="messages">
</g>
<g id="messages_x5F_hover">
</g>
<g id="profile">
</g>
<g id="profile_x5F_hover">
</g>
<g id="view_x5F_hover">
</g>
<g id="view_x5F_feedback">
</g>
<g id="no_x5F_feedback_x5F_to_x5F_view">
</g>
<g id="download_x5F_hover">
</g>
<g id="download">
</g>
<g id="no_x5F_feedback_x5F_download">
</g>
<g id="link_x5F_hover">
</g>
<g id="assignment_x5F_link_copy">
</g>
<g id="Layer_21">
</g>
<g id="home_x5F_hover">
</g>
<g id="home_1_">
</g>
<g id="edit_x5F_profile">
</g>
<g id="preferences">
</g>
<g id="notifications">
</g>
<g id="my_x5F_posts">
</g>
<g id="logout">
</g>
<g id="assignment">
</g>
<g id="coursework">
</g>
<g id="forum">
</g>
<g id="quiz">
</g>
<g id="book">
</g>
<g id="database">
</g>
<g id="wiki">
</g>
<g id="choice">
</g>
<g id="workshop">
</g>
<g id="certificate">
</g>
<g id="scheduler">
</g>
<g id="equella">
</g>
<g id="file">
</g>
<g id="folder">
</g>
<g id="ims_x5F_content_x5F_package">
</g>
<g id="label">
</g>
<g id="lightbox_x5F_gallery">
</g>
<g id="nln_x5F_learning_x5F_object">
</g>
<g id="page">
</g>
<g id="subpage">
</g>
<g id="tab_x5F_display">
</g>
<g id="new_x5F_label">
</g>
<g id="url">
</g>
<g id="_x33_60_x5F_degree_x5F_diagnostics">
</g>
<g id="adobe_x5F_connect">
</g>
<g id="attendance_x5F_register">
</g>
<g id="booking">
</g>
<g id="chat">
</g>
<g id="checklist">
</g>
<g id="external_x5F_tool">
</g>
<g id="face_x5F_to_x5F_face">
	<g>
		<g>
			<path fill="#FFFFFF" d="M60.3945427,13.9256954c-0.2145119-0.0502911-0.4300003-0.0672178-0.6436958-0.053546l-0.68927-5.201498
				c-1.5935364-4.8099079-5.7376137-7.3360333-10.5987892-7.3360333c-6.2392273,0-11.2971725,4.1614909-11.2971725,11.9722824
				c0,0.1878195,0.0029297,0.3762903,0.0092773,0.5652494c-0.2136993-0.0136719-0.4291878,0.0032549-0.6436996,0.053546
				c-1.6511536,0.3873577-2.6169434,2.6031094-2.1568336,4.9490643c0.4599457,2.3459549,2.1714821,3.9337959,3.8227997,3.5466003
				c0.3144417-0.0737267,0.6039848-0.2138596,0.8635788-0.4085159l0.0017891,0.003582
				c2.0258179,4.6082535,5.4798088,8.2009144,9.4002609,8.2009144c3.9214249,0,7.3762321-3.59445,9.401886-8.2043324
				l0.000164-0.000164c0.259594,0.1946564,0.5492973,0.3347893,0.8637428,0.4085159
				c1.6511497,0.3871956,3.3626862-1.2006454,3.8227959-3.5466003
				C63.011322,16.5288048,62.0456963,14.3130531,60.3945427,13.9256954z"/>
			<path fill="#FFFFFF" d="M27.4693031,46.3745499c-0.2143497-0.0504532-0.4298382-0.067379-0.6435356-0.0537071
				l-0.6892681-5.2014999c-1.5937004-4.809906-5.7376137-7.3360329-10.5987892-7.3360329
				c-6.2392254,0-11.2971725,4.1614914-11.2971725,11.9722824c0,0.1878204,0.0029297,0.3764534,0.0091143,0.5652504
				c-0.2135348-0.0136719-0.429023,0.0032539-0.6435347,0.0537071c-1.6513155,0.3871956-2.6169429,2.6029472-2.1568334,4.9489021
				c0.4599465,2.3461189,2.1714816,3.93396,3.8227971,3.5466003c0.3144431-0.0737267,0.6039848-0.2138596,0.8635798-0.4085159
				l0.00179,0.003582c2.025816,4.6082535,5.4798098,8.2009163,9.40026,8.2009163c3.9214268,0,7.3762341-3.5944519,9.401886-8.204174
				l0.000164-0.0003242c0.259594,0.1946564,0.5492992,0.3347893,0.8637409,0.4085159
				c1.6511536,0.3873596,3.3626881-1.2004814,3.8227978-3.5466003
				C30.0862465,48.9774971,29.1206188,46.7617455,27.4693031,46.3745499z"/>
		</g>
		<g opacity="0.3">
			<path fill="#32548C" d="M60.3945427,13.9256954c-0.2145119-0.0502911-0.4300003-0.0672178-0.6436958-0.053546l-0.68927-5.201498
				c-1.5935364-4.8099079-5.7376137-7.3360333-10.5987892-7.3360333c-6.2392273,0-11.2971725,4.1614909-11.2971725,11.9722824
				c0,0.1878195,0.0029297,0.3762903,0.0092773,0.5652494c-0.2136993-0.0136719-0.4291878,0.0032549-0.6436996,0.053546
				c-1.6511536,0.3873577-2.6169434,2.6031094-2.1568336,4.9490643c0.4599457,2.3459549,2.1714821,3.9337959,3.8227997,3.5466003
				c0.3144417-0.0737267,0.6039848-0.2138596,0.8635788-0.4085159l0.0017891,0.003582
				c2.0258179,4.6082535,5.4798088,8.2009144,9.4002609,8.2009144c3.9214249,0,7.3762321-3.59445,9.401886-8.2043324
				l0.000164-0.000164c0.259594,0.1946564,0.5492973,0.3347893,0.8637428,0.4085159
				c1.6511497,0.3871956,3.3626862-1.2006454,3.8227959-3.5466003
				C63.011322,16.5288048,62.0456963,14.3130531,60.3945427,13.9256954z"/>
			<path fill="#32548C" d="M27.4693031,46.3745499c-0.2143497-0.0504532-0.4298382-0.067379-0.6435356-0.0537071
				l-0.6892681-5.2014999c-1.5937004-4.809906-5.7376137-7.3360329-10.5987892-7.3360329
				c-6.2392254,0-11.2971725,4.1614914-11.2971725,11.9722824c0,0.1878204,0.0029297,0.3764534,0.0091143,0.5652504
				c-0.2135348-0.0136719-0.429023,0.0032539-0.6435347,0.0537071c-1.6513155,0.3871956-2.6169429,2.6029472-2.1568334,4.9489021
				c0.4599465,2.3461189,2.1714816,3.93396,3.8227971,3.5466003c0.3144431-0.0737267,0.6039848-0.2138596,0.8635798-0.4085159
				l0.00179,0.003582c2.025816,4.6082535,5.4798098,8.2009163,9.40026,8.2009163c3.9214268,0,7.3762341-3.5944519,9.401886-8.204174
				l0.000164-0.0003242c0.259594,0.1946564,0.5492992,0.3347893,0.8637409,0.4085159
				c1.6511536,0.3873596,3.3626881-1.2004814,3.8227978-3.5466003
				C30.0862465,48.9774971,29.1206188,46.7617455,27.4693031,46.3745499z"/>
		</g>
		<g>
			<path fill="#32548C" d="M60.7016602,12.6295118c-0.3385315-0.0820284-0.6874771-0.1171837-1.0312157-0.0885382
				c-0.7343521,0.0442686-1.1666298,0.6874781-1.1223602,1.4231319c0.0442696,0.7330503,0.8359108,1.317667,1.5416183,1.2603779
				c0.8202858,0.1927023,1.4895363,1.6848431,1.1536102,3.3957272c-0.1979103,1.0090828-0.7187309,1.8918667-1.3567314,2.304615
				c-0.299469,0.1940041-0.5885201,0.2656174-0.8567429,0.1979103c-0.1249962-0.0299473-0.2473869-0.0885391-0.361969-0.1744728
				c-0.3255081-0.2447853-0.7395592-0.3281155-1.1405869-0.2252541c-0.393219,0.1028614-0.7187271,0.3814983-0.8827858,0.7538834
				c-2.0077515,4.5688667-5.1430702,7.40732-8.1820374,7.40732s-6.1716805-2.8384533-8.1794319-7.40732
				c-0.1640549-0.3710823-0.4869614-0.6484184-0.8801804-0.7525806c-0.3880081-0.1002579-0.8124733-0.020834-1.1379852,0.2200451
				c-0.1197853,0.0898399-0.2421799,0.1484318-0.3723831,0.1783791c-0.268219,0.0638008-0.5520668-0.0039063-0.8515358-0.1966076
				c-0.6380005-0.4114456-1.1588173-1.2968349-1.359333-2.3072205c-0.3359261-1.7095814,0.3333244-3.2017221,1.4114151-3.4165592
				c0.3880081,0.0286446,0.7395592-0.1132784,1.007782-0.3723841c0.268219-0.2604094,0.4166527-0.6210747,0.4062347-0.9947615
				l-0.0078125-0.5286293c0-6.4633389,3.9113388-10.6389894,9.9632301-10.6389894
				c4.5128822,0,7.999752,2.4009664,9.3330421,6.4216738c0.2317657,0.6978951,0.9843445,1.0728836,1.684845,0.8463278
				c0.6978951-0.2317638,1.0780907-0.9856462,0.8463249-1.6848431c-1.7108841-5.1652031-6.1456375-8.2497416-11.864212-8.2497416
				c-7.3747673,0-12.3850288,5.094893-12.6219978,12.7404861c-2.1405602,0.7603931-3.3488541,3.4712467-2.7733536,6.3904247
				c0.3437386,1.7499466,1.2655869,3.2199516,2.5285683,4.0350304c0.8749733,0.5650864,1.8645248,0.7695084,2.8072052,0.5742016
				c2.4921074,4.9152107,6.1873055,7.8096504,10.0595779,7.8096504s7.570076-2.8944397,10.0621872-7.8096504
				c0.9244499,0.1914005,1.9322319-0.0091152,2.8098068-0.5755024c1.2629814-0.8163815,2.1822243-2.2863884,2.5233574-4.0337296
				C64.4645615,16.0421658,63.0765877,13.1854839,60.7016602,12.6295118z"/>
			<path fill="#32548C" d="M27.7756081,45.0777168c-0.341135-0.0807266-0.6926861-0.1093712-1.0390301-0.0872383
				c-0.7343521,0.0494766-1.1666298,0.6952896-1.1171532,1.4309464c0.046875,0.7317467,0.8228912,1.312458,1.5442238,1.2512627
				c0.8202858,0.1913986,1.4895363,1.6848412,1.1562138,3.3944244c-0.2005157,1.0103836-0.7187271,1.8957748-1.359333,2.3072205
				c-0.3020744,0.1953049-0.5859184,0.2630119-0.8515358,0.1979103c-0.1302032-0.0299492-0.2499924-0.0885391-0.3697796-0.1770782
				c-0.3229065-0.2434807-0.7421646-0.330719-1.1379852-0.2226486c-0.3932171,0.1028595-0.7187271,0.3801956-0.8827858,0.7525787
				c-2.0077496,4.5688667-5.1404629,7.4073219-8.179431,7.4073219c-3.0363636,0-6.1742859-2.8384552-8.1820354-7.4073219
				c-0.1640573-0.3723831-0.4895678-0.6497192-0.8827848-0.7538834c-0.3958211-0.1028595-0.8150787-0.0195274-1.1379852,0.2239532
				c-0.1197877,0.0885391-0.2395759,0.1471291-0.3697801,0.1770782C4.700809,53.6373444,4.41436,53.5696373,4.1148901,53.3743324
				c-0.640605-0.4114456-1.158818-1.2968369-1.3567286-2.3059196c-0.335927-1.7108841,0.333323-3.203022,1.4036021-3.4165573
				c0.3932166,0.0182266,0.7499766-0.1119766,1.0181971-0.3762932c0.2734289-0.2643127,0.4192576-0.6314888,0.4036331-1.0090828
				l-0.010416-0.5103989c0-6.4633408,3.9113355-10.6389923,9.9658337-10.6389923
				c4.5128794,0,7.9997492,2.4009666,9.3330412,6.4216766c0.2291603,0.6965904,0.981741,1.0754852,1.6848431,0.8463287
				c0.6978951-0.2317657,1.0780907-0.9856491,0.8463287-1.684845c-1.7108841-5.1652031-6.1456413-8.2497406-11.864213-8.2497406
				c-7.3747692,0-12.3876333,5.0948906-12.6246052,12.7404861c-2.137954,0.7603912-3.3436456,3.4712448-2.7733507,6.389122
				c0.3411351,1.748642,1.2629814,3.2186508,2.5259626,4.0350304c0.8749726,0.5637856,1.8697331,0.77211,2.812412,0.5741997
				c2.4921098,4.9165154,6.1873069,7.8096542,10.0595818,7.8096542c3.8696699,0,7.5674715-2.8931389,10.0595808-7.8096542
				c0.9478874,0.1979103,1.937439-0.0104141,2.8098087-0.5741997c1.2629814-0.8163795,2.1848278-2.2863884,2.5285664-4.0363312
				C31.5385113,48.4890671,30.1505337,45.6323853,27.7756081,45.0777168z"/>
			<path fill="#32548C" d="M14.5963326,29.3789883c0.2499924,0.2499924,0.5885239,0.3906136,0.9426794,0.3906136
				s0.692687-0.1406212,0.9426794-0.3906136l4.7107887-4.7133942c0.5208187-0.5208168,0.5208187-1.3645401,0-1.8853569
				c-0.5208168-0.5208187-1.3645401-0.5208187-1.8853569,0l-2.4348202,2.4364471v-6.7735519
				c0-0.7356548,0.5989399-1.333292,1.333292-1.333292h8.0179787c0.7369556,0,1.333292-0.5963345,1.333292-1.3332911
				s-0.5963364-1.333292-1.333292-1.333292H18.205595c-2.2056599,0-3.9998751,1.7942152-3.9998751,3.9998751v6.7745285
				l-2.4374237-2.4374237c-0.5208168-0.5208187-1.3645401-0.5208187-1.8853579,0
				c-0.5208168,0.5208168-0.5208168,1.3645401,0,1.8853569L14.5963326,29.3789883z"/>
			<path fill="#32548C" d="M49.4051399,34.3736229c-0.5208168-0.5208168-1.3645401-0.5208168-1.8853569,0l-4.7133942,4.7133942
				c-0.5208168,0.5208168-0.5208168,1.3645401,0,1.8853569s1.3645401,0.5208168,1.8853569,0l2.4374237-2.4374237v6.7745285
				c0,0.7356529-0.598938,1.3332939-1.3332901,1.3332939h-8.0179787c-0.7369576,0-1.3332939,0.5963326-1.3332939,1.3332901
				s0.5963364,1.3332901,1.3332939,1.3332901h8.0179787c2.205658,0,3.9998741-1.7942123,3.9998741-3.9998741v-6.7745285
				l2.4374237,2.4374237c0.2604065,0.2604103,0.6015434,0.3906136,0.9426765,0.3906136
				c0.3411369,0,0.6822701-0.1302032,0.9426804-0.3906136c0.5208168-0.5208168,0.5208168-1.3645401,0-1.8853569
				L49.4051399,34.3736229z"/>
		</g>
	</g>
</g>
<g id="forumNG">
</g>
<g id="glossary">
</g>
<g id="group_x5F_choice">
</g>
<g id="journal">
</g>
<g id="mediasite_x5F_content">
</g>
<g id="nanogong_x5F_voice">
</g>
<g id="questionnaire">
</g>
<g id="scorm_x5F_package">
</g>
<g id="survey">
</g>
<g id="tutorship">
</g>
<g id="advanced_x5F_forum">
</g>
<g id="subcourse">
</g>
<g id="lesson_1_">
</g>
<g id="adaptive_x5F_quiz">
</g>
<g id="ou_x5F_wiki">
</g>
<g id="support_x5F_tracker">
</g>
<g id="view_x5F_comments">
</g>
<g id="no_x5F_comment">
</g>
<g id="attention">
</g>
<g id="search">
</g>
<g id="submitted">
</g>
<g id="feedback">
</g>
<g id="T_x5F_I_x5F_N">
</g>
</svg>
