<?xml version="1.0" encoding="utf-8"?>
<!-- Generator: Adobe Illustrator 20.1.0, SVG Export Plug-In . SVG Version: 6.00 Build 0)  -->
<svg version="1.1" id="Layer_1" xmlns="http://www.w3.org/2000/svg" xmlns:xlink="http://www.w3.org/1999/xlink" x="0px" y="0px"
	 viewBox="0 0 390.4 116" style="enable-background:new 0 0 390.4 116;" xml:space="preserve">
<style type="text/css">
	.st0{fill:#FFFFFF;}
</style>
<g>
	<path class="st0" d="M95.2,3.2c-2.4,0-4.9,1.7-4.9,5.2v99c0,3.6,2.4,5.2,4.9,5.2c2.4,0,4.9-1.6,4.9-5.2v-99
		C100.1,4.9,97.7,3.2,95.2,3.2z"/>
	<path class="st0" d="M148.2,35.3c-21.3,0-38.8,17.4-38.8,38.8c0,21.3,17.6,38.7,38.8,38.7c21.3,0,38.8-17.4,38.8-38.7
		C187,52.7,169.5,35.3,148.2,35.3z M148.2,103.2c-16,0-29.1-13.1-29.1-29.1S132.2,45,148.2,45c16,0,29.1,13.1,29.1,29.1
		S164.1,103.2,148.2,103.2z"/>
	<path class="st0" d="M357.5,36c-9.2,0-18,4.6-23.2,12.2c-5.2-7.6-13.8-12.2-23.2-12.2c-15.4,0-28.1,12.5-28.1,28.1v43.3
		c0,3.6,2.4,5.2,4.9,5.2c2.4,0,4.9-1.6,4.9-5.2V64c0-10.1,8.2-18.4,18.3-18.4c10.1,0,18.3,8.3,18.3,18.4v43.3c0,3.6,2.4,5.2,4.9,5.2
		c2.4,0,4.9-1.6,4.9-5.2V64c0-10.1,8.3-18.4,18.3-18.4c10.1,0,18.4,8.3,18.4,18.4v43.3c0,3.6,2.4,5.2,4.9,5.2c2.4,0,4.9-1.6,4.9-5.2
		V64C385.7,48.5,373,36,357.5,36z"/>
	<path class="st0" d="M235.1,35.3c-21.3,0-38.8,17.4-38.8,38.8c0,21.3,17.6,38.7,38.8,38.7c21.3,0,38.8-17.4,38.8-38.7
		C273.9,52.7,256.4,35.3,235.1,35.3z M235.1,103.2c-16,0-29.1-13.1-29.1-29.1S219.1,45,235.1,45c16,0,29.1,13.1,29.1,29.1
		S251,103.2,235.1,103.2z"/>
	<path class="st0" d="M42.9,36c-11.2,0-21.4,4.9-28.3,12.7V8.4c0-3.5-2.4-5.2-4.9-5.2c-2.4,0-4.9,1.7-4.9,5.2V69v5.1v0.3
		c0,3.5,2.4,5.2,4.9,5.2c2.4,0,4.9-1.7,4.9-5.2v-0.3c0-15.7,12.8-28.5,28.3-28.5c15.7,0,28.5,12.8,28.5,28.5s-12.8,28.5-28.5,28.5
		c-6.7,0-13.1-1.5-17.8-5.2c-5.2-4-5.1-10.6-0.1-14.7c10.8,2.3,20.3,6.7,26.4-9.9c1.9-5.3,3.8-16,11.2-15.8
		c-26.1-9.2-41.5-3.5-39.7,23.3c0,0,0,0.1,0,0.1c-3.2,2.3-9.3,7.2-9.3,13.3c0,3.9,2.6,7,5.4,9.5c6.6,5.8,14.3,9,24,9
		c21.2,0,38.3-17.1,38.3-38.1S64,36,42.9,36z M50.2,59.6c-8.7,2.4-8.3,6-12.6,11.1c-3.6,4.4-10.3,7.2-10.3,7.2
		C37,70.6,34.5,59.3,50.2,59.6z"/>
</g>
</svg>
