<?xml version="1.0" encoding="utf-8"?>
<!-- Generator: Adobe Illustrator 21.0.0, SVG Export Plug-In . SVG Version: 6.00 Build 0)  -->
<svg version="1.1" id="Layer_1" xmlns="http://www.w3.org/2000/svg" xmlns:xlink="http://www.w3.org/1999/xlink" x="0px" y="0px"
	 width="72px" height="72px" viewBox="0 0 116 116" style="enable-background:new 0 0 116 116;" xml:space="preserve">
<style type="text/css">
	.st0{fill:#FFFFFF;}
</style>
<g>
	<path class="st0" d="M57.8,36.3c-11.2,0-21.4,4.9-28.3,12.7V8.7c0-3.5-2.4-5.2-4.9-5.2c-2.4,0-4.9,1.7-4.9,5.2v60.6v5.1v0.3
		c0,3.5,2.4,5.2,4.9,5.2c2.4,0,4.9-1.7,4.9-5.2v-0.3c0-15.7,12.8-28.5,28.3-28.5c15.7,0,28.5,12.8,28.5,28.5s-12.8,28.5-28.5,28.5
		c-6.7,0-13.1-1.5-17.8-5.2C34.8,93.7,35,87.1,40,83c10.8,2.3,20.3,6.7,26.4-9.9c1.9-5.3,3.8-16,11.2-15.8
		C51.4,48.1,36,53.8,37.8,80.6v0.1c-3.2,2.3-9.3,7.2-9.3,13.3c0,3.9,2.6,7,5.4,9.5c6.6,5.8,14.3,9,24,9c21.2,0,38.3-17.1,38.3-38.1
		S78.9,36.3,57.8,36.3z M65.2,59.9c-8.7,2.4-8.3,6-12.6,11.1c-3.6,4.4-10.3,7.2-10.3,7.2C51.9,70.9,49.4,59.6,65.2,59.9z"/>
</g>
</svg>
