<?xml version="1.0" encoding="utf-8"?>
<!-- Generator: Adobe Illustrator 20.1.0, SVG Export Plug-In . SVG Version: 6.00 Build 0)  -->
<svg version="1.1" id="Layer_1" xmlns="http://www.w3.org/2000/svg" xmlns:xlink="http://www.w3.org/1999/xlink" x="0px" y="0px"
	 viewBox="0 0 659.2 299.4" style="enable-background:new 0 0 659.2 299.4;" xml:space="preserve">
<style type="text/css">
	.st0{fill:#FFFFFF;}
	.st1{fill:#257DBD;}
	.st2{fill:#E74011;}
	.st3{fill:none;stroke:#000000;stroke-width:1.5311;stroke-miterlimit:3.8637;}
	.st4{fill:none;stroke:#000000;stroke-width:2.0415;stroke-miterlimit:3.8637;}
	.st5{fill:#E8C564;}
	.st6{fill:#F2CD68;}
	.st7{fill:#706F6F;}
	.st8{fill:none;stroke:#000000;stroke-width:0.852;}
</style>
<g>
	<g>
		<path class="st0" d="M129.5,239.2L106,226.4c0,0-17.3-11.1-20.8-14.5s-24.3-22.8-24.3-47.2c0-24.3,0-104.5,0-104.5h68.6h68.6
			c0,0,0,80.1,0,104.5c0,24.3-20.8,43.8-24.3,47.2S153,226.4,153,226.4L129.5,239.2L129.5,239.2z"/>
		<polygon class="st1" points="65,65 193.9,65 193.9,107.6 65,107.6 		"/>
		<g>
			<g>
				<g>
					<path class="st0" d="M264.1,106.9c-3.4,3.4-8.2,5.2-15.1,5.2c-6.7,0-11.6-1.5-14.8-4.7c-3-2.9-4.5-7.4-4.5-12.7V66.2h9.3V94
						c0,3.3,1,5.7,2.5,7.4c1.6,1.9,4.4,2.8,7.5,2.8c3.6,0,6.2-1,7.9-2.8c1.6-1.6,2.3-4,2.3-7V66.2h9.4v27.5
						C268.7,99.3,267.2,103.8,264.1,106.9z"/>
					<path class="st0" d="M309.8,111.4l-19.6-25.1c-1.7-2.2-2.9-4-4.3-6h-0.1c0.1,1.5,0.1,4.2,0.1,6.3v24.7h-9.3V66.2h9.5L305,90.3
						c1.8,2.3,3,4,4.2,5.9h0.1c-0.1-2.1-0.1-5.1-0.1-7v-23h9.3v45.2C318.5,111.4,309.8,111.4,309.8,111.4z"/>
					<path class="st0" d="M326.2,111.4V66.2h9.4v45.2C335.6,111.4,326.2,111.4,326.2,111.4z"/>
					<path class="st0" d="M364.9,111.7h-7l-18.5-45.4h10.3l9.2,24c1.2,3,2.2,5.8,3.1,8.4h0.1c0.8-2.5,1.8-5.1,3-8.1l10.2-24.3h9.6
						L364.9,111.7z"/>
					<path class="st0" d="M388.7,111.4V66.2h26.2l-2.5,7.7h-14.3v10.6h14.4v7.7h-14.4v11.5h16.7v7.7L388.7,111.4L388.7,111.4z"/>
					<path class="st0" d="M444.9,111.4c-6.9-11.7-9.6-16.8-11.3-17.4h-3.5v17.4h-9.4V66.2H434c12.1,0,16.5,6,16.5,13
						c0,5.9-4,9.9-8.2,11.7V91c2.3,1.3,6.7,8.9,13.4,20.4H444.9z M434.2,74h-4v13.1h4c4,0,6.9-3,6.9-6.9
						C441.1,76.7,438.6,74,434.2,74z"/>
					<path class="st0" d="M471.8,112.1c-6.5,0-11.2-2.1-14.4-4.2l3.6-6.8c2.8,1.9,6.2,3.5,10.3,3.5c3.3,0,7-1.2,7-4.7
						c0-6-11-7-16.4-13.2c-1.7-2-2.9-4.5-2.9-8c0-6.9,5.4-12.9,15.4-12.9c4.8,0,8.8,1.2,11.4,2.7l-0.1,8.1
						c-3.8-2.1-7.1-3.3-10.8-3.3c-3.4,0-6,1.5-6,4.1c0,7.8,19.4,7.1,19.4,21.3C488.3,106.9,481,112.1,471.8,112.1z"/>
					<path class="st0" d="M493.7,111.4V66.2h9.4v45.2C503.1,111.4,493.7,111.4,493.7,111.4z"/>
					<path class="st0" d="M542.2,73.9h-12.1v37.5h-9.5V73.9h-13.2v-7.7h37L542.2,73.9z"/>
					<path class="st0" d="M569,93.7v17.7h-9.4V93.5L544,66.2h10.4l6.8,12.6c1.1,1.9,2.4,4.5,3.4,6.5h0.1c1-2.1,2.2-4.5,3.2-6.4
						l6.9-12.7h9.8L569,93.7z"/>
					<path class="st0" d="M268.2,173.9c-4.2,4.2-9.9,6.7-17,6.7c-6.6,0-12.1-1.9-16.1-5.5c-4.6-4.2-7.2-10.3-7.2-17.3
						c0-6.6,2.3-12.6,6.5-16.9c4.1-4.2,9.9-6.7,16.8-6.7c7.4,0,13.6,2.6,17.6,7c3.8,4.1,5.7,9.7,5.7,16
						C274.5,163.9,272.3,169.8,268.2,173.9z M251.2,142c-7.8,0-13.5,5.7-13.5,15.6c0,9.9,5.7,15.6,13.5,15.6
						c7.7,0,13.4-5.7,13.4-15.6C264.6,147.8,259,142,251.2,142z"/>
					<path class="st0" d="M304.1,142.5h-14.4v10.8H304l0.1,7.7h-14.3v19h-9.4v-45.2h26.3L304.1,142.5z"/>
					<path class="st0" d="M327.2,180v-45.2h9.3v37.4h15.9v7.7L327.2,180L327.2,180z"/>
					<path class="st0" d="M394.1,173.9c-4.2,4.2-9.9,6.7-17,6.7c-6.7,0-12.1-1.9-16.1-5.5c-4.7-4.2-7.2-10.3-7.2-17.3
						c0-6.6,2.3-12.6,6.5-16.9c4.1-4.2,9.9-6.7,16.8-6.7c7.4,0,13.6,2.6,17.6,7c3.7,4.1,5.7,9.7,5.7,16
						C400.4,163.9,398.2,169.8,394.1,173.9z M377.1,142c-7.8,0-13.5,5.7-13.5,15.6c0,9.9,5.7,15.6,13.5,15.6
						c7.7,0,13.4-5.7,13.4-15.6C390.4,147.8,384.9,142,377.1,142z"/>
					<path class="st0" d="M439.4,180l-19.6-25.1c-1.7-2.2-3-4-4.3-6h-0.1c0.1,1.5,0.1,4.3,0.1,6.3V180h-9.3v-45.2h9.5l18.9,24.1
						c1.8,2.3,3,4,4.3,5.9h0.1c-0.1-2.1-0.1-5.1-0.1-7v-23h9.3V180H439.4z"/>
					<path class="st0" d="M470,180h-14.2v-45.2h15c16.1,0,25.2,8.7,25.2,22.2C496,170.9,485.6,180,470,180z M470.2,142.6h-5v29.6
						h5.1c11.2,0,15.6-7.1,15.6-14.9C485.9,148.4,480.6,142.6,470.2,142.6z"/>
					<path class="st0" d="M540.2,173.9c-4.2,4.2-9.9,6.7-17,6.7c-6.7,0-12.1-1.9-16.1-5.5c-4.6-4.2-7.2-10.3-7.2-17.3
						c0-6.6,2.3-12.6,6.5-16.9c4.1-4.2,9.9-6.7,16.8-6.7c7.4,0,13.6,2.6,17.6,7c3.8,4.1,5.7,9.7,5.7,16
						C546.5,163.9,544.3,169.8,540.2,173.9z M523.2,142c-7.8,0-13.5,5.7-13.5,15.6c0,9.9,5.7,15.6,13.5,15.6
						c7.7,0,13.4-5.7,13.4-15.6C536.6,147.8,531,142,523.2,142z"/>
					<path class="st0" d="M585.5,180l-19.6-25.1c-1.7-2.2-2.9-4-4.3-6h-0.1c0.1,1.5,0.1,4.3,0.1,6.3V180h-9.3v-45.2h9.5l18.9,24.1
						c1.8,2.3,3,4,4.2,5.9h0.1c-0.1-2.1-0.1-5.1-0.1-7v-23h9.3V180H585.5z"/>
				</g>
			</g>
		</g>
		<polygon class="st0" points="193.9,107.6 65,107.6 65,164.3 65,169.3 66.1,173.4 67.8,179.7 70.4,185.5 73.4,190.7 77.1,196.4 
			80.5,200.7 84.3,205 87.8,208.5 93.6,213 99.1,216.8 106.1,221.6 129.5,234.4 153.1,221.3 157.5,218.4 161.4,215.7 165.4,213 
			167.8,211.3 171.1,208.5 173.8,205.6 176.2,203 178.8,200 181.3,196.7 183.7,193.4 186.4,189 187.8,186.3 189.5,182.9 
			190.9,179.6 192.6,173.5 193.7,165.9 		"/>
		<polygon class="st2" points="109,107.6 149.9,107.6 149.9,141.3 193.7,141.3 193.7,168.3 192.6,174.2 191.7,177.4 190.2,180.4 
			149.9,180.4 149.9,223 129,234.4 109,223.4 109,180.4 68.3,180.4 66.2,174.6 65,170.5 65,163.9 65,141.3 109,141.3 		"/>
		<line class="st3" x1="65" y1="107.6" x2="193.7" y2="107.6"/>
		<path class="st4" d="M129.5,234.4l-22.1-12.1c0,0-16.3-10.5-19.5-13.7c-3.3-3.3-22.8-21.6-22.8-44.7c0-23,0-98.8,0-98.8h64.4h64.4
			c0,0,0,75.8,0,98.8s-19.5,41.4-22.8,44.7c-3.3,3.2-19.5,13.7-19.5,13.7L129.5,234.4L129.5,234.4z"/>
		<g>
			<path d="M117.5,176.9l2.4-1.1c0,0,0.5-0.1,0.6,0.2s0.3,1,0.4,1.8c0,0.8,0.6,1.9,1.5,2.3c2.3,1.2,6,0.9,6.6,0.7
				c0.6,0.2,4.3,0.5,6.7-0.6c0.9-0.4,1.5-1.5,1.6-2.3s0.4-1.5,0.5-1.7c0.1-0.3,0.6-0.1,0.6-0.1l2.3,1.3l-0.3-2.5c0,0,0-0.5,0.3-0.5
				s1,0,1.8,0.2s1.9,0,2.7-0.7c1.9-1.8,2.7-5.5,2.7-6c0.4-0.5,1.8-4,1.5-6.5c-0.1-1-0.9-1.9-1.7-2.2s-1.3-0.8-1.5-1s0.1-0.6,0.1-0.6
				l1.9-1.8l-2.6-0.5c0,0-0.5-0.2-0.4-0.5s0.3-1,0.8-1.6c0.4-0.7,0.6-1.8,0.2-2.7c-1.1-2.3-4.4-4.2-5-4.4c-0.3-0.5-3.3-3-5.9-3.4
				c-1-0.2-2.1,0.3-2.6,0.9c-0.6,0.6-1.2,1-1.4,1.2c-0.2,0.1-0.6-0.3-0.6-0.3l-1.2-2.4l-1.3,2.3c0,0-0.4,0.4-0.6,0.2
				s-0.8-0.6-1.3-1.2c-0.5-0.6-1.6-1.2-2.6-1c-2.5,0.4-5.4,2.8-5.7,3.3c-0.6,0.2-3.8,2.1-5.1,4.4c-0.5,0.9-0.4,2,0.1,2.8
				c0.4,0.7,0.6,1.4,0.7,1.7s-0.4,0.5-0.4,0.5l-2.6,0.3l1.8,1.9c0,0,0.3,0.5,0,0.6c-0.2,0.2-0.8,0.6-1.6,0.9
				c-0.8,0.3-1.6,1.1-1.8,2.1c-0.5,2.5,1,6,1.4,6.5c0,0.6,0.9,4.3,2.6,6.2c0.7,0.7,1.8,1,2.7,0.8c0.8-0.2,1.5-0.1,1.8-0.1
				s0.3,0.5,0.3,0.5L117.5,176.9L117.5,176.9z"/>
			<path class="st0" d="M129.4,168.3c0,0-0.9,0-1.1,0.8c-0.2,0.8,0.4,1.6-0.2,2c-0.6,0.4-0.4,0.8-1.2,0.6c-0.8-0.3-1.1-0.6-1.4-1.3
				c-0.3-0.6-0.8-1.1-1.5-1.6c-0.7-0.6-1.3-0.9-1.9-1c-0.7,0-1.1-0.2-1.6-0.9s-0.3-0.2,0-1.2c0.3-0.9,1.3-0.5,2-0.9
				c0.7-0.5,0.5-1.5,0.5-1.5s-0.6-1-1.4-1c-0.9,0-1.4,0.8-2,0.4c-0.6-0.4-0.9-0.1-0.9-1s0.3-1.2,0.8-1.7c0.5-0.4,0.8-1.1,1-1.9
				c0.3-0.8,0.5-1.5,0.3-2.1c-0.2-0.7-0.1-1.1,0.4-1.8s0.1-0.4,1.1-0.4s0.8,1.1,1.5,1.6s1.5,0,1.5,0s0.9-0.7,0.6-1.5s-1.2-1-1-1.7
				s-0.2-0.9,0.6-1.2c0.8-0.3,1.3-0.1,1.9,0.2c0.6,0.4,1.3,0.4,2.2,0.4s1.6,0,2.1-0.4c0.6-0.3,1-0.5,1.9-0.2c0.8,0.3,0.4,0,0.7,0.9
				c0.3,1-0.8,1.1-1.1,1.9c-0.3,0.8,0.5,1.5,0.5,1.5s0.9,0.7,1.6,0.2c0.7-0.5,0.6-1.5,1.4-1.5c0.7,0,0.8-0.4,1.3,0.3
				s0.5,1.2,0.4,1.8s0,1.3,0.3,2.1c0.2,0.8,0.5,1.5,1,1.9c0.5,0.5,0.8,0.9,0.7,1.7c0,0.9,0.2,0.4-0.7,0.9c-0.8,0.6-1.3-0.4-2.1-0.4
				c-0.9,0-1.3,0.9-1.3,0.9s-0.2,1.1,0.5,1.6s1.6,0.1,1.8,0.8s0.6,0.6,0.2,1.3c-0.5,0.7-1,0.9-1.6,0.9c-0.7,0.1-1.3,0.4-1.9,1
				c-0.7,0.5-1.3,0.9-1.5,1.6c-0.3,0.6-0.6,1-1.4,1.2c-0.8,0.2-0.3,0.3-1.1-0.3s-0.1-1.3-0.3-2.2
				C130.4,168.3,129.4,168.3,129.4,168.3L129.4,168.3z"/>
			<path class="st5" d="M129.7,115.1l-1.7-0.3l0.3,1.6l-1.8-0.2v2.5l1.8-0.5l0.6,0.8l0.3,0.3v0.8c0,0-0.7,0.1-0.9,0.4
				c-0.2,0.4,0,0,0,0s-7.8-0.7-14.1,4l-0.4,1.2c0,0,4.1-3,13.8-3.4l0.1,0.7c0,0-9,0.1-14.3,3.8l-0.2,1.3c0,0,5-3.1,14.4-3.3l0.5,0.1
				l0.5,0.3l0.2,0.5l-0.8,0.4l-1.1,0.2l-0.8-0.2l0.1,1.6l0.3,1.7l0.2,0.9v1l0.8-0.7l0.9-0.2l0.4,0.1c0,0,0,0.4,0.1,1
				s-0.2,1.6-0.2,1.6l-1,0.7c0,0-1.4,0.4-2,0.1c-0.6-0.3-1.4-1.1-1.4-2.4c0-1.3,0.3-0.5,0.3-0.5l0.6,0.2h0.4l-0.1-0.8l-0.4-1.3
				l-0.7-0.6l-0.6,0.6c0,0-0.3-2.7-2.6-2.6c0,0-0.8,2.3,0.3,4.2l-1,0.1l-0.3,1l0.8,1.4l0.6,0.4l0.5-1l0.1-0.6c0,0,0.2-0.1,0.5,0.2
				c0.2,0.3,0.9,2.7,0.1,3.3s-1.3,0.7-2,0.5c-0.7-0.3-3.6-1.2-3.2-3.1l0.2-0.5l0.7,0.2l0.5,0.2l0.1-0.6c0,0-0.8-3.1-2.6-2l-0.2-1.6
				l-0.3-0.7l-1.6,0.7l-0.5,0.5l6.1,12.3c0,0,3.7-2.2,10-2.2s10,2.2,10,2.2l6-12.3l-0.5-0.5l-1.6-0.7l-0.3,0.7l-0.2,1.6
				c-1.8-1.1-2.6,2-2.6,2v0.6l0.5-0.2l0.8-0.2l0.2,0.5c0.5,1.9-2.5,2.8-3.2,3.1s-1.2,0.1-2-0.5s-0.2-3,0.1-3.3
				c0.2-0.3,0.5-0.2,0.5-0.2l0.1,0.6l0.5,1l0.6-0.4l0.8-1.4l-0.3-1l-1-0.1c1.1-1.9,0.4-4.2,0.4-4.2c-2.3-0.1-2.6,2.6-2.6,2.6
				l-0.6-0.6l-0.7,0.6l-0.3,1.3l-0.1,0.8h0.4l0.6-0.2c0,0,0.3-0.8,0.3,0.5s-0.9,2.2-1.5,2.4c-0.6,0.3-2-0.1-2-0.1l-1-0.7
				c0,0-0.3-1-0.3-1.6c0.1-0.6,0.1-1,0.1-1l0.4-0.1l0.9,0.2l0.8,0.7v-1l0.2-0.9l0.3-1.7l0.1-1.6l-0.8,0.2l-1.1-0.2l-0.8-0.4l0.2-0.5
				l0.5-0.3l0.5-0.1c9.4,0.2,14.4,3.3,14.4,3.3l-0.2-1.3c-5.4-3.7-14.3-3.8-14.3-3.8l0.1-0.7c9.7,0.4,13.8,3.4,13.8,3.4l-0.4-1.2
				c-6.3-4.7-14.1-4-14.1-4s0.2,0.4,0,0c-0.2-0.3-0.9-0.4-0.9-0.4v-0.8l0.3-0.3l0.6-0.8l1.7,0.5v-2.5l-1.7,0.2l0.3-1.6L129.7,115.1
				L129.7,115.1z"/>
			<polygon class="st5" points="148.3,172.2 153.3,178.1 146.6,174.8 			"/>
			<polygon class="st5" points="148.7,151.1 165.6,145.7 150.1,154.4 			"/>
			<polygon class="st5" points="151.1,159.6 168.7,161.2 151,163.1 			"/>
			<polygon class="st5" points="150.3,167.6 165.6,176.5 149,171 			"/>
			<polygon class="st5" points="150.5,155.8 156.3,155.4 151,158.1 			"/>
			<polygon class="st5" points="151,164.3 156.5,167 150.5,166.7 			"/>
			<polygon class="st5" points="109.8,171.5 92.9,176.9 108.5,168.3 			"/>
			<polygon class="st5" points="107.5,163.1 89.8,161.5 107.5,159.6 			"/>
			<polygon class="st5" points="108.3,155 92.9,146.1 109.6,151.6 			"/>
			<polygon class="st5" points="108,166.8 102.2,167.3 107.5,164.5 			"/>
			<polygon class="st5" points="107.5,158.4 102,155.7 108,156 			"/>
			<polygon class="st5" points="138.8,180.8 144.2,197.7 135.5,182.2 			"/>
			<polygon class="st5" points="130.4,183.2 128.8,200.9 126.9,183.2 			"/>
			<polygon class="st5" points="122.3,182.4 113.4,197.7 118.9,181.1 			"/>
			<polygon class="st5" points="134.1,182.6 134.5,188.5 131.8,183.1 			"/>
			<polygon class="st5" points="125.6,183.1 123,188.6 123.3,182.6 			"/>
			<polygon class="st5" points="114.6,177.7 108.6,181.2 112.7,175.7 			"/>
			<polygon class="st5" points="111.6,174.7 104.7,177.2 110.4,172.6 			"/>
			<polygon class="st5" points="117.8,180.4 112.2,185.3 115.6,178.5 			"/>
			<polygon class="st5" points="145.8,175.8 149.3,181.8 143.8,177.7 			"/>
			<polygon class="st5" points="142.7,178.7 145.2,185.7 140.6,180 			"/>
			<polygon class="st5" points="143.9,144.6 149.8,141.2 145.8,146.6 			"/>
			<polygon class="st5" points="146.8,147.7 153.7,145.2 148.1,149.8 			"/>
			<polygon class="st5" points="140.7,142 146.2,137.1 142.9,143.8 			"/>
			<polygon class="st5" points="112.5,146.8 109,140.8 114.5,144.9 			"/>
			<polygon class="st5" points="115.6,143.8 113,136.9 117.6,142.6 			"/>
			<polygon class="st5" points="110.1,150.4 104.9,144.5 111.7,147.8 			"/>
			<polygon class="st6" points="129.4,155.6 127.7,159 124.5,159.4 126.9,161.7 126.2,165.4 129.4,163.3 132.7,165.4 131.9,161.7 
				134.3,159.4 131.1,159 			"/>
			<path class="st2" d="M120.5,139.5c-0.2-0.5,0.3-1.2,1.2-1.6c0.9-0.4,1.8-0.2,2,0.3s-0.3,1.2-1.2,1.6
				C121.6,140.2,120.7,140,120.5,139.5L120.5,139.5z"/>
			<path class="st2" d="M128,136.2c0-0.6,0.8-1,1.7-1s1.7,0.5,1.7,1c0,0.6-0.8,1-1.7,1C128.7,137.2,128,136.7,128,136.2L128,136.2z"
				/>
			<path class="st2" d="M134.1,137.8c0.3-0.5,1.2-0.6,2-0.2c0.9,0.4,1.3,1.2,1.1,1.7s-1.1,0.6-2,0.2
				C134.3,139.1,133.8,138.4,134.1,137.8L134.1,137.8z"/>
			<path class="st2" d="M121.2,150.1c0,0,1.5,0.6,1.9,0.5s0.6-0.8,0.6-0.8l0.1-0.7c0,0,0.3-0.5,0.6-0.6c0.3-0.2,0.8-0.4,1.2-0.4
				c0.4-0.1,0.5,0,0.8-0.2s0.9-2.1-0.4-3s-2.3-1.5-3.2-0.9c-0.9,0.6-1.9,1.8-2.2,2c-0.2,0.2-0.8,1.7-1.1,1.7
				c-0.1,0.3-1.9,0.6-2.2,0.8c-0.3,0.2-1.7,0.9-2.5,1.6c-0.8,0.8-0.4,1.9,0.2,3.3c0.6,1.5,2.6,1.3,2.9,1c0.3-0.2,0.3-0.4,0.4-0.7
				s0.4-0.8,0.7-1c0.2-0.3,0.8-0.4,0.8-0.4l0.7,0.1c0,0,0.6,0,0.9-0.4C121.4,151.6,121.2,150.1,121.2,150.1L121.2,150.1z"/>
			<path class="st2" d="M137.5,150.3c0,0-0.1,1.6,0.1,1.9c0.3,0.4,0.9,0.3,0.9,0.3l0.7-0.2c0,0,0.5,0.1,0.8,0.4
				c0.3,0.2,0.6,0.7,0.8,1s0.1,0.4,0.5,0.7c0.3,0.2,2.3,0.2,2.8-1.3s0.8-2.6-0.1-3.3c-0.8-0.7-2.3-1.3-2.6-1.4
				c-0.3-0.1-1.9-0.2-2-0.5c-0.3,0.1-1.2-1.6-1.5-1.8s-1.4-1.3-2.4-1.8s-1.9,0.2-3.1,1.2c-1.2,1-0.4,2.8-0.1,3
				c0.3,0.2,0.4,0.1,0.8,0.2c0.3,0,0.9,0.1,1.2,0.3s0.7,0.6,0.7,0.6l0.1,0.7c0,0,0.2,0.6,0.7,0.7C136.2,151,137.5,150.3,137.5,150.3
				L137.5,150.3z"/>
			<path class="st2" d="M115.9,165.5c0,0,1-1.2,1-1.6c0-0.4-0.5-0.8-0.5-0.8l-0.6-0.3c0,0-0.3-0.4-0.4-0.7s-0.1-0.9,0-1.2
				c0-0.3,0.1-0.5,0-0.8s-1.7-1.5-3-0.6s-2.1,1.7-1.9,2.7c0.3,1.1,1.1,2.4,1.3,2.7c0.1,0.3,1.4,1.2,1.3,1.5c0.2,0.1,0,2,0.1,2.4
				c0.1,0.3,0.3,1.9,0.8,2.9s1.6,1,3.2,0.9c1.6-0.2,2-2.1,1.9-2.4c-0.1-0.3-0.3-0.4-0.5-0.6c-0.3-0.2-0.6-0.7-0.8-1
				c-0.2-0.3-0.2-0.9-0.2-0.9l0.3-0.6c0,0,0.2-0.6-0.1-0.9C117.4,165.7,115.9,165.5,115.9,165.5L115.9,165.5z"/>
			<path class="st2" d="M129.1,175c0,0-0.8-1.3-1.2-1.5c-0.4-0.2-0.9,0.3-0.9,0.3l-0.5,0.5c0,0-0.5,0.2-0.8,0.2s-0.9-0.2-1.2-0.3
				c-0.3-0.2-0.4-0.3-0.8-0.3s-2,1.2-1.5,2.7s0.9,2.6,2,2.6c1.1,0.1,2.6-0.3,2.9-0.4c0.3-0.1,1.6-0.9,1.8-0.7c0.2-0.2,2,0.6,2.3,0.7
				c0.3,0,1.9,0.3,3,0.1s1.4-1.3,1.8-2.8c0.4-1.5-1.4-2.5-1.7-2.5c-0.4,0-0.4,0.1-0.7,0.3s-0.8,0.4-1.1,0.5s-0.9-0.1-0.9-0.1
				l-0.5-0.5c0,0-0.6-0.4-0.9-0.2C129.8,173.7,129.1,175,129.1,175L129.1,175z"/>
			<path class="st2" d="M142.5,165.9c0,0-1.5,0.4-1.8,0.7s0,1,0,1l0.4,0.6c0,0,0,0.6-0.1,0.9c-0.1,0.3-0.5,0.7-0.7,1
				c-0.3,0.3-0.4,0.3-0.5,0.6c-0.1,0.4,0.5,2.2,2.1,2.2s2.7-0.1,3.1-1.1c0.4-1,0.5-2.6,0.5-2.9c0-0.3-0.4-1.8-0.2-2
				c-0.1-0.3,1.2-1.6,1.3-1.9c0.1-0.3,0.9-1.7,1-2.8c0.2-1.1-0.8-1.8-2.1-2.6c-1.4-0.8-2.8,0.5-2.9,0.9c-0.1,0.4,0,0.4,0.1,0.8
				c0.1,0.3,0.1,0.9,0.1,1.2s-0.4,0.8-0.4,0.8l-0.6,0.3c0,0-0.5,0.4-0.5,0.9C141.5,164.8,142.5,165.9,142.5,165.9L142.5,165.9z"/>
		</g>
		<g>
			<polyline class="st3" points="149.9,107.6 149.9,141.3 193.7,141.3 			"/>
			<polyline class="st3" points="190.2,180.4 149.9,180.4 149.9,223 			"/>
			<polyline class="st3" points="109,223.4 109,180.4 68.7,180.4 			"/>
			<polyline class="st3" points="65,141.3 109,141.3 109,107.6 			"/>
		</g>
		<g>
			<g>
				<path class="st5" d="M96.1,68.5L93.7,71l-0.2,22.7c0,0,1.9,2.3,8.4,2.8S120,95,120,95l5.8,0.5l1.6,0.7l-0.2,1.4l0.2,1.9l1.1,1.4
					l2.9-0.1l1-1.3v-2.1l-0.1-1l2.5-0.9l2-0.3l5.9,0.1l5.7,1.1l7.3,0.3c0,0,4.5-0.2,6.5-0.8c2-0.6,3.3-1.4,3.3-1.4l0.8-0.9l-0.1-22
					l-2.5-3.1l-0.3,5.3l0.3,16.2l-0.1,2l-2.7,1.1l-11.7,0.1l-8.8-0.6l-4.7,0.5l-3.4,1.4l-2.6,1.8l-4.4-3.1l-6.6-0.8L105,93.6
					l-5.6-0.2L95.8,92L96.1,68.5z"/>
				<path d="M129.7,97.1c-0.2,0-0.3-0.1-0.4-0.1c-1.3-1-0.6-1.4-3.4-2.8c-1.8-0.9-4.7-1.2-6.9-1.2c-1.9,0-4,0.1-6.3,0.4
					c-3.1,0.4-5.8,0.6-8.2,0.6c-6.1,0-7.9-1.2-8.1-1.3l-0.5-0.3c-0.3-0.1-0.4-0.4-0.4-0.7l0.1-23.1c0-0.3,0.2-0.5,0.4-0.7
					c0.3-0.1,0.6-0.1,0.8,0.1c0.8,0.7,1.3,1.2,1.5,1.4c0.3,0.3,3,1.7,7.5,1.7c2.1,0,4.2-0.3,6.5-0.9c1.7-0.4,3.4-0.7,5.1-0.7
					c7.3,0,12.7,3.7,12.9,3.9c0.2,0.1,0.3,0.4,0.3,0.6v22.4c0,0.3-0.2,0.5-0.4,0.7C129.9,97.1,129.8,97.1,129.7,97.1"/>
				<path d="M130.1,97.1c-0.1,0-0.2,0-0.3-0.1c-0.2-0.1-0.4-0.4-0.4-0.7V73.9c0-0.2,0.1-0.5,0.3-0.6c0.2-0.2,5.6-3.9,12.9-3.9
					c1.7,0,3.5,0.2,5.1,0.7c2.3,0.6,4.4,0.9,6.5,0.9c4.4,0,7.1-1.4,7.5-1.8c0-0.1,0.5-0.6,1.4-1.3c0.2-0.2,0.5-0.2,0.8-0.1
					s0.4,0.4,0.4,0.7l0.1,23.1c0,0.3-0.2,0.5-0.4,0.7l-0.6,0.3c-0.1,0.1-1.9,1.3-8,1.3c-2.4,0-5.2-0.2-8.2-0.6
					c-2.3-0.3-4.4-0.4-6.3-0.4c-2.2,0-5.9,0.6-7.2,1.3c-2.5,1.4-1.8,1.7-3.2,2.7C130.4,97,130.2,97.1,130.1,97.1"/>
				<path d="M80,95.7L80,95.7c-0.6,0-1-0.5-1.1-1c-0.1-0.4-0.5-1.5-1.2-1.9c-1-0.5-1.1-1.5-1-2.1c0-0.1,0-0.2,0-0.3
					c0.1-0.5,0.4-0.9,1-1.4s1.1-1.6,1.3-2c0.2-0.7,1.3-1.3,2.1-0.5c0.2,0.2,0.3,0.3,0.5,0.5c0.4,0.4,0.5,0.5,1,0.5h2.3h4.9l0,0
					c0.2,0,0.4,0.1,0.5,0.2s0.2,0.3,0.2,0.5v5.1c0,0.4-0.3,0.8-0.7,0.7c0,0-6.4,0-7.2,0c-0.4,0-0.7,0.2-1.3,0.8L81,95.3
					C80.6,95.6,80.3,95.7,80,95.7"/>
				<path d="M80,84.4L80,84.4c-0.6,0-1-0.5-1.1-1c-0.1-0.4-0.5-1.5-1.2-1.9c-1-0.5-1.1-1.5-1-2.1c0-0.1,0-0.2,0-0.3
					c0.1-0.5,0.4-0.9,1-1.4s1.1-1.6,1.3-2c0.2-0.7,1.3-1.2,2.1-0.5c0.2,0.2,0.3,0.3,0.5,0.5c0.4,0.4,0.5,0.5,1,0.5H85h4.9l0,0
					c0.2,0,0.4,0.1,0.5,0.2s0.2,0.3,0.2,0.5V82c0,0.4-0.3,0.7-0.7,0.7l0,0c0,0-6.4,0-7.2,0c-0.4,0-0.7,0.2-1.4,0.9L81,84
					C80.6,84.3,80.3,84.4,80,84.4"/>
				<path d="M179.8,95.7c-0.4,0-0.7-0.2-1-0.5l-0.2-0.2c-0.7-0.6-0.9-0.8-1.3-0.8c-0.8,0-7.2,0-7.2,0l0,0c-0.4,0-0.7-0.3-0.7-0.7
					v-5.1c0-0.2,0.1-0.4,0.2-0.5c0.1-0.1,0.3-0.2,0.5-0.2l0,0h4.9h2.4c0.5,0,0.6-0.1,1-0.5c0.1-0.1,0.3-0.3,0.5-0.5
					c0.9-0.8,1.9-0.2,2.1,0.5c0.1,0.4,0.6,1.5,1.3,2c0.6,0.5,1,0.9,1,1.4c0,0.1,0,0.2,0,0.3c0.1,0.6-0.1,1.6-1,2.1
					c-0.7,0.4-1.1,1.5-1.2,1.9C180.9,95.2,180.5,95.7,179.8,95.7"/>
				<path d="M179.8,84.4c-0.3,0-0.7-0.2-1-0.5l-0.2-0.1c-0.7-0.6-0.9-0.8-1.4-0.9c-0.8,0-7.2,0-7.2,0l0,0c-0.4,0-0.7-0.3-0.7-0.7
					v-5.1c0-0.2,0.1-0.4,0.2-0.5c0.1-0.1,0.3-0.2,0.5-0.2l0,0h4.9h2.3c0.5,0,0.6-0.1,1-0.5c0.1-0.1,0.3-0.3,0.5-0.5
					c0.9-0.8,1.9-0.2,2.2,0.5c0.1,0.4,0.6,1.5,1.3,2c0.6,0.5,1,0.9,1,1.4c0,0.1,0,0.2,0,0.3c0.1,0.6-0.1,1.5-1,2.1
					c-0.7,0.4-1.1,1.5-1.2,1.9C180.9,83.9,180.5,84.4,179.8,84.4"/>
				<path d="M131.7,104.4c-0.8,0-1.4-0.1-1.4-0.1h-0.8c0,0-0.6,0.1-1.3,0.1c-3.9,0-4.7-1.8-4.7-2.9c0-0.5,0-0.9,0.2-1.2l-33.8,0.6
					c-0.2,0-0.4-0.1-0.5-0.2s-0.2-0.3-0.2-0.5V74c0-0.3,0.2-0.5,0.5-0.6c0,0,0.4-0.2,1.1-1c1-1.2,1.8-1.7,1.9-1.7
					c0.2-0.1,0.5,0,0.7,0.1s0.3,0.4,0.3,0.6V72l-0.1,21.5c0.5,0.5,2.7,2.8,9.8,2.8c2.7,0,6.5-0.3,10-0.8c3-0.5,5.7-0.7,7.9-0.7
					c5.5,0,6.5,0.9,6.8,1.2c0.2,0.2,0.2,0.5,0.1,0.8l-0.2,0.6c-0.1,0.2-0.5,0.9,0,2.1c0.3,0.7,1.1,0.9,1.6,1h0.1h0.6l0,0
					c0.6-0.1,1.4-0.3,1.7-1c0.6-1.2,0.1-1.9,0.1-1.9l-0.3-0.8c-0.1-0.3-0.1-0.6,0.1-0.8c0.2-0.3,1.2-1.3,6.7-1.3
					c2.2,0,4.9,0.2,7.9,0.7c3.4,0.5,6.6,0.8,9.2,0.8c7.1,0,9.9-2.3,10.4-2.8L166,71.3c0-0.2,0.1-0.5,0.3-0.6s0.4-0.2,0.7-0.1
					c0.1,0,1.1,0.5,2.1,1.7c0.7,0.8,1.1,1,1.1,1c0.2,0.1,0.5,0.4,0.5,0.6l0.1,0.6l0.1,25.6c0,0.2-0.1,0.4-0.2,0.5
					c-0.1,0.1-0.4,0.3-0.5,0.2l-33.7-0.6c0.1,0.3,0.2,0.8,0.2,1.2C136.4,102.6,135.6,104.4,131.7,104.4"/>
				<path class="st0" d="M126.6,93.3c0.2,0.1,0.8,0.4,3,1.6V74.3c-1.8-0.8-6.4-3.4-12.3-3.4c-1.6,0-3.2,0.2-4.8,0.6
					c-2.4,0.6-4.7,0.9-6.9,0.9c-5.2,0-8.7-1.8-9-2.3l0,0l-0.1,21.5l0.2,0.1c0.1,0.1,2.2,1.1,7.8,1.1c2.3,0,5-0.2,8-0.5
					C119.1,91.5,124,91.9,126.6,93.3"/>
				<path class="st5" d="M77.5,90.6c0,0.1,0,0.2,0,0.3c0,0.1-0.1,0.5,0.3,0.8c1.2,0.7,1.7,2.1,2,2.7h0.1c0.8-0.7,1.4-1.3,2.5-1.3
					c0.7,0,4.9,0,6.8,0v-1.9V89H85h-2.6c-1.2,0-1.8-0.6-2.2-1.1c-0.1-0.1-0.2-0.2-0.3-0.3c-0.2,0.6-0.9,2-1.9,2.7
					C77.7,90.4,77.6,90.6,77.5,90.6"/>
				<path class="st5" d="M77.5,79.3c0,0.1,0,0.2,0,0.3c0,0.1-0.1,0.5,0.3,0.8c1.2,0.7,1.7,2.1,2,2.7l0,0c0.8-0.7,1.4-1.3,2.5-1.4
					c0.7,0,5,0,6.9,0v-1.9v-2.2h-4.3h-2.6c-1.2,0-1.8-0.6-2.2-1.1c-0.1-0.1-0.2-0.2-0.3-0.3c-0.2,0.6-0.8,2-1.9,2.7
					C77.7,79.1,77.6,79.3,77.5,79.3"/>
				<path class="st7" d="M124.6,79.2c-3.1-1.4-6.9-3.1-12.6-1.6c-3.6,0.9-8.4,1.5-11,0.4l0.6-1.3c1.9,0.8,5.8,0.6,10.1-0.5
					c6.3-1.7,10.5,0.3,13.6,1.7L124.6,79.2z"/>
				<path class="st7" d="M124.6,85.3c-3.1-1.4-6.9-3.1-12.6-1.6c-3.6,0.9-8.4,1.5-11,0.4l0.6-1.3c1.9,0.8,5.8,0.6,10.1-0.5
					c6.3-1.6,10.5,0.3,13.6,1.7L124.6,85.3z"/>
				<path class="st7" d="M124.6,90.3c-3.1-1.4-6.9-3.1-12.6-1.6c-3.6,0.9-8.4,1.5-11,0.4l0.6-1.3c1.9,0.8,5.8,0.6,10.1-0.5
					c6.3-1.6,10.5,0.3,13.6,1.7L124.6,90.3z"/>
				<path class="st0" d="M130.3,74.3v20.6c2.2-1.2,2.7-1.6,2.9-1.6c2.6-1.4,7.5-1.7,14.1-0.9c3,0.4,5.7,0.5,8,0.5
					c5.6,0,7.6-1.4,7.6-1.4l0.3-0.2l-0.1-21.5c0,0,0,0.1-0.1,0.1c-0.3,0.4-3.8,2.6-9,2.6c-2.2,0-4.5-0.3-6.9-0.9
					c-1.5-0.4-3.1-0.6-4.8-0.6C136.1,70.9,130.3,74.3,130.3,74.3z"/>
				<path class="st5" d="M175,93c1.2,0,2.2,0,2.5,0c1.1,0,1.7,0.6,2.5,1.3l0.1,0.1c0.2-0.7,0.8-2.1,2-2.7c0.4-0.3,0.3-0.8,0.3-0.8
					c0-0.1,0-0.2,0-0.3c-0.1-0.1-0.2-0.2-0.5-0.4c-1-0.7-1.7-2.1-1.9-2.7c-0.1,0.1-0.2,0.3-0.3,0.4c-0.5,0.5-1,1.1-2.2,1.1h-2.6
					h-4.1v4C171.8,93,173.3,93,175,93"/>
				<path class="st5" d="M175,81.7c1.2,0,2.2,0,2.5,0c1.1,0.1,1.7,0.6,2.5,1.4l0,0c0.2-0.7,0.8-2.1,2-2.7c0.4-0.2,0.4-0.7,0.3-0.8
					c0-0.1,0-0.2,0-0.3c-0.1-0.1-0.2-0.2-0.5-0.4c-1-0.7-1.6-2.1-1.9-2.7c-0.1,0.1-0.2,0.2-0.3,0.3c-0.5,0.5-1,1.1-2.3,1.1h-2.6
					h-4.2v4C171.7,81.7,173.3,81.7,175,81.7"/>
				<path class="st0" d="M130.3,102.9c0.1,0,0.6,0.1,1.3,0.1c1.2,0,3.2-0.2,3.3-1.5c0.1-0.7-0.6-1.3-0.6-1.3
					c-0.2-0.2-0.3-0.5-0.2-0.8s0.4-0.5,0.7-0.5l0,0l34.8,0.6l-0.1-25c-0.3-0.2-1.1-0.6-1.6-1.2c-0.3-0.3-0.7-0.6-1-0.8l0.1,21.2
					c0,0.1,0,0.3-0.1,0.4c-0.2,0.3-2.1,3.1-11.1,3.1c-2.8,0-5.9-0.3-9.5-0.8c-2.9-0.5-5.5-0.7-7.7-0.7c-3.5,0-5,0.6-5.6,0.9l0,0
					c0.2,0.3,0.6,1.5-0.1,3c-0.5,1.1-1.6,1.7-3,1.7c-1.5,0-2.6-0.6-3.1-1.7c-0.6-1.3-0.4-2.4-0.1-3c-0.6-0.3-2.1-0.9-5.6-0.9
					c-2.1,0-4.7,0.2-7.7,0.7c-3.5,0.5-6.7,0.8-9.5,0.8c-9.1,0-11.2-2.8-11.4-3.1c-0.1-0.1-0.1-0.2-0.1-0.4l0.1-21.2
					c-0.3,0.2-0.5,0.5-0.8,0.8c-0.5,0.6-1.4,1-1.7,1.2v0.2l-0.1,24.7l34.8-0.6l0,0c0.3,0,0.6,0.2,0.7,0.5s0,0.6-0.2,0.8
					c0,0-0.7,0.5-0.6,1.3c0.1,1.3,2.1,1.5,3.3,1.5c0.7,0,1.2-0.1,1.2-0.1L130.3,102.9z"/>
				<path class="st7" d="M135.2,79.2l-0.6-1.3c3.1-1.4,7.3-3.3,13.6-1.7c4.2,1.1,8.2,1.3,10.1,0.5l0.6,1.3c-2.6,1.1-7.4,0.5-11-0.4
					C142,76.1,138.2,77.8,135.2,79.2"/>
				<path class="st7" d="M135.2,85.3l-0.6-1.3c3.1-1.4,7.3-3.3,13.6-1.7c4.2,1.1,8.2,1.3,10.1,0.5l0.6,1.3c-2.6,1.1-7.4,0.5-11-0.4
					C142,82.1,138.2,83.9,135.2,85.3"/>
				<path class="st7" d="M135.2,90.3l-0.6-1.3c3.1-1.4,7.3-3.3,13.6-1.7c4.2,1.1,8.2,1.3,10.1,0.5l0.6,1.3c-2.6,1.1-7.4,0.5-11-0.4
					C142,87.2,138.2,88.9,135.2,90.3"/>
			</g>
			<line class="st8" x1="96.1" y1="68.5" x2="93.3" y2="71.6"/>
			<line class="st8" x1="163.6" y1="68.5" x2="166.4" y2="71.6"/>
		</g>
	</g>
</g>
</svg>
