<?xml version="1.0" encoding="utf-8"?>
<!-- Generator: Adobe Illustrator 20.1.0, SVG Export Plug-In . SVG Version: 6.00 Build 0)  -->
<svg version="1.1" id="Layer_1" xmlns="http://www.w3.org/2000/svg" xmlns:xlink="http://www.w3.org/1999/xlink" x="0px" y="0px"
	 viewBox="0 0 657.1 356.4" style="enable-background:new 0 0 657.1 356.4;" xml:space="preserve">
<style type="text/css">
	.st0{fill:#FFFFFF;}
	.st1{fill:#257DBD;}
	.st2{fill:#E74011;}
	.st3{fill:none;stroke:#000000;stroke-width:1.5311;stroke-miterlimit:3.8637;}
	.st4{fill:none;stroke:#000000;stroke-width:2.0415;stroke-miterlimit:3.8637;}
	.st5{fill-rule:evenodd;clip-rule:evenodd;fill:#E8C564;}
	.st6{fill:#E8C564;}
	.st7{fill:#F2CD68;}
	.st8{fill:#706F6F;}
	.st9{fill:#FFFFFF;stroke:#000000;stroke-width:0.852;}
</style>
<g>
	<g>
		<path class="st0" d="M161.3,253l-19.7-10.7c0,0-14.5-9.2-17.4-12.1c-2.9-2.9-20.3-19.1-20.3-39.4c0-20.3,0-87.3,0-87.3h57.3h57.3
			c0,0,0,66.9,0,87.3c0,20.3-17.4,36.6-20.3,39.4c-2.9,2.9-17.4,12.1-17.4,12.1L161.3,253L161.3,253z"/>
		<polygon class="st1" points="107.5,107.5 215.1,107.5 215.1,143 107.5,143 107.5,107.5 		"/>
		<g>
			<g>
				<g>
					<path d="M273.8,142.4c-2.8,2.8-6.9,4.3-12.6,4.3c-5.6,0-9.7-1.3-12.4-3.9c-2.5-2.5-3.7-6.2-3.7-10.6v-23.8h7.8v23.2
						c0,2.8,0.9,4.8,2.1,6.2c1.4,1.5,3.7,2.3,6.3,2.3c3,0,5.2-0.8,6.6-2.3c1.3-1.4,1.9-3.4,1.9-5.8v-23.5h7.8v23
						C277.7,136.1,276.4,139.9,273.8,142.4z"/>
					<path d="M311.9,146.2l-16.4-21c-1.4-1.8-2.5-3.3-3.6-5h-0.1c0.1,1.3,0.1,3.5,0.1,5.3v20.7h-7.8v-37.7h7.9l15.8,20.2
						c1.5,1.9,2.5,3.4,3.5,4.9h0.1c-0.1-1.8-0.1-4.2-0.1-5.8v-19.2h7.8v37.7H311.9z"/>
					<path d="M325.7,146.2v-37.7h7.9v37.7H325.7z"/>
					<path d="M358,146.5h-5.8l-15.5-38h8.6l7.7,20c1,2.5,1.8,4.9,2.6,7h0.1c0.6-2.1,1.5-4.2,2.5-6.8l8.5-20.3h8L358,146.5z"/>
					<path d="M377.9,146.2v-37.7h21.9l-2.1,6.4h-12v8.8h12v6.5h-12v9.6h14v6.4H377.9z"/>
					<path d="M424.9,146.2c-5.7-9.8-8-14-9.4-14.5h-2.9v14.5h-7.8v-37.7h11c10.1,0,13.7,5,13.7,10.8c0,4.9-3.4,8.2-6.9,9.8v0.1
						c1.9,1.1,5.6,7.4,11.2,17.1H424.9z M415.9,115h-3.3v10.9h3.3c3.3,0,5.8-2.5,5.8-5.8C421.7,117.2,419.6,115,415.9,115z"/>
					<path d="M447.3,146.8c-5.4,0-9.3-1.8-12-3.5l3-5.7c2.3,1.5,5.2,2.9,8.6,2.9c2.8,0,5.9-1,5.9-3.9c0-5-9.2-5.8-13.7-11
						c-1.4-1.7-2.4-3.8-2.4-6.7c0-5.7,4.5-10.8,12.8-10.8c4,0,7.3,1,9.5,2.3l-0.1,6.8c-3.2-1.7-5.9-2.7-9-2.7c-2.8,0-5,1.3-5,3.4
						c0,6.5,16.2,6,16.2,17.8C461.1,142.5,455,146.8,447.3,146.8z"/>
					<path d="M465.6,146.2v-37.7h7.8v37.7H465.6z"/>
					<path d="M506.1,114.9H496v31.3h-7.9v-31.3H477v-6.4h30.9L506.1,114.9z"/>
					<path d="M528.5,131.4v14.8h-7.9v-14.9l-13-22.8h8.6L522,119c0.9,1.6,2,3.7,2.8,5.4h0.1c0.8-1.7,1.8-3.7,2.7-5.3l5.8-10.6h8.2
						L528.5,131.4z"/>
					<path d="M277.2,198.5c-3.5,3.5-8.3,5.6-14.2,5.6c-5.5,0-10.1-1.6-13.5-4.6c-3.9-3.5-6-8.6-6-14.4c0-5.6,1.9-10.5,5.4-14.1
						c3.4-3.5,8.2-5.6,14-5.6c6.2,0,11.3,2.2,14.7,5.8c3.1,3.4,4.8,8.1,4.8,13.4C282.5,190.1,280.6,195,277.2,198.5z M263,171.8
						c-6.5,0-11.3,4.7-11.3,13c0,8.2,4.8,13,11.3,13c6.4,0,11.2-4.8,11.2-13C274.2,176.7,269.5,171.8,263,171.8z"/>
					<path d="M307.2,172.2h-12.1v9h11.9l0.1,6.4h-12v15.9h-7.9v-37.7h21.9L307.2,172.2z"/>
					<path d="M326.5,203.5v-37.7h7.8V197h13.3v6.5H326.5z"/>
					<path d="M382.4,198.5c-3.5,3.5-8.3,5.6-14.2,5.6c-5.6,0-10.1-1.6-13.5-4.6c-3.9-3.5-6-8.6-6-14.4c0-5.6,1.9-10.5,5.4-14.1
						c3.4-3.5,8.2-5.6,14-5.6c6.2,0,11.3,2.2,14.7,5.8c3.1,3.4,4.7,8.1,4.7,13.4C387.7,190.1,385.8,195,382.4,198.5z M368.2,171.8
						c-6.5,0-11.3,4.7-11.3,13c0,8.2,4.8,13,11.3,13c6.4,0,11.2-4.8,11.2-13C379.4,176.7,374.7,171.8,368.2,171.8z"/>
					<path d="M420.3,203.5l-16.4-21c-1.4-1.8-2.5-3.3-3.6-5h-0.1c0.1,1.3,0.1,3.6,0.1,5.3v20.7h-7.8v-37.7h7.9l15.8,20.2
						c1.5,1.9,2.5,3.4,3.6,4.9h0.1c-0.1-1.8-0.1-4.2-0.1-5.8v-19.2h7.8v37.7H420.3z"/>
					<path d="M445.8,203.5H434v-37.7h12.5c13.5,0,21,7.3,21,18.5C467.6,195.9,458.9,203.5,445.8,203.5z M446,172.3h-4.2V197h4.3
						c9.3,0,13-5.9,13-12.5C459.1,177.1,454.7,172.3,446,172.3z"/>
					<path d="M504.4,198.5c-3.5,3.5-8.3,5.6-14.2,5.6c-5.6,0-10.1-1.6-13.5-4.6c-3.9-3.5-6-8.6-6-14.4c0-5.6,2-10.5,5.4-14.1
						c3.4-3.5,8.3-5.6,14-5.6c6.2,0,11.3,2.2,14.7,5.8c3.1,3.4,4.8,8.1,4.8,13.4C509.7,190.1,507.9,195,504.4,198.5z M490.3,171.8
						c-6.5,0-11.3,4.7-11.3,13c0,8.2,4.8,13,11.3,13c6.4,0,11.2-4.8,11.2-13C501.4,176.7,496.8,171.8,490.3,171.8z"/>
					<path d="M542.3,203.5l-16.4-21c-1.4-1.8-2.5-3.3-3.6-5h-0.1c0.1,1.3,0.1,3.6,0.1,5.3v20.7h-7.8v-37.7h7.9l15.8,20.2
						c1.5,1.9,2.5,3.4,3.5,4.9h0.1c-0.1-1.8-0.1-4.2-0.1-5.8v-19.2h7.8v37.7H542.3z"/>
				</g>
			</g>
		</g>
		<polygon class="st0" points="215.1,143 107.5,143 107.5,190.4 107.5,194.6 108.3,198 109.8,203.3 111.9,208.1 114.5,212.5 
			117.6,217.3 120.4,220.9 123.6,224.5 126.5,227.4 131.4,231.1 135.9,234.3 141.8,238.3 161.3,248.9 181,238 184.7,235.6 
			188,233.4 191.3,231.1 193.4,229.7 196.1,227.4 198.3,224.9 200.4,222.7 202.5,220.3 204.6,217.5 206.6,214.7 208.9,211 
			210.1,208.8 211.5,206 212.6,203.2 214.1,198.1 214.9,191.7 215.1,143 		"/>
		<polygon class="st2" points="144.2,143 178.4,143 178.4,171.2 214.9,171.2 214.9,193.7 214.1,198.7 213.3,201.3 212,203.9 
			178.4,203.9 178.4,239.4 160.9,248.9 144.2,239.8 144.2,203.9 110.2,203.9 108.4,199 107.5,195.6 107.5,190.1 107.5,171.2 
			144.2,171.2 144.2,143 		"/>
		<line class="st3" x1="107.5" y1="143" x2="214.9" y2="143"/>
		<path class="st4" d="M161.3,248.9l-18.5-10.1c0,0-13.6-8.8-16.3-11.5c-2.7-2.7-19-18.1-19-37.3c0-19.2,0-82.6,0-82.6h53.8h53.8
			c0,0,0,63.3,0,82.6c0,19.2-16.3,34.6-19.1,37.3c-2.7,2.7-16.3,11.5-16.3,11.5L161.3,248.9L161.3,248.9z"/>
		<g>
			<path d="M151.3,200.9l2-0.9c0,0,0.4-0.1,0.5,0.1c0.1,0.2,0.3,0.8,0.3,1.5c0,0.7,0.5,1.6,1.2,2c1.9,1,5,0.7,5.5,0.6
				c0.5,0.2,3.6,0.4,5.6-0.5c0.8-0.4,1.2-1.2,1.3-1.9c0.1-0.7,0.3-1.2,0.4-1.5c0.1-0.2,0.5-0.1,0.5-0.1l2,1.1l-0.2-2.1
				c0,0,0-0.4,0.3-0.4c0.2,0,0.8,0,1.5,0.2c0.7,0.2,1.6,0,2.2-0.6c1.5-1.5,2.3-4.6,2.3-5c0.3-0.4,1.5-3.3,1.3-5.5
				c-0.1-0.8-0.8-1.6-1.4-1.8c-0.6-0.3-1.1-0.7-1.3-0.8c-0.2-0.2,0.1-0.5,0.1-0.5l1.6-1.5l-2.2-0.4c0,0-0.4-0.2-0.4-0.4
				c0.1-0.2,0.3-0.8,0.6-1.4c0.4-0.6,0.5-1.5,0.2-2.3c-1-1.9-3.7-3.5-4.2-3.7c-0.3-0.4-2.7-2.5-4.9-2.9c-0.8-0.2-1.7,0.3-2.2,0.8
				c-0.5,0.5-1,0.8-1.2,1c-0.2,0.1-0.5-0.2-0.5-0.2l-1-2l-1.1,1.9c0,0-0.3,0.3-0.5,0.2c-0.2-0.1-0.7-0.5-1.1-1
				c-0.4-0.5-1.3-1-2.2-0.9c-2.1,0.3-4.5,2.4-4.8,2.8c-0.5,0.1-3.2,1.8-4.2,3.7c-0.4,0.8-0.3,1.7,0,2.3c0.3,0.6,0.5,1.2,0.6,1.4
				c0.1,0.2-0.4,0.4-0.4,0.4l-2.2,0.3l1.5,1.6c0,0,0.2,0.4,0,0.5c-0.2,0.1-0.7,0.5-1.3,0.8c-0.6,0.2-1.3,0.9-1.5,1.8
				c-0.4,2.1,0.9,5,1.1,5.4c0,0.5,0.7,3.6,2.2,5.2c0.6,0.6,1.5,0.8,2.2,0.7c0.7-0.1,1.3-0.1,1.5-0.1c0.3,0,0.3,0.5,0.3,0.5
				L151.3,200.9L151.3,200.9z"/>
			<path class="st0" d="M161.3,193.7c0,0-0.8,0-0.9,0.7c-0.2,0.7,0.3,1.3-0.2,1.7c-0.5,0.4-0.3,0.7-1,0.5c-0.7-0.2-0.9-0.5-1.1-1.1
				c-0.2-0.5-0.7-0.9-1.3-1.3c-0.6-0.5-1.1-0.8-1.6-0.8c-0.6,0-0.9-0.2-1.4-0.8c-0.4-0.6-0.3-0.2,0-1c0.3-0.8,1-0.4,1.6-0.8
				c0.6-0.4,0.4-1.2,0.4-1.2s-0.5-0.9-1.2-0.8c-0.7,0-1.1,0.7-1.6,0.3c-0.5-0.4-0.7-0.1-0.8-0.8c0-0.7,0.2-1,0.7-1.4
				c0.4-0.4,0.6-0.9,0.8-1.6c0.3-0.7,0.4-1.2,0.3-1.8c-0.1-0.6-0.1-0.9,0.3-1.5c0.4-0.6,0.1-0.3,0.9-0.3c0.8,0,0.7,0.9,1.3,1.3
				c0.6,0.4,1.3,0,1.3,0s0.7-0.6,0.5-1.3c-0.2-0.7-1-0.9-0.8-1.5c0.2-0.6-0.1-0.7,0.5-1c0.7-0.2,1.1-0.1,1.6,0.2
				c0.5,0.3,1.1,0.3,1.8,0.3c0.7,0,1.3,0,1.8-0.3c0.5-0.3,0.9-0.4,1.6-0.1c0.7,0.2,0.3,0,0.6,0.8c0.2,0.8-0.6,0.9-0.9,1.6
				c-0.2,0.7,0.4,1.2,0.4,1.2s0.8,0.6,1.4,0.1c0.6-0.4,0.5-1.2,1.1-1.2c0.6,0,0.7-0.4,1.1,0.2c0.4,0.6,0.4,1,0.3,1.5
				c-0.1,0.5,0,1.1,0.3,1.8c0.2,0.7,0.4,1.2,0.8,1.6c0.4,0.4,0.6,0.7,0.6,1.4c0,0.7,0.1,0.3-0.6,0.8c-0.7,0.5-1.1-0.3-1.8-0.3
				c-0.7,0-1.1,0.8-1.1,0.8s-0.2,0.9,0.4,1.3c0.6,0.4,1.3,0.1,1.5,0.7c0.2,0.6,0.5,0.5,0.1,1.1c-0.4,0.6-0.8,0.7-1.4,0.8
				c-0.6,0-1.1,0.3-1.6,0.8c-0.6,0.4-1.1,0.8-1.3,1.3c-0.2,0.5-0.5,0.8-1.2,1c-0.7,0.2-0.2,0.2-0.9-0.3c-0.7-0.5,0-1.1-0.2-1.8
				C162.1,193.8,161.3,193.7,161.3,193.7L161.3,193.7z"/>
			<path class="st5" d="M161.5,149.3L160,149l0.2,1.4l-1.5-0.2v2.1l1.5-0.4l0.5,0.7l0.3,0.3v0.7c0,0-0.6,0-0.8,0.3c-0.2,0.3,0,0,0,0
				s-6.5-0.6-11.8,3.3l-0.3,1c0,0,3.5-2.5,11.5-2.8l0,0.6c0,0-7.5,0.1-12,3.2l-0.1,1.1c0,0,4.2-2.6,12-2.7l0.4,0l0.4,0.3l0.1,0.4
				l-0.7,0.3l-0.9,0.1l-0.7-0.2l0,1.4l0.2,1.5l0.1,0.8v0.8l0.7-0.6l0.8-0.1l0.3,0.1c0,0,0,0.3,0,0.8c0.1,0.5-0.2,1.3-0.2,1.3
				l-0.8,0.6c0,0-1.2,0.3-1.7,0.1c-0.5-0.2-1.2-0.9-1.2-2c0-1.1,0.3-0.4,0.3-0.4l0.5,0.2h0.4l-0.1-0.7l-0.3-1.1l-0.6-0.5l-0.5,0.5
				c0,0-0.2-2.3-2.2-2.2c0,0-0.6,2,0.3,3.5l-0.9,0l-0.2,0.8l0.7,1.2l0.5,0.3l0.4-0.8l0.1-0.5c0,0,0.2-0.1,0.4,0.1
				c0.2,0.2,0.7,2.2,0,2.7c-0.7,0.5-1.1,0.6-1.7,0.4c-0.6-0.2-3-1-2.7-2.6l0.2-0.4l0.6,0.1l0.4,0.1l0-0.5c0,0-0.7-2.6-2.2-1.7
				l-0.1-1.3l-0.2-0.6l-1.3,0.6l-0.4,0.4l5.1,10.3c0,0,3.1-1.8,8.4-1.8c5.3,0,8.4,1.8,8.4,1.8l5-10.3l-0.4-0.4l-1.3-0.6l-0.2,0.6
				l-0.1,1.3c-1.5-0.9-2.2,1.7-2.2,1.7l0,0.5l0.4-0.1l0.6-0.1l0.2,0.4c0.4,1.6-2.1,2.3-2.7,2.6c-0.6,0.2-1,0.1-1.7-0.4
				c-0.7-0.5-0.1-2.5,0-2.7c0.2-0.3,0.4-0.1,0.4-0.1l0.1,0.5l0.4,0.8l0.5-0.3l0.7-1.2l-0.2-0.8l-0.9,0c0.9-1.6,0.3-3.5,0.3-3.5
				c-1.9-0.1-2.2,2.2-2.2,2.2l-0.5-0.5l-0.6,0.5l-0.3,1.1l-0.1,0.7h0.3l0.5-0.2c0,0,0.3-0.7,0.3,0.4c0,1.1-0.7,1.8-1.2,2
				c-0.5,0.2-1.6-0.1-1.6-0.1l-0.8-0.6c0,0-0.3-0.8-0.2-1.3c0.1-0.5,0.1-0.8,0.1-0.8l0.3-0.1l0.8,0.1l0.7,0.6v-0.8l0.1-0.8l0.3-1.5
				l0-1.4l-0.7,0.2l-0.9-0.1l-0.7-0.3l0.2-0.4l0.4-0.3l0.4,0c7.8,0.1,12,2.7,12,2.7l-0.1-1.1c-4.5-3.1-12-3.2-12-3.2l0-0.6
				c8.1,0.3,11.5,2.8,11.5,2.8l-0.3-1c-5.2-3.9-11.8-3.3-11.8-3.3s0.1,0.3,0,0c-0.1-0.3-0.8-0.3-0.8-0.3v-0.7l0.3-0.3l0.5-0.7
				l1.5,0.4v-2.1l-1.5,0.2l0.3-1.4L161.5,149.3L161.5,149.3z"/>
			<polygon class="st5" points="177,197 181.2,202 175.6,199.2 177,197 			"/>
			<polygon class="st6" points="177.4,179.4 191.5,174.9 178.5,182.1 177.4,179.4 			"/>
			<polygon class="st6" points="179.4,186.4 194.1,187.8 179.3,189.4 179.4,186.4 			"/>
			<polygon class="st6" points="178.7,193.2 191.5,200.6 177.6,196 178.7,193.2 			"/>
			<polygon class="st6" points="178.9,183.3 183.8,183 179.3,185.3 178.9,183.3 			"/>
			<polygon class="st6" points="179.3,190.4 183.9,192.6 178.9,192.4 179.3,190.4 			"/>
			<polygon class="st6" points="144.9,196.5 130.8,200.9 143.8,193.7 144.9,196.5 			"/>
			<polygon class="st6" points="142.9,189.4 128.2,188.1 143,186.5 142.9,189.4 			"/>
			<polygon class="st6" points="143.6,182.7 130.8,175.2 144.7,179.8 143.6,182.7 			"/>
			<polygon class="st6" points="143.4,192.5 138.5,192.9 143,190.6 143.4,192.5 			"/>
			<polygon class="st6" points="143,185.5 138.4,183.2 143.4,183.5 143,185.5 			"/>
			<polygon class="st6" points="169.1,204.2 173.6,218.3 166.4,205.3 169.1,204.2 			"/>
			<polygon class="st6" points="162.1,206.2 160.7,221 159.1,206.2 162.1,206.2 			"/>
			<polygon class="st6" points="155.3,205.5 147.9,218.3 152.5,204.4 155.3,205.5 			"/>
			<polygon class="st6" points="165.2,205.7 165.6,210.6 163.3,206.1 165.2,205.7 			"/>
			<polygon class="st6" points="158.1,206.1 155.9,210.7 156.1,205.7 158.1,206.1 			"/>
			<polygon class="st5" points="148.9,201.6 143.9,204.5 147.3,200 148.9,201.6 			"/>
			<polygon class="st5" points="146.4,199.1 140.6,201.2 145.4,197.3 146.4,199.1 			"/>
			<polygon class="st5" points="151.6,203.9 146.9,207.9 149.7,202.3 151.6,203.9 			"/>
			<polygon class="st5" points="174.9,200 177.8,205 173.3,201.6 174.9,200 			"/>
			<polygon class="st5" points="172.4,202.5 174.5,208.3 170.6,203.5 172.4,202.5 			"/>
			<polygon class="st5" points="173.3,174 178.3,171.1 174.9,175.6 173.3,174 			"/>
			<polygon class="st5" points="175.8,176.6 181.6,174.4 176.8,178.3 175.8,176.6 			"/>
			<polygon class="st5" points="170.7,171.8 175.3,167.7 172.5,173.3 170.7,171.8 			"/>
			<polygon class="st5" points="147.1,175.8 144.2,170.8 148.8,174.2 147.1,175.8 			"/>
			<polygon class="st5" points="149.7,173.3 147.6,167.5 151.4,172.3 149.7,173.3 			"/>
			<polygon class="st5" points="145.1,178.8 140.8,173.8 146.4,176.6 145.1,178.8 			"/>
			<polygon class="st7" points="161.3,183.2 159.9,186 157.2,186.3 159.2,188.3 158.5,191.3 161.3,189.6 164,191.3 163.4,188.3 
				165.4,186.3 162.7,186 161.3,183.2 			"/>
			<path class="st2" d="M153.8,169.7c-0.2-0.4,0.3-1,1-1.3c0.7-0.3,1.5-0.2,1.6,0.3c0.2,0.4-0.3,1-1,1.3
				C154.7,170.2,154,170.1,153.8,169.7L153.8,169.7z"/>
			<path class="st2" d="M160,166.9c0-0.5,0.6-0.8,1.4-0.8c0.8,0,1.4,0.4,1.4,0.8c0,0.5-0.7,0.9-1.4,0.9
				C160.7,167.7,160,167.4,160,166.9L160,166.9z"/>
			<path class="st2" d="M165.1,168.3c0.2-0.4,1-0.5,1.7-0.1c0.7,0.3,1.1,1,0.9,1.4c-0.2,0.4-0.9,0.5-1.7,0.1
				C165.4,169.3,164.9,168.7,165.1,168.3L165.1,168.3z"/>
			<path class="st2" d="M154.4,178.5c0,0,1.2,0.5,1.6,0.4c0.3-0.1,0.5-0.6,0.5-0.6l0-0.6c0,0,0.3-0.4,0.5-0.5c0.2-0.2,0.7-0.3,1-0.3
				c0.3,0,0.4,0,0.6-0.2c0.2-0.2,0.8-1.7-0.3-2.5c-1.1-0.8-1.9-1.3-2.7-0.8c-0.8,0.5-1.6,1.5-1.8,1.7c-0.2,0.2-0.6,1.4-0.9,1.4
				c0,0.2-1.6,0.5-1.9,0.7c-0.2,0.2-1.4,0.7-2.1,1.4c-0.7,0.7-0.4,1.6,0.2,2.8c0.5,1.2,2.1,1,2.4,0.9c0.2-0.2,0.2-0.3,0.3-0.6
				c0.1-0.3,0.3-0.7,0.5-0.9c0.2-0.2,0.6-0.4,0.6-0.4l0.6,0.1c0,0,0.5,0,0.7-0.3C154.5,179.8,154.4,178.5,154.4,178.5L154.4,178.5z"
				/>
			<path class="st2" d="M168,178.8c0,0-0.1,1.3,0.1,1.6c0.2,0.3,0.8,0.3,0.8,0.3l0.6-0.1c0,0,0.4,0.1,0.7,0.3
				c0.2,0.2,0.5,0.5,0.6,0.8c0.1,0.3,0.1,0.4,0.4,0.5c0.3,0.2,1.9,0.2,2.3-1.1c0.4-1.3,0.6-2.2-0.1-2.8c-0.7-0.6-2-1.1-2.2-1.2
				c-0.3-0.1-1.6-0.2-1.6-0.4c-0.2,0-1-1.4-1.2-1.5c-0.2-0.2-1.1-1.1-2-1.5c-0.8-0.4-1.6,0.1-2.6,1c-1,0.9-0.3,2.4-0.1,2.5
				c0.3,0.2,0.4,0.1,0.7,0.2c0.3,0,0.8,0.1,1,0.2c0.3,0.1,0.5,0.5,0.5,0.5l0.1,0.6c0,0,0.2,0.5,0.5,0.6
				C166.9,179.3,168,178.8,168,178.8L168,178.8z"/>
			<path class="st2" d="M150,191.4c0,0,0.8-1,0.9-1.4c0-0.3-0.5-0.6-0.5-0.6l-0.5-0.2c0,0-0.3-0.4-0.4-0.6c-0.1-0.3-0.1-0.7,0-1
				c0-0.3,0.1-0.4,0-0.7c-0.1-0.3-1.4-1.3-2.5-0.5c-1.1,0.8-1.8,1.4-1.6,2.3c0.2,0.9,0.9,2,1.1,2.2c0.1,0.2,1.1,1,1.1,1.3
				c0.2,0.1,0,1.7,0,2c0.1,0.3,0.3,1.6,0.7,2.4c0.4,0.8,1.4,0.8,2.7,0.7c1.3-0.1,1.7-1.7,1.5-2c-0.1-0.3-0.2-0.3-0.4-0.5
				c-0.2-0.2-0.5-0.5-0.7-0.8c-0.1-0.2-0.1-0.7-0.1-0.7l0.3-0.5c0,0,0.2-0.5-0.1-0.8C151.2,191.6,150,191.4,150,191.4L150,191.4z"/>
			<path class="st2" d="M161,199.4c0,0-0.7-1.1-1-1.2c-0.3-0.1-0.8,0.2-0.8,0.2l-0.4,0.4c0,0-0.4,0.2-0.7,0.1c-0.3,0-0.7-0.1-1-0.3
				c-0.3-0.1-0.3-0.2-0.6-0.2c-0.3,0-1.7,1-1.2,2.2c0.4,1.3,0.8,2.1,1.7,2.2c0.9,0.1,2.2-0.3,2.5-0.3c0.3,0,1.3-0.8,1.5-0.6
				c0.2-0.2,1.6,0.5,1.9,0.5c0.3,0,1.6,0.3,2.5,0.1c0.9-0.1,1.2-1.1,1.5-2.3c0.3-1.3-1.1-2.1-1.4-2.1c-0.3,0-0.4,0.1-0.6,0.3
				c-0.2,0.2-0.7,0.3-0.9,0.4c-0.3,0.1-0.7-0.1-0.7-0.1l-0.4-0.4c0,0-0.5-0.3-0.8-0.2C161.6,198.3,161,199.4,161,199.4L161,199.4z"
				/>
			<path class="st2" d="M172.2,191.7c0,0-1.3,0.3-1.5,0.6c-0.2,0.3,0,0.8,0,0.8l0.3,0.5c0,0,0,0.5-0.1,0.7c-0.1,0.3-0.4,0.6-0.6,0.8
				c-0.2,0.2-0.3,0.2-0.4,0.5c-0.1,0.3,0.4,1.9,1.7,1.9c1.3,0,2.3-0.1,2.6-0.9c0.3-0.8,0.4-2.2,0.5-2.4c0-0.3-0.3-1.5-0.1-1.7
				c-0.1-0.2,1-1.4,1.1-1.6c0.1-0.3,0.7-1.4,0.9-2.3c0.1-0.9-0.6-1.5-1.8-2.2c-1.1-0.7-2.3,0.4-2.4,0.7c-0.1,0.3,0,0.4,0.1,0.7
				c0.1,0.3,0.1,0.8,0.1,1c0,0.3-0.3,0.7-0.3,0.7l-0.5,0.3c0,0-0.4,0.4-0.4,0.7C171.3,190.8,172.2,191.7,172.2,191.7L172.2,191.7z"
				/>
		</g>
		<g>
			<polyline class="st3" points="178.4,143 178.4,171.2 214.9,171.2 			"/>
			<polyline class="st3" points="212,203.9 178.4,203.9 178.4,239.4 			"/>
			<polyline class="st3" points="144.2,239.8 144.2,203.9 110.6,203.9 			"/>
			<polyline class="st3" points="107.5,171.2 144.2,171.2 144.2,143 			"/>
		</g>
		<g>
			<g>
				<path class="st6" d="M133.4,110.4l-2,2.1l-0.1,19c0,0,1.6,1.9,7,2.3c5.4,0.4,15.1-1.3,15.1-1.3l4.8,0.4l1.3,0.6l-0.1,1.2
					l0.2,1.6l0.9,1.1l2.5-0.1l0.9-1.1l0-1.8l-0.1-0.9l2.1-0.8l1.6-0.2l5,0.1l4.8,0.9l6.1,0.3c0,0,3.8-0.2,5.4-0.6
					c1.6-0.5,2.8-1.1,2.8-1.1l0.6-0.8l-0.1-18.4l-2.1-2.6l-0.2,4.4l0.3,13.6l-0.1,1.7l-2.3,0.9l-9.8,0.1l-7.3-0.5l-3.9,0.4l-2.8,1.1
					l-2.1,1.5l-3.7-2.6l-5.5-0.7l-11.4,1l-4.7-0.1l-3-1.2L133.4,110.4z"/>
				<path d="M161.5,134.3c-0.1,0-0.3,0-0.4-0.1c-1.1-0.8-0.5-1.2-2.8-2.4c-1.5-0.8-4-1-5.8-1c-1.6,0-3.3,0.1-5.3,0.4
					c-2.6,0.3-4.9,0.5-6.9,0.5c-5.1,0-6.6-1-6.8-1.1l-0.5-0.2c-0.2-0.1-0.3-0.3-0.3-0.5l0.1-19.3c0-0.2,0.1-0.4,0.4-0.5
					c0.2-0.1,0.5-0.1,0.6,0.1c0.7,0.6,1.1,1,1.2,1.1c0.3,0.2,2.5,1.4,6.2,1.4c1.7,0,3.5-0.3,5.4-0.7c1.4-0.4,2.8-0.5,4.3-0.5
					c6.1,0,10.6,3.1,10.8,3.3c0.2,0.1,0.3,0.3,0.3,0.5v18.7c0,0.2-0.1,0.4-0.3,0.5C161.7,134.2,161.6,134.3,161.5,134.3"/>
				<path d="M161.8,134.3c-0.1,0-0.2,0-0.3-0.1c-0.2-0.1-0.3-0.3-0.3-0.5v-18.7c0-0.2,0.1-0.4,0.3-0.5c0.2-0.1,4.7-3.3,10.8-3.3
					c1.5,0,2.9,0.2,4.3,0.5c1.9,0.5,3.7,0.7,5.4,0.7c3.7,0,5.9-1.2,6.3-1.5c0-0.1,0.5-0.5,1.2-1.1c0.2-0.2,0.4-0.2,0.6-0.1
					c0.2,0.1,0.3,0.3,0.4,0.5l0.1,19.3c0,0.2-0.1,0.4-0.3,0.5l-0.5,0.3c-0.1,0.1-1.6,1.1-6.7,1.1c-2,0-4.3-0.2-6.9-0.5
					c-1.9-0.2-3.7-0.4-5.3-0.4c-1.8,0-4.9,0.5-6,1.1c-2.1,1.2-1.5,1.4-2.6,2.3C162.1,134.2,162,134.3,161.8,134.3"/>
				<path d="M119.9,133.1L119.9,133.1c-0.5,0-0.9-0.4-1-0.9c-0.1-0.3-0.4-1.2-1-1.5c-0.8-0.5-0.9-1.3-0.9-1.8c0-0.1,0-0.2,0-0.2
					c0-0.4,0.3-0.8,0.9-1.1c0.5-0.4,0.9-1.3,1-1.6c0.2-0.6,1.1-1.1,1.8-0.4c0.2,0.1,0.3,0.3,0.4,0.4c0.3,0.3,0.4,0.4,0.8,0.4l2,0
					l4.1,0h0c0.2,0,0.3,0.1,0.4,0.2c0.1,0.1,0.2,0.3,0.2,0.4l0,4.3c0,0.3-0.2,0.6-0.6,0.6c0,0-5.4,0-6,0c-0.4,0-0.6,0.2-1.1,0.7
					l-0.1,0.1C120.5,133,120.2,133.1,119.9,133.1"/>
				<path d="M119.9,123.7L119.9,123.7c-0.5,0-0.9-0.4-1-0.9c-0.1-0.3-0.4-1.2-1-1.5c-0.8-0.5-0.9-1.3-0.9-1.7c0-0.1,0-0.2,0-0.2
					c0-0.4,0.3-0.8,0.9-1.1c0.5-0.4,0.9-1.3,1-1.6c0.2-0.6,1.1-1,1.8-0.4c0.2,0.1,0.3,0.3,0.4,0.4c0.3,0.3,0.4,0.4,0.8,0.4l2,0
					l4.1,0h0c0.2,0,0.3,0.1,0.4,0.2c0.1,0.1,0.2,0.3,0.2,0.4l0,4.3c0,0.3-0.3,0.6-0.6,0.6h0c0,0-5.4,0-6,0c-0.4,0-0.6,0.2-1.1,0.7
					l-0.1,0.1C120.5,123.6,120.2,123.7,119.9,123.7"/>
				<path d="M203.4,133.1c-0.3,0-0.6-0.1-0.9-0.4l-0.1-0.1c-0.6-0.5-0.7-0.7-1.1-0.7c-0.7,0-6,0-6,0h0c-0.3,0-0.6-0.3-0.6-0.6l0-4.3
					c0-0.2,0.1-0.3,0.2-0.4c0.1-0.1,0.3-0.2,0.4-0.2h0l4.1,0l2,0c0.4,0,0.5-0.1,0.8-0.4c0.1-0.1,0.3-0.3,0.4-0.4
					c0.7-0.7,1.6-0.2,1.8,0.4c0.1,0.3,0.5,1.3,1.1,1.6c0.5,0.4,0.8,0.8,0.9,1.1c0,0.1,0,0.1,0,0.2c0.1,0.5-0.1,1.3-0.9,1.8
					c-0.6,0.3-0.9,1.3-1,1.6C204.3,132.7,203.9,133.1,203.4,133.1"/>
				<path d="M203.4,123.7c-0.3,0-0.6-0.1-0.9-0.4l-0.1-0.1c-0.6-0.5-0.8-0.7-1.1-0.7c-0.6,0-6,0-6,0h0c-0.3,0-0.6-0.3-0.6-0.6l0-4.3
					c0-0.2,0.1-0.3,0.2-0.4c0.1-0.1,0.3-0.2,0.4-0.2l0,0l4.1,0l2,0c0.4,0,0.5-0.1,0.8-0.4c0.1-0.1,0.2-0.3,0.4-0.4
					c0.7-0.7,1.6-0.2,1.8,0.4c0.1,0.3,0.5,1.3,1.1,1.7c0.5,0.4,0.8,0.8,0.9,1.1c0,0.1,0,0.1,0,0.2c0.1,0.5-0.1,1.3-0.9,1.7
					c-0.6,0.3-0.9,1.2-1,1.6C204.3,123.3,203.9,123.7,203.4,123.7"/>
				<path d="M163.2,140.4c-0.7,0-1.2-0.1-1.2-0.1l-0.7,0c0,0-0.5,0.1-1.1,0.1c-3.3,0-3.9-1.5-4-2.4c0-0.4,0-0.7,0.2-1l-28.2,0.5
					c-0.2,0-0.3-0.1-0.4-0.2c-0.1-0.1-0.2-0.3-0.2-0.4l0.1-21.9c0-0.2,0.2-0.5,0.4-0.5c0,0,0.3-0.2,0.9-0.8c0.9-1,1.5-1.4,1.6-1.4
					c0.2-0.1,0.4,0,0.6,0.1c0.2,0.1,0.2,0.3,0.2,0.5l0,0.5l-0.1,17.9c0.4,0.4,2.2,2.4,8.2,2.4c2.2,0,5.5-0.2,8.3-0.6
					c2.5-0.4,4.7-0.6,6.6-0.6c4.6,0,5.5,0.7,5.7,1c0.1,0.2,0.2,0.4,0.1,0.7l-0.2,0.5c-0.1,0.2-0.4,0.7,0,1.8
					c0.3,0.6,0.9,0.8,1.4,0.8c0,0,0.1,0,0.1,0h0.5c0,0,0,0,0,0c0.5,0,1.1-0.2,1.4-0.8c0.5-1,0.1-1.6,0.1-1.6l-0.3-0.6
					c-0.1-0.2-0.1-0.5,0.1-0.7c0.2-0.3,1-1.1,5.6-1.1c1.9,0,4.1,0.2,6.6,0.6c2.9,0.4,5.5,0.6,7.7,0.6c5.9,0,8.3-1.9,8.7-2.3
					l-0.1-18.5c0-0.2,0.1-0.4,0.2-0.5c0.2-0.1,0.4-0.2,0.6-0.1c0.1,0,0.9,0.4,1.7,1.4c0.6,0.7,0.9,0.8,0.9,0.8
					c0.2,0.1,0.4,0.3,0.4,0.5l0,0.5l0.1,21.4c0,0.2-0.1,0.3-0.2,0.4c-0.1,0.1-0.3,0.2-0.4,0.2L167,137c0.1,0.3,0.2,0.6,0.2,1
					C167.1,138.9,166.5,140.4,163.2,140.4"/>
				<path class="st0" d="M158.9,131.1c0.2,0.1,0.6,0.3,2.5,1.4v-17.2c-1.5-0.6-5.4-2.9-10.3-2.9c-1.4,0-2.7,0.2-4,0.5
					c-2,0.5-3.9,0.8-5.7,0.8c-4.3,0-7.3-1.5-7.6-1.9c0,0,0,0,0,0l-0.1,18l0.2,0.1c0.1,0.1,1.8,0.9,6.5,0.9c2,0,4.2-0.2,6.7-0.5
					C152.7,129.6,156.8,129.9,158.9,131.1"/>
				<path class="st6" d="M117.9,128.9c0,0.1,0,0.1,0,0.2c0,0.1-0.1,0.4,0.3,0.6c1,0.5,1.5,1.7,1.6,2.3l0,0c0.6-0.6,1.2-1.1,2.1-1.1
					c0.6,0,4.1,0,5.7,0l0-1.6l0-1.8l-3.4,0l-2.2,0c-1,0-1.5-0.5-1.9-0.9c-0.1-0.1-0.2-0.2-0.3-0.3c-0.2,0.5-0.7,1.6-1.6,2.3
					C118.1,128.7,117.9,128.8,117.9,128.9"/>
				<path class="st6" d="M117.9,119.4c0,0.1,0,0.1,0,0.2c0,0.1-0.1,0.4,0.3,0.6c1,0.6,1.5,1.7,1.6,2.3l0,0c0.7-0.6,1.2-1.1,2.1-1.2
					c0.6,0,4.2,0,5.8,0l0-1.5V118l-3.6,0l-2.2,0c-1,0-1.5-0.5-1.9-0.9c-0.1-0.1-0.2-0.2-0.3-0.3c-0.2,0.5-0.7,1.6-1.6,2.3
					C118,119.2,117.9,119.4,117.9,119.4"/>
				<path class="st8" d="M157.3,119.3c-2.6-1.2-5.7-2.6-10.6-1.3c-3,0.8-7,1.3-9.2,0.3l0.5-1.1c1.6,0.7,4.9,0.5,8.4-0.4
					c5.2-1.4,8.8,0.2,11.4,1.4L157.3,119.3z"/>
				<path class="st8" d="M157.3,124.4c-2.6-1.2-5.7-2.6-10.6-1.3c-3,0.8-7,1.3-9.2,0.3l0.5-1.1c1.6,0.7,4.9,0.5,8.4-0.4
					c5.2-1.4,8.8,0.2,11.4,1.4L157.3,124.4z"/>
				<path class="st8" d="M157.3,128.6c-2.6-1.2-5.7-2.6-10.6-1.3c-3,0.8-7,1.3-9.2,0.3l0.5-1.1c1.6,0.7,4.9,0.5,8.4-0.4
					c5.2-1.4,8.8,0.2,11.4,1.4L157.3,128.6z"/>
				<path class="st0" d="M162,115.2v17.2c1.8-1,2.2-1.3,2.4-1.4c2.2-1.2,6.3-1.5,11.8-0.8c2.5,0.3,4.8,0.5,6.7,0.5
					c4.7,0,6.3-1.2,6.4-1.2l0.3-0.1l-0.1-18c0,0,0,0,0,0.1c-0.3,0.4-3.2,2.2-7.5,2.2c-1.8,0-3.8-0.3-5.7-0.8c-1.3-0.3-2.6-0.5-4-0.5
					C166.8,112.4,162,115.2,162,115.2z"/>
				<path class="st6" d="M199.3,130.8c1,0,1.8,0,2.1,0c0.9,0,1.4,0.5,2.1,1.1l0,0c0.2-0.6,0.7-1.7,1.6-2.3c0.4-0.2,0.3-0.6,0.3-0.6
					c0-0.1,0-0.1,0-0.2c-0.1-0.1-0.2-0.2-0.4-0.3c-0.9-0.6-1.4-1.8-1.6-2.3c-0.1,0.1-0.2,0.2-0.3,0.3c-0.4,0.4-0.9,0.9-1.9,0.9
					l-2.2,0l-3.4,0l0,3.4C196.7,130.8,198,130.8,199.3,130.8"/>
				<path class="st6" d="M199.3,121.4c1,0,1.8,0,2.1,0c0.9,0,1.4,0.5,2.1,1.2l0,0c0.2-0.6,0.7-1.7,1.6-2.3c0.3-0.2,0.3-0.6,0.3-0.6
					c0-0.1,0-0.1,0-0.2c-0.1-0.1-0.2-0.2-0.4-0.3c-0.9-0.6-1.4-1.8-1.6-2.3c-0.1,0.1-0.2,0.2-0.3,0.3c-0.4,0.4-0.9,0.9-1.9,0.9
					l-2.2,0l-3.5,0l0,3.4C196.6,121.4,198,121.4,199.3,121.4"/>
				<path class="st0" d="M162,139.1c0.1,0,0.5,0.1,1.1,0.1c1,0,2.7-0.2,2.8-1.3c0.1-0.6-0.5-1.1-0.5-1.1c-0.2-0.2-0.3-0.4-0.2-0.7
					c0.1-0.2,0.3-0.4,0.6-0.4c0,0,0,0,0,0l29,0.5l-0.1-20.9c-0.3-0.2-0.9-0.5-1.3-1c-0.2-0.3-0.6-0.5-0.9-0.7l0.1,17.7
					c0,0.1,0,0.2-0.1,0.3c-0.2,0.3-1.7,2.6-9.3,2.6c-2.3,0-5-0.2-7.9-0.7c-2.5-0.4-4.6-0.6-6.4-0.6c-2.9,0-4.2,0.5-4.6,0.8l0,0
					c0.2,0.3,0.5,1.2-0.1,2.5c-0.4,0.9-1.3,1.4-2.5,1.4c-1.3,0-2.2-0.5-2.6-1.4c-0.5-1.1-0.3-2-0.1-2.5c-0.5-0.3-1.7-0.8-4.6-0.8
					c-1.8,0-3.9,0.2-6.4,0.6c-2.9,0.4-5.6,0.7-7.9,0.7c-7.6,0-9.4-2.3-9.5-2.6c-0.1-0.1-0.1-0.2-0.1-0.3l0.1-17.7
					c-0.3,0.2-0.4,0.4-0.6,0.7c-0.5,0.5-1.2,0.8-1.4,1l0,0.2l-0.1,20.7l29.1-0.5c0,0,0,0,0,0c0.3,0,0.5,0.2,0.6,0.4
					c0.1,0.2,0,0.5-0.2,0.7c0,0-0.5,0.5-0.5,1.1c0.1,1.1,1.8,1.3,2.8,1.3c0.6,0,1-0.1,1-0.1L162,139.1z"/>
				<path class="st8" d="M166.1,119.3l-0.5-1.1c2.6-1.2,6.1-2.8,11.4-1.4c3.5,0.9,6.8,1.1,8.4,0.4l0.5,1.1c-2.2,1-6.2,0.5-9.2-0.3
					C171.8,116.7,168.6,118.2,166.1,119.3"/>
				<path class="st8" d="M166.1,124.4l-0.5-1.1c2.6-1.2,6.1-2.8,11.4-1.4c3.5,0.9,6.8,1.1,8.4,0.4l0.5,1.1c-2.2,1-6.2,0.4-9.2-0.3
					C171.8,121.8,168.6,123.2,166.1,124.4"/>
				<path class="st8" d="M166.1,128.6l-0.5-1.1c2.6-1.2,6.1-2.8,11.4-1.4c3.5,0.9,6.8,1.1,8.4,0.4l0.5,1.1c-2.2,1-6.2,0.5-9.2-0.3
					C171.8,126,168.6,127.4,166.1,128.6"/>
			</g>
			<line class="st9" x1="133.4" y1="110.4" x2="131.1" y2="113"/>
			<line class="st9" x1="189.8" y1="110.4" x2="192.2" y2="113"/>
		</g>
	</g>
</g>
</svg>
