<?xml version="1.0" encoding="utf-8"?>
<!-- Generator: Adobe Illustrator 18.1.1, SVG Export Plug-In . SVG Version: 6.00 Build 0)  -->
<!DOCTYPE svg PUBLIC "-//W3C//DTD SVG 1.1//EN" "http://www.w3.org/Graphics/SVG/1.1/DTD/svg11.dtd">
<svg version="1.1" id="Capa_1" xmlns="http://www.w3.org/2000/svg" xmlns:xlink="http://www.w3.org/1999/xlink" x="0px" y="0px" width="16px" height="16px"
	 viewBox="-379 256.7 82.6 82.6" enable-background="new -379 256.7 82.6 82.6" xml:space="preserve">
<g>
	<path fill="#999999" d="M-373.8,276.6l0.2,42.8c0,0.6,0.3,1.1,0.8,1.3l34.2,17.9c0.2,0.1,0.5,0.2,0.7,0.2c0,0,0,0,0,0
		c0.1,0.1,0.2,0.2,0.4,0.3c0.2,0.1,0.5,0.2,0.8,0.2c0.2,0,0.5-0.1,0.7-0.2l33.7-18.3c0.5-0.3,0.8-0.8,0.8-1.3V275c0,0,0,0,0,0
		c0,0,0,0,0,0c0,0,0-0.1,0-0.1c0-0.1,0-0.2,0-0.2c0-0.1,0-0.1-0.1-0.2c0-0.1-0.1-0.1-0.1-0.2c0,0-0.1-0.1-0.1-0.1
		c0-0.1-0.1-0.1-0.2-0.2c0,0-0.1-0.1-0.1-0.1c0,0-0.1-0.1-0.1-0.1c0,0-0.1,0-0.1,0c0,0-0.1,0-0.1,0l-34.8-16.8
		c-0.4-0.2-0.9-0.2-1.3,0l-34.4,17.9c-0.5,0.3-0.8,0.8-0.8,1.3c0,0,0,0,0,0C-373.8,276.2-373.8,276.4-373.8,276.6z M-306.5,275.2
		l-30.3,16.9l-32.1-16l31.1-16.3L-306.5,275.2z M-335.3,335.3v-40.6l30.7-17.2v41.1L-335.3,335.3z"/>
</g>
</svg>
