<?xml version="1.0" encoding="utf-8"?>
<!-- Generator: Adobe Illustrator 21.0.0, SVG Export Plug-In . SVG Version: 6.00 Build 0)  -->
<svg version="1.1" xmlns="http://www.w3.org/2000/svg" xmlns:xlink="http://www.w3.org/1999/xlink" x="0px" y="0px" width="64px"
	 height="64px" viewBox="0 0 64 64" enable-background="new 0 0 64 64" xml:space="preserve">
<g id="Layer_1">
</g>
<g id="Layer_2">
</g>
<g id="messages">
</g>
<g id="messages_x5F_hover">
</g>
<g id="profile">
</g>
<g id="profile_x5F_hover">
</g>
<g id="view_x5F_hover">
</g>
<g id="view_x5F_feedback">
</g>
<g id="no_x5F_feedback_x5F_to_x5F_view">
</g>
<g id="download_x5F_hover">
</g>
<g id="download">
</g>
<g id="no_x5F_feedback_x5F_download">
</g>
<g id="link_x5F_hover">
</g>
<g id="assignment_x5F_link_copy">
</g>
<g id="Layer_21">
</g>
<g id="home_x5F_hover">
</g>
<g id="home_1_">
</g>
<g id="edit_x5F_profile">
</g>
<g id="preferences">
</g>
<g id="notifications">
</g>
<g id="my_x5F_posts">
</g>
<g id="logout">
</g>
<g id="assignment">
</g>
<g id="coursework">
</g>
<g id="forum">
</g>
<g id="quiz">
</g>
<g id="book">
</g>
<g id="database">
</g>
<g id="wiki">
</g>
<g id="choice">
</g>
<g id="workshop">
</g>
<g id="certificate">
</g>
<g id="scheduler">
</g>
<g id="equella">
</g>
<g id="file">
</g>
<g id="folder">
</g>
<g id="ims_x5F_content_x5F_package">
	<g>
		<path fill="#FFFFFF" d="M60.8833008,31.9998379h-8.590332h-8.1323242h-1.5102539
			c0.984375,0,1.7823906-1.1606445,1.7823906-2.5926113V14.5418291h0.2228165c0.984539,0,1.7825546-1.1608067,1.7825546-2.5926104
			v-1.7683916c0-1.4318037-0.7980156-2.5926108-1.7825546-2.5926108h-8.590332h-8.1323223h-8.590332
			c-0.984375,0-1.7823906,1.1608071-1.7823906,2.5926108v1.7683916c0,1.4318037,0.7980156,2.5926104,1.7823906,2.5926104h0.2228184
			v14.8653975c0,1.4319668,0.7980137,2.5926113,1.7823887,2.5926113h-1.5102539h-8.1323233h-8.590332
			c-0.984375,0-1.7823894,1.1608067-1.7823894,2.5927715v1.7682304c0,1.4319649,0.7980144,2.5926094,1.7823894,2.5926094h0.2228189
			v14.8655624c0,1.4318008,0.7980144,2.5926094,1.7823894,2.5926094h21.3025723c0.984375,0,1.7823887-1.1608086,1.7823887-2.5926094
			V38.9534492h0.2228184c0.984539,0,1.7825527-1.1606445,1.7825527-2.5926094v-1.7682304
			c0-1.4319649-0.7980137-2.5927715-1.7825527-2.5927715h7.142416c-0.984375,0-1.7823906,1.1608067-1.7823906,2.5927715v1.7682304
			c0,1.4319649,0.7980156,2.5926094,1.7823906,2.5926094h0.2228203v14.8655624c0,1.4318008,0.7980118,2.5926094,1.7823868,2.5926094
			h21.3025742c0.984375,0,1.7823868-1.1608086,1.7823868-2.5926094V38.9534492h0.2228203
			c0.984539,0,1.7825508-1.1606445,1.7825508-2.5926094v-1.7682304
			C62.6658516,33.1606445,61.8678398,31.9998379,60.8833008,31.9998379z"/>
		<g>
			<g>
				<g opacity="0.3">
					<g>
						<path fill="#32548C" d="M18.8376236,45.9212494h-6.1323891c-0.5522842,0-1-0.4477158-1-1V31.9998875h8.1323891v12.9213619
							C19.8376236,45.4735336,19.3899078,45.9212494,18.8376236,45.9212494z"/>
					</g>
				</g>
				<g opacity="0.3">
					<g>
						<path fill="#32548C" d="M51.2930298,45.9212494h-6.1323891c-0.5522842,0-1-0.4477158-1-1V31.9998875h8.1323891v12.9213619
							C52.2930298,45.4735336,51.845314,45.9212494,51.2930298,45.9212494z"/>
					</g>
				</g>
			</g>
			<g>
				<g opacity="0.3">
					<g>
						<path fill="#32548C" d="M35.0653267,21.5095501h-6.1323891c-0.5522842,0-1-0.4477139-1-1v-12.92136h8.1323891v12.92136
							C36.0653267,21.0618362,35.6176109,21.5095501,35.0653267,21.5095501z"/>
					</g>
				</g>
				<path fill="#32548C" d="M60.8828125,30.6660156h-15.289875c0.1036758-0.3959961,0.1726875-0.8138027,0.1726875-1.2591152
					V18.7180996c0-0.7369804-0.5963554-1.333334-1.3333321-1.333334c-0.7369804,0-1.3333359,0.5963535-1.3333359,1.333334
					v10.6888008c0,0.7695313-0.3359375,1.2148438-0.4479141,1.2591152h-7.0807304c-0.0024414,0-0.0045586,0.0008144-0.007,0.0008144
					l-7.1220684,0.0009766c-0.0048828,0-0.0092773-0.001791-0.0141602-0.001791h-7.0594082
					c-0.1337891-0.0496426-0.4692383-0.4923496-0.4692383-1.2591152v-13.531249h5.7005215v3.041667
					c0,2.2018223,1.369791,3.9257813,3.1171875,3.9257813h4.567709c1.7473946,0,3.1145821-1.723959,3.1145821-3.9257813v-6.630209
					c0-0.7369795-0.5963554-1.333333-1.3333321-1.333333c-0.7369804,0-1.3333359,0.5963535-1.3333359,1.333333v6.630209
					c0,0.7682285-0.3359375,1.2148438-0.4479141,1.2591133l-4.5468769,0.0026054
					c-0.1328125-0.046875-0.4713535-0.4921875-0.4713535-1.2617188V8.9212236l15.3671875-0.0026035
					c0.1354179,0.046875,0.4713554,0.4934893,0.4713554,1.2617188v1.7682285c0,0.7695313-0.3359375,1.2161465-0.4479179,1.260417
					h-3.7916679c-0.7369766,0-1.3333321,0.5963545-1.3333321,1.333333c0,0.7369795,0.5963554,1.333334,1.3333321,1.333334H44.65625
					c1.7473946,0,3.1145821-1.7252607,3.1145821-3.927084v-1.7682285c0-2.2018232-1.3671875-3.9257817-3.1145821-3.9257817
					H27.932291H19.34375c-1.7473965,0-3.1171875,1.7239585-3.1171875,3.9257817v1.7682285
					c0,1.7039394,0.8243809,3.1116543,2.005209,3.6660156v13.7923174c0,0.4453125,0.0691719,0.8631191,0.1730137,1.2591152
					h-6.6990557H3.1145833C1.3671875,30.6660156,0,32.3912773,0,34.5930977v1.7682304
					c0,1.7049141,0.8238932,3.1124687,2.0052083,3.6658516v13.7911797c0,2.2018242,1.3671875,3.9270821,3.1145833,3.9270821
					h21.302084c1.7473965,0,3.1171875-1.7252579,3.1171875-3.9270821V43.1295586
					c0-0.7369804-0.5963535-1.3333359-1.333334-1.3333359c-0.7369785,0-1.3333321,0.5963554-1.3333321,1.3333359v10.6888008
					c0,0.7695313-0.3385429,1.2161446-0.4505215,1.2604179L5.143229,55.0813789
					c-0.1354165-0.046875-0.471354-0.4934883-0.471354-1.2630196v-13.53125h5.7005205v3.0416679
					c0,2.2018204,1.3671875,3.9257813,3.114584,3.9257813h4.567708c1.7473965,0,3.1171875-1.7239609,3.1171875-3.9257813v-6.6302109
					c0-0.7369766-0.5963535-1.3333321-1.333334-1.3333321c-0.7369785,0-1.3333321,0.5963554-1.3333321,1.3333321v6.6302109
					c0,0.7695313-0.3385429,1.2148438-0.4505215,1.2591133l-4.546875,0.0026054
					c-0.1328125-0.046875-0.46875-0.4921875-0.46875-1.2617188v-9.9960938l8.298502-0.0014648
					c0.0039063,0,0.0074883,0.0014648,0.0113945,0.0014648h7.0594063c0.1337891,0.0496407,0.4692383,0.4936523,0.4692383,1.2604141
					v1.7682304c0,0.7695313-0.338541,1.2148438-0.4505196,1.2591133h-3.7890625c-0.7369804,0-1.333334,0.5963554-1.333334,1.3333359
					c0,0.7369766,0.5963535,1.3333321,1.333334,1.3333321h3.7890625c1.7473946,0,3.1171875-1.7239571,3.1171875-3.9257813
					v-1.7682304c0-0.4458008-0.0693359-0.8640938-0.1733398-1.2604141h1.2576504
					c-0.1038437,0.3963203-0.1728516,0.8146133-0.1728516,1.2604141v1.7682304c0,1.7049141,0.8238907,3.1124687,2.0052071,3.6658516
					v13.7911797c0,2.2018242,1.3671875,3.9270821,3.1145821,3.9270821h21.3020859
					c1.7473946,0,3.1171875-1.7252579,3.1171875-3.9270821V43.1295586c0-0.7369804-0.5963554-1.3333359-1.3333359-1.3333359
					c-0.7369766,0-1.3333321,0.5963554-1.3333321,1.3333359v10.6888008c0,0.7695313-0.3385429,1.2161446-0.4505196,1.2604179
					l-21.2786484,0.0026016c-0.1354141-0.046875-0.4713516-0.4934883-0.4713516-1.2630196v-13.53125h5.7005196v3.0416679
					c0,2.2018204,1.3671875,3.9257813,3.1145821,3.9257813h4.5677109c1.7473946,0,3.1171875-1.7239609,3.1171875-3.9257813
					v-6.6302109c0-0.7369766-0.5963554-1.3333321-1.3333359-1.3333321c-0.7369766,0-1.3333321,0.5963554-1.3333321,1.3333321
					v6.6302109c0,0.7695313-0.3385429,1.2148438-0.4505196,1.2591133l-4.546875,0.0026054
					c-0.1328125-0.046875-0.46875-0.4921875-0.46875-1.2617188v-9.9960938l15.3671875-0.0026054
					c0.1328125,0.046875,0.4713516,0.4934883,0.4713516,1.2630196v1.7682304c0,0.7695313-0.3385391,1.2148438-0.4505196,1.2591133
					H57.09375c-0.7369804,0-1.3333321,0.5963554-1.3333321,1.3333359c0,0.7369766,0.5963516,1.3333321,1.3333321,1.3333321
					h3.7890625C62.6302071,40.2871094,64,38.5631523,64,36.3613281v-1.7682304
					C64,32.3912773,62.6302071,30.6660156,60.8828125,30.6660156z M18.8932285,10.1803389
					c0-0.7695313,0.3385429-1.2148438,0.4505215-1.2591152h7.255209v4.2880859l-7.0213223,0.0022793
					c-0.0043945,0-0.0081387-0.0026045-0.0125332-0.0026045c-0.0045567,0-0.0083008,0.0026045-0.0126953,0.0026045H19.364584
					c-0.1328125-0.046875-0.4713554-0.4934902-0.4713554-1.2630215V10.1803389z M3.3510742,37.6230469
					c-0.0043945,0-0.0081379-0.0026054-0.0125325-0.0026054c-0.0045574,0-0.0083008,0.0026054-0.0126953,0.0026054H3.1380208
					c-0.1354165-0.046875-0.471354-0.4934883-0.471354-1.2617188v-1.7682304c0-0.7695313,0.3359375-1.2161446,0.4479165-1.2604141
					h7.2578125v4.2880859L3.3510742,37.6230469z M35.8068047,37.6230469c-0.0043945,0-0.0081406-0.0026054-0.0125351-0.0026054
					c-0.0045547,0-0.0083008,0.0026054-0.0126953,0.0026054H35.59375c-0.1354179-0.046875-0.4713554-0.4934883-0.4713554-1.2617188
					v-1.7682304c0-0.7695313,0.3359375-1.2161446,0.4479179-1.2604141h7.0807304h0.1770821v4.2880859L35.8068047,37.6230469z"/>
			</g>
		</g>
	</g>
</g>
<g id="label">
</g>
<g id="lightbox_x5F_gallery">
</g>
<g id="nln_x5F_learning_x5F_object">
</g>
<g id="page">
</g>
<g id="subpage">
</g>
<g id="tab_x5F_display">
</g>
<g id="new_x5F_label">
</g>
<g id="url">
</g>
<g id="_x33_60_x5F_degree_x5F_diagnostics">
</g>
<g id="adobe_x5F_connect">
</g>
<g id="attendance_x5F_register">
</g>
<g id="booking">
</g>
<g id="chat">
</g>
<g id="checklist">
</g>
<g id="external_x5F_tool">
</g>
<g id="face_x5F_to_x5F_face">
</g>
<g id="forumNG">
</g>
<g id="glossary">
</g>
<g id="group_x5F_choice">
</g>
<g id="journal">
</g>
<g id="mediasite_x5F_content">
</g>
<g id="nanogong_x5F_voice">
</g>
<g id="questionnaire">
</g>
<g id="scorm_x5F_package">
</g>
<g id="survey">
</g>
<g id="tutorship">
</g>
<g id="advanced_x5F_forum">
</g>
<g id="subcourse">
</g>
<g id="lesson_1_">
</g>
<g id="adaptive_x5F_quiz">
</g>
<g id="ou_x5F_wiki">
</g>
<g id="support_x5F_tracker">
</g>
<g id="view_x5F_comments">
</g>
<g id="no_x5F_comment">
</g>
<g id="attention">
</g>
<g id="search">
</g>
<g id="submitted">
</g>
<g id="feedback">
</g>
<g id="T_x5F_I_x5F_N">
</g>
</svg>
