<?xml version="1.0" encoding="utf-8"?>
<!-- Generator: Adobe Illustrator 21.0.0, SVG Export Plug-In . SVG Version: 6.00 Build 0)  -->
<svg version="1.1" xmlns="http://www.w3.org/2000/svg" xmlns:xlink="http://www.w3.org/1999/xlink" x="0px" y="0px" width="64px"
	 height="64px" viewBox="0 0 64 64" enable-background="new 0 0 64 64" xml:space="preserve">
<g id="Layer_1">
</g>
<g id="Layer_2">
</g>
<g id="messages">
</g>
<g id="messages_x5F_hover">
</g>
<g id="profile">
</g>
<g id="profile_x5F_hover">
</g>
<g id="view_x5F_hover">
</g>
<g id="view_x5F_feedback">
</g>
<g id="no_x5F_feedback_x5F_to_x5F_view">
</g>
<g id="download_x5F_hover">
</g>
<g id="download">
</g>
<g id="no_x5F_feedback_x5F_download">
</g>
<g id="link_x5F_hover">
</g>
<g id="assignment_x5F_link_copy">
</g>
<g id="Layer_21">
</g>
<g id="home_x5F_hover">
</g>
<g id="home_1_">
</g>
<g id="edit_x5F_profile">
</g>
<g id="preferences">
</g>
<g id="notifications">
</g>
<g id="my_x5F_posts">
</g>
<g id="logout">
</g>
<g id="assignment">
</g>
<g id="coursework">
</g>
<g id="forum">
</g>
<g id="quiz">
</g>
<g id="book">
</g>
<g id="database">
</g>
<g id="wiki">
</g>
<g id="choice">
</g>
<g id="workshop">
</g>
<g id="certificate">
</g>
<g id="scheduler">
</g>
<g id="equella">
</g>
<g id="file">
</g>
<g id="folder">
</g>
<g id="ims_x5F_content_x5F_package">
</g>
<g id="label">
</g>
<g id="lightbox_x5F_gallery">
</g>
<g id="nln_x5F_learning_x5F_object">
</g>
<g id="page">
</g>
<g id="subpage">
</g>
<g id="tab_x5F_display">
</g>
<g id="new_x5F_label">
</g>
<g id="url">
</g>
<g id="_x33_60_x5F_degree_x5F_diagnostics">
</g>
<g id="adobe_x5F_connect">
</g>
<g id="attendance_x5F_register">
</g>
<g id="booking">
</g>
<g id="chat">
	<g>
		<g>
			<path fill="#FFFFFF" d="M62.6672096,36.4284782c0-10.1001759-9.5911522-18.3691177-21.7339478-19.0524712
				c-0.2263451-1.607523-2.0968094-4.1543636-2.0968094-4.1543636c-3.8281517-4.0486574-9.827177-6.6558175-16.5711956-6.6558175
				c-11.5602932,0-20.9319782,7.6611876-20.9319782,17.1116352c0,4.2755089,1.9311635,8.1754265,5.1023598,11.174612
				L4.9708705,42.498291l6.569406-4.1458092c1.5018711,0.7350693,3.1228638,1.3244896,4.8349886,1.7392998l0.0061836-0.0074844
				c2.0877132,8.7972336,11.5516682,15.4423103,22.9236774,15.4423103c4.3812866,0,8.4660683-1.0040703,11.9700584-2.7194481
				l7.3321381,4.6270142l-1.6346626-8.5337677l2.9729881-3.5425529
				C61.6803894,42.6943855,62.6672096,39.657444,62.6672096,36.4284782z"/>
		</g>
		<g>
			<path fill="#32548C" d="M58.6076469,58.767128c-0.2473526,0-0.494709-0.0690002-0.7108192-0.2056961l-6.7150536-4.23629
				c-3.6478424,1.6598854-7.7357216,2.5347443-11.8756714,2.5347443c-13.6175747,0-24.6965027-9.1651764-24.6965027-20.431572
				s11.078927-20.4315681,24.6965027-20.4315681C52.9210739,15.9967451,64,25.1619205,64,36.4283142
				c0,3.366642-1.015461,6.7059402-2.9370232,9.6572838c-0.4009743,0.6183891-1.2289658,0.7915382-1.8434486,0.3892593
				c-0.6170883-0.4009743-0.7915382-1.2276649-0.3905602-1.8447533c1.6611862-2.5529671,2.5047989-5.3129349,2.5047989-8.2017899
				c0-9.7952785-9.8812027-17.765337-22.0276642-17.765337s-22.0302696,7.9700584-22.0302696,17.765337
				s9.8838081,17.7653389,22.0302696,17.7653389c3.9941406,0,7.9309998-0.8930817,11.383564-2.5842133
				c0.4113922-0.2017899,0.9034996-0.1796608,1.2966652,0.0703011l4.7336044,2.9864922l-1.0571213-5.5147285
				c-0.1379967-0.7238388,0.3358841-1.4216423,1.0597229-1.5609436c0.7082176-0.1393013,1.4216461,0.3358841,1.5596428,1.0584221
				l1.6351509,8.5337677c0.0989418,0.522049-0.1197739,1.053215-0.5572014,1.3526421
				C59.133606,58.6890144,58.8706284,58.767128,58.6076469,58.767128z"/>
		</g>
		<g>
			<path fill="#32548C" d="M4.9705453,43.8307571c-0.2629781,0-0.5259562-0.0781136-0.7524819-0.2317352
				c-0.4374287-0.299427-0.6561432-0.8305931-0.5572009-1.3526421l1.3305125-6.9441833
				C1.7679415,32.0162735,0,27.9153786,0,23.6777859C0,13.5075674,9.987958,5.2328725,22.2646046,5.2328725
				c6.8947124,0,13.2895031,2.5777054,17.5414181,7.0717654c0.5051231,0.5350695,0.4816895,1.3786821-0.0520782,1.8851099
				c-0.5363693,0.5077295-1.3773766,0.4829941-1.8851089-0.0520744c-3.7519913-3.9641991-9.4385662-6.2385683-15.6042309-6.2385683
				c-10.8055325,0-19.5983715,7.0782747-19.5983715,15.7786808c0,3.7233524,1.6637914,7.3477631,4.6867371,10.2053699
				c0.3306751,0.3124504,0.4790883,0.7720108,0.3931651,1.2198563l-0.8878765,4.6268501l3.9707084-2.5048027
				c0.3905611-0.2486572,0.880065-0.2733917,1.2966633-0.0703011c1.4346628,0.7017097,2.9682674,1.2550049,4.5643606,1.6416626
				c0.7160301,0.1731491,1.1534595,0.8943863,0.9816113,1.6104126c-0.1744499,0.7147293-0.8852711,1.1586685-1.6117153,0.9803085
				c-1.5336056-0.3723335-3.0177393-0.8813667-4.4263639-1.5179787L5.6813669,43.625061
				C5.4652562,43.7617569,5.2179008,43.8307571,4.9705453,43.8307571z"/>
		</g>
		<g>
			<g opacity="0.3">
				<circle fill="#32548C" cx="26.2714596" cy="36.4284554" r="3.6049292"/>
			</g>
			<g>
				<path fill="#32548C" d="M26.2717648,41.3663139c-2.7235146,0-4.9392986-2.215786-4.9392986-4.9379997
					c0-2.7222099,2.2157841-4.9379978,4.9392986-4.9379978c0.630106,0,1.2445908,0.1184711,1.8304329,0.3515053
					c0.6821804,0.2720928,1.0154591,1.0480061,0.744669,1.7314892c-0.2707882,0.6834831-1.0414963,1.020668-1.7340927,0.7446709
					c-1.4138317-0.5637093-3.1140766,0.5884476-3.1140766,2.1103325c0,1.2315712,1.0414982,2.2717667,2.2730675,2.2717667
					c1.2315712,0,2.2704639-1.0401955,2.2704639-2.2717667c0-0.7368584,0.5962582-1.3331146,1.3331165-1.3331146
					c0.7368603,0,1.3331165,0.5962563,1.3331165,1.3331146C31.2084618,39.150528,28.9926777,41.3663139,26.2717648,41.3663139z"/>
			</g>
			<g opacity="0.3">
				<circle fill="#32548C" cx="39.304985" cy="36.4284554" r="3.6049292"/>
			</g>
			<g>
				<path fill="#32548C" d="M39.3061028,41.3663139c-2.7235146,0-4.9393005-2.215786-4.9393005-4.9379997
					c0-2.7222099,2.215786-4.9379978,4.9393005-4.9379978c0.624897,0,1.2393799,0.1184711,1.8278275,0.3502045
					c0.6847839,0.2707882,1.0180626,1.0467052,0.7472725,1.7301884c-0.2733917,0.6847839-1.0467033,1.0193634-1.7314873,0.7485733
					c-1.4242477-0.5715218-3.1166801,0.5871468-3.1166801,2.1090317c0,1.2315712,1.0414963,2.2717667,2.2730675,2.2717667
					s2.270462-1.0401955,2.270462-2.2717667c0-0.7368584,0.5962601-1.3331146,1.3331184-1.3331146
					s1.3331146,0.5962563,1.3331146,1.3331146C44.2427979,39.150528,42.0270157,41.3663139,39.3061028,41.3663139z"/>
			</g>
			<g opacity="0.3">
				<circle fill="#32548C" cx="52.3385086" cy="36.4284554" r="3.6049292"/>
			</g>
			<g>
				<path fill="#32548C" d="M52.3378372,41.3663139c-2.7209129,0-4.9366989-2.215786-4.9366989-4.9379997
					c0-2.7222099,2.215786-4.9379978,4.9366989-4.9379978c0.6301041,0,1.2445869,0.1184711,1.8304291,0.3515053
					c0.6821823,0.2720928,1.015461,1.0480061,0.7446709,1.7314892s-1.0414963,1.020668-1.7340927,0.7446709
					c-1.4112282-0.5637093-3.1114731,0.5884476-3.1114731,2.1103325c0,1.2315712,1.0388947,2.2717667,2.2704659,2.2717667
					c1.2315674,0,2.2730675-1.0401955,2.2730675-2.2717667c0-0.7368584,0.5962563-1.3331146,1.3331146-1.3331146
					s1.3331184,0.5962563,1.3331184,1.3331146C57.2771378,39.150528,55.0613518,41.3663139,52.3378372,41.3663139z"/>
			</g>
		</g>
	</g>
</g>
<g id="checklist">
</g>
<g id="external_x5F_tool">
</g>
<g id="face_x5F_to_x5F_face">
</g>
<g id="forumNG">
</g>
<g id="glossary">
</g>
<g id="group_x5F_choice">
</g>
<g id="journal">
</g>
<g id="mediasite_x5F_content">
</g>
<g id="nanogong_x5F_voice">
</g>
<g id="questionnaire">
</g>
<g id="scorm_x5F_package">
</g>
<g id="survey">
</g>
<g id="tutorship">
</g>
<g id="advanced_x5F_forum">
</g>
<g id="subcourse">
</g>
<g id="lesson_1_">
</g>
<g id="adaptive_x5F_quiz">
</g>
<g id="ou_x5F_wiki">
</g>
<g id="support_x5F_tracker">
</g>
<g id="view_x5F_comments">
</g>
<g id="no_x5F_comment">
</g>
<g id="attention">
</g>
<g id="search">
</g>
<g id="submitted">
</g>
<g id="feedback">
</g>
<g id="T_x5F_I_x5F_N">
</g>
</svg>
