<?xml version="1.0" encoding="UTF-8" standalone="no"?>
<svg width="32px" height="32px" viewBox="0 0 32 32" version="1.1" xmlns="http://www.w3.org/2000/svg" xmlns:xlink="http://www.w3.org/1999/xlink">
    <!-- Generator: Sketch 44.1 (41455) - http://www.bohemiancoding.com/sketch -->
    <title>pix_plugins/mod/glossary/icon1</title>
    <desc>Created with Sketch.</desc>
    <defs></defs>
    <g id="Page-1" stroke="none" stroke-width="1" fill="none" fill-rule="evenodd">
        <g id="pix_plugins/mod/glossary/icon1">
            <g id="icon" fill="#F7882F">
                <circle id="Oval" cx="16" cy="16" r="16"></circle>
            </g>
            <path d="M15.1308594,22.1855469 L13.9189453,18.8154297 L9.27880859,18.8154297 L8.09179688,22.1855469 L6,22.1855469 L10.5405273,10 L12.6987305,10 L17.2392578,22.1855469 L15.1308594,22.1855469 Z M13.3959961,17.1054688 L12.2587891,13.8017578 C12.1757808,13.5804025 12.0609545,13.2317732 11.9143066,12.7558594 C11.7676588,12.2799455 11.6666669,11.9313162 11.6113281,11.7099609 C11.4619133,12.3906284 11.2433283,13.1349243 10.9555664,13.9428711 L9.85986328,17.1054688 L13.3959961,17.1054688 Z M25.3779297,22.1855469 L24.987793,20.9072266 L24.9213867,20.9072266 C24.4786762,21.4661486 24.0332054,21.8465973 23.5849609,22.048584 C23.1367165,22.2505707 22.5612014,22.3515625 21.8583984,22.3515625 C20.9563757,22.3515625 20.2521998,22.1080754 19.7458496,21.6210938 C19.2394994,21.1341121 18.9863281,20.4451542 18.9863281,19.5541992 C18.9863281,18.6079054 19.3377244,17.8940454 20.0405273,17.4125977 C20.7433303,16.9311499 21.8141204,16.6682945 23.2529297,16.6240234 L24.8383789,16.5742188 L24.8383789,16.0844727 C24.8383789,15.4978812 24.7014174,15.0593276 24.4274902,14.7687988 C24.1535631,14.47827 23.728844,14.3330078 23.1533203,14.3330078 C22.6829404,14.3330078 22.2319358,14.4021803 21.800293,14.5405273 C21.3686502,14.6788744 20.9536153,14.8421215 20.5551758,15.0302734 L19.9243164,13.6357422 C20.4223658,13.3756497 20.967445,13.1778164 21.5595703,13.0422363 C22.1516957,12.9066562 22.7106094,12.8388672 23.2363281,12.8388672 C24.4039772,12.8388672 25.2852347,13.0934219 25.880127,13.6025391 C26.4750193,14.1116562 26.7724609,14.9112901 26.7724609,16.0014648 L26.7724609,22.1855469 L25.3779297,22.1855469 Z M22.4726562,20.8574219 C23.1809931,20.8574219 23.749591,20.6595886 24.1784668,20.263916 C24.6073426,19.8682435 24.8217773,19.3134801 24.8217773,18.5996094 L24.8217773,17.8027344 L23.6430664,17.8525391 C22.724442,17.8857424 22.0562358,18.0393053 21.6384277,18.3132324 C21.2206197,18.5871596 21.0117188,19.0063448 21.0117188,19.5708008 C21.0117188,19.980308 21.1334623,20.297118 21.3769531,20.5212402 C21.6204439,20.7453624 21.9856746,20.8574219 22.4726562,20.8574219 Z" id="Aa" fill="#FFFFFF"></path>
        </g>
    </g>
</svg>