<?xml version="1.0" encoding="utf-8"?>
<!-- Generator: Adobe Illustrator 21.0.0, SVG Export Plug-In . SVG Version: 6.00 Build 0)  -->
<svg version="1.1" xmlns="http://www.w3.org/2000/svg" xmlns:xlink="http://www.w3.org/1999/xlink" x="0px" y="0px" width="64px"
	 height="64px" viewBox="0 0 64 64" enable-background="new 0 0 64 64" xml:space="preserve">
<g id="Layer_1">
</g>
<g id="Layer_2">
</g>
<g id="messages">
</g>
<g id="messages_x5F_hover">
</g>
<g id="profile">
</g>
<g id="profile_x5F_hover">
</g>
<g id="view_x5F_hover">
</g>
<g id="view_x5F_feedback">
</g>
<g id="no_x5F_feedback_x5F_to_x5F_view">
</g>
<g id="download_x5F_hover">
</g>
<g id="download">
</g>
<g id="no_x5F_feedback_x5F_download">
</g>
<g id="link_x5F_hover">
</g>
<g id="assignment_x5F_link_copy">
</g>
<g id="Layer_21">
</g>
<g id="home_x5F_hover">
</g>
<g id="home_1_">
</g>
<g id="edit_x5F_profile">
</g>
<g id="preferences">
</g>
<g id="notifications">
</g>
<g id="my_x5F_posts">
</g>
<g id="logout">
</g>
<g id="assignment">
</g>
<g id="coursework">
</g>
<g id="forum">
</g>
<g id="quiz">
</g>
<g id="book">
</g>
<g id="database">
</g>
<g id="wiki">
</g>
<g id="choice">
</g>
<g id="workshop">
</g>
<g id="certificate">
</g>
<g id="scheduler">
</g>
<g id="equella">
</g>
<g id="file">
</g>
<g id="folder">
</g>
<g id="ims_x5F_content_x5F_package">
</g>
<g id="label">
</g>
<g id="lightbox_x5F_gallery">
</g>
<g id="nln_x5F_learning_x5F_object">
</g>
<g id="page">
</g>
<g id="subpage">
</g>
<g id="tab_x5F_display">
</g>
<g id="new_x5F_label">
</g>
<g id="url">
</g>
<g id="_x33_60_x5F_degree_x5F_diagnostics">
</g>
<g id="adobe_x5F_connect">
</g>
<g id="attendance_x5F_register">
</g>
<g id="booking">
</g>
<g id="chat">
</g>
<g id="checklist">
</g>
<g id="external_x5F_tool">
</g>
<g id="face_x5F_to_x5F_face">
</g>
<g id="forumNG">
</g>
<g id="glossary">
</g>
<g id="group_x5F_choice">
</g>
<g id="journal">
</g>
<g id="mediasite_x5F_content">
</g>
<g id="nanogong_x5F_voice">
</g>
<g id="questionnaire">
</g>
<g id="scorm_x5F_package">
	<g>
		<g>
			<path fill="#FFFFFF" d="M59.8986015,11.2828779H23.8139648H4.1002603c-1.5284829,0-2.7675781,1.2389317-2.7675781,2.767415
				v3.9026699c0,1.5284824,1.2390951,2.7674141,2.7675781,2.7674141H4.0543618v29.2294941
				c0,1.5283203,1.2389326,2.7674141,2.7674155,2.7674141h50.3553047c1.5284843,0,2.7674179-1.2390938,2.7674179-2.7674141
				V20.720377h-0.0458984c1.5284805,0,2.7674141-1.2389317,2.7674141-2.7674141V14.050293
				C62.6660156,12.5218096,61.4270821,11.2828779,59.8986015,11.2828779z"/>
		</g>
		<g opacity="0.3">
			<g>
				<path fill="#32548C" d="M37.5181694,35.7120972H26.4806747c-1.4727592,0-2.666666-1.1939087-2.666666-2.6666679V11.2827969
					h16.3708248v21.7626324C40.1848335,34.5181885,38.9909286,35.7120972,37.5181694,35.7120972z"/>
			</g>
		</g>
		<path fill="#32548C" d="M59.8984375,9.9498701H23.8151035H4.0989585C1.8385416,9.9498701,0,11.7897139,0,14.0501299v3.9023447
			c0,1.7758789,1.1401367,3.2770176,2.7213542,3.8461914v28.1512051c0,2.2604141,1.8411458,4.1002579,4.1015625,4.1002579
			h50.3541641c2.2604179,0,4.1015625-1.8398438,4.1015625-4.1002579V24.8222656c0-0.7369785-0.5963516-1.333334-1.3333321-1.333334
			s-1.3333321,0.5963554-1.3333321,1.333334v25.1276054c0,0.7903633-0.6432304,1.4335938-1.4348984,1.4335938H6.8229165
			c-0.7916665,0-1.4348955-0.6432304-1.4348955-1.4335938v-27.895834h17.09375v10.8906231
			c0,2.2604179,1.838541,4.1002617,4.0989571,4.1002617h10.8359394c2.2604141,0,4.1015625-1.8398438,4.1015625-4.1002617V15.8274736
			c0-0.7369785-0.5963554-1.333333-1.3333359-1.333333c-0.7369766,0-1.3333321,0.5963545-1.3333321,1.333333v17.1171875
			c0,0.7903671-0.6432304,1.4335938-1.4348946,1.4335938H26.5807285c-0.7890625,0-1.432291-0.6432266-1.432291-1.4335938v-20.328125
			h34.75c0.7916679,0,1.4348946,0.6432295,1.4348946,1.4335938v3.9023447c0,0.791666-0.6432266,1.4348946-1.4348946,1.4348946
			H44.640625c-0.7369804,0-1.3333321,0.5963554-1.3333321,1.333334s0.5963516,1.333334,1.3333321,1.333334h15.2578125
			C62.1588554,22.0540371,64,20.2141933,64,17.9524746v-3.9023447C64,11.7897139,62.1588554,9.9498701,59.8984375,9.9498701z
			 M4.0989585,19.3873692c-0.7890627,0-1.4322917-0.6432285-1.4322917-1.4348946v-3.9023447
			c0-0.7903643,0.643229-1.4335938,1.4322917-1.4335938h18.3828125v6.770833H4.0989585z"/>
	</g>
</g>
<g id="survey">
</g>
<g id="tutorship">
</g>
<g id="advanced_x5F_forum">
</g>
<g id="subcourse">
</g>
<g id="lesson_1_">
</g>
<g id="adaptive_x5F_quiz">
</g>
<g id="ou_x5F_wiki">
</g>
<g id="support_x5F_tracker">
</g>
<g id="view_x5F_comments">
</g>
<g id="no_x5F_comment">
</g>
<g id="attention">
</g>
<g id="search">
</g>
<g id="submitted">
</g>
<g id="feedback">
</g>
<g id="T_x5F_I_x5F_N">
</g>
</svg>
