<?xml version="1.0" encoding="utf-8"?>
<!-- Generator: Adobe Illustrator 21.0.0, SVG Export Plug-In . SVG Version: 6.00 Build 0)  -->
<svg version="1.1" xmlns="http://www.w3.org/2000/svg" xmlns:xlink="http://www.w3.org/1999/xlink" x="0px" y="0px" width="64px"
	 height="64px" viewBox="0 0 64 64" enable-background="new 0 0 64 64" xml:space="preserve">
<g id="Layer_1">
</g>
<g id="Layer_2">
</g>
<g id="messages">
</g>
<g id="messages_x5F_hover">
</g>
<g id="profile">
</g>
<g id="profile_x5F_hover">
</g>
<g id="view_x5F_hover">
</g>
<g id="view_x5F_feedback">
</g>
<g id="no_x5F_feedback_x5F_to_x5F_view">
</g>
<g id="download_x5F_hover">
</g>
<g id="download">
</g>
<g id="no_x5F_feedback_x5F_download">
</g>
<g id="link_x5F_hover">
</g>
<g id="assignment_x5F_link_copy">
</g>
<g id="Layer_21">
</g>
<g id="home_x5F_hover">
</g>
<g id="home_1_">
</g>
<g id="edit_x5F_profile">
</g>
<g id="preferences">
</g>
<g id="notifications">
</g>
<g id="my_x5F_posts">
</g>
<g id="logout">
</g>
<g id="assignment">
</g>
<g id="coursework">
</g>
<g id="forum">
</g>
<g id="quiz">
</g>
<g id="book">
</g>
<g id="database">
</g>
<g id="wiki">
</g>
<g id="choice">
</g>
<g id="workshop">
</g>
<g id="certificate">
</g>
<g id="scheduler">
</g>
<g id="equella">
</g>
<g id="file">
</g>
<g id="folder">
</g>
<g id="ims_x5F_content_x5F_package">
</g>
<g id="label">
</g>
<g id="lightbox_x5F_gallery">
</g>
<g id="nln_x5F_learning_x5F_object">
</g>
<g id="page">
</g>
<g id="subpage">
</g>
<g id="tab_x5F_display">
</g>
<g id="new_x5F_label">
</g>
<g id="url">
</g>
<g id="_x33_60_x5F_degree_x5F_diagnostics">
</g>
<g id="adobe_x5F_connect">
</g>
<g id="attendance_x5F_register">
</g>
<g id="booking">
</g>
<g id="chat">
</g>
<g id="checklist">
</g>
<g id="external_x5F_tool">
</g>
<g id="face_x5F_to_x5F_face">
</g>
<g id="forumNG">
</g>
<g id="glossary">
</g>
<g id="group_x5F_choice">
</g>
<g id="journal">
</g>
<g id="mediasite_x5F_content">
</g>
<g id="nanogong_x5F_voice">
</g>
<g id="questionnaire">
</g>
<g id="scorm_x5F_package">
</g>
<g id="survey">
</g>
<g id="tutorship">
</g>
<g id="advanced_x5F_forum">
</g>
<g id="subcourse">
</g>
<g id="lesson_1_">
</g>
<g id="adaptive_x5F_quiz">
</g>
<g id="ou_x5F_wiki">
</g>
<g id="support_x5F_tracker">
</g>
<g id="view_x5F_comments">
</g>
<g id="no_x5F_comment">
</g>
<g id="attention">
</g>
<g id="search">
</g>
<g id="submitted">
</g>
<g id="feedback">
	<g>
		<g>
			<path fill="#FFFFFF" d="M54.3359604,14.7840166l-11.715332-11.715332
				c-1.1108398-1.1108397-2.6175156-1.7348632-4.1884766-1.7348632H12.6266489c-1.6357422,0-2.961751,1.3260092-2.961751,2.961751
				v55.4757462c0,1.5992851,1.2965498,2.8958359,2.895833,2.8958359h38.8134766
				c1.6357422,0,2.9617538-1.3260117,2.9617538-2.9617538V14.7840166z"/>
		</g>
		<g opacity="0.3">
			<g>
				<path fill="#32548C" d="M40.8857269,1.3338217L52.5956535,13.043746
					c0.6421928,0.6421938,0.1873665,1.7402458-0.7208328,1.7402458h-8.0273209c-1.6357422,0-2.9617729-1.3260307-2.9617729-2.961771
					V1.3338217z"/>
			</g>
		</g>
		<g>
			<path fill="#32548C" d="M51.3736992,64h-38.8125c-2.3307295,0-4.229167-1.8971367-4.229167-4.2291679V4.2955728
				C8.3320313,1.9270834,10.2591143,0,12.6263018,0h25.8046875c1.9375,0,3.7604179,0.7552083,5.1328125,2.126302
				l11.7135429,11.7148438c0.3802071,0.3815107,0.4947929,0.9544277,0.2890625,1.453125
				c-0.2057304,0.4986982-0.6927071,0.822917-1.2317696,0.822917H43.8476563c-2.3671875,0-4.2942696-1.927083-4.2942696-4.2955732
				V7.2578125c0-0.736979,0.5963516-1.3333335,1.3333321-1.3333335s1.3333321,0.5963545,1.3333321,1.3333335v4.5638018
				c0,0.8984375,0.7291679,1.6289063,1.6276054,1.6289063h7.2682304l-9.4375-9.4388018
				c-0.8671875-0.8671875-2.0208359-1.345052-3.2473984-1.345052H12.6263018c-0.8984375,0-1.6276035,0.7304688-1.6276035,1.628906
				v55.4752579c0,0.8619804,0.7005205,1.5625,1.5625,1.5625h38.8125c0.8984375,0,1.6276016-0.7304688,1.6276016-1.6276016
				V19.3815098c0-0.7369785,0.5963554-1.3333321,1.3333359-1.3333321c0.7369766,0,1.3333321,0.5963535,1.3333321,1.3333321
				v40.3242188C55.6679688,62.0742188,53.7408867,64,51.3736992,64z"/>
		</g>
		<g>
			<g>
				<path fill="#32548C" d="M41.5429688,26.1744785h-19.083334c-0.7369785,0-1.3333321-0.5963535-1.3333321-1.3333321
					c0-0.7369804,0.5963535-1.333334,1.3333321-1.333334h19.083334c0.7369804,0,1.3333321,0.5963535,1.3333321,1.333334
					C42.8763008,25.578125,42.2799492,26.1744785,41.5429688,26.1744785z"/>
			</g>
			<g>
				<path fill="#32548C" d="M41.5429688,45.640625h-19.083334c-0.7369785,0-1.3333321-0.5963554-1.3333321-1.3333321
					c0-0.7369804,0.5963535-1.3333359,1.3333321-1.3333359h19.083334c0.7369804,0,1.3333321,0.5963554,1.3333321,1.3333359
					C42.8763008,45.0442696,42.2799492,45.640625,41.5429688,45.640625z"/>
			</g>
			<g>
				<path fill="#32548C" d="M41.5429688,35.9075508h-19.083334c-0.7369785,0-1.3333321-0.5963516-1.3333321-1.3333321
					s0.5963535-1.3333321,1.3333321-1.3333321h19.083334c0.7369804,0,1.3333321,0.5963516,1.3333321,1.3333321
					S42.2799492,35.9075508,41.5429688,35.9075508z"/>
			</g>
		</g>
	</g>
</g>
<g id="T_x5F_I_x5F_N">
</g>
</svg>
