<?xml version="1.0" encoding="utf-8"?>
<!-- Generator: Adobe Illustrator 21.0.0, SVG Export Plug-In . SVG Version: 6.00 Build 0)  -->
<svg version="1.1" xmlns="http://www.w3.org/2000/svg" xmlns:xlink="http://www.w3.org/1999/xlink" x="0px" y="0px" width="64px"
	 height="64px" viewBox="0 0 64 64" enable-background="new 0 0 64 64" xml:space="preserve">
<g id="Layer_1">
</g>
<g id="Layer_2">
</g>
<g id="messages">
</g>
<g id="messages_x5F_hover">
</g>
<g id="profile">
</g>
<g id="profile_x5F_hover">
</g>
<g id="view_x5F_hover">
</g>
<g id="view_x5F_feedback">
</g>
<g id="no_x5F_feedback_x5F_to_x5F_view">
</g>
<g id="download_x5F_hover">
</g>
<g id="download">
</g>
<g id="no_x5F_feedback_x5F_download">
</g>
<g id="link_x5F_hover">
</g>
<g id="assignment_x5F_link_copy">
</g>
<g id="Layer_21">
</g>
<g id="home_x5F_hover">
</g>
<g id="home_1_">
</g>
<g id="edit_x5F_profile">
</g>
<g id="preferences">
</g>
<g id="notifications">
</g>
<g id="my_x5F_posts">
</g>
<g id="logout">
</g>
<g id="assignment">
</g>
<g id="coursework">
</g>
<g id="forum">
</g>
<g id="quiz">
</g>
<g id="book">
</g>
<g id="database">
</g>
<g id="wiki">
</g>
<g id="choice">
</g>
<g id="workshop">
</g>
<g id="certificate">
</g>
<g id="scheduler">
</g>
<g id="equella">
</g>
<g id="file">
</g>
<g id="folder">
</g>
<g id="ims_x5F_content_x5F_package">
</g>
<g id="label">
</g>
<g id="lightbox_x5F_gallery">
</g>
<g id="nln_x5F_learning_x5F_object">
</g>
<g id="page">
</g>
<g id="subpage">
</g>
<g id="tab_x5F_display">
</g>
<g id="new_x5F_label">
</g>
<g id="url">
</g>
<g id="_x33_60_x5F_degree_x5F_diagnostics">
</g>
<g id="adobe_x5F_connect">
</g>
<g id="attendance_x5F_register">
</g>
<g id="booking">
</g>
<g id="chat">
</g>
<g id="checklist">
</g>
<g id="external_x5F_tool">
</g>
<g id="face_x5F_to_x5F_face">
</g>
<g id="forumNG">
</g>
<g id="glossary">
</g>
<g id="group_x5F_choice">
</g>
<g id="journal">
</g>
<g id="mediasite_x5F_content">
</g>
<g id="nanogong_x5F_voice">
</g>
<g id="questionnaire">
</g>
<g id="scorm_x5F_package">
</g>
<g id="survey">
</g>
<g id="tutorship">
</g>
<g id="advanced_x5F_forum">
</g>
<g id="subcourse">
</g>
<g id="lesson_1_">
</g>
<g id="adaptive_x5F_quiz">
	<g>
		<g>
			<path fill="#FFFFFF" d="M54.3354492,14.7838154L42.6202812,3.0686457
				c-1.1108398-1.1108398-2.6175156-1.735026-4.1886406-1.735026H12.6263018c-1.6357422,0-2.961751,1.3260092-2.961751,2.9617515
				v55.4757462c0,1.5994492,1.2965498,2.8958359,2.895833,2.8958359h38.8792343
				c1.5992813,0,2.8958321-1.2963867,2.8958321-2.8958359V14.7838154z"/>
		</g>
		<g opacity="0.3">
			<path fill="#32548C" d="M52.5952148,13.043581L40.8852539,1.3336197v10.4884434
				c0,1.6357422,1.3260078,2.9617519,2.96175,2.9617519h8.0273438C52.7825508,14.7838154,53.2374687,13.685833,52.5952148,13.043581
				z"/>
			<circle fill="#32548C" cx="18.5644131" cy="49.0030937" r="3.9810383"/>
			<circle fill="#32548C" cx="31.1572266" cy="33.3084335" r="3.9810791"/>
		</g>
		<g>
			<path fill="#32548C" d="M54.3359375,18.4503193c-0.7369804,0-1.3333321,0.5963535-1.3333321,1.3333321v39.9869766
				c0,0.8619804-0.7005234,1.5625-1.5625,1.5625H12.5598955c-0.8619785,0-1.5625-0.7005196-1.5625-1.5625V4.2953711
				c0-0.8984375,0.729167-1.6289063,1.6276045-1.6289063h25.8072929c1.2083321,0,2.390625,0.4895833,3.2447891,1.3450522
				l9.4401054,9.4388027h-7.2708321c-0.8984375,0-1.6276054-0.7304688-1.6276054-1.6276045v-4.565104
				c0-0.7369795-0.5963554-1.3333335-1.3333321-1.3333335c-0.7369804,0-1.3333359,0.596354-1.3333359,1.3333335v4.565104
				c0,2.3684893,1.9270859,4.2942705,4.2942734,4.2942705h10.4895821c0.5390625,0,1.0260429-0.3242188,1.2317696-0.822916
				c0.2057304-0.4986982,0.0911484-1.0716152-0.2890625-1.453125L43.5625,2.1261001
				c-1.3489571-1.3515625-3.21875-2.126302-5.1302071-2.126302H12.625c-2.3671875,0-4.2942705,1.9270834-4.2942705,4.2955728
				v55.4752579c0,2.3320313,1.8984375,4.2291679,4.229166,4.2291679h38.8802109
				c2.3307266,0,4.2291641-1.8971367,4.2291641-4.2291679V19.7836514
				C55.6692696,19.0466728,55.0729179,18.4503193,54.3359375,18.4503193z"/>
			<path fill="#32548C" d="M45.4348946,45.3031845c2.9296875,0,5.3151054-2.3841171,5.3151054-5.3151054
				c0-2.9296875-2.3854179-5.3138008-5.3151054-5.3138008c-1.6785469,0-3.1595039,0.7980118-4.1337891,2.0175781
				l-4.9672852-2.4174805c0.2075195-1.1206055,0.0616875-2.2854824-0.4614258-3.3344746
				c-1.3098946-2.6223946-4.5052071-3.6914063-7.1302071-2.3789063c-1.2630215,0.630209-2.2057285,1.7226563-2.6588535,3.0742188
				c-0.4505215,1.3515644-0.348959,2.791666,0.28125,4.0533848c0.1451817,0.2913437,0.327961,0.5572929,0.5213203,0.8136406
				l-6.1512032,7.6652031c-1.0317383-0.4648438-2.1878262-0.6046562-3.3232422-0.3525391
				c-2.859376,0.6341133-4.6692715,3.4778633-4.036459,6.3398438c0.307292,1.3789063,1.1380205,2.5598946,2.338542,3.3255196
				c0.869792,0.5520821,1.8515615,0.8372383,2.8515615,0.8372383c0.3828125,0,0.7682304-0.0416641,1.1510429-0.1263008
				c1.4895821-0.3307304,2.7682285-1.2929688,3.5078125-2.6380196c0.354166-0.6458359,0.1171875-1.4570313-0.5286465-1.8111992
				c-0.640625-0.3515625-1.4557285-0.1197929-1.8098965,0.5273438c-0.369791,0.6731758-1.0052071,1.1536446-1.7473946,1.3177071
				c-1.427084,0.3138046-2.84375-0.5833321-3.1588545-2.0091133c-0.3098965-1.4023438,0.609374-2.8489571,2.010417-3.1588554
				c0.7890625-0.1744766,1.6015625,0.0143242,2.229166,0.5182304c0.2264004,0.1818047,0.494791,0.2540703,0.763998,0.269043
				c0.0253906,0.0014648,0.0465488,0.0252266,0.0719395,0.0252266c0.0214844,0,0.0408535-0.0128555,0.0623379-0.0138321
				c0.1295567-0.0060234,0.2514648-0.0403671,0.3741856-0.0833359c0.052084-0.0182266,0.1051426-0.0232735,0.1547852-0.0480118
				c0.1679688-0.0834961,0.3232422-0.1967773,0.4477539-0.3535156l6.887207-8.5825195
				c0.2578125,0.1137695,0.515625,0.2285156,0.7924805,0.3012695C29.885416,38.4815674,30,38.4958916,30.1119785,38.4958916
				c0.5911465,0,1.1328125-0.3958321,1.2890625-0.9934883c0.1875-0.7122421-0.2369785-1.4414063-0.9505196-1.6289063
				c-0.3411465-0.0898438-0.6468105-0.2589531-0.9207363-0.4654961C29.5175781,35.397583,29.5126953,35.3822861,29.5,35.3721924
				c-0.0244141-0.0195313-0.0548496-0.0237617-0.0802402-0.0413399C29.145834,35.1011963,28.9122715,34.822876,28.75,34.4971924
				c-0.3125-0.6263008-0.3619785-1.3424454-0.135416-2.0182266c0.2239571-0.6757832,0.6927071-1.2200527,1.3203125-1.5325527
				c1.307291-0.6510429,2.901041-0.1158867,3.552084,1.1848965c0.3619766,0.7239571,0.375,1.5572891,0.0364571,2.2890625
				c-0.0408516,0.0888672-0.0444336,0.1821289-0.0646172,0.2739258c-0.0169258,0.0763321-0.050293,0.1505508-0.0535469,0.227211
				c-0.0037422,0.0891953,0.0227852,0.1728516,0.0366211,0.2599297c0.0130196,0.0823555,0.0118828,0.1665039,0.039875,0.2447929
				c0.0286484,0.0807266,0.0841484,0.1471329,0.1279297,0.2210274c0.043457,0.0735664,0.074707,0.1529961,0.132164,0.2176094
				c0.0550117,0.0616875,0.1323242,0.1012383,0.1992188,0.1525078c0.0701485,0.053875,0.1272774,0.1204414,0.2099609,0.1608086
				l6.0584297,2.9485664c-0.0463867,0.2820625-0.0870781,0.5664063-0.0870781,0.8613281
				C40.1223946,42.9190674,42.5052071,45.3031845,45.4348946,45.3031845z M45.4348946,37.3409424
				c1.4609375,0,2.6484375,1.1875,2.6484375,2.6471367c0,1.4609375-1.1875,2.6484375-2.6484375,2.6484375
				c-1.4583321,0-2.6458321-1.1875-2.6458321-2.6484375C42.7890625,38.5284424,43.9765625,37.3409424,45.4348946,37.3409424z"/>
			<path fill="#32548C" d="M17.5755215,39.6768799c0.3723946,0,0.744791-0.15625,1.0052071-0.4583321l4.3723965-5.0273438
				c0.484375-0.5559883,0.4244785-1.3984375-0.130209-1.8815117c-0.5546875-0.4804668-1.3984375-0.4231758-1.8802071,0.1315117
				l-3.5729179,4.1067696l-2.005208-1.4518204c-0.5859375-0.4296875-1.4244785-0.3020859-1.8619785,0.296875
				c-0.432292,0.5963516-0.296875,1.4296875,0.2994785,1.8619766l2.9921885,2.1679688
				C17.0286465,39.5935478,17.302084,39.6768799,17.5755215,39.6768799z"/>
			<path fill="#32548C" d="M26.4921875,25.149538c0.260416,0.260416,0.6015625,0.390625,0.942709,0.390625
				c0.3411446,0,0.682291-0.130209,0.9427071-0.390625l2.6015625-2.6020508l2.6015644,2.6020508
				c0.2604141,0.260416,0.6015625,0.390625,0.9427071,0.390625s0.6822929-0.130209,0.9427071-0.390625
				c0.5208359-0.520834,0.5208359-1.364584,0-1.8854179l-2.6017227-2.6022129l2.6017227-2.6022129
				c0.5208359-0.520834,0.5208359-1.364584,0-1.8854179c-0.5208321-0.5208321-1.3645821-0.5208321-1.8854141,0l-2.6015644,2.6020508
				l-2.6015625-2.6020508c-0.5208321-0.5208321-1.3645821-0.5208321-1.885416,0c-0.520834,0.520834-0.520834,1.364584,0,1.8854179
				l2.6017246,2.6022129l-2.6017246,2.6022129C25.9713535,23.7849541,25.9713535,24.6287041,26.4921875,25.149538z"/>
		</g>
	</g>
</g>
<g id="ou_x5F_wiki">
</g>
<g id="support_x5F_tracker">
</g>
<g id="view_x5F_comments">
</g>
<g id="no_x5F_comment">
</g>
<g id="attention">
</g>
<g id="search">
</g>
<g id="submitted">
</g>
<g id="feedback">
</g>
<g id="T_x5F_I_x5F_N">
</g>
</svg>
