<?xml version="1.0" encoding="UTF-8" standalone="no"?>
<svg width="32px" height="32px" viewBox="0 0 32 32" version="1.1" xmlns="http://www.w3.org/2000/svg" xmlns:xlink="http://www.w3.org/1999/xlink">
    <!-- Generator: Sketch 44.1 (41455) - http://www.bohemiancoding.com/sketch -->
    <title>pix_plugins/mod/questionnaire/grades</title>
    <desc>Created with Sketch.</desc>
    <defs></defs>
    <g id="Page-1" stroke="none" stroke-width="1" fill="none" fill-rule="evenodd">
        <g id="pix_plugins/mod/questionnaire/grades">
            <g id="icon" fill="#F7882F">
                <circle id="Oval" cx="16" cy="16" r="16"></circle>
            </g>
            <g id="exam" transform="translate(8.000000, 6.000000)" fill-rule="nonzero" fill="#FFFFFF">
                <path d="M15.5246377,4.13359528 L11.9227053,0.47151277 C11.621256,0.16502947 11.2270531,0 10.8057971,0 L1.59227053,0 C0.722705314,0 0.0154589372,0.719056974 0.0154589372,1.60314342 L0.0154589372,18.3614931 C0.0154589372,19.2455796 0.722705314,19.9646365 1.59227053,19.9646365 L14.4115942,19.9646365 C15.2811594,19.9646365 15.9884058,19.2455796 15.9884058,18.3614931 L15.9884058,5.26522593 C15.9845411,4.83693517 15.8222222,4.43614931 15.5246377,4.13359528 Z M11.7758454,1.89390963 L14.1217391,4.27504912 L11.7758454,4.27504912 L11.7758454,1.89390963 Z M14.894686,18.3614931 C14.894686,18.632613 14.6782609,18.8526523 14.4077295,18.8526523 L1.59227053,18.8526523 C1.32560386,18.8526523 1.10917874,18.632613 1.10917874,18.3614931 L1.10917874,1.60314342 C1.10917874,1.33202358 1.32560386,1.11198428 1.59227053,1.11198428 L10.6898551,1.11198428 L10.6898551,4.83300589 C10.6898551,5.13948919 10.9333333,5.3870334 11.2347826,5.3870334 L14.894686,5.3870334 L14.894686,18.3614931 Z" id="Shape"></path>
                <path d="M6.59710145,7.78388998 L5.48405797,7.78388998 L3.25410628,13.0294695 L4.47922705,13.0294695 L4.95845411,11.8978389 L7.12270531,11.8978389 L7.60193237,13.0294695 L8.82705314,13.0294695 L6.59710145,7.78388998 Z M5.39516908,10.8683694 L6.04444444,9.34381139 L6.68599034,10.8683694 L5.39516908,10.8683694 Z" id="Shape"></path>
                <polygon id="Shape" points="11.4550725 9.93713163 11.4550725 8.58546169 10.4347826 8.58546169 10.4347826 9.93713163 9.14396135 9.93713163 9.14396135 10.8605108 10.4347826 10.8605108 10.4347826 12.2121807 11.4550725 12.2121807 11.4550725 10.8605108 12.7458937 10.8605108 12.7458937 9.93713163"></polygon>
            </g>
        </g>
    </g>
</svg>