<?xml version="1.0" encoding="UTF-8"?>
<svg width="32px" height="32px" viewBox="0 0 32 32" version="1.1" xmlns="http://www.w3.org/2000/svg" xmlns:xlink="http://www.w3.org/1999/xlink">
    <!-- Generator: Sketch 46.1 (44463) - http://www.bohemiancoding.com/sketch -->
    <title>q-review</title>
    <desc>Created with Sketch.</desc>
    <defs></defs>
    <g id="Page-1" stroke="none" stroke-width="1" fill="none" fill-rule="evenodd">
        <g id="q-review">
            <circle id="Oval" fill="#F7882F" cx="16" cy="16" r="16"></circle>
            <path d="M22.2767467,21.4153094 C22.8720518,21.8285212 23.2607452,22.0876501 23.4428385,22.192704 C23.7159785,22.346783 24.0836615,22.5253718 24.5458984,22.7284759 L23.2222266,25.3968304 C22.5568855,25.0746652 21.8985579,24.6912244 21.2472241,24.2464965 C20.5958902,23.8017685 20.1406637,23.4673521 19.8815309,23.2432372 C18.8309924,23.6984706 17.5143372,23.9260838 15.9315259,23.9260838 C13.5923269,23.9260838 11.7469086,23.3167806 10.3952158,22.098156 C8.79839727,20.6554165 8,18.6279076 8,16.0155686 C8,13.480269 8.69859761,11.5105389 10.0958138,10.1063191 C11.49303,8.70209936 13.4452514,8 15.9525366,8 C18.5088469,8 20.4820788,8.68634152 21.8722914,10.0590451 C23.262504,11.4317488 23.9575998,13.3962263 23.9575998,15.9525366 C23.9575998,18.2287033 23.397321,20.0496094 22.2767467,21.4153094 Z M18.6313963,18.9780723 C19.0095902,18.2987241 19.1986843,17.2832188 19.1986843,15.9315259 C19.1986843,14.376729 18.9097905,13.2666766 18.3319944,12.6013356 C17.7541982,11.9359945 16.9575518,11.603329 15.9420312,11.603329 C14.9965466,11.603329 14.229665,11.942998 13.6413635,12.6223462 C13.0530619,13.3016945 12.7589156,14.3627224 12.7589156,15.8054619 C12.7589156,17.4863235 13.0460584,18.6664107 13.6203528,19.3457589 C14.1946472,20.0251072 14.9825392,20.3647762 15.9840526,20.3647762 C16.3062177,20.3647762 16.6108693,20.3332605 16.8980165,20.2702282 C16.4988119,19.8850307 15.8684982,19.5208495 15.0070567,19.1776736 L15.7529353,17.4653044 C16.1731507,17.5423439 16.5005636,17.636891 16.7351838,17.7489484 C16.9698041,17.8610059 17.4267815,18.1551522 18.1061297,18.6313963 C18.2672123,18.7434538 18.4422994,18.8590113 18.6313963,18.9780723 Z" id="Q" fill="#FFFFFF"></path>
        </g>
    </g>
</svg>