<?xml version="1.0" encoding="UTF-8" standalone="no"?>
<!-- Generator: Adobe Illustrator 16.0.4, SVG Export Plug-In . SVG Version: 6.00 Build 0)  -->

<svg
   xmlns:dc="http://purl.org/dc/elements/1.1/"
   xmlns:cc="http://creativecommons.org/ns#"
   xmlns:rdf="http://www.w3.org/1999/02/22-rdf-syntax-ns#"
   xmlns:svg="http://www.w3.org/2000/svg"
   xmlns="http://www.w3.org/2000/svg"
   xmlns:sodipodi="http://sodipodi.sourceforge.net/DTD/sodipodi-0.dtd"
   xmlns:inkscape="http://www.inkscape.org/namespaces/inkscape"
   version="1.1"
   id="Capa_1"
   x="0px"
   y="0px"
   width="16"
   height="16"
   viewBox="0 0 16 16"
   enable-background="new 0 0 216 146"
   xml:space="preserve"
   inkscape:version="0.48.5 r10040"
   sodipodi:docname="desktop14.svg"><metadata
     id="metadata9"><rdf:RDF><cc:Work
         rdf:about=""><dc:format>image/svg+xml</dc:format><dc:type
           rdf:resource="http://purl.org/dc/dcmitype/StillImage" /><dc:title></dc:title></cc:Work></rdf:RDF></metadata><defs
     id="defs7" /><sodipodi:namedview
     pagecolor="#ffffff"
     bordercolor="#666666"
     borderopacity="1"
     objecttolerance="10"
     gridtolerance="10"
     guidetolerance="10"
     inkscape:pageopacity="0"
     inkscape:pageshadow="2"
     inkscape:window-width="1366"
     inkscape:window-height="672"
     id="namedview5"
     showgrid="false"
     fit-margin-top="0"
     fit-margin-left="0"
     fit-margin-right="0"
     fit-margin-bottom="0"
     inkscape:zoom="31.741238"
     inkscape:cx="13.24729"
     inkscape:cy="9.8732063"
     inkscape:window-x="0"
     inkscape:window-y="27"
     inkscape:window-maximized="1"
     inkscape:current-layer="Capa_1" /><path
     d="M 15.591869,0.47251854 C 15.332069,0.17161501 15.019963,0.02110431 14.655043,0.02110431 H 1.3895857 c -0.3648186,0 -0.67702601,0.1505107 -0.93692749,0.45141423 C 0.19285849,0.77342207 0.06300952,1.135025 0.06300952,1.5575628 V 12.005269 c 0,0.422655 0.12984897,0.784259 0.38964869,1.085161 0.25990148,0.300904 0.57210889,0.451297 0.93692749,0.451297 h 4.5103184 c 0,0.243151 -0.044267,0.493019 -0.1326983,0.7489 -0.088432,0.256116 -0.1768632,0.480173 -0.2652949,0.672171 -0.088329,0.192117 -0.1325966,0.332845 -0.1325966,0.42242 0,0.166422 0.05251,0.310687 0.1575285,0.432085 0.1050188,0.121752 0.2293727,0.182687 0.3730613,0.182687 h 4.2449209 c 0.14369,0 0.268145,-0.06093 0.373063,-0.182687 0.105121,-0.121398 0.157629,-0.265663 0.157629,-0.432085 0,-0.0831 -0.04436,-0.222406 -0.1328,-0.417588 -0.08843,-0.19518 -0.176864,-0.422655 -0.265193,-0.681718 -0.08843,-0.259298 -0.132699,-0.507281 -0.132699,-0.744185 h 4.510319 c 0.364717,0 0.676925,-0.150393 0.936725,-0.451297 0.259799,-0.300902 0.38975,-0.662506 0.38975,-1.085161 V 1.5575628 C 15.981721,1.135025 15.85177,0.77342207 15.591869,0.47251854 z M 14.920338,9.5470057 c 0,0.083211 -0.02626,0.1552251 -0.07877,0.2160426 -0.05251,0.060701 -0.114687,0.09111 -0.186531,0.09111 H 1.3895857 c -0.071845,0 -0.1340212,-0.030409 -0.1865307,-0.09111 -0.052509,-0.06105 -0.078764,-0.1328315 -0.078764,-0.2160426 V 1.5575628 c 0,-0.083211 0.026153,-0.1552252 0.078764,-0.2160424 0.05251,-0.060699 0.1146864,-0.091225 0.1865307,-0.091225 H 14.655246 c 0.07174,0 0.134022,0.030409 0.186429,0.091225 0.05251,0.060817 0.07866,0.1328313 0.07866,0.2160424 v 7.9894429 z"
     id="path3"
     inkscape:connector-curvature="0"
     style="fill:#999999;fill-opacity:1" /></svg>