<?xml version="1.0" encoding="utf-8"?>
<!-- Generator: Adobe Illustrator 21.0.0, SVG Export Plug-In . SVG Version: 6.00 Build 0)  -->
<svg version="1.1" xmlns="http://www.w3.org/2000/svg" xmlns:xlink="http://www.w3.org/1999/xlink" x="0px" y="0px" width="64px"
	 height="64px" viewBox="0 0 64 64" enable-background="new 0 0 64 64" xml:space="preserve">
<g id="Layer_1">
</g>
<g id="Layer_2">
</g>
<g id="messages">
</g>
<g id="messages_x5F_hover">
</g>
<g id="profile">
</g>
<g id="profile_x5F_hover">
</g>
<g id="view_x5F_hover">
</g>
<g id="view_x5F_feedback">
</g>
<g id="no_x5F_feedback_x5F_to_x5F_view">
</g>
<g id="download_x5F_hover">
</g>
<g id="download">
</g>
<g id="no_x5F_feedback_x5F_download">
</g>
<g id="link_x5F_hover">
</g>
<g id="assignment_x5F_link_copy">
</g>
<g id="Layer_21">
</g>
<g id="home_x5F_hover">
</g>
<g id="home_1_">
</g>
<g id="edit_x5F_profile">
</g>
<g id="preferences">
</g>
<g id="notifications">
</g>
<g id="my_x5F_posts">
</g>
<g id="logout">
</g>
<g id="assignment">
</g>
<g id="coursework">
</g>
<g id="forum">
</g>
<g id="quiz">
</g>
<g id="book">
</g>
<g id="database">
</g>
<g id="wiki">
</g>
<g id="choice">
</g>
<g id="workshop">
</g>
<g id="certificate">
</g>
<g id="scheduler">
</g>
<g id="equella">
</g>
<g id="file">
</g>
<g id="folder">
</g>
<g id="ims_x5F_content_x5F_package">
</g>
<g id="label">
</g>
<g id="lightbox_x5F_gallery">
</g>
<g id="nln_x5F_learning_x5F_object">
</g>
<g id="page">
</g>
<g id="subpage">
</g>
<g id="tab_x5F_display">
</g>
<g id="new_x5F_label">
</g>
<g id="url">
</g>
<g id="_x33_60_x5F_degree_x5F_diagnostics">
</g>
<g id="adobe_x5F_connect">
</g>
<g id="attendance_x5F_register">
</g>
<g id="booking">
</g>
<g id="chat">
</g>
<g id="checklist">
	<g>
		<g>
			<path fill="#FFFFFF" d="M52.844799,5.0281754h-4.5026093h-5.3972931
				c-0.1788368-0.3069773-0.3902817-0.5983043-0.6923714-0.8011084C39.4897308,2.3726487,35.9129448,1.2507056,32,1.2507056
				S24.5102711,2.3726487,21.7474728,4.227067c-0.3020859,0.2028041-0.5135307,0.4941311-0.6923695,0.8011084h-0.3941975H11.155201
				c-1.4735899,0-2.6680803,1.19449-2.6680803,2.6680794v52.3196945c0,1.4734268,1.1944904,2.6680794,2.6680803,2.6680794H52.844799
				c1.4735909,0,2.6680794-1.1946526,2.6680794-2.6680794V7.6962547C55.5128784,6.2226653,54.3183899,5.0281754,52.844799,5.0281754
				z"/>
		</g>
		<g opacity="0.3">
			<g>
				<path fill="#32548C" d="M26.495163,33.1719322h-7.5292492c-1.4735699,0-2.6681328-1.1945629-2.6681328-2.6681309v-7.5292492
					c0-1.473568,1.1945629-2.6681328,2.6681328-2.6681328h7.5292492c1.473568,0,2.6681328,1.1945648,2.6681328,2.6681328v7.5292492
					C29.1632957,31.9773693,27.9687309,33.1719322,26.495163,33.1719322z"/>
			</g>
		</g>
		<g opacity="0.3">
			<path fill="#32548C" d="M26.495163,52.599041h-7.5292492c-1.4735699,0-2.6681328-1.1945648-2.6681328-2.6681328v-7.5292473
				c0-1.473568,1.1945629-2.6681328,2.6681328-2.6681328h7.5292492c1.473568,0,2.6681328,1.1945648,2.6681328,2.6681328v7.5292473
				C29.1632957,51.4044762,27.9687309,52.599041,26.495163,52.599041z"/>
		</g>
		<g>
			<path fill="#32548C" d="M52.843811,3.6922035h-4.5021362c-0.7381592,0-1.3355103,0.59729-1.3355103,1.3355103
				c0,0.7381592,0.5973511,1.3354492,1.3355103,1.3354492h4.5021362c0.7355957,0,1.3328857,0.5973511,1.3328857,1.3329468v52.319519
				c0,0.7355957-0.59729,1.3328857-1.3328857,1.3328857H11.156189c-0.7355957,0-1.3328857-0.59729-1.3328857-1.3328857V7.6961098
				c0-0.7355957,0.59729-1.3329468,1.3328857-1.3329468h8.1704712c0,0.0053101-0.0009155,0.010376-0.0009155,0.015686v1.1751099
				c0,2.206665,1.7971802,4.0025635,4.0039063,4.0025635h17.3406982c2.2067261,0,4.0039063-1.7958984,4.0039063-4.0025635V6.378849
				c0-1.336792-0.6259766-2.5549316-1.6771851-3.260498c-6.1558838-4.1317749-15.8356934-4.1317749-21.9967651,0
				c-0.2442017,0.1643066-0.4630127,0.3588867-0.6588135,0.5738525H11.156189c-2.2067261,0-4.0039063,1.7958374-4.0039063,4.0039063
				v52.319519c0,2.2080078,1.7971802,4.0039024,4.0039063,4.0039024H52.843811c2.2067261,0,4.0039063-1.7958946,4.0039063-4.0039024
				V7.6961098C56.8477173,5.4880409,55.0505371,3.6922035,52.843811,3.6922035z M21.9967651,6.378849
				c0-0.4382324,0.1903687-0.838623,0.492981-1.043396C25.1346436,3.5630531,28.5099487,2.5861855,32,2.5861855
				s6.8653564,0.9768677,9.5076904,2.7492676c0.3051758,0.2047729,0.4955444,0.6051636,0.4955444,1.043396v1.1751099
				c0,0.7342529-0.59729,1.331543-1.3328857,1.331543H23.3296509c-0.7355957,0-1.3328857-0.59729-1.3328857-1.331543V6.378849z"/>
			<path fill="#32548C" d="M23.4939575,28.0925941l-2.6032104-3.1992188
				c-0.4642944-0.5751953-1.3093872-0.6586304-1.8780518-0.1930542c-0.571228,0.4656372-0.6599121,1.3068237-0.1929932,1.8780518
				l2.6032104,3.1992188c0.4721069,0.5803833,1.1711426,0.9377441,1.9197388,0.9807739
				c0.0495605,0.0026245,0.0991211,0.0039063,0.1486816,0.0039063c0.6964722,0,1.3720703-0.272583,1.8702393-0.7629395
				l8.5582275-8.3873901c0.5269165-0.5164185,0.5373535-1.3615723,0.020874-1.8884888
				c-0.519104-0.5216675-1.3641968-0.5360107-1.8884888-0.0182495l-1.8410034,1.8042603
				c-0.5864868-1.4832764-2.0262451-2.5385132-3.7149048-2.5385132h-7.5305176
				c-2.2067261,0-4.0039063,1.7958984-4.0039063,4.0039063v7.5291748c0,2.2080078,1.7971802,4.0039063,4.0039063,4.0039063
				h7.5305176c2.206665,0,4.0012817-1.7958984,4.0012817-4.0039063c0-0.7381592-0.5973511-1.3355103-1.3355103-1.3355103
				s-1.3355103,0.5973511-1.3355103,1.3355103c0,0.7355957-0.5973511,1.3328857-1.3302612,1.3328857h-7.5305176
				c-0.7355957,0-1.3328857-0.59729-1.3328857-1.3328857v-7.5291748c0-0.7355347,0.59729-1.3328857,1.3328857-1.3328857h7.5305176
				c0.7329102,0,1.3302612,0.5973511,1.3302612,1.3328857v0.8716431L23.4939575,28.0925941z"/>
			<path fill="#32548C" d="M47.7026367,22.5301552H37.5402832c-0.7382202,0-1.3355103,0.59729-1.3355103,1.3355103
				c0,0.7381592,0.59729,1.3355103,1.3355103,1.3355103h10.1623535c0.7381592,0,1.3355103-0.5973511,1.3355103-1.3355103
				C49.038147,23.1274452,48.4407959,22.5301552,47.7026367,22.5301552z"/>
			<path fill="#32548C" d="M47.7026367,28.2764931H37.5402832c-0.7382202,0-1.3355103,0.59729-1.3355103,1.3354492
				c0,0.7382202,0.59729,1.3355103,1.3355103,1.3355103h10.1623535c0.7381592,0,1.3355103-0.59729,1.3355103-1.3355103
				C49.038147,28.8737831,48.4407959,28.2764931,47.7026367,28.2764931z"/>
			<path fill="#32548C" d="M47.7026367,41.9575844H37.5402832c-0.7382202,0-1.3355103,0.5973511-1.3355103,1.3355103
				s0.59729,1.3355103,1.3355103,1.3355103h10.1623535c0.7381592,0,1.3355103-0.5973511,1.3355103-1.3355103
				S48.4407959,41.9575844,47.7026367,41.9575844z"/>
			<path fill="#32548C" d="M47.7026367,47.7039223H37.5402832c-0.7382202,0-1.3355103,0.5973511-1.3355103,1.3355103
				s0.59729,1.3355103,1.3355103,1.3355103h10.1623535c0.7381592,0,1.3355103-0.5973511,1.3355103-1.3355103
				S48.4407959,47.7039223,47.7026367,47.7039223z"/>
			<path fill="#32548C" d="M18.9657593,41.0694008h7.5305176c0.7381592,0,1.3355103-0.59729,1.3355103-1.3355103
				c0-0.7381592-0.5973511-1.3355103-1.3355103-1.3355103h-7.5305176c-2.2067261,0-4.0039063,1.7958984-4.0039063,4.0026245
				v7.5305176c0,2.206665,1.7971802,4.0025635,4.0039063,4.0025635h7.5305176c2.206665,0,4.0012817-1.7958984,4.0012817-4.0025635
				v-6.7518921c0-0.7381592-0.5973511-1.3355103-1.3355103-1.3355103s-1.3355103,0.5973511-1.3355103,1.3355103v6.7518921
				c0,0.7342529-0.5973511,1.331543-1.3302612,1.331543h-7.5305176c-0.7355957,0-1.3328857-0.59729-1.3328857-1.331543v-7.5305176
				C17.6328735,41.6667519,18.2301636,41.0694008,18.9657593,41.0694008z"/>
		</g>
	</g>
</g>
<g id="external_x5F_tool">
</g>
<g id="face_x5F_to_x5F_face">
</g>
<g id="forumNG">
</g>
<g id="glossary">
</g>
<g id="group_x5F_choice">
</g>
<g id="journal">
</g>
<g id="mediasite_x5F_content">
</g>
<g id="nanogong_x5F_voice">
</g>
<g id="questionnaire">
</g>
<g id="scorm_x5F_package">
</g>
<g id="survey">
</g>
<g id="tutorship">
</g>
<g id="advanced_x5F_forum">
</g>
<g id="subcourse">
</g>
<g id="lesson_1_">
</g>
<g id="adaptive_x5F_quiz">
</g>
<g id="ou_x5F_wiki">
</g>
<g id="support_x5F_tracker">
</g>
<g id="view_x5F_comments">
</g>
<g id="no_x5F_comment">
</g>
<g id="attention">
</g>
<g id="search">
</g>
<g id="submitted">
</g>
<g id="feedback">
</g>
<g id="T_x5F_I_x5F_N">
</g>
</svg>
