<?xml version="1.0" encoding="utf-8"?>
<!-- Generator: Adobe Illustrator 21.0.0, SVG Export Plug-In . SVG Version: 6.00 Build 0)  -->
<svg version="1.1" xmlns="http://www.w3.org/2000/svg" xmlns:xlink="http://www.w3.org/1999/xlink" x="0px" y="0px" width="64px"
	 height="64px" viewBox="0 0 64 64" enable-background="new 0 0 64 64" xml:space="preserve">
<g id="Layer_1">
</g>
<g id="Layer_2">
</g>
<g id="messages">
</g>
<g id="messages_x5F_hover">
</g>
<g id="profile">
</g>
<g id="profile_x5F_hover">
</g>
<g id="view_x5F_hover">
</g>
<g id="view_x5F_feedback">
</g>
<g id="no_x5F_feedback_x5F_to_x5F_view">
</g>
<g id="download_x5F_hover">
</g>
<g id="download">
</g>
<g id="no_x5F_feedback_x5F_download">
</g>
<g id="link_x5F_hover">
</g>
<g id="assignment_x5F_link_copy">
</g>
<g id="Layer_21">
</g>
<g id="home_x5F_hover">
</g>
<g id="home_1_">
</g>
<g id="edit_x5F_profile">
</g>
<g id="preferences">
</g>
<g id="notifications">
</g>
<g id="my_x5F_posts">
</g>
<g id="logout">
</g>
<g id="assignment">
</g>
<g id="coursework">
</g>
<g id="forum">
</g>
<g id="quiz">
</g>
<g id="book">
</g>
<g id="database">
</g>
<g id="wiki">
	<g>
		<g>
			<path fill="#FFFFFF" d="M59.9991875,10.3250322h-6.3253593V6.6663413c0-1.4728193-1.1940117-2.6666667-2.6666679-2.6666667
				h-10.222168c-1.4728165,0-2.6666641,1.1938474-2.6666641,2.6666667v3.6586909H25.8800449V3.9996746
				c0-1.4728191-1.1940098-2.6666667-2.666666-2.6666667h-10.222168c-1.4728193,0-2.666667,1.1938477-2.666667,2.6666667v6.3253574
				H6.665853c-1.4728193,0-2.6666667,1.1938477-2.6666667,2.666667v10.222168c0,1.4728184,1.1938474,2.666666,2.6666667,2.666666
				h3.6586909v12.2381191H3.9991863c-1.4728191,0-2.6666667,1.1940117-2.6666667,2.6666679v10.2223282
				c0,1.4726563,1.1938477,2.6666679,2.6666667,2.6666679h6.3253574v3.6586914c0,1.4726563,1.1940107,2.6666679,2.666667,2.6666679
				h10.222168c1.4728184,0,2.666666-1.1940117,2.666666-2.6666679v-3.6586914h12.2382832v6.3253593
				c0,1.4726563,1.1940079,2.6666641,2.6666641,2.6666641h10.222168c1.4728203,0,2.6666679-1.1940079,2.6666679-2.6666641
				v-6.3253593h3.6586914c1.4728203,0,2.6666679-1.1940117,2.6666679-2.6666679V40.7853203
				c0-1.4726563-1.1938477-2.6666679-2.6666679-2.6666679h-3.6586914V25.8805332h6.3253593
				c1.4728165,0,2.6666641-1.1938477,2.6666641-2.666666v-10.222168
				C62.6658516,11.5188799,61.4720039,10.3250322,59.9991875,10.3250322z"/>
		</g>
		<g opacity="0.3">
			<rect x="15.6582031" y="7.9996948" fill="#32548C" width="4.8880005" height="30.1189575"/>
			<rect x="43.4519653" y="26.0075684" fill="#32548C" width="4.8880615" height="30.1189575"/>
			<rect x="25.9435425" y="15.722229" fill="#32548C" width="30.1189575" height="4.8880005"/>
			<rect x="7.9356689" y="43.5159912" fill="#32548C" width="30.1190186" height="4.8880005"/>
		</g>
		<path fill="#32548C" d="M60,8.9921875H39.4505005V6.666687c0-0.7357178,0.598999-1.333374,1.333374-1.333374h10.223938
			c0.734375,0,1.333313,0.5976563,1.333313,1.333374C52.3411255,7.4036255,52.9375,8,53.6744995,8
			c0.7369385,0,1.333313-0.5963745,1.333313-1.333313c0-2.2057495-1.7942505-4-4-4h-10.223938c-2.2057495,0-4,1.7942505-4,4
			v2.3255005H27.213562V4c0-2.2057495-1.7943115-4-4-4H12.9921875c-2.2057495,0-4,1.7942505-4,4v20.546875H6.666687
			c-0.734375,0-1.333374-0.5976563-1.333374-1.333313V12.9921875c0-0.7356567,0.598999-1.333313,1.333374-1.333313
			C7.4036255,11.6588745,8,11.0625,8,10.3255005c0-0.7369385-0.5963745-1.333313-1.333313-1.333313c-2.2057495,0-4,1.7942505-4,4
			V23.213562c0,2.2056885,1.7942505,4,4,4h2.3255005v9.5715942H4c-2.2057495,0-4,1.7942505-4,4v10.2226563
			c0,2.2057495,1.7942505,4,4,4h20.546875v2.3255005c0,0.7357178-0.598938,1.333374-1.333313,1.333374H12.9921875
			c-0.734375,0-1.333313-0.5976563-1.333313-1.333374C11.6588745,56.5963745,11.0625,56,10.3255005,56
			c-0.7369385,0-1.333313,0.5963745-1.333313,1.333313c0,2.2057495,1.7942505,4,4,4H23.213562c2.2056885,0,4-1.7942505,4-4
			v-2.3255005h9.5703125V60c0,2.2057495,1.7942505,4,4,4h10.223938c2.2057495,0,4-1.7942505,4-4V39.4518433h2.3255005
			c0.734375,0,1.333374,0.5976563,1.333374,1.333313v10.2226563c0,0.7356567-0.598999,1.333313-1.333374,1.333313
			C56.5963745,52.3411255,56,52.9375,56,53.6744995c0,0.7369385,0.5963745,1.333313,1.333313,1.333313c2.2057495,0,4-1.7942505,4-4
			V40.7851563c0-2.2057495-1.7942505-4-4-4h-2.3255005V27.213562H60c2.2057495,0,4-1.7943115,4-4V12.9921875
			C64,10.786438,62.2057495,8.9921875,60,8.9921875z M11.6588745,4c0-0.7356567,0.598938-1.333313,1.333313-1.333313H23.213562
			c0.734375,0,1.333313,0.5976563,1.333313,1.333313v32.7851563h-2.666687V8c0-0.7369995-0.5963135-1.333313-1.333313-1.333313
			h-4.8880005c-0.7369995,0-1.333374,0.5963135-1.333374,1.333313v24.7851563c0,0.7369995,0.5963745,1.333313,1.333374,1.333313
			c0.7369385,0,1.333313-0.5963135,1.333313-1.333313V9.333313h2.2213745v27.4518433h-7.5546875V4z M36.7838745,42.0559692
			H7.9348755c-0.7369385,0-1.333313,0.5963745-1.333313,1.333374v4.8880005c0,0.7369995,0.5963745,1.333313,1.333313,1.333313
			h24.786499c0.7369385,0,1.333313-0.5963135,1.333313-1.333313s-0.5963745-1.333313-1.333313-1.333313H9.2682495v-2.2213745
			h27.515625v7.6184692H4c-0.734375,0-1.333313-0.5976563-1.333313-1.333313V40.7851563
			c0-0.7356567,0.598938-1.333313,1.333313-1.333313h32.7838745V42.0559692z M27.213562,36.7851563V27.213562h9.5703125v9.5715942
			H27.213562z M52.3411255,60c0,0.7356567-0.598938,1.333313-1.333313,1.333313h-10.223938
			c-0.734375,0-1.333374-0.5976563-1.333374-1.333313V27.213562h2.6693115v28.9127197
			c0,0.7369995,0.5963135,1.333374,1.333313,1.333374h4.8880005c0.7369995,0,1.333374-0.5963745,1.333374-1.333374V31.3411255
			c0-0.7369385-0.5963745-1.333313-1.333374-1.333313c-0.7369385,0-1.333313,0.5963745-1.333313,1.333313v23.4518433H44.786438
			V27.213562h7.5546875V60z M61.333313,23.213562c0,0.7356567-0.598938,1.333313-1.333313,1.333313H27.213562v-2.7304688H56.0625
			c0.7369995,0,1.333313-0.5963745,1.333313-1.333313v-4.8880615c0-0.7369385-0.5963135-1.333313-1.333313-1.333313H31.276062
			c-0.7369995,0-1.333374,0.5963745-1.333374,1.333313c0,0.7369995,0.5963745,1.333374,1.333374,1.333374h23.453125v2.2213135
			H27.213562v-7.4908447H60c0.734375,0,1.333313,0.5976563,1.333313,1.333313V23.213562z"/>
	</g>
</g>
<g id="choice">
</g>
<g id="workshop">
</g>
<g id="certificate">
</g>
<g id="scheduler">
</g>
<g id="equella">
</g>
<g id="file">
</g>
<g id="folder">
</g>
<g id="ims_x5F_content_x5F_package">
</g>
<g id="label">
</g>
<g id="lightbox_x5F_gallery">
</g>
<g id="nln_x5F_learning_x5F_object">
</g>
<g id="page">
</g>
<g id="subpage">
</g>
<g id="tab_x5F_display">
</g>
<g id="new_x5F_label">
</g>
<g id="url">
</g>
<g id="_x33_60_x5F_degree_x5F_diagnostics">
</g>
<g id="adobe_x5F_connect">
</g>
<g id="attendance_x5F_register">
</g>
<g id="booking">
</g>
<g id="chat">
</g>
<g id="checklist">
</g>
<g id="external_x5F_tool">
</g>
<g id="face_x5F_to_x5F_face">
</g>
<g id="forumNG">
</g>
<g id="glossary">
</g>
<g id="group_x5F_choice">
</g>
<g id="journal">
</g>
<g id="mediasite_x5F_content">
</g>
<g id="nanogong_x5F_voice">
</g>
<g id="questionnaire">
</g>
<g id="scorm_x5F_package">
</g>
<g id="survey">
</g>
<g id="tutorship">
</g>
<g id="advanced_x5F_forum">
</g>
<g id="subcourse">
</g>
<g id="lesson_1_">
</g>
<g id="adaptive_x5F_quiz">
</g>
<g id="ou_x5F_wiki">
</g>
<g id="support_x5F_tracker">
</g>
<g id="view_x5F_comments">
</g>
<g id="no_x5F_comment">
</g>
<g id="attention">
</g>
<g id="search">
</g>
<g id="submitted">
</g>
<g id="feedback">
</g>
<g id="T_x5F_I_x5F_N">
</g>
</svg>
