<?xml version="1.0" encoding="UTF-8"?>
<svg width="32px" height="32px" viewBox="0 0 32 32" version="1.1" xmlns="http://www.w3.org/2000/svg" xmlns:xlink="http://www.w3.org/1999/xlink">
    <!-- Generator: Sketch 46.1 (44463) - http://www.bohemiancoding.com/sketch -->
    <title>workshop</title>
    <desc>Created with Sketch.</desc>
    <defs></defs>
    <g id="Page-1" stroke="none" stroke-width="1" fill="none" fill-rule="evenodd">
        <g id="workshop">
            <circle id="Oval" fill="#60004F" cx="16" cy="16" r="16"></circle>
            <path d="M11.4607841,23.4336786 L12.523533,22.3709297 L9.77907154,19.6264682 L8.71632263,20.6892171 L8.71632263,21.938823 L10.2111782,21.938823 L10.2111782,23.4336786 L11.4607841,23.4336786 Z M17.5686707,12.5959754 C17.5686707,12.4441541 17.4635637,12.3390471 17.3117424,12.3390471 C17.241671,12.3390471 17.1715997,12.3624042 17.1132069,12.420797 L10.7834277,18.7505762 C10.7250349,18.808969 10.7016777,18.8790404 10.7016777,18.9491117 C10.7016777,19.100933 10.8067848,19.20604 10.958606,19.20604 C11.0286774,19.20604 11.0987488,19.1826829 11.1571416,19.1242901 L17.4869208,12.7945109 C17.5453136,12.7361181 17.5686707,12.6660467 17.5686707,12.5959754 Z M16.9380285,10.353692 L21.7963092,15.2119727 L12.0797478,24.9285342 L7.22146702,24.9285342 L7.22146702,20.0702534 L16.9380285,10.353692 Z M24.9144846,11.4748337 C24.9144846,11.8719047 24.7509848,12.2572972 24.4823779,12.525904 L22.543737,14.4645449 L17.6854563,9.60626417 L19.6240972,7.67930186 C19.892704,7.39901643 20.2780965,7.2355166 20.6751675,7.2355166 C21.0722385,7.2355166 21.457631,7.39901643 21.7379164,7.67930186 L24.4823779,10.4120848 C24.7509848,10.6923702 24.9144846,11.0777627 24.9144846,11.4748337 Z" id="ï€" fill="#FFFFFF"></path>
        </g>
    </g>
</svg>