<?xml version="1.0" encoding="utf-8"?>
<!-- Generator: Adobe Illustrator 21.0.0, SVG Export Plug-In . SVG Version: 6.00 Build 0)  -->
<svg version="1.1" xmlns="http://www.w3.org/2000/svg" xmlns:xlink="http://www.w3.org/1999/xlink" x="0px" y="0px" width="64px"
	 height="64px" viewBox="0 0 64 64" enable-background="new 0 0 64 64" xml:space="preserve">
<g id="Layer_1">
</g>
<g id="Layer_2">
</g>
<g id="messages">
</g>
<g id="messages_x5F_hover">
</g>
<g id="profile">
</g>
<g id="profile_x5F_hover">
</g>
<g id="view_x5F_hover">
</g>
<g id="view_x5F_feedback">
</g>
<g id="no_x5F_feedback_x5F_to_x5F_view">
</g>
<g id="download_x5F_hover">
</g>
<g id="download">
</g>
<g id="no_x5F_feedback_x5F_download">
</g>
<g id="link_x5F_hover">
</g>
<g id="assignment_x5F_link_copy">
</g>
<g id="Layer_21">
</g>
<g id="home_x5F_hover">
</g>
<g id="home_1_">
</g>
<g id="edit_x5F_profile">
</g>
<g id="preferences">
</g>
<g id="notifications">
</g>
<g id="my_x5F_posts">
</g>
<g id="logout">
</g>
<g id="assignment">
</g>
<g id="coursework">
</g>
<g id="forum">
</g>
<g id="quiz">
</g>
<g id="book">
</g>
<g id="database">
</g>
<g id="wiki">
</g>
<g id="choice">
</g>
<g id="workshop">
</g>
<g id="certificate">
</g>
<g id="scheduler">
</g>
<g id="equella">
</g>
<g id="file">
</g>
<g id="folder">
</g>
<g id="ims_x5F_content_x5F_package">
</g>
<g id="label">
</g>
<g id="lightbox_x5F_gallery">
</g>
<g id="nln_x5F_learning_x5F_object">
</g>
<g id="page">
</g>
<g id="subpage">
</g>
<g id="tab_x5F_display">
</g>
<g id="new_x5F_label">
</g>
<g id="url">
</g>
<g id="_x33_60_x5F_degree_x5F_diagnostics">
</g>
<g id="adobe_x5F_connect">
</g>
<g id="attendance_x5F_register">
</g>
<g id="booking">
</g>
<g id="chat">
</g>
<g id="checklist">
</g>
<g id="external_x5F_tool">
</g>
<g id="face_x5F_to_x5F_face">
</g>
<g id="forumNG">
</g>
<g id="glossary">
</g>
<g id="group_x5F_choice">
</g>
<g id="journal">
</g>
<g id="mediasite_x5F_content">
</g>
<g id="nanogong_x5F_voice">
</g>
<g id="questionnaire">
	<g>
		<g>
			<path fill="#FFFFFF" d="M42.6204414,3.0686848c-1.1110001-1.1110026-2.617836-1.735026-4.1888008-1.735026H12.6263018
				c-1.6357422,0-2.9615879,1.3260092-2.9615879,2.9617515v55.47575c0,1.5992813,1.2962236,2.8958321,2.895833,2.8958321h38.8789063
				c1.5996094,0,2.8958321-1.2965508,2.8958321-2.8958321V14.7838287L42.6204414,3.0686848z"/>
		</g>
		<g opacity="0.3">
			<g>
				<path fill="#32548C" d="M40.8853111,1.3336588l11.7099266,11.7099237
					c0.6421928,0.6421938,0.1873627,1.7402458-0.7208366,1.7402458h-8.027317c-1.6357422,0-2.9617729-1.3260298-2.9617729-2.961771
					V1.3336588z"/>
			</g>
		</g>
		<g>
			<path fill="#32548C" d="M51.4401054,64H12.5598955c-2.3307285,0-4.229166-1.8971367-4.229166-4.2291679V4.2955728
				C8.3307295,1.9270834,10.2578125,0,12.625,0h25.8072929c1.9114571,0,3.78125,0.7747396,5.1302071,2.126302l11.7161446,11.7148438
				c0.3802109,0.3815107,0.4947929,0.9544277,0.2890625,1.453125c-0.2057266,0.4986982-0.6927071,0.822917-1.2317696,0.822917
				H43.8463554c-2.3671875,0-4.2942734-1.927083-4.2942734-4.2955732V7.2578125c0-0.736979,0.5963554-1.3333335,1.3333359-1.3333335
				c0.7369766,0,1.3333321,0.5963545,1.3333321,1.3333335v4.5638018c0,0.8984375,0.7291679,1.6289063,1.6276054,1.6289063h7.2708321
				l-9.4401054-9.4388018c-0.8541641-0.8554688-2.0364571-1.345052-3.2447891-1.345052H12.625
				c-0.8984375,0-1.6276045,0.7304688-1.6276045,1.628906v55.4752579c0,0.8619804,0.7005215,1.5625,1.5625,1.5625h38.8802109
				c0.8619766,0,1.5625-0.7005196,1.5625-1.5625V19.7838535c0-0.7369785,0.5963516-1.3333321,1.3333321-1.3333321
				s1.3333321,0.5963535,1.3333321,1.3333321v39.9869766C55.6692696,62.1028633,53.7708321,64,51.4401054,64z"/>
		</g>
		<g>
			<g>
				<g>
					
						<ellipse transform="matrix(0.9023766 -0.4309483 0.4309483 0.9023766 -11.1834984 12.7816076)" fill="#32548C" cx="22.619791" cy="31.0749989" rx="1.5308846" ry="1.5308846"/>
				</g>
				<g>
					<path fill="#32548C" d="M19.4579449,18.930685c0.3196945-0.1937752,0.6570244-0.3687057,1.0210533-0.5176067
						c0.364027-0.148901,0.7546902-0.264122,1.1719913-0.347435c0.419075-0.083313,0.8718891-0.1258564,1.3584442-0.1258564
						c0.6836605,0,1.2998447,0.0904045,1.8503246,0.2712116c0.5487041,0.1825809,1.0157261,0.4413853,1.401062,0.7799568
						c0.3853359,0.3367977,0.6818867,0.744503,0.8896484,1.2195663s0.3107548,1.0033073,0.3107548,1.5847282
						c0,0.5512867-0.0763569,1.0281239-0.2290707,1.4322815c-0.1527138,0.4023876-0.3462696,0.7533665-0.5788937,1.0511684
						c-0.2326221,0.297802-0.4883289,0.5548325-0.7688961,0.7728653s-0.5451546,0.4183388-0.7955341,0.6044655
						c-0.0998001,0.0729656-0.3107281,0.2124996-0.5291824,0.3544769c-0.4269104,0.2774582-0.684515,0.7516632-0.684515,1.2601852
						v0.5593529c-0.0255337,0.1274357-0.0949802,0.5097408-0.4616222,0.5097408c-0.2846413,0-1.0626907,0-1.5017395,0
						c-0.4100342,0-0.506197-0.4052258-0.5246677-0.5403004v-1.3146362c0-0.8363857,0.4238091-1.6183014,1.1257133-2.0750256
						c0.0495377-0.0322323,0.0922642-0.0605278,0.1254864-0.0832634c0.2841206-0.1914444,0.5504818-0.3988419,0.7973099-0.6204205
						c0.2468281-0.2215767,0.4563656-0.4679718,0.6268368-0.7409573c0.1704731-0.2712116,0.2574844-0.5973759,0.2574844-0.9749451
						c0-0.4342937-0.1438351-0.7817268-0.4315071-1.0387592c-0.2876701-0.2588024-0.6818848-0.3864326-1.1844215-0.3864326
						c-0.3853359,0-0.7067451,0.0389996-0.9660034,0.1187668c-0.2574844,0.0797691-0.4794521,0.1683998-0.6641293,0.2676659
						c-0.1864529,0.097496-0.3480453,0.1861267-0.4865532,0.2658939c-0.1385078,0.0797691-0.2752399,0.1205387-0.4137497,0.1205387
						c-0.3125305,0-0.5451527-0.1347198-0.6978664-0.4041576l-0.5823421-0.8927422
						C18.8933601,20.0410118,18.5947895,19.4538651,19.4579449,18.930685z"/>
				</g>
			</g>
			<g>
				<g>
					
						<ellipse transform="matrix(0.9023766 -0.4309483 0.4309483 0.9023766 -19.5418587 14.6750402)" fill="#32548C" cx="22.619791" cy="50.4702721" rx="1.5308846" ry="1.5308846"/>
				</g>
				<g>
					<path fill="#32548C" d="M19.4579449,38.3259583c0.3196945-0.1937752,0.6570244-0.3687057,1.0210533-0.5176048
						c0.364027-0.1489029,0.7546902-0.264122,1.1719913-0.347435c0.419075-0.083313,0.8718891-0.1258583,1.3584442-0.1258583
						c0.6836605,0,1.2998447,0.0904045,1.8503246,0.2712135c0.5487041,0.182579,1.0157261,0.4413834,1.401062,0.7799568
						c0.3853359,0.3367958,0.6818867,0.744503,0.8896484,1.2195663s0.3107548,1.0033073,0.3107548,1.5847282
						c0,0.5512848-0.0763569,1.0281219-0.2290707,1.4322815c-0.1527138,0.4023857-0.3462696,0.7533646-0.5788937,1.0511665
						c-0.2326221,0.297802-0.4883289,0.5548325-0.7688961,0.7728653s-0.5451546,0.4183388-0.7955341,0.6044655
						c-0.0998001,0.0729675-0.3107281,0.2125015-0.5291824,0.3544769c-0.4269104,0.2774582-0.684515,0.7516632-0.684515,1.2601852
						v0.5593529c-0.0255337,0.1274376-0.0949802,0.5097427-0.4616222,0.5097427c-0.2846413,0-1.0626907,0-1.5017395,0
						c-0.4100342,0-0.506197-0.4052277-0.5246677-0.5403023v-1.3146362c0-0.8363838,0.4238091-1.6183014,1.1257133-2.0750237
						c0.0495377-0.0322342,0.0922642-0.0605278,0.1254864-0.0832634c0.2841206-0.1914444,0.5504818-0.3988419,0.7973099-0.6204224
						c0.2468281-0.2215767,0.4563656-0.4679718,0.6268368-0.7409554c0.1704731-0.2712135,0.2574844-0.597374,0.2574844-0.9749451
						c0-0.4342918-0.1438351-0.7817268-0.4315071-1.0387611c-0.2876701-0.2588005-0.6818848-0.3864326-1.1844215-0.3864326
						c-0.3853359,0-0.7067451,0.0390015-0.9660034,0.1187668c-0.2574844,0.0797691-0.4794521,0.1683998-0.6641293,0.2676659
						c-0.1864529,0.097496-0.3480453,0.1861267-0.4865532,0.2658958s-0.2752399,0.1205368-0.4137497,0.1205368
						c-0.3125305,0-0.5451527-0.134716-0.6978664-0.4041557l-0.5823421-0.8927422
						C18.8933601,39.4362869,18.5947895,38.8491402,19.4579449,38.3259583z"/>
				</g>
			</g>
			<g>
				<g>
					<path fill="#32548C" d="M42.2604179,23.7382813H32.1145821c-0.7369785,0-1.3333321-0.5963535-1.3333321-1.333334
						c0-0.7369785,0.5963535-1.3333321,1.3333321-1.3333321h10.1458359c0.7369766,0,1.3333321,0.5963535,1.3333321,1.3333321
						C43.59375,23.1419277,42.9973946,23.7382813,42.2604179,23.7382813z"/>
				</g>
				<g>
					<path fill="#32548C" d="M42.2604179,29.4752598H32.1145821c-0.7369785,0-1.3333321-0.5963535-1.3333321-1.3333321
						c0-0.7369804,0.5963535-1.333334,1.3333321-1.333334h10.1458359c0.7369766,0,1.3333321,0.5963535,1.3333321,1.333334
						C43.59375,28.8789063,42.9973946,29.4752598,42.2604179,29.4752598z"/>
				</g>
			</g>
			<g>
				<g>
					<path fill="#32548C" d="M42.2604179,43.1328125H32.1145821c-0.7369785,0-1.3333321-0.5963554-1.3333321-1.3333321
						c0-0.7369804,0.5963535-1.3333359,1.3333321-1.3333359h10.1458359c0.7369766,0,1.3333321,0.5963554,1.3333321,1.3333359
						C43.59375,42.5364571,42.9973946,43.1328125,42.2604179,43.1328125z"/>
				</g>
				<g>
					<path fill="#32548C" d="M42.2604179,48.8697929H32.1145821c-0.7369785,0-1.3333321-0.5963554-1.3333321-1.3333359
						c0-0.7369766,0.5963535-1.3333321,1.3333321-1.3333321h10.1458359c0.7369766,0,1.3333321,0.5963554,1.3333321,1.3333321
						C43.59375,48.2734375,42.9973946,48.8697929,42.2604179,48.8697929z"/>
				</g>
			</g>
		</g>
	</g>
</g>
<g id="scorm_x5F_package">
</g>
<g id="survey">
</g>
<g id="tutorship">
</g>
<g id="advanced_x5F_forum">
</g>
<g id="subcourse">
</g>
<g id="lesson_1_">
</g>
<g id="adaptive_x5F_quiz">
</g>
<g id="ou_x5F_wiki">
</g>
<g id="support_x5F_tracker">
</g>
<g id="view_x5F_comments">
</g>
<g id="no_x5F_comment">
</g>
<g id="attention">
</g>
<g id="search">
</g>
<g id="submitted">
</g>
<g id="feedback">
</g>
<g id="T_x5F_I_x5F_N">
</g>
</svg>
