<?xml version="1.0" encoding="utf-8"?>
<!-- Generator: Adobe Illustrator 21.0.0, SVG Export Plug-In . SVG Version: 6.00 Build 0)  -->
<svg version="1.1" xmlns="http://www.w3.org/2000/svg" xmlns:xlink="http://www.w3.org/1999/xlink" x="0px" y="0px" width="64px"
	 height="64px" viewBox="0 0 64 64" enable-background="new 0 0 64 64" xml:space="preserve">
<g id="Layer_1">
</g>
<g id="Layer_2">
</g>
<g id="messages">
</g>
<g id="messages_x5F_hover">
</g>
<g id="profile">
</g>
<g id="profile_x5F_hover">
</g>
<g id="view_x5F_hover">
</g>
<g id="view_x5F_feedback">
	<g>
		<g>
			<path fill="#FFFFFF" d="M59.9999084,14.1333008h-22.503418l-5.4965801-7.3852539l-5.4964199,7.3852539H3.9999101
				c-1.4726563,0-2.6666667,1.1940107-2.6666667,2.666666v37.7556992c0,1.4728203,1.1940105,2.6666679,2.6666667,2.6666679h56
				c1.4728203,0,2.6666679-1.1938477,2.6666679-2.6666679V16.7999668
				C62.6665764,15.3273115,61.4727287,14.1333008,59.9999084,14.1333008z"/>
		</g>
		<g>
			<path fill="#32548C" d="M33.3932304,31.4752598h-16.723959c-0.7369795,0-1.333334-0.5963535-1.333334-1.3333321
				c0-0.7369804,0.5963545-1.333334,1.333334-1.333334h16.723959c0.7369766,0,1.3333321,0.5963535,1.3333321,1.333334
				C34.7265625,30.8789063,34.1302071,31.4752598,33.3932304,31.4752598z"/>
		</g>
		<g>
			<path fill="#32548C" d="M33.3932304,42.5481758h-16.723959c-0.7369795,0-1.333334-0.5963516-1.333334-1.3333321
				s0.5963545-1.3333321,1.333334-1.3333321h16.723959c0.7369766,0,1.3333321,0.5963516,1.3333321,1.3333321
				S34.1302071,42.5481758,33.3932304,42.5481758z"/>
		</g>
		<g opacity="0.3">
			<path fill="#32548C" d="M38.8166351,45.0258102c0.2098808-0.2826653,0.4593277-0.5061302,0.7464104-0.671814
				c0.2890091-0.1642532,0.5917091-0.2706146,0.9124413-0.3128777c0.3188095-0.0436897,0.6451035-0.0251427,0.9755325,0.0561333
				c0.3318558,0.0793533,0.6453819,0.2316055,0.9453583,0.4543343c0.2903595,0.2155952,0.5248642,0.470253,0.6968117,0.7649727
				c0.1733742,0.2927971,0.2855034,0.599781,0.3416634,0.9218826c0.0542374,0.3206749,0.0438194,0.6440582-0.0317459,0.9667931
				c-0.0755653,0.3227386-0.2173271,0.626152-0.4272079,0.9088211c-0.2113075,0.2845917-0.4621811,0.5099754-0.752121,0.6795044
				c-0.2899437,0.1695328-0.5979156,0.2749596-0.9205704,0.3157921c-0.3245773,0.0394058-0.6494446,0.0189362-0.9770164-0.066185
				c-0.3275757-0.0851212-0.6391792-0.2359428-0.9295387-0.4515381c-0.2999725-0.2227287-0.5363998-0.478817-0.7126312-0.7677689
				s-0.2897873-0.5940094-0.3401794-0.9118309c-0.0523148-0.3192444-0.0366211-0.6416931,0.039875-0.9697037
				C38.4621391,45.6157417,38.6053276,45.3104019,38.8166351,45.0258102z M51.4357605,26.0874615l-2.9126358,8.0024052
				c-0.3784752,1.0398521-0.8141136,2.0553932-1.313282,3.0430031c-0.2700882,0.5343704-0.5532112,1.0694427-0.8501244,1.6059189
				c-0.4707451,0.8505669-1.4868431,1.2410545-2.4003601,0.9085617l-0.5230293-0.1903687
				c-0.913517-0.3324928-1.4408913-1.2847595-1.2547684-2.2389221c0.1173935-0.6018143,0.244442-1.1936913,0.381031-1.7766533
				c0.2524376-1.0774078,0.5714951-2.1353798,0.9499702-3.1752357l2.9126396-8.0024033
				c0.3707733-1.0186882,1.4971504-1.5439262,2.5158386-1.1731548l1.3215675,0.4810104
				C51.281292,23.9423943,51.8065338,25.0687733,51.4357605,26.0874615z"/>
		</g>
		<g>
			<path fill="#32548C" d="M40.984375,50.4622383c-0.3359375,0-0.6692696-0.0442696-0.9973946-0.1289063
				C39.5,50.2070313,39.03125,49.9804688,38.6015625,49.6627617c-0.4401054-0.3268242-0.7942696-0.7135429-1.0572929-1.1497421
				c-0.265625-0.4335938-0.4427071-0.90625-0.5182266-1.3971329c-0.078125-0.4713554-0.0572929-0.9700546,0.0572891-1.4726563
				c0.125-0.5182304,0.3489609-0.9921875,0.6692734-1.4192734c0.3072891-0.4179688,0.6953125-0.765625,1.1432266-1.0247383
				c0.453125-0.2578125,0.9244804-0.4179688,1.4088554-0.4804688c0.4791679-0.0625,0.9765625-0.0351563,1.4661446,0.0846367
				c0.4921875,0.1171875,0.9739609,0.3463516,1.4192734,0.6783829c0.5911446,0.4401054,0.7161446,1.2747421,0.2760391,1.8658867
				c-0.4427071,0.59375-1.28125,0.7109375-1.8645821,0.2747383c-0.1588554-0.1171875-0.3098946-0.1914063-0.4609375-0.2278633
				c-0.1770821-0.0416679-0.3333321-0.0520821-0.4791679-0.0325508c-0.15625,0.0208321-0.2942696,0.0690079-0.4401016,0.1523438
				c-0.1223984,0.0690079-0.2317734,0.1705704-0.3307304,0.3033829c-0.1067696,0.1432304-0.1744804,0.2825546-0.2109375,0.4348984
				c-0.0364571,0.1549454-0.0442696,0.3033829-0.0208321,0.4440079c0.0234375,0.1536484,0.078125,0.2903671,0.1640625,0.4309921
				c0.0885391,0.1471329,0.2083321,0.2734375,0.3671875,0.3932266c0.1536446,0.1132813,0.3072891,0.1901054,0.46875,0.2304688
				c0.1666641,0.0455742,0.3125,0.0533867,0.484375,0.0338554c0.1380196-0.0169258,0.2734375-0.0638008,0.4036446-0.140625
				c0.625-0.3723946,1.4479179-0.1666679,1.8255196,0.4713554c0.375,0.6341133,0.1640625,1.4505196-0.4713516,1.8255196
				c-0.4453125,0.2630196-0.9270859,0.4270821-1.4322929,0.4908867
				C41.3072929,50.4518242,41.1458321,50.4622383,40.984375,50.4622383z M44.9505196,41.3411446
				c-0.1510391,0-0.3046875-0.0260391-0.4557266-0.0807266l-3.0651054-1.1158867
				c-0.6015625-0.21875-0.9609375-0.8320313-0.8619804-1.4635429c0.1901054-1.1888008,0.4166679-2.3411446,0.6796875-3.4609375
				c0.2630234-1.1432266,0.6015625-2.2799454,1-3.3749981L45.84375,21.963541
				c0.1197929-0.3320313,0.3697929-0.6028633,0.6901054-0.7526035s0.6848946-0.1640625,1.0182266-0.0442715L52.5625,22.9908848
				c0.6927071,0.2513027,1.0494804,1.0169277,0.796875,1.708334l-3.5963554,9.8828125
				c-0.3307266,0.9088554-0.703125,1.7994804-1.1223946,2.6666679c-0.3203125,0.6640625-1.1276054,0.9414063-1.7786446,0.6210938
				c-0.6640625-0.3190117-0.9427109-1.1158867-0.6223984-1.7799492c0.3776054-0.7864571,0.71875-1.59375,1.0182304-2.4192696
				l3.140625-8.630209l-2.5052071-0.911459l-3.140625,8.6289063c-0.3619804,0.9934883-0.6666679,2.0260429-0.9088554,3.0677071
				c-0.1692696,0.7174492-0.3203125,1.4479179-0.4557304,2.1940117l2.0182304,0.7356758
				c0.6927071,0.2513046,1.0494804,1.0169296,0.796875,1.7083359
				C46.0052071,41.0052071,45.4947929,41.3411446,44.9505196,41.3411446z"/>
		</g>
		<g>
			<path fill="#32548C" d="M60,58.5559883H4c-2.205729,0-4-1.7942696-4-4V16.7994785c0-2.2057285,1.7942709-3.999999,4-3.999999
				h21.833334l5.0963535-6.8476567c0.505209-0.677083,1.6354179-0.677083,2.140625,0l5.0963554,6.8476567H60
				c2.2057304,0,4,1.7942705,4,3.999999v37.7565079C64,56.7617188,62.2057304,58.5559883,60,58.5559883z M4,15.4661455
				c-0.734375,0-1.3333333,0.5976572-1.3333333,1.333333v37.7565079c0,0.7356796,0.5989583,1.3333359,1.3333333,1.3333359h56
				c0.734375,0,1.3333321-0.5976563,1.3333321-1.3333359V16.7994785c0-0.7356758-0.5989571-1.333333-1.3333321-1.333333H37.4973946
				c-0.421875,0-0.8177071-0.1992188-1.0703125-0.5377598L32,8.9804688l-4.427084,5.947917
				c-0.2526035,0.338541-0.6484375,0.5377598-1.0703125,0.5377598H4z"/>
		</g>
	</g>
</g>
<g id="no_x5F_feedback_x5F_to_x5F_view">
</g>
<g id="download_x5F_hover">
</g>
<g id="download">
</g>
<g id="no_x5F_feedback_x5F_download">
</g>
<g id="link_x5F_hover">
</g>
<g id="assignment_x5F_link_copy">
</g>
<g id="Layer_21">
</g>
<g id="home_x5F_hover">
</g>
<g id="home_1_">
</g>
<g id="edit_x5F_profile">
</g>
<g id="preferences">
</g>
<g id="notifications">
</g>
<g id="my_x5F_posts">
</g>
<g id="logout">
</g>
<g id="assignment">
</g>
<g id="coursework">
</g>
<g id="forum">
</g>
<g id="quiz">
</g>
<g id="book">
</g>
<g id="database">
</g>
<g id="wiki">
</g>
<g id="choice">
</g>
<g id="workshop">
</g>
<g id="certificate">
</g>
<g id="scheduler">
</g>
<g id="equella">
</g>
<g id="file">
</g>
<g id="folder">
</g>
<g id="ims_x5F_content_x5F_package">
</g>
<g id="label">
</g>
<g id="lightbox_x5F_gallery">
</g>
<g id="nln_x5F_learning_x5F_object">
</g>
<g id="page">
</g>
<g id="subpage">
</g>
<g id="tab_x5F_display">
</g>
<g id="new_x5F_label">
</g>
<g id="url">
</g>
<g id="_x33_60_x5F_degree_x5F_diagnostics">
</g>
<g id="adobe_x5F_connect">
</g>
<g id="attendance_x5F_register">
</g>
<g id="booking">
</g>
<g id="chat">
</g>
<g id="checklist">
</g>
<g id="external_x5F_tool">
</g>
<g id="face_x5F_to_x5F_face">
</g>
<g id="forumNG">
</g>
<g id="glossary">
</g>
<g id="group_x5F_choice">
</g>
<g id="journal">
</g>
<g id="mediasite_x5F_content">
</g>
<g id="nanogong_x5F_voice">
</g>
<g id="questionnaire">
</g>
<g id="scorm_x5F_package">
</g>
<g id="survey">
</g>
<g id="tutorship">
</g>
<g id="advanced_x5F_forum">
</g>
<g id="subcourse">
</g>
<g id="lesson_1_">
</g>
<g id="adaptive_x5F_quiz">
</g>
<g id="ou_x5F_wiki">
</g>
<g id="support_x5F_tracker">
</g>
<g id="view_x5F_comments">
</g>
<g id="no_x5F_comment">
</g>
<g id="attention">
</g>
<g id="search">
</g>
<g id="submitted">
</g>
<g id="feedback">
</g>
<g id="T_x5F_I_x5F_N">
</g>
</svg>
