<?xml version="1.0" encoding="utf-8"?>
<!-- Generator: Adobe Illustrator 21.0.0, SVG Export Plug-In . SVG Version: 6.00 Build 0)  -->
<svg version="1.1" xmlns="http://www.w3.org/2000/svg" xmlns:xlink="http://www.w3.org/1999/xlink" x="0px" y="0px" width="16px"
	 height="16px" viewBox="0 0 16 16" enable-background="new 0 0 16 16" xml:space="preserve">
<g id="Layer_1">
</g>
<g id="Layer_2">
</g>
<g id="messages">
</g>
<g id="messages_x5F_hover">
</g>
<g id="profile">
</g>
<g id="profile_x5F_hover">
</g>
<g id="view_x5F_hover">
</g>
<g id="view_x5F_feedback">
</g>
<g id="no_x5F_feedback_x5F_to_x5F_view">
</g>
<g id="download_x5F_hover">
</g>
<g id="download">
</g>
<g id="no_x5F_feedback_x5F_download">
</g>
<g id="link_x5F_hover">
</g>
<g id="assignment_x5F_link_copy">
</g>
<g id="Layer_21">
</g>
<g id="home_x5F_hover">
</g>
<g id="home_1_">
</g>
<g id="edit_x5F_profile">
</g>
<g id="preferences">
</g>
<g id="notifications">
</g>
<g id="my_x5F_posts">
</g>
<g id="logout">
</g>
<g id="assignment">
</g>
<g id="coursework">
</g>
<g id="forum">
</g>
<g id="quiz">
</g>
<g id="book">
</g>
<g id="database">
</g>
<g id="wiki">
</g>
<g id="choice">
</g>
<g id="workshop">
</g>
<g id="certificate">
</g>
<g id="scheduler">
</g>
<g id="equella">
</g>
<g id="file">
</g>
<g id="folder">
</g>
<g id="ims_x5F_content_x5F_package">
</g>
<g id="label">
</g>
<g id="lightbox_x5F_gallery">
</g>
<g id="nln_x5F_learning_x5F_object">
</g>
<g id="page">
</g>
<g id="subpage">
</g>
<g id="tab_x5F_display">
</g>
<g id="new_x5F_label">
</g>
<g id="url">
</g>
<g id="_x33_60_x5F_degree_x5F_diagnostics">
</g>
<g id="adobe_x5F_connect">
</g>
<g id="attendance_x5F_register">
</g>
<g id="booking">
</g>
<g id="chat">
</g>
<g id="checklist">
	<g>
		<g>
			<path fill="#FFFFFF" d="M7.9868202,15.5H7.9868054c-4.1421318,0-7.4999924-3.3519659-7.4999924-7.486825V7.9868054
				c0-4.1348591,3.357861-7.486825,7.4999924-7.486825h0.0000148c4.1421318,0,7.4999924,3.3519657,7.4999924,7.486825V8.013175
				C15.4868126,12.1480341,12.128952,15.5,7.9868202,15.5z"/>
		</g>
	</g>
	<g opacity="0.3">
		<g>
			<path fill="#545157" d="M7.9868202,15.5H7.9868054c-4.1421318,0-7.4999924-3.3519659-7.4999924-7.486825V7.9868054
				c0-4.1348591,3.357861-7.486825,7.4999924-7.486825h0.0000148c4.1421318,0,7.4999924,3.3519657,7.4999924,7.486825V8.013175
				C15.4868126,12.1480341,12.128952,15.5,7.9868202,15.5z"/>
		</g>
	</g>
	<g>
		<g>
			<g>
				<path fill="#545157" d="M7.9868164,16c-4.4111328,0-8-3.5830078-8-7.9868164c0-4.4301758,3.5888672-8.0131836,8-8.0131836
					c1.3320313,0,2.6508789,0.3334961,3.8129883,0.9643555c0.2431641,0.1318359,0.3330078,0.4350586,0.2011719,0.6777344
					s-0.4355469,0.3330078-0.6777344,0.2011719C10.3066406,1.2915039,9.152832,1,7.9868164,1c-3.8598633,0-7,3.1342773-7,6.9868164
					c0,3.8789063,3.1401367,7.0131836,7,7.0131836s7-3.1342773,7-6.9868164c0-1.9560547-0.7709961-3.7519531-2.1704102-5.0834961
					c-0.2001953-0.1904297-0.2080078-0.5068359-0.0175781-0.7070313c0.190918-0.1992188,0.5078125-0.206543,0.7070313-0.0175781
					c1.5996094,1.5219727,2.480957,3.5751953,2.480957,5.7817383C15.9868164,12.4169922,12.3979492,16,7.9868164,16z"/>
			</g>
		</g>
	</g>
</g>
<g id="external_x5F_tool">
</g>
<g id="face_x5F_to_x5F_face">
</g>
<g id="forumNG">
</g>
<g id="glossary">
</g>
<g id="group_x5F_choice">
</g>
<g id="journal">
</g>
<g id="mediasite_x5F_content">
</g>
<g id="nanogong_x5F_voice">
</g>
<g id="questionnaire">
	<g>
		<path fill="#545157" d="M5.7490392,4.1357856c0.194787-0.1180658,0.4003205-0.2246501,0.6221199-0.3153741
			C6.592958,3.7296875,6.8309865,3.6594844,7.0852442,3.608722c0.2553396-0.0507622,0.5312366-0.0766833,0.8276901-0.0766833
			c0.4165497,0,0.7919855,0.0550823,1.127389,0.1652472C9.3746452,3.8085308,9.6591978,3.966218,9.89398,4.1725073
			c0.2347832,0.2052088,0.4154682,0.45362,0.5420561,0.743073s0.1893406,0.6113071,0.1893406,0.9655628
			c0,0.3358951-0.0465231,0.6264281-0.1395712,0.8726788c-0.0930471,0.2451711-0.2109795,0.4590206-0.3527145,0.6404686
			C9.9913559,7.5757389,9.8355551,7.7323456,9.664607,7.8651915C9.49366,7.9980373,9.3324499,8.1200829,9.1798954,8.2334881
			C9.1190872,8.2779455,8.9905701,8.3629627,8.8574677,8.4494686C8.5973549,8.6185217,8.4403973,8.9074507,8.4403973,9.2172899
			v0.3408089C8.4248409,9.6357441,8.3825274,9.868681,8.1591358,9.868681c-0.1734304,0-0.64749,0-0.9149995,0
			c-0.2498307,0-0.3084221-0.2469015-0.3196759-0.3292017V8.7384815c0-0.5096035,0.2582231-0.9860187,0.6858888-1.264298
			c0.0301824-0.019639,0.0562158-0.0368791,0.076458-0.0507317c0.1731114-0.1166453,0.3354039-0.243011,0.4857945-0.3780169
			s0.2780609-0.2851324,0.3819275-0.4514599c0.1038666-0.1652474,0.1568823-0.3639765,0.1568823-0.5940266
			c0-0.2646117-0.0876379-0.4763012-0.2629128-0.6329083C8.2732229,5.2093534,8.0330305,5.1315899,7.7268391,5.1315899
			c-0.2347822,0-0.4306149,0.0237608-0.5885792,0.0723634C6.9813771,5.2525554,6.8461337,5.3065577,6.7336111,5.3670402
			C6.620007,5.4264431,6.5215497,5.4804454,6.4371576,5.5290475S6.2694559,5.6024909,6.1850638,5.6024909
			c-0.1904225,0-0.3321581-0.0820837-0.4252052-0.2462511L5.4050417,4.8122997
			C5.4050417,4.8122997,5.2231255,4.4545555,5.7490392,4.1357856z"/>
		
			<ellipse transform="matrix(0.9026707 -0.4303319 0.4303319 0.9026707 -4.2168908 4.4254808)" fill="#545157" cx="7.6749706" cy="11.5350266" rx="0.9340542" ry="0.933023"/>
	</g>
</g>
<g id="scorm_x5F_package">
</g>
<g id="survey">
</g>
<g id="tutorship">
</g>
<g id="advanced_x5F_forum">
</g>
<g id="subcourse">
</g>
<g id="lesson_1_">
</g>
<g id="adaptive_x5F_quiz">
</g>
<g id="ou_x5F_wiki">
</g>
<g id="support_x5F_tracker">
</g>
<g id="view_x5F_comments">
</g>
<g id="no_x5F_comment">
</g>
<g id="attention">
</g>
<g id="search">
</g>
<g id="submitted">
</g>
<g id="feedback">
</g>
<g id="T_x5F_I_x5F_N">
</g>
</svg>
