<?xml version="1.0" encoding="utf-8"?>
<!-- Generator: Adobe Illustrator 21.0.0, SVG Export Plug-In . SVG Version: 6.00 Build 0)  -->
<svg version="1.1" xmlns="http://www.w3.org/2000/svg" xmlns:xlink="http://www.w3.org/1999/xlink" x="0px" y="0px" width="16px"
	 height="16px" viewBox="0 0 16 16" enable-background="new 0 0 16 16" xml:space="preserve">
<g id="Layer_1">
</g>
<g id="Layer_2">
</g>
<g id="messages">
</g>
<g id="messages_x5F_hover">
</g>
<g id="profile">
</g>
<g id="profile_x5F_hover">
</g>
<g id="view_x5F_hover">
</g>
<g id="view_x5F_feedback">
</g>
<g id="no_x5F_feedback_x5F_to_x5F_view">
</g>
<g id="download_x5F_hover">
</g>
<g id="download">
</g>
<g id="no_x5F_feedback_x5F_download">
</g>
<g id="link_x5F_hover">
</g>
<g id="assignment_x5F_link_copy">
</g>
<g id="Layer_21">
</g>
<g id="home_x5F_hover">
</g>
<g id="home_1_">
</g>
<g id="edit_x5F_profile">
</g>
<g id="preferences">
</g>
<g id="notifications">
</g>
<g id="my_x5F_posts">
</g>
<g id="logout">
</g>
<g id="assignment">
</g>
<g id="coursework">
</g>
<g id="forum">
</g>
<g id="quiz">
</g>
<g id="book">
</g>
<g id="database">
</g>
<g id="wiki">
</g>
<g id="choice">
</g>
<g id="workshop">
</g>
<g id="certificate">
</g>
<g id="scheduler">
</g>
<g id="equella">
</g>
<g id="file">
</g>
<g id="folder">
</g>
<g id="ims_x5F_content_x5F_package">
</g>
<g id="label">
</g>
<g id="lightbox_x5F_gallery">
</g>
<g id="nln_x5F_learning_x5F_object">
</g>
<g id="page">
</g>
<g id="subpage">
</g>
<g id="tab_x5F_display">
</g>
<g id="new_x5F_label">
</g>
<g id="url">
</g>
<g id="_x33_60_x5F_degree_x5F_diagnostics">
</g>
<g id="adobe_x5F_connect">
</g>
<g id="attendance_x5F_register">
</g>
<g id="booking">
</g>
<g id="chat">
</g>
<g id="checklist">
</g>
<g id="external_x5F_tool">
</g>
<g id="face_x5F_to_x5F_face">
</g>
<g id="forumNG">
</g>
<g id="glossary">
</g>
<g id="group_x5F_choice">
</g>
<g id="journal">
</g>
<g id="mediasite_x5F_content">
</g>
<g id="nanogong_x5F_voice">
</g>
<g id="questionnaire">
</g>
<g id="scorm_x5F_package">
</g>
<g id="survey">
</g>
<g id="tutorship">
</g>
<g id="advanced_x5F_forum">
</g>
<g id="subcourse">
</g>
<g id="lesson_1_">
</g>
<g id="adaptive_x5F_quiz">
</g>
<g id="ou_x5F_wiki">
</g>
<g id="support_x5F_tracker">
</g>
<g id="view_x5F_comments">
</g>
<g id="no_x5F_comment">
</g>
<g id="attention">
</g>
<g id="search">
	<g>
		<path fill="#545157" d="M6.8317461,10.2880077l0.4151502-0.7190609c0.0965209-0.1671791,0.0956035-0.3791513-0.0204411-0.5334196
			C6.9427214,8.6583338,6.8843226,8.1433907,7.1353574,7.7085857l2.7363858-4.7395582
			c0.3388739-0.5869482,1.0894022-0.7880514,1.6763496-0.4491768l2.3009548,1.3284571
			c0.5873041,0.3390801,0.7885294,1.0900624,0.4494495,1.677366l-2.7360134,4.7389145
			c-0.2510357,0.4348049-0.7261887,0.6417017-1.1947145,0.5845776c-0.1916218-0.0233631-0.3756542,0.0818281-0.4721746,0.2490072
			L9.480444,11.817234c-0.1428156,0.247364,0.1076269,0.4340782,0.2546263,0.4768267
			c1.1917658,0.3465796,2.5100861-0.1393776,3.1578531-1.261343L15.6293087,6.29316
			c0.7631016-1.3217301,0.3102427-3.0118194-1.011487-3.7749205l-2.3009548-1.3284569
			C10.9948111,0.4264934,9.3043051,0.8794631,8.5410156,2.201519L5.8049712,6.9404869
			c-0.6367064,1.102808-0.4173374,2.4594336,0.4412146,3.3209848C6.3688378,10.384553,6.6893501,10.5346441,6.8317461,10.2880077z"
			/>
		<path fill="#545157" d="M9.1682539,5.7119923L8.7531042,6.4310532C8.6565828,6.5982323,8.6575003,6.810204,8.7735453,6.9644728
			c0.2837334,0.377193,0.3421326,0.8921361,0.0910969,1.3269415l-2.7363849,4.7395582
			c-0.3388748,0.5869484-1.0894022,0.7880516-1.6763506,0.4491768l-2.3009548-1.3284569
			c-0.5873036-0.3390799-0.7885288-1.0900621-0.4494488-1.6773663l2.7360137-4.7389145
			c0.2510347-0.4348049,0.7261877-0.6417017,1.1947136-0.5845776C5.823853,5.1741972,6.007885,5.069006,6.1044054,4.9018269
			l0.4151502-0.7190614c0.1428156-0.2473638-0.107626-0.4340775-0.2546253-0.4768267
			C5.0731635,3.35936,3.7548432,3.8453171,3.1070764,4.9672818L0.3706913,9.7068405
			c-0.7631011,1.3217297-0.310243,3.0118189,1.0114868,3.7749195l2.3009551,1.3284569
			c1.3220558,0.7632895,3.0125618,0.3103199,3.7758512-1.0117359l2.7360439-4.7389679
			c0.6367073-1.102808,0.4173374-2.4594336-0.4412136-3.3209848C9.6311617,5.615447,9.3106499,5.4653554,9.1682539,5.7119923z"/>
	</g>
</g>
<g id="submitted">
</g>
<g id="feedback">
</g>
<g id="dnd_x5F_arrow">
</g>
</svg>
