<?xml version="1.0" encoding="utf-8"?>
<!-- Generator: Adobe Illustrator 21.0.0, SVG Export Plug-In . SVG Version: 6.00 Build 0)  -->
<svg version="1.1" xmlns="http://www.w3.org/2000/svg" xmlns:xlink="http://www.w3.org/1999/xlink" x="0px" y="0px" width="16px"
	 height="16px" viewBox="0 0 16 16" enable-background="new 0 0 16 16" xml:space="preserve">
<g id="Layer_1">
</g>
<g id="Layer_2">
</g>
<g id="messages">
</g>
<g id="messages_x5F_hover">
</g>
<g id="profile">
</g>
<g id="profile_x5F_hover">
</g>
<g id="view_x5F_hover">
</g>
<g id="view_x5F_feedback">
</g>
<g id="no_x5F_feedback_x5F_to_x5F_view">
</g>
<g id="download_x5F_hover">
</g>
<g id="download">
</g>
<g id="no_x5F_feedback_x5F_download">
</g>
<g id="link_x5F_hover">
</g>
<g id="assignment_x5F_link_copy">
</g>
<g id="Layer_21">
</g>
<g id="home_x5F_hover">
</g>
<g id="home_1_">
</g>
<g id="edit_x5F_profile">
</g>
<g id="preferences">
</g>
<g id="notifications">
</g>
<g id="my_x5F_posts">
</g>
<g id="logout">
</g>
<g id="assignment">
</g>
<g id="coursework">
</g>
<g id="forum">
</g>
<g id="quiz">
</g>
<g id="book">
</g>
<g id="database">
</g>
<g id="wiki">
</g>
<g id="choice">
</g>
<g id="workshop">
</g>
<g id="certificate">
</g>
<g id="scheduler">
</g>
<g id="equella">
</g>
<g id="file">
</g>
<g id="folder">
</g>
<g id="ims_x5F_content_x5F_package">
</g>
<g id="label">
</g>
<g id="lightbox_x5F_gallery">
</g>
<g id="nln_x5F_learning_x5F_object">
</g>
<g id="page">
</g>
<g id="subpage">
</g>
<g id="tab_x5F_display">
</g>
<g id="new_x5F_label">
</g>
<g id="url">
</g>
<g id="_x33_60_x5F_degree_x5F_diagnostics">
</g>
<g id="adobe_x5F_connect">
</g>
<g id="attendance_x5F_register">
</g>
<g id="booking">
</g>
<g id="chat">
</g>
<g id="checklist">
</g>
<g id="external_x5F_tool">
</g>
<g id="face_x5F_to_x5F_face">
</g>
<g id="forumNG">
</g>
<g id="glossary">
</g>
<g id="group_x5F_choice">
</g>
<g id="journal">
</g>
<g id="mediasite_x5F_content">
</g>
<g id="nanogong_x5F_voice">
</g>
<g id="questionnaire">
</g>
<g id="scorm_x5F_package">
</g>
<g id="survey">
</g>
<g id="tutorship">
</g>
<g id="advanced_x5F_forum">
</g>
<g id="subcourse">
</g>
<g id="lesson_1_">
</g>
<g id="adaptive_x5F_quiz">
</g>
<g id="ou_x5F_wiki">
</g>
<g id="support_x5F_tracker">
</g>
<g id="view_x5F_comments">
</g>
<g id="no_x5F_comment">
</g>
<g id="attention">
</g>
<g id="search">
	<g>
		<g id="XMLID_8_">
			<g>
				<g>
					<path fill="#FFFFFF" d="M8.7636747,5.6051693v1.9490662c0.0096092,0.326704,0.3843584,0.5188828,0.6437998,0.3170953
						l4.3816795-3.3343043c0.2113962-0.163352,0.2113962-0.4804468,0-0.6341901L9.3978653,0.5781412
						C9.1288147,0.3859622,8.7540665,0.5685322,8.7540665,0.9048453v1.9347165h-0.490056
						c-2.6136336,0.0384359-5.0350876,1.7776549-5.909502,4.1414557C1.412832,9.3352089,2.0758493,12.15063,3.8823309,13.8129778
						c1.7584372,1.710392,4.5258131,2.1620121,6.6782169,1.1626816c2.1812305-0.9416761,3.6033545-3.2478228,3.5072651-5.5443611
						V9.421689c-0.0192175-0.3074856-0.2690506-0.5573187-0.5765362-0.5669279
						c-0.326705-0.0096083-0.5957546,0.2498331-0.6053638,0.5765371c-0.0480452,1.835309-1.2779903,3.5072651-2.9307289,4.0934105
						c-1.6335201,0.6245813-3.5649185,0.1441345-4.6891651-1.1050282C4.1225548,11.2089529,3.8438952,9.3255997,4.5357394,7.893867
						c0.6534081-1.4605598,2.2320547-2.2965379,3.728271-2.2965379L8.7636747,5.6051693z"/>
				</g>
			</g>
		</g>
		<g id="XMLID_9_" opacity="0.3">
			<g>
				<g>
					<path fill="#545157" d="M8.7636747,5.6051693v1.9490662c0.0096092,0.326704,0.3843584,0.5188828,0.6437998,0.3170953
						l4.3816795-3.3343043c0.2113962-0.163352,0.2113962-0.4804468,0-0.6341901L9.3978653,0.5781412
						C9.1288147,0.3859622,8.7540665,0.5685322,8.7540665,0.9048453v1.9347165h-0.490056
						c-2.6136336,0.0384359-5.0350876,1.7776549-5.909502,4.1414557C1.412832,9.3352089,2.0758493,12.15063,3.8823309,13.8129778
						c1.7584372,1.710392,4.5258131,2.1620121,6.6782169,1.1626816c2.1812305-0.9416761,3.6033545-3.2478228,3.5072651-5.5443611
						V9.421689c-0.0192175-0.3074856-0.2690506-0.5573187-0.5765362-0.5669279
						c-0.326705-0.0096083-0.5957546,0.2498331-0.6053638,0.5765371c-0.0480452,1.835309-1.2779903,3.5072651-2.9307289,4.0934105
						c-1.6335201,0.6245813-3.5649185,0.1441345-4.6891651-1.1050282C4.1225548,11.2089529,3.8438952,9.3255997,4.5357394,7.893867
						c0.6534081-1.4605598,2.2320547-2.2965379,3.728271-2.2965379L8.7636747,5.6051693z"/>
				</g>
			</g>
		</g>
		<g id="XMLID_7_">
			<g>
				<g>
					<path fill="#545157" d="M8.1254883,16.0039063c-1.6767578,0-3.362793-0.637207-4.5917969-1.8325195
						c-1.9731445-1.8154297-2.652832-4.8525391-1.6435547-7.3759766C2.8432617,4.21875,5.4619141,2.3818359,8.2539063,2.3393555
						V0.9047852c0-0.3413086,0.1870117-0.6494141,0.4882813-0.8041992c0.3051758-0.1552734,0.6669922-0.128418,0.9467773,0.0708008
						l4.4018555,3.3330078c0.2197266,0.159668,0.3525391,0.4165039,0.3569336,0.6987305
						c0.0039063,0.2871094-0.1245117,0.5527344-0.3525391,0.7294922L9.7104492,8.269043
						C9.4492188,8.4726563,9.09375,8.5112305,8.7880859,8.3676758c-0.3129883-0.1474609-0.5136719-0.453125-0.5244141-0.7983398
						V5.6049805c0-0.2763672,0.2236328-0.5,0.5-0.5s0.5,0.2236328,0.5,0.5v1.7475586l4.1162109-3.1323242L9.2539063,1.0961914
						v1.7431641c0,0.2763672-0.2236328,0.5-0.5,0.5H8.2641602c-2.3823242,0.0351563-4.6225586,1.6040039-5.440918,3.8149414
						c-0.8632813,2.1591797-0.2866211,4.7407227,1.3974609,6.2910156c1.6113281,1.5673828,4.1289063,2.0058594,6.1293945,1.0766602
						c1.9892578-0.8583984,3.3071289-2.9414063,3.2182617-5.0698242c-0.0029297-0.0517578-0.0415039-0.0917969-0.09375-0.0976563
						c-0.0424805,0-0.0878906,0.0493164-0.0888672,0.0917969c-0.0527344,2.0151367-1.3945313,3.8867188-3.2636719,4.5498047
						c-1.7954102,0.6875-3.9506836,0.1782227-5.2275391-1.2416992c-1.2675781-1.3422852-1.6035156-3.4335938-0.809082-5.078125
						c0.4829102-1.0795898,1.4682617-1.9370117,2.6972656-2.3393555C7.0483398,5.2509766,7.328125,5.3945313,7.4135742,5.65625
						c0.0859375,0.2626953-0.0571289,0.5449219-0.3193359,0.6308594C6.1323242,6.6020508,5.3662109,7.262207,4.9921875,8.0981445
						c-0.6147461,1.2719727-0.34375,2.9394531,0.637207,3.9785156c1.015625,1.1274414,2.7158203,1.5268555,4.1469727,0.9814453
						c1.4990234-0.5322266,2.5673828-2.0273438,2.609375-3.6401367c0.0185547-0.6049805,0.5297852-1.0605469,1.1206055-1.0629883
						c0.5595703,0.0170898,1.0258789,0.472168,1.0605469,1.0361328c0.1064453,2.5527344-1.4594727,5.0297852-3.8081055,6.043457
						C9.9326172,15.8183594,9.0302734,16.0039063,8.1254883,16.0039063z M9.1020508,7.4755859
						c-0.0004883,0-0.0009766,0.0004883-0.0014648,0.0009766L9.1020508,7.4755859z M13.4916992,4.3046875
						c0.0009766,0.0009766,0.0024414,0.0019531,0.003418,0.0024414L13.4916992,4.3046875z"/>
				</g>
			</g>
		</g>
	</g>
</g>
<g id="submitted">
</g>
<g id="feedback">
</g>
<g id="T_x5F_I_x5F_N">
</g>
</svg>
