<?xml version="1.0" encoding="utf-8"?>
<!-- Generator: Adobe Illustrator 21.0.0, SVG Export Plug-In . SVG Version: 6.00 Build 0)  -->
<svg version="1.1" xmlns="http://www.w3.org/2000/svg" xmlns:xlink="http://www.w3.org/1999/xlink" x="0px" y="0px" width="16px"
	 height="16px" viewBox="0 0 16 16" enable-background="new 0 0 16 16" xml:space="preserve">
<g id="Layer_1">
</g>
<g id="Layer_2">
</g>
<g id="messages">
</g>
<g id="messages_x5F_hover">
</g>
<g id="profile">
</g>
<g id="profile_x5F_hover">
</g>
<g id="view_x5F_hover">
</g>
<g id="view_x5F_feedback">
</g>
<g id="no_x5F_feedback_x5F_to_x5F_view">
</g>
<g id="download_x5F_hover">
</g>
<g id="download">
</g>
<g id="no_x5F_feedback_x5F_download">
</g>
<g id="link_x5F_hover">
</g>
<g id="assignment_x5F_link_copy">
</g>
<g id="Layer_21">
</g>
<g id="home_x5F_hover">
</g>
<g id="home_1_">
</g>
<g id="edit_x5F_profile">
</g>
<g id="preferences">
</g>
<g id="notifications">
</g>
<g id="my_x5F_posts">
</g>
<g id="logout">
</g>
<g id="assignment">
</g>
<g id="coursework">
</g>
<g id="forum">
</g>
<g id="quiz">
</g>
<g id="book">
</g>
<g id="database">
</g>
<g id="wiki">
</g>
<g id="choice">
</g>
<g id="workshop">
</g>
<g id="certificate">
</g>
<g id="scheduler">
</g>
<g id="equella">
</g>
<g id="file">
</g>
<g id="folder">
</g>
<g id="ims_x5F_content_x5F_package">
</g>
<g id="label">
</g>
<g id="lightbox_x5F_gallery">
</g>
<g id="nln_x5F_learning_x5F_object">
</g>
<g id="page">
</g>
<g id="subpage">
</g>
<g id="tab_x5F_display">
</g>
<g id="new_x5F_label">
</g>
<g id="url">
</g>
<g id="_x33_60_x5F_degree_x5F_diagnostics">
</g>
<g id="adobe_x5F_connect">
</g>
<g id="attendance_x5F_register">
</g>
<g id="booking">
</g>
<g id="chat">
</g>
<g id="checklist">
</g>
<g id="external_x5F_tool">
</g>
<g id="face_x5F_to_x5F_face">
</g>
<g id="forumNG">
</g>
<g id="glossary">
</g>
<g id="group_x5F_choice">
</g>
<g id="journal">
</g>
<g id="mediasite_x5F_content">
</g>
<g id="nanogong_x5F_voice">
</g>
<g id="questionnaire">
</g>
<g id="scorm_x5F_package">
</g>
<g id="survey">
</g>
<g id="tutorship">
</g>
<g id="advanced_x5F_forum">
</g>
<g id="subcourse">
</g>
<g id="lesson_1_">
</g>
<g id="adaptive_x5F_quiz">
</g>
<g id="ou_x5F_wiki">
</g>
<g id="support_x5F_tracker">
</g>
<g id="view_x5F_comments">
</g>
<g id="no_x5F_comment">
</g>
<g id="attention">
</g>
<g id="search">
	<g>
		<path fill="#FFFFFF" d="M15.2281523,13.7911835c-2.0263901-1.5858202-4.0527802-3.1716404-6.0791702-4.7574606
			c2.3768673-2.4872704,1.5122337-6.7528458-1.6526055-8.1170321c-3.4261684-1.47683-7.3047791,1.3426242-6.9875531,5.0624809
			c0.3103188,3.6388607,4.4756021,5.7591457,7.5860004,3.8764381c0.3235664-0.1958523,0.7889509-0.3588886,0.7889509-0.3588886
			s0.4784994,0.5467777,0.6212959,0.7099504c0.7157984,0.8179379,1.4315968,1.6358747,2.1473942,2.4538116
			c0.6741257,0.770318,1.3245821,1.5726805,2.0275488,2.316865c0.2310848,0.2446346,0.3954506,0.4740915,0.7813301,0.4870281
			C15.2198324,15.4898043,15.9087038,14.3423939,15.2281523,13.7911835z"/>
		<g opacity="0.3">
			<g>
				<path fill="#545157" d="M1.9100699,2.0395932c-1.9282521,2.0023746-1.8718257,5.1922626,0.1260328,7.1248736
					s5.1805873,1.876091,7.1088395-0.1262836s1.8718243-5.1923323-0.1260338-7.1249428S3.8383219,0.0372187,1.9100699,2.0395932z
					 M7.8215909,7.7580457C6.598743,9.0279007,4.5803437,9.063736,3.3133528,7.8381238S2.0105784,4.5895801,3.2334263,3.3197255
					S6.4746723,2.0139759,7.741663,3.239588S9.0444384,6.4881911,7.8215909,7.7580457z"/>
			</g>
		</g>
		<g>
			<path fill="#545157" d="M5.519043,9.2841797c-0.8198242,0-1.6123047-0.269043-2.2724609-0.7783203
				C1.6152344,7.2470703,1.3095703,4.8920898,2.565918,3.2563477C3.7373047,1.730957,5.8510742,1.3422852,7.4829102,2.3505859
				c0.2348633,0.1450195,0.3076172,0.453125,0.1625977,0.6879883C7.5009766,3.2734375,7.1923828,3.347168,6.9575195,3.2011719
				C5.7636719,2.4628906,4.2163086,2.7495117,3.3588867,3.8657227c-0.9208984,1.1992188-0.6972656,2.925293,0.4985352,3.8481445
				c0.5786133,0.4467773,1.2973633,0.6416016,2.0209961,0.546875c0.7250977-0.0942383,1.3696289-0.4658203,1.815918-1.0463867
				c0.6772461-0.8813477,0.7583008-2.074707,0.206543-3.0400391C7.7636719,3.9345703,7.847168,3.6293945,8.0869141,3.4921875
				C8.3256836,3.3544922,8.6323242,3.4384766,8.769043,3.6782227c0.7524414,1.315918,0.6416016,2.9428711-0.2817383,4.1455078
				C7.878418,8.6162109,6.9975586,9.1235352,6.0073242,9.2524414C5.84375,9.2734375,5.6811523,9.2841797,5.519043,9.2841797z"/>
		</g>
		<g>
			<path fill="#545157" d="M14.4511719,16c-0.0102539,0-0.0209961,0-0.03125-0.0004883
				c-0.362793-0.0087891-0.7075195-0.1704102-0.9467773-0.4443359l-4.7324219-5.5078125
				c-2.1523438,1.5537109-5.1040039,1.3613281-7.0522461-0.5234375C-0.5039063,7.4033203-0.565918,3.8901367,1.5498047,1.6928711
				C2.5751953,0.6279297,3.953125,0.0268555,5.4296875,0.0009766C6.9267578-0.034668,8.3037109,0.5263672,9.3666992,1.5537109
				c1.7192383,1.6630859,2.1787109,4.2294922,1.1435547,6.3862305c-0.1196289,0.2485352-0.4169922,0.355957-0.6669922,0.234375
				c-0.2490234-0.1196289-0.3540039-0.4179688-0.234375-0.6669922c0.8486328-1.7680664,0.4716797-3.871582-0.9375-5.2348633
				C7.8012695,1.4311523,6.6572266,0.9702148,5.4472656,1.0004883C4.2382813,1.0219727,3.1103516,1.5141602,2.2705078,2.3862305
				C0.5356445,4.1875,0.5869141,7.0668945,2.3837891,8.8051758c1.6914063,1.637207,4.3076172,1.715332,6.0883789,0.1816406
				L8.8012695,8.675293C8.980957,8.5029297,9.2597656,8.4916992,9.4545898,8.6455078l6.0605469,4.78125
				C15.8022461,13.6611328,15.9760742,14,15.9975586,14.3623047c0.0219727,0.3623047-0.1098633,0.7197266-0.3618164,0.980957
				l-0.2490234,0.2587891C15.1420898,15.855957,14.8027344,16,14.4511719,16z M10.9892578,11.1298828l3.2402344,3.7709961
				C14.3051758,14.9868164,14.3798828,14.9921875,14.4511719,15c0.0507813,0,0.1396484-0.0126953,0.2148438-0.0913086
				l0.2495117-0.2592773c0.0800781-0.0830078,0.0869141-0.1782227,0.0839844-0.2275391s-0.0214844-0.1425781-0.1098633-0.2148438
				L10.9892578,11.1298828z"/>
		</g>
	</g>
</g>
<g id="submitted">
</g>
<g id="feedback">
</g>
<g id="T_x5F_I_x5F_N">
</g>
</svg>
