<?xml version="1.0" encoding="utf-8"?>
<!-- Generator: Adobe Illustrator 21.0.0, SVG Export Plug-In . SVG Version: 6.00 Build 0)  -->
<svg version="1.1" xmlns="http://www.w3.org/2000/svg" xmlns:xlink="http://www.w3.org/1999/xlink" x="0px" y="0px" width="16px"
	 height="16px" viewBox="0 0 16 16" enable-background="new 0 0 16 16" xml:space="preserve">
<g id="Layer_1">
</g>
<g id="Layer_2">
</g>
<g id="messages">
</g>
<g id="messages_x5F_hover">
</g>
<g id="profile">
</g>
<g id="profile_x5F_hover">
</g>
<g id="view_x5F_hover">
</g>
<g id="view_x5F_feedback">
</g>
<g id="no_x5F_feedback_x5F_to_x5F_view">
</g>
<g id="download_x5F_hover">
</g>
<g id="download">
</g>
<g id="no_x5F_feedback_x5F_download">
</g>
<g id="link_x5F_hover">
</g>
<g id="assignment_x5F_link_copy">
</g>
<g id="Layer_21">
</g>
<g id="home_x5F_hover">
</g>
<g id="home_1_">
</g>
<g id="edit_x5F_profile">
</g>
<g id="preferences">
	<g>
		<g>
			<g>
				<path fill="#FFFFFF" d="M14.1204576,3.9477999l-0.8929958,0.3682959
					c-0.2161741,0.0891562-0.4573727,0.0180097-0.6069136-0.1617241c-0.2321806-0.2791014-0.4872942-0.5338614-0.7615366-0.7630007
					c-0.1797028-0.1501317-0.2492218-0.3912108-0.1592865-0.6074004l0.3711128-0.8920937
					c0.1121063-0.2694849,0.0314484-0.5555249-0.2380362-0.6676311l-1.6793089-0.7023844
					C9.8840084,0.4097551,9.5746574,0.5373397,9.4625158,0.8069106L9.0914993,1.6988933
					C9.001564,1.9150828,8.7815084,2.035749,8.5483704,2.0141883C8.1925249,1.98121,7.8319921,1.9798602,7.4704223,2.0119092
					C7.2374654,2.0325737,7.0169468,1.9115952,6.9278159,1.695482L6.5594945,0.802425
					C6.448225,0.5326334,6.1392593,0.4040527,5.8694072,0.5153472L4.2349558,1.1894399
					c-0.2698524,0.1112945-0.3983471,0.420296-0.2870777,0.6900876l0.3683212,0.893057
					c0.0891309,0.2161131,0.0179486,0.4573975-0.1617851,0.6069379C3.8753736,3.6116784,3.6206136,3.866792,3.3914742,4.1410341
					C3.2413175,4.3206758,3.0001776,4.3902197,2.783988,4.3002844L1.8919802,3.9292076
					c-0.26951-0.1121671-0.5788604,0.0154176-0.6909667,0.2849023L0.5219395,5.8464918
					c-0.1121062,0.269485,0.0154784,0.5788355,0.2849633,0.6909418L1.6989965,6.908546
					c0.2161896,0.0899353,0.3368304,0.3099303,0.3152092,0.5430937c-0.0329784,0.3558455-0.0343282,0.7163777-0.002254,1.0780091
					c0.0206394,0.2328959-0.1002784,0.4533892-0.3164524,0.5425453L0.8025031,9.4404907
					c-0.2698525,0.1112938-0.3983472,0.4202957-0.2870526,0.6901484l0.6740425,1.6343288
					c0.1112945,0.2698526,0.4202602,0.3984337,0.6901126,0.2871389l0.8929961-0.3682957
					c0.2161741-0.0891562,0.4573724-0.0180101,0.6069129,0.1617241c0.2321813,0.2791014,0.4873199,0.5339222,0.7615011,0.7630863
					c0.1797028,0.1501322,0.2492213,0.3912106,0.159286,0.6074009l-0.3710768,0.8920078
					c-0.1121061,0.2694845,0.0154786,0.5788345,0.2849634,0.6909409L5.84657,15.4780455
					c0.269485,0.1121063,0.5788355-0.0154781,0.6909418-0.2849636l0.3710766-0.8920078
					c0.0899353-0.2161894,0.3099661-0.336916,0.5431294-0.3152952c0.3558455,0.032979,0.7163777,0.0343285,1.0779481,0.0022793
					c0.2328959-0.0206394,0.4534502,0.1002531,0.5426064,0.3164272l0.3683214,0.8930569
					c0.111269,0.2697916,0.4202347,0.3983727,0.6900873,0.2870779l1.6344509-0.6740923
					c0.2698526-0.1112947,0.3983479-0.4202957,0.2870779-0.6900873l-0.3683214-0.8930569
					c-0.0891562-0.2161741-0.0180092-0.4573727,0.1617861-0.6069384c0.2790403-0.2321558,0.5338001-0.4872694,0.7629395-0.7615118
					c0.1501312-0.1797028,0.3912964-0.2491856,0.6074867-0.1592503l0.8919468,0.3711023
					c0.2695456,0.1120806,0.5788956-0.0155039,0.6910019-0.2849884l0.6790743-1.6323824
					c0.1121063-0.2694845-0.0154781-0.5788355-0.2849636-0.6909418l-0.8920078-0.3710766
					c-0.2161894-0.0899353-0.3368301-0.3099298-0.3152695-0.5430689c0.0329781-0.3558445,0.0342417-0.7164135,0.0022287-1.0780692
					c-0.0207005-0.2328711,0.1002779-0.4533896,0.316452-0.5425458l0.8929968-0.3682961
					c0.2698517-0.1112943,0.3983469-0.4202957,0.2870522-0.6901484l-0.6740427-1.6343293
					C14.699276,3.965086,14.3903103,3.8365054,14.1204576,3.9477999z M9.2369928,10.9976215
					c-1.6559348,0.6829529-3.552042-0.1058311-4.2350202-1.7618275S5.107779,5.683691,6.7637138,5.0007381
					c1.6559954-0.6829782,3.552103,0.1058064,4.2350807,1.7618017C11.6817732,8.4185352,10.8929892,10.3146429,9.2369928,10.9976215
					z"/>
			</g>
		</g>
		<g opacity="0.3">
			<g>
				<path fill="#545157" d="M14.1824846,3.906733l-0.9020462,0.3720288
					c-0.2183647,0.0900593-0.4620075,0.0181913-0.6130629-0.1633635c-0.2345343-0.28193-0.4922333-0.5392718-0.7692547-0.7707334
					c-0.1815243-0.1516533-0.2517471-0.3951757-0.1609011-0.6135561l0.3748741-0.9011347
					c0.1132421-0.2722158,0.0317669-0.5611548-0.240449-0.6743971l-1.6963282-0.7095028
					C9.903101,0.3328319,9.5906153,0.4617096,9.4773369,0.7340124L9.102561,1.6350348
					C9.011714,1.8534154,8.7894287,1.9753044,8.5539274,1.9535252C8.1944761,1.9202127,7.8302894,1.9188492,7.465055,1.9512231
					C7.2297373,1.972097,7.0069838,1.8498924,6.9169493,1.6315889L6.5448956,0.7294812
					C6.4324985,0.4569555,6.1204014,0.3270716,5.8478141,0.4394941L4.1967988,1.1204184
					C3.9242113,1.2328409,3.7944143,1.5449739,3.9068115,1.8174996l0.3720539,0.9021077
					c0.0900345,0.2183034,0.0181303,0.4620328-0.1634245,0.6130888C3.8335724,3.5672052,3.5762303,3.824904,3.3447688,4.1019254
					C3.1930902,4.2833881,2.9495065,4.3536367,2.7311258,4.2627897L1.830078,3.8879523
					C1.5578368,3.7746484,1.2453512,3.9035261,1.1321088,4.1757421L0.4461527,5.8246675
					C0.3329104,6.0968833,0.461788,6.409369,0.734004,6.5226111l0.9011347,0.3748736
					c0.2183806,0.090847,0.3402442,0.3130713,0.3184036,0.5485978C1.9202297,7.8055344,1.9188662,8.1697206,1.9512655,8.5350161
					C1.972114,8.7702732,1.8499708,8.993001,1.6316059,9.0830603L0.7295597,9.4550896
					c-0.2725873,0.112422-0.4023843,0.4245548-0.2899618,0.6971426l0.6808735,1.6508923
					c0.1124225,0.2725878,0.4245193,0.4024715,0.6971066,0.2900486l0.9020462-0.3720284
					c0.218365-0.0900602,0.4620075-0.0181923,0.6130636,0.1633635c0.2345343,0.28193,0.4922585,0.5393333,0.7692184,0.7708197
					c0.1815238,0.1516533,0.2517471,0.3951759,0.1609006,0.6135559l-0.3748376,0.9010487
					c-0.1132424,0.2722158,0.0156353,0.5847015,0.2878511,0.6979437l1.6489253,0.685956
					c0.2722158,0.1132421,0.5847015-0.0156355,0.6979442-0.2878513l0.3748374-0.9010477
					c0.090847-0.2183809,0.3131075-0.3403311,0.5486336-0.318491c0.3594518,0.0333128,0.7236381,0.0346766,1.0888724,0.0023022
					c0.2352562-0.0208483,0.458046,0.1012697,0.5481052,0.3196344l0.3720541,0.9021072
					c0.1123972,0.2725258,0.4244947,0.4024105,0.6970816,0.2899876l1.6510153-0.6809244
					c0.2725878-0.112422,0.4023848-0.4245548,0.2899876-0.6970806l-0.3720541-0.9021082
					c-0.0900593-0.2183647-0.0181913-0.4620075,0.1634245-0.6130886c0.2818689-0.2345095,0.5392103-0.4922085,0.7706718-0.7692299
					c0.1516533-0.1815233,0.3952627-0.2517109,0.6136436-0.1608639l0.9009857,0.3748627
					c0.2722778,0.1132174,0.5847635-0.0156603,0.6980057-0.2878761l0.685956-1.6489258
					c0.1132421-0.2722158-0.0156355-0.5847015-0.2878513-0.6979437L14.3650112,9.102457
					c-0.2183809-0.0908461-0.3402443-0.3130713-0.3184652-0.5485716c0.0333128-0.3594522,0.0345898-0.7236748,0.0022516-1.0889959
					c-0.0209103-0.2352309,0.1012945-0.457984,0.3196592-0.5480437L15.270503,6.544817
					c0.2725878-0.1124225,0.4023848-0.4245553,0.2899618-0.6971426l-0.6808729-1.6508927
					C14.767169,3.9241943,14.4550724,3.7943106,14.1824846,3.906733z M9.2495289,11.0280008
					c-1.6727166,0.6898746-3.5880404-0.106904-4.2779403-1.7796822S5.0784674,5.6602168,6.751184,4.9703422
					c1.6727786-0.6898999,3.5881019,0.1068788,4.2780023,1.7796569C11.7190857,8.4227772,10.922307,10.3381014,9.2495289,11.0280008
					z"/>
			</g>
		</g>
		<g>
			<path fill="#545157" d="M8.0046396,11.7175503c-1.1333632,0-2.253273-0.5149546-2.9825592-1.4905834
				C3.7940772,8.585144,4.1308851,6.2502213,5.7731714,5.0217543C6.6889544,4.3360763,7.8937616,4.110146,8.9978981,4.417727
				C9.2502718,4.4877791,9.398263,4.7498956,9.3277464,5.0027332c-0.0700521,0.2528381-0.33356,0.4017572-0.5850058,0.3298492
				c-0.8192878-0.2268581-1.71837-0.0603099-2.4008002,0.4500051C5.119504,6.696979,4.8685222,8.4357615,5.7829137,9.6581974
				c0.9134636,1.222436,2.6527095,1.4729548,3.8756099,0.5590267c0.587326-0.4393349,0.9695988-1.0869713,1.0753727-1.822752
				c0.1062384-0.7362456-0.0774755-1.4650679-0.5168095-2.0528579c-0.1572704-0.209693-0.1141253-0.5075316,0.0960312-0.6648011
				c0.2101574-0.15727,0.5075321-0.1136613,0.6648016,0.0960317c0.5915012,0.7905245,0.8387718,1.769865,0.6963482,2.757093
				c-0.1424246,0.9872274-0.6559868,1.8566179-1.4469748,2.4481192C9.5606356,11.4767742,8.7793903,11.7170858,8.0046396,11.7175503
				z"/>
		</g>
		<g>
			<path fill="#545157" d="M9.9303818,15.9995565c-0.3943338,0-0.7696476-0.2342815-0.9292364-0.6211929l-0.3683548-0.8930511
				c-0.4458294,0.0115986-0.8387723,0.0092783-1.2247558-0.0264435l-0.431448,0.9167109
				c-0.2138686,0.5112429-0.8035145,0.7534103-1.3129015,0.5409346l-1.6316161-0.679183
				c-0.2472706-0.1025267-0.4402623-0.2955189-0.5423253-0.5432539c-0.1025269-0.2477341-0.1020632-0.5205212,0.0004637-0.7677917
				l0.3716021-0.8925867c-0.323354-0.3094368-0.5998518-0.5868626-0.8475866-0.8842373l-0.953825,0.3419113
				c-0.2468069,0.1015987-0.5200573,0.1020632-0.767792-0.0013914c-0.2472708-0.1029911-0.4397987-0.2959833-0.5423256-0.5441818
				l-0.6740797-1.6343994c-0.102063-0.2472706-0.1015991-0.5200577,0.0013918-0.7677917
				c0.1029908-0.2472706,0.2959827-0.4397993,0.5441812-0.542326l0.8921233-0.3683548
				C1.5046188,8.1870985,1.5050827,7.795548,1.5408047,7.4081721L0.6245574,6.9757962
				C0.1133147,6.76332-0.1293169,6.174602,0.0836236,5.6638231L0.7628064,4.031743
				c0.1025269-0.2472706,0.2955188-0.4397986,0.5432534-0.5423255C1.5547224,3.3868906,1.827045,3.3873546,2.0747797,3.4908094
				L2.966439,3.8619475c0.3080447-0.3219624,0.5854704-0.5989242,0.8842366-0.8475866l-0.3419108-0.953825
				C3.2981439,1.549293,3.5421672,0.961503,4.0534101,0.7504182l1.6348634-0.6745436
				c0.5107789-0.210157,1.0985689,0.0338664,1.3101177,0.5451092l0.3688183,0.8935151
				c0.4458299-0.0102063,0.8383083-0.0092784,1.2247562,0.0264436l0.4323759-0.9162473
				c0.1025267-0.2472708,0.2955189-0.4402626,0.5432529-0.5423256c0.2481985-0.102063,0.5205212-0.1025269,0.7677917,0.0004639
				l1.6807919,0.7028428c0.4996452,0.2083013,0.7116575,0.762225,0.4936142,1.2883134l-0.3716021,0.8921232
				c0.3228903,0.3094363,0.5993881,0.5863981,0.8475866,0.8837726l0.953825-0.3414471
				c0.247735-0.1020629,0.5200577-0.101599,0.7687197,0.0013919c0.2472706,0.1034548,0.4397993,0.2969105,0.541398,0.5446451
				l0.6740799,1.6339359l0,0c0.1020622,0.2477345,0.1015987,0.5205212-0.0013924,0.7677917
				c-0.1029902,0.2477345-0.2959824,0.4402628-0.5437174,0.5423255l-0.8930511,0.3683548
				c0.0102062,0.4472213,0.0092783,0.8387718-0.0264435,1.2252197l0.9162474,0.4319124
				c0.247735,0.1029902,0.4402628,0.2959824,0.542326,0.5441809c0.1025257,0.247735,0.1020622,0.5205212-0.0013924,0.7682562
				l-0.6782551,1.6316156c-0.1034546,0.247735-0.2964458,0.4402628-0.5446444,0.542326
				c-0.2481995,0.1029902-0.5214491,0.1015987-0.7682562-0.0013924l-0.8916597-0.3702097
				c-0.3099003,0.3233538-0.587326,0.600316-0.8847008,0.8471222l0.3428392,0.9528971
				c0.2106209,0.5117073-0.0338659,1.0994968-0.5451088,1.3105822l-1.6348639,0.6745434
				C10.1869316,15.9754324,10.0579605,15.9995565,9.9303818,15.9995565z M2.9655113,11.1701212
				c0.2927351,0,0.5794394,0.1312904,0.7793901,0.3720665c0.2106209,0.2533016,0.4467576,0.4894381,0.7009871,0.7019148
				c0.3433027,0.2867041,0.4611392,0.7506266,0.2927351,1.1547031l-0.3711381,0.8916597l1.6613069,0.7492352l0.4407268-0.920887
				c0.1684041-0.4031487,0.5761919-0.6434603,1.025269-0.6063471c0.3317046,0.0310831,0.6652651,0.032011,0.9932585,0.0023203
				c0.444438-0.03897,0.8573294,0.2055178,1.0234137,0.6086664l0.3683548,0.8930511l1.7044516-0.6453171l-0.339592-0.9621754
				c-0.1660843-0.4036121-0.0468559-0.8670712,0.2964468-1.1533117c0.2537661-0.2110844,0.4903669-0.4467573,0.7028427-0.7014513
				c0.2871685-0.3433027,0.7501631-0.4606752,1.1547041-0.2927351l0.8916588,0.3702106l0.7492352-1.6603794l-0.920886-0.4416542
				c-0.4040766-0.1679401-0.647172-0.5799036-0.6058836-1.0252695c0.0306196-0.3293848,0.0315475-0.6634092,0.0023203-0.9923301
				c-0.0398979-0.4449019,0.2045898-0.8564014,0.6077385-1.0234137l0.8939791-0.3688183l0.4676342-0.2505183l-0.4393349,0.1809297
				l-0.6740799-1.6343994l-0.9626398,0.3395915c-0.4036121,0.1651564-0.8670712,0.046392-1.1533117-0.2978382
				c-0.2110844-0.2528381-0.4467573-0.4894385-0.7009869-0.7014513c-0.3433027-0.287632-0.4606752-0.7515547-0.2927351-1.1551673
				l0.3711376-0.8916595l-1.6622343-0.749235L9.5300169,1.8814616c-0.1674757,0.4040766-0.5775833,0.6467083-1.025733,0.6058831
				C8.1735067,2.4562619,7.8404107,2.4557979,7.5119534,2.4850249C7.0726185,2.5207472,6.6546245,2.280899,6.4885402,1.8763585
				L6.1201854,0.9833074l-1.704452,0.6453165l0.3395915,0.9631034C4.9218731,2.9944122,4.8026452,3.457871,4.4584146,3.744575
				C4.203721,3.9565878,3.9671202,4.1927242,3.7560356,4.4455624C3.4693313,4.7893291,3.0058725,4.9067016,2.6013319,4.7387614
				L1.7096726,4.3676233L0.9604375,6.0289302l0.9208865,0.4411907c0.4040767,0.1679397,0.6471721,0.5803671,0.605883,1.025733
				C2.456588,7.8257027,2.4556601,8.1592636,2.4853513,8.4867926c0.0389695,0.4472218-0.2055178,0.8582573-0.6091305,1.0248051
				L0.9840975,9.8799524L1.62895,11.5839405l0.9626395-0.339592C2.7126734,11.1947088,2.8397882,11.1701212,2.9655113,11.1701212z"
				/>
		</g>
	</g>
</g>
<g id="notifications">
</g>
<g id="my_x5F_posts">
</g>
<g id="logout">
</g>
<g id="assignment">
</g>
<g id="coursework">
</g>
<g id="forum">
</g>
<g id="quiz">
</g>
<g id="book">
</g>
<g id="database">
</g>
<g id="wiki">
</g>
<g id="choice">
</g>
<g id="workshop">
</g>
<g id="certificate">
</g>
<g id="scheduler">
</g>
<g id="equella">
</g>
<g id="file">
</g>
<g id="folder">
</g>
<g id="ims_x5F_content_x5F_package">
</g>
<g id="label">
</g>
<g id="lightbox_x5F_gallery">
</g>
<g id="nln_x5F_learning_x5F_object">
</g>
<g id="page">
</g>
<g id="subpage">
</g>
<g id="tab_x5F_display">
</g>
<g id="new_x5F_label">
</g>
<g id="url">
</g>
<g id="_x33_60_x5F_degree_x5F_diagnostics">
</g>
<g id="adobe_x5F_connect">
</g>
<g id="attendance_x5F_register">
</g>
<g id="booking">
</g>
<g id="chat">
</g>
<g id="checklist">
</g>
<g id="external_x5F_tool">
</g>
<g id="face_x5F_to_x5F_face">
</g>
<g id="forumNG">
</g>
<g id="glossary">
</g>
<g id="group_x5F_choice">
</g>
<g id="journal">
</g>
<g id="mediasite_x5F_content">
</g>
<g id="nanogong_x5F_voice">
</g>
<g id="questionnaire">
</g>
<g id="scorm_x5F_package">
</g>
<g id="survey">
</g>
<g id="tutorship">
</g>
<g id="advanced_x5F_forum">
</g>
<g id="subcourse">
</g>
<g id="lesson_1_">
</g>
<g id="adaptive_x5F_quiz">
</g>
<g id="ou_x5F_wiki">
</g>
<g id="support_x5F_tracker">
</g>
<g id="view_x5F_comments">
</g>
<g id="no_x5F_comment">
</g>
<g id="attention">
</g>
<g id="search">
</g>
<g id="submitted">
</g>
<g id="feedback">
</g>
<g id="T_x5F_I_x5F_N">
</g>
</svg>
