<?xml version="1.0" encoding="utf-8"?>
<!-- Generator: Adobe Illustrator 21.0.0, SVG Export Plug-In . SVG Version: 6.00 Build 0)  -->
<svg version="1.1" xmlns="http://www.w3.org/2000/svg" xmlns:xlink="http://www.w3.org/1999/xlink" x="0px" y="0px" width="64px"
	 height="64px" viewBox="0 0 64 64" enable-background="new 0 0 64 64" xml:space="preserve">
<g id="Layer_1">
</g>
<g id="Layer_2">
</g>
<g id="messages">
</g>
<g id="messages_x5F_hover">
</g>
<g id="profile">
</g>
<g id="profile_x5F_hover">
</g>
<g id="view_x5F_hover">
</g>
<g id="view_x5F_feedback">
</g>
<g id="no_x5F_feedback_x5F_to_x5F_view">
</g>
<g id="download_x5F_hover">
</g>
<g id="download">
</g>
<g id="no_x5F_feedback_x5F_download">
</g>
<g id="link_x5F_hover">
</g>
<g id="assignment_x5F_link_copy">
</g>
<g id="Layer_21">
</g>
<g id="home_x5F_hover">
</g>
<g id="home_1_">
</g>
<g id="edit_x5F_profile">
</g>
<g id="preferences">
</g>
<g id="notifications">
</g>
<g id="my_x5F_posts">
</g>
<g id="logout">
</g>
<g id="assignment">
	<g>
		<path fill="#FFFFFF" d="M56.3576355,8.1822844L52.5285263,5.261179c-0.5080681-0.3875666-1.0832558-0.625752-1.6728134-0.7216468
			l-0.0202446-0.2451105c0-1.6356757-1.3259544-2.9616308-2.9616318-2.9616308h-25.804287
			c-1.5710621,0-3.0776749,0.6241608-4.1884689,1.7349553L6.166388,14.7824392v4.9994707v39.9860039
			c0,1.5993805,1.2964969,2.8957138,2.8957152,2.8957138h11.8465233h9.7401638h17.2909641
			c1.5992165,0,2.8957138-1.2963333,2.8957138-2.8957138V21.247345l2.3813438-0.0393867l1.7777596-1.7777596l-0.9895401-1.9673672
			l3.0612335-4.0130205C58.3251648,11.7994871,58.0079575,9.441185,56.3576355,8.1822844z"/>
		<g opacity="0.3">
			<g>
				<path fill="#32548C" d="M19.6159801,1.3328451L7.9065328,13.0422926
					c-0.6421676,0.642168-0.1873584,1.7401752,0.7208037,1.7401752h8.0269947c1.6356735,0,2.9616489-1.3259764,2.9616489-2.9616508
					V1.3328451z"/>
			</g>
		</g>
		<g>
			<g>
				<path fill="#32548C" d="M13.1624632,63.9973946H9.0617781c-2.3306341,0-4.2289944-1.8970566-4.2289944-4.2289925V19.7817478
					c0-0.7369499,0.5963297-1.3332806,1.3332791-1.3332806s1.3332791,0.5963306,1.3332791,1.3332806v39.9866562
					c0,0.8619423,0.7004919,1.5624352,1.5624361,1.5624352h4.1006851c0.736949,0,1.3332787,0.5963287,1.3332787,1.3332787
					S13.8994122,63.9973946,13.1624632,63.9973946z"/>
			</g>
			<g>
				<path fill="#32548C" d="M47.940403,63.9973946H22.2376137c-0.736948,0-1.3332787-0.5963287-1.3332787-1.3332787
					s0.5963306-1.3332787,1.3332787-1.3332787H47.940403c0.8619461,0,1.562439-0.7004929,1.562439-1.5624352V29.7242832
					c0-0.736948,0.5963287-1.3332787,1.3332787-1.3332787s1.3332787,0.5963306,1.3332787,1.3332787v30.0441189
					C52.1693993,62.100338,50.2710381,63.9973946,47.940403,63.9973946z"/>
			</g>
		</g>
		<g>
			<path fill="#32548C" d="M16.65522,16.1152306H6.1660628c-0.5390406,0-1.026-0.3242064-1.2317209-0.8228836
				c-0.2057209-0.4986782-0.0911422-1.0715714,0.2890506-1.4530659L16.9390621,2.1249135
				C18.2879658,0.774708,20.1576805,0,22.0690613,0h25.8036385c2.3696938,0,4.2966995,1.9257029,4.2966995,4.294096v0.1385212
				c0,0.736949-0.5963287,1.3332791-1.3332787,1.3332791s-1.3332787-0.5963302-1.3332787-1.3332791V4.294096
				c0-0.8970988-0.7317429-1.6275377-1.6301422-1.6275377H22.0690613c-1.2082844,0-2.3905277,0.4895632-3.2446594,1.3436952
				l-9.4397202,9.4384174H16.65522c0.8983994,0,1.6275368-0.7304392,1.6275368-1.6275377V7.2562151
				c0-0.736949,0.5963306-1.3332791,1.3332787-1.3332791c0.7369499,0,1.3332806,0.5963302,1.3332806,1.3332791v4.5649185
				C20.949316,14.1895266,19.0223103,16.1152306,16.65522,16.1152306z"/>
		</g>
		<g>
			<g>
				<path fill="#32548C" d="M34.1106262,23.7399197H19.1759491c-0.736948,0-1.3332787-0.5963306-1.3332787-1.3332787
					c0-0.7369499,0.5963306-1.3332806,1.3332787-1.3332806h14.9346771c0.7369461,0,1.3332787,0.5963306,1.3332787,1.3332806
					C35.4439049,23.143589,34.8475723,23.7399197,34.1106262,23.7399197z"/>
			</g>
			<g>
				<path fill="#32548C" d="M27.0168743,33.3319778h-7.8409252c-0.736948,0-1.3332787-0.5963326-1.3332787-1.3332806
					s0.5963306-1.3332787,1.3332787-1.3332787h7.8409252c0.7369499,0,1.3332787,0.5963306,1.3332787,1.3332787
					S27.7538242,33.3319778,27.0168743,33.3319778z"/>
			</g>
		</g>
		<path fill="#32548C" d="M57.1663399,7.1221061l-3.830574-2.920454c-2.2264709-1.7017539-5.4294662-1.2746878-7.135128,0.9582944
			c-0.4478951,0.5859137-0.3359222,1.4218168,0.2499924,1.8697152c0.5833092,0.4439926,1.4218178,0.3346219,1.8697166-0.2499895
			c0.8098602-1.0650611,2.3332367-1.2681775,3.3982964-0.4583149l3.830574,2.9204545
			c1.062458,0.8111649,1.268177,2.3358421,0.4583168,3.399601l-2.2531662,2.9525166l-8.7463875-6.6724176
			c-1.4087982-1.0715709-3.4269447-0.8020506-4.5024223,0.6080484l-0.6067467,0.7955408
			c-0.5208092,0.6822634-0.7447586,1.525979-0.6301804,2.3762054c0.0520821,0.3867025,0.1718674,0.7551775,0.3489418,1.0884972
			L16.1575909,44.5437622c-0.9400654,1.2304153-1.6718063,2.5962486-2.1743908,4.0558243l-3.8461971,11.1258469
			c-0.4635229,1.3397903-0.0338526,2.7590027,1.0989132,3.6131363C11.8192263,63.7799568,12.4936781,64,13.1707335,64
			c0.6379948,0,1.278594-0.1966057,1.8410711-0.5898209l9.4657612-6.6156158
			c1.4374409-0.837204,2.6743698-1.930912,3.6795368-3.2498665L51.5467758,22.885788
			c1.1822433,0.26301,2.4790649-0.1549416,3.2654915-1.1848488l0.6067467-0.7955399
			c0.520813-0.6822643,0.7447624-1.52598,0.6301842-2.3775082c-0.0515938-0.3827953-0.1891212-0.7367859-0.3648949-1.0681515
			l2.4429359-3.2012053C59.8276901,12.0255527,59.3980179,8.8238602,57.1663399,7.1221061z M13.4858246,61.2240715
			c-0.2916546,0.1966057-0.5260201,0.0768204-0.6432028-0.0117188c-0.1171827-0.0898399-0.2994671-0.2877502-0.1848879-0.6145592
			L13.9347,56.9031219l2.742239,2.0920372L13.4858246,61.2240715z M18.9729061,57.3913803l-4.1204376-3.143589l1.6514626-4.77845
			c0.0283203-0.0821915,0.0738907-0.1564064,0.1040001-0.2377815l6.6899948,5.1340675
			c-0.0913048,0.0569611-0.1609631,0.1277618-0.2551975,0.1829338L18.9729061,57.3913803z M53.2993088,19.2895794
			l-0.6067467,0.794239c-0.1796799,0.2356682-0.5286217,0.2903519-0.7655945,0.1041622l-5.1690598-3.9438496
			c-0.2812386-0.2135334-0.6484108-0.3059778-0.9869385-0.2617083c-0.3515472,0.0468721-0.6692429,0.231761-0.8827782,0.5129995
			l-22.454813,29.437603c-0.4478989,0.5859146-0.3333206,1.4218178,0.2499886,1.8684158
			c0.5833111,0.4465942,1.4192142,0.3372269,1.8697166-0.2512932l21.6475544-28.3777504l3.0493584,2.3267269L26.0373974,51.9275742
			c-0.1899338,0.2495003-0.4278793,0.4570122-0.6399479,0.6864967l-7.5459175-5.7907791
			c0.1450138-0.2187424,0.2659397-0.4514809,0.4257641-0.6611061L42.3726692,14.57623
			c0.4478989-0.5846119,0.3333206-1.4218178-0.2499886-1.8684139c-0.2057228-0.1562433-0.2604065-0.5611753-0.1041641-0.7668953
			l0.6067467-0.794239c0.1067657-0.1406193,0.2708244-0.2148352,0.4374847-0.2148352
			c0.1145782,0,0.2317581,0.0351553,0.3281097,0.110673l9.8024979,7.4780493
			c0.0008163,0.0006504,0.0009766,0.0014648,0.0017929,0.0021152c0.0004883,0.0003262,0.0011368,0.0001621,0.0016251,0.0004883
			l0.0009766,0.0008125C53.4008675,18.6789284,53.4555511,19.0838585,53.2993088,19.2895794z"/>
		<g opacity="0.3">
			<g>
				<polygon fill="#32548C" points="41.3125191,13.7673368 51.1179581,21.2473793 25.747345,54.2119064 22.0001183,51.471756 
					19.8829308,49.9235687 15.9338112,47.0357819 				"/>
			</g>
		</g>
		<g opacity="0.3">
			<g>
				<polygon fill="#32548C" points="13.95786,55.2428818 12.1351671,62.182251 18.3461323,58.5904579 				"/>
			</g>
		</g>
		<g opacity="0.3">
			<g>
				<path fill="#32548C" d="M44.1995201,9.9828224l3.0613098-4.0130095
					c1.2589226-1.6502986,3.6173134-1.9675703,5.2676125-0.7086463l3.8291817,2.9210768
					c1.6502991,1.2589235,1.9675674,3.6173143,0.7086449,5.2676125l-3.0613098,4.01301L44.1995201,9.9828224z"/>
			</g>
		</g>
	</g>
</g>
<g id="coursework">
</g>
<g id="forum">
</g>
<g id="quiz">
</g>
<g id="book">
</g>
<g id="database">
</g>
<g id="wiki">
</g>
<g id="choice">
</g>
<g id="workshop">
</g>
<g id="certificate">
</g>
<g id="scheduler">
</g>
<g id="equella">
</g>
<g id="file">
</g>
<g id="folder">
</g>
<g id="ims_x5F_content_x5F_package">
</g>
<g id="label">
</g>
<g id="lightbox_x5F_gallery">
</g>
<g id="nln_x5F_learning_x5F_object">
</g>
<g id="page">
</g>
<g id="subpage">
</g>
<g id="tab_x5F_display">
</g>
<g id="new_x5F_label">
</g>
<g id="url">
</g>
<g id="_x33_60_x5F_degree_x5F_diagnostics">
</g>
<g id="adobe_x5F_connect">
</g>
<g id="attendance_x5F_register">
</g>
<g id="booking">
</g>
<g id="chat">
</g>
<g id="checklist">
</g>
<g id="external_x5F_tool">
</g>
<g id="face_x5F_to_x5F_face">
</g>
<g id="forumNG">
</g>
<g id="glossary">
</g>
<g id="group_x5F_choice">
</g>
<g id="journal">
</g>
<g id="mediasite_x5F_content">
</g>
<g id="nanogong_x5F_voice">
</g>
<g id="questionnaire">
</g>
<g id="scorm_x5F_package">
</g>
<g id="survey">
</g>
<g id="tutorship">
</g>
<g id="advanced_x5F_forum">
</g>
<g id="subcourse">
</g>
<g id="lesson_1_">
</g>
<g id="adaptive_x5F_quiz">
</g>
<g id="ou_x5F_wiki">
</g>
<g id="support_x5F_tracker">
</g>
<g id="view_x5F_comments">
</g>
<g id="no_x5F_comment">
</g>
<g id="attention">
</g>
<g id="search">
</g>
<g id="submitted">
</g>
<g id="feedback">
</g>
<g id="dnd_x5F_arrow">
</g>
</svg>
