<?xml version="1.0" encoding="UTF-8"?>
<svg width="32px" height="32px" viewBox="0 0 32 32" version="1.1" xmlns="http://www.w3.org/2000/svg" xmlns:xlink="http://www.w3.org/1999/xlink">
    <!-- Generator: Sketch 46.2 (44496) - http://www.bohemiancoding.com/sketch -->
    <title>blackboard_collab</title>
    <desc>Created with Sketch.</desc>
    <defs></defs>
    <g id="Page-1" stroke="none" stroke-width="1" fill="none" fill-rule="evenodd">
        <g id="blackboard_collab">
            <circle id="Oval" fill="#60004F" cx="16" cy="16" r="16"></circle>
            <path d="M25,6 L7,6 C5.9,6 5,6.9 5,8 L5,20 C5,21.1 5.9,22 7,22 L14,22 L14,24 L12,24 L12,26 L20,26 L20,24 L18,24 L18,22 L25,22 C26.1,22 27,21.1 27,20 L27,8 C27,6.9 26.1,6 25,6 L25,6 Z M25,20 L7,20 L7,8 L25,8 L25,20 L25,20 Z" id="Icon" fill="#FFFFFF"></path>
            <path d="M18.9090909,13.2857143 C20.1163636,13.2857143 21.0836364,12.3285714 21.0836364,11.1428571 C21.0836364,9.95714286 20.1163636,9 18.9090909,9 C17.7018182,9 16.7272727,9.95714286 16.7272727,11.1428571 C16.7272727,12.3285714 17.7018182,13.2857143 18.9090909,13.2857143 L18.9090909,13.2857143 Z M13.0909091,13.2857143 C14.2981818,13.2857143 15.2654545,12.3285714 15.2654545,11.1428571 C15.2654545,9.95714286 14.2981818,9 13.0909091,9 C11.8836364,9 10.9090909,9.95714286 10.9090909,11.1428571 C10.9090909,12.3285714 11.8836364,13.2857143 13.0909091,13.2857143 L13.0909091,13.2857143 Z M13.0909091,14.7142857 C11.3963636,14.7142857 8,15.55 8,17.2142857 L8,19 L18.1818182,19 L18.1818182,17.2142857 C18.1818182,15.55 14.7854545,14.7142857 13.0909091,14.7142857 L13.0909091,14.7142857 Z M18.9090909,14.7142857 C18.6981818,14.7142857 18.4581818,14.7285714 18.2036364,14.75 C19.0472727,15.35 19.6363636,16.1571429 19.6363636,17.2142857 L19.6363636,19 L24,19 L24,17.2142857 C24,15.55 20.6036364,14.7142857 18.9090909,14.7142857 L18.9090909,14.7142857 Z" id="Icon" fill="#FFFFFF"></path>
        </g>
    </g>
</svg>