<?xml version="1.0" encoding="utf-8"?>
<!-- Generator: Adobe Illustrator 21.0.0, SVG Export Plug-In . SVG Version: 6.00 Build 0)  -->
<svg version="1.1" xmlns="http://www.w3.org/2000/svg" xmlns:xlink="http://www.w3.org/1999/xlink" x="0px" y="0px" width="64px"
	 height="64px" viewBox="0 0 64 64" enable-background="new 0 0 64 64" xml:space="preserve">
<g id="Layer_1">
</g>
<g id="Layer_2">
</g>
<g id="messages">
</g>
<g id="messages_x5F_hover">
</g>
<g id="profile">
</g>
<g id="profile_x5F_hover">
</g>
<g id="view_x5F_hover">
</g>
<g id="view_x5F_feedback">
</g>
<g id="no_x5F_feedback_x5F_to_x5F_view">
</g>
<g id="download_x5F_hover">
</g>
<g id="download">
</g>
<g id="no_x5F_feedback_x5F_download">
</g>
<g id="link_x5F_hover">
</g>
<g id="assignment_x5F_link_copy">
</g>
<g id="Layer_21">
</g>
<g id="home_x5F_hover">
</g>
<g id="home_1_">
</g>
<g id="edit_x5F_profile">
</g>
<g id="preferences">
</g>
<g id="notifications">
</g>
<g id="my_x5F_posts">
</g>
<g id="logout">
</g>
<g id="assignment">
</g>
<g id="coursework">
</g>
<g id="forum">
</g>
<g id="quiz">
</g>
<g id="book">
</g>
<g id="database">
</g>
<g id="wiki">
</g>
<g id="choice">
</g>
<g id="workshop">
</g>
<g id="certificate">
</g>
<g id="scheduler">
</g>
<g id="equella">
</g>
<g id="file">
</g>
<g id="folder">
</g>
<g id="ims_x5F_content_x5F_package">
</g>
<g id="label">
	<g>
		<g>
			<path fill="#FFFFFF" d="M22.7482986,61.9065514L2.092555,41.2508049c-1.0140314-1.0140305-1.0140314-2.6581001,0-3.6721306
				L33.2990265,6.3722029c6.7179489-6.7179508,17.6099014-6.7179503,24.3278503,0.0000014l0.0000267,0.0000243
				c6.7179451,6.7179508,6.7179451,17.6099014-0.0000038,24.3278522L26.4204311,61.9065514
				C25.4063988,62.9205818,23.7623291,62.9205818,22.7482986,61.9065514z"/>
		</g>
		<g opacity="0.3">
			<g>
				<path fill="#32548C" d="M51.2772522,12.7218533c-3.2110977-3.2110987-8.4173965-3.2110987-11.6284943,0
					c-3.2112083,3.2112103-3.2112083,8.4175072-0.0001106,11.6286049s8.4173927,3.2110996,11.6286049-0.0001106
					C54.4883499,21.1392479,54.4883499,15.9329519,51.2772522,12.7218533z M42.5241127,21.4749928
					c-1.6230316-1.6230297-1.6231461-4.2546425,0-5.8777866c1.6230316-1.6230307,4.2546425-1.6229191,5.8776741,0.0001125
					s1.6231422,4.2546444,0.0001106,5.8776741C46.7787552,23.0981369,44.1471443,23.0980244,42.5241127,21.4749928z"/>
			</g>
		</g>
		<g>
			<path fill="#32548C" d="M24.5846348,64c-1.0494785,0-2.0364571-0.4088554-2.7786446-1.1510429l-20.65625-20.6549454
				c-1.53125-1.5325546-1.53125-4.0260429,0-5.5585938L32.3554688,5.4296875C35.8554688,1.9283854,40.5117188,0,45.4622383,0
				c4.953125,0,9.6067734,1.9283854,13.1067734,5.4296875c3.5026016,3.5,5.4296875,8.1549482,5.4296875,13.1067715
				c0,4.9505196-1.9270859,9.6054688-5.4296875,13.1067696L27.3632813,62.8489571
				C26.6210938,63.5911446,25.6341152,64,24.5846348,64z M45.4622383,2.6666667
				c-4.2369766,0-8.2239571,1.6510417-11.2213516,4.6484375L3.0351563,38.5208321
				c-0.4921875,0.4921875-0.4921875,1.2955742,0,1.7877617l20.65625,20.6549492l0,0
				c0.479166,0.4765625,1.307291,0.4765625,1.786459,0l31.2057285-31.2057304
				c2.9973946-2.9973965,4.6484375-6.9830723,4.6484375-11.2213535c0-4.239584-1.6510429-8.223959-4.6484375-11.2213554
				S49.7018242,2.6666667,45.4622383,2.6666667z"/>
		</g>
		<g>
			<path fill="#32548C" d="M45.4622383,28.0755215c-2.5625,0-4.9609375-0.9882813-6.7552071-2.7825527
				s-2.7838554-4.1940098-2.7838554-6.7565098c0-2.5638027,0.9895859-4.963542,2.7838554-6.7578135
				c3.5885429-3.588541,9.9244804-3.588541,13.5130196,0c1.515625,1.5169277,2.4869804,3.5234375,2.734375,5.6484385
				c0.0833359,0.7317696-0.4401016,1.3932285-1.171875,1.4778633c-0.734375,0.083334-1.390625-0.4375-1.4791641-1.1705723
				c-0.1770859-1.53125-0.8776054-2.9765625-1.96875-4.0703125c-2.5833359-2.5807295-7.1640625-2.5807295-9.7421875,0
				c-1.2916679,1.291667-2.0026054,3.020834-2.0026054,4.8723965c0,1.8502598,0.7109375,3.5807285,2.0026054,4.8710938
				c2.5807266,2.5872383,7.1614571,2.5794258,9.7421875,0c0.2473946-0.2473965,0.4739571-0.5130215,0.6822891-0.7942715
				c0.4427109-0.5898438,1.28125-0.7161465,1.8645859-0.2786465c0.59375,0.4375,0.71875,1.2721367,0.28125,1.864584
				c-0.2864609,0.3880215-0.6015625,0.7526035-0.9427109,1.09375
				C50.4257813,27.0872402,48.0247383,28.0755215,45.4622383,28.0755215z"/>
		</g>
		<g>
			<path fill="#32548C" d="M45.4622383,24.0234375c-1.4036446,0-2.8098946-0.5351563-3.8802071-1.6054688
				c-0.6640625-0.6640625-1.1484375-1.4908848-1.4036446-2.3919277c-0.2005234-0.7083321,0.2135391-1.4453125,0.921875-1.6458321
				c0.7213516-0.1966152,1.4453125,0.2148438,1.6458321,0.921875c0.1302071,0.463541,0.3802071,0.8880196,0.7213554,1.2304688
				c1.0963516,1.1015625,2.890625,1.104166,3.9921875,0c1.1015625-1.1002617,1.1015625-2.8919277,0-3.9921875
				c-1.1041679-1.104167-2.8984375-1.1015635-3.9921875,0c-0.5208359,0.5208321-1.3645859,0.5208321-1.8854179,0
				c-0.5208321-0.520834-0.5208321-1.364584,0-1.885417c2.1432304-2.1419277,5.625-2.1367188,7.7630196,0
				c2.140625,2.140624,2.140625,5.6223955,0,7.7630205C48.2747383,23.4882813,46.8684883,24.0234375,45.4622383,24.0234375z"/>
		</g>
		<g>
			<g opacity="0.3">
				<g>
					<path fill="#32548C" d="M25.0994568,24.3601437L12.1224403,37.337162c-0.9801216,0.9801216-0.9801216,2.5692101,0,3.5493317
						l5.2111931,5.2111969c0.9801216,0.9801216,2.569212,0.9801216,3.5493336,0l12.9770184-12.9770203
						c0.9801216-0.9801216,0.9801216-2.569212,0-3.5493336l-5.2111931-5.2111931
						C27.6686707,23.380022,26.0795784,23.380022,25.0994568,24.3601437z"/>
				</g>
			</g>
			<g>
				<g>
					<path fill="#32548C" d="M19.1080723,48.1666679c-1.026041,0-1.9921875-0.3997421-2.7161446-1.1263046l-5.2109385-5.2109375
						c-0.7265625-0.7252579-1.1276035-1.6901016-1.1276035-2.7174454s0.401041-1.9921875,1.1276035-2.71875l12.416667-12.4166679
						c0.520834-0.520834,1.364584-0.520834,1.885416,0c0.520834,0.520834,0.520834,1.364584,0,1.885416l-12.416666,12.4179707
						c-0.223958,0.2226563-0.3463545,0.5182266-0.3463545,0.8320313c0,0.3138008,0.1223965,0.609375,0.3463545,0.8307266
						l5.2109375,5.2122421c0.4453125,0.4492188,1.223959,0.4453125,1.6640625-0.0013046l12.9765625-12.9752579
						c0.4583321-0.458334,0.4583321-1.2057304,0-1.6640644l-4.71875-4.71875c-0.520834-0.5208321-0.520834-1.3645821,0-1.885416
						s1.364584-0.520834,1.885416,0l4.7187519,4.71875c1.4973946,1.4986973,1.4973946,3.9361992,0,5.4348946L21.8268223,47.0403633
						C21.1002598,47.7669258,20.1341152,48.1666679,19.1080723,48.1666679z"/>
				</g>
			</g>
			<g>
				<path fill="#32548C" d="M26.1861973,53.6875c-0.3411446,0-0.682291-0.1302071-0.9427071-0.390625
					c-0.520834-0.5208321-0.520834-1.3645821,0-1.8854179l13.9296856-13.9309883
					c0.5208359-0.5208321,1.3645859-0.5208321,1.8854179,0s0.5208321,1.3645821,0,1.8854179L27.1289063,53.296875
					C26.8684902,53.5572929,26.5273438,53.6875,26.1861973,53.6875z"/>
			</g>
		</g>
	</g>
</g>
<g id="lightbox_x5F_gallery">
</g>
<g id="nln_x5F_learning_x5F_object">
</g>
<g id="page">
</g>
<g id="subpage">
</g>
<g id="tab_x5F_display">
</g>
<g id="new_x5F_label">
</g>
<g id="url">
</g>
<g id="_x33_60_x5F_degree_x5F_diagnostics">
</g>
<g id="adobe_x5F_connect">
</g>
<g id="attendance_x5F_register">
</g>
<g id="booking">
</g>
<g id="chat">
</g>
<g id="checklist">
</g>
<g id="external_x5F_tool">
</g>
<g id="face_x5F_to_x5F_face">
</g>
<g id="forumNG">
</g>
<g id="glossary">
</g>
<g id="group_x5F_choice">
</g>
<g id="journal">
</g>
<g id="mediasite_x5F_content">
</g>
<g id="nanogong_x5F_voice">
</g>
<g id="questionnaire">
</g>
<g id="scorm_x5F_package">
</g>
<g id="survey">
</g>
<g id="tutorship">
</g>
<g id="advanced_x5F_forum">
</g>
<g id="subcourse">
</g>
<g id="lesson_1_">
</g>
<g id="adaptive_x5F_quiz">
</g>
<g id="ou_x5F_wiki">
</g>
<g id="support_x5F_tracker">
</g>
<g id="view_x5F_comments">
</g>
<g id="no_x5F_comment">
</g>
<g id="attention">
</g>
<g id="search">
</g>
<g id="submitted">
</g>
<g id="feedback">
</g>
<g id="T_x5F_I_x5F_N">
</g>
</svg>
